%TF.GenerationSoftware,KiCad,Pcbnew,9.0.0*%
%TF.CreationDate,2025-03-14T13:06:40-07:00*%
%TF.ProjectId,AMS - CANBus - Dinger,414d5320-2d20-4434-914e-427573202d20,rev?*%
%TF.SameCoordinates,Original*%
%TF.FileFunction,Paste,Bot*%
%TF.FilePolarity,Positive*%
%FSLAX46Y46*%
G04 Gerber Fmt 4.6, Leading zero omitted, Abs format (unit mm)*
G04 Created by KiCad (PCBNEW 9.0.0) date 2025-03-14 13:06:40*
%MOMM*%
%LPD*%
G01*
G04 APERTURE LIST*
G04 Aperture macros list*
%AMRoundRect*
0 Rectangle with rounded corners*
0 $1 Rounding radius*
0 $2 $3 $4 $5 $6 $7 $8 $9 X,Y pos of 4 corners*
0 Add a 4 corners polygon primitive as box body*
4,1,4,$2,$3,$4,$5,$6,$7,$8,$9,$2,$3,0*
0 Add four circle primitives for the rounded corners*
1,1,$1+$1,$2,$3*
1,1,$1+$1,$4,$5*
1,1,$1+$1,$6,$7*
1,1,$1+$1,$8,$9*
0 Add four rect primitives between the rounded corners*
20,1,$1+$1,$2,$3,$4,$5,0*
20,1,$1+$1,$4,$5,$6,$7,0*
20,1,$1+$1,$6,$7,$8,$9,0*
20,1,$1+$1,$8,$9,$2,$3,0*%
G04 Aperture macros list end*
%ADD10RoundRect,0.250000X0.650000X-0.412500X0.650000X0.412500X-0.650000X0.412500X-0.650000X-0.412500X0*%
%ADD11RoundRect,0.250000X-0.400000X-0.625000X0.400000X-0.625000X0.400000X0.625000X-0.400000X0.625000X0*%
%ADD12RoundRect,0.250000X-0.625000X0.400000X-0.625000X-0.400000X0.625000X-0.400000X0.625000X0.400000X0*%
%ADD13RoundRect,0.250000X0.625000X-0.400000X0.625000X0.400000X-0.625000X0.400000X-0.625000X-0.400000X0*%
%ADD14RoundRect,0.250000X0.400000X0.625000X-0.400000X0.625000X-0.400000X-0.625000X0.400000X-0.625000X0*%
%ADD15RoundRect,0.150000X-0.825000X-0.150000X0.825000X-0.150000X0.825000X0.150000X-0.825000X0.150000X0*%
%ADD16RoundRect,0.250000X-0.412500X-0.650000X0.412500X-0.650000X0.412500X0.650000X-0.412500X0.650000X0*%
%ADD17R,0.550000X1.000000*%
%ADD18RoundRect,0.150000X-0.875000X-0.150000X0.875000X-0.150000X0.875000X0.150000X-0.875000X0.150000X0*%
G04 APERTURE END LIST*
D10*
%TO.C,C2*%
X119224200Y-122835600D03*
X119224200Y-119710600D03*
%TD*%
D11*
%TO.C,R5*%
X104614200Y-77194500D03*
X101514200Y-77194500D03*
%TD*%
D12*
%TO.C,R7*%
X101934000Y-74027800D03*
X101934000Y-70927800D03*
%TD*%
%TO.C,R8*%
X104342100Y-74011800D03*
X104342100Y-70911800D03*
%TD*%
%TO.C,R21*%
X111098300Y-123154900D03*
X111098300Y-120054900D03*
%TD*%
D13*
%TO.C,R20*%
X91944200Y-124419200D03*
X91944200Y-127519200D03*
%TD*%
D14*
%TO.C,R22*%
X108028500Y-126620800D03*
X111128500Y-126620800D03*
%TD*%
D12*
%TO.C,R24*%
X111065100Y-139473400D03*
X111065100Y-136373400D03*
%TD*%
%TO.C,R10*%
X111120800Y-106373800D03*
X111120800Y-103273800D03*
%TD*%
D13*
%TO.C,R9*%
X91639700Y-108483200D03*
X91639700Y-111583200D03*
%TD*%
%TO.C,R23*%
X92449500Y-140278200D03*
X92449500Y-143378200D03*
%TD*%
D14*
%TO.C,R11*%
X108068400Y-110112000D03*
X111168400Y-110112000D03*
%TD*%
%TO.C,R25*%
X107980100Y-142894000D03*
X111080100Y-142894000D03*
%TD*%
D11*
%TO.C,R2*%
X119127900Y-132792200D03*
X122227900Y-132792200D03*
%TD*%
%TO.C,R12*%
X101300300Y-91720800D03*
X104400300Y-91720800D03*
%TD*%
D12*
%TO.C,R15*%
X104277500Y-86523600D03*
X104277500Y-89623600D03*
%TD*%
D15*
%TO.C,U7*%
X129795000Y-77119700D03*
X129795000Y-75849700D03*
X129795000Y-74579700D03*
X129795000Y-73309700D03*
X134745000Y-73309700D03*
X134745000Y-74579700D03*
X134745000Y-75849700D03*
X134745000Y-77119700D03*
%TD*%
D11*
%TO.C,R13*%
X107823000Y-91791000D03*
X110923000Y-91791000D03*
%TD*%
D16*
%TO.C,C14*%
X113048400Y-51062500D03*
X116173400Y-51062500D03*
%TD*%
D11*
%TO.C,R1*%
X132819100Y-58148500D03*
X135919100Y-58148500D03*
%TD*%
D17*
%TO.C,D9*%
X137623800Y-72096200D03*
X138923800Y-72096200D03*
X138273800Y-73996200D03*
%TD*%
D16*
%TO.C,C10*%
X80733100Y-98242000D03*
X83858100Y-98242000D03*
%TD*%
D18*
%TO.C,U6*%
X99712200Y-55145500D03*
X99712200Y-53875500D03*
X99712200Y-52605500D03*
X99712200Y-51335500D03*
X99712200Y-50065500D03*
X99712200Y-48795500D03*
X99712200Y-47525500D03*
X99712200Y-46255500D03*
X99712200Y-44985500D03*
X109012200Y-44985500D03*
X109012200Y-46255500D03*
X109012200Y-47525500D03*
X109012200Y-48795500D03*
X109012200Y-50065500D03*
X109012200Y-51335500D03*
X109012200Y-52605500D03*
X109012200Y-53875500D03*
X109012200Y-55145500D03*
%TD*%
D12*
%TO.C,R18*%
X80927400Y-90618100D03*
X80927400Y-93718100D03*
%TD*%
%TO.C,R19*%
X83499100Y-90618100D03*
X83499100Y-93718100D03*
%TD*%
D16*
%TO.C,C9*%
X101400200Y-94197000D03*
X104525200Y-94197000D03*
%TD*%
D11*
%TO.C,R17*%
X88085500Y-95682700D03*
X91185500Y-95682700D03*
%TD*%
D12*
%TO.C,R14*%
X101850300Y-86520500D03*
X101850300Y-89620500D03*
%TD*%
D11*
%TO.C,R16*%
X80674200Y-95818700D03*
X83774200Y-95818700D03*
%TD*%
D16*
%TO.C,C8*%
X101520400Y-79868400D03*
X104645400Y-79868400D03*
%TD*%
D11*
%TO.C,R6*%
X107740100Y-77309300D03*
X110840100Y-77309300D03*
%TD*%
M02*
