%TF.GenerationSoftware,KiCad,Pcbnew,9.0.0*%
%TF.CreationDate,2025-03-14T13:06:40-07:00*%
%TF.ProjectId,AMS - CANBus - Dinger,414d5320-2d20-4434-914e-427573202d20,rev?*%
%TF.SameCoordinates,Original*%
%TF.FileFunction,Copper,L1,Top*%
%TF.FilePolarity,Positive*%
%FSLAX46Y46*%
G04 Gerber Fmt 4.6, Leading zero omitted, Abs format (unit mm)*
G04 Created by KiCad (PCBNEW 9.0.0) date 2025-03-14 13:06:40*
%MOMM*%
%LPD*%
G01*
G04 APERTURE LIST*
G04 Aperture macros list*
%AMRoundRect*
0 Rectangle with rounded corners*
0 $1 Rounding radius*
0 $2 $3 $4 $5 $6 $7 $8 $9 X,Y pos of 4 corners*
0 Add a 4 corners polygon primitive as box body*
4,1,4,$2,$3,$4,$5,$6,$7,$8,$9,$2,$3,0*
0 Add four circle primitives for the rounded corners*
1,1,$1+$1,$2,$3*
1,1,$1+$1,$4,$5*
1,1,$1+$1,$6,$7*
1,1,$1+$1,$8,$9*
0 Add four rect primitives between the rounded corners*
20,1,$1+$1,$2,$3,$4,$5,0*
20,1,$1+$1,$4,$5,$6,$7,0*
20,1,$1+$1,$6,$7,$8,$9,0*
20,1,$1+$1,$8,$9,$2,$3,0*%
G04 Aperture macros list end*
%TA.AperFunction,ComponentPad*%
%ADD10O,1.050000X1.500000*%
%TD*%
%TA.AperFunction,ComponentPad*%
%ADD11R,1.050000X1.500000*%
%TD*%
%TA.AperFunction,ComponentPad*%
%ADD12O,1.600000X1.600000*%
%TD*%
%TA.AperFunction,ComponentPad*%
%ADD13R,1.600000X1.600000*%
%TD*%
%TA.AperFunction,ComponentPad*%
%ADD14O,2.600000X2.600000*%
%TD*%
%TA.AperFunction,ComponentPad*%
%ADD15R,2.600000X2.600000*%
%TD*%
%TA.AperFunction,ComponentPad*%
%ADD16C,1.920000*%
%TD*%
%TA.AperFunction,ComponentPad*%
%ADD17R,1.920000X1.920000*%
%TD*%
%TA.AperFunction,ComponentPad*%
%ADD18O,1.500000X1.050000*%
%TD*%
%TA.AperFunction,ComponentPad*%
%ADD19R,1.500000X1.050000*%
%TD*%
%TA.AperFunction,ComponentPad*%
%ADD20C,1.150000*%
%TD*%
%TA.AperFunction,ComponentPad*%
%ADD21R,1.150000X1.150000*%
%TD*%
%TA.AperFunction,ComponentPad*%
%ADD22C,2.600000*%
%TD*%
%TA.AperFunction,ComponentPad*%
%ADD23C,1.800000*%
%TD*%
%TA.AperFunction,ComponentPad*%
%ADD24R,1.800000X1.800000*%
%TD*%
%TA.AperFunction,SMDPad,CuDef*%
%ADD25RoundRect,0.250000X0.625000X-0.400000X0.625000X0.400000X-0.625000X0.400000X-0.625000X-0.400000X0*%
%TD*%
%TA.AperFunction,ComponentPad*%
%ADD26O,1.700000X1.700000*%
%TD*%
%TA.AperFunction,ComponentPad*%
%ADD27R,1.700000X1.700000*%
%TD*%
%TA.AperFunction,ComponentPad*%
%ADD28R,1.500000X1.500000*%
%TD*%
%TA.AperFunction,ComponentPad*%
%ADD29C,1.500000*%
%TD*%
%TA.AperFunction,SMDPad,CuDef*%
%ADD30RoundRect,0.250000X-0.412500X-0.650000X0.412500X-0.650000X0.412500X0.650000X-0.412500X0.650000X0*%
%TD*%
%TA.AperFunction,ComponentPad*%
%ADD31C,1.400000*%
%TD*%
%TA.AperFunction,ComponentPad*%
%ADD32O,1.400000X1.400000*%
%TD*%
%TA.AperFunction,ComponentPad*%
%ADD33C,2.100000*%
%TD*%
%TA.AperFunction,SMDPad,CuDef*%
%ADD34RoundRect,0.250000X0.412500X0.650000X-0.412500X0.650000X-0.412500X-0.650000X0.412500X-0.650000X0*%
%TD*%
%TA.AperFunction,ComponentPad*%
%ADD35R,2.200000X2.200000*%
%TD*%
%TA.AperFunction,ComponentPad*%
%ADD36O,2.200000X2.200000*%
%TD*%
%TA.AperFunction,ComponentPad*%
%ADD37RoundRect,0.249999X-0.850001X-0.850001X0.850001X-0.850001X0.850001X0.850001X-0.850001X0.850001X0*%
%TD*%
%TA.AperFunction,ComponentPad*%
%ADD38C,2.200000*%
%TD*%
%TA.AperFunction,SMDPad,CuDef*%
%ADD39RoundRect,0.250000X0.400000X0.625000X-0.400000X0.625000X-0.400000X-0.625000X0.400000X-0.625000X0*%
%TD*%
%TA.AperFunction,ViaPad*%
%ADD40C,0.800000*%
%TD*%
%TA.AperFunction,Conductor*%
%ADD41C,0.250000*%
%TD*%
%TA.AperFunction,Conductor*%
%ADD42C,1.270000*%
%TD*%
%TA.AperFunction,Conductor*%
%ADD43C,0.889000*%
%TD*%
%TA.AperFunction,Conductor*%
%ADD44C,0.381000*%
%TD*%
%TA.AperFunction,Conductor*%
%ADD45C,0.635000*%
%TD*%
G04 APERTURE END LIST*
D10*
%TO.P,Q2,3,D*%
%TO.N,Net-(Q2-D)*%
X112262600Y-73695900D03*
%TO.P,Q2,2,G*%
%TO.N,Net-(D3-A)*%
X110992600Y-73695900D03*
D11*
%TO.P,Q2,1,S*%
%TO.N,GND*%
X109722600Y-73695900D03*
%TD*%
D12*
%TO.P,U3,4*%
%TO.N,Input1*%
X106744000Y-72257800D03*
%TO.P,U3,3*%
%TO.N,GND*%
X106744000Y-74797800D03*
%TO.P,U3,2*%
%TO.N,Net-(Q2-D)*%
X99124000Y-74797800D03*
D13*
%TO.P,U3,1*%
%TO.N,Net-(R7-Pad2)*%
X99124000Y-72257800D03*
%TD*%
D14*
%TO.P,D7,2,A*%
%TO.N,GND*%
X117478700Y-125940800D03*
D15*
%TO.P,D7,1,K*%
%TO.N,/Output1/Output*%
X102238700Y-125940800D03*
%TD*%
D16*
%TO.P,Q10,3*%
%TO.N,+VSW*%
X104526400Y-137192300D03*
%TO.P,Q10,2*%
%TO.N,/Output2/Output*%
X101986400Y-137192300D03*
D17*
%TO.P,Q10,1*%
%TO.N,Net-(Q10-Pad1)*%
X99446400Y-137192300D03*
%TD*%
D18*
%TO.P,Q3,3,D*%
%TO.N,Net-(Q3-D)*%
X96016800Y-111296400D03*
%TO.P,Q3,2,G*%
%TO.N,Output1*%
X96016800Y-110026400D03*
D19*
%TO.P,Q3,1,S*%
%TO.N,GND*%
X96016800Y-108756400D03*
%TD*%
D20*
%TO.P,Z3,2*%
%TO.N,Net-(Q4-Pad1)*%
X100413000Y-100109900D03*
D21*
%TO.P,Z3,1*%
%TO.N,+VSW*%
X111113000Y-100109900D03*
%TD*%
D18*
%TO.P,Q7,3,D*%
%TO.N,Net-(Q7-D)*%
X96016800Y-127270500D03*
%TO.P,Q7,2,G*%
%TO.N,Output2*%
X96016800Y-126000500D03*
D19*
%TO.P,Q7,1,S*%
%TO.N,GND*%
X96016800Y-124730500D03*
%TD*%
D16*
%TO.P,Q4,3*%
%TO.N,+VSW*%
X104526400Y-105159300D03*
%TO.P,Q4,2*%
%TO.N,/Output/Output*%
X101986400Y-105159300D03*
D17*
%TO.P,Q4,1*%
%TO.N,Net-(Q4-Pad1)*%
X99446400Y-105159300D03*
%TD*%
D14*
%TO.P,D4,2,A*%
%TO.N,GND*%
X117478700Y-109921600D03*
D15*
%TO.P,D4,1,K*%
%TO.N,/Output/Output*%
X102238700Y-109921600D03*
%TD*%
D20*
%TO.P,Z5,2*%
%TO.N,Net-(Q10-Pad1)*%
X100413000Y-132438900D03*
D21*
%TO.P,Z5,1*%
%TO.N,+VSW*%
X111113000Y-132438900D03*
%TD*%
D16*
%TO.P,Q8,3*%
%TO.N,+VSW*%
X104526400Y-120739500D03*
%TO.P,Q8,2*%
%TO.N,/Output1/Output*%
X101986400Y-120739500D03*
D17*
%TO.P,Q8,1*%
%TO.N,Net-(Q8-Pad1)*%
X99446400Y-120739500D03*
%TD*%
D18*
%TO.P,Q9,3,D*%
%TO.N,Net-(Q9-D)*%
X96016800Y-143281700D03*
%TO.P,Q9,2,G*%
%TO.N,Output3*%
X96016800Y-142011700D03*
D19*
%TO.P,Q9,1,S*%
%TO.N,GND*%
X96016800Y-140741700D03*
%TD*%
D20*
%TO.P,Z4,2*%
%TO.N,Net-(Q8-Pad1)*%
X100413000Y-116028100D03*
D21*
%TO.P,Z4,1*%
%TO.N,+VSW*%
X111113000Y-116028100D03*
%TD*%
D14*
%TO.P,D8,2,A*%
%TO.N,GND*%
X117478700Y-142011500D03*
D15*
%TO.P,D8,1,K*%
%TO.N,/Output2/Output*%
X102238700Y-142011500D03*
%TD*%
D22*
%TO.P,Z1,3,Pin_3*%
%TO.N,/Output2/Output*%
X82028100Y-122675400D03*
%TO.P,Z1,2,Pin_2*%
%TO.N,/Output1/Output*%
X82028100Y-117595400D03*
D15*
%TO.P,Z1,1,Pin_1*%
%TO.N,/Output/Output*%
X82028100Y-112515400D03*
%TD*%
D23*
%TO.P,D1,2,A*%
%TO.N,LED*%
X135616800Y-85343700D03*
D24*
%TO.P,D1,1,K*%
%TO.N,Net-(D1-K)*%
X133076800Y-85343700D03*
%TD*%
D12*
%TO.P,U2,28,PC5*%
%TO.N,unconnected-(U2-PC5-Pad28)*%
X128302100Y-123377100D03*
%TO.P,U2,27,PC4*%
%TO.N,unconnected-(U2-PC4-Pad27)*%
X128302100Y-120837100D03*
%TO.P,U2,26,PC3*%
%TO.N,unconnected-(U2-PC3-Pad26)*%
X128302100Y-118297100D03*
%TO.P,U2,25,PC2*%
%TO.N,unconnected-(U2-PC2-Pad25)*%
X128302100Y-115757100D03*
%TO.P,U2,24,PC1*%
%TO.N,unconnected-(U2-PC1-Pad24)*%
X128302100Y-113217100D03*
%TO.P,U2,23,PC0*%
%TO.N,unconnected-(U2-PC0-Pad23)*%
X128302100Y-110677100D03*
%TO.P,U2,22,GND*%
%TO.N,GND*%
X128302100Y-108137100D03*
%TO.P,U2,21,AREF*%
%TO.N,+5V*%
X128302100Y-105597100D03*
%TO.P,U2,20,AVCC*%
X128302100Y-103057100D03*
%TO.P,U2,19,PB5*%
%TO.N,SCK*%
X128302100Y-100517100D03*
%TO.P,U2,18,PB4*%
%TO.N,MISO*%
X128302100Y-97977100D03*
%TO.P,U2,17,PB3*%
%TO.N,MOSI*%
X128302100Y-95437100D03*
%TO.P,U2,16,PB2*%
%TO.N,D10*%
X128302100Y-92897100D03*
%TO.P,U2,15,PB1*%
%TO.N,Output3*%
X128302100Y-90357100D03*
%TO.P,U2,14,PB0*%
%TO.N,D8*%
X135922100Y-90357100D03*
%TO.P,U2,13,PD7*%
%TO.N,LED*%
X135922100Y-92897100D03*
%TO.P,U2,12,PD6*%
%TO.N,Output2*%
X135922100Y-95437100D03*
%TO.P,U2,11,PD5*%
%TO.N,Output1*%
X135922100Y-97977100D03*
%TO.P,U2,10,XTAL2/PB7*%
%TO.N,Net-(U2-XTAL2{slash}PB7)*%
X135922100Y-100517100D03*
%TO.P,U2,9,XTAL1/PB6*%
%TO.N,Net-(U2-XTAL1{slash}PB6)*%
X135922100Y-103057100D03*
%TO.P,U2,8,GND*%
%TO.N,GND*%
X135922100Y-105597100D03*
%TO.P,U2,7,VCC*%
%TO.N,+5V*%
X135922100Y-108137100D03*
%TO.P,U2,6,PD4*%
%TO.N,Input2*%
X135922100Y-110677100D03*
%TO.P,U2,5,PD3*%
%TO.N,Input1*%
X135922100Y-113217100D03*
%TO.P,U2,4,PD2*%
%TO.N,Input3*%
X135922100Y-115757100D03*
%TO.P,U2,3,PD1*%
%TO.N,TXttl*%
X135922100Y-118297100D03*
%TO.P,U2,2,PD0*%
%TO.N,RXttl*%
X135922100Y-120837100D03*
D13*
%TO.P,U2,1,~{RESET}/PC6*%
%TO.N,Reset*%
X135922100Y-123377100D03*
%TD*%
D25*
%TO.P,R3,2*%
%TO.N,GND*%
X130690200Y-83758600D03*
%TO.P,R3,1*%
%TO.N,Net-(D1-K)*%
X130690200Y-86858600D03*
%TD*%
D26*
%TO.P,J1,6,Pin_6*%
%TO.N,Net-(J1-Pin_6)*%
X123166800Y-122722100D03*
%TO.P,J1,5,Pin_5*%
%TO.N,TXttl*%
X123166800Y-120182100D03*
%TO.P,J1,4,Pin_4*%
%TO.N,RXttl*%
X123166800Y-117642100D03*
%TO.P,J1,3,Pin_3*%
%TO.N,+5V*%
X123166800Y-115102100D03*
%TO.P,J1,2,Pin_2*%
%TO.N,unconnected-(J1-Pin_2-Pad2)*%
X123166800Y-112562100D03*
D27*
%TO.P,J1,1,Pin_1*%
%TO.N,GND*%
X123166800Y-110022100D03*
%TD*%
D28*
%TO.P,S1,1,NO_1*%
%TO.N,Reset*%
X122260500Y-135705900D03*
D29*
%TO.P,S1,2,NO_2*%
%TO.N,unconnected-(S1-NO_2-Pad2)*%
X122260500Y-129205900D03*
%TO.P,S1,3,COM_1*%
%TO.N,GND*%
X126760500Y-135705900D03*
%TO.P,S1,4,COM_2*%
%TO.N,unconnected-(S1-COM_2-Pad4)*%
X126760500Y-129205900D03*
%TD*%
D30*
%TO.P,C5,2*%
%TO.N,GND*%
X124329800Y-104530700D03*
%TO.P,C5,1*%
%TO.N,Net-(U2-XTAL1{slash}PB6)*%
X121204800Y-104530700D03*
%TD*%
D29*
%TO.P,Y1,2,2*%
%TO.N,Net-(U2-XTAL2{slash}PB7)*%
X122840900Y-94664800D03*
%TO.P,Y1,1,1*%
%TO.N,Net-(U2-XTAL1{slash}PB6)*%
X122840900Y-99544800D03*
%TD*%
D30*
%TO.P,C7,2*%
%TO.N,GND*%
X124393600Y-89405800D03*
%TO.P,C7,1*%
%TO.N,Net-(U2-XTAL2{slash}PB7)*%
X121268600Y-89405800D03*
%TD*%
D31*
%TO.P,R28,1*%
%TO.N,Net-(J2-Pin_2)*%
X122646400Y-70894900D03*
D32*
%TO.P,R28,2*%
%TO.N,CANBUS_L*%
X124546400Y-70894900D03*
%TD*%
D31*
%TO.P,R27,1*%
%TO.N,Net-(U7-Rs)*%
X134770000Y-79113500D03*
D32*
%TO.P,R27,2*%
%TO.N,GND*%
X136670000Y-79113500D03*
%TD*%
D33*
%TO.P,U8,1,1*%
%TO.N,+VSW*%
X105720100Y-61525300D03*
%TO.P,U8,2,2*%
X109220100Y-61525300D03*
%TO.P,U8,3,3*%
%TO.N,Net-(Q1-Pad3)*%
X115020100Y-61525300D03*
%TO.P,U8,4,4*%
X118520100Y-61525300D03*
%TO.P,U8,5,5*%
X118520100Y-59025300D03*
%TO.P,U8,6,6*%
X115020100Y-59025300D03*
%TO.P,U8,7,7*%
%TO.N,+VSW*%
X109220100Y-59025300D03*
%TO.P,U8,8,8*%
X105720100Y-59025300D03*
%TD*%
D34*
%TO.P,C11,1*%
%TO.N,Net-(U6-OSC2)*%
X88204100Y-63342200D03*
%TO.P,C11,2*%
%TO.N,GND*%
X85079100Y-63342200D03*
%TD*%
D13*
%TO.P,U4,1*%
%TO.N,Net-(R14-Pad2)*%
X99040300Y-86836700D03*
D12*
%TO.P,U4,2*%
%TO.N,Net-(Q5-D)*%
X99040300Y-89376700D03*
%TO.P,U4,3*%
%TO.N,GND*%
X106660300Y-89376700D03*
%TO.P,U4,4*%
%TO.N,Input2*%
X106660300Y-86836700D03*
%TD*%
D33*
%TO.P,U1,1,1*%
%TO.N,+VDC*%
X124481900Y-50115500D03*
%TO.P,U1,2,2*%
X124481900Y-53615500D03*
%TO.P,U1,3,3*%
%TO.N,Net-(Q1-Pad3)*%
X124481900Y-59415500D03*
%TO.P,U1,4,4*%
X124481900Y-62915500D03*
%TO.P,U1,5,5*%
X126981900Y-62915500D03*
%TO.P,U1,6,6*%
X126981900Y-59415500D03*
%TO.P,U1,7,7*%
%TO.N,+VDC*%
X126981900Y-53615500D03*
%TO.P,U1,8,8*%
X126981900Y-50115500D03*
%TD*%
D11*
%TO.P,Q6,1,S*%
%TO.N,GND*%
X88895700Y-92502700D03*
D10*
%TO.P,Q6,2,G*%
%TO.N,Net-(D6-A)*%
X90165700Y-92502700D03*
%TO.P,Q6,3,D*%
%TO.N,Net-(Q6-D)*%
X91435700Y-92502700D03*
%TD*%
D15*
%TO.P,Z2,1,Pin_1*%
%TO.N,/Input/Input*%
X82709700Y-70523000D03*
D22*
%TO.P,Z2,2,Pin_2*%
%TO.N,/Input1/Input*%
X82709700Y-75603000D03*
%TO.P,Z2,3,Pin_3*%
%TO.N,/Input2/Input*%
X82709700Y-80683000D03*
%TD*%
D11*
%TO.P,Q5,1,S*%
%TO.N,GND*%
X109609800Y-88471700D03*
D10*
%TO.P,Q5,2,G*%
%TO.N,Net-(D5-A)*%
X110879800Y-88471700D03*
%TO.P,Q5,3,D*%
%TO.N,Net-(Q5-D)*%
X112149800Y-88471700D03*
%TD*%
D35*
%TO.P,D5,1,K*%
%TO.N,/Input1/Input*%
X97706700Y-94202000D03*
D36*
%TO.P,D5,2,A*%
%TO.N,Net-(D5-A)*%
X107866700Y-94202000D03*
%TD*%
D27*
%TO.P,Powerboard1,1,Pin_1*%
%TO.N,+VDC*%
X106618600Y-38633600D03*
D26*
%TO.P,Powerboard1,2,Pin_2*%
%TO.N,+5V*%
X104078600Y-38633600D03*
%TO.P,Powerboard1,3,Pin_3*%
%TO.N,GND*%
X101538600Y-38633600D03*
%TD*%
D13*
%TO.P,U5,1*%
%TO.N,Net-(R18-Pad2)*%
X78424200Y-90867700D03*
D12*
%TO.P,U5,2*%
%TO.N,Net-(Q6-D)*%
X78424200Y-93407700D03*
%TO.P,U5,3*%
%TO.N,GND*%
X86044200Y-93407700D03*
%TO.P,U5,4*%
%TO.N,Input3*%
X86044200Y-90867700D03*
%TD*%
D29*
%TO.P,Y2,1,1*%
%TO.N,Net-(U6-OSC1)*%
X86660300Y-53551100D03*
%TO.P,Y2,2,2*%
%TO.N,Net-(U6-OSC2)*%
X86660300Y-58431100D03*
%TD*%
D27*
%TO.P,J2,1,Pin_1*%
%TO.N,CANBUS_H*%
X125907100Y-73924000D03*
D26*
%TO.P,J2,2,Pin_2*%
%TO.N,Net-(J2-Pin_2)*%
X123367100Y-73924000D03*
%TD*%
D35*
%TO.P,D3,1,K*%
%TO.N,/Input/Input*%
X97844000Y-79900400D03*
D36*
%TO.P,D3,2,A*%
%TO.N,Net-(D3-A)*%
X108004000Y-79900400D03*
%TD*%
D37*
%TO.P,J3,1,Pin_1*%
%TO.N,Net-(J3-Pin_1)*%
X131552400Y-66242100D03*
D38*
%TO.P,J3,2,Pin_2*%
%TO.N,GND*%
X134092400Y-66242100D03*
%TO.P,J3,3,Pin_3*%
%TO.N,CANBUS_H*%
X136632400Y-66242100D03*
%TO.P,J3,4,Pin_4*%
%TO.N,CANBUS_L*%
X139172400Y-66242100D03*
%TD*%
D39*
%TO.P,R26,1*%
%TO.N,Net-(U6-~{RESET})*%
X116188200Y-53475500D03*
%TO.P,R26,2*%
%TO.N,+5V*%
X113088200Y-53475500D03*
%TD*%
D17*
%TO.P,Q1,1*%
%TO.N,Net-(Q1-Pad1)*%
X132877100Y-60498400D03*
D16*
%TO.P,Q1,2*%
%TO.N,Net-(J3-Pin_1)*%
X135417100Y-60498400D03*
%TO.P,Q1,3*%
%TO.N,Net-(Q1-Pad3)*%
X137957100Y-60498400D03*
%TD*%
D30*
%TO.P,C12,1*%
%TO.N,Net-(U6-OSC1)*%
X85188900Y-48693700D03*
%TO.P,C12,2*%
%TO.N,GND*%
X88313900Y-48693700D03*
%TD*%
D35*
%TO.P,D6,1,K*%
%TO.N,/Input2/Input*%
X77144200Y-98300100D03*
D36*
%TO.P,D6,2,A*%
%TO.N,Net-(D6-A)*%
X87304200Y-98300100D03*
%TD*%
D30*
%TO.P,C13,1*%
%TO.N,+5V*%
X113002900Y-51027600D03*
%TO.P,C13,2*%
%TO.N,GND*%
X116127900Y-51027600D03*
%TD*%
D40*
%TO.N,D10*%
X103689356Y-52605500D03*
%TO.N,MOSI*%
X119182400Y-63947700D03*
%TO.N,D10*%
X117475528Y-68837223D03*
X118804433Y-81946381D03*
X124373410Y-81933039D03*
X127528874Y-83820991D03*
%TO.N,+VSW*%
X111065000Y-136373000D03*
X111121000Y-103274000D03*
X111098000Y-120055000D03*
%TO.N,/CANBUS-MCP2515/TXtoCANTC*%
X117816600Y-65706900D03*
X120887400Y-76656500D03*
%TO.N,/CANBUS-MCP2515/RXtoCANTC*%
X117806200Y-66730800D03*
X120160600Y-72081400D03*
%TO.N,Net-(U6-~{RESET})*%
X116188000Y-53475500D03*
%TO.N,CANBUS_H*%
X137624000Y-72096200D03*
X134745000Y-75849700D03*
%TO.N,Net-(D6-A)*%
X83774200Y-95818700D03*
%TO.N,Net-(D5-A)*%
X104400000Y-91720800D03*
%TO.N,Net-(U6-OSC1)*%
X85188900Y-48693700D03*
%TO.N,Net-(U6-OSC2)*%
X88204100Y-63342200D03*
%TO.N,SCK*%
X108150400Y-57083000D03*
X121692700Y-57083000D03*
X121721800Y-66026500D03*
X124054100Y-85987600D03*
%TO.N,MISO*%
X117116000Y-67457500D03*
X123144900Y-88386000D03*
%TO.N,MOSI*%
X128451400Y-71707600D03*
%TO.N,D8*%
X115748929Y-63992400D03*
X132616500Y-75034500D03*
%TO.N,Input3*%
X116229000Y-108222800D03*
X118743600Y-108222800D03*
%TO.N,Input2*%
X116222700Y-101766200D03*
X118727300Y-103029300D03*
%TO.N,Output1*%
X116231300Y-117274100D03*
%TO.N,Input1*%
X118722600Y-69249100D03*
%TO.N,Net-(D3-A)*%
X104614000Y-77194500D03*
%TO.N,+5V*%
X101850000Y-86520500D03*
X81142800Y-90618100D03*
X101934000Y-70927800D03*
X109012000Y-55145500D03*
X129795000Y-74579700D03*
X113003000Y-51027600D03*
X113088000Y-53475500D03*
X122700800Y-57974200D03*
X123551500Y-68029700D03*
%TO.N,GND*%
X88313900Y-48693700D03*
X114862100Y-51026000D03*
%TO.N,D10*%
X109012200Y-52605500D03*
%TD*%
D41*
%TO.N,D10*%
X109012200Y-52605500D02*
X103689356Y-52605500D01*
%TO.N,D8*%
X132616500Y-74792300D02*
X132616500Y-75034500D01*
X118735300Y-63218300D02*
X121042500Y-63218300D01*
X117961200Y-63992400D02*
X118735300Y-63218300D01*
X115748929Y-63992400D02*
X117961200Y-63992400D01*
X121042500Y-63218300D02*
X132616500Y-74792300D01*
%TO.N,D10*%
X117475528Y-80617476D02*
X117475528Y-68837223D01*
X118804433Y-81946381D02*
X117475528Y-80617476D01*
X124373410Y-81933039D02*
X124346653Y-81906282D01*
X126261362Y-83820991D02*
X124373410Y-81933039D01*
X127528874Y-83820991D02*
X126261362Y-83820991D01*
%TO.N,MISO*%
X120092363Y-72807400D02*
X120092363Y-85333463D01*
X119587240Y-72807400D02*
X120092363Y-72807400D01*
X120092363Y-85333463D02*
X123144900Y-88386000D01*
X119448600Y-68948380D02*
X119448600Y-69549820D01*
X119291653Y-68791433D02*
X119448600Y-68948380D01*
X119291653Y-69706767D02*
X119291653Y-72511813D01*
X119448600Y-69549820D02*
X119291653Y-69706767D01*
X119291653Y-68772353D02*
X119291653Y-68791433D01*
X119291653Y-72511813D02*
X119587240Y-72807400D01*
X117976800Y-67457500D02*
X119291653Y-68772353D01*
X117116000Y-67457500D02*
X117976800Y-67457500D01*
%TO.N,Input1*%
X135922100Y-112090400D02*
X135922100Y-113217100D01*
X135640300Y-112090400D02*
X135922100Y-112090400D01*
X134795400Y-95180100D02*
X134795400Y-111245500D01*
X128818200Y-89202900D02*
X134795400Y-95180100D01*
X134795400Y-111245500D02*
X135640300Y-112090400D01*
X126767600Y-89202900D02*
X128818200Y-89202900D01*
X125326700Y-90643800D02*
X126767600Y-89202900D01*
X119530479Y-85424079D02*
X122416600Y-88310200D01*
X119530479Y-73523602D02*
X119530479Y-85424079D01*
X118727786Y-72720909D02*
X119530479Y-73523602D01*
X118727786Y-69254286D02*
X118727786Y-72720909D01*
X122416600Y-88310200D02*
X122416600Y-89323600D01*
X118722600Y-69249100D02*
X118727786Y-69254286D01*
X123736800Y-90643800D02*
X125326700Y-90643800D01*
X122416600Y-89323600D02*
X123736800Y-90643800D01*
D42*
%TO.N,+VSW*%
X115712673Y-99588327D02*
X115712673Y-68017973D01*
X114180000Y-115433000D02*
X114180000Y-101121000D01*
X115712673Y-68017973D02*
X109220000Y-61525300D01*
X111708000Y-115433000D02*
X114180000Y-115433000D01*
X114180000Y-101121000D02*
X115712673Y-99588327D01*
X111098000Y-116043000D02*
X111708000Y-115433000D01*
X111098000Y-116736000D02*
X111098000Y-116043000D01*
X114348096Y-96874904D02*
X114348096Y-70175396D01*
X114348096Y-70175396D02*
X105720000Y-61547300D01*
X111121000Y-100118000D02*
X111113000Y-100110000D01*
X111121000Y-103274000D02*
X111121000Y-100118000D01*
X111113000Y-100110000D02*
X114348096Y-96874904D01*
X111098000Y-120055000D02*
X111098000Y-116736000D01*
D43*
X110414000Y-120740000D02*
X111098000Y-120055000D01*
X104526000Y-120740000D02*
X110414000Y-120740000D01*
X105720000Y-61525300D02*
X105720000Y-59025300D01*
X109220000Y-61525300D02*
X105720100Y-61525300D01*
D42*
X111113000Y-132439000D02*
X111113000Y-132438900D01*
X111065000Y-132487000D02*
X111113000Y-132439000D01*
X111065000Y-136373000D02*
X111065000Y-132487000D01*
X111113000Y-116751000D02*
X111098000Y-116736000D01*
X111113000Y-132438900D02*
X111113000Y-116751000D01*
D43*
X105720100Y-59025300D02*
X109220000Y-59025300D01*
X109220000Y-59025300D02*
X109220000Y-61525300D01*
X109235000Y-105159000D02*
X111121000Y-103274000D01*
X104526700Y-105159000D02*
X109235000Y-105159000D01*
X110246000Y-137192000D02*
X111065000Y-136373000D01*
X104526700Y-137192000D02*
X110246000Y-137192000D01*
D41*
%TO.N,/CANBUS-MCP2515/TXtoCANTC*%
X120887400Y-68777700D02*
X120887400Y-76656500D01*
X117816600Y-65706900D02*
X120887400Y-68777700D01*
%TO.N,/CANBUS-MCP2515/RXtoCANTC*%
X120160600Y-68948000D02*
X120160600Y-72081400D01*
X117943400Y-66730800D02*
X120160600Y-68948000D01*
X117806200Y-66730800D02*
X117943400Y-66730800D01*
D43*
%TO.N,Net-(Q1-Pad3)*%
X130182000Y-56215200D02*
X126982000Y-59415500D01*
X135556000Y-56215200D02*
X130182000Y-56215200D01*
X137957000Y-58616800D02*
X135556000Y-56215200D01*
X137957000Y-60498400D02*
X137957000Y-58616800D01*
X115020000Y-59025300D02*
X115020000Y-61525300D01*
X118520000Y-59025300D02*
X118520000Y-61525300D01*
X124482000Y-59415500D02*
X124482000Y-62915500D01*
X126982000Y-59415500D02*
X126982000Y-62915500D01*
X126981900Y-62915500D02*
X124482000Y-62915500D01*
X126981900Y-59415500D02*
X124482000Y-59415500D01*
X118520000Y-61525300D02*
X115020100Y-61525300D01*
X115020100Y-59025300D02*
X118520000Y-59025300D01*
X123092000Y-61525300D02*
X123787000Y-62220400D01*
X118520100Y-61525300D02*
X123092000Y-61525300D01*
X123787000Y-62220400D02*
X124482000Y-62915500D01*
D41*
X123787000Y-62220400D02*
X124481900Y-62915300D01*
D43*
X118520100Y-59025300D02*
X124092000Y-59025300D01*
D44*
%TO.N,Net-(J2-Pin_2)*%
X122646000Y-70894900D02*
X122646000Y-72049100D01*
X122646000Y-73203400D02*
X123006500Y-73563700D01*
X122646000Y-72049100D02*
X122646000Y-73203400D01*
D41*
X122646400Y-72048700D02*
X122646400Y-70894900D01*
X122646000Y-72049100D02*
X122646400Y-72048700D01*
D43*
%TO.N,Net-(J3-Pin_1)*%
X135417000Y-61437800D02*
X135417000Y-60498400D01*
D41*
X135417100Y-61437700D02*
X135417100Y-60498400D01*
X135417000Y-61437800D02*
X135417100Y-61437700D01*
D43*
X135417000Y-62377300D02*
X135417000Y-61437800D01*
X131552200Y-66241900D02*
X135417000Y-62377300D01*
D44*
%TO.N,CANBUS_H*%
X136632000Y-71102600D02*
X136632000Y-66242100D01*
X137624000Y-72094100D02*
X136632000Y-71102600D01*
X137624000Y-72096200D02*
X137624000Y-72094100D01*
X137624000Y-72970900D02*
X137624000Y-72096200D01*
X134745000Y-75849700D02*
X137624000Y-72970900D01*
X126869900Y-74886800D02*
X125907000Y-73924000D01*
D41*
X126869900Y-74886800D02*
X125907100Y-73924000D01*
D44*
X127833000Y-75849700D02*
X126869900Y-74886800D01*
X134745000Y-75849700D02*
X127833000Y-75849700D01*
%TO.N,Net-(D6-A)*%
X90165700Y-95438600D02*
X90165700Y-92502700D01*
X87304200Y-98300100D02*
X90165700Y-95438600D01*
X84822900Y-95818700D02*
X83774200Y-95818700D01*
X87304200Y-98300100D02*
X84822900Y-95818700D01*
%TO.N,Net-(D5-A)*%
X105385000Y-91720800D02*
X107867000Y-94202000D01*
X104400000Y-91720800D02*
X105385000Y-91720800D01*
X110880000Y-91188900D02*
X110880000Y-88471700D01*
X107867000Y-94202000D02*
X110880000Y-91188900D01*
%TO.N,Net-(D1-K)*%
X131562000Y-86858600D02*
X133076900Y-85343800D01*
X130690200Y-86858600D02*
X131562000Y-86858600D01*
%TO.N,Net-(U2-XTAL2{slash}PB7)*%
X122055000Y-93878600D02*
X122841000Y-94664800D01*
D41*
X122055000Y-93878600D02*
X122840900Y-94664500D01*
D44*
X121269000Y-89405800D02*
X121269000Y-91249100D01*
X121269000Y-93092400D02*
X122055000Y-93878600D01*
X121269000Y-91249100D02*
X121269000Y-93092400D01*
D41*
X121268600Y-91248700D02*
X121268600Y-89405800D01*
X121269000Y-91249100D02*
X121268600Y-91248700D01*
D44*
%TO.N,Net-(U2-XTAL1{slash}PB6)*%
X122023000Y-100362900D02*
X122841000Y-99544800D01*
D41*
X122023000Y-100362900D02*
X122840900Y-99545000D01*
D44*
X121205000Y-104531000D02*
X121205000Y-102856000D01*
X121205000Y-101181000D02*
X122023000Y-100362900D01*
X121205000Y-102856000D02*
X121205000Y-101181000D01*
D41*
X121204800Y-102856200D02*
X121204800Y-104530700D01*
X121205000Y-102856000D02*
X121204800Y-102856200D01*
D44*
%TO.N,Net-(Q5-D)*%
X112150000Y-88471700D02*
X112150000Y-86335100D01*
X101503000Y-89376700D02*
X99040300Y-89376700D01*
X106995000Y-83884800D02*
X101503000Y-89376700D01*
X111836000Y-83884800D02*
X106995000Y-83884800D01*
X112150000Y-84198600D02*
X111836000Y-83884800D01*
X112150000Y-86335100D02*
X112150000Y-84198600D01*
D41*
X112149800Y-86335300D02*
X112149800Y-88471700D01*
X112150000Y-86335100D02*
X112149800Y-86335300D01*
%TO.N,SCK*%
X121617500Y-66130800D02*
X121721800Y-66026500D01*
X121617500Y-83551000D02*
X121617500Y-66130800D01*
X124054100Y-85987600D02*
X121617500Y-83551000D01*
X121692700Y-57083000D02*
X108150400Y-57083000D01*
%TO.N,Output3*%
X128302100Y-90357100D02*
X128302100Y-91483800D01*
X97227700Y-142011700D02*
X96016800Y-142011700D01*
X98880100Y-143664100D02*
X97227700Y-142011700D01*
X105183600Y-143664100D02*
X98880100Y-143664100D01*
X115140100Y-133707600D02*
X105183600Y-143664100D01*
X115140100Y-117337700D02*
X115140100Y-133707600D01*
X121410700Y-111067100D02*
X115140100Y-117337700D01*
X121410700Y-107772600D02*
X121410700Y-111067100D01*
X122608000Y-106575300D02*
X121410700Y-107772600D01*
X122608000Y-103031600D02*
X122608000Y-106575300D01*
X127175400Y-98464200D02*
X122608000Y-103031600D01*
X127175400Y-92328700D02*
X127175400Y-98464200D01*
X128020300Y-91483800D02*
X127175400Y-92328700D01*
X128302100Y-91483800D02*
X128020300Y-91483800D01*
D44*
%TO.N,Net-(Q6-D)*%
X80923200Y-93407700D02*
X78424200Y-93407700D01*
X86207000Y-88124000D02*
X80923200Y-93407700D01*
X90565600Y-88124000D02*
X86207000Y-88124000D01*
X91435700Y-88994100D02*
X90565600Y-88124000D01*
X91435700Y-92502700D02*
X91435700Y-88994100D01*
D41*
%TO.N,Input3*%
X118743600Y-108222800D02*
X116229000Y-108222800D01*
%TO.N,Input2*%
X116222700Y-101766300D02*
X116222700Y-101766200D01*
X117464300Y-101766300D02*
X116222700Y-101766300D01*
X118727300Y-103029300D02*
X117464300Y-101766300D01*
D44*
%TO.N,Net-(Q2-D)*%
X100464000Y-74797800D02*
X99124000Y-74797800D01*
X106270000Y-68991600D02*
X100464000Y-74797800D01*
X108588000Y-68991600D02*
X106270000Y-68991600D01*
X112263000Y-72666400D02*
X108588000Y-68991600D01*
X112263000Y-73181100D02*
X112263000Y-72666400D01*
D41*
%TO.N,Output1*%
X135922100Y-97977100D02*
X135922100Y-99103800D01*
X117133300Y-116372100D02*
X116231300Y-117274100D01*
X125386400Y-116372100D02*
X117133300Y-116372100D01*
X127381200Y-114377300D02*
X125386400Y-116372100D01*
X136364900Y-114377300D02*
X127381200Y-114377300D01*
X137077800Y-113664400D02*
X136364900Y-114377300D01*
X137077800Y-99977800D02*
X137077800Y-113664400D01*
X136203800Y-99103800D02*
X137077800Y-99977800D01*
X135922100Y-99103800D02*
X136203800Y-99103800D01*
D43*
%TO.N,/Output2/Output*%
X94128100Y-134775000D02*
X82028300Y-122675200D01*
X100927000Y-134775000D02*
X94128100Y-134775000D01*
X101986000Y-135835000D02*
X100927000Y-134775000D01*
X101986000Y-137192000D02*
X101986000Y-135835000D01*
X102239000Y-142011000D02*
X102239000Y-140131600D01*
X102239000Y-140131600D02*
X102239000Y-137445000D01*
D41*
X102238700Y-140131900D02*
X102238700Y-142011500D01*
X102239000Y-140131600D02*
X102238700Y-140131900D01*
D44*
%TO.N,LED*%
X135334800Y-92309700D02*
X135922000Y-92897100D01*
D41*
X135334800Y-92309700D02*
X135922100Y-92897100D01*
D44*
X133573000Y-90547700D02*
X135334800Y-92309700D01*
X133573000Y-87387800D02*
X133573000Y-90547700D01*
X135616900Y-85343800D02*
X133573000Y-87387800D01*
D43*
%TO.N,/Output1/Output*%
X102239000Y-125941000D02*
X102239000Y-123466500D01*
D41*
X102238700Y-123466800D02*
X102238700Y-125940800D01*
X102239000Y-123466500D02*
X102238700Y-123466800D01*
D43*
X100200000Y-117595000D02*
X82028500Y-117595000D01*
X101986000Y-119382000D02*
X100200000Y-117595000D01*
X101986000Y-120739900D02*
X101986000Y-119382000D01*
X102239000Y-123466500D02*
X102239000Y-120992000D01*
D44*
%TO.N,Net-(D3-A)*%
X105298000Y-77194500D02*
X104614000Y-77194500D01*
X108004000Y-79900400D02*
X105298000Y-77194500D01*
X110993000Y-76911800D02*
X110993000Y-75303800D01*
X108004000Y-79900400D02*
X110993000Y-76911800D01*
X110993000Y-75303800D02*
X110993000Y-73695900D01*
D41*
X110992600Y-75303400D02*
X110992600Y-73695900D01*
X110993000Y-75303800D02*
X110992600Y-75303400D01*
D43*
%TO.N,/Output/Output*%
X102239000Y-109922000D02*
X102239000Y-108070600D01*
X98443600Y-113717000D02*
X102239000Y-109922000D01*
X86493500Y-113717000D02*
X98443600Y-113717000D01*
X85292300Y-112515000D02*
X86493500Y-113717000D01*
X82028100Y-112515000D02*
X85292300Y-112515000D01*
X102239000Y-108070600D02*
X102239000Y-105412000D01*
D41*
X102238700Y-108070900D02*
X102238700Y-109921600D01*
X102239000Y-108070600D02*
X102238700Y-108070900D01*
D45*
%TO.N,+5V*%
X101850000Y-85359500D02*
X101850000Y-86520500D01*
X99967400Y-83476500D02*
X101850000Y-85359500D01*
X94616100Y-83476500D02*
X99967400Y-83476500D01*
X93037400Y-81897900D02*
X94616100Y-83476500D01*
X93037400Y-78723500D02*
X93037400Y-81897900D01*
X81142800Y-90618100D02*
X93037400Y-78723500D01*
X93037400Y-74299100D02*
X93037400Y-78723500D01*
X101934000Y-65402600D02*
X93037400Y-74299100D01*
X104862000Y-55145500D02*
X109012000Y-55145500D01*
X101934000Y-58073400D02*
X104862000Y-55145500D01*
X101934000Y-65402600D02*
X101934000Y-58073400D01*
X101934000Y-70927800D02*
X101934000Y-65402600D01*
X110682000Y-53475500D02*
X109012000Y-55145500D01*
X113088000Y-53475500D02*
X110682000Y-53475500D01*
X113003000Y-51027600D02*
X113003000Y-53390200D01*
X113003000Y-47557800D02*
X113003000Y-51027600D01*
X104079000Y-38633600D02*
X113003000Y-47557800D01*
D41*
X123166800Y-115102100D02*
X123166800Y-113925400D01*
X128302100Y-103057100D02*
X128302100Y-105597100D01*
X123505300Y-113925400D02*
X123166800Y-113925400D01*
X124343500Y-113087200D02*
X123505300Y-113925400D01*
X124343500Y-112967300D02*
X124343500Y-113087200D01*
X127903700Y-109407100D02*
X124343500Y-112967300D01*
X128654300Y-109407100D02*
X127903700Y-109407100D01*
X129432700Y-108628700D02*
X128654300Y-109407100D01*
X129432700Y-107572700D02*
X129432700Y-108628700D01*
X128583800Y-106723800D02*
X129432700Y-107572700D01*
X128302100Y-106723800D02*
X128583800Y-106723800D01*
X128302100Y-105597100D02*
X128302100Y-106723800D01*
X129795000Y-74273200D02*
X129795000Y-74579700D01*
X123551500Y-68029700D02*
X129795000Y-74273200D01*
X122700800Y-57005800D02*
X122700800Y-57974200D01*
X121371400Y-55676400D02*
X122700800Y-57005800D01*
X115289100Y-55676400D02*
X121371400Y-55676400D01*
X113088200Y-53475500D02*
X115289100Y-55676400D01*
D43*
%TO.N,+VDC*%
X112949000Y-38633600D02*
X124431000Y-50115500D01*
X106619000Y-38633600D02*
X112949000Y-38633600D01*
X126982000Y-53615500D02*
X126982000Y-50115500D01*
X126981900Y-50115500D02*
X124482000Y-50115500D01*
X124482000Y-50115500D02*
X124482000Y-51865500D01*
X124482000Y-53615500D02*
X126981900Y-53615500D01*
X124482000Y-51865500D02*
X124482000Y-53615500D01*
D41*
X124481900Y-51865600D02*
X124481900Y-53615500D01*
X124482000Y-51865500D02*
X124481900Y-51865600D01*
D44*
%TO.N,GND*%
X85079100Y-51928500D02*
X88313900Y-48693700D01*
X85079100Y-63342200D02*
X85079100Y-51928500D01*
X132025000Y-83758600D02*
X136670000Y-79113500D01*
X130690200Y-83758600D02*
X132025000Y-83758600D01*
X125043000Y-89405800D02*
X130690000Y-83758600D01*
X124394000Y-89405800D02*
X125043000Y-89405800D01*
D41*
X128302100Y-108137100D02*
X127175400Y-108137100D01*
X123166800Y-110022100D02*
X123166800Y-108845400D01*
X126468200Y-107429900D02*
X127175400Y-108137100D01*
X124582300Y-107429900D02*
X126468200Y-107429900D01*
X124582300Y-104783200D02*
X124582300Y-107429900D01*
X124582300Y-107429900D02*
X123166800Y-108845400D01*
X117478700Y-134630700D02*
X121582200Y-130527200D01*
X117478700Y-142011500D02*
X117478700Y-134630700D01*
D44*
X126760700Y-135705700D02*
X121582200Y-130527200D01*
X121582200Y-130527200D02*
X117479000Y-126424000D01*
D41*
X114862100Y-51027600D02*
X114862100Y-51026000D01*
X116127900Y-51027600D02*
X114862100Y-51027600D01*
%TO.N,MOSI*%
X120691500Y-63947700D02*
X128451400Y-71707600D01*
X119182400Y-63947700D02*
X120691500Y-63947700D01*
%TD*%
M02*
