%TF.GenerationSoftware,KiCad,Pcbnew,9.0.0*%
%TF.CreationDate,2025-03-14T13:06:40-07:00*%
%TF.ProjectId,AMS - CANBus - Dinger,414d5320-2d20-4434-914e-427573202d20,rev?*%
%TF.SameCoordinates,Original*%
%TF.FileFunction,Soldermask,Bot*%
%TF.FilePolarity,Negative*%
%FSLAX46Y46*%
G04 Gerber Fmt 4.6, Leading zero omitted, Abs format (unit mm)*
G04 Created by KiCad (PCBNEW 9.0.0) date 2025-03-14 13:06:40*
%MOMM*%
%LPD*%
G01*
G04 APERTURE LIST*
G04 Aperture macros list*
%AMRoundRect*
0 Rectangle with rounded corners*
0 $1 Rounding radius*
0 $2 $3 $4 $5 $6 $7 $8 $9 X,Y pos of 4 corners*
0 Add a 4 corners polygon primitive as box body*
4,1,4,$2,$3,$4,$5,$6,$7,$8,$9,$2,$3,0*
0 Add four circle primitives for the rounded corners*
1,1,$1+$1,$2,$3*
1,1,$1+$1,$4,$5*
1,1,$1+$1,$6,$7*
1,1,$1+$1,$8,$9*
0 Add four rect primitives between the rounded corners*
20,1,$1+$1,$2,$3,$4,$5,0*
20,1,$1+$1,$4,$5,$6,$7,0*
20,1,$1+$1,$6,$7,$8,$9,0*
20,1,$1+$1,$8,$9,$2,$3,0*%
G04 Aperture macros list end*
%ADD10RoundRect,0.250000X0.650000X-0.412500X0.650000X0.412500X-0.650000X0.412500X-0.650000X-0.412500X0*%
%ADD11O,1.050000X1.500000*%
%ADD12R,1.050000X1.500000*%
%ADD13RoundRect,0.250000X-0.400000X-0.625000X0.400000X-0.625000X0.400000X0.625000X-0.400000X0.625000X0*%
%ADD14RoundRect,0.250000X-0.625000X0.400000X-0.625000X-0.400000X0.625000X-0.400000X0.625000X0.400000X0*%
%ADD15O,1.600000X1.600000*%
%ADD16R,1.600000X1.600000*%
%ADD17RoundRect,0.250000X0.625000X-0.400000X0.625000X0.400000X-0.625000X0.400000X-0.625000X-0.400000X0*%
%ADD18RoundRect,0.250000X0.400000X0.625000X-0.400000X0.625000X-0.400000X-0.625000X0.400000X-0.625000X0*%
%ADD19O,2.600000X2.600000*%
%ADD20R,2.600000X2.600000*%
%ADD21C,1.920000*%
%ADD22R,1.920000X1.920000*%
%ADD23O,1.500000X1.050000*%
%ADD24R,1.500000X1.050000*%
%ADD25C,1.150000*%
%ADD26R,1.150000X1.150000*%
%ADD27C,2.600000*%
%ADD28C,1.800000*%
%ADD29R,1.800000X1.800000*%
%ADD30O,1.700000X1.700000*%
%ADD31R,1.700000X1.700000*%
%ADD32R,1.500000X1.500000*%
%ADD33C,1.500000*%
%ADD34C,1.400000*%
%ADD35O,1.400000X1.400000*%
%ADD36C,2.400000*%
%ADD37C,2.100000*%
%ADD38R,2.200000X2.200000*%
%ADD39O,2.200000X2.200000*%
%ADD40RoundRect,0.249999X-0.850001X-0.850001X0.850001X-0.850001X0.850001X0.850001X-0.850001X0.850001X0*%
%ADD41C,2.200000*%
%ADD42RoundRect,0.150000X-0.825000X-0.150000X0.825000X-0.150000X0.825000X0.150000X-0.825000X0.150000X0*%
%ADD43RoundRect,0.250000X-0.412500X-0.650000X0.412500X-0.650000X0.412500X0.650000X-0.412500X0.650000X0*%
%ADD44R,0.550000X1.000000*%
%ADD45RoundRect,0.150000X-0.875000X-0.150000X0.875000X-0.150000X0.875000X0.150000X-0.875000X0.150000X0*%
G04 APERTURE END LIST*
D10*
%TO.C,C2*%
X119224200Y-122835600D03*
X119224200Y-119710600D03*
%TD*%
D11*
%TO.C,Q2*%
X112262600Y-73695900D03*
X110992600Y-73695900D03*
D12*
X109722600Y-73695900D03*
%TD*%
D13*
%TO.C,R5*%
X104614200Y-77194500D03*
X101514200Y-77194500D03*
%TD*%
D14*
%TO.C,R7*%
X101934000Y-74027800D03*
X101934000Y-70927800D03*
%TD*%
D15*
%TO.C,U3*%
X106744000Y-72257800D03*
X106744000Y-74797800D03*
X99124000Y-74797800D03*
D16*
X99124000Y-72257800D03*
%TD*%
D14*
%TO.C,R8*%
X104342100Y-74011800D03*
X104342100Y-70911800D03*
%TD*%
%TO.C,R21*%
X111098300Y-123154900D03*
X111098300Y-120054900D03*
%TD*%
D17*
%TO.C,R20*%
X91944200Y-124419200D03*
X91944200Y-127519200D03*
%TD*%
D18*
%TO.C,R22*%
X108028500Y-126620800D03*
X111128500Y-126620800D03*
%TD*%
D14*
%TO.C,R24*%
X111065100Y-139473400D03*
X111065100Y-136373400D03*
%TD*%
%TO.C,R10*%
X111120800Y-106373800D03*
X111120800Y-103273800D03*
%TD*%
D17*
%TO.C,R9*%
X91639700Y-108483200D03*
X91639700Y-111583200D03*
%TD*%
D19*
%TO.C,D7*%
X117478700Y-125940800D03*
D20*
X102238700Y-125940800D03*
%TD*%
D21*
%TO.C,Q10*%
X104526400Y-137192300D03*
X101986400Y-137192300D03*
D22*
X99446400Y-137192300D03*
%TD*%
D23*
%TO.C,Q3*%
X96016800Y-111296400D03*
X96016800Y-110026400D03*
D24*
X96016800Y-108756400D03*
%TD*%
D25*
%TO.C,Z3*%
X100413000Y-100109900D03*
D26*
X111113000Y-100109900D03*
%TD*%
D23*
%TO.C,Q7*%
X96016800Y-127270500D03*
X96016800Y-126000500D03*
D24*
X96016800Y-124730500D03*
%TD*%
D21*
%TO.C,Q4*%
X104526400Y-105159300D03*
X101986400Y-105159300D03*
D22*
X99446400Y-105159300D03*
%TD*%
D19*
%TO.C,D4*%
X117478700Y-109921600D03*
D20*
X102238700Y-109921600D03*
%TD*%
D25*
%TO.C,Z5*%
X100413000Y-132438900D03*
D26*
X111113000Y-132438900D03*
%TD*%
D21*
%TO.C,Q8*%
X104526400Y-120739500D03*
X101986400Y-120739500D03*
D22*
X99446400Y-120739500D03*
%TD*%
D23*
%TO.C,Q9*%
X96016800Y-143281700D03*
X96016800Y-142011700D03*
D24*
X96016800Y-140741700D03*
%TD*%
D25*
%TO.C,Z4*%
X100413000Y-116028100D03*
D26*
X111113000Y-116028100D03*
%TD*%
D17*
%TO.C,R23*%
X92449500Y-140278200D03*
X92449500Y-143378200D03*
%TD*%
D19*
%TO.C,D8*%
X117478700Y-142011500D03*
D20*
X102238700Y-142011500D03*
%TD*%
D18*
%TO.C,R11*%
X108068400Y-110112000D03*
X111168400Y-110112000D03*
%TD*%
%TO.C,R25*%
X107980100Y-142894000D03*
X111080100Y-142894000D03*
%TD*%
D27*
%TO.C,Z1*%
X82028100Y-122675400D03*
X82028100Y-117595400D03*
D20*
X82028100Y-112515400D03*
%TD*%
D28*
%TO.C,D1*%
X135616800Y-85343700D03*
D29*
X133076800Y-85343700D03*
%TD*%
D15*
%TO.C,U2*%
X128302100Y-123377100D03*
X128302100Y-120837100D03*
X128302100Y-118297100D03*
X128302100Y-115757100D03*
X128302100Y-113217100D03*
X128302100Y-110677100D03*
X128302100Y-108137100D03*
X128302100Y-105597100D03*
X128302100Y-103057100D03*
X128302100Y-100517100D03*
X128302100Y-97977100D03*
X128302100Y-95437100D03*
X128302100Y-92897100D03*
X128302100Y-90357100D03*
X135922100Y-90357100D03*
X135922100Y-92897100D03*
X135922100Y-95437100D03*
X135922100Y-97977100D03*
X135922100Y-100517100D03*
X135922100Y-103057100D03*
X135922100Y-105597100D03*
X135922100Y-108137100D03*
X135922100Y-110677100D03*
X135922100Y-113217100D03*
X135922100Y-115757100D03*
X135922100Y-118297100D03*
X135922100Y-120837100D03*
D16*
X135922100Y-123377100D03*
%TD*%
D30*
%TO.C,J1*%
X123166800Y-122722100D03*
X123166800Y-120182100D03*
X123166800Y-117642100D03*
X123166800Y-115102100D03*
X123166800Y-112562100D03*
D31*
X123166800Y-110022100D03*
%TD*%
D13*
%TO.C,R2*%
X119127900Y-132792200D03*
X122227900Y-132792200D03*
%TD*%
D32*
%TO.C,S1*%
X122260500Y-135705900D03*
D33*
X122260500Y-129205900D03*
X126760500Y-135705900D03*
X126760500Y-129205900D03*
%TD*%
%TO.C,Y1*%
X122840900Y-94664800D03*
X122840900Y-99544800D03*
%TD*%
D34*
%TO.C,R28*%
X122646400Y-70894900D03*
D35*
X124546400Y-70894900D03*
%TD*%
D34*
%TO.C,R27*%
X134770000Y-79113500D03*
D35*
X136670000Y-79113500D03*
%TD*%
D36*
%TO.C,U8*%
X112120100Y-60275300D03*
D37*
X105720100Y-61525300D03*
X109220100Y-61525300D03*
X115020100Y-61525300D03*
X118520100Y-61525300D03*
X118520100Y-59025300D03*
X115020100Y-59025300D03*
X109220100Y-59025300D03*
X105720100Y-59025300D03*
%TD*%
D16*
%TO.C,U4*%
X99040300Y-86836700D03*
D15*
X99040300Y-89376700D03*
X106660300Y-89376700D03*
X106660300Y-86836700D03*
%TD*%
D36*
%TO.C,U1*%
X125731900Y-56515500D03*
D37*
X124481900Y-50115500D03*
X124481900Y-53615500D03*
X124481900Y-59415500D03*
X124481900Y-62915500D03*
X126981900Y-62915500D03*
X126981900Y-59415500D03*
X126981900Y-53615500D03*
X126981900Y-50115500D03*
%TD*%
D12*
%TO.C,Q6*%
X88895700Y-92502700D03*
D11*
X90165700Y-92502700D03*
X91435700Y-92502700D03*
%TD*%
D20*
%TO.C,Z2*%
X82709700Y-70523000D03*
D27*
X82709700Y-75603000D03*
X82709700Y-80683000D03*
%TD*%
D12*
%TO.C,Q5*%
X109609800Y-88471700D03*
D11*
X110879800Y-88471700D03*
X112149800Y-88471700D03*
%TD*%
D38*
%TO.C,D5*%
X97706700Y-94202000D03*
D39*
X107866700Y-94202000D03*
%TD*%
D31*
%TO.C,Powerboard1*%
X106618600Y-38633600D03*
D30*
X104078600Y-38633600D03*
X101538600Y-38633600D03*
%TD*%
D16*
%TO.C,U5*%
X78424200Y-90867700D03*
D15*
X78424200Y-93407700D03*
X86044200Y-93407700D03*
X86044200Y-90867700D03*
%TD*%
D33*
%TO.C,Y2*%
X86660300Y-53551100D03*
X86660300Y-58431100D03*
%TD*%
D31*
%TO.C,J2*%
X125907100Y-73924000D03*
D30*
X123367100Y-73924000D03*
%TD*%
D38*
%TO.C,D3*%
X97844000Y-79900400D03*
D39*
X108004000Y-79900400D03*
%TD*%
D40*
%TO.C,J3*%
X131552400Y-66242100D03*
D41*
X134092400Y-66242100D03*
X136632400Y-66242100D03*
X139172400Y-66242100D03*
%TD*%
D22*
%TO.C,Q1*%
X132877100Y-60498400D03*
D21*
X135417100Y-60498400D03*
X137957100Y-60498400D03*
%TD*%
D38*
%TO.C,D6*%
X77144200Y-98300100D03*
D39*
X87304200Y-98300100D03*
%TD*%
D13*
%TO.C,R12*%
X101300300Y-91720800D03*
X104400300Y-91720800D03*
%TD*%
D14*
%TO.C,R15*%
X104277500Y-86523600D03*
X104277500Y-89623600D03*
%TD*%
D42*
%TO.C,U7*%
X129795000Y-77119700D03*
X129795000Y-75849700D03*
X129795000Y-74579700D03*
X129795000Y-73309700D03*
X134745000Y-73309700D03*
X134745000Y-74579700D03*
X134745000Y-75849700D03*
X134745000Y-77119700D03*
%TD*%
D13*
%TO.C,R13*%
X107823000Y-91791000D03*
X110923000Y-91791000D03*
%TD*%
D43*
%TO.C,C14*%
X113048400Y-51062500D03*
X116173400Y-51062500D03*
%TD*%
D13*
%TO.C,R1*%
X132819100Y-58148500D03*
X135919100Y-58148500D03*
%TD*%
D44*
%TO.C,D9*%
X137623800Y-72096200D03*
X138923800Y-72096200D03*
X138273800Y-73996200D03*
%TD*%
D43*
%TO.C,C10*%
X80733100Y-98242000D03*
X83858100Y-98242000D03*
%TD*%
D45*
%TO.C,U6*%
X99712200Y-55145500D03*
X99712200Y-53875500D03*
X99712200Y-52605500D03*
X99712200Y-51335500D03*
X99712200Y-50065500D03*
X99712200Y-48795500D03*
X99712200Y-47525500D03*
X99712200Y-46255500D03*
X99712200Y-44985500D03*
X109012200Y-44985500D03*
X109012200Y-46255500D03*
X109012200Y-47525500D03*
X109012200Y-48795500D03*
X109012200Y-50065500D03*
X109012200Y-51335500D03*
X109012200Y-52605500D03*
X109012200Y-53875500D03*
X109012200Y-55145500D03*
%TD*%
D14*
%TO.C,R18*%
X80927400Y-90618100D03*
X80927400Y-93718100D03*
%TD*%
%TO.C,R19*%
X83499100Y-90618100D03*
X83499100Y-93718100D03*
%TD*%
D43*
%TO.C,C9*%
X101400200Y-94197000D03*
X104525200Y-94197000D03*
%TD*%
D13*
%TO.C,R17*%
X88085500Y-95682700D03*
X91185500Y-95682700D03*
%TD*%
D14*
%TO.C,R14*%
X101850300Y-86520500D03*
X101850300Y-89620500D03*
%TD*%
D13*
%TO.C,R16*%
X80674200Y-95818700D03*
X83774200Y-95818700D03*
%TD*%
D43*
%TO.C,C8*%
X101520400Y-79868400D03*
X104645400Y-79868400D03*
%TD*%
D13*
%TO.C,R6*%
X107740100Y-77309300D03*
X110840100Y-77309300D03*
%TD*%
M02*
