%TF.GenerationSoftware,KiCad,Pcbnew,9.0.0*%
%TF.CreationDate,2025-03-14T13:06:40-07:00*%
%TF.ProjectId,AMS - CANBus - Dinger,414d5320-2d20-4434-914e-427573202d20,rev?*%
%TF.SameCoordinates,Original*%
%TF.FileFunction,Legend,Bot*%
%TF.FilePolarity,Positive*%
%FSLAX46Y46*%
G04 Gerber Fmt 4.6, Leading zero omitted, Abs format (unit mm)*
G04 Created by KiCad (PCBNEW 9.0.0) date 2025-03-14 13:06:40*
%MOMM*%
%LPD*%
G01*
G04 APERTURE LIST*
G04 Aperture macros list*
%AMRoundRect*
0 Rectangle with rounded corners*
0 $1 Rounding radius*
0 $2 $3 $4 $5 $6 $7 $8 $9 X,Y pos of 4 corners*
0 Add a 4 corners polygon primitive as box body*
4,1,4,$2,$3,$4,$5,$6,$7,$8,$9,$2,$3,0*
0 Add four circle primitives for the rounded corners*
1,1,$1+$1,$2,$3*
1,1,$1+$1,$4,$5*
1,1,$1+$1,$6,$7*
1,1,$1+$1,$8,$9*
0 Add four rect primitives between the rounded corners*
20,1,$1+$1,$2,$3,$4,$5,0*
20,1,$1+$1,$4,$5,$6,$7,0*
20,1,$1+$1,$6,$7,$8,$9,0*
20,1,$1+$1,$8,$9,$2,$3,0*%
G04 Aperture macros list end*
%ADD10C,0.150000*%
%ADD11C,0.254000*%
%ADD12C,0.120000*%
%ADD13C,0.200000*%
%ADD14RoundRect,0.250000X0.650000X-0.412500X0.650000X0.412500X-0.650000X0.412500X-0.650000X-0.412500X0*%
%ADD15O,1.050000X1.500000*%
%ADD16R,1.050000X1.500000*%
%ADD17RoundRect,0.250000X-0.400000X-0.625000X0.400000X-0.625000X0.400000X0.625000X-0.400000X0.625000X0*%
%ADD18RoundRect,0.250000X-0.625000X0.400000X-0.625000X-0.400000X0.625000X-0.400000X0.625000X0.400000X0*%
%ADD19O,1.600000X1.600000*%
%ADD20R,1.600000X1.600000*%
%ADD21RoundRect,0.250000X0.625000X-0.400000X0.625000X0.400000X-0.625000X0.400000X-0.625000X-0.400000X0*%
%ADD22RoundRect,0.250000X0.400000X0.625000X-0.400000X0.625000X-0.400000X-0.625000X0.400000X-0.625000X0*%
%ADD23O,2.600000X2.600000*%
%ADD24R,2.600000X2.600000*%
%ADD25C,1.920000*%
%ADD26R,1.920000X1.920000*%
%ADD27O,1.500000X1.050000*%
%ADD28R,1.500000X1.050000*%
%ADD29C,1.150000*%
%ADD30R,1.150000X1.150000*%
%ADD31C,2.600000*%
%ADD32C,1.800000*%
%ADD33R,1.800000X1.800000*%
%ADD34O,1.700000X1.700000*%
%ADD35R,1.700000X1.700000*%
%ADD36R,1.500000X1.500000*%
%ADD37C,1.500000*%
%ADD38C,1.400000*%
%ADD39O,1.400000X1.400000*%
%ADD40C,2.400000*%
%ADD41C,2.100000*%
%ADD42R,2.200000X2.200000*%
%ADD43O,2.200000X2.200000*%
%ADD44RoundRect,0.249999X-0.850001X-0.850001X0.850001X-0.850001X0.850001X0.850001X-0.850001X0.850001X0*%
%ADD45C,2.200000*%
%ADD46RoundRect,0.150000X-0.825000X-0.150000X0.825000X-0.150000X0.825000X0.150000X-0.825000X0.150000X0*%
%ADD47RoundRect,0.250000X-0.412500X-0.650000X0.412500X-0.650000X0.412500X0.650000X-0.412500X0.650000X0*%
%ADD48R,0.550000X1.000000*%
%ADD49RoundRect,0.150000X-0.875000X-0.150000X0.875000X-0.150000X0.875000X0.150000X-0.875000X0.150000X0*%
G04 APERTURE END LIST*
D10*
X121433780Y-121106433D02*
X121481400Y-121058814D01*
X121481400Y-121058814D02*
X121529019Y-120915957D01*
X121529019Y-120915957D02*
X121529019Y-120820719D01*
X121529019Y-120820719D02*
X121481400Y-120677862D01*
X121481400Y-120677862D02*
X121386161Y-120582624D01*
X121386161Y-120582624D02*
X121290923Y-120535005D01*
X121290923Y-120535005D02*
X121100447Y-120487386D01*
X121100447Y-120487386D02*
X120957590Y-120487386D01*
X120957590Y-120487386D02*
X120767114Y-120535005D01*
X120767114Y-120535005D02*
X120671876Y-120582624D01*
X120671876Y-120582624D02*
X120576638Y-120677862D01*
X120576638Y-120677862D02*
X120529019Y-120820719D01*
X120529019Y-120820719D02*
X120529019Y-120915957D01*
X120529019Y-120915957D02*
X120576638Y-121058814D01*
X120576638Y-121058814D02*
X120624257Y-121106433D01*
X120624257Y-121487386D02*
X120576638Y-121535005D01*
X120576638Y-121535005D02*
X120529019Y-121630243D01*
X120529019Y-121630243D02*
X120529019Y-121868338D01*
X120529019Y-121868338D02*
X120576638Y-121963576D01*
X120576638Y-121963576D02*
X120624257Y-122011195D01*
X120624257Y-122011195D02*
X120719495Y-122058814D01*
X120719495Y-122058814D02*
X120814733Y-122058814D01*
X120814733Y-122058814D02*
X120957590Y-122011195D01*
X120957590Y-122011195D02*
X121529019Y-121439767D01*
X121529019Y-121439767D02*
X121529019Y-122058814D01*
X99822104Y-77787348D02*
X100155437Y-77311157D01*
X100393532Y-77787348D02*
X100393532Y-76787348D01*
X100393532Y-76787348D02*
X100012580Y-76787348D01*
X100012580Y-76787348D02*
X99917342Y-76834967D01*
X99917342Y-76834967D02*
X99869723Y-76882586D01*
X99869723Y-76882586D02*
X99822104Y-76977824D01*
X99822104Y-76977824D02*
X99822104Y-77120681D01*
X99822104Y-77120681D02*
X99869723Y-77215919D01*
X99869723Y-77215919D02*
X99917342Y-77263538D01*
X99917342Y-77263538D02*
X100012580Y-77311157D01*
X100012580Y-77311157D02*
X100393532Y-77311157D01*
X98917342Y-76787348D02*
X99393532Y-76787348D01*
X99393532Y-76787348D02*
X99441151Y-77263538D01*
X99441151Y-77263538D02*
X99393532Y-77215919D01*
X99393532Y-77215919D02*
X99298294Y-77168300D01*
X99298294Y-77168300D02*
X99060199Y-77168300D01*
X99060199Y-77168300D02*
X98964961Y-77215919D01*
X98964961Y-77215919D02*
X98917342Y-77263538D01*
X98917342Y-77263538D02*
X98869723Y-77358776D01*
X98869723Y-77358776D02*
X98869723Y-77596871D01*
X98869723Y-77596871D02*
X98917342Y-77692109D01*
X98917342Y-77692109D02*
X98964961Y-77739729D01*
X98964961Y-77739729D02*
X99060199Y-77787348D01*
X99060199Y-77787348D02*
X99298294Y-77787348D01*
X99298294Y-77787348D02*
X99393532Y-77739729D01*
X99393532Y-77739729D02*
X99441151Y-77692109D01*
X102383231Y-68810348D02*
X101907040Y-68477015D01*
X102383231Y-68238920D02*
X101383231Y-68238920D01*
X101383231Y-68238920D02*
X101383231Y-68619872D01*
X101383231Y-68619872D02*
X101430850Y-68715110D01*
X101430850Y-68715110D02*
X101478469Y-68762729D01*
X101478469Y-68762729D02*
X101573707Y-68810348D01*
X101573707Y-68810348D02*
X101716564Y-68810348D01*
X101716564Y-68810348D02*
X101811802Y-68762729D01*
X101811802Y-68762729D02*
X101859421Y-68715110D01*
X101859421Y-68715110D02*
X101907040Y-68619872D01*
X101907040Y-68619872D02*
X101907040Y-68238920D01*
X101383231Y-69143682D02*
X101383231Y-69810348D01*
X101383231Y-69810348D02*
X102383231Y-69381777D01*
X104812904Y-68826319D02*
X104336713Y-68492986D01*
X104812904Y-68254891D02*
X103812904Y-68254891D01*
X103812904Y-68254891D02*
X103812904Y-68635843D01*
X103812904Y-68635843D02*
X103860523Y-68731081D01*
X103860523Y-68731081D02*
X103908142Y-68778700D01*
X103908142Y-68778700D02*
X104003380Y-68826319D01*
X104003380Y-68826319D02*
X104146237Y-68826319D01*
X104146237Y-68826319D02*
X104241475Y-68778700D01*
X104241475Y-68778700D02*
X104289094Y-68731081D01*
X104289094Y-68731081D02*
X104336713Y-68635843D01*
X104336713Y-68635843D02*
X104336713Y-68254891D01*
X104241475Y-69397748D02*
X104193856Y-69302510D01*
X104193856Y-69302510D02*
X104146237Y-69254891D01*
X104146237Y-69254891D02*
X104050999Y-69207272D01*
X104050999Y-69207272D02*
X104003380Y-69207272D01*
X104003380Y-69207272D02*
X103908142Y-69254891D01*
X103908142Y-69254891D02*
X103860523Y-69302510D01*
X103860523Y-69302510D02*
X103812904Y-69397748D01*
X103812904Y-69397748D02*
X103812904Y-69588224D01*
X103812904Y-69588224D02*
X103860523Y-69683462D01*
X103860523Y-69683462D02*
X103908142Y-69731081D01*
X103908142Y-69731081D02*
X104003380Y-69778700D01*
X104003380Y-69778700D02*
X104050999Y-69778700D01*
X104050999Y-69778700D02*
X104146237Y-69731081D01*
X104146237Y-69731081D02*
X104193856Y-69683462D01*
X104193856Y-69683462D02*
X104241475Y-69588224D01*
X104241475Y-69588224D02*
X104241475Y-69397748D01*
X104241475Y-69397748D02*
X104289094Y-69302510D01*
X104289094Y-69302510D02*
X104336713Y-69254891D01*
X104336713Y-69254891D02*
X104431951Y-69207272D01*
X104431951Y-69207272D02*
X104622427Y-69207272D01*
X104622427Y-69207272D02*
X104717665Y-69254891D01*
X104717665Y-69254891D02*
X104765285Y-69302510D01*
X104765285Y-69302510D02*
X104812904Y-69397748D01*
X104812904Y-69397748D02*
X104812904Y-69588224D01*
X104812904Y-69588224D02*
X104765285Y-69683462D01*
X104765285Y-69683462D02*
X104717665Y-69731081D01*
X104717665Y-69731081D02*
X104622427Y-69778700D01*
X104622427Y-69778700D02*
X104431951Y-69778700D01*
X104431951Y-69778700D02*
X104336713Y-69731081D01*
X104336713Y-69731081D02*
X104289094Y-69683462D01*
X104289094Y-69683462D02*
X104241475Y-69588224D01*
X109733119Y-120962042D02*
X109256928Y-120628709D01*
X109733119Y-120390614D02*
X108733119Y-120390614D01*
X108733119Y-120390614D02*
X108733119Y-120771566D01*
X108733119Y-120771566D02*
X108780738Y-120866804D01*
X108780738Y-120866804D02*
X108828357Y-120914423D01*
X108828357Y-120914423D02*
X108923595Y-120962042D01*
X108923595Y-120962042D02*
X109066452Y-120962042D01*
X109066452Y-120962042D02*
X109161690Y-120914423D01*
X109161690Y-120914423D02*
X109209309Y-120866804D01*
X109209309Y-120866804D02*
X109256928Y-120771566D01*
X109256928Y-120771566D02*
X109256928Y-120390614D01*
X108828357Y-121342995D02*
X108780738Y-121390614D01*
X108780738Y-121390614D02*
X108733119Y-121485852D01*
X108733119Y-121485852D02*
X108733119Y-121723947D01*
X108733119Y-121723947D02*
X108780738Y-121819185D01*
X108780738Y-121819185D02*
X108828357Y-121866804D01*
X108828357Y-121866804D02*
X108923595Y-121914423D01*
X108923595Y-121914423D02*
X109018833Y-121914423D01*
X109018833Y-121914423D02*
X109161690Y-121866804D01*
X109161690Y-121866804D02*
X109733119Y-121295376D01*
X109733119Y-121295376D02*
X109733119Y-121914423D01*
X109733119Y-122866804D02*
X109733119Y-122295376D01*
X109733119Y-122581090D02*
X108733119Y-122581090D01*
X108733119Y-122581090D02*
X108875976Y-122485852D01*
X108875976Y-122485852D02*
X108971214Y-122390614D01*
X108971214Y-122390614D02*
X109018833Y-122295376D01*
X94219019Y-125326342D02*
X93742828Y-124993009D01*
X94219019Y-124754914D02*
X93219019Y-124754914D01*
X93219019Y-124754914D02*
X93219019Y-125135866D01*
X93219019Y-125135866D02*
X93266638Y-125231104D01*
X93266638Y-125231104D02*
X93314257Y-125278723D01*
X93314257Y-125278723D02*
X93409495Y-125326342D01*
X93409495Y-125326342D02*
X93552352Y-125326342D01*
X93552352Y-125326342D02*
X93647590Y-125278723D01*
X93647590Y-125278723D02*
X93695209Y-125231104D01*
X93695209Y-125231104D02*
X93742828Y-125135866D01*
X93742828Y-125135866D02*
X93742828Y-124754914D01*
X93314257Y-125707295D02*
X93266638Y-125754914D01*
X93266638Y-125754914D02*
X93219019Y-125850152D01*
X93219019Y-125850152D02*
X93219019Y-126088247D01*
X93219019Y-126088247D02*
X93266638Y-126183485D01*
X93266638Y-126183485D02*
X93314257Y-126231104D01*
X93314257Y-126231104D02*
X93409495Y-126278723D01*
X93409495Y-126278723D02*
X93504733Y-126278723D01*
X93504733Y-126278723D02*
X93647590Y-126231104D01*
X93647590Y-126231104D02*
X94219019Y-125659676D01*
X94219019Y-125659676D02*
X94219019Y-126278723D01*
X93219019Y-126897771D02*
X93219019Y-126993009D01*
X93219019Y-126993009D02*
X93266638Y-127088247D01*
X93266638Y-127088247D02*
X93314257Y-127135866D01*
X93314257Y-127135866D02*
X93409495Y-127183485D01*
X93409495Y-127183485D02*
X93599971Y-127231104D01*
X93599971Y-127231104D02*
X93838066Y-127231104D01*
X93838066Y-127231104D02*
X94028542Y-127183485D01*
X94028542Y-127183485D02*
X94123780Y-127135866D01*
X94123780Y-127135866D02*
X94171400Y-127088247D01*
X94171400Y-127088247D02*
X94219019Y-126993009D01*
X94219019Y-126993009D02*
X94219019Y-126897771D01*
X94219019Y-126897771D02*
X94171400Y-126802533D01*
X94171400Y-126802533D02*
X94123780Y-126754914D01*
X94123780Y-126754914D02*
X94028542Y-126707295D01*
X94028542Y-126707295D02*
X93838066Y-126659676D01*
X93838066Y-126659676D02*
X93599971Y-126659676D01*
X93599971Y-126659676D02*
X93409495Y-126707295D01*
X93409495Y-126707295D02*
X93314257Y-126754914D01*
X93314257Y-126754914D02*
X93266638Y-126802533D01*
X93266638Y-126802533D02*
X93219019Y-126897771D01*
X110221357Y-125255619D02*
X110554690Y-124779428D01*
X110792785Y-125255619D02*
X110792785Y-124255619D01*
X110792785Y-124255619D02*
X110411833Y-124255619D01*
X110411833Y-124255619D02*
X110316595Y-124303238D01*
X110316595Y-124303238D02*
X110268976Y-124350857D01*
X110268976Y-124350857D02*
X110221357Y-124446095D01*
X110221357Y-124446095D02*
X110221357Y-124588952D01*
X110221357Y-124588952D02*
X110268976Y-124684190D01*
X110268976Y-124684190D02*
X110316595Y-124731809D01*
X110316595Y-124731809D02*
X110411833Y-124779428D01*
X110411833Y-124779428D02*
X110792785Y-124779428D01*
X109840404Y-124350857D02*
X109792785Y-124303238D01*
X109792785Y-124303238D02*
X109697547Y-124255619D01*
X109697547Y-124255619D02*
X109459452Y-124255619D01*
X109459452Y-124255619D02*
X109364214Y-124303238D01*
X109364214Y-124303238D02*
X109316595Y-124350857D01*
X109316595Y-124350857D02*
X109268976Y-124446095D01*
X109268976Y-124446095D02*
X109268976Y-124541333D01*
X109268976Y-124541333D02*
X109316595Y-124684190D01*
X109316595Y-124684190D02*
X109888023Y-125255619D01*
X109888023Y-125255619D02*
X109268976Y-125255619D01*
X108888023Y-124350857D02*
X108840404Y-124303238D01*
X108840404Y-124303238D02*
X108745166Y-124255619D01*
X108745166Y-124255619D02*
X108507071Y-124255619D01*
X108507071Y-124255619D02*
X108411833Y-124303238D01*
X108411833Y-124303238D02*
X108364214Y-124350857D01*
X108364214Y-124350857D02*
X108316595Y-124446095D01*
X108316595Y-124446095D02*
X108316595Y-124541333D01*
X108316595Y-124541333D02*
X108364214Y-124684190D01*
X108364214Y-124684190D02*
X108935642Y-125255619D01*
X108935642Y-125255619D02*
X108316595Y-125255619D01*
X109699919Y-137280542D02*
X109223728Y-136947209D01*
X109699919Y-136709114D02*
X108699919Y-136709114D01*
X108699919Y-136709114D02*
X108699919Y-137090066D01*
X108699919Y-137090066D02*
X108747538Y-137185304D01*
X108747538Y-137185304D02*
X108795157Y-137232923D01*
X108795157Y-137232923D02*
X108890395Y-137280542D01*
X108890395Y-137280542D02*
X109033252Y-137280542D01*
X109033252Y-137280542D02*
X109128490Y-137232923D01*
X109128490Y-137232923D02*
X109176109Y-137185304D01*
X109176109Y-137185304D02*
X109223728Y-137090066D01*
X109223728Y-137090066D02*
X109223728Y-136709114D01*
X108795157Y-137661495D02*
X108747538Y-137709114D01*
X108747538Y-137709114D02*
X108699919Y-137804352D01*
X108699919Y-137804352D02*
X108699919Y-138042447D01*
X108699919Y-138042447D02*
X108747538Y-138137685D01*
X108747538Y-138137685D02*
X108795157Y-138185304D01*
X108795157Y-138185304D02*
X108890395Y-138232923D01*
X108890395Y-138232923D02*
X108985633Y-138232923D01*
X108985633Y-138232923D02*
X109128490Y-138185304D01*
X109128490Y-138185304D02*
X109699919Y-137613876D01*
X109699919Y-137613876D02*
X109699919Y-138232923D01*
X109033252Y-139090066D02*
X109699919Y-139090066D01*
X108652300Y-138851971D02*
X109366585Y-138613876D01*
X109366585Y-138613876D02*
X109366585Y-139232923D01*
X109755619Y-104180942D02*
X109279428Y-103847609D01*
X109755619Y-103609514D02*
X108755619Y-103609514D01*
X108755619Y-103609514D02*
X108755619Y-103990466D01*
X108755619Y-103990466D02*
X108803238Y-104085704D01*
X108803238Y-104085704D02*
X108850857Y-104133323D01*
X108850857Y-104133323D02*
X108946095Y-104180942D01*
X108946095Y-104180942D02*
X109088952Y-104180942D01*
X109088952Y-104180942D02*
X109184190Y-104133323D01*
X109184190Y-104133323D02*
X109231809Y-104085704D01*
X109231809Y-104085704D02*
X109279428Y-103990466D01*
X109279428Y-103990466D02*
X109279428Y-103609514D01*
X109755619Y-105133323D02*
X109755619Y-104561895D01*
X109755619Y-104847609D02*
X108755619Y-104847609D01*
X108755619Y-104847609D02*
X108898476Y-104752371D01*
X108898476Y-104752371D02*
X108993714Y-104657133D01*
X108993714Y-104657133D02*
X109041333Y-104561895D01*
X108755619Y-105752371D02*
X108755619Y-105847609D01*
X108755619Y-105847609D02*
X108803238Y-105942847D01*
X108803238Y-105942847D02*
X108850857Y-105990466D01*
X108850857Y-105990466D02*
X108946095Y-106038085D01*
X108946095Y-106038085D02*
X109136571Y-106085704D01*
X109136571Y-106085704D02*
X109374666Y-106085704D01*
X109374666Y-106085704D02*
X109565142Y-106038085D01*
X109565142Y-106038085D02*
X109660380Y-105990466D01*
X109660380Y-105990466D02*
X109708000Y-105942847D01*
X109708000Y-105942847D02*
X109755619Y-105847609D01*
X109755619Y-105847609D02*
X109755619Y-105752371D01*
X109755619Y-105752371D02*
X109708000Y-105657133D01*
X109708000Y-105657133D02*
X109660380Y-105609514D01*
X109660380Y-105609514D02*
X109565142Y-105561895D01*
X109565142Y-105561895D02*
X109374666Y-105514276D01*
X109374666Y-105514276D02*
X109136571Y-105514276D01*
X109136571Y-105514276D02*
X108946095Y-105561895D01*
X108946095Y-105561895D02*
X108850857Y-105609514D01*
X108850857Y-105609514D02*
X108803238Y-105657133D01*
X108803238Y-105657133D02*
X108755619Y-105752371D01*
X93914519Y-109866533D02*
X93438328Y-109533200D01*
X93914519Y-109295105D02*
X92914519Y-109295105D01*
X92914519Y-109295105D02*
X92914519Y-109676057D01*
X92914519Y-109676057D02*
X92962138Y-109771295D01*
X92962138Y-109771295D02*
X93009757Y-109818914D01*
X93009757Y-109818914D02*
X93104995Y-109866533D01*
X93104995Y-109866533D02*
X93247852Y-109866533D01*
X93247852Y-109866533D02*
X93343090Y-109818914D01*
X93343090Y-109818914D02*
X93390709Y-109771295D01*
X93390709Y-109771295D02*
X93438328Y-109676057D01*
X93438328Y-109676057D02*
X93438328Y-109295105D01*
X93914519Y-110342724D02*
X93914519Y-110533200D01*
X93914519Y-110533200D02*
X93866900Y-110628438D01*
X93866900Y-110628438D02*
X93819280Y-110676057D01*
X93819280Y-110676057D02*
X93676423Y-110771295D01*
X93676423Y-110771295D02*
X93485947Y-110818914D01*
X93485947Y-110818914D02*
X93104995Y-110818914D01*
X93104995Y-110818914D02*
X93009757Y-110771295D01*
X93009757Y-110771295D02*
X92962138Y-110723676D01*
X92962138Y-110723676D02*
X92914519Y-110628438D01*
X92914519Y-110628438D02*
X92914519Y-110437962D01*
X92914519Y-110437962D02*
X92962138Y-110342724D01*
X92962138Y-110342724D02*
X93009757Y-110295105D01*
X93009757Y-110295105D02*
X93104995Y-110247486D01*
X93104995Y-110247486D02*
X93343090Y-110247486D01*
X93343090Y-110247486D02*
X93438328Y-110295105D01*
X93438328Y-110295105D02*
X93485947Y-110342724D01*
X93485947Y-110342724D02*
X93533566Y-110437962D01*
X93533566Y-110437962D02*
X93533566Y-110628438D01*
X93533566Y-110628438D02*
X93485947Y-110723676D01*
X93485947Y-110723676D02*
X93438328Y-110771295D01*
X93438328Y-110771295D02*
X93343090Y-110818914D01*
X94724319Y-141185342D02*
X94248128Y-140852009D01*
X94724319Y-140613914D02*
X93724319Y-140613914D01*
X93724319Y-140613914D02*
X93724319Y-140994866D01*
X93724319Y-140994866D02*
X93771938Y-141090104D01*
X93771938Y-141090104D02*
X93819557Y-141137723D01*
X93819557Y-141137723D02*
X93914795Y-141185342D01*
X93914795Y-141185342D02*
X94057652Y-141185342D01*
X94057652Y-141185342D02*
X94152890Y-141137723D01*
X94152890Y-141137723D02*
X94200509Y-141090104D01*
X94200509Y-141090104D02*
X94248128Y-140994866D01*
X94248128Y-140994866D02*
X94248128Y-140613914D01*
X93819557Y-141566295D02*
X93771938Y-141613914D01*
X93771938Y-141613914D02*
X93724319Y-141709152D01*
X93724319Y-141709152D02*
X93724319Y-141947247D01*
X93724319Y-141947247D02*
X93771938Y-142042485D01*
X93771938Y-142042485D02*
X93819557Y-142090104D01*
X93819557Y-142090104D02*
X93914795Y-142137723D01*
X93914795Y-142137723D02*
X94010033Y-142137723D01*
X94010033Y-142137723D02*
X94152890Y-142090104D01*
X94152890Y-142090104D02*
X94724319Y-141518676D01*
X94724319Y-141518676D02*
X94724319Y-142137723D01*
X93724319Y-142471057D02*
X93724319Y-143090104D01*
X93724319Y-143090104D02*
X94105271Y-142756771D01*
X94105271Y-142756771D02*
X94105271Y-142899628D01*
X94105271Y-142899628D02*
X94152890Y-142994866D01*
X94152890Y-142994866D02*
X94200509Y-143042485D01*
X94200509Y-143042485D02*
X94295747Y-143090104D01*
X94295747Y-143090104D02*
X94533842Y-143090104D01*
X94533842Y-143090104D02*
X94629080Y-143042485D01*
X94629080Y-143042485D02*
X94676700Y-142994866D01*
X94676700Y-142994866D02*
X94724319Y-142899628D01*
X94724319Y-142899628D02*
X94724319Y-142613914D01*
X94724319Y-142613914D02*
X94676700Y-142518676D01*
X94676700Y-142518676D02*
X94629080Y-142471057D01*
X110261257Y-108746819D02*
X110594590Y-108270628D01*
X110832685Y-108746819D02*
X110832685Y-107746819D01*
X110832685Y-107746819D02*
X110451733Y-107746819D01*
X110451733Y-107746819D02*
X110356495Y-107794438D01*
X110356495Y-107794438D02*
X110308876Y-107842057D01*
X110308876Y-107842057D02*
X110261257Y-107937295D01*
X110261257Y-107937295D02*
X110261257Y-108080152D01*
X110261257Y-108080152D02*
X110308876Y-108175390D01*
X110308876Y-108175390D02*
X110356495Y-108223009D01*
X110356495Y-108223009D02*
X110451733Y-108270628D01*
X110451733Y-108270628D02*
X110832685Y-108270628D01*
X109308876Y-108746819D02*
X109880304Y-108746819D01*
X109594590Y-108746819D02*
X109594590Y-107746819D01*
X109594590Y-107746819D02*
X109689828Y-107889676D01*
X109689828Y-107889676D02*
X109785066Y-107984914D01*
X109785066Y-107984914D02*
X109880304Y-108032533D01*
X108356495Y-108746819D02*
X108927923Y-108746819D01*
X108642209Y-108746819D02*
X108642209Y-107746819D01*
X108642209Y-107746819D02*
X108737447Y-107889676D01*
X108737447Y-107889676D02*
X108832685Y-107984914D01*
X108832685Y-107984914D02*
X108927923Y-108032533D01*
X110172957Y-141528819D02*
X110506290Y-141052628D01*
X110744385Y-141528819D02*
X110744385Y-140528819D01*
X110744385Y-140528819D02*
X110363433Y-140528819D01*
X110363433Y-140528819D02*
X110268195Y-140576438D01*
X110268195Y-140576438D02*
X110220576Y-140624057D01*
X110220576Y-140624057D02*
X110172957Y-140719295D01*
X110172957Y-140719295D02*
X110172957Y-140862152D01*
X110172957Y-140862152D02*
X110220576Y-140957390D01*
X110220576Y-140957390D02*
X110268195Y-141005009D01*
X110268195Y-141005009D02*
X110363433Y-141052628D01*
X110363433Y-141052628D02*
X110744385Y-141052628D01*
X109792004Y-140624057D02*
X109744385Y-140576438D01*
X109744385Y-140576438D02*
X109649147Y-140528819D01*
X109649147Y-140528819D02*
X109411052Y-140528819D01*
X109411052Y-140528819D02*
X109315814Y-140576438D01*
X109315814Y-140576438D02*
X109268195Y-140624057D01*
X109268195Y-140624057D02*
X109220576Y-140719295D01*
X109220576Y-140719295D02*
X109220576Y-140814533D01*
X109220576Y-140814533D02*
X109268195Y-140957390D01*
X109268195Y-140957390D02*
X109839623Y-141528819D01*
X109839623Y-141528819D02*
X109220576Y-141528819D01*
X108315814Y-140528819D02*
X108792004Y-140528819D01*
X108792004Y-140528819D02*
X108839623Y-141005009D01*
X108839623Y-141005009D02*
X108792004Y-140957390D01*
X108792004Y-140957390D02*
X108696766Y-140909771D01*
X108696766Y-140909771D02*
X108458671Y-140909771D01*
X108458671Y-140909771D02*
X108363433Y-140957390D01*
X108363433Y-140957390D02*
X108315814Y-141005009D01*
X108315814Y-141005009D02*
X108268195Y-141100247D01*
X108268195Y-141100247D02*
X108268195Y-141338342D01*
X108268195Y-141338342D02*
X108315814Y-141433580D01*
X108315814Y-141433580D02*
X108363433Y-141481200D01*
X108363433Y-141481200D02*
X108458671Y-141528819D01*
X108458671Y-141528819D02*
X108696766Y-141528819D01*
X108696766Y-141528819D02*
X108792004Y-141481200D01*
X108792004Y-141481200D02*
X108839623Y-141433580D01*
X117440695Y-133191685D02*
X117774028Y-132715494D01*
X118012123Y-133191685D02*
X118012123Y-132191685D01*
X118012123Y-132191685D02*
X117631171Y-132191685D01*
X117631171Y-132191685D02*
X117535933Y-132239304D01*
X117535933Y-132239304D02*
X117488314Y-132286923D01*
X117488314Y-132286923D02*
X117440695Y-132382161D01*
X117440695Y-132382161D02*
X117440695Y-132525018D01*
X117440695Y-132525018D02*
X117488314Y-132620256D01*
X117488314Y-132620256D02*
X117535933Y-132667875D01*
X117535933Y-132667875D02*
X117631171Y-132715494D01*
X117631171Y-132715494D02*
X118012123Y-132715494D01*
X117059742Y-132286923D02*
X117012123Y-132239304D01*
X117012123Y-132239304D02*
X116916885Y-132191685D01*
X116916885Y-132191685D02*
X116678790Y-132191685D01*
X116678790Y-132191685D02*
X116583552Y-132239304D01*
X116583552Y-132239304D02*
X116535933Y-132286923D01*
X116535933Y-132286923D02*
X116488314Y-132382161D01*
X116488314Y-132382161D02*
X116488314Y-132477399D01*
X116488314Y-132477399D02*
X116535933Y-132620256D01*
X116535933Y-132620256D02*
X117107361Y-133191685D01*
X117107361Y-133191685D02*
X116488314Y-133191685D01*
X99889791Y-92236754D02*
X100223124Y-91760563D01*
X100461219Y-92236754D02*
X100461219Y-91236754D01*
X100461219Y-91236754D02*
X100080267Y-91236754D01*
X100080267Y-91236754D02*
X99985029Y-91284373D01*
X99985029Y-91284373D02*
X99937410Y-91331992D01*
X99937410Y-91331992D02*
X99889791Y-91427230D01*
X99889791Y-91427230D02*
X99889791Y-91570087D01*
X99889791Y-91570087D02*
X99937410Y-91665325D01*
X99937410Y-91665325D02*
X99985029Y-91712944D01*
X99985029Y-91712944D02*
X100080267Y-91760563D01*
X100080267Y-91760563D02*
X100461219Y-91760563D01*
X98937410Y-92236754D02*
X99508838Y-92236754D01*
X99223124Y-92236754D02*
X99223124Y-91236754D01*
X99223124Y-91236754D02*
X99318362Y-91379611D01*
X99318362Y-91379611D02*
X99413600Y-91474849D01*
X99413600Y-91474849D02*
X99508838Y-91522468D01*
X98556457Y-91331992D02*
X98508838Y-91284373D01*
X98508838Y-91284373D02*
X98413600Y-91236754D01*
X98413600Y-91236754D02*
X98175505Y-91236754D01*
X98175505Y-91236754D02*
X98080267Y-91284373D01*
X98080267Y-91284373D02*
X98032648Y-91331992D01*
X98032648Y-91331992D02*
X97985029Y-91427230D01*
X97985029Y-91427230D02*
X97985029Y-91522468D01*
X97985029Y-91522468D02*
X98032648Y-91665325D01*
X98032648Y-91665325D02*
X98604076Y-92236754D01*
X98604076Y-92236754D02*
X97985029Y-92236754D01*
X106898866Y-83792885D02*
X106422675Y-83459552D01*
X106898866Y-83221457D02*
X105898866Y-83221457D01*
X105898866Y-83221457D02*
X105898866Y-83602409D01*
X105898866Y-83602409D02*
X105946485Y-83697647D01*
X105946485Y-83697647D02*
X105994104Y-83745266D01*
X105994104Y-83745266D02*
X106089342Y-83792885D01*
X106089342Y-83792885D02*
X106232199Y-83792885D01*
X106232199Y-83792885D02*
X106327437Y-83745266D01*
X106327437Y-83745266D02*
X106375056Y-83697647D01*
X106375056Y-83697647D02*
X106422675Y-83602409D01*
X106422675Y-83602409D02*
X106422675Y-83221457D01*
X106898866Y-84745266D02*
X106898866Y-84173838D01*
X106898866Y-84459552D02*
X105898866Y-84459552D01*
X105898866Y-84459552D02*
X106041723Y-84364314D01*
X106041723Y-84364314D02*
X106136961Y-84269076D01*
X106136961Y-84269076D02*
X106184580Y-84173838D01*
X105898866Y-85650028D02*
X105898866Y-85173838D01*
X105898866Y-85173838D02*
X106375056Y-85126219D01*
X106375056Y-85126219D02*
X106327437Y-85173838D01*
X106327437Y-85173838D02*
X106279818Y-85269076D01*
X106279818Y-85269076D02*
X106279818Y-85507171D01*
X106279818Y-85507171D02*
X106327437Y-85602409D01*
X106327437Y-85602409D02*
X106375056Y-85650028D01*
X106375056Y-85650028D02*
X106470294Y-85697647D01*
X106470294Y-85697647D02*
X106708389Y-85697647D01*
X106708389Y-85697647D02*
X106803627Y-85650028D01*
X106803627Y-85650028D02*
X106851247Y-85602409D01*
X106851247Y-85602409D02*
X106898866Y-85507171D01*
X106898866Y-85507171D02*
X106898866Y-85269076D01*
X106898866Y-85269076D02*
X106851247Y-85173838D01*
X106851247Y-85173838D02*
X106803627Y-85126219D01*
X133031904Y-78069519D02*
X133031904Y-78879042D01*
X133031904Y-78879042D02*
X132984285Y-78974280D01*
X132984285Y-78974280D02*
X132936666Y-79021900D01*
X132936666Y-79021900D02*
X132841428Y-79069519D01*
X132841428Y-79069519D02*
X132650952Y-79069519D01*
X132650952Y-79069519D02*
X132555714Y-79021900D01*
X132555714Y-79021900D02*
X132508095Y-78974280D01*
X132508095Y-78974280D02*
X132460476Y-78879042D01*
X132460476Y-78879042D02*
X132460476Y-78069519D01*
X132079523Y-78069519D02*
X131412857Y-78069519D01*
X131412857Y-78069519D02*
X131841428Y-79069519D01*
X111374461Y-94154420D02*
X111707794Y-93678229D01*
X111945889Y-94154420D02*
X111945889Y-93154420D01*
X111945889Y-93154420D02*
X111564937Y-93154420D01*
X111564937Y-93154420D02*
X111469699Y-93202039D01*
X111469699Y-93202039D02*
X111422080Y-93249658D01*
X111422080Y-93249658D02*
X111374461Y-93344896D01*
X111374461Y-93344896D02*
X111374461Y-93487753D01*
X111374461Y-93487753D02*
X111422080Y-93582991D01*
X111422080Y-93582991D02*
X111469699Y-93630610D01*
X111469699Y-93630610D02*
X111564937Y-93678229D01*
X111564937Y-93678229D02*
X111945889Y-93678229D01*
X110422080Y-94154420D02*
X110993508Y-94154420D01*
X110707794Y-94154420D02*
X110707794Y-93154420D01*
X110707794Y-93154420D02*
X110803032Y-93297277D01*
X110803032Y-93297277D02*
X110898270Y-93392515D01*
X110898270Y-93392515D02*
X110993508Y-93440134D01*
X110088746Y-93154420D02*
X109469699Y-93154420D01*
X109469699Y-93154420D02*
X109803032Y-93535372D01*
X109803032Y-93535372D02*
X109660175Y-93535372D01*
X109660175Y-93535372D02*
X109564937Y-93582991D01*
X109564937Y-93582991D02*
X109517318Y-93630610D01*
X109517318Y-93630610D02*
X109469699Y-93725848D01*
X109469699Y-93725848D02*
X109469699Y-93963943D01*
X109469699Y-93963943D02*
X109517318Y-94059181D01*
X109517318Y-94059181D02*
X109564937Y-94106801D01*
X109564937Y-94106801D02*
X109660175Y-94154420D01*
X109660175Y-94154420D02*
X109945889Y-94154420D01*
X109945889Y-94154420D02*
X110041127Y-94106801D01*
X110041127Y-94106801D02*
X110088746Y-94059181D01*
X115253757Y-53272080D02*
X115301376Y-53319700D01*
X115301376Y-53319700D02*
X115444233Y-53367319D01*
X115444233Y-53367319D02*
X115539471Y-53367319D01*
X115539471Y-53367319D02*
X115682328Y-53319700D01*
X115682328Y-53319700D02*
X115777566Y-53224461D01*
X115777566Y-53224461D02*
X115825185Y-53129223D01*
X115825185Y-53129223D02*
X115872804Y-52938747D01*
X115872804Y-52938747D02*
X115872804Y-52795890D01*
X115872804Y-52795890D02*
X115825185Y-52605414D01*
X115825185Y-52605414D02*
X115777566Y-52510176D01*
X115777566Y-52510176D02*
X115682328Y-52414938D01*
X115682328Y-52414938D02*
X115539471Y-52367319D01*
X115539471Y-52367319D02*
X115444233Y-52367319D01*
X115444233Y-52367319D02*
X115301376Y-52414938D01*
X115301376Y-52414938D02*
X115253757Y-52462557D01*
X114301376Y-53367319D02*
X114872804Y-53367319D01*
X114587090Y-53367319D02*
X114587090Y-52367319D01*
X114587090Y-52367319D02*
X114682328Y-52510176D01*
X114682328Y-52510176D02*
X114777566Y-52605414D01*
X114777566Y-52605414D02*
X114872804Y-52653033D01*
X113444233Y-52700652D02*
X113444233Y-53367319D01*
X113682328Y-52319700D02*
X113920423Y-53033985D01*
X113920423Y-53033985D02*
X113301376Y-53033985D01*
X132981024Y-56775814D02*
X133314357Y-56299623D01*
X133552452Y-56775814D02*
X133552452Y-55775814D01*
X133552452Y-55775814D02*
X133171500Y-55775814D01*
X133171500Y-55775814D02*
X133076262Y-55823433D01*
X133076262Y-55823433D02*
X133028643Y-55871052D01*
X133028643Y-55871052D02*
X132981024Y-55966290D01*
X132981024Y-55966290D02*
X132981024Y-56109147D01*
X132981024Y-56109147D02*
X133028643Y-56204385D01*
X133028643Y-56204385D02*
X133076262Y-56252004D01*
X133076262Y-56252004D02*
X133171500Y-56299623D01*
X133171500Y-56299623D02*
X133552452Y-56299623D01*
X132028643Y-56775814D02*
X132600071Y-56775814D01*
X132314357Y-56775814D02*
X132314357Y-55775814D01*
X132314357Y-55775814D02*
X132409595Y-55918671D01*
X132409595Y-55918671D02*
X132504833Y-56013909D01*
X132504833Y-56013909D02*
X132600071Y-56061528D01*
D11*
X138924378Y-75050009D02*
X137654378Y-75050009D01*
X137654378Y-75050009D02*
X137654378Y-75352390D01*
X137654378Y-75352390D02*
X137714854Y-75533819D01*
X137714854Y-75533819D02*
X137835806Y-75654771D01*
X137835806Y-75654771D02*
X137956759Y-75715248D01*
X137956759Y-75715248D02*
X138198663Y-75775724D01*
X138198663Y-75775724D02*
X138380092Y-75775724D01*
X138380092Y-75775724D02*
X138621997Y-75715248D01*
X138621997Y-75715248D02*
X138742949Y-75654771D01*
X138742949Y-75654771D02*
X138863902Y-75533819D01*
X138863902Y-75533819D02*
X138924378Y-75352390D01*
X138924378Y-75352390D02*
X138924378Y-75050009D01*
X138924378Y-76380486D02*
X138924378Y-76622390D01*
X138924378Y-76622390D02*
X138863902Y-76743343D01*
X138863902Y-76743343D02*
X138803425Y-76803819D01*
X138803425Y-76803819D02*
X138621997Y-76924771D01*
X138621997Y-76924771D02*
X138380092Y-76985248D01*
X138380092Y-76985248D02*
X137896282Y-76985248D01*
X137896282Y-76985248D02*
X137775330Y-76924771D01*
X137775330Y-76924771D02*
X137714854Y-76864295D01*
X137714854Y-76864295D02*
X137654378Y-76743343D01*
X137654378Y-76743343D02*
X137654378Y-76501438D01*
X137654378Y-76501438D02*
X137714854Y-76380486D01*
X137714854Y-76380486D02*
X137775330Y-76320009D01*
X137775330Y-76320009D02*
X137896282Y-76259533D01*
X137896282Y-76259533D02*
X138198663Y-76259533D01*
X138198663Y-76259533D02*
X138319616Y-76320009D01*
X138319616Y-76320009D02*
X138380092Y-76380486D01*
X138380092Y-76380486D02*
X138440568Y-76501438D01*
X138440568Y-76501438D02*
X138440568Y-76743343D01*
X138440568Y-76743343D02*
X138380092Y-76864295D01*
X138380092Y-76864295D02*
X138319616Y-76924771D01*
X138319616Y-76924771D02*
X138198663Y-76985248D01*
D10*
X82938457Y-100451580D02*
X82986076Y-100499200D01*
X82986076Y-100499200D02*
X83128933Y-100546819D01*
X83128933Y-100546819D02*
X83224171Y-100546819D01*
X83224171Y-100546819D02*
X83367028Y-100499200D01*
X83367028Y-100499200D02*
X83462266Y-100403961D01*
X83462266Y-100403961D02*
X83509885Y-100308723D01*
X83509885Y-100308723D02*
X83557504Y-100118247D01*
X83557504Y-100118247D02*
X83557504Y-99975390D01*
X83557504Y-99975390D02*
X83509885Y-99784914D01*
X83509885Y-99784914D02*
X83462266Y-99689676D01*
X83462266Y-99689676D02*
X83367028Y-99594438D01*
X83367028Y-99594438D02*
X83224171Y-99546819D01*
X83224171Y-99546819D02*
X83128933Y-99546819D01*
X83128933Y-99546819D02*
X82986076Y-99594438D01*
X82986076Y-99594438D02*
X82938457Y-99642057D01*
X81986076Y-100546819D02*
X82557504Y-100546819D01*
X82271790Y-100546819D02*
X82271790Y-99546819D01*
X82271790Y-99546819D02*
X82367028Y-99689676D01*
X82367028Y-99689676D02*
X82462266Y-99784914D01*
X82462266Y-99784914D02*
X82557504Y-99832533D01*
X81367028Y-99546819D02*
X81271790Y-99546819D01*
X81271790Y-99546819D02*
X81176552Y-99594438D01*
X81176552Y-99594438D02*
X81128933Y-99642057D01*
X81128933Y-99642057D02*
X81081314Y-99737295D01*
X81081314Y-99737295D02*
X81033695Y-99927771D01*
X81033695Y-99927771D02*
X81033695Y-100165866D01*
X81033695Y-100165866D02*
X81081314Y-100356342D01*
X81081314Y-100356342D02*
X81128933Y-100451580D01*
X81128933Y-100451580D02*
X81176552Y-100499200D01*
X81176552Y-100499200D02*
X81271790Y-100546819D01*
X81271790Y-100546819D02*
X81367028Y-100546819D01*
X81367028Y-100546819D02*
X81462266Y-100499200D01*
X81462266Y-100499200D02*
X81509885Y-100451580D01*
X81509885Y-100451580D02*
X81557504Y-100356342D01*
X81557504Y-100356342D02*
X81605123Y-100165866D01*
X81605123Y-100165866D02*
X81605123Y-99927771D01*
X81605123Y-99927771D02*
X81557504Y-99737295D01*
X81557504Y-99737295D02*
X81509885Y-99642057D01*
X81509885Y-99642057D02*
X81462266Y-99594438D01*
X81462266Y-99594438D02*
X81367028Y-99546819D01*
X105124104Y-56240319D02*
X105124104Y-57049842D01*
X105124104Y-57049842D02*
X105076485Y-57145080D01*
X105076485Y-57145080D02*
X105028866Y-57192700D01*
X105028866Y-57192700D02*
X104933628Y-57240319D01*
X104933628Y-57240319D02*
X104743152Y-57240319D01*
X104743152Y-57240319D02*
X104647914Y-57192700D01*
X104647914Y-57192700D02*
X104600295Y-57145080D01*
X104600295Y-57145080D02*
X104552676Y-57049842D01*
X104552676Y-57049842D02*
X104552676Y-56240319D01*
X103647914Y-56240319D02*
X103838390Y-56240319D01*
X103838390Y-56240319D02*
X103933628Y-56287938D01*
X103933628Y-56287938D02*
X103981247Y-56335557D01*
X103981247Y-56335557D02*
X104076485Y-56478414D01*
X104076485Y-56478414D02*
X104124104Y-56668890D01*
X104124104Y-56668890D02*
X104124104Y-57049842D01*
X104124104Y-57049842D02*
X104076485Y-57145080D01*
X104076485Y-57145080D02*
X104028866Y-57192700D01*
X104028866Y-57192700D02*
X103933628Y-57240319D01*
X103933628Y-57240319D02*
X103743152Y-57240319D01*
X103743152Y-57240319D02*
X103647914Y-57192700D01*
X103647914Y-57192700D02*
X103600295Y-57145080D01*
X103600295Y-57145080D02*
X103552676Y-57049842D01*
X103552676Y-57049842D02*
X103552676Y-56811747D01*
X103552676Y-56811747D02*
X103600295Y-56716509D01*
X103600295Y-56716509D02*
X103647914Y-56668890D01*
X103647914Y-56668890D02*
X103743152Y-56621271D01*
X103743152Y-56621271D02*
X103933628Y-56621271D01*
X103933628Y-56621271D02*
X104028866Y-56668890D01*
X104028866Y-56668890D02*
X104076485Y-56716509D01*
X104076485Y-56716509D02*
X104124104Y-56811747D01*
X81425245Y-87638536D02*
X80949054Y-87305203D01*
X81425245Y-87067108D02*
X80425245Y-87067108D01*
X80425245Y-87067108D02*
X80425245Y-87448060D01*
X80425245Y-87448060D02*
X80472864Y-87543298D01*
X80472864Y-87543298D02*
X80520483Y-87590917D01*
X80520483Y-87590917D02*
X80615721Y-87638536D01*
X80615721Y-87638536D02*
X80758578Y-87638536D01*
X80758578Y-87638536D02*
X80853816Y-87590917D01*
X80853816Y-87590917D02*
X80901435Y-87543298D01*
X80901435Y-87543298D02*
X80949054Y-87448060D01*
X80949054Y-87448060D02*
X80949054Y-87067108D01*
X81425245Y-88590917D02*
X81425245Y-88019489D01*
X81425245Y-88305203D02*
X80425245Y-88305203D01*
X80425245Y-88305203D02*
X80568102Y-88209965D01*
X80568102Y-88209965D02*
X80663340Y-88114727D01*
X80663340Y-88114727D02*
X80710959Y-88019489D01*
X80853816Y-89162346D02*
X80806197Y-89067108D01*
X80806197Y-89067108D02*
X80758578Y-89019489D01*
X80758578Y-89019489D02*
X80663340Y-88971870D01*
X80663340Y-88971870D02*
X80615721Y-88971870D01*
X80615721Y-88971870D02*
X80520483Y-89019489D01*
X80520483Y-89019489D02*
X80472864Y-89067108D01*
X80472864Y-89067108D02*
X80425245Y-89162346D01*
X80425245Y-89162346D02*
X80425245Y-89352822D01*
X80425245Y-89352822D02*
X80472864Y-89448060D01*
X80472864Y-89448060D02*
X80520483Y-89495679D01*
X80520483Y-89495679D02*
X80615721Y-89543298D01*
X80615721Y-89543298D02*
X80663340Y-89543298D01*
X80663340Y-89543298D02*
X80758578Y-89495679D01*
X80758578Y-89495679D02*
X80806197Y-89448060D01*
X80806197Y-89448060D02*
X80853816Y-89352822D01*
X80853816Y-89352822D02*
X80853816Y-89162346D01*
X80853816Y-89162346D02*
X80901435Y-89067108D01*
X80901435Y-89067108D02*
X80949054Y-89019489D01*
X80949054Y-89019489D02*
X81044292Y-88971870D01*
X81044292Y-88971870D02*
X81234768Y-88971870D01*
X81234768Y-88971870D02*
X81330006Y-89019489D01*
X81330006Y-89019489D02*
X81377626Y-89067108D01*
X81377626Y-89067108D02*
X81425245Y-89162346D01*
X81425245Y-89162346D02*
X81425245Y-89352822D01*
X81425245Y-89352822D02*
X81377626Y-89448060D01*
X81377626Y-89448060D02*
X81330006Y-89495679D01*
X81330006Y-89495679D02*
X81234768Y-89543298D01*
X81234768Y-89543298D02*
X81044292Y-89543298D01*
X81044292Y-89543298D02*
X80949054Y-89495679D01*
X80949054Y-89495679D02*
X80901435Y-89448060D01*
X80901435Y-89448060D02*
X80853816Y-89352822D01*
X83953919Y-87691216D02*
X83477728Y-87357883D01*
X83953919Y-87119788D02*
X82953919Y-87119788D01*
X82953919Y-87119788D02*
X82953919Y-87500740D01*
X82953919Y-87500740D02*
X83001538Y-87595978D01*
X83001538Y-87595978D02*
X83049157Y-87643597D01*
X83049157Y-87643597D02*
X83144395Y-87691216D01*
X83144395Y-87691216D02*
X83287252Y-87691216D01*
X83287252Y-87691216D02*
X83382490Y-87643597D01*
X83382490Y-87643597D02*
X83430109Y-87595978D01*
X83430109Y-87595978D02*
X83477728Y-87500740D01*
X83477728Y-87500740D02*
X83477728Y-87119788D01*
X83953919Y-88643597D02*
X83953919Y-88072169D01*
X83953919Y-88357883D02*
X82953919Y-88357883D01*
X82953919Y-88357883D02*
X83096776Y-88262645D01*
X83096776Y-88262645D02*
X83192014Y-88167407D01*
X83192014Y-88167407D02*
X83239633Y-88072169D01*
X83953919Y-89119788D02*
X83953919Y-89310264D01*
X83953919Y-89310264D02*
X83906300Y-89405502D01*
X83906300Y-89405502D02*
X83858680Y-89453121D01*
X83858680Y-89453121D02*
X83715823Y-89548359D01*
X83715823Y-89548359D02*
X83525347Y-89595978D01*
X83525347Y-89595978D02*
X83144395Y-89595978D01*
X83144395Y-89595978D02*
X83049157Y-89548359D01*
X83049157Y-89548359D02*
X83001538Y-89500740D01*
X83001538Y-89500740D02*
X82953919Y-89405502D01*
X82953919Y-89405502D02*
X82953919Y-89215026D01*
X82953919Y-89215026D02*
X83001538Y-89119788D01*
X83001538Y-89119788D02*
X83049157Y-89072169D01*
X83049157Y-89072169D02*
X83144395Y-89024550D01*
X83144395Y-89024550D02*
X83382490Y-89024550D01*
X83382490Y-89024550D02*
X83477728Y-89072169D01*
X83477728Y-89072169D02*
X83525347Y-89119788D01*
X83525347Y-89119788D02*
X83572966Y-89215026D01*
X83572966Y-89215026D02*
X83572966Y-89405502D01*
X83572966Y-89405502D02*
X83525347Y-89500740D01*
X83525347Y-89500740D02*
X83477728Y-89548359D01*
X83477728Y-89548359D02*
X83382490Y-89595978D01*
X103129366Y-96406580D02*
X103176985Y-96454200D01*
X103176985Y-96454200D02*
X103319842Y-96501819D01*
X103319842Y-96501819D02*
X103415080Y-96501819D01*
X103415080Y-96501819D02*
X103557937Y-96454200D01*
X103557937Y-96454200D02*
X103653175Y-96358961D01*
X103653175Y-96358961D02*
X103700794Y-96263723D01*
X103700794Y-96263723D02*
X103748413Y-96073247D01*
X103748413Y-96073247D02*
X103748413Y-95930390D01*
X103748413Y-95930390D02*
X103700794Y-95739914D01*
X103700794Y-95739914D02*
X103653175Y-95644676D01*
X103653175Y-95644676D02*
X103557937Y-95549438D01*
X103557937Y-95549438D02*
X103415080Y-95501819D01*
X103415080Y-95501819D02*
X103319842Y-95501819D01*
X103319842Y-95501819D02*
X103176985Y-95549438D01*
X103176985Y-95549438D02*
X103129366Y-95597057D01*
X102653175Y-96501819D02*
X102462699Y-96501819D01*
X102462699Y-96501819D02*
X102367461Y-96454200D01*
X102367461Y-96454200D02*
X102319842Y-96406580D01*
X102319842Y-96406580D02*
X102224604Y-96263723D01*
X102224604Y-96263723D02*
X102176985Y-96073247D01*
X102176985Y-96073247D02*
X102176985Y-95692295D01*
X102176985Y-95692295D02*
X102224604Y-95597057D01*
X102224604Y-95597057D02*
X102272223Y-95549438D01*
X102272223Y-95549438D02*
X102367461Y-95501819D01*
X102367461Y-95501819D02*
X102557937Y-95501819D01*
X102557937Y-95501819D02*
X102653175Y-95549438D01*
X102653175Y-95549438D02*
X102700794Y-95597057D01*
X102700794Y-95597057D02*
X102748413Y-95692295D01*
X102748413Y-95692295D02*
X102748413Y-95930390D01*
X102748413Y-95930390D02*
X102700794Y-96025628D01*
X102700794Y-96025628D02*
X102653175Y-96073247D01*
X102653175Y-96073247D02*
X102557937Y-96120866D01*
X102557937Y-96120866D02*
X102367461Y-96120866D01*
X102367461Y-96120866D02*
X102272223Y-96073247D01*
X102272223Y-96073247D02*
X102224604Y-96025628D01*
X102224604Y-96025628D02*
X102176985Y-95930390D01*
X90278357Y-97957519D02*
X90611690Y-97481328D01*
X90849785Y-97957519D02*
X90849785Y-96957519D01*
X90849785Y-96957519D02*
X90468833Y-96957519D01*
X90468833Y-96957519D02*
X90373595Y-97005138D01*
X90373595Y-97005138D02*
X90325976Y-97052757D01*
X90325976Y-97052757D02*
X90278357Y-97147995D01*
X90278357Y-97147995D02*
X90278357Y-97290852D01*
X90278357Y-97290852D02*
X90325976Y-97386090D01*
X90325976Y-97386090D02*
X90373595Y-97433709D01*
X90373595Y-97433709D02*
X90468833Y-97481328D01*
X90468833Y-97481328D02*
X90849785Y-97481328D01*
X89325976Y-97957519D02*
X89897404Y-97957519D01*
X89611690Y-97957519D02*
X89611690Y-96957519D01*
X89611690Y-96957519D02*
X89706928Y-97100376D01*
X89706928Y-97100376D02*
X89802166Y-97195614D01*
X89802166Y-97195614D02*
X89897404Y-97243233D01*
X88992642Y-96957519D02*
X88325976Y-96957519D01*
X88325976Y-96957519D02*
X88754547Y-97957519D01*
X100934923Y-83346455D02*
X100458732Y-83013122D01*
X100934923Y-82775027D02*
X99934923Y-82775027D01*
X99934923Y-82775027D02*
X99934923Y-83155979D01*
X99934923Y-83155979D02*
X99982542Y-83251217D01*
X99982542Y-83251217D02*
X100030161Y-83298836D01*
X100030161Y-83298836D02*
X100125399Y-83346455D01*
X100125399Y-83346455D02*
X100268256Y-83346455D01*
X100268256Y-83346455D02*
X100363494Y-83298836D01*
X100363494Y-83298836D02*
X100411113Y-83251217D01*
X100411113Y-83251217D02*
X100458732Y-83155979D01*
X100458732Y-83155979D02*
X100458732Y-82775027D01*
X100934923Y-84298836D02*
X100934923Y-83727408D01*
X100934923Y-84013122D02*
X99934923Y-84013122D01*
X99934923Y-84013122D02*
X100077780Y-83917884D01*
X100077780Y-83917884D02*
X100173018Y-83822646D01*
X100173018Y-83822646D02*
X100220637Y-83727408D01*
X100268256Y-85155979D02*
X100934923Y-85155979D01*
X99887304Y-84917884D02*
X100601589Y-84679789D01*
X100601589Y-84679789D02*
X100601589Y-85298836D01*
X79022555Y-96361319D02*
X79355888Y-95885128D01*
X79593983Y-96361319D02*
X79593983Y-95361319D01*
X79593983Y-95361319D02*
X79213031Y-95361319D01*
X79213031Y-95361319D02*
X79117793Y-95408938D01*
X79117793Y-95408938D02*
X79070174Y-95456557D01*
X79070174Y-95456557D02*
X79022555Y-95551795D01*
X79022555Y-95551795D02*
X79022555Y-95694652D01*
X79022555Y-95694652D02*
X79070174Y-95789890D01*
X79070174Y-95789890D02*
X79117793Y-95837509D01*
X79117793Y-95837509D02*
X79213031Y-95885128D01*
X79213031Y-95885128D02*
X79593983Y-95885128D01*
X78070174Y-96361319D02*
X78641602Y-96361319D01*
X78355888Y-96361319D02*
X78355888Y-95361319D01*
X78355888Y-95361319D02*
X78451126Y-95504176D01*
X78451126Y-95504176D02*
X78546364Y-95599414D01*
X78546364Y-95599414D02*
X78641602Y-95647033D01*
X77213031Y-95361319D02*
X77403507Y-95361319D01*
X77403507Y-95361319D02*
X77498745Y-95408938D01*
X77498745Y-95408938D02*
X77546364Y-95456557D01*
X77546364Y-95456557D02*
X77641602Y-95599414D01*
X77641602Y-95599414D02*
X77689221Y-95789890D01*
X77689221Y-95789890D02*
X77689221Y-96170842D01*
X77689221Y-96170842D02*
X77641602Y-96266080D01*
X77641602Y-96266080D02*
X77593983Y-96313700D01*
X77593983Y-96313700D02*
X77498745Y-96361319D01*
X77498745Y-96361319D02*
X77308269Y-96361319D01*
X77308269Y-96361319D02*
X77213031Y-96313700D01*
X77213031Y-96313700D02*
X77165412Y-96266080D01*
X77165412Y-96266080D02*
X77117793Y-96170842D01*
X77117793Y-96170842D02*
X77117793Y-95932747D01*
X77117793Y-95932747D02*
X77165412Y-95837509D01*
X77165412Y-95837509D02*
X77213031Y-95789890D01*
X77213031Y-95789890D02*
X77308269Y-95742271D01*
X77308269Y-95742271D02*
X77498745Y-95742271D01*
X77498745Y-95742271D02*
X77593983Y-95789890D01*
X77593983Y-95789890D02*
X77641602Y-95837509D01*
X77641602Y-95837509D02*
X77689221Y-95932747D01*
X103249566Y-82077980D02*
X103297185Y-82125600D01*
X103297185Y-82125600D02*
X103440042Y-82173219D01*
X103440042Y-82173219D02*
X103535280Y-82173219D01*
X103535280Y-82173219D02*
X103678137Y-82125600D01*
X103678137Y-82125600D02*
X103773375Y-82030361D01*
X103773375Y-82030361D02*
X103820994Y-81935123D01*
X103820994Y-81935123D02*
X103868613Y-81744647D01*
X103868613Y-81744647D02*
X103868613Y-81601790D01*
X103868613Y-81601790D02*
X103820994Y-81411314D01*
X103820994Y-81411314D02*
X103773375Y-81316076D01*
X103773375Y-81316076D02*
X103678137Y-81220838D01*
X103678137Y-81220838D02*
X103535280Y-81173219D01*
X103535280Y-81173219D02*
X103440042Y-81173219D01*
X103440042Y-81173219D02*
X103297185Y-81220838D01*
X103297185Y-81220838D02*
X103249566Y-81268457D01*
X102678137Y-81601790D02*
X102773375Y-81554171D01*
X102773375Y-81554171D02*
X102820994Y-81506552D01*
X102820994Y-81506552D02*
X102868613Y-81411314D01*
X102868613Y-81411314D02*
X102868613Y-81363695D01*
X102868613Y-81363695D02*
X102820994Y-81268457D01*
X102820994Y-81268457D02*
X102773375Y-81220838D01*
X102773375Y-81220838D02*
X102678137Y-81173219D01*
X102678137Y-81173219D02*
X102487661Y-81173219D01*
X102487661Y-81173219D02*
X102392423Y-81220838D01*
X102392423Y-81220838D02*
X102344804Y-81268457D01*
X102344804Y-81268457D02*
X102297185Y-81363695D01*
X102297185Y-81363695D02*
X102297185Y-81411314D01*
X102297185Y-81411314D02*
X102344804Y-81506552D01*
X102344804Y-81506552D02*
X102392423Y-81554171D01*
X102392423Y-81554171D02*
X102487661Y-81601790D01*
X102487661Y-81601790D02*
X102678137Y-81601790D01*
X102678137Y-81601790D02*
X102773375Y-81649409D01*
X102773375Y-81649409D02*
X102820994Y-81697028D01*
X102820994Y-81697028D02*
X102868613Y-81792266D01*
X102868613Y-81792266D02*
X102868613Y-81982742D01*
X102868613Y-81982742D02*
X102820994Y-82077980D01*
X102820994Y-82077980D02*
X102773375Y-82125600D01*
X102773375Y-82125600D02*
X102678137Y-82173219D01*
X102678137Y-82173219D02*
X102487661Y-82173219D01*
X102487661Y-82173219D02*
X102392423Y-82125600D01*
X102392423Y-82125600D02*
X102344804Y-82077980D01*
X102344804Y-82077980D02*
X102297185Y-81982742D01*
X102297185Y-81982742D02*
X102297185Y-81792266D01*
X102297185Y-81792266D02*
X102344804Y-81697028D01*
X102344804Y-81697028D02*
X102392423Y-81649409D01*
X102392423Y-81649409D02*
X102487661Y-81601790D01*
X112960789Y-77753588D02*
X113294122Y-77277397D01*
X113532217Y-77753588D02*
X113532217Y-76753588D01*
X113532217Y-76753588D02*
X113151265Y-76753588D01*
X113151265Y-76753588D02*
X113056027Y-76801207D01*
X113056027Y-76801207D02*
X113008408Y-76848826D01*
X113008408Y-76848826D02*
X112960789Y-76944064D01*
X112960789Y-76944064D02*
X112960789Y-77086921D01*
X112960789Y-77086921D02*
X113008408Y-77182159D01*
X113008408Y-77182159D02*
X113056027Y-77229778D01*
X113056027Y-77229778D02*
X113151265Y-77277397D01*
X113151265Y-77277397D02*
X113532217Y-77277397D01*
X112103646Y-76753588D02*
X112294122Y-76753588D01*
X112294122Y-76753588D02*
X112389360Y-76801207D01*
X112389360Y-76801207D02*
X112436979Y-76848826D01*
X112436979Y-76848826D02*
X112532217Y-76991683D01*
X112532217Y-76991683D02*
X112579836Y-77182159D01*
X112579836Y-77182159D02*
X112579836Y-77563111D01*
X112579836Y-77563111D02*
X112532217Y-77658349D01*
X112532217Y-77658349D02*
X112484598Y-77705969D01*
X112484598Y-77705969D02*
X112389360Y-77753588D01*
X112389360Y-77753588D02*
X112198884Y-77753588D01*
X112198884Y-77753588D02*
X112103646Y-77705969D01*
X112103646Y-77705969D02*
X112056027Y-77658349D01*
X112056027Y-77658349D02*
X112008408Y-77563111D01*
X112008408Y-77563111D02*
X112008408Y-77325016D01*
X112008408Y-77325016D02*
X112056027Y-77229778D01*
X112056027Y-77229778D02*
X112103646Y-77182159D01*
X112103646Y-77182159D02*
X112198884Y-77134540D01*
X112198884Y-77134540D02*
X112389360Y-77134540D01*
X112389360Y-77134540D02*
X112484598Y-77182159D01*
X112484598Y-77182159D02*
X112532217Y-77229778D01*
X112532217Y-77229778D02*
X112579836Y-77325016D01*
D12*
%TO.C,C2*%
X118314200Y-121984352D02*
X118314200Y-120561848D01*
X120134200Y-121984352D02*
X120134200Y-120561848D01*
%TO.C,R5*%
X102337136Y-78104500D02*
X103791264Y-78104500D01*
X102337136Y-76284500D02*
X103791264Y-76284500D01*
%TO.C,R7*%
X102844000Y-71750736D02*
X102844000Y-73204864D01*
X101024000Y-71750736D02*
X101024000Y-73204864D01*
%TO.C,R8*%
X105252100Y-71734736D02*
X105252100Y-73188864D01*
X103432100Y-71734736D02*
X103432100Y-73188864D01*
%TO.C,R21*%
X112008300Y-120877836D02*
X112008300Y-122331964D01*
X110188300Y-120877836D02*
X110188300Y-122331964D01*
%TO.C,R20*%
X92854200Y-126696264D02*
X92854200Y-125242136D01*
X91034200Y-126696264D02*
X91034200Y-125242136D01*
%TO.C,R22*%
X110305564Y-127530800D02*
X108851436Y-127530800D01*
X110305564Y-125710800D02*
X108851436Y-125710800D01*
%TO.C,R24*%
X111975100Y-137196336D02*
X111975100Y-138650464D01*
X110155100Y-137196336D02*
X110155100Y-138650464D01*
%TO.C,R10*%
X112030800Y-104096736D02*
X112030800Y-105550864D01*
X110210800Y-104096736D02*
X110210800Y-105550864D01*
%TO.C,R9*%
X92549700Y-110760264D02*
X92549700Y-109306136D01*
X90729700Y-110760264D02*
X90729700Y-109306136D01*
%TO.C,R23*%
X93359500Y-142555264D02*
X93359500Y-141101136D01*
X91539500Y-142555264D02*
X91539500Y-141101136D01*
%TO.C,R11*%
X110345464Y-111022000D02*
X108891336Y-111022000D01*
X110345464Y-109202000D02*
X108891336Y-109202000D01*
%TO.C,R25*%
X110257164Y-143804000D02*
X108803036Y-143804000D01*
X110257164Y-141984000D02*
X108803036Y-141984000D01*
%TO.C,R2*%
X119950836Y-131882200D02*
X121404964Y-131882200D01*
X119950836Y-133702200D02*
X121404964Y-133702200D01*
%TO.C,R12*%
X102123236Y-90810800D02*
X103577364Y-90810800D01*
X102123236Y-92630800D02*
X103577364Y-92630800D01*
%TO.C,R15*%
X105187500Y-87346536D02*
X105187500Y-88800664D01*
X103367500Y-87346536D02*
X103367500Y-88800664D01*
%TO.C,U7*%
X132270000Y-72654700D02*
X130320000Y-72654700D01*
X132270000Y-72654700D02*
X134220000Y-72654700D01*
X132270000Y-77774700D02*
X130320000Y-77774700D01*
X132270000Y-77774700D02*
X134220000Y-77774700D01*
X129810000Y-78009700D02*
X129330000Y-78009700D01*
X129570000Y-77679700D01*
X129810000Y-78009700D01*
G36*
X129810000Y-78009700D02*
G01*
X129330000Y-78009700D01*
X129570000Y-77679700D01*
X129810000Y-78009700D01*
G37*
%TO.C,R13*%
X108645936Y-92701000D02*
X110100064Y-92701000D01*
X108645936Y-90881000D02*
X110100064Y-90881000D01*
%TO.C,C14*%
X113899648Y-50152500D02*
X115322152Y-50152500D01*
X113899648Y-51972500D02*
X115322152Y-51972500D01*
%TO.C,R1*%
X133642036Y-57238500D02*
X135096164Y-57238500D01*
X133642036Y-59058500D02*
X135096164Y-59058500D01*
D13*
%TO.C,D9*%
X137098800Y-71596200D02*
X137098800Y-72596200D01*
X139273800Y-72946200D02*
X137273800Y-72946200D01*
X137273800Y-72946200D02*
X137273800Y-73146200D01*
X139273800Y-73146200D02*
X139273800Y-72946200D01*
X137273800Y-73146200D02*
X139273800Y-73146200D01*
D12*
%TO.C,C10*%
X81584348Y-97332000D02*
X83006852Y-97332000D01*
X81584348Y-99152000D02*
X83006852Y-99152000D01*
%TO.C,U6*%
X100502200Y-44180500D02*
X100502200Y-44425500D01*
X100502200Y-55950500D02*
X100502200Y-55705500D01*
X104362200Y-44180500D02*
X100502200Y-44180500D01*
X104362200Y-44180500D02*
X108222200Y-44180500D01*
X104362200Y-55950500D02*
X100502200Y-55950500D01*
X104362200Y-55950500D02*
X108222200Y-55950500D01*
X108222200Y-44180500D02*
X108222200Y-44425500D01*
X108222200Y-55950500D02*
X108222200Y-55705500D01*
X99989700Y-56175500D02*
X99309700Y-56175500D01*
X99649700Y-55705500D01*
X99989700Y-56175500D01*
G36*
X99989700Y-56175500D02*
G01*
X99309700Y-56175500D01*
X99649700Y-55705500D01*
X99989700Y-56175500D01*
G37*
%TO.C,R18*%
X81837400Y-91441036D02*
X81837400Y-92895164D01*
X80017400Y-91441036D02*
X80017400Y-92895164D01*
%TO.C,R19*%
X84409100Y-91441036D02*
X84409100Y-92895164D01*
X82589100Y-91441036D02*
X82589100Y-92895164D01*
%TO.C,C9*%
X102251448Y-95107000D02*
X103673952Y-95107000D01*
X102251448Y-93287000D02*
X103673952Y-93287000D01*
%TO.C,R17*%
X88908436Y-96592700D02*
X90362564Y-96592700D01*
X88908436Y-94772700D02*
X90362564Y-94772700D01*
%TO.C,R14*%
X100940300Y-87343436D02*
X100940300Y-88797564D01*
X102760300Y-87343436D02*
X102760300Y-88797564D01*
%TO.C,R16*%
X81497136Y-94908700D02*
X82951264Y-94908700D01*
X81497136Y-96728700D02*
X82951264Y-96728700D01*
%TO.C,C8*%
X102371648Y-78958400D02*
X103794152Y-78958400D01*
X102371648Y-80778400D02*
X103794152Y-80778400D01*
%TO.C,R6*%
X108563036Y-76399300D02*
X110017164Y-76399300D01*
X108563036Y-78219300D02*
X110017164Y-78219300D01*
%TD*%
%LPC*%
D14*
%TO.C,C2*%
X119224200Y-122835600D03*
X119224200Y-119710600D03*
%TD*%
D15*
%TO.C,Q2*%
X112262600Y-73695900D03*
X110992600Y-73695900D03*
D16*
X109722600Y-73695900D03*
%TD*%
D17*
%TO.C,R5*%
X104614200Y-77194500D03*
X101514200Y-77194500D03*
%TD*%
D18*
%TO.C,R7*%
X101934000Y-74027800D03*
X101934000Y-70927800D03*
%TD*%
D19*
%TO.C,U3*%
X106744000Y-72257800D03*
X106744000Y-74797800D03*
X99124000Y-74797800D03*
D20*
X99124000Y-72257800D03*
%TD*%
D18*
%TO.C,R8*%
X104342100Y-74011800D03*
X104342100Y-70911800D03*
%TD*%
%TO.C,R21*%
X111098300Y-123154900D03*
X111098300Y-120054900D03*
%TD*%
D21*
%TO.C,R20*%
X91944200Y-124419200D03*
X91944200Y-127519200D03*
%TD*%
D22*
%TO.C,R22*%
X108028500Y-126620800D03*
X111128500Y-126620800D03*
%TD*%
D18*
%TO.C,R24*%
X111065100Y-139473400D03*
X111065100Y-136373400D03*
%TD*%
%TO.C,R10*%
X111120800Y-106373800D03*
X111120800Y-103273800D03*
%TD*%
D21*
%TO.C,R9*%
X91639700Y-108483200D03*
X91639700Y-111583200D03*
%TD*%
D23*
%TO.C,D7*%
X117478700Y-125940800D03*
D24*
X102238700Y-125940800D03*
%TD*%
D25*
%TO.C,Q10*%
X104526400Y-137192300D03*
X101986400Y-137192300D03*
D26*
X99446400Y-137192300D03*
%TD*%
D27*
%TO.C,Q3*%
X96016800Y-111296400D03*
X96016800Y-110026400D03*
D28*
X96016800Y-108756400D03*
%TD*%
D29*
%TO.C,Z3*%
X100413000Y-100109900D03*
D30*
X111113000Y-100109900D03*
%TD*%
D27*
%TO.C,Q7*%
X96016800Y-127270500D03*
X96016800Y-126000500D03*
D28*
X96016800Y-124730500D03*
%TD*%
D25*
%TO.C,Q4*%
X104526400Y-105159300D03*
X101986400Y-105159300D03*
D26*
X99446400Y-105159300D03*
%TD*%
D23*
%TO.C,D4*%
X117478700Y-109921600D03*
D24*
X102238700Y-109921600D03*
%TD*%
D29*
%TO.C,Z5*%
X100413000Y-132438900D03*
D30*
X111113000Y-132438900D03*
%TD*%
D25*
%TO.C,Q8*%
X104526400Y-120739500D03*
X101986400Y-120739500D03*
D26*
X99446400Y-120739500D03*
%TD*%
D27*
%TO.C,Q9*%
X96016800Y-143281700D03*
X96016800Y-142011700D03*
D28*
X96016800Y-140741700D03*
%TD*%
D29*
%TO.C,Z4*%
X100413000Y-116028100D03*
D30*
X111113000Y-116028100D03*
%TD*%
D21*
%TO.C,R23*%
X92449500Y-140278200D03*
X92449500Y-143378200D03*
%TD*%
D23*
%TO.C,D8*%
X117478700Y-142011500D03*
D24*
X102238700Y-142011500D03*
%TD*%
D22*
%TO.C,R11*%
X108068400Y-110112000D03*
X111168400Y-110112000D03*
%TD*%
%TO.C,R25*%
X107980100Y-142894000D03*
X111080100Y-142894000D03*
%TD*%
D31*
%TO.C,Z1*%
X82028100Y-122675400D03*
X82028100Y-117595400D03*
D24*
X82028100Y-112515400D03*
%TD*%
D32*
%TO.C,D1*%
X135616800Y-85343700D03*
D33*
X133076800Y-85343700D03*
%TD*%
D19*
%TO.C,U2*%
X128302100Y-123377100D03*
X128302100Y-120837100D03*
X128302100Y-118297100D03*
X128302100Y-115757100D03*
X128302100Y-113217100D03*
X128302100Y-110677100D03*
X128302100Y-108137100D03*
X128302100Y-105597100D03*
X128302100Y-103057100D03*
X128302100Y-100517100D03*
X128302100Y-97977100D03*
X128302100Y-95437100D03*
X128302100Y-92897100D03*
X128302100Y-90357100D03*
X135922100Y-90357100D03*
X135922100Y-92897100D03*
X135922100Y-95437100D03*
X135922100Y-97977100D03*
X135922100Y-100517100D03*
X135922100Y-103057100D03*
X135922100Y-105597100D03*
X135922100Y-108137100D03*
X135922100Y-110677100D03*
X135922100Y-113217100D03*
X135922100Y-115757100D03*
X135922100Y-118297100D03*
X135922100Y-120837100D03*
D20*
X135922100Y-123377100D03*
%TD*%
D34*
%TO.C,J1*%
X123166800Y-122722100D03*
X123166800Y-120182100D03*
X123166800Y-117642100D03*
X123166800Y-115102100D03*
X123166800Y-112562100D03*
D35*
X123166800Y-110022100D03*
%TD*%
D17*
%TO.C,R2*%
X119127900Y-132792200D03*
X122227900Y-132792200D03*
%TD*%
D36*
%TO.C,S1*%
X122260500Y-135705900D03*
D37*
X122260500Y-129205900D03*
X126760500Y-135705900D03*
X126760500Y-129205900D03*
%TD*%
%TO.C,Y1*%
X122840900Y-94664800D03*
X122840900Y-99544800D03*
%TD*%
D38*
%TO.C,R28*%
X122646400Y-70894900D03*
D39*
X124546400Y-70894900D03*
%TD*%
D38*
%TO.C,R27*%
X134770000Y-79113500D03*
D39*
X136670000Y-79113500D03*
%TD*%
D40*
%TO.C,U8*%
X112120100Y-60275300D03*
D41*
X105720100Y-61525300D03*
X109220100Y-61525300D03*
X115020100Y-61525300D03*
X118520100Y-61525300D03*
X118520100Y-59025300D03*
X115020100Y-59025300D03*
X109220100Y-59025300D03*
X105720100Y-59025300D03*
%TD*%
D20*
%TO.C,U4*%
X99040300Y-86836700D03*
D19*
X99040300Y-89376700D03*
X106660300Y-89376700D03*
X106660300Y-86836700D03*
%TD*%
D40*
%TO.C,U1*%
X125731900Y-56515500D03*
D41*
X124481900Y-50115500D03*
X124481900Y-53615500D03*
X124481900Y-59415500D03*
X124481900Y-62915500D03*
X126981900Y-62915500D03*
X126981900Y-59415500D03*
X126981900Y-53615500D03*
X126981900Y-50115500D03*
%TD*%
D16*
%TO.C,Q6*%
X88895700Y-92502700D03*
D15*
X90165700Y-92502700D03*
X91435700Y-92502700D03*
%TD*%
D24*
%TO.C,Z2*%
X82709700Y-70523000D03*
D31*
X82709700Y-75603000D03*
X82709700Y-80683000D03*
%TD*%
D16*
%TO.C,Q5*%
X109609800Y-88471700D03*
D15*
X110879800Y-88471700D03*
X112149800Y-88471700D03*
%TD*%
D42*
%TO.C,D5*%
X97706700Y-94202000D03*
D43*
X107866700Y-94202000D03*
%TD*%
D35*
%TO.C,Powerboard1*%
X106618600Y-38633600D03*
D34*
X104078600Y-38633600D03*
X101538600Y-38633600D03*
%TD*%
D20*
%TO.C,U5*%
X78424200Y-90867700D03*
D19*
X78424200Y-93407700D03*
X86044200Y-93407700D03*
X86044200Y-90867700D03*
%TD*%
D37*
%TO.C,Y2*%
X86660300Y-53551100D03*
X86660300Y-58431100D03*
%TD*%
D35*
%TO.C,J2*%
X125907100Y-73924000D03*
D34*
X123367100Y-73924000D03*
%TD*%
D42*
%TO.C,D3*%
X97844000Y-79900400D03*
D43*
X108004000Y-79900400D03*
%TD*%
D44*
%TO.C,J3*%
X131552400Y-66242100D03*
D45*
X134092400Y-66242100D03*
X136632400Y-66242100D03*
X139172400Y-66242100D03*
%TD*%
D26*
%TO.C,Q1*%
X132877100Y-60498400D03*
D25*
X135417100Y-60498400D03*
X137957100Y-60498400D03*
%TD*%
D42*
%TO.C,D6*%
X77144200Y-98300100D03*
D43*
X87304200Y-98300100D03*
%TD*%
D17*
%TO.C,R12*%
X101300300Y-91720800D03*
X104400300Y-91720800D03*
%TD*%
D18*
%TO.C,R15*%
X104277500Y-86523600D03*
X104277500Y-89623600D03*
%TD*%
D46*
%TO.C,U7*%
X129795000Y-77119700D03*
X129795000Y-75849700D03*
X129795000Y-74579700D03*
X129795000Y-73309700D03*
X134745000Y-73309700D03*
X134745000Y-74579700D03*
X134745000Y-75849700D03*
X134745000Y-77119700D03*
%TD*%
D17*
%TO.C,R13*%
X107823000Y-91791000D03*
X110923000Y-91791000D03*
%TD*%
D47*
%TO.C,C14*%
X113048400Y-51062500D03*
X116173400Y-51062500D03*
%TD*%
D17*
%TO.C,R1*%
X132819100Y-58148500D03*
X135919100Y-58148500D03*
%TD*%
D48*
%TO.C,D9*%
X137623800Y-72096200D03*
X138923800Y-72096200D03*
X138273800Y-73996200D03*
%TD*%
D47*
%TO.C,C10*%
X80733100Y-98242000D03*
X83858100Y-98242000D03*
%TD*%
D49*
%TO.C,U6*%
X99712200Y-55145500D03*
X99712200Y-53875500D03*
X99712200Y-52605500D03*
X99712200Y-51335500D03*
X99712200Y-50065500D03*
X99712200Y-48795500D03*
X99712200Y-47525500D03*
X99712200Y-46255500D03*
X99712200Y-44985500D03*
X109012200Y-44985500D03*
X109012200Y-46255500D03*
X109012200Y-47525500D03*
X109012200Y-48795500D03*
X109012200Y-50065500D03*
X109012200Y-51335500D03*
X109012200Y-52605500D03*
X109012200Y-53875500D03*
X109012200Y-55145500D03*
%TD*%
D18*
%TO.C,R18*%
X80927400Y-90618100D03*
X80927400Y-93718100D03*
%TD*%
%TO.C,R19*%
X83499100Y-90618100D03*
X83499100Y-93718100D03*
%TD*%
D47*
%TO.C,C9*%
X101400200Y-94197000D03*
X104525200Y-94197000D03*
%TD*%
D17*
%TO.C,R17*%
X88085500Y-95682700D03*
X91185500Y-95682700D03*
%TD*%
D18*
%TO.C,R14*%
X101850300Y-86520500D03*
X101850300Y-89620500D03*
%TD*%
D17*
%TO.C,R16*%
X80674200Y-95818700D03*
X83774200Y-95818700D03*
%TD*%
D47*
%TO.C,C8*%
X101520400Y-79868400D03*
X104645400Y-79868400D03*
%TD*%
D17*
%TO.C,R6*%
X107740100Y-77309300D03*
X110840100Y-77309300D03*
%TD*%
%LPD*%
M02*
