%TF.GenerationSoftware,KiCad,Pcbnew,9.0.0*%
%TF.CreationDate,2025-03-14T13:06:40-07:00*%
%TF.ProjectId,AMS - CANBus - Dinger,414d5320-2d20-4434-914e-427573202d20,rev?*%
%TF.SameCoordinates,Original*%
%TF.FileFunction,Copper,L2,Bot*%
%TF.FilePolarity,Positive*%
%FSLAX46Y46*%
G04 Gerber Fmt 4.6, Leading zero omitted, Abs format (unit mm)*
G04 Created by KiCad (PCBNEW 9.0.0) date 2025-03-14 13:06:40*
%MOMM*%
%LPD*%
G01*
G04 APERTURE LIST*
G04 Aperture macros list*
%AMRoundRect*
0 Rectangle with rounded corners*
0 $1 Rounding radius*
0 $2 $3 $4 $5 $6 $7 $8 $9 X,Y pos of 4 corners*
0 Add a 4 corners polygon primitive as box body*
4,1,4,$2,$3,$4,$5,$6,$7,$8,$9,$2,$3,0*
0 Add four circle primitives for the rounded corners*
1,1,$1+$1,$2,$3*
1,1,$1+$1,$4,$5*
1,1,$1+$1,$6,$7*
1,1,$1+$1,$8,$9*
0 Add four rect primitives between the rounded corners*
20,1,$1+$1,$2,$3,$4,$5,0*
20,1,$1+$1,$4,$5,$6,$7,0*
20,1,$1+$1,$6,$7,$8,$9,0*
20,1,$1+$1,$8,$9,$2,$3,0*%
G04 Aperture macros list end*
%TA.AperFunction,SMDPad,CuDef*%
%ADD10RoundRect,0.250000X0.650000X-0.412500X0.650000X0.412500X-0.650000X0.412500X-0.650000X-0.412500X0*%
%TD*%
%TA.AperFunction,ComponentPad*%
%ADD11O,1.050000X1.500000*%
%TD*%
%TA.AperFunction,ComponentPad*%
%ADD12R,1.050000X1.500000*%
%TD*%
%TA.AperFunction,SMDPad,CuDef*%
%ADD13RoundRect,0.250000X-0.400000X-0.625000X0.400000X-0.625000X0.400000X0.625000X-0.400000X0.625000X0*%
%TD*%
%TA.AperFunction,SMDPad,CuDef*%
%ADD14RoundRect,0.250000X-0.625000X0.400000X-0.625000X-0.400000X0.625000X-0.400000X0.625000X0.400000X0*%
%TD*%
%TA.AperFunction,ComponentPad*%
%ADD15O,1.600000X1.600000*%
%TD*%
%TA.AperFunction,ComponentPad*%
%ADD16R,1.600000X1.600000*%
%TD*%
%TA.AperFunction,SMDPad,CuDef*%
%ADD17RoundRect,0.250000X0.625000X-0.400000X0.625000X0.400000X-0.625000X0.400000X-0.625000X-0.400000X0*%
%TD*%
%TA.AperFunction,SMDPad,CuDef*%
%ADD18RoundRect,0.250000X0.400000X0.625000X-0.400000X0.625000X-0.400000X-0.625000X0.400000X-0.625000X0*%
%TD*%
%TA.AperFunction,ComponentPad*%
%ADD19O,2.600000X2.600000*%
%TD*%
%TA.AperFunction,ComponentPad*%
%ADD20R,2.600000X2.600000*%
%TD*%
%TA.AperFunction,ComponentPad*%
%ADD21C,1.920000*%
%TD*%
%TA.AperFunction,ComponentPad*%
%ADD22R,1.920000X1.920000*%
%TD*%
%TA.AperFunction,ComponentPad*%
%ADD23O,1.500000X1.050000*%
%TD*%
%TA.AperFunction,ComponentPad*%
%ADD24R,1.500000X1.050000*%
%TD*%
%TA.AperFunction,ComponentPad*%
%ADD25C,1.150000*%
%TD*%
%TA.AperFunction,ComponentPad*%
%ADD26R,1.150000X1.150000*%
%TD*%
%TA.AperFunction,ComponentPad*%
%ADD27C,2.600000*%
%TD*%
%TA.AperFunction,ComponentPad*%
%ADD28C,1.800000*%
%TD*%
%TA.AperFunction,ComponentPad*%
%ADD29R,1.800000X1.800000*%
%TD*%
%TA.AperFunction,ComponentPad*%
%ADD30O,1.700000X1.700000*%
%TD*%
%TA.AperFunction,ComponentPad*%
%ADD31R,1.700000X1.700000*%
%TD*%
%TA.AperFunction,ComponentPad*%
%ADD32R,1.500000X1.500000*%
%TD*%
%TA.AperFunction,ComponentPad*%
%ADD33C,1.500000*%
%TD*%
%TA.AperFunction,ComponentPad*%
%ADD34C,1.400000*%
%TD*%
%TA.AperFunction,ComponentPad*%
%ADD35O,1.400000X1.400000*%
%TD*%
%TA.AperFunction,ComponentPad*%
%ADD36C,2.100000*%
%TD*%
%TA.AperFunction,ComponentPad*%
%ADD37R,2.200000X2.200000*%
%TD*%
%TA.AperFunction,ComponentPad*%
%ADD38O,2.200000X2.200000*%
%TD*%
%TA.AperFunction,ComponentPad*%
%ADD39RoundRect,0.249999X-0.850001X-0.850001X0.850001X-0.850001X0.850001X0.850001X-0.850001X0.850001X0*%
%TD*%
%TA.AperFunction,ComponentPad*%
%ADD40C,2.200000*%
%TD*%
%TA.AperFunction,SMDPad,CuDef*%
%ADD41RoundRect,0.150000X-0.825000X-0.150000X0.825000X-0.150000X0.825000X0.150000X-0.825000X0.150000X0*%
%TD*%
%TA.AperFunction,SMDPad,CuDef*%
%ADD42RoundRect,0.250000X-0.412500X-0.650000X0.412500X-0.650000X0.412500X0.650000X-0.412500X0.650000X0*%
%TD*%
%TA.AperFunction,SMDPad,CuDef*%
%ADD43R,0.550000X1.000000*%
%TD*%
%TA.AperFunction,SMDPad,CuDef*%
%ADD44RoundRect,0.150000X-0.875000X-0.150000X0.875000X-0.150000X0.875000X0.150000X-0.875000X0.150000X0*%
%TD*%
%TA.AperFunction,ViaPad*%
%ADD45C,0.800000*%
%TD*%
%TA.AperFunction,Conductor*%
%ADD46C,0.250000*%
%TD*%
%TA.AperFunction,Conductor*%
%ADD47C,0.381000*%
%TD*%
%TA.AperFunction,Conductor*%
%ADD48C,1.270000*%
%TD*%
G04 APERTURE END LIST*
D10*
%TO.P,C2,1*%
%TO.N,Net-(J1-Pin_6)*%
X119224200Y-122835600D03*
%TO.P,C2,2*%
%TO.N,/RESET*%
X119224200Y-119710600D03*
%TD*%
D11*
%TO.P,Q2,3,D*%
%TO.N,Net-(Q2-D)*%
X112262600Y-73695900D03*
%TO.P,Q2,2,G*%
%TO.N,Net-(D3-A)*%
X110992600Y-73695900D03*
D12*
%TO.P,Q2,1,S*%
%TO.N,GND*%
X109722600Y-73695900D03*
%TD*%
D13*
%TO.P,R5,2*%
%TO.N,Net-(D3-A)*%
X104614200Y-77194500D03*
%TO.P,R5,1*%
%TO.N,/Input/Input*%
X101514200Y-77194500D03*
%TD*%
D14*
%TO.P,R7,2*%
%TO.N,Net-(R7-Pad2)*%
X101934000Y-74027800D03*
%TO.P,R7,1*%
%TO.N,+5V*%
X101934000Y-70927800D03*
%TD*%
D15*
%TO.P,U3,4*%
%TO.N,Input1*%
X106744000Y-72257800D03*
%TO.P,U3,3*%
%TO.N,GND*%
X106744000Y-74797800D03*
%TO.P,U3,2*%
%TO.N,Net-(Q2-D)*%
X99124000Y-74797800D03*
D16*
%TO.P,U3,1*%
%TO.N,Net-(R7-Pad2)*%
X99124000Y-72257800D03*
%TD*%
D14*
%TO.P,R8,2*%
%TO.N,Input1*%
X104342100Y-74011800D03*
%TO.P,R8,1*%
%TO.N,+5V*%
X104342100Y-70911800D03*
%TD*%
%TO.P,R21,2*%
%TO.N,Net-(Q8-Pad1)*%
X111098300Y-123154900D03*
%TO.P,R21,1*%
%TO.N,+VSW*%
X111098300Y-120054900D03*
%TD*%
D17*
%TO.P,R20,2*%
%TO.N,GND*%
X91944200Y-124419200D03*
%TO.P,R20,1*%
%TO.N,Output2*%
X91944200Y-127519200D03*
%TD*%
D18*
%TO.P,R22,2*%
%TO.N,Net-(Q7-D)*%
X108028500Y-126620800D03*
%TO.P,R22,1*%
%TO.N,Net-(Q8-Pad1)*%
X111128500Y-126620800D03*
%TD*%
D14*
%TO.P,R24,2*%
%TO.N,Net-(Q10-Pad1)*%
X111065100Y-139473400D03*
%TO.P,R24,1*%
%TO.N,+VSW*%
X111065100Y-136373400D03*
%TD*%
%TO.P,R10,2*%
%TO.N,Net-(Q4-Pad1)*%
X111120800Y-106373800D03*
%TO.P,R10,1*%
%TO.N,+VSW*%
X111120800Y-103273800D03*
%TD*%
D17*
%TO.P,R9,2*%
%TO.N,GND*%
X91639700Y-108483200D03*
%TO.P,R9,1*%
%TO.N,Output1*%
X91639700Y-111583200D03*
%TD*%
D19*
%TO.P,D7,2,A*%
%TO.N,GND*%
X117478700Y-125940800D03*
D20*
%TO.P,D7,1,K*%
%TO.N,/Output1/Output*%
X102238700Y-125940800D03*
%TD*%
D21*
%TO.P,Q10,3*%
%TO.N,+VSW*%
X104526400Y-137192300D03*
%TO.P,Q10,2*%
%TO.N,/Output2/Output*%
X101986400Y-137192300D03*
D22*
%TO.P,Q10,1*%
%TO.N,Net-(Q10-Pad1)*%
X99446400Y-137192300D03*
%TD*%
D23*
%TO.P,Q3,3,D*%
%TO.N,Net-(Q3-D)*%
X96016800Y-111296400D03*
%TO.P,Q3,2,G*%
%TO.N,Output1*%
X96016800Y-110026400D03*
D24*
%TO.P,Q3,1,S*%
%TO.N,GND*%
X96016800Y-108756400D03*
%TD*%
D25*
%TO.P,Z3,2*%
%TO.N,Net-(Q4-Pad1)*%
X100413000Y-100109900D03*
D26*
%TO.P,Z3,1*%
%TO.N,+VSW*%
X111113000Y-100109900D03*
%TD*%
D23*
%TO.P,Q7,3,D*%
%TO.N,Net-(Q7-D)*%
X96016800Y-127270500D03*
%TO.P,Q7,2,G*%
%TO.N,Output2*%
X96016800Y-126000500D03*
D24*
%TO.P,Q7,1,S*%
%TO.N,GND*%
X96016800Y-124730500D03*
%TD*%
D21*
%TO.P,Q4,3*%
%TO.N,+VSW*%
X104526400Y-105159300D03*
%TO.P,Q4,2*%
%TO.N,/Output/Output*%
X101986400Y-105159300D03*
D22*
%TO.P,Q4,1*%
%TO.N,Net-(Q4-Pad1)*%
X99446400Y-105159300D03*
%TD*%
D19*
%TO.P,D4,2,A*%
%TO.N,GND*%
X117478700Y-109921600D03*
D20*
%TO.P,D4,1,K*%
%TO.N,/Output/Output*%
X102238700Y-109921600D03*
%TD*%
D25*
%TO.P,Z5,2*%
%TO.N,Net-(Q10-Pad1)*%
X100413000Y-132438900D03*
D26*
%TO.P,Z5,1*%
%TO.N,+VSW*%
X111113000Y-132438900D03*
%TD*%
D21*
%TO.P,Q8,3*%
%TO.N,+VSW*%
X104526400Y-120739500D03*
%TO.P,Q8,2*%
%TO.N,/Output1/Output*%
X101986400Y-120739500D03*
D22*
%TO.P,Q8,1*%
%TO.N,Net-(Q8-Pad1)*%
X99446400Y-120739500D03*
%TD*%
D23*
%TO.P,Q9,3,D*%
%TO.N,Net-(Q9-D)*%
X96016800Y-143281700D03*
%TO.P,Q9,2,G*%
%TO.N,Output3*%
X96016800Y-142011700D03*
D24*
%TO.P,Q9,1,S*%
%TO.N,GND*%
X96016800Y-140741700D03*
%TD*%
D25*
%TO.P,Z4,2*%
%TO.N,Net-(Q8-Pad1)*%
X100413000Y-116028100D03*
D26*
%TO.P,Z4,1*%
%TO.N,+VSW*%
X111113000Y-116028100D03*
%TD*%
D17*
%TO.P,R23,2*%
%TO.N,GND*%
X92449500Y-140278200D03*
%TO.P,R23,1*%
%TO.N,Output3*%
X92449500Y-143378200D03*
%TD*%
D19*
%TO.P,D8,2,A*%
%TO.N,GND*%
X117478700Y-142011500D03*
D20*
%TO.P,D8,1,K*%
%TO.N,/Output2/Output*%
X102238700Y-142011500D03*
%TD*%
D18*
%TO.P,R11,2*%
%TO.N,Net-(Q3-D)*%
X108068400Y-110112000D03*
%TO.P,R11,1*%
%TO.N,Net-(Q4-Pad1)*%
X111168400Y-110112000D03*
%TD*%
%TO.P,R25,2*%
%TO.N,Net-(Q9-D)*%
X107980100Y-142894000D03*
%TO.P,R25,1*%
%TO.N,Net-(Q10-Pad1)*%
X111080100Y-142894000D03*
%TD*%
D27*
%TO.P,Z1,3,Pin_3*%
%TO.N,/Output2/Output*%
X82028100Y-122675400D03*
%TO.P,Z1,2,Pin_2*%
%TO.N,/Output1/Output*%
X82028100Y-117595400D03*
D20*
%TO.P,Z1,1,Pin_1*%
%TO.N,/Output/Output*%
X82028100Y-112515400D03*
%TD*%
D28*
%TO.P,D1,2,A*%
%TO.N,LED*%
X135616800Y-85343700D03*
D29*
%TO.P,D1,1,K*%
%TO.N,Net-(D1-K)*%
X133076800Y-85343700D03*
%TD*%
D15*
%TO.P,U2,28,PC5*%
%TO.N,unconnected-(U2-PC5-Pad28)*%
X128302100Y-123377100D03*
%TO.P,U2,27,PC4*%
%TO.N,unconnected-(U2-PC4-Pad27)*%
X128302100Y-120837100D03*
%TO.P,U2,26,PC3*%
%TO.N,unconnected-(U2-PC3-Pad26)*%
X128302100Y-118297100D03*
%TO.P,U2,25,PC2*%
%TO.N,unconnected-(U2-PC2-Pad25)*%
X128302100Y-115757100D03*
%TO.P,U2,24,PC1*%
%TO.N,unconnected-(U2-PC1-Pad24)*%
X128302100Y-113217100D03*
%TO.P,U2,23,PC0*%
%TO.N,unconnected-(U2-PC0-Pad23)*%
X128302100Y-110677100D03*
%TO.P,U2,22,GND*%
%TO.N,GND*%
X128302100Y-108137100D03*
%TO.P,U2,21,AREF*%
%TO.N,+5V*%
X128302100Y-105597100D03*
%TO.P,U2,20,AVCC*%
X128302100Y-103057100D03*
%TO.P,U2,19,PB5*%
%TO.N,SCK*%
X128302100Y-100517100D03*
%TO.P,U2,18,PB4*%
%TO.N,MISO*%
X128302100Y-97977100D03*
%TO.P,U2,17,PB3*%
%TO.N,MOSI*%
X128302100Y-95437100D03*
%TO.P,U2,16,PB2*%
%TO.N,D10*%
X128302100Y-92897100D03*
%TO.P,U2,15,PB1*%
%TO.N,Output3*%
X128302100Y-90357100D03*
%TO.P,U2,14,PB0*%
%TO.N,D8*%
X135922100Y-90357100D03*
%TO.P,U2,13,PD7*%
%TO.N,LED*%
X135922100Y-92897100D03*
%TO.P,U2,12,PD6*%
%TO.N,Output2*%
X135922100Y-95437100D03*
%TO.P,U2,11,PD5*%
%TO.N,Output1*%
X135922100Y-97977100D03*
%TO.P,U2,10,XTAL2/PB7*%
%TO.N,Net-(U2-XTAL2{slash}PB7)*%
X135922100Y-100517100D03*
%TO.P,U2,9,XTAL1/PB6*%
%TO.N,Net-(U2-XTAL1{slash}PB6)*%
X135922100Y-103057100D03*
%TO.P,U2,8,GND*%
%TO.N,GND*%
X135922100Y-105597100D03*
%TO.P,U2,7,VCC*%
%TO.N,+5V*%
X135922100Y-108137100D03*
%TO.P,U2,6,PD4*%
%TO.N,Input2*%
X135922100Y-110677100D03*
%TO.P,U2,5,PD3*%
%TO.N,Input1*%
X135922100Y-113217100D03*
%TO.P,U2,4,PD2*%
%TO.N,Input3*%
X135922100Y-115757100D03*
%TO.P,U2,3,PD1*%
%TO.N,TXttl*%
X135922100Y-118297100D03*
%TO.P,U2,2,PD0*%
%TO.N,RXttl*%
X135922100Y-120837100D03*
D16*
%TO.P,U2,1,~{RESET}/PC6*%
%TO.N,Reset*%
X135922100Y-123377100D03*
%TD*%
D30*
%TO.P,J1,6,Pin_6*%
%TO.N,Net-(J1-Pin_6)*%
X123166800Y-122722100D03*
%TO.P,J1,5,Pin_5*%
%TO.N,TXttl*%
X123166800Y-120182100D03*
%TO.P,J1,4,Pin_4*%
%TO.N,RXttl*%
X123166800Y-117642100D03*
%TO.P,J1,3,Pin_3*%
%TO.N,+5V*%
X123166800Y-115102100D03*
%TO.P,J1,2,Pin_2*%
%TO.N,unconnected-(J1-Pin_2-Pad2)*%
X123166800Y-112562100D03*
D31*
%TO.P,J1,1,Pin_1*%
%TO.N,GND*%
X123166800Y-110022100D03*
%TD*%
D13*
%TO.P,R2,1*%
%TO.N,+5V*%
X119127900Y-132792200D03*
%TO.P,R2,2*%
%TO.N,Reset*%
X122227900Y-132792200D03*
%TD*%
D32*
%TO.P,S1,1,NO_1*%
%TO.N,Reset*%
X122260500Y-135705900D03*
D33*
%TO.P,S1,2,NO_2*%
%TO.N,unconnected-(S1-NO_2-Pad2)*%
X122260500Y-129205900D03*
%TO.P,S1,3,COM_1*%
%TO.N,GND*%
X126760500Y-135705900D03*
%TO.P,S1,4,COM_2*%
%TO.N,unconnected-(S1-COM_2-Pad4)*%
X126760500Y-129205900D03*
%TD*%
%TO.P,Y1,2,2*%
%TO.N,Net-(U2-XTAL2{slash}PB7)*%
X122840900Y-94664800D03*
%TO.P,Y1,1,1*%
%TO.N,Net-(U2-XTAL1{slash}PB6)*%
X122840900Y-99544800D03*
%TD*%
D34*
%TO.P,R28,1*%
%TO.N,Net-(J2-Pin_2)*%
X122646400Y-70894900D03*
D35*
%TO.P,R28,2*%
%TO.N,CANBUS_L*%
X124546400Y-70894900D03*
%TD*%
D34*
%TO.P,R27,1*%
%TO.N,Net-(U7-Rs)*%
X134770000Y-79113500D03*
D35*
%TO.P,R27,2*%
%TO.N,GND*%
X136670000Y-79113500D03*
%TD*%
D36*
%TO.P,U8,1,1*%
%TO.N,+VSW*%
X105720100Y-61525300D03*
%TO.P,U8,2,2*%
X109220100Y-61525300D03*
%TO.P,U8,3,3*%
%TO.N,Net-(Q1-Pad3)*%
X115020100Y-61525300D03*
%TO.P,U8,4,4*%
X118520100Y-61525300D03*
%TO.P,U8,5,5*%
X118520100Y-59025300D03*
%TO.P,U8,6,6*%
X115020100Y-59025300D03*
%TO.P,U8,7,7*%
%TO.N,+VSW*%
X109220100Y-59025300D03*
%TO.P,U8,8,8*%
X105720100Y-59025300D03*
%TD*%
D16*
%TO.P,U4,1*%
%TO.N,Net-(R14-Pad2)*%
X99040300Y-86836700D03*
D15*
%TO.P,U4,2*%
%TO.N,Net-(Q5-D)*%
X99040300Y-89376700D03*
%TO.P,U4,3*%
%TO.N,GND*%
X106660300Y-89376700D03*
%TO.P,U4,4*%
%TO.N,Input2*%
X106660300Y-86836700D03*
%TD*%
D36*
%TO.P,U1,1,1*%
%TO.N,+VDC*%
X124481900Y-50115500D03*
%TO.P,U1,2,2*%
X124481900Y-53615500D03*
%TO.P,U1,3,3*%
%TO.N,Net-(Q1-Pad3)*%
X124481900Y-59415500D03*
%TO.P,U1,4,4*%
X124481900Y-62915500D03*
%TO.P,U1,5,5*%
X126981900Y-62915500D03*
%TO.P,U1,6,6*%
X126981900Y-59415500D03*
%TO.P,U1,7,7*%
%TO.N,+VDC*%
X126981900Y-53615500D03*
%TO.P,U1,8,8*%
X126981900Y-50115500D03*
%TD*%
D12*
%TO.P,Q6,1,S*%
%TO.N,GND*%
X88895700Y-92502700D03*
D11*
%TO.P,Q6,2,G*%
%TO.N,Net-(D6-A)*%
X90165700Y-92502700D03*
%TO.P,Q6,3,D*%
%TO.N,Net-(Q6-D)*%
X91435700Y-92502700D03*
%TD*%
D20*
%TO.P,Z2,1,Pin_1*%
%TO.N,/Input/Input*%
X82709700Y-70523000D03*
D27*
%TO.P,Z2,2,Pin_2*%
%TO.N,/Input1/Input*%
X82709700Y-75603000D03*
%TO.P,Z2,3,Pin_3*%
%TO.N,/Input2/Input*%
X82709700Y-80683000D03*
%TD*%
D12*
%TO.P,Q5,1,S*%
%TO.N,GND*%
X109609800Y-88471700D03*
D11*
%TO.P,Q5,2,G*%
%TO.N,Net-(D5-A)*%
X110879800Y-88471700D03*
%TO.P,Q5,3,D*%
%TO.N,Net-(Q5-D)*%
X112149800Y-88471700D03*
%TD*%
D37*
%TO.P,D5,1,K*%
%TO.N,/Input1/Input*%
X97706700Y-94202000D03*
D38*
%TO.P,D5,2,A*%
%TO.N,Net-(D5-A)*%
X107866700Y-94202000D03*
%TD*%
D31*
%TO.P,Powerboard1,1,Pin_1*%
%TO.N,+VDC*%
X106618600Y-38633600D03*
D30*
%TO.P,Powerboard1,2,Pin_2*%
%TO.N,+5V*%
X104078600Y-38633600D03*
%TO.P,Powerboard1,3,Pin_3*%
%TO.N,GND*%
X101538600Y-38633600D03*
%TD*%
D16*
%TO.P,U5,1*%
%TO.N,Net-(R18-Pad2)*%
X78424200Y-90867700D03*
D15*
%TO.P,U5,2*%
%TO.N,Net-(Q6-D)*%
X78424200Y-93407700D03*
%TO.P,U5,3*%
%TO.N,GND*%
X86044200Y-93407700D03*
%TO.P,U5,4*%
%TO.N,Input3*%
X86044200Y-90867700D03*
%TD*%
D33*
%TO.P,Y2,1,1*%
%TO.N,Net-(U6-OSC1)*%
X86660300Y-53551100D03*
%TO.P,Y2,2,2*%
%TO.N,Net-(U6-OSC2)*%
X86660300Y-58431100D03*
%TD*%
D31*
%TO.P,J2,1,Pin_1*%
%TO.N,CANBUS_H*%
X125907100Y-73924000D03*
D30*
%TO.P,J2,2,Pin_2*%
%TO.N,Net-(J2-Pin_2)*%
X123367100Y-73924000D03*
%TD*%
D37*
%TO.P,D3,1,K*%
%TO.N,/Input/Input*%
X97844000Y-79900400D03*
D38*
%TO.P,D3,2,A*%
%TO.N,Net-(D3-A)*%
X108004000Y-79900400D03*
%TD*%
D39*
%TO.P,J3,1,Pin_1*%
%TO.N,Net-(J3-Pin_1)*%
X131552400Y-66242100D03*
D40*
%TO.P,J3,2,Pin_2*%
%TO.N,GND*%
X134092400Y-66242100D03*
%TO.P,J3,3,Pin_3*%
%TO.N,CANBUS_H*%
X136632400Y-66242100D03*
%TO.P,J3,4,Pin_4*%
%TO.N,CANBUS_L*%
X139172400Y-66242100D03*
%TD*%
D22*
%TO.P,Q1,1*%
%TO.N,Net-(Q1-Pad1)*%
X132877100Y-60498400D03*
D21*
%TO.P,Q1,2*%
%TO.N,Net-(J3-Pin_1)*%
X135417100Y-60498400D03*
%TO.P,Q1,3*%
%TO.N,Net-(Q1-Pad3)*%
X137957100Y-60498400D03*
%TD*%
D37*
%TO.P,D6,1,K*%
%TO.N,/Input2/Input*%
X77144200Y-98300100D03*
D38*
%TO.P,D6,2,A*%
%TO.N,Net-(D6-A)*%
X87304200Y-98300100D03*
%TD*%
D13*
%TO.P,R12,1*%
%TO.N,/Input1/Input*%
X101300300Y-91720800D03*
%TO.P,R12,2*%
%TO.N,Net-(D5-A)*%
X104400300Y-91720800D03*
%TD*%
D14*
%TO.P,R15,1*%
%TO.N,+5V*%
X104277500Y-86523600D03*
%TO.P,R15,2*%
%TO.N,Input2*%
X104277500Y-89623600D03*
%TD*%
D41*
%TO.P,U7,1,TXD*%
%TO.N,/CANBUS-MCP2515/TXtoCANTC*%
X129795000Y-77119700D03*
%TO.P,U7,2,VSS*%
%TO.N,GND*%
X129795000Y-75849700D03*
%TO.P,U7,3,VDD*%
%TO.N,+5V*%
X129795000Y-74579700D03*
%TO.P,U7,4,RXD*%
%TO.N,/CANBUS-MCP2515/RXtoCANTC*%
X129795000Y-73309700D03*
%TO.P,U7,5,Vref*%
%TO.N,unconnected-(U7-Vref-Pad5)*%
X134745000Y-73309700D03*
%TO.P,U7,6,CANL*%
%TO.N,CANBUS_L*%
X134745000Y-74579700D03*
%TO.P,U7,7,CANH*%
%TO.N,CANBUS_H*%
X134745000Y-75849700D03*
%TO.P,U7,8,Rs*%
%TO.N,Net-(U7-Rs)*%
X134745000Y-77119700D03*
%TD*%
D13*
%TO.P,R13,1*%
%TO.N,Net-(D5-A)*%
X107823000Y-91791000D03*
%TO.P,R13,2*%
%TO.N,GND*%
X110923000Y-91791000D03*
%TD*%
D42*
%TO.P,C14,1*%
%TO.N,+5V*%
X113048400Y-51062500D03*
%TO.P,C14,2*%
%TO.N,GND*%
X116173400Y-51062500D03*
%TD*%
D13*
%TO.P,R1,1*%
%TO.N,Net-(Q1-Pad1)*%
X132819100Y-58148500D03*
%TO.P,R1,2*%
%TO.N,GND*%
X135919100Y-58148500D03*
%TD*%
D43*
%TO.P,D9,1,CATHODE_1*%
%TO.N,CANBUS_H*%
X137623800Y-72096200D03*
%TO.P,D9,2,CATHODE_2*%
%TO.N,CANBUS_L*%
X138923800Y-72096200D03*
%TO.P,D9,3,COMMON_ANODE*%
%TO.N,GND*%
X138273800Y-73996200D03*
%TD*%
D42*
%TO.P,C10,1*%
%TO.N,/Input2/Input*%
X80733100Y-98242000D03*
%TO.P,C10,2*%
%TO.N,GND*%
X83858100Y-98242000D03*
%TD*%
D44*
%TO.P,U6,1,TXCAN*%
%TO.N,/CANBUS-MCP2515/TXtoCANTC*%
X99712200Y-55145500D03*
%TO.P,U6,2,RXCAN*%
%TO.N,/CANBUS-MCP2515/RXtoCANTC*%
X99712200Y-53875500D03*
%TO.P,U6,3,CLKOUT/SOF*%
%TO.N,unconnected-(U6-CLKOUT{slash}SOF-Pad3)*%
X99712200Y-52605500D03*
%TO.P,U6,4,~{TX0RTS}*%
%TO.N,unconnected-(U6-~{TX0RTS}-Pad4)*%
X99712200Y-51335500D03*
%TO.P,U6,5,~{TX1RTS}*%
%TO.N,unconnected-(U6-~{TX1RTS}-Pad5)*%
X99712200Y-50065500D03*
%TO.P,U6,6,~{TX2RTS}*%
%TO.N,unconnected-(U6-~{TX2RTS}-Pad6)*%
X99712200Y-48795500D03*
%TO.P,U6,7,OSC2*%
%TO.N,Net-(U6-OSC2)*%
X99712200Y-47525500D03*
%TO.P,U6,8,OSC1*%
%TO.N,Net-(U6-OSC1)*%
X99712200Y-46255500D03*
%TO.P,U6,9,VSS*%
%TO.N,GND*%
X99712200Y-44985500D03*
%TO.P,U6,10,~{RX1BF}*%
%TO.N,unconnected-(U6-~{RX1BF}-Pad10)*%
X109012200Y-44985500D03*
%TO.P,U6,11,~{RX0BF}*%
%TO.N,unconnected-(U6-~{RX0BF}-Pad11)*%
X109012200Y-46255500D03*
%TO.P,U6,12,~{INT}*%
%TO.N,D8*%
X109012200Y-47525500D03*
%TO.P,U6,13,SCK*%
%TO.N,SCK*%
X109012200Y-48795500D03*
%TO.P,U6,14,SI*%
%TO.N,MOSI*%
X109012200Y-50065500D03*
%TO.P,U6,15,SO*%
%TO.N,MISO*%
X109012200Y-51335500D03*
%TO.P,U6,16,~{CS}*%
%TO.N,D10*%
X109012200Y-52605500D03*
%TO.P,U6,17,~{RESET}*%
%TO.N,Net-(U6-~{RESET})*%
X109012200Y-53875500D03*
%TO.P,U6,18,VDD*%
%TO.N,+5V*%
X109012200Y-55145500D03*
%TD*%
D14*
%TO.P,R18,1*%
%TO.N,+5V*%
X80927400Y-90618100D03*
%TO.P,R18,2*%
%TO.N,Net-(R18-Pad2)*%
X80927400Y-93718100D03*
%TD*%
%TO.P,R19,1*%
%TO.N,+5V*%
X83499100Y-90618100D03*
%TO.P,R19,2*%
%TO.N,Input3*%
X83499100Y-93718100D03*
%TD*%
D42*
%TO.P,C9,1*%
%TO.N,/Input1/Input*%
X101400200Y-94197000D03*
%TO.P,C9,2*%
%TO.N,GND*%
X104525200Y-94197000D03*
%TD*%
D13*
%TO.P,R17,1*%
%TO.N,Net-(D6-A)*%
X88085500Y-95682700D03*
%TO.P,R17,2*%
%TO.N,GND*%
X91185500Y-95682700D03*
%TD*%
D14*
%TO.P,R14,1*%
%TO.N,+5V*%
X101850300Y-86520500D03*
%TO.P,R14,2*%
%TO.N,Net-(R14-Pad2)*%
X101850300Y-89620500D03*
%TD*%
D13*
%TO.P,R16,1*%
%TO.N,/Input2/Input*%
X80674200Y-95818700D03*
%TO.P,R16,2*%
%TO.N,Net-(D6-A)*%
X83774200Y-95818700D03*
%TD*%
D42*
%TO.P,C8,1*%
%TO.N,/Input/Input*%
X101520400Y-79868400D03*
%TO.P,C8,2*%
%TO.N,GND*%
X104645400Y-79868400D03*
%TD*%
D13*
%TO.P,R6,1*%
%TO.N,Net-(D3-A)*%
X107740100Y-77309300D03*
%TO.P,R6,2*%
%TO.N,GND*%
X110840100Y-77309300D03*
%TD*%
D45*
%TO.N,D10*%
X103689356Y-52605500D03*
%TO.N,MOSI*%
X119182400Y-63947700D03*
%TO.N,D10*%
X117475528Y-68837223D03*
X118804433Y-81946381D03*
X124373410Y-81933039D03*
X127528874Y-83820991D03*
%TO.N,+VSW*%
X111065000Y-136373000D03*
X111121000Y-103274000D03*
X111098000Y-120055000D03*
%TO.N,/CANBUS-MCP2515/TXtoCANTC*%
X117816600Y-65706900D03*
X120887400Y-76656500D03*
%TO.N,/CANBUS-MCP2515/RXtoCANTC*%
X117806200Y-66730800D03*
X120160600Y-72081400D03*
%TO.N,Net-(U6-~{RESET})*%
X116188000Y-53475500D03*
%TO.N,CANBUS_H*%
X137624000Y-72096200D03*
X134745000Y-75849700D03*
%TO.N,Net-(D6-A)*%
X83774200Y-95818700D03*
%TO.N,Net-(D5-A)*%
X104400000Y-91720800D03*
%TO.N,Net-(U6-OSC1)*%
X85188900Y-48693700D03*
%TO.N,Net-(U6-OSC2)*%
X88204100Y-63342200D03*
%TO.N,SCK*%
X108150400Y-57083000D03*
X121692700Y-57083000D03*
X121721800Y-66026500D03*
X124054100Y-85987600D03*
%TO.N,MISO*%
X117116000Y-67457500D03*
X123144900Y-88386000D03*
%TO.N,MOSI*%
X128451400Y-71707600D03*
%TO.N,D8*%
X115748929Y-63992400D03*
X132616500Y-75034500D03*
%TO.N,Input3*%
X116229000Y-108222800D03*
X118743600Y-108222800D03*
%TO.N,Input2*%
X116222700Y-101766200D03*
X118727300Y-103029300D03*
%TO.N,Output1*%
X116231300Y-117274100D03*
%TO.N,Input1*%
X118722600Y-69249100D03*
%TO.N,Net-(D3-A)*%
X104614000Y-77194500D03*
%TO.N,+5V*%
X101850000Y-86520500D03*
X81142800Y-90618100D03*
X101934000Y-70927800D03*
X109012000Y-55145500D03*
X129795000Y-74579700D03*
X113003000Y-51027600D03*
X113088000Y-53475500D03*
X122700800Y-57974200D03*
X123551500Y-68029700D03*
%TO.N,GND*%
X88313900Y-48693700D03*
X114862100Y-51026000D03*
%TO.N,D10*%
X109012200Y-52605500D03*
%TD*%
D46*
%TO.N,D10*%
X119102399Y-65553517D02*
X119102399Y-67210352D01*
X118267282Y-64718400D02*
X119102399Y-65553517D01*
X105936293Y-64718400D02*
X118267282Y-64718400D01*
X103646110Y-62428217D02*
X105936293Y-64718400D01*
X119102399Y-67210352D02*
X117475528Y-68837223D01*
X103689356Y-52605500D02*
X103646110Y-52648746D01*
X103646110Y-52648746D02*
X103646110Y-62428217D01*
%TO.N,/CANBUS-MCP2515/TXtoCANTC*%
X99712200Y-55145500D02*
X99712200Y-60153205D01*
X99712200Y-60153205D02*
X105265895Y-65706900D01*
X105265895Y-65706900D02*
X117816600Y-65706900D01*
%TO.N,/CANBUS-MCP2515/RXtoCANTC*%
X98339300Y-54767900D02*
X99231700Y-53875500D01*
X105594128Y-66730800D02*
X98339300Y-59475972D01*
X98339300Y-59475972D02*
X98339300Y-54767900D01*
X117806200Y-66730800D02*
X105594128Y-66730800D01*
%TO.N,MISO*%
X110407300Y-50446900D02*
X109518700Y-51335500D01*
X110407300Y-49649200D02*
X110407300Y-50446900D01*
X110408800Y-49647700D02*
X110407300Y-49649200D01*
X110408800Y-47184500D02*
X110408800Y-49647700D01*
X105462600Y-46890600D02*
X110114900Y-46890600D01*
X110114900Y-46890600D02*
X110408800Y-47184500D01*
X101652700Y-50700500D02*
X105462600Y-46890600D01*
X97887600Y-59719939D02*
X97887600Y-51447500D01*
X97887600Y-51447500D02*
X98634600Y-50700500D01*
X98634600Y-50700500D02*
X101652700Y-50700500D01*
X105625161Y-67457500D02*
X97887600Y-59719939D01*
X117116000Y-67457500D02*
X105625161Y-67457500D01*
%TO.N,D8*%
X106677900Y-56956600D02*
X106677900Y-49353300D01*
X107181200Y-57459900D02*
X106677900Y-56956600D01*
X106677900Y-49353300D02*
X108505700Y-47525500D01*
X109700900Y-63992400D02*
X107181200Y-61472700D01*
X115748929Y-63992400D02*
X109700900Y-63992400D01*
X107181200Y-61472700D02*
X107181200Y-57459900D01*
%TO.N,D10*%
X118817775Y-81933039D02*
X118804433Y-81946381D01*
X124373410Y-81933039D02*
X118817775Y-81933039D01*
X130423026Y-86715143D02*
X127528874Y-83820991D01*
X130423026Y-90776174D02*
X130423026Y-89206463D01*
X130423026Y-89206463D02*
X130423026Y-86715143D01*
X128302100Y-92897100D02*
X130423026Y-90776174D01*
%TO.N,+VSW*%
X110413500Y-120739500D02*
X110755800Y-120397200D01*
X104526400Y-120739500D02*
X110413500Y-120739500D01*
%TO.N,/CANBUS-MCP2515/TXtoCANTC*%
X121350600Y-77119700D02*
X120887400Y-76656500D01*
X129795000Y-77119700D02*
X121350600Y-77119700D01*
%TO.N,/CANBUS-MCP2515/RXtoCANTC*%
X120794600Y-72715400D02*
X120160600Y-72081400D01*
X129200700Y-72715400D02*
X120794600Y-72715400D01*
X129795000Y-73309700D02*
X129200700Y-72715400D01*
%TO.N,Net-(U7-Rs)*%
X134770000Y-77144700D02*
X134770000Y-79113500D01*
D47*
%TO.N,Net-(U6-~{RESET})*%
X110759000Y-53875500D02*
X109012200Y-53875500D01*
X112960000Y-56077100D02*
X110759000Y-53875500D01*
X115398000Y-56077100D02*
X112960000Y-56077100D01*
X116188000Y-55286900D02*
X115398000Y-56077100D01*
X116188000Y-53475500D02*
X116188000Y-55286900D01*
%TO.N,Net-(R18-Pad2)*%
X80927400Y-93370900D02*
X78424200Y-90867700D01*
%TO.N,Net-(R14-Pad2)*%
X101824000Y-89620500D02*
X99040300Y-86836700D01*
%TO.N,Net-(R7-Pad2)*%
X100894000Y-74027800D02*
X99124000Y-72257800D01*
X101934000Y-74027800D02*
X100894000Y-74027800D01*
%TO.N,Net-(Q7-D)*%
X96764600Y-128018000D02*
X96016800Y-127270000D01*
D46*
X96660400Y-128122200D02*
X96016800Y-128122200D01*
X96764600Y-128018000D02*
X96660400Y-128122200D01*
X96016800Y-127270500D02*
X96016800Y-128122200D01*
D47*
X108029000Y-126621000D02*
X106956000Y-127693500D01*
X97512400Y-128766000D02*
X96764600Y-128018000D01*
X105883000Y-128766000D02*
X97512400Y-128766000D01*
X106956000Y-127693500D02*
X105883000Y-128766000D01*
D46*
X106956000Y-127693500D02*
X108028500Y-126621000D01*
D47*
%TO.N,Net-(Q4-Pad1)*%
X111168000Y-110112000D02*
X111168000Y-106421000D01*
X99446400Y-101077000D02*
X100413000Y-100110000D01*
X99446400Y-105159000D02*
X99446400Y-101077000D01*
D46*
X100784500Y-106497400D02*
X110997200Y-106497400D01*
X99446400Y-105159300D02*
X100784500Y-106497400D01*
D47*
%TO.N,Net-(Q3-D)*%
X96884300Y-112163500D02*
X96016800Y-111296000D01*
D46*
X96868500Y-112148100D02*
X96016800Y-112148100D01*
X96883900Y-112163500D02*
X96868500Y-112148100D01*
X96884300Y-112163500D02*
X96883900Y-112163500D01*
X96016800Y-111296400D02*
X96016800Y-112148100D01*
D47*
X108068000Y-110112000D02*
X106608500Y-111571500D01*
X97751700Y-113031000D02*
X96884300Y-112163500D01*
X105149000Y-113031000D02*
X97751700Y-113031000D01*
X106608500Y-111571500D02*
X105149000Y-113031000D01*
D46*
X106608900Y-111571500D02*
X108068400Y-110112000D01*
X106608500Y-111571500D02*
X106608900Y-111571500D01*
%TO.N,Net-(Q1-Pad1)*%
X132819100Y-59153700D02*
X132819100Y-58148500D01*
X132877100Y-59211700D02*
X132819100Y-59153700D01*
X132877100Y-60498400D02*
X132877100Y-59211700D01*
D47*
%TO.N,Net-(D6-A)*%
X88085500Y-97518800D02*
X87304200Y-98300100D01*
X88085500Y-95682700D02*
X88085500Y-97518800D01*
%TO.N,Net-(D5-A)*%
X107867000Y-94202000D02*
X107867000Y-93277200D01*
X107867000Y-93277200D02*
X107867000Y-91834700D01*
%TO.N,Net-(U6-OSC1)*%
X97052100Y-46255500D02*
X99712200Y-46255500D01*
X89756500Y-53551100D02*
X97052100Y-46255500D01*
X86660300Y-53551100D02*
X89756500Y-53551100D01*
X85188900Y-52079600D02*
X86660300Y-53551100D01*
X85188900Y-48693700D02*
X85188900Y-52079600D01*
%TO.N,Net-(U6-OSC2)*%
X88204100Y-59974900D02*
X86660300Y-58431100D01*
X88204100Y-63342200D02*
X88204100Y-59974900D01*
X97565900Y-47525500D02*
X99712200Y-47525500D01*
X86660300Y-58431100D02*
X97565900Y-47525500D01*
D46*
%TO.N,Net-(U2-XTAL2{slash}PB7)*%
X135922100Y-100517100D02*
X134795400Y-100517100D01*
X127565000Y-99388900D02*
X122840900Y-94664800D01*
X133667200Y-99388900D02*
X127565000Y-99388900D01*
X134795400Y-100517100D02*
X133667200Y-99388900D01*
%TO.N,Net-(U2-XTAL1{slash}PB6)*%
X135922100Y-103057100D02*
X134795400Y-103057100D01*
X125225000Y-101928900D02*
X122840900Y-99544800D01*
X133667200Y-101928900D02*
X125225000Y-101928900D01*
X134795400Y-103057100D02*
X133667200Y-101928900D01*
%TO.N,Net-(J1-Pin_6)*%
X123166800Y-122722100D02*
X119337700Y-122722100D01*
%TO.N,SCK*%
X121717000Y-88324700D02*
X124054100Y-85987600D01*
X121717000Y-95063800D02*
X121717000Y-88324700D01*
X127170300Y-100517100D02*
X121717000Y-95063800D01*
X128302100Y-100517100D02*
X127170300Y-100517100D01*
X121721800Y-57112100D02*
X121692700Y-57083000D01*
X121721800Y-66026500D02*
X121721800Y-57112100D01*
X107159400Y-56092000D02*
X108150400Y-57083000D01*
X107159400Y-50163100D02*
X107159400Y-56092000D01*
X108527000Y-48795500D02*
X107159400Y-50163100D01*
%TO.N,MISO*%
X128302100Y-97977100D02*
X128302100Y-96850400D01*
X123144900Y-91974900D02*
X123144900Y-88386000D01*
X128020400Y-96850400D02*
X123144900Y-91974900D01*
X128302100Y-96850400D02*
X128020400Y-96850400D01*
%TO.N,MOSI*%
X128302100Y-95437100D02*
X128302100Y-94310400D01*
X129920200Y-71707600D02*
X128451400Y-71707600D01*
X131567100Y-73354500D02*
X129920200Y-71707600D01*
X131567100Y-91263000D02*
X131567100Y-73354500D01*
X128519700Y-94310400D02*
X131567100Y-91263000D01*
X128302100Y-94310400D02*
X128519700Y-94310400D01*
%TO.N,D8*%
X134346700Y-87655000D02*
X135922100Y-89230400D01*
X134346700Y-82128000D02*
X134346700Y-87655000D01*
X132616500Y-80397800D02*
X134346700Y-82128000D01*
X132616500Y-75034500D02*
X132616500Y-80397800D01*
X135922100Y-90357100D02*
X135922100Y-89230400D01*
%TO.N,Reset*%
X135922100Y-123377100D02*
X134795400Y-123377100D01*
D47*
X135922000Y-123377000D02*
X134795400Y-124503600D01*
D46*
X134795400Y-124503600D02*
X134795400Y-123377100D01*
D47*
X126507000Y-132792000D02*
X122228100Y-132792000D01*
X134795400Y-124503600D02*
X126507000Y-132792000D01*
X122261000Y-132825000D02*
X122261000Y-135705900D01*
%TO.N,Net-(Q10-Pad1)*%
X111080000Y-142894000D02*
X111080000Y-141191000D01*
D46*
X111080100Y-141191100D02*
X111080100Y-142894000D01*
X111080000Y-141191000D02*
X111080100Y-141191100D01*
D47*
X99446400Y-133406000D02*
X100413000Y-132439000D01*
X99446400Y-137192000D02*
X99446400Y-133406000D01*
X111080000Y-141191000D02*
X111080000Y-139488000D01*
X101727000Y-139473000D02*
X99446400Y-137192000D01*
X111065000Y-139473000D02*
X101727000Y-139473000D01*
%TO.N,Net-(Q9-D)*%
X107980000Y-142894000D02*
X107290000Y-143584000D01*
X97008800Y-144274000D02*
X96016800Y-143282000D01*
X106600000Y-144274000D02*
X97008800Y-144274000D01*
X107290000Y-143584000D02*
X106600000Y-144274000D01*
D46*
X107290100Y-143584000D02*
X107980100Y-142894000D01*
X107290000Y-143584000D02*
X107290100Y-143584000D01*
D47*
%TO.N,Output3*%
X93815900Y-142012000D02*
X96016800Y-142012000D01*
X92449500Y-143378000D02*
X93815900Y-142012000D01*
%TO.N,Net-(Q8-Pad1)*%
X99446400Y-116995000D02*
X99929700Y-116511500D01*
X99446400Y-120739500D02*
X99446400Y-116995000D01*
X99929700Y-116511500D02*
X100413000Y-116028000D01*
D46*
X99929700Y-116511500D02*
X100413000Y-116028200D01*
D47*
X101862000Y-123155000D02*
X99446400Y-120740000D01*
X109938800Y-123155000D02*
X101862000Y-123155000D01*
D46*
X109938800Y-123155000D02*
X111098200Y-123155000D01*
D47*
X111098000Y-123155000D02*
X109938800Y-123155000D01*
X111129000Y-126620800D02*
X111129000Y-123185000D01*
%TO.N,Output2*%
X93462900Y-126000000D02*
X96016800Y-126000000D01*
X91944200Y-127519000D02*
X93462900Y-126000000D01*
D46*
X135922100Y-95437100D02*
X135922100Y-96563800D01*
X136200800Y-96563800D02*
X135922100Y-96563800D01*
X137976500Y-98339500D02*
X136200800Y-96563800D01*
X137976500Y-123405200D02*
X137976500Y-98339500D01*
X127615200Y-133766500D02*
X137976500Y-123405200D01*
X127146200Y-133766500D02*
X127615200Y-133766500D01*
X119387400Y-141525300D02*
X127146200Y-133766500D01*
X119387400Y-142440000D02*
X119387400Y-141525300D01*
X118185200Y-143642200D02*
X119387400Y-142440000D01*
X116718600Y-143642200D02*
X118185200Y-143642200D01*
X112267800Y-139191400D02*
X116718600Y-143642200D01*
X112267800Y-135734200D02*
X112267800Y-139191400D01*
X106807500Y-130273900D02*
X112267800Y-135734200D01*
X94698900Y-130273900D02*
X106807500Y-130273900D01*
X91944200Y-127519200D02*
X94698900Y-130273900D01*
D47*
%TO.N,Input3*%
X83499100Y-93412900D02*
X86044200Y-90867700D01*
D46*
X112830000Y-104823800D02*
X116229000Y-108222800D01*
X106481600Y-104823800D02*
X112830000Y-104823800D01*
X99868900Y-98211100D02*
X106481600Y-104823800D01*
X98608700Y-98211100D02*
X99868900Y-98211100D01*
X91265300Y-90867700D02*
X98608700Y-98211100D01*
X86044200Y-90867700D02*
X91265300Y-90867700D01*
X124186000Y-108222800D02*
X118743600Y-108222800D01*
X125260500Y-109297300D02*
X124186000Y-108222800D01*
X128617300Y-109297300D02*
X125260500Y-109297300D01*
X134795400Y-115475400D02*
X128617300Y-109297300D01*
X134795400Y-115757100D02*
X134795400Y-115475400D01*
X135922100Y-115757100D02*
X134795400Y-115757100D01*
D47*
%TO.N,Input2*%
X104277000Y-89219500D02*
X106660000Y-86836700D01*
D46*
X120025100Y-104327100D02*
X118727300Y-103029300D01*
X136266700Y-104327100D02*
X120025100Y-104327100D01*
X137067000Y-105127400D02*
X136266700Y-104327100D01*
X137067000Y-106271600D02*
X137067000Y-105127400D01*
X137524800Y-106729400D02*
X137067000Y-106271600D01*
X137524800Y-108860200D02*
X137524800Y-106729400D01*
X137299800Y-109085200D02*
X137524800Y-108860200D01*
X137214800Y-109085200D02*
X137299800Y-109085200D01*
X137074600Y-109225400D02*
X137214800Y-109085200D01*
X137074600Y-109524600D02*
X137074600Y-109225400D01*
X135922100Y-110677100D02*
X137074600Y-109524600D01*
X110156400Y-101766200D02*
X116222700Y-101766200D01*
X103413200Y-95023000D02*
X110156400Y-101766200D01*
X103413200Y-90487400D02*
X103413200Y-95023000D01*
X104277000Y-89623600D02*
X103413200Y-90487400D01*
D47*
%TO.N,Output1*%
X93196500Y-110026000D02*
X96016800Y-110026000D01*
X91639700Y-111583000D02*
X93196500Y-110026000D01*
D46*
X103372200Y-117274100D02*
X116231300Y-117274100D01*
X100397900Y-114299800D02*
X103372200Y-117274100D01*
X94356300Y-114299800D02*
X100397900Y-114299800D01*
X91639700Y-111583200D02*
X94356300Y-114299800D01*
D47*
%TO.N,Input1*%
X104990000Y-74011800D02*
X106450000Y-72551800D01*
D46*
X115419900Y-72551800D02*
X118722600Y-69249100D01*
X106450000Y-72551800D02*
X115419900Y-72551800D01*
D47*
%TO.N,CANBUS_L*%
X136476000Y-70894900D02*
X136534000Y-70837300D01*
X124546400Y-70894900D02*
X136476000Y-70894900D01*
X136534000Y-74178400D02*
X136534000Y-70837300D01*
X136132000Y-74579700D02*
X136534000Y-74178400D01*
X134745000Y-74579700D02*
X136132000Y-74579700D01*
X138175000Y-68403800D02*
X138924000Y-68403800D01*
X136534000Y-70044900D02*
X138175000Y-68403800D01*
X136534000Y-70837300D02*
X136534000Y-70044900D01*
X138924000Y-72096200D02*
X138924000Y-70250000D01*
X138924000Y-70250000D02*
X138924000Y-68403800D01*
D46*
X138923800Y-70250200D02*
X138923800Y-72096200D01*
X138924000Y-70250000D02*
X138923800Y-70250200D01*
D47*
X138924000Y-68403800D02*
X138924000Y-66490600D01*
D46*
%TO.N,TXttl*%
X136203900Y-119423800D02*
X135922100Y-119423800D01*
X137048800Y-120268700D02*
X136203900Y-119423800D01*
X137048800Y-121353000D02*
X137048800Y-120268700D01*
X136394200Y-122007600D02*
X137048800Y-121353000D01*
X126169000Y-122007600D02*
X136394200Y-122007600D01*
X124343500Y-120182100D02*
X126169000Y-122007600D01*
X123166800Y-120182100D02*
X124343500Y-120182100D01*
X135922100Y-118297100D02*
X135922100Y-119423800D01*
%TO.N,RXttl*%
X133668700Y-119710400D02*
X134795400Y-120837100D01*
X126411800Y-119710400D02*
X133668700Y-119710400D01*
X124343500Y-117642100D02*
X126411800Y-119710400D01*
X123166800Y-117642100D02*
X124343500Y-117642100D01*
X135922100Y-120837100D02*
X134795400Y-120837100D01*
%TO.N,Net-(D3-A)*%
X108004000Y-77573200D02*
X108004000Y-79900400D01*
D47*
%TO.N,+5V*%
X81142800Y-90618100D02*
X83499100Y-90618100D01*
X101934000Y-70927800D02*
X104326000Y-70927800D01*
X113088000Y-53475500D02*
X113088000Y-51102200D01*
D46*
X128302100Y-105597100D02*
X128302100Y-106723800D01*
X133382100Y-106723800D02*
X128302100Y-106723800D01*
X134795400Y-108137100D02*
X133382100Y-106723800D01*
X135922100Y-108137100D02*
X134795400Y-108137100D01*
D47*
X101850300Y-86520500D02*
X104274000Y-86520500D01*
D46*
X122799000Y-116278800D02*
X123166800Y-116278800D01*
X121990100Y-117087700D02*
X122799000Y-116278800D01*
X121990100Y-120687500D02*
X121990100Y-117087700D01*
X122754700Y-121452100D02*
X121990100Y-120687500D01*
X123618300Y-121452100D02*
X122754700Y-121452100D01*
X124383700Y-122217500D02*
X123618300Y-121452100D01*
X124383700Y-125446600D02*
X124383700Y-122217500D01*
X119127900Y-130702400D02*
X124383700Y-125446600D01*
X119127900Y-132792200D02*
X119127900Y-130702400D01*
X123166800Y-115102100D02*
X123166800Y-116278800D01*
X124784400Y-103057100D02*
X128302100Y-103057100D01*
X121265300Y-99538000D02*
X124784400Y-103057100D01*
X121265300Y-87713800D02*
X121265300Y-99538000D01*
X131115400Y-77863700D02*
X121265300Y-87713800D01*
X131115400Y-75461400D02*
X131115400Y-77863700D01*
X130233700Y-74579700D02*
X131115400Y-75461400D01*
X122700800Y-67179000D02*
X122700800Y-57974200D01*
X123551500Y-68029700D02*
X122700800Y-67179000D01*
D47*
%TO.N,/Input2/Input*%
X74886800Y-88505900D02*
X82709700Y-80683000D01*
X74886800Y-96042600D02*
X74886800Y-88505900D01*
X77144200Y-98300100D02*
X74886800Y-96042600D01*
X80733100Y-98242000D02*
X77202300Y-98242000D01*
X80733100Y-98242000D02*
X80733100Y-95877600D01*
%TO.N,/Input1/Input*%
X97706700Y-92287800D02*
X97706700Y-94202000D01*
X95552400Y-90133500D02*
X97706700Y-92287800D01*
X95552400Y-81204300D02*
X95552400Y-90133500D01*
X89951100Y-75603000D02*
X95552400Y-81204300D01*
X82709700Y-75603000D02*
X89951100Y-75603000D01*
X101400000Y-94197000D02*
X97711700Y-94197000D01*
X101400000Y-93008800D02*
X101400000Y-94197000D01*
D46*
X101400200Y-93009000D02*
X101400200Y-94197000D01*
X101400000Y-93008800D02*
X101400200Y-93009000D01*
D47*
X101400000Y-91820600D02*
X101400000Y-93008800D01*
D48*
%TO.N,GND*%
X116173000Y-46377700D02*
X116173000Y-51062500D01*
X111583000Y-41787200D02*
X116173000Y-46377700D01*
X104692000Y-41787200D02*
X111583000Y-41787200D01*
X103225000Y-40319600D02*
X104692000Y-41787200D01*
D47*
X97118800Y-44985500D02*
X99712200Y-44985500D01*
X97078300Y-44945000D02*
X97118800Y-44985500D01*
X93329600Y-48693700D02*
X97078300Y-44945000D01*
X88313900Y-48693700D02*
X93329600Y-48693700D01*
X87990700Y-93407700D02*
X88895700Y-92502700D01*
X86044200Y-93407700D02*
X87990700Y-93407700D01*
X86044200Y-96055900D02*
X83858100Y-98242000D01*
X86044200Y-93407700D02*
X86044200Y-96055900D01*
X103225000Y-41473100D02*
X103225000Y-40319600D01*
X99712200Y-44985500D02*
X103225000Y-41473100D01*
X117755000Y-75849700D02*
X117479000Y-76126500D01*
X129795000Y-75849700D02*
X117755000Y-75849700D01*
D48*
X120442000Y-55331000D02*
X116173000Y-51062500D01*
X120442000Y-69311400D02*
X120442000Y-55331000D01*
X101539000Y-38633600D02*
X103225000Y-40319600D01*
X132579000Y-69311400D02*
X120442000Y-69311400D01*
X134092000Y-67797700D02*
X132579000Y-69311400D01*
X134092000Y-66242100D02*
X134092000Y-67797700D01*
D47*
X138274000Y-73996200D02*
X138274000Y-75752900D01*
D46*
X138273800Y-75752700D02*
X138273800Y-73996200D01*
X138274000Y-75752900D02*
X138273800Y-75752700D01*
D47*
X117285000Y-52174000D02*
X116173000Y-51062500D01*
X129945000Y-52174000D02*
X117285000Y-52174000D01*
X135919000Y-58148500D02*
X129945000Y-52174000D01*
X91944400Y-124419000D02*
X95705500Y-124419000D01*
X91639900Y-108483000D02*
X95743700Y-108483000D01*
X108705000Y-89376700D02*
X109609800Y-88471900D01*
X106660300Y-89376700D02*
X108705000Y-89376700D01*
X109610000Y-90477800D02*
X110923000Y-91791000D01*
X109610000Y-88471700D02*
X109610000Y-90477800D01*
X106660000Y-92061900D02*
X106660000Y-89376700D01*
X104525100Y-94196900D02*
X106660000Y-92061900D01*
X106699000Y-77815100D02*
X106699000Y-74843100D01*
X104645200Y-79868200D02*
X106699000Y-77815100D01*
D48*
X117479000Y-109922000D02*
X123066000Y-109922000D01*
D46*
X135922100Y-105597100D02*
X135922100Y-106723800D01*
X128302100Y-108137100D02*
X129428800Y-108137100D01*
D47*
X95553300Y-140278000D02*
X96016700Y-140741800D01*
X92449500Y-140278000D02*
X95553300Y-140278000D01*
D46*
X83858100Y-100701300D02*
X83858100Y-98242000D01*
X91639800Y-108483000D02*
X83858100Y-100701300D01*
D47*
X109723000Y-76191800D02*
X109723000Y-73695900D01*
X110840000Y-77309300D02*
X109723000Y-76191800D01*
D48*
X117479000Y-72274600D02*
X117479000Y-76126500D01*
X120442000Y-69311400D02*
X117479000Y-72274600D01*
D47*
X108621000Y-74797800D02*
X106744000Y-74797800D01*
X109723000Y-73695900D02*
X108621000Y-74797800D01*
X88895700Y-93392900D02*
X91185500Y-95682700D01*
X88895700Y-92502700D02*
X88895700Y-93392900D01*
D48*
X117479000Y-125940800D02*
X117479000Y-142011000D01*
X117479000Y-109921900D02*
X117479000Y-96466100D01*
D46*
X115598100Y-96466100D02*
X110923000Y-91791000D01*
X117479000Y-96466100D02*
X115598100Y-96466100D01*
X90667000Y-138495500D02*
X92449500Y-140278000D01*
X90667000Y-125696400D02*
X90667000Y-138495500D01*
X91944200Y-124419200D02*
X90667000Y-125696400D01*
X90433500Y-109689400D02*
X91639700Y-108483200D01*
X90433500Y-122908500D02*
X90433500Y-109689400D01*
X91944200Y-124419200D02*
X90433500Y-122908500D01*
D47*
X138274000Y-77509700D02*
X136670000Y-79113500D01*
X138274000Y-75752900D02*
X138274000Y-77509700D01*
D48*
X117479000Y-96466100D02*
X117479000Y-82005800D01*
D46*
X115536600Y-82005800D02*
X110840100Y-77309300D01*
X117479000Y-82005800D02*
X115536600Y-82005800D01*
X130555500Y-109263800D02*
X129428800Y-108137100D01*
X136397500Y-109263800D02*
X130555500Y-109263800D01*
X136397500Y-109263700D02*
X136397500Y-109263800D01*
X137065100Y-108596100D02*
X136397500Y-109263700D01*
X137065100Y-107585100D02*
X137065100Y-108596100D01*
X136203800Y-106723800D02*
X137065100Y-107585100D01*
X135922100Y-106723800D02*
X136203800Y-106723800D01*
D48*
X117479000Y-109922000D02*
X117479000Y-115017500D01*
X117479000Y-115017500D02*
X117479000Y-125940800D01*
D46*
X96512900Y-108259900D02*
X96016800Y-108756000D01*
X108086300Y-108259900D02*
X96512900Y-108259900D01*
X109618400Y-109792000D02*
X108086300Y-108259900D01*
X109618400Y-110471800D02*
X109618400Y-109792000D01*
X114164100Y-115017500D02*
X109618400Y-110471800D01*
X117479000Y-115017500D02*
X114164100Y-115017500D01*
X138274000Y-73996200D02*
X138875500Y-73996200D01*
X140602000Y-72269700D02*
X138875500Y-73996200D01*
X140602000Y-65640500D02*
X140602000Y-72269700D01*
X139724700Y-64763200D02*
X140602000Y-65640500D01*
X135571300Y-64763200D02*
X139724700Y-64763200D01*
X134092400Y-66242100D02*
X135571300Y-64763200D01*
X114862100Y-51027600D02*
X114862100Y-51026000D01*
X116138100Y-51027600D02*
X114862100Y-51027600D01*
D47*
%TO.N,/Input/Input*%
X88189900Y-70523000D02*
X82709700Y-70523000D01*
X97567400Y-79900400D02*
X88189900Y-70523000D01*
X97844000Y-79900400D02*
X101488000Y-79900400D01*
X101520000Y-79868400D02*
X101520000Y-77200700D01*
D48*
%TO.N,GND*%
X117479000Y-82005800D02*
X117479000Y-76126500D01*
D46*
%TO.N,MOSI*%
X108557700Y-50065500D02*
X107649800Y-50973400D01*
X107649800Y-55520400D02*
X109778000Y-57648600D01*
X107649800Y-50973400D02*
X107649800Y-55520400D01*
X109778000Y-57648600D02*
X115590500Y-57648600D01*
X115590500Y-57648600D02*
X116396800Y-58454900D01*
X116396800Y-61395400D02*
X118949100Y-63947700D01*
X118949100Y-63947700D02*
X119182400Y-63947700D01*
X116396800Y-58454900D02*
X116396800Y-61395400D01*
%TD*%
M02*
