M48
INCH
T1C0.0157
T2C0.0276
T3C0.0295
T4C0.0315
T5C0.0354
T6C0.0394
T7C0.0433
T8C0.0504
T9C0.0512
T10C0.0551
%
G90
G05
T1
X3.1946Y-3.5676
X3.2982Y-3.7724
X3.3539Y-1.9171
X3.4726Y-2.4938
X3.4769Y-1.9171
X4.0098Y-3.4063
X4.0131Y-2.7924
X4.0823Y-2.0711
X4.1102Y-3.6111
X4.1187Y-3.0392
X4.2579Y-2.2474
X4.2918Y-2.1711
X4.2918Y-2.0711
X4.3726Y-5.369
X4.3739Y-4.7266
X4.3748Y-4.0659
X4.4489Y-2.009
X4.4523Y-2.1053
X4.5221Y-2.0089
X4.557Y-2.5194
X4.5743Y-2.1053
X4.5757Y-4.0065
X4.5759Y-4.2607
X4.576Y-4.6171
X4.6109Y-2.6558
X4.625Y-2.7101
X4.638Y-2.6272
X4.6384Y-2.5869
X4.6741Y-2.7263
X4.6743Y-4.0563
X4.6749Y-4.2607
X4.6773Y-3.2262
X4.6922Y-2.5176
X4.7307Y-2.8379
X4.7593Y-3.018
X4.7911Y-2.2474
X4.7922Y-2.5995
X4.8307Y-2.2824
X4.8482Y-3.4798
X4.8642Y-2.6783
X4.884Y-3.3853
X4.8966Y-3.2257
X5.0208Y-3.3
X5.0571Y-2.8231
X5.11Y-2.9362
X5.2211Y-2.9541
X5.3049Y-2.9862
X5.4183Y-2.8384
T2
X4.8286Y-2.7911
X4.9034Y-2.7911
X5.3059Y-3.1147
X5.3807Y-3.1147
T3
X3.4998Y-3.6418
X3.5498Y-3.6418
X3.5998Y-3.6418
X3.7802Y-4.2817
X3.7802Y-4.3317
X3.7802Y-4.3817
X3.7802Y-4.9106
X3.7802Y-4.9606
X3.7802Y-5.0106
X3.7802Y-5.541
X3.7802Y-5.591
X3.7802Y-5.641
X3.9533Y-3.9413
X3.9533Y-4.568
X3.9533Y-5.2141
X4.3153Y-3.4831
X4.3198Y-2.9014
X4.3653Y-3.4831
X4.3698Y-2.9014
X4.3745Y-3.9413
X4.3745Y-4.568
X4.3745Y-5.2141
X4.4153Y-3.4831
X4.4198Y-2.9014
T4
X3.0876Y-3.5775
X3.0876Y-3.6775
X3.3876Y-3.5775
X3.3876Y-3.6775
X3.4118Y-2.1083
X3.4118Y-2.3004
X3.8992Y-3.4188
X3.8992Y-3.5188
X3.9025Y-2.8448
X3.9025Y-2.9448
X4.1992Y-3.4188
X4.1992Y-3.5188
X4.2025Y-2.8448
X4.2025Y-2.9448
X4.8363Y-3.727
X4.8363Y-3.9191
X5.0513Y-3.5574
X5.0513Y-3.6574
X5.0513Y-3.7574
X5.0513Y-3.8574
X5.0513Y-3.9574
X5.0513Y-4.0574
X5.0513Y-4.1574
X5.0513Y-4.2574
X5.0513Y-4.3574
X5.0513Y-4.4574
X5.0513Y-4.5574
X5.0513Y-4.6574
X5.0513Y-4.7574
X5.0513Y-4.8574
X5.3513Y-3.5574
X5.3513Y-3.6574
X5.3513Y-3.7574
X5.3513Y-3.8574
X5.3513Y-3.9574
X5.3513Y-4.0574
X5.3513Y-4.1574
X5.3513Y-4.2574
X5.3513Y-4.3574
X5.3513Y-4.4574
X5.3513Y-4.5574
X5.3513Y-4.6574
X5.3513Y-4.7574
X5.3513Y-4.8574
T5
X5.2392Y-3.36
X5.3392Y-3.36
T6
X3.9976Y-1.521
X4.0976Y-1.521
X4.1976Y-1.521
X4.8134Y-5.0868
X4.8134Y-5.3428
X4.8491Y-4.3316
X4.8491Y-4.4316
X4.8491Y-4.5316
X4.8491Y-4.6316
X4.8491Y-4.7316
X4.8491Y-4.8316
X4.857Y-2.9104
X4.957Y-2.9104
X4.9906Y-5.0868
X4.9906Y-5.3428
T7
X3.0372Y-3.8701
X3.4372Y-3.8701
X3.8467Y-3.7087
X3.8521Y-3.1457
X4.2467Y-3.7087
X4.2521Y-3.1457
X5.1792Y-2.608
X5.2792Y-2.608
X5.3792Y-2.608
X5.4792Y-2.608
T8
X3.9152Y-4.1401
X3.9152Y-4.7535
X3.9152Y-5.4013
X4.0152Y-4.1401
X4.0152Y-4.7535
X4.0152Y-5.4013
X4.1152Y-4.1401
X4.1152Y-4.7535
X4.1152Y-5.4013
X5.2314Y-2.3818
X5.3314Y-2.3818
X5.4314Y-2.3818
T9
X3.2295Y-4.4297
X3.2295Y-4.6297
X3.2295Y-4.8297
X3.2563Y-2.7765
X3.2563Y-2.9765
X3.2563Y-3.1765
X4.0251Y-4.3276
X4.0251Y-4.9583
X4.0251Y-5.591
X4.6251Y-4.3276
X4.6251Y-4.9583
X4.6251Y-5.591
T10
X4.1622Y-2.3238
X4.1622Y-2.4223
X4.3Y-2.3238
X4.3Y-2.4223
X4.5284Y-2.3238
X4.5284Y-2.4223
X4.6661Y-2.3238
X4.6661Y-2.4223
X4.9009Y-1.9731
X4.9009Y-2.1108
X4.9009Y-2.3392
X4.9009Y-2.477
X4.9993Y-1.9731
X4.9993Y-2.1108
X4.9993Y-2.3392
X4.9993Y-2.477
M30
