%TF.GenerationSoftware,KiCad,Pcbnew,8.0.1-rc1*%
%TF.CreationDate,2024-06-16T18:47:49-07:00*%
%TF.ProjectId,AMS - CANBus - RGB - Nchannel,414d5320-2d20-4434-914e-427573202d20,rev?*%
%TF.SameCoordinates,Original*%
%TF.FileFunction,Copper,L1,Top*%
%TF.FilePolarity,Positive*%
%FSLAX46Y46*%
G04 Gerber Fmt 4.6, Leading zero omitted, Abs format (unit mm)*
G04 Created by KiCad (PCBNEW 8.0.1-rc1) date 2024-06-16 18:47:49*
%MOMM*%
%LPD*%
G01*
G04 APERTURE LIST*
G04 Aperture macros list*
%AMRoundRect*
0 Rectangle with rounded corners*
0 $1 Rounding radius*
0 $2 $3 $4 $5 $6 $7 $8 $9 X,Y pos of 4 corners*
0 Add a 4 corners polygon primitive as box body*
4,1,4,$2,$3,$4,$5,$6,$7,$8,$9,$2,$3,0*
0 Add four circle primitives for the rounded corners*
1,1,$1+$1,$2,$3*
1,1,$1+$1,$4,$5*
1,1,$1+$1,$6,$7*
1,1,$1+$1,$8,$9*
0 Add four rect primitives between the rounded corners*
20,1,$1+$1,$2,$3,$4,$5,0*
20,1,$1+$1,$4,$5,$6,$7,0*
20,1,$1+$1,$6,$7,$8,$9,0*
20,1,$1+$1,$8,$9,$2,$3,0*%
G04 Aperture macros list end*
%TA.AperFunction,SMDPad,CuDef*%
%ADD10RoundRect,0.250000X-0.412500X-0.650000X0.412500X-0.650000X0.412500X0.650000X-0.412500X0.650000X0*%
%TD*%
%TA.AperFunction,ComponentPad*%
%ADD11R,1.920000X1.920000*%
%TD*%
%TA.AperFunction,ComponentPad*%
%ADD12C,1.920000*%
%TD*%
%TA.AperFunction,ComponentPad*%
%ADD13C,1.600000*%
%TD*%
%TA.AperFunction,ComponentPad*%
%ADD14O,1.600000X1.600000*%
%TD*%
%TA.AperFunction,ComponentPad*%
%ADD15R,2.200000X2.200000*%
%TD*%
%TA.AperFunction,ComponentPad*%
%ADD16O,2.200000X2.200000*%
%TD*%
%TA.AperFunction,ComponentPad*%
%ADD17C,2.200000*%
%TD*%
%TA.AperFunction,ComponentPad*%
%ADD18R,2.600000X2.600000*%
%TD*%
%TA.AperFunction,ComponentPad*%
%ADD19C,2.600000*%
%TD*%
%TA.AperFunction,ComponentPad*%
%ADD20R,1.700000X1.700000*%
%TD*%
%TA.AperFunction,ComponentPad*%
%ADD21O,1.700000X1.700000*%
%TD*%
%TA.AperFunction,ComponentPad*%
%ADD22C,2.400000*%
%TD*%
%TA.AperFunction,ComponentPad*%
%ADD23R,1.150000X1.150000*%
%TD*%
%TA.AperFunction,ComponentPad*%
%ADD24C,1.150000*%
%TD*%
%TA.AperFunction,SMDPad,CuDef*%
%ADD25RoundRect,0.250000X-0.400000X-0.625000X0.400000X-0.625000X0.400000X0.625000X-0.400000X0.625000X0*%
%TD*%
%TA.AperFunction,SMDPad,CuDef*%
%ADD26R,1.000000X3.150000*%
%TD*%
%TA.AperFunction,ComponentPad*%
%ADD27R,1.600000X1.600000*%
%TD*%
%TA.AperFunction,ComponentPad*%
%ADD28C,1.500000*%
%TD*%
%TA.AperFunction,ComponentPad*%
%ADD29R,1.500000X1.500000*%
%TD*%
%TA.AperFunction,SMDPad,CuDef*%
%ADD30RoundRect,0.250000X0.412500X0.650000X-0.412500X0.650000X-0.412500X-0.650000X0.412500X-0.650000X0*%
%TD*%
%TA.AperFunction,ViaPad*%
%ADD31C,0.600000*%
%TD*%
%TA.AperFunction,Conductor*%
%ADD32C,0.889000*%
%TD*%
%TA.AperFunction,Conductor*%
%ADD33C,0.200000*%
%TD*%
%TA.AperFunction,Conductor*%
%ADD34C,0.381000*%
%TD*%
%TA.AperFunction,Conductor*%
%ADD35C,0.508000*%
%TD*%
G04 APERTURE END LIST*
D10*
%TO.P,C3,1*%
%TO.N,Net-(U2-XTAL2{slash}PB7)*%
X151259400Y-117195200D03*
%TO.P,C3,2*%
%TO.N,GND*%
X154384400Y-117195200D03*
%TD*%
D11*
%TO.P,Q3,1*%
%TO.N,Net-(Q3-Pad1)*%
X157029900Y-104966800D03*
D12*
%TO.P,Q3,2*%
%TO.N,/Output12v/Out1*%
X159569900Y-104966800D03*
%TO.P,Q3,3*%
%TO.N,+VDC*%
X162109900Y-104966800D03*
%TD*%
D11*
%TO.P,Q5,1*%
%TO.N,Net-(Q5-Pad1)*%
X157029900Y-97215700D03*
D12*
%TO.P,Q5,2*%
%TO.N,/Output12v/Out2*%
X159569900Y-97215700D03*
%TO.P,Q5,3*%
%TO.N,+VDC*%
X162109900Y-97215700D03*
%TD*%
D13*
%TO.P,R7,1*%
%TO.N,Net-(J5-Pin_2)*%
X139116100Y-58260700D03*
D14*
%TO.P,R7,2*%
%TO.N,CANBUS_L*%
X141656100Y-58260700D03*
%TD*%
D15*
%TO.P,D2,1,K*%
%TO.N,Net-(D2-K)*%
X170632200Y-75831200D03*
D16*
%TO.P,D2,2,A*%
%TO.N,/BareMinAtmel328P/PD4-D4*%
X160472200Y-75831200D03*
%TD*%
D15*
%TO.P,J1,1,Pin_1*%
%TO.N,Net-(J1-Pin_1)*%
X154748000Y-66384800D03*
D17*
%TO.P,J1,2,Pin_2*%
%TO.N,GND*%
X154748000Y-63844800D03*
%TO.P,J1,3,Pin_3*%
%TO.N,CANBUS_H*%
X154748000Y-61304800D03*
%TO.P,J1,4,Pin_4*%
%TO.N,CANBUS_L*%
X154748000Y-58764800D03*
%TD*%
D18*
%TO.P,J2,1,Pin_1*%
%TO.N,/Output12v/Out1*%
X171594600Y-102105600D03*
D19*
%TO.P,J2,2,Pin_2*%
%TO.N,/Output12v/Out2*%
X171594600Y-97025600D03*
%TO.P,J2,3,Pin_3*%
%TO.N,/Output12v/Out3*%
X171594600Y-91945600D03*
%TO.P,J2,4,Pin_4*%
%TO.N,/Output12v/Out4*%
X171594600Y-86865600D03*
%TO.P,J2,5,Pin_5*%
%TO.N,Net-(J2-Pin_5)*%
X171594600Y-81785600D03*
%TD*%
D13*
%TO.P,NTC1,1*%
%TO.N,/BareMinAtmel328P/PC0-A0*%
X135965600Y-94809500D03*
D14*
%TO.P,NTC1,2*%
%TO.N,+5V*%
X135965600Y-97349500D03*
%TD*%
D11*
%TO.P,Q7,1*%
%TO.N,Net-(Q7-Pad1)*%
X156961400Y-89326400D03*
D12*
%TO.P,Q7,2*%
%TO.N,/Output12v/Out3*%
X159501400Y-89326400D03*
%TO.P,Q7,3*%
%TO.N,+VDC*%
X162041400Y-89326400D03*
%TD*%
D20*
%TO.P,J3,1,Pin_1*%
%TO.N,GND*%
X146254600Y-120744200D03*
D21*
%TO.P,J3,2,Pin_2*%
%TO.N,unconnected-(J3-Pin_2-Pad2)*%
X143714600Y-120744200D03*
%TO.P,J3,3,Pin_3*%
%TO.N,+5V*%
X141174600Y-120744200D03*
%TO.P,J3,4,Pin_4*%
%TO.N,/BareMinAtmel328P/PD0-RX*%
X138634600Y-120744200D03*
%TO.P,J3,5,Pin_5*%
%TO.N,/BareMinAtmel328P/PD1-TX*%
X136094600Y-120744200D03*
%TO.P,J3,6,Pin_6*%
%TO.N,Net-(J3-Pin_6)*%
X133554600Y-120744200D03*
%TD*%
D22*
%TO.P,U5,1,1*%
%TO.N,Net-(Q1-Pad3)*%
X134999500Y-70018000D03*
%TO.P,U5,2,2*%
X134999500Y-73418000D03*
%TO.P,U5,3,3*%
%TO.N,+VDC*%
X125079500Y-70018000D03*
%TO.P,U5,4,4*%
X125079500Y-73418000D03*
%TD*%
D23*
%TO.P,Z1,1*%
%TO.N,+VDC*%
X162430500Y-107964000D03*
D24*
%TO.P,Z1,2*%
%TO.N,Net-(Q3-Pad1)*%
X151730500Y-107964000D03*
%TD*%
D25*
%TO.P,R22,1*%
%TO.N,+5V*%
X152547400Y-74745100D03*
%TO.P,R22,2*%
%TO.N,/BareMinAtmel328P/PD4-D4*%
X155647400Y-74745100D03*
%TD*%
D13*
%TO.P,R6,1*%
%TO.N,Net-(U4-Rs)*%
X161933600Y-72318900D03*
D14*
%TO.P,R6,2*%
%TO.N,GND*%
X159393600Y-72318900D03*
%TD*%
D11*
%TO.P,Q9,1*%
%TO.N,Net-(Q9-Pad1)*%
X156916800Y-81600400D03*
D12*
%TO.P,Q9,2*%
%TO.N,/Output12v/Out4*%
X159456800Y-81600400D03*
%TO.P,Q9,3*%
%TO.N,+VDC*%
X161996800Y-81600400D03*
%TD*%
D20*
%TO.P,Powerboard1,1,Pin_1*%
%TO.N,+VDC*%
X130976300Y-92602600D03*
D21*
%TO.P,Powerboard1,2,Pin_2*%
%TO.N,+5V*%
X130976300Y-90062600D03*
%TO.P,Powerboard1,3,Pin_3*%
%TO.N,GND*%
X130976300Y-87522600D03*
%TD*%
D26*
%TO.P,J4,1,Pin_1*%
%TO.N,/BareMinAtmel328P/PB4-D12-MISO*%
X149082300Y-70232000D03*
%TO.P,J4,2,Pin_2*%
%TO.N,/BareMinAtmel328P/PB5-D13-SCK*%
X149082300Y-75282000D03*
%TO.P,J4,3,Pin_3*%
%TO.N,/BareMinAtmel328P/RESET*%
X146542300Y-70232000D03*
%TO.P,J4,4,Pin_4*%
%TO.N,+5V*%
X146542300Y-75282000D03*
%TO.P,J4,5,Pin_5*%
%TO.N,/BareMinAtmel328P/PB3-D11-MOSI*%
X144002300Y-70232000D03*
%TO.P,J4,6,Pin_6*%
%TO.N,GND*%
X144002300Y-75282000D03*
%TD*%
D23*
%TO.P,Z2,1*%
%TO.N,+VDC*%
X161977900Y-100269500D03*
D24*
%TO.P,Z2,2*%
%TO.N,Net-(Q5-Pad1)*%
X151277900Y-100269500D03*
%TD*%
D27*
%TO.P,U2,1,~{RESET}/PC6*%
%TO.N,/BareMinAtmel328P/RESET*%
X140929500Y-81761800D03*
D14*
%TO.P,U2,2,PD0*%
%TO.N,/BareMinAtmel328P/PD0-RX*%
X140929500Y-84301800D03*
%TO.P,U2,3,PD1*%
%TO.N,/BareMinAtmel328P/PD1-TX*%
X140929500Y-86841800D03*
%TO.P,U2,4,PD2*%
%TO.N,/BareMinAtmel328P/PD2-D2*%
X140929500Y-89381800D03*
%TO.P,U2,5,PD3*%
%TO.N,/BareMinAtmel328P/PD3-D3*%
X140929500Y-91921800D03*
%TO.P,U2,6,PD4*%
%TO.N,/BareMinAtmel328P/PD4-D4*%
X140929500Y-94461800D03*
%TO.P,U2,7,VCC*%
%TO.N,+5V*%
X140929500Y-97001800D03*
%TO.P,U2,8,GND*%
%TO.N,GND*%
X140929500Y-99541800D03*
%TO.P,U2,9,XTAL1/PB6*%
%TO.N,Net-(U2-XTAL1{slash}PB6)*%
X140929500Y-102081800D03*
%TO.P,U2,10,XTAL2/PB7*%
%TO.N,Net-(U2-XTAL2{slash}PB7)*%
X140929500Y-104621800D03*
%TO.P,U2,11,PD5*%
%TO.N,/BareMinAtmel328P/PD5-D5*%
X140929500Y-107161800D03*
%TO.P,U2,12,PD6*%
%TO.N,/BareMinAtmel328P/PD6-D6*%
X140929500Y-109701800D03*
%TO.P,U2,13,PD7*%
%TO.N,/BareMinAtmel328P/PD7-D7*%
X140929500Y-112241800D03*
%TO.P,U2,14,PB0*%
%TO.N,/BareMinAtmel328P/PB0-D8*%
X140929500Y-114781800D03*
%TO.P,U2,15,PB1*%
%TO.N,/BareMinAtmel328P/PB1-D9*%
X148549500Y-114781800D03*
%TO.P,U2,16,PB2*%
%TO.N,/BareMinAtmel328P/PB2-D10-SS*%
X148549500Y-112241800D03*
%TO.P,U2,17,PB3*%
%TO.N,/BareMinAtmel328P/PB3-D11-MOSI*%
X148549500Y-109701800D03*
%TO.P,U2,18,PB4*%
%TO.N,/BareMinAtmel328P/PB4-D12-MISO*%
X148549500Y-107161800D03*
%TO.P,U2,19,PB5*%
%TO.N,/BareMinAtmel328P/PB5-D13-SCK*%
X148549500Y-104621800D03*
%TO.P,U2,20,AVCC*%
%TO.N,+5V*%
X148549500Y-102081800D03*
%TO.P,U2,21,AREF*%
%TO.N,/BareMinAtmel328P/AREF*%
X148549500Y-99541800D03*
%TO.P,U2,22,GND*%
%TO.N,GND*%
X148549500Y-97001800D03*
%TO.P,U2,23,PC0*%
%TO.N,/BareMinAtmel328P/PC0-A0*%
X148549500Y-94461800D03*
%TO.P,U2,24,PC1*%
%TO.N,/BareMinAtmel328P/PC1-A1*%
X148549500Y-91921800D03*
%TO.P,U2,25,PC2*%
%TO.N,/BareMinAtmel328P/PC2-A2*%
X148549500Y-89381800D03*
%TO.P,U2,26,PC3*%
%TO.N,/BareMinAtmel328P/PC3-A3*%
X148549500Y-86841800D03*
%TO.P,U2,27,PC4*%
%TO.N,/BareMinAtmel328P/PC4-A4-SDA*%
X148549500Y-84301800D03*
%TO.P,U2,28,PC5*%
%TO.N,/BareMinAtmel328P/PC5-A5-SCL*%
X148549500Y-81761800D03*
%TD*%
D20*
%TO.P,J5,1,Pin_1*%
%TO.N,CANBUS_H*%
X139049600Y-61738500D03*
D21*
%TO.P,J5,2,Pin_2*%
%TO.N,Net-(J5-Pin_2)*%
X141589600Y-61738500D03*
%TD*%
D11*
%TO.P,Q1,1*%
%TO.N,Net-(Q1-Pad1)*%
X136586000Y-84423600D03*
D12*
%TO.P,Q1,2*%
%TO.N,Net-(J1-Pin_1)*%
X136586000Y-81883600D03*
%TO.P,Q1,3*%
%TO.N,Net-(Q1-Pad3)*%
X136586000Y-79343600D03*
%TD*%
D28*
%TO.P,Y2,1,1*%
%TO.N,Net-(U3-OSC1)*%
X153203400Y-112099600D03*
%TO.P,Y2,2,2*%
%TO.N,Net-(U3-OSC2)*%
X158083400Y-112099600D03*
%TD*%
D29*
%TO.P,Reset1,1,NO_1*%
%TO.N,/BareMinAtmel328P/RESET*%
X135385300Y-113752500D03*
D28*
%TO.P,Reset1,2,NO_2*%
%TO.N,unconnected-(Reset1-NO_2-Pad2)*%
X128885300Y-113752500D03*
%TO.P,Reset1,3,COM_1*%
%TO.N,GND*%
X135385300Y-109252500D03*
%TO.P,Reset1,4,COM_2*%
%TO.N,unconnected-(Reset1-COM_2-Pad4)*%
X128885300Y-109252500D03*
%TD*%
D30*
%TO.P,C5,1*%
%TO.N,Net-(U3-OSC1)*%
X159782200Y-117145000D03*
%TO.P,C5,2*%
%TO.N,GND*%
X156657200Y-117145000D03*
%TD*%
D28*
%TO.P,Y1,1,1*%
%TO.N,Net-(U2-XTAL2{slash}PB7)*%
X153178500Y-121354000D03*
%TO.P,Y1,2,2*%
%TO.N,Net-(U2-XTAL1{slash}PB6)*%
X158058500Y-121354000D03*
%TD*%
D25*
%TO.P,C8,1*%
%TO.N,Net-(J2-Pin_5)*%
X166654000Y-72746000D03*
%TO.P,C8,2*%
%TO.N,GND*%
X169754000Y-72746000D03*
%TD*%
D23*
%TO.P,Z4,1*%
%TO.N,+VDC*%
X161963000Y-84624300D03*
D24*
%TO.P,Z4,2*%
%TO.N,Net-(Q9-Pad1)*%
X151263000Y-84624300D03*
%TD*%
D23*
%TO.P,Z3,1*%
%TO.N,+VDC*%
X161963000Y-92343800D03*
D24*
%TO.P,Z3,2*%
%TO.N,Net-(Q7-Pad1)*%
X151263000Y-92343800D03*
%TD*%
D31*
%TO.N,GND*%
X154384000Y-117195000D03*
X173627000Y-77825200D03*
X163203000Y-67338900D03*
X156657000Y-117145000D03*
X128222000Y-81122900D03*
%TO.N,+5V*%
X132103000Y-109881000D03*
X164680600Y-68862200D03*
X137702000Y-101432000D03*
%TO.N,/BareMinAtmel328P/PB5-D13-SCK*%
X144892300Y-91269400D03*
X144926700Y-73405300D03*
%TO.N,/BareMinAtmel328P/PB3-D11-MOSI*%
X145039000Y-70346500D03*
X129219300Y-104880400D03*
%TO.N,/BareMinAtmel328P/PB4-D12-MISO*%
X145019600Y-69215300D03*
X130270200Y-110517300D03*
%TO.N,/BareMinAtmel328P/PD0-RX*%
X134533900Y-91661400D03*
%TO.N,/BareMinAtmel328P/PD6-D6*%
X158163000Y-92343800D03*
X153138000Y-88887400D03*
%TO.N,/BareMinAtmel328P/PB2-D10-SS*%
X153764000Y-80335200D03*
X158163000Y-84624300D03*
%TO.N,/BareMinAtmel328P/PD3-D3*%
X158631000Y-107964000D03*
X151159500Y-101906400D03*
X152696000Y-104374000D03*
%TO.N,/BareMinAtmel328P/PD5-D5*%
X153981000Y-96169100D03*
X158178000Y-100270000D03*
%TO.N,/BareMinAtmel328P/PB1-D9*%
X131783200Y-114804200D03*
%TO.N,Net-(J2-Pin_5)*%
X176758000Y-77879700D03*
X166490000Y-74881200D03*
%TD*%
D32*
%TO.N,GND*%
X136445000Y-63844800D02*
X128247000Y-72043300D01*
X166851000Y-67338900D02*
X169754000Y-70241600D01*
X169754000Y-70241600D02*
X169754000Y-72746000D01*
X128247000Y-81097700D02*
X128222000Y-81122900D01*
D33*
X158291900Y-72318900D02*
X157835200Y-72775600D01*
D34*
X154384600Y-117195000D02*
X156607000Y-117195000D01*
D32*
X158565000Y-63844800D02*
X162059000Y-67338900D01*
D33*
X157835200Y-72775600D02*
X144632000Y-72775600D01*
D34*
X154384000Y-117195000D02*
X154384000Y-121761000D01*
D32*
X162059000Y-67338900D02*
X163203000Y-67338900D01*
D34*
X159394000Y-72318900D02*
X159394000Y-70004300D01*
D33*
X144002300Y-75282000D02*
X144002300Y-73405300D01*
D32*
X154748000Y-63844800D02*
X136445000Y-63844800D01*
D34*
X159394000Y-70004300D02*
X162059000Y-67338900D01*
D33*
X159393600Y-72318900D02*
X158291900Y-72318900D01*
D34*
X170528000Y-72746000D02*
X169754000Y-72746000D01*
D32*
X154748000Y-63844800D02*
X158565000Y-63844800D01*
D34*
X153651000Y-122494000D02*
X148005000Y-122494000D01*
D32*
X128247000Y-72043300D02*
X128247000Y-81097700D01*
D34*
X173627000Y-75845200D02*
X170528000Y-72746000D01*
D32*
X163203000Y-67338900D02*
X166851000Y-67338900D01*
D34*
X173627000Y-77825200D02*
X173627000Y-75845200D01*
D32*
X128222000Y-81122900D02*
X128222000Y-84767900D01*
D34*
X154384000Y-121761000D02*
X153651000Y-122494000D01*
D33*
X144632000Y-72775600D02*
X144002300Y-73405300D01*
D32*
X128222000Y-84767900D02*
X130976000Y-87522600D01*
D34*
X148005000Y-122494000D02*
X146255000Y-120744000D01*
D33*
%TO.N,/BareMinAtmel328P/RESET*%
X140929500Y-75844800D02*
X140929500Y-81761800D01*
X146542300Y-70232000D02*
X146542300Y-71942400D01*
X146542300Y-71942400D02*
X144831900Y-71942400D01*
X144831900Y-71942400D02*
X140929500Y-75844800D01*
%TO.N,+5V*%
X133132200Y-90005800D02*
X132626900Y-90511100D01*
X141856600Y-82890200D02*
X140759300Y-82890200D01*
D34*
X132103000Y-109881000D02*
X137702000Y-104282000D01*
D33*
X152547400Y-74745100D02*
X153871900Y-73420600D01*
X146542300Y-75282000D02*
X146542300Y-77158700D01*
X133643700Y-90005800D02*
X133132200Y-90005800D01*
D32*
X140582000Y-97349500D02*
X140929700Y-97002000D01*
X135966000Y-97349500D02*
X140582000Y-97349500D01*
D33*
X140759300Y-82890200D02*
X133643700Y-90005800D01*
D32*
X132178000Y-90062600D02*
X132626900Y-90511100D01*
X132626900Y-90511100D02*
X133262000Y-91145800D01*
X133262000Y-94645400D02*
X135966000Y-97349500D01*
D34*
X137702000Y-104282000D02*
X137702000Y-101432000D01*
D33*
X153871900Y-73420600D02*
X159889700Y-73420600D01*
D32*
X133262000Y-91145800D02*
X133262000Y-94645400D01*
D33*
X163760200Y-68862200D02*
X164680600Y-68862200D01*
X160519300Y-72791000D02*
X160519300Y-72103100D01*
D34*
X137702000Y-101432000D02*
X137702000Y-99085700D01*
D33*
X146542300Y-77158700D02*
X150133800Y-77158700D01*
X146542300Y-78204500D02*
X141856600Y-82890200D01*
D34*
X137702000Y-99085700D02*
X135966000Y-97349500D01*
D33*
X159889700Y-73420600D02*
X160519300Y-72791000D01*
X146542300Y-77158700D02*
X146542300Y-78204500D01*
X160519300Y-72103100D02*
X163760200Y-68862200D01*
D32*
X140930000Y-97001800D02*
X143470000Y-97001800D01*
X130976300Y-90062600D02*
X132178000Y-90062600D01*
D33*
X150133800Y-77158700D02*
X152547400Y-74745100D01*
D32*
X143470000Y-97001800D02*
X148549700Y-102081600D01*
D34*
%TO.N,CANBUS_L*%
X142160000Y-58764800D02*
X141656000Y-58260700D01*
X154748000Y-58764800D02*
X142160000Y-58764800D01*
%TO.N,CANBUS_H*%
X153074000Y-62979000D02*
X140290000Y-62979000D01*
X140290000Y-62979000D02*
X139050000Y-61738500D01*
X154748000Y-61304800D02*
X153074000Y-62979000D01*
D33*
%TO.N,/BareMinAtmel328P/PB5-D13-SCK*%
X149082300Y-73405300D02*
X144926700Y-73405300D01*
X148549500Y-104621800D02*
X148549500Y-103520100D01*
X149678000Y-94017400D02*
X149678000Y-102619900D01*
X148777800Y-103520100D02*
X148549500Y-103520100D01*
X149678000Y-102619900D02*
X148777800Y-103520100D01*
X149082300Y-75282000D02*
X149082300Y-73405300D01*
X148852400Y-93191800D02*
X149678000Y-94017400D01*
X144892300Y-91269400D02*
X146814700Y-93191800D01*
X146814700Y-93191800D02*
X148852400Y-93191800D01*
%TO.N,/BareMinAtmel328P/PB3-D11-MOSI*%
X129990600Y-109852100D02*
X129990600Y-105651700D01*
X139600100Y-111146700D02*
X129978500Y-111146700D01*
X129609700Y-110233000D02*
X129990600Y-109852100D01*
X129978500Y-111146700D02*
X129609700Y-110777900D01*
X147447800Y-109701800D02*
X146346100Y-110803500D01*
X148549500Y-109701800D02*
X147447800Y-109701800D01*
X139943300Y-110803500D02*
X139600100Y-111146700D01*
X146346100Y-110803500D02*
X139943300Y-110803500D01*
X129609700Y-110777900D02*
X129609700Y-110233000D01*
X129990600Y-105651700D02*
X129219300Y-104880400D01*
X145039000Y-70346500D02*
X144116800Y-70346500D01*
%TO.N,/BareMinAtmel328P/PB4-D12-MISO*%
X139148300Y-108524400D02*
X137155400Y-110517300D01*
X149082300Y-68355300D02*
X145879600Y-68355300D01*
X137155400Y-110517300D02*
X130270200Y-110517300D01*
X145879600Y-68355300D02*
X145019600Y-69215300D01*
X147447800Y-107161800D02*
X146085200Y-108524400D01*
X149082300Y-70232000D02*
X149082300Y-68355300D01*
X148549500Y-107161800D02*
X147447800Y-107161800D01*
X146085200Y-108524400D02*
X139148300Y-108524400D01*
%TO.N,/BareMinAtmel328P/PD0-RX*%
X140929500Y-84301800D02*
X140929500Y-85403500D01*
X140929500Y-85403500D02*
X140791800Y-85403500D01*
X140791800Y-85403500D02*
X134533900Y-91661400D01*
D32*
%TO.N,+VDC*%
X125080000Y-86705800D02*
X130976000Y-92602600D01*
X149994000Y-112853000D02*
X152142000Y-110705000D01*
X127491000Y-96088100D02*
X127491000Y-114341000D01*
X129376000Y-116226000D02*
X149148000Y-116226000D01*
X152142000Y-110705000D02*
X159689000Y-110705000D01*
X149994000Y-115380000D02*
X149994000Y-112853000D01*
X159689000Y-110705000D02*
X162430700Y-107964200D01*
D33*
X125080000Y-71718000D02*
X125079500Y-71717500D01*
D32*
X125080000Y-71718000D02*
X125080000Y-73418000D01*
X130976000Y-92602600D02*
X127491000Y-96088100D01*
X125080000Y-73418000D02*
X125080000Y-86705800D01*
D33*
X125079500Y-71717500D02*
X125079500Y-70018000D01*
D32*
X125080000Y-70018000D02*
X125080000Y-71718000D01*
X127491000Y-114341000D02*
X129376000Y-116226000D01*
X149148000Y-116226000D02*
X149994000Y-115380000D01*
D33*
%TO.N,/BareMinAtmel328P/PD4-D4*%
X139796500Y-91471300D02*
X140616000Y-90651800D01*
X147196800Y-81513000D02*
X151338600Y-77371200D01*
X141254000Y-90651800D02*
X147196800Y-84709000D01*
X147196800Y-84709000D02*
X147196800Y-81513000D01*
X140791800Y-93360100D02*
X139796500Y-92364800D01*
X139796500Y-92364800D02*
X139796500Y-91471300D01*
X140929500Y-94461800D02*
X140929500Y-93360100D01*
X140616000Y-90651800D02*
X141254000Y-90651800D01*
X151338600Y-77371200D02*
X153020900Y-77371200D01*
D34*
X159386000Y-74745100D02*
X160472000Y-75831200D01*
D33*
X140929500Y-93360100D02*
X140791800Y-93360100D01*
D34*
X155647400Y-74745100D02*
X159386000Y-74745100D01*
D33*
X153020900Y-77371200D02*
X155647000Y-74745100D01*
%TO.N,/BareMinAtmel328P/PD6-D6*%
X158831900Y-100472100D02*
X158831900Y-99547300D01*
X150329400Y-105264500D02*
X150660500Y-104933400D01*
X142487700Y-109245300D02*
X147447900Y-109245300D01*
X150329400Y-107002900D02*
X150329400Y-105264500D01*
X150660500Y-103953400D02*
X152938200Y-101675700D01*
X150660500Y-104933400D02*
X150660500Y-103953400D01*
X158831900Y-99547300D02*
X158299900Y-99015300D01*
D34*
X156594000Y-92343800D02*
X158163000Y-92343800D01*
D33*
X152938200Y-101675700D02*
X157628300Y-101675700D01*
X140929500Y-109701800D02*
X142031200Y-109701800D01*
X148403000Y-108290200D02*
X149042100Y-108290200D01*
D34*
X153138000Y-88887400D02*
X156594000Y-92343800D01*
D33*
X149042100Y-108290200D02*
X150329400Y-107002900D01*
X158299900Y-99015300D02*
X158299900Y-92480700D01*
X142031200Y-109701800D02*
X142487700Y-109245300D01*
X147447900Y-109245300D02*
X148403000Y-108290200D01*
X157628300Y-101675700D02*
X158831900Y-100472100D01*
X158299900Y-92480700D02*
X158163000Y-92343800D01*
%TO.N,/BareMinAtmel328P/PB2-D10-SS*%
X173254300Y-97662100D02*
X173254300Y-91326100D01*
X171485000Y-99115100D02*
X171801300Y-99115100D01*
X161518500Y-87979800D02*
X158163000Y-84624300D01*
X151062200Y-104151600D02*
X152323600Y-102890200D01*
X148687200Y-111140100D02*
X150731100Y-109096200D01*
X169908000Y-87979800D02*
X161518500Y-87979800D01*
X167709900Y-102890200D02*
X171485000Y-99115100D01*
X148549500Y-112241800D02*
X148549500Y-111140100D01*
X171801300Y-99115100D02*
X173254300Y-97662100D01*
X148549500Y-111140100D02*
X148687200Y-111140100D01*
D34*
X153764000Y-80335200D02*
X153764000Y-81149000D01*
X157240000Y-84624300D02*
X158163000Y-84624300D01*
D33*
X150731100Y-105430800D02*
X151062200Y-105099700D01*
X152323600Y-102890200D02*
X167709900Y-102890200D01*
X151062200Y-105099700D02*
X151062200Y-104151600D01*
X173254300Y-91326100D02*
X169908000Y-87979800D01*
D34*
X153764000Y-81149000D02*
X157240000Y-84624300D01*
D33*
X150731100Y-109096200D02*
X150731100Y-105430800D01*
%TO.N,/BareMinAtmel328P/PD3-D3*%
X151159500Y-101906400D02*
X150106600Y-100853500D01*
X150106600Y-100853500D02*
X150106600Y-91914900D01*
X140929500Y-91921800D02*
X142031200Y-91921800D01*
X148859400Y-90667700D02*
X143285300Y-90667700D01*
D34*
X152696000Y-104374000D02*
X156286000Y-107964000D01*
D33*
X143285300Y-90667700D02*
X142031200Y-91921800D01*
D34*
X156286000Y-107964000D02*
X158631000Y-107964000D01*
D33*
X150106600Y-91914900D02*
X148859400Y-90667700D01*
%TO.N,/BareMinAtmel328P/PD5-D5*%
X148905000Y-105835900D02*
X150258700Y-104482200D01*
D34*
X157383000Y-100270000D02*
X158178000Y-100270000D01*
D33*
X140929500Y-107161800D02*
X142031200Y-107161800D01*
D34*
X155563500Y-98450300D02*
X157383000Y-100270000D01*
D33*
X143357100Y-105835900D02*
X148905000Y-105835900D01*
X150258700Y-104482200D02*
X150258700Y-103755200D01*
X150258700Y-103755200D02*
X155563500Y-98450400D01*
D34*
X153981000Y-96169100D02*
X153981000Y-96867700D01*
D33*
X142031200Y-107161800D02*
X143357100Y-105835900D01*
X155563500Y-98450400D02*
X155563500Y-98450300D01*
D34*
X153981000Y-96867700D02*
X155563500Y-98450300D01*
D33*
%TO.N,/BareMinAtmel328P/PC0-A0*%
X136722200Y-95566100D02*
X146343500Y-95566100D01*
X146343500Y-95566100D02*
X147447800Y-94461800D01*
X148549500Y-94461800D02*
X147447800Y-94461800D01*
X135965600Y-94809500D02*
X136722200Y-95566100D01*
D32*
%TO.N,Net-(Q1-Pad3)*%
X135000000Y-70018000D02*
X135000000Y-71952700D01*
X135000000Y-77757100D02*
X136586000Y-79343600D01*
D33*
X135000000Y-71952700D02*
X134999500Y-71952200D01*
X134999500Y-71952200D02*
X134999500Y-70018000D01*
D32*
X135000000Y-71952700D02*
X135000000Y-73887500D01*
X135000000Y-73887500D02*
X135000000Y-77757100D01*
D33*
%TO.N,/BareMinAtmel328P/PB1-D9*%
X147447800Y-114781800D02*
X146343300Y-113677300D01*
X146343300Y-113677300D02*
X139053800Y-113677300D01*
X137926900Y-114804200D02*
X131783200Y-114804200D01*
X139053800Y-113677300D02*
X137926900Y-114804200D01*
X148549500Y-114781800D02*
X147447800Y-114781800D01*
D34*
%TO.N,Net-(U2-XTAL2{slash}PB7)*%
X153179000Y-119114000D02*
X151259300Y-117195300D01*
X153179000Y-121354000D02*
X153179000Y-119114000D01*
%TO.N,Net-(U3-OSC1)*%
X159782000Y-117145000D02*
X154737000Y-112100000D01*
X154737000Y-112100000D02*
X153203400Y-112100000D01*
D32*
%TO.N,Net-(J1-Pin_1)*%
X154748000Y-66384800D02*
X144485000Y-66384800D01*
X138024000Y-81883600D02*
X136586000Y-81883600D01*
X138910000Y-71960500D02*
X138910000Y-80998200D01*
X144485000Y-66384800D02*
X138910000Y-71960500D01*
X138910000Y-80998200D02*
X138024000Y-81883600D01*
D34*
%TO.N,Net-(J5-Pin_2)*%
X139116000Y-59265000D02*
X139116000Y-58710700D01*
X141589800Y-61738300D02*
X139116000Y-59265000D01*
D33*
%TO.N,/Output12v/Out4*%
X159456800Y-82912100D02*
X159456800Y-81600400D01*
X159457000Y-82912300D02*
X159456800Y-82912100D01*
D32*
X159457000Y-82912300D02*
X159457000Y-84557100D01*
X161765000Y-86865600D02*
X171594600Y-86865600D01*
X159457000Y-84557100D02*
X161765000Y-86865600D01*
X159457000Y-81600400D02*
X159457000Y-82912300D01*
%TO.N,/Output12v/Out2*%
X169800000Y-98820200D02*
X171594800Y-97025800D01*
X159570000Y-97215700D02*
X161174000Y-98820200D01*
X161174000Y-98820200D02*
X169800000Y-98820200D01*
%TO.N,/Output12v/Out3*%
X159501200Y-89326600D02*
X161299000Y-91124300D01*
X170773000Y-91124300D02*
X171594800Y-91945400D01*
X161299000Y-91124300D02*
X170773000Y-91124300D01*
%TO.N,/Output12v/Out1*%
X167129000Y-106571000D02*
X171595000Y-102106000D01*
X159570000Y-104967000D02*
X161174000Y-106571000D01*
X161174000Y-106571000D02*
X167129000Y-106571000D01*
D35*
%TO.N,Net-(Q3-Pad1)*%
X155683000Y-103620000D02*
X152383000Y-103620000D01*
X157029900Y-104966800D02*
X155683000Y-103620000D01*
X152383000Y-103620000D02*
X151731000Y-104272000D01*
X151731000Y-104272000D02*
X151731000Y-107964000D01*
D33*
%TO.N,Net-(Q5-Pad1)*%
X151277900Y-99034200D02*
X151277900Y-100269500D01*
D35*
X157029900Y-97215700D02*
X155229000Y-95415100D01*
X151278000Y-97798300D02*
X151278000Y-99034100D01*
X153661000Y-95415100D02*
X151278000Y-97798300D01*
X151278000Y-99034100D02*
X151278000Y-100270000D01*
X155229000Y-95415100D02*
X153661000Y-95415100D01*
D33*
X151278000Y-99034100D02*
X151277900Y-99034200D01*
D35*
%TO.N,Net-(Q7-Pad1)*%
X156961000Y-89326400D02*
X155768000Y-88133400D01*
X152807000Y-88133400D02*
X151263000Y-89677300D01*
X155768000Y-88133400D02*
X152807000Y-88133400D01*
X151263000Y-89677300D02*
X151263000Y-92343800D01*
D33*
%TO.N,Net-(Q9-Pad1)*%
X155907500Y-80590800D02*
X156916800Y-81600100D01*
D35*
X156917000Y-81600400D02*
X155907500Y-80590800D01*
X154898000Y-79581200D02*
X153387000Y-79581200D01*
X153387000Y-79581200D02*
X151263000Y-81705400D01*
X155907500Y-80590800D02*
X154898000Y-79581200D01*
X151263000Y-81705400D02*
X151263000Y-84624300D01*
D34*
%TO.N,Net-(J2-Pin_5)*%
X175501000Y-77879700D02*
X176758000Y-77879700D01*
X171595000Y-79986200D02*
X171595000Y-80885900D01*
X166490000Y-74881200D02*
X166490000Y-72910300D01*
X171595000Y-81785600D02*
X175501000Y-77879700D01*
X166490000Y-74881200D02*
X171595000Y-79986200D01*
%TD*%
M02*
