%TF.GenerationSoftware,KiCad,Pcbnew,8.0.1-rc1*%
%TF.CreationDate,2024-06-22T18:18:56-07:00*%
%TF.ProjectId,AMS - CANBus - RGB - Nchannel,414d5320-2d20-4434-914e-427573202d20,rev?*%
%TF.SameCoordinates,Original*%
%TF.FileFunction,Soldermask,Top*%
%TF.FilePolarity,Negative*%
%FSLAX46Y46*%
G04 Gerber Fmt 4.6, Leading zero omitted, Abs format (unit mm)*
G04 Created by KiCad (PCBNEW 8.0.1-rc1) date 2024-06-22 18:18:56*
%MOMM*%
%LPD*%
G01*
G04 APERTURE LIST*
G04 Aperture macros list*
%AMRoundRect*
0 Rectangle with rounded corners*
0 $1 Rounding radius*
0 $2 $3 $4 $5 $6 $7 $8 $9 X,Y pos of 4 corners*
0 Add a 4 corners polygon primitive as box body*
4,1,4,$2,$3,$4,$5,$6,$7,$8,$9,$2,$3,0*
0 Add four circle primitives for the rounded corners*
1,1,$1+$1,$2,$3*
1,1,$1+$1,$4,$5*
1,1,$1+$1,$6,$7*
1,1,$1+$1,$8,$9*
0 Add four rect primitives between the rounded corners*
20,1,$1+$1,$2,$3,$4,$5,0*
20,1,$1+$1,$4,$5,$6,$7,0*
20,1,$1+$1,$6,$7,$8,$9,0*
20,1,$1+$1,$8,$9,$2,$3,0*%
G04 Aperture macros list end*
%ADD10RoundRect,0.250000X-0.412500X-0.650000X0.412500X-0.650000X0.412500X0.650000X-0.412500X0.650000X0*%
%ADD11R,1.920000X1.920000*%
%ADD12C,1.920000*%
%ADD13C,1.600000*%
%ADD14O,1.600000X1.600000*%
%ADD15R,2.200000X2.200000*%
%ADD16O,2.200000X2.200000*%
%ADD17C,2.200000*%
%ADD18R,2.600000X2.600000*%
%ADD19C,2.600000*%
%ADD20R,1.700000X1.700000*%
%ADD21O,1.700000X1.700000*%
%ADD22C,2.400000*%
%ADD23R,1.150000X1.150000*%
%ADD24C,1.150000*%
%ADD25RoundRect,0.250000X-0.400000X-0.625000X0.400000X-0.625000X0.400000X0.625000X-0.400000X0.625000X0*%
%ADD26R,1.000000X3.150000*%
%ADD27R,1.600000X1.600000*%
%ADD28C,1.500000*%
%ADD29R,1.500000X1.500000*%
%ADD30RoundRect,0.250000X0.412500X0.650000X-0.412500X0.650000X-0.412500X-0.650000X0.412500X-0.650000X0*%
G04 APERTURE END LIST*
D10*
%TO.C,C3*%
X151259400Y-117195200D03*
X154384400Y-117195200D03*
%TD*%
D11*
%TO.C,Q3*%
X157029900Y-104966800D03*
D12*
X159569900Y-104966800D03*
X162109900Y-104966800D03*
%TD*%
D11*
%TO.C,Q5*%
X157029900Y-97215700D03*
D12*
X159569900Y-97215700D03*
X162109900Y-97215700D03*
%TD*%
D13*
%TO.C,R7*%
X139116100Y-58260700D03*
D14*
X141656100Y-58260700D03*
%TD*%
D15*
%TO.C,D2*%
X170632200Y-75831200D03*
D16*
X160472200Y-75831200D03*
%TD*%
D15*
%TO.C,J1*%
X154748000Y-66384800D03*
D17*
X154748000Y-63844800D03*
X154748000Y-61304800D03*
X154748000Y-58764800D03*
%TD*%
D18*
%TO.C,J2*%
X171594600Y-102105600D03*
D19*
X171594600Y-97025600D03*
X171594600Y-91945600D03*
X171594600Y-86865600D03*
X171594600Y-81785600D03*
%TD*%
D13*
%TO.C,NTC1*%
X135965600Y-94809500D03*
D14*
X135965600Y-97349500D03*
%TD*%
D11*
%TO.C,Q7*%
X156961400Y-89326400D03*
D12*
X159501400Y-89326400D03*
X162041400Y-89326400D03*
%TD*%
D20*
%TO.C,J3*%
X146254600Y-120744200D03*
D21*
X143714600Y-120744200D03*
X141174600Y-120744200D03*
X138634600Y-120744200D03*
X136094600Y-120744200D03*
X133554600Y-120744200D03*
%TD*%
D22*
%TO.C,U5*%
X134999500Y-70018000D03*
X134999500Y-73418000D03*
X125079500Y-70018000D03*
X125079500Y-73418000D03*
%TD*%
D23*
%TO.C,Z1*%
X162430500Y-107964000D03*
D24*
X151730500Y-107964000D03*
%TD*%
D25*
%TO.C,R22*%
X152547400Y-74745100D03*
X155647400Y-74745100D03*
%TD*%
D13*
%TO.C,R6*%
X161933600Y-72318900D03*
D14*
X159393600Y-72318900D03*
%TD*%
D11*
%TO.C,Q9*%
X156916800Y-81600400D03*
D12*
X159456800Y-81600400D03*
X161996800Y-81600400D03*
%TD*%
D20*
%TO.C,Powerboard1*%
X130976300Y-92602600D03*
D21*
X130976300Y-90062600D03*
X130976300Y-87522600D03*
%TD*%
D26*
%TO.C,J4*%
X149082300Y-70232000D03*
X149082300Y-75282000D03*
X146542300Y-70232000D03*
X146542300Y-75282000D03*
X144002300Y-70232000D03*
X144002300Y-75282000D03*
%TD*%
D23*
%TO.C,Z2*%
X161977900Y-100269500D03*
D24*
X151277900Y-100269500D03*
%TD*%
D27*
%TO.C,U2*%
X140929500Y-81761800D03*
D14*
X140929500Y-84301800D03*
X140929500Y-86841800D03*
X140929500Y-89381800D03*
X140929500Y-91921800D03*
X140929500Y-94461800D03*
X140929500Y-97001800D03*
X140929500Y-99541800D03*
X140929500Y-102081800D03*
X140929500Y-104621800D03*
X140929500Y-107161800D03*
X140929500Y-109701800D03*
X140929500Y-112241800D03*
X140929500Y-114781800D03*
X148549500Y-114781800D03*
X148549500Y-112241800D03*
X148549500Y-109701800D03*
X148549500Y-107161800D03*
X148549500Y-104621800D03*
X148549500Y-102081800D03*
X148549500Y-99541800D03*
X148549500Y-97001800D03*
X148549500Y-94461800D03*
X148549500Y-91921800D03*
X148549500Y-89381800D03*
X148549500Y-86841800D03*
X148549500Y-84301800D03*
X148549500Y-81761800D03*
%TD*%
D20*
%TO.C,J5*%
X139049600Y-61738500D03*
D21*
X141589600Y-61738500D03*
%TD*%
D11*
%TO.C,Q1*%
X136586000Y-84423600D03*
D12*
X136586000Y-81883600D03*
X136586000Y-79343600D03*
%TD*%
D28*
%TO.C,Y2*%
X153203400Y-112099600D03*
X158083400Y-112099600D03*
%TD*%
D29*
%TO.C,Reset1*%
X135385300Y-113752500D03*
D28*
X128885300Y-113752500D03*
X135385300Y-109252500D03*
X128885300Y-109252500D03*
%TD*%
D30*
%TO.C,C5*%
X159782200Y-117145000D03*
X156657200Y-117145000D03*
%TD*%
D28*
%TO.C,Y1*%
X153178500Y-121354000D03*
X158058500Y-121354000D03*
%TD*%
D25*
%TO.C,C8*%
X166654000Y-72746000D03*
X169754000Y-72746000D03*
%TD*%
D23*
%TO.C,Z4*%
X161963000Y-84624300D03*
D24*
X151263000Y-84624300D03*
%TD*%
D23*
%TO.C,Z3*%
X161963000Y-92343800D03*
D24*
X151263000Y-92343800D03*
%TD*%
M02*
