%TF.GenerationSoftware,KiCad,Pcbnew,8.0.1-rc1*%
%TF.CreationDate,2024-06-16T18:47:49-07:00*%
%TF.ProjectId,AMS - CANBus - RGB - Nchannel,414d5320-2d20-4434-914e-427573202d20,rev?*%
%TF.SameCoordinates,Original*%
%TF.FileFunction,Legend,Top*%
%TF.FilePolarity,Positive*%
%FSLAX46Y46*%
G04 Gerber Fmt 4.6, Leading zero omitted, Abs format (unit mm)*
G04 Created by KiCad (PCBNEW 8.0.1-rc1) date 2024-06-16 18:47:49*
%MOMM*%
%LPD*%
G01*
G04 APERTURE LIST*
G04 Aperture macros list*
%AMRoundRect*
0 Rectangle with rounded corners*
0 $1 Rounding radius*
0 $2 $3 $4 $5 $6 $7 $8 $9 X,Y pos of 4 corners*
0 Add a 4 corners polygon primitive as box body*
4,1,4,$2,$3,$4,$5,$6,$7,$8,$9,$2,$3,0*
0 Add four circle primitives for the rounded corners*
1,1,$1+$1,$2,$3*
1,1,$1+$1,$4,$5*
1,1,$1+$1,$6,$7*
1,1,$1+$1,$8,$9*
0 Add four rect primitives between the rounded corners*
20,1,$1+$1,$2,$3,$4,$5,0*
20,1,$1+$1,$4,$5,$6,$7,0*
20,1,$1+$1,$6,$7,$8,$9,0*
20,1,$1+$1,$8,$9,$2,$3,0*%
G04 Aperture macros list end*
%ADD10C,0.100000*%
%ADD11C,0.150000*%
%ADD12C,0.254000*%
%ADD13C,0.120000*%
%ADD14C,0.200000*%
%ADD15RoundRect,0.250000X-0.412500X-0.650000X0.412500X-0.650000X0.412500X0.650000X-0.412500X0.650000X0*%
%ADD16R,1.920000X1.920000*%
%ADD17C,1.920000*%
%ADD18C,1.600000*%
%ADD19O,1.600000X1.600000*%
%ADD20R,2.200000X2.200000*%
%ADD21O,2.200000X2.200000*%
%ADD22C,2.200000*%
%ADD23R,2.600000X2.600000*%
%ADD24C,2.600000*%
%ADD25R,1.700000X1.700000*%
%ADD26O,1.700000X1.700000*%
%ADD27C,2.400000*%
%ADD28R,1.150000X1.150000*%
%ADD29C,1.150000*%
%ADD30RoundRect,0.250000X-0.400000X-0.625000X0.400000X-0.625000X0.400000X0.625000X-0.400000X0.625000X0*%
%ADD31R,1.000000X3.150000*%
%ADD32R,1.600000X1.600000*%
%ADD33C,1.500000*%
%ADD34R,1.500000X1.500000*%
%ADD35RoundRect,0.250000X0.412500X0.650000X-0.412500X0.650000X-0.412500X-0.650000X0.412500X-0.650000X0*%
G04 APERTURE END LIST*
D10*
X141410522Y-77749485D02*
X141362903Y-77844723D01*
X141362903Y-77844723D02*
X141362903Y-77987580D01*
X141362903Y-77987580D02*
X141410522Y-78130437D01*
X141410522Y-78130437D02*
X141505760Y-78225675D01*
X141505760Y-78225675D02*
X141600998Y-78273294D01*
X141600998Y-78273294D02*
X141791474Y-78320913D01*
X141791474Y-78320913D02*
X141934331Y-78320913D01*
X141934331Y-78320913D02*
X142124807Y-78273294D01*
X142124807Y-78273294D02*
X142220045Y-78225675D01*
X142220045Y-78225675D02*
X142315284Y-78130437D01*
X142315284Y-78130437D02*
X142362903Y-77987580D01*
X142362903Y-77987580D02*
X142362903Y-77892342D01*
X142362903Y-77892342D02*
X142315284Y-77749485D01*
X142315284Y-77749485D02*
X142267664Y-77701866D01*
X142267664Y-77701866D02*
X141934331Y-77701866D01*
X141934331Y-77701866D02*
X141934331Y-77892342D01*
X142362903Y-77273294D02*
X141362903Y-77273294D01*
X141362903Y-77273294D02*
X142362903Y-76701866D01*
X142362903Y-76701866D02*
X141362903Y-76701866D01*
X142362903Y-76225675D02*
X141362903Y-76225675D01*
X141362903Y-76225675D02*
X141362903Y-75987580D01*
X141362903Y-75987580D02*
X141410522Y-75844723D01*
X141410522Y-75844723D02*
X141505760Y-75749485D01*
X141505760Y-75749485D02*
X141600998Y-75701866D01*
X141600998Y-75701866D02*
X141791474Y-75654247D01*
X141791474Y-75654247D02*
X141934331Y-75654247D01*
X141934331Y-75654247D02*
X142124807Y-75701866D01*
X142124807Y-75701866D02*
X142220045Y-75749485D01*
X142220045Y-75749485D02*
X142315284Y-75844723D01*
X142315284Y-75844723D02*
X142362903Y-75987580D01*
X142362903Y-75987580D02*
X142362903Y-76225675D01*
X144448247Y-62516753D02*
X144448247Y-63088181D01*
X144448247Y-62802467D02*
X143448247Y-62802467D01*
X143448247Y-62802467D02*
X143591104Y-62897705D01*
X143591104Y-62897705D02*
X143686342Y-62992943D01*
X143686342Y-62992943D02*
X143733961Y-63088181D01*
X143543485Y-62135800D02*
X143495866Y-62088181D01*
X143495866Y-62088181D02*
X143448247Y-61992943D01*
X143448247Y-61992943D02*
X143448247Y-61754848D01*
X143448247Y-61754848D02*
X143495866Y-61659610D01*
X143495866Y-61659610D02*
X143543485Y-61611991D01*
X143543485Y-61611991D02*
X143638723Y-61564372D01*
X143638723Y-61564372D02*
X143733961Y-61564372D01*
X143733961Y-61564372D02*
X143876818Y-61611991D01*
X143876818Y-61611991D02*
X144448247Y-62183419D01*
X144448247Y-62183419D02*
X144448247Y-61564372D01*
X143448247Y-60945324D02*
X143448247Y-60850086D01*
X143448247Y-60850086D02*
X143495866Y-60754848D01*
X143495866Y-60754848D02*
X143543485Y-60707229D01*
X143543485Y-60707229D02*
X143638723Y-60659610D01*
X143638723Y-60659610D02*
X143829199Y-60611991D01*
X143829199Y-60611991D02*
X144067294Y-60611991D01*
X144067294Y-60611991D02*
X144257770Y-60659610D01*
X144257770Y-60659610D02*
X144353008Y-60707229D01*
X144353008Y-60707229D02*
X144400628Y-60754848D01*
X144400628Y-60754848D02*
X144448247Y-60850086D01*
X144448247Y-60850086D02*
X144448247Y-60945324D01*
X144448247Y-60945324D02*
X144400628Y-61040562D01*
X144400628Y-61040562D02*
X144353008Y-61088181D01*
X144353008Y-61088181D02*
X144257770Y-61135800D01*
X144257770Y-61135800D02*
X144067294Y-61183419D01*
X144067294Y-61183419D02*
X143829199Y-61183419D01*
X143829199Y-61183419D02*
X143638723Y-61135800D01*
X143638723Y-61135800D02*
X143543485Y-61088181D01*
X143543485Y-61088181D02*
X143495866Y-61040562D01*
X143495866Y-61040562D02*
X143448247Y-60945324D01*
X143448247Y-59231038D02*
X143448247Y-59040562D01*
X143448247Y-59040562D02*
X143495866Y-58945324D01*
X143495866Y-58945324D02*
X143591104Y-58850086D01*
X143591104Y-58850086D02*
X143781580Y-58802467D01*
X143781580Y-58802467D02*
X144114913Y-58802467D01*
X144114913Y-58802467D02*
X144305389Y-58850086D01*
X144305389Y-58850086D02*
X144400628Y-58945324D01*
X144400628Y-58945324D02*
X144448247Y-59040562D01*
X144448247Y-59040562D02*
X144448247Y-59231038D01*
X144448247Y-59231038D02*
X144400628Y-59326276D01*
X144400628Y-59326276D02*
X144305389Y-59421514D01*
X144305389Y-59421514D02*
X144114913Y-59469133D01*
X144114913Y-59469133D02*
X143781580Y-59469133D01*
X143781580Y-59469133D02*
X143591104Y-59421514D01*
X143591104Y-59421514D02*
X143495866Y-59326276D01*
X143495866Y-59326276D02*
X143448247Y-59231038D01*
X144448247Y-58373895D02*
X143448247Y-58373895D01*
X144448247Y-57945324D02*
X143924437Y-57945324D01*
X143924437Y-57945324D02*
X143829199Y-57992943D01*
X143829199Y-57992943D02*
X143781580Y-58088181D01*
X143781580Y-58088181D02*
X143781580Y-58231038D01*
X143781580Y-58231038D02*
X143829199Y-58326276D01*
X143829199Y-58326276D02*
X143876818Y-58373895D01*
X144448247Y-57469133D02*
X143781580Y-57469133D01*
X143876818Y-57469133D02*
X143829199Y-57421514D01*
X143829199Y-57421514D02*
X143781580Y-57326276D01*
X143781580Y-57326276D02*
X143781580Y-57183419D01*
X143781580Y-57183419D02*
X143829199Y-57088181D01*
X143829199Y-57088181D02*
X143924437Y-57040562D01*
X143924437Y-57040562D02*
X144448247Y-57040562D01*
X143924437Y-57040562D02*
X143829199Y-56992943D01*
X143829199Y-56992943D02*
X143781580Y-56897705D01*
X143781580Y-56897705D02*
X143781580Y-56754848D01*
X143781580Y-56754848D02*
X143829199Y-56659609D01*
X143829199Y-56659609D02*
X143924437Y-56611990D01*
X143924437Y-56611990D02*
X144448247Y-56611990D01*
X145962952Y-62469134D02*
X146010572Y-62516753D01*
X146010572Y-62516753D02*
X146058191Y-62659610D01*
X146058191Y-62659610D02*
X146058191Y-62754848D01*
X146058191Y-62754848D02*
X146010572Y-62897705D01*
X146010572Y-62897705D02*
X145915333Y-62992943D01*
X145915333Y-62992943D02*
X145820095Y-63040562D01*
X145820095Y-63040562D02*
X145629619Y-63088181D01*
X145629619Y-63088181D02*
X145486762Y-63088181D01*
X145486762Y-63088181D02*
X145296286Y-63040562D01*
X145296286Y-63040562D02*
X145201048Y-62992943D01*
X145201048Y-62992943D02*
X145105810Y-62897705D01*
X145105810Y-62897705D02*
X145058191Y-62754848D01*
X145058191Y-62754848D02*
X145058191Y-62659610D01*
X145058191Y-62659610D02*
X145105810Y-62516753D01*
X145105810Y-62516753D02*
X145153429Y-62469134D01*
X145772476Y-62088181D02*
X145772476Y-61611991D01*
X146058191Y-62183419D02*
X145058191Y-61850086D01*
X145058191Y-61850086D02*
X146058191Y-61516753D01*
X146058191Y-61183419D02*
X145058191Y-61183419D01*
X145058191Y-61183419D02*
X146058191Y-60611991D01*
X146058191Y-60611991D02*
X145058191Y-60611991D01*
X145534381Y-59040562D02*
X145582000Y-58897705D01*
X145582000Y-58897705D02*
X145629619Y-58850086D01*
X145629619Y-58850086D02*
X145724857Y-58802467D01*
X145724857Y-58802467D02*
X145867714Y-58802467D01*
X145867714Y-58802467D02*
X145962952Y-58850086D01*
X145962952Y-58850086D02*
X146010572Y-58897705D01*
X146010572Y-58897705D02*
X146058191Y-58992943D01*
X146058191Y-58992943D02*
X146058191Y-59373895D01*
X146058191Y-59373895D02*
X145058191Y-59373895D01*
X145058191Y-59373895D02*
X145058191Y-59040562D01*
X145058191Y-59040562D02*
X145105810Y-58945324D01*
X145105810Y-58945324D02*
X145153429Y-58897705D01*
X145153429Y-58897705D02*
X145248667Y-58850086D01*
X145248667Y-58850086D02*
X145343905Y-58850086D01*
X145343905Y-58850086D02*
X145439143Y-58897705D01*
X145439143Y-58897705D02*
X145486762Y-58945324D01*
X145486762Y-58945324D02*
X145534381Y-59040562D01*
X145534381Y-59040562D02*
X145534381Y-59373895D01*
X145391524Y-57945324D02*
X146058191Y-57945324D01*
X145391524Y-58373895D02*
X145915333Y-58373895D01*
X145915333Y-58373895D02*
X146010572Y-58326276D01*
X146010572Y-58326276D02*
X146058191Y-58231038D01*
X146058191Y-58231038D02*
X146058191Y-58088181D01*
X146058191Y-58088181D02*
X146010572Y-57992943D01*
X146010572Y-57992943D02*
X145962952Y-57945324D01*
X146010572Y-57516752D02*
X146058191Y-57421514D01*
X146058191Y-57421514D02*
X146058191Y-57231038D01*
X146058191Y-57231038D02*
X146010572Y-57135800D01*
X146010572Y-57135800D02*
X145915333Y-57088181D01*
X145915333Y-57088181D02*
X145867714Y-57088181D01*
X145867714Y-57088181D02*
X145772476Y-57135800D01*
X145772476Y-57135800D02*
X145724857Y-57231038D01*
X145724857Y-57231038D02*
X145724857Y-57373895D01*
X145724857Y-57373895D02*
X145677238Y-57469133D01*
X145677238Y-57469133D02*
X145582000Y-57516752D01*
X145582000Y-57516752D02*
X145534381Y-57516752D01*
X145534381Y-57516752D02*
X145439143Y-57469133D01*
X145439143Y-57469133D02*
X145391524Y-57373895D01*
X145391524Y-57373895D02*
X145391524Y-57231038D01*
X145391524Y-57231038D02*
X145439143Y-57135800D01*
X147668135Y-62469134D02*
X147191944Y-62802467D01*
X147668135Y-63040562D02*
X146668135Y-63040562D01*
X146668135Y-63040562D02*
X146668135Y-62659610D01*
X146668135Y-62659610D02*
X146715754Y-62564372D01*
X146715754Y-62564372D02*
X146763373Y-62516753D01*
X146763373Y-62516753D02*
X146858611Y-62469134D01*
X146858611Y-62469134D02*
X147001468Y-62469134D01*
X147001468Y-62469134D02*
X147096706Y-62516753D01*
X147096706Y-62516753D02*
X147144325Y-62564372D01*
X147144325Y-62564372D02*
X147191944Y-62659610D01*
X147191944Y-62659610D02*
X147191944Y-63040562D01*
X147620516Y-61659610D02*
X147668135Y-61754848D01*
X147668135Y-61754848D02*
X147668135Y-61945324D01*
X147668135Y-61945324D02*
X147620516Y-62040562D01*
X147620516Y-62040562D02*
X147525277Y-62088181D01*
X147525277Y-62088181D02*
X147144325Y-62088181D01*
X147144325Y-62088181D02*
X147049087Y-62040562D01*
X147049087Y-62040562D02*
X147001468Y-61945324D01*
X147001468Y-61945324D02*
X147001468Y-61754848D01*
X147001468Y-61754848D02*
X147049087Y-61659610D01*
X147049087Y-61659610D02*
X147144325Y-61611991D01*
X147144325Y-61611991D02*
X147239563Y-61611991D01*
X147239563Y-61611991D02*
X147334801Y-62088181D01*
X147620516Y-61231038D02*
X147668135Y-61135800D01*
X147668135Y-61135800D02*
X147668135Y-60945324D01*
X147668135Y-60945324D02*
X147620516Y-60850086D01*
X147620516Y-60850086D02*
X147525277Y-60802467D01*
X147525277Y-60802467D02*
X147477658Y-60802467D01*
X147477658Y-60802467D02*
X147382420Y-60850086D01*
X147382420Y-60850086D02*
X147334801Y-60945324D01*
X147334801Y-60945324D02*
X147334801Y-61088181D01*
X147334801Y-61088181D02*
X147287182Y-61183419D01*
X147287182Y-61183419D02*
X147191944Y-61231038D01*
X147191944Y-61231038D02*
X147144325Y-61231038D01*
X147144325Y-61231038D02*
X147049087Y-61183419D01*
X147049087Y-61183419D02*
X147001468Y-61088181D01*
X147001468Y-61088181D02*
X147001468Y-60945324D01*
X147001468Y-60945324D02*
X147049087Y-60850086D01*
X147668135Y-60373895D02*
X147001468Y-60373895D01*
X146668135Y-60373895D02*
X146715754Y-60421514D01*
X146715754Y-60421514D02*
X146763373Y-60373895D01*
X146763373Y-60373895D02*
X146715754Y-60326276D01*
X146715754Y-60326276D02*
X146668135Y-60373895D01*
X146668135Y-60373895D02*
X146763373Y-60373895D01*
X147620516Y-59945324D02*
X147668135Y-59850086D01*
X147668135Y-59850086D02*
X147668135Y-59659610D01*
X147668135Y-59659610D02*
X147620516Y-59564372D01*
X147620516Y-59564372D02*
X147525277Y-59516753D01*
X147525277Y-59516753D02*
X147477658Y-59516753D01*
X147477658Y-59516753D02*
X147382420Y-59564372D01*
X147382420Y-59564372D02*
X147334801Y-59659610D01*
X147334801Y-59659610D02*
X147334801Y-59802467D01*
X147334801Y-59802467D02*
X147287182Y-59897705D01*
X147287182Y-59897705D02*
X147191944Y-59945324D01*
X147191944Y-59945324D02*
X147144325Y-59945324D01*
X147144325Y-59945324D02*
X147049087Y-59897705D01*
X147049087Y-59897705D02*
X147001468Y-59802467D01*
X147001468Y-59802467D02*
X147001468Y-59659610D01*
X147001468Y-59659610D02*
X147049087Y-59564372D01*
X147001468Y-59231038D02*
X147001468Y-58850086D01*
X146668135Y-59088181D02*
X147525277Y-59088181D01*
X147525277Y-59088181D02*
X147620516Y-59040562D01*
X147620516Y-59040562D02*
X147668135Y-58945324D01*
X147668135Y-58945324D02*
X147668135Y-58850086D01*
X147668135Y-58373895D02*
X147620516Y-58469133D01*
X147620516Y-58469133D02*
X147572896Y-58516752D01*
X147572896Y-58516752D02*
X147477658Y-58564371D01*
X147477658Y-58564371D02*
X147191944Y-58564371D01*
X147191944Y-58564371D02*
X147096706Y-58516752D01*
X147096706Y-58516752D02*
X147049087Y-58469133D01*
X147049087Y-58469133D02*
X147001468Y-58373895D01*
X147001468Y-58373895D02*
X147001468Y-58231038D01*
X147001468Y-58231038D02*
X147049087Y-58135800D01*
X147049087Y-58135800D02*
X147096706Y-58088181D01*
X147096706Y-58088181D02*
X147191944Y-58040562D01*
X147191944Y-58040562D02*
X147477658Y-58040562D01*
X147477658Y-58040562D02*
X147572896Y-58088181D01*
X147572896Y-58088181D02*
X147620516Y-58135800D01*
X147620516Y-58135800D02*
X147668135Y-58231038D01*
X147668135Y-58231038D02*
X147668135Y-58373895D01*
X147668135Y-57611990D02*
X147001468Y-57611990D01*
X147191944Y-57611990D02*
X147096706Y-57564371D01*
X147096706Y-57564371D02*
X147049087Y-57516752D01*
X147049087Y-57516752D02*
X147001468Y-57421514D01*
X147001468Y-57421514D02*
X147001468Y-57326276D01*
X177835781Y-96168395D02*
X178026257Y-96168395D01*
X178026257Y-96168395D02*
X178121495Y-96216014D01*
X178121495Y-96216014D02*
X178216733Y-96311252D01*
X178216733Y-96311252D02*
X178264352Y-96501728D01*
X178264352Y-96501728D02*
X178264352Y-96835061D01*
X178264352Y-96835061D02*
X178216733Y-97025537D01*
X178216733Y-97025537D02*
X178121495Y-97120776D01*
X178121495Y-97120776D02*
X178026257Y-97168395D01*
X178026257Y-97168395D02*
X177835781Y-97168395D01*
X177835781Y-97168395D02*
X177740543Y-97120776D01*
X177740543Y-97120776D02*
X177645305Y-97025537D01*
X177645305Y-97025537D02*
X177597686Y-96835061D01*
X177597686Y-96835061D02*
X177597686Y-96501728D01*
X177597686Y-96501728D02*
X177645305Y-96311252D01*
X177645305Y-96311252D02*
X177740543Y-96216014D01*
X177740543Y-96216014D02*
X177835781Y-96168395D01*
X179121495Y-96501728D02*
X179121495Y-97168395D01*
X178692924Y-96501728D02*
X178692924Y-97025537D01*
X178692924Y-97025537D02*
X178740543Y-97120776D01*
X178740543Y-97120776D02*
X178835781Y-97168395D01*
X178835781Y-97168395D02*
X178978638Y-97168395D01*
X178978638Y-97168395D02*
X179073876Y-97120776D01*
X179073876Y-97120776D02*
X179121495Y-97073156D01*
X179454829Y-96501728D02*
X179835781Y-96501728D01*
X179597686Y-96168395D02*
X179597686Y-97025537D01*
X179597686Y-97025537D02*
X179645305Y-97120776D01*
X179645305Y-97120776D02*
X179740543Y-97168395D01*
X179740543Y-97168395D02*
X179835781Y-97168395D01*
X180883401Y-96263633D02*
X180931020Y-96216014D01*
X180931020Y-96216014D02*
X181026258Y-96168395D01*
X181026258Y-96168395D02*
X181264353Y-96168395D01*
X181264353Y-96168395D02*
X181359591Y-96216014D01*
X181359591Y-96216014D02*
X181407210Y-96263633D01*
X181407210Y-96263633D02*
X181454829Y-96358871D01*
X181454829Y-96358871D02*
X181454829Y-96454109D01*
X181454829Y-96454109D02*
X181407210Y-96596966D01*
X181407210Y-96596966D02*
X180835782Y-97168395D01*
X180835782Y-97168395D02*
X181454829Y-97168395D01*
X177986653Y-101423794D02*
X178177129Y-101423794D01*
X178177129Y-101423794D02*
X178272367Y-101471413D01*
X178272367Y-101471413D02*
X178367605Y-101566651D01*
X178367605Y-101566651D02*
X178415224Y-101757127D01*
X178415224Y-101757127D02*
X178415224Y-102090460D01*
X178415224Y-102090460D02*
X178367605Y-102280936D01*
X178367605Y-102280936D02*
X178272367Y-102376175D01*
X178272367Y-102376175D02*
X178177129Y-102423794D01*
X178177129Y-102423794D02*
X177986653Y-102423794D01*
X177986653Y-102423794D02*
X177891415Y-102376175D01*
X177891415Y-102376175D02*
X177796177Y-102280936D01*
X177796177Y-102280936D02*
X177748558Y-102090460D01*
X177748558Y-102090460D02*
X177748558Y-101757127D01*
X177748558Y-101757127D02*
X177796177Y-101566651D01*
X177796177Y-101566651D02*
X177891415Y-101471413D01*
X177891415Y-101471413D02*
X177986653Y-101423794D01*
X179272367Y-101757127D02*
X179272367Y-102423794D01*
X178843796Y-101757127D02*
X178843796Y-102280936D01*
X178843796Y-102280936D02*
X178891415Y-102376175D01*
X178891415Y-102376175D02*
X178986653Y-102423794D01*
X178986653Y-102423794D02*
X179129510Y-102423794D01*
X179129510Y-102423794D02*
X179224748Y-102376175D01*
X179224748Y-102376175D02*
X179272367Y-102328555D01*
X179605701Y-101757127D02*
X179986653Y-101757127D01*
X179748558Y-101423794D02*
X179748558Y-102280936D01*
X179748558Y-102280936D02*
X179796177Y-102376175D01*
X179796177Y-102376175D02*
X179891415Y-102423794D01*
X179891415Y-102423794D02*
X179986653Y-102423794D01*
X181605701Y-102423794D02*
X181034273Y-102423794D01*
X181319987Y-102423794D02*
X181319987Y-101423794D01*
X181319987Y-101423794D02*
X181224749Y-101566651D01*
X181224749Y-101566651D02*
X181129511Y-101661889D01*
X181129511Y-101661889D02*
X181034273Y-101709508D01*
D11*
X158985177Y-61738192D02*
X158947081Y-61776288D01*
X158947081Y-61776288D02*
X158832796Y-61814383D01*
X158832796Y-61814383D02*
X158756605Y-61814383D01*
X158756605Y-61814383D02*
X158642319Y-61776288D01*
X158642319Y-61776288D02*
X158566129Y-61700097D01*
X158566129Y-61700097D02*
X158528034Y-61623907D01*
X158528034Y-61623907D02*
X158489938Y-61471526D01*
X158489938Y-61471526D02*
X158489938Y-61357240D01*
X158489938Y-61357240D02*
X158528034Y-61204859D01*
X158528034Y-61204859D02*
X158566129Y-61128668D01*
X158566129Y-61128668D02*
X158642319Y-61052478D01*
X158642319Y-61052478D02*
X158756605Y-61014383D01*
X158756605Y-61014383D02*
X158832796Y-61014383D01*
X158832796Y-61014383D02*
X158947081Y-61052478D01*
X158947081Y-61052478D02*
X158985177Y-61090573D01*
X159328034Y-61814383D02*
X159328034Y-61014383D01*
X159328034Y-61395335D02*
X159785177Y-61395335D01*
X159785177Y-61814383D02*
X159785177Y-61014383D01*
D10*
X177826354Y-91214744D02*
X178016830Y-91214744D01*
X178016830Y-91214744D02*
X178112068Y-91262363D01*
X178112068Y-91262363D02*
X178207306Y-91357601D01*
X178207306Y-91357601D02*
X178254925Y-91548077D01*
X178254925Y-91548077D02*
X178254925Y-91881410D01*
X178254925Y-91881410D02*
X178207306Y-92071886D01*
X178207306Y-92071886D02*
X178112068Y-92167125D01*
X178112068Y-92167125D02*
X178016830Y-92214744D01*
X178016830Y-92214744D02*
X177826354Y-92214744D01*
X177826354Y-92214744D02*
X177731116Y-92167125D01*
X177731116Y-92167125D02*
X177635878Y-92071886D01*
X177635878Y-92071886D02*
X177588259Y-91881410D01*
X177588259Y-91881410D02*
X177588259Y-91548077D01*
X177588259Y-91548077D02*
X177635878Y-91357601D01*
X177635878Y-91357601D02*
X177731116Y-91262363D01*
X177731116Y-91262363D02*
X177826354Y-91214744D01*
X179112068Y-91548077D02*
X179112068Y-92214744D01*
X178683497Y-91548077D02*
X178683497Y-92071886D01*
X178683497Y-92071886D02*
X178731116Y-92167125D01*
X178731116Y-92167125D02*
X178826354Y-92214744D01*
X178826354Y-92214744D02*
X178969211Y-92214744D01*
X178969211Y-92214744D02*
X179064449Y-92167125D01*
X179064449Y-92167125D02*
X179112068Y-92119505D01*
X179445402Y-91548077D02*
X179826354Y-91548077D01*
X179588259Y-91214744D02*
X179588259Y-92071886D01*
X179588259Y-92071886D02*
X179635878Y-92167125D01*
X179635878Y-92167125D02*
X179731116Y-92214744D01*
X179731116Y-92214744D02*
X179826354Y-92214744D01*
X180826355Y-91214744D02*
X181445402Y-91214744D01*
X181445402Y-91214744D02*
X181112069Y-91595696D01*
X181112069Y-91595696D02*
X181254926Y-91595696D01*
X181254926Y-91595696D02*
X181350164Y-91643315D01*
X181350164Y-91643315D02*
X181397783Y-91690934D01*
X181397783Y-91690934D02*
X181445402Y-91786172D01*
X181445402Y-91786172D02*
X181445402Y-92024267D01*
X181445402Y-92024267D02*
X181397783Y-92119505D01*
X181397783Y-92119505D02*
X181350164Y-92167125D01*
X181350164Y-92167125D02*
X181254926Y-92214744D01*
X181254926Y-92214744D02*
X180969212Y-92214744D01*
X180969212Y-92214744D02*
X180873974Y-92167125D01*
X180873974Y-92167125D02*
X180826355Y-92119505D01*
D11*
X159064918Y-59026987D02*
X159026822Y-59065083D01*
X159026822Y-59065083D02*
X158912537Y-59103178D01*
X158912537Y-59103178D02*
X158836346Y-59103178D01*
X158836346Y-59103178D02*
X158722060Y-59065083D01*
X158722060Y-59065083D02*
X158645870Y-58988892D01*
X158645870Y-58988892D02*
X158607775Y-58912702D01*
X158607775Y-58912702D02*
X158569679Y-58760321D01*
X158569679Y-58760321D02*
X158569679Y-58646035D01*
X158569679Y-58646035D02*
X158607775Y-58493654D01*
X158607775Y-58493654D02*
X158645870Y-58417463D01*
X158645870Y-58417463D02*
X158722060Y-58341273D01*
X158722060Y-58341273D02*
X158836346Y-58303178D01*
X158836346Y-58303178D02*
X158912537Y-58303178D01*
X158912537Y-58303178D02*
X159026822Y-58341273D01*
X159026822Y-58341273D02*
X159064918Y-58379368D01*
X159788727Y-59103178D02*
X159407775Y-59103178D01*
X159407775Y-59103178D02*
X159407775Y-58303178D01*
D10*
X150917110Y-78408065D02*
X150964729Y-78265208D01*
X150964729Y-78265208D02*
X150964729Y-78027113D01*
X150964729Y-78027113D02*
X150917110Y-77931875D01*
X150917110Y-77931875D02*
X150869490Y-77884256D01*
X150869490Y-77884256D02*
X150774252Y-77836637D01*
X150774252Y-77836637D02*
X150679014Y-77836637D01*
X150679014Y-77836637D02*
X150583776Y-77884256D01*
X150583776Y-77884256D02*
X150536157Y-77931875D01*
X150536157Y-77931875D02*
X150488538Y-78027113D01*
X150488538Y-78027113D02*
X150440919Y-78217589D01*
X150440919Y-78217589D02*
X150393300Y-78312827D01*
X150393300Y-78312827D02*
X150345681Y-78360446D01*
X150345681Y-78360446D02*
X150250443Y-78408065D01*
X150250443Y-78408065D02*
X150155205Y-78408065D01*
X150155205Y-78408065D02*
X150059967Y-78360446D01*
X150059967Y-78360446D02*
X150012348Y-78312827D01*
X150012348Y-78312827D02*
X149964729Y-78217589D01*
X149964729Y-78217589D02*
X149964729Y-77979494D01*
X149964729Y-77979494D02*
X150012348Y-77836637D01*
X150869490Y-76836637D02*
X150917110Y-76884256D01*
X150917110Y-76884256D02*
X150964729Y-77027113D01*
X150964729Y-77027113D02*
X150964729Y-77122351D01*
X150964729Y-77122351D02*
X150917110Y-77265208D01*
X150917110Y-77265208D02*
X150821871Y-77360446D01*
X150821871Y-77360446D02*
X150726633Y-77408065D01*
X150726633Y-77408065D02*
X150536157Y-77455684D01*
X150536157Y-77455684D02*
X150393300Y-77455684D01*
X150393300Y-77455684D02*
X150202824Y-77408065D01*
X150202824Y-77408065D02*
X150107586Y-77360446D01*
X150107586Y-77360446D02*
X150012348Y-77265208D01*
X150012348Y-77265208D02*
X149964729Y-77122351D01*
X149964729Y-77122351D02*
X149964729Y-77027113D01*
X149964729Y-77027113D02*
X150012348Y-76884256D01*
X150012348Y-76884256D02*
X150059967Y-76836637D01*
X150964729Y-76408065D02*
X149964729Y-76408065D01*
X150964729Y-75836637D02*
X150393300Y-76265208D01*
X149964729Y-75836637D02*
X150536157Y-76408065D01*
D11*
X145611056Y-122262439D02*
X145534866Y-122224344D01*
X145534866Y-122224344D02*
X145420580Y-122224344D01*
X145420580Y-122224344D02*
X145306294Y-122262439D01*
X145306294Y-122262439D02*
X145230104Y-122338629D01*
X145230104Y-122338629D02*
X145192009Y-122414820D01*
X145192009Y-122414820D02*
X145153913Y-122567201D01*
X145153913Y-122567201D02*
X145153913Y-122681487D01*
X145153913Y-122681487D02*
X145192009Y-122833868D01*
X145192009Y-122833868D02*
X145230104Y-122910058D01*
X145230104Y-122910058D02*
X145306294Y-122986249D01*
X145306294Y-122986249D02*
X145420580Y-123024344D01*
X145420580Y-123024344D02*
X145496771Y-123024344D01*
X145496771Y-123024344D02*
X145611056Y-122986249D01*
X145611056Y-122986249D02*
X145649152Y-122948153D01*
X145649152Y-122948153D02*
X145649152Y-122681487D01*
X145649152Y-122681487D02*
X145496771Y-122681487D01*
X145992009Y-123024344D02*
X145992009Y-122224344D01*
X145992009Y-122224344D02*
X146449152Y-123024344D01*
X146449152Y-123024344D02*
X146449152Y-122224344D01*
X146830104Y-123024344D02*
X146830104Y-122224344D01*
X146830104Y-122224344D02*
X147020580Y-122224344D01*
X147020580Y-122224344D02*
X147134866Y-122262439D01*
X147134866Y-122262439D02*
X147211056Y-122338629D01*
X147211056Y-122338629D02*
X147249151Y-122414820D01*
X147249151Y-122414820D02*
X147287247Y-122567201D01*
X147287247Y-122567201D02*
X147287247Y-122681487D01*
X147287247Y-122681487D02*
X147249151Y-122833868D01*
X147249151Y-122833868D02*
X147211056Y-122910058D01*
X147211056Y-122910058D02*
X147134866Y-122986249D01*
X147134866Y-122986249D02*
X147020580Y-123024344D01*
X147020580Y-123024344D02*
X146830104Y-123024344D01*
X133025328Y-123051094D02*
X132758661Y-122670141D01*
X132568185Y-123051094D02*
X132568185Y-122251094D01*
X132568185Y-122251094D02*
X132872947Y-122251094D01*
X132872947Y-122251094D02*
X132949137Y-122289189D01*
X132949137Y-122289189D02*
X132987232Y-122327284D01*
X132987232Y-122327284D02*
X133025328Y-122403475D01*
X133025328Y-122403475D02*
X133025328Y-122517760D01*
X133025328Y-122517760D02*
X132987232Y-122593951D01*
X132987232Y-122593951D02*
X132949137Y-122632046D01*
X132949137Y-122632046D02*
X132872947Y-122670141D01*
X132872947Y-122670141D02*
X132568185Y-122670141D01*
X133330089Y-123012999D02*
X133444375Y-123051094D01*
X133444375Y-123051094D02*
X133634851Y-123051094D01*
X133634851Y-123051094D02*
X133711042Y-123012999D01*
X133711042Y-123012999D02*
X133749137Y-122974903D01*
X133749137Y-122974903D02*
X133787232Y-122898713D01*
X133787232Y-122898713D02*
X133787232Y-122822522D01*
X133787232Y-122822522D02*
X133749137Y-122746332D01*
X133749137Y-122746332D02*
X133711042Y-122708237D01*
X133711042Y-122708237D02*
X133634851Y-122670141D01*
X133634851Y-122670141D02*
X133482470Y-122632046D01*
X133482470Y-122632046D02*
X133406280Y-122593951D01*
X133406280Y-122593951D02*
X133368185Y-122555856D01*
X133368185Y-122555856D02*
X133330089Y-122479665D01*
X133330089Y-122479665D02*
X133330089Y-122403475D01*
X133330089Y-122403475D02*
X133368185Y-122327284D01*
X133368185Y-122327284D02*
X133406280Y-122289189D01*
X133406280Y-122289189D02*
X133482470Y-122251094D01*
X133482470Y-122251094D02*
X133672947Y-122251094D01*
X133672947Y-122251094D02*
X133787232Y-122289189D01*
X134015804Y-122251094D02*
X134472947Y-122251094D01*
X134244375Y-123051094D02*
X134244375Y-122251094D01*
X141028495Y-122251094D02*
X140647543Y-122251094D01*
X140647543Y-122251094D02*
X140609447Y-122632046D01*
X140609447Y-122632046D02*
X140647543Y-122593951D01*
X140647543Y-122593951D02*
X140723733Y-122555856D01*
X140723733Y-122555856D02*
X140914209Y-122555856D01*
X140914209Y-122555856D02*
X140990400Y-122593951D01*
X140990400Y-122593951D02*
X141028495Y-122632046D01*
X141028495Y-122632046D02*
X141066590Y-122708237D01*
X141066590Y-122708237D02*
X141066590Y-122898713D01*
X141066590Y-122898713D02*
X141028495Y-122974903D01*
X141028495Y-122974903D02*
X140990400Y-123012999D01*
X140990400Y-123012999D02*
X140914209Y-123051094D01*
X140914209Y-123051094D02*
X140723733Y-123051094D01*
X140723733Y-123051094D02*
X140647543Y-123012999D01*
X140647543Y-123012999D02*
X140609447Y-122974903D01*
X141295162Y-122251094D02*
X141561829Y-123051094D01*
X141561829Y-123051094D02*
X141828495Y-122251094D01*
D10*
X177756017Y-82252955D02*
X177756017Y-81252955D01*
X178232207Y-81586288D02*
X178232207Y-82252955D01*
X178232207Y-81681526D02*
X178279826Y-81633907D01*
X178279826Y-81633907D02*
X178375064Y-81586288D01*
X178375064Y-81586288D02*
X178517921Y-81586288D01*
X178517921Y-81586288D02*
X178613159Y-81633907D01*
X178613159Y-81633907D02*
X178660778Y-81729145D01*
X178660778Y-81729145D02*
X178660778Y-82252955D01*
X180422683Y-82252955D02*
X179851255Y-82252955D01*
X180136969Y-82252955D02*
X180136969Y-81252955D01*
X180136969Y-81252955D02*
X180041731Y-81395812D01*
X180041731Y-81395812D02*
X179946493Y-81491050D01*
X179946493Y-81491050D02*
X179851255Y-81538669D01*
X144268809Y-68393689D02*
X143268809Y-68393689D01*
X143268809Y-68393689D02*
X143983094Y-68060356D01*
X143983094Y-68060356D02*
X143268809Y-67727023D01*
X143268809Y-67727023D02*
X144268809Y-67727023D01*
X143268809Y-67060356D02*
X143268809Y-66869880D01*
X143268809Y-66869880D02*
X143316428Y-66774642D01*
X143316428Y-66774642D02*
X143411666Y-66679404D01*
X143411666Y-66679404D02*
X143602142Y-66631785D01*
X143602142Y-66631785D02*
X143935475Y-66631785D01*
X143935475Y-66631785D02*
X144125951Y-66679404D01*
X144125951Y-66679404D02*
X144221190Y-66774642D01*
X144221190Y-66774642D02*
X144268809Y-66869880D01*
X144268809Y-66869880D02*
X144268809Y-67060356D01*
X144268809Y-67060356D02*
X144221190Y-67155594D01*
X144221190Y-67155594D02*
X144125951Y-67250832D01*
X144125951Y-67250832D02*
X143935475Y-67298451D01*
X143935475Y-67298451D02*
X143602142Y-67298451D01*
X143602142Y-67298451D02*
X143411666Y-67250832D01*
X143411666Y-67250832D02*
X143316428Y-67155594D01*
X143316428Y-67155594D02*
X143268809Y-67060356D01*
X144221190Y-66250832D02*
X144268809Y-66107975D01*
X144268809Y-66107975D02*
X144268809Y-65869880D01*
X144268809Y-65869880D02*
X144221190Y-65774642D01*
X144221190Y-65774642D02*
X144173570Y-65727023D01*
X144173570Y-65727023D02*
X144078332Y-65679404D01*
X144078332Y-65679404D02*
X143983094Y-65679404D01*
X143983094Y-65679404D02*
X143887856Y-65727023D01*
X143887856Y-65727023D02*
X143840237Y-65774642D01*
X143840237Y-65774642D02*
X143792618Y-65869880D01*
X143792618Y-65869880D02*
X143744999Y-66060356D01*
X143744999Y-66060356D02*
X143697380Y-66155594D01*
X143697380Y-66155594D02*
X143649761Y-66203213D01*
X143649761Y-66203213D02*
X143554523Y-66250832D01*
X143554523Y-66250832D02*
X143459285Y-66250832D01*
X143459285Y-66250832D02*
X143364047Y-66203213D01*
X143364047Y-66203213D02*
X143316428Y-66155594D01*
X143316428Y-66155594D02*
X143268809Y-66060356D01*
X143268809Y-66060356D02*
X143268809Y-65822261D01*
X143268809Y-65822261D02*
X143316428Y-65679404D01*
X144268809Y-65250832D02*
X143268809Y-65250832D01*
D11*
X158867340Y-63444718D02*
X158791150Y-63406623D01*
X158791150Y-63406623D02*
X158676864Y-63406623D01*
X158676864Y-63406623D02*
X158562578Y-63444718D01*
X158562578Y-63444718D02*
X158486388Y-63520908D01*
X158486388Y-63520908D02*
X158448293Y-63597099D01*
X158448293Y-63597099D02*
X158410197Y-63749480D01*
X158410197Y-63749480D02*
X158410197Y-63863766D01*
X158410197Y-63863766D02*
X158448293Y-64016147D01*
X158448293Y-64016147D02*
X158486388Y-64092337D01*
X158486388Y-64092337D02*
X158562578Y-64168528D01*
X158562578Y-64168528D02*
X158676864Y-64206623D01*
X158676864Y-64206623D02*
X158753055Y-64206623D01*
X158753055Y-64206623D02*
X158867340Y-64168528D01*
X158867340Y-64168528D02*
X158905436Y-64130432D01*
X158905436Y-64130432D02*
X158905436Y-63863766D01*
X158905436Y-63863766D02*
X158753055Y-63863766D01*
X159248293Y-64206623D02*
X159248293Y-63406623D01*
X159248293Y-63406623D02*
X159705436Y-64206623D01*
X159705436Y-64206623D02*
X159705436Y-63406623D01*
X160086388Y-64206623D02*
X160086388Y-63406623D01*
X160086388Y-63406623D02*
X160276864Y-63406623D01*
X160276864Y-63406623D02*
X160391150Y-63444718D01*
X160391150Y-63444718D02*
X160467340Y-63520908D01*
X160467340Y-63520908D02*
X160505435Y-63597099D01*
X160505435Y-63597099D02*
X160543531Y-63749480D01*
X160543531Y-63749480D02*
X160543531Y-63863766D01*
X160543531Y-63863766D02*
X160505435Y-64016147D01*
X160505435Y-64016147D02*
X160467340Y-64092337D01*
X160467340Y-64092337D02*
X160391150Y-64168528D01*
X160391150Y-64168528D02*
X160276864Y-64206623D01*
X160276864Y-64206623D02*
X160086388Y-64206623D01*
X138490776Y-123038588D02*
X138224109Y-122657635D01*
X138033633Y-123038588D02*
X138033633Y-122238588D01*
X138033633Y-122238588D02*
X138338395Y-122238588D01*
X138338395Y-122238588D02*
X138414585Y-122276683D01*
X138414585Y-122276683D02*
X138452680Y-122314778D01*
X138452680Y-122314778D02*
X138490776Y-122390969D01*
X138490776Y-122390969D02*
X138490776Y-122505254D01*
X138490776Y-122505254D02*
X138452680Y-122581445D01*
X138452680Y-122581445D02*
X138414585Y-122619540D01*
X138414585Y-122619540D02*
X138338395Y-122657635D01*
X138338395Y-122657635D02*
X138033633Y-122657635D01*
X138757442Y-122238588D02*
X139290776Y-123038588D01*
X139290776Y-122238588D02*
X138757442Y-123038588D01*
D10*
X127440402Y-87108479D02*
X127345164Y-87060860D01*
X127345164Y-87060860D02*
X127202307Y-87060860D01*
X127202307Y-87060860D02*
X127059450Y-87108479D01*
X127059450Y-87108479D02*
X126964212Y-87203717D01*
X126964212Y-87203717D02*
X126916593Y-87298955D01*
X126916593Y-87298955D02*
X126868974Y-87489431D01*
X126868974Y-87489431D02*
X126868974Y-87632288D01*
X126868974Y-87632288D02*
X126916593Y-87822764D01*
X126916593Y-87822764D02*
X126964212Y-87918002D01*
X126964212Y-87918002D02*
X127059450Y-88013241D01*
X127059450Y-88013241D02*
X127202307Y-88060860D01*
X127202307Y-88060860D02*
X127297545Y-88060860D01*
X127297545Y-88060860D02*
X127440402Y-88013241D01*
X127440402Y-88013241D02*
X127488021Y-87965621D01*
X127488021Y-87965621D02*
X127488021Y-87632288D01*
X127488021Y-87632288D02*
X127297545Y-87632288D01*
X127916593Y-88060860D02*
X127916593Y-87060860D01*
X127916593Y-87060860D02*
X128488021Y-88060860D01*
X128488021Y-88060860D02*
X128488021Y-87060860D01*
X128964212Y-88060860D02*
X128964212Y-87060860D01*
X128964212Y-87060860D02*
X129202307Y-87060860D01*
X129202307Y-87060860D02*
X129345164Y-87108479D01*
X129345164Y-87108479D02*
X129440402Y-87203717D01*
X129440402Y-87203717D02*
X129488021Y-87298955D01*
X129488021Y-87298955D02*
X129535640Y-87489431D01*
X129535640Y-87489431D02*
X129535640Y-87632288D01*
X129535640Y-87632288D02*
X129488021Y-87822764D01*
X129488021Y-87822764D02*
X129440402Y-87918002D01*
X129440402Y-87918002D02*
X129345164Y-88013241D01*
X129345164Y-88013241D02*
X129202307Y-88060860D01*
X129202307Y-88060860D02*
X128964212Y-88060860D01*
D11*
X135493039Y-122263601D02*
X135950182Y-122263601D01*
X135721610Y-123063601D02*
X135721610Y-122263601D01*
X136140658Y-122263601D02*
X136673992Y-123063601D01*
X136673992Y-122263601D02*
X136140658Y-123063601D01*
X158867340Y-66997570D02*
X158410197Y-66997570D01*
X158638769Y-66997570D02*
X158638769Y-66197570D01*
X158638769Y-66197570D02*
X158562578Y-66311855D01*
X158562578Y-66311855D02*
X158486388Y-66388046D01*
X158486388Y-66388046D02*
X158410197Y-66426141D01*
X159172102Y-66273760D02*
X159210198Y-66235665D01*
X159210198Y-66235665D02*
X159286388Y-66197570D01*
X159286388Y-66197570D02*
X159476864Y-66197570D01*
X159476864Y-66197570D02*
X159553055Y-66235665D01*
X159553055Y-66235665D02*
X159591150Y-66273760D01*
X159591150Y-66273760D02*
X159629245Y-66349951D01*
X159629245Y-66349951D02*
X159629245Y-66426141D01*
X159629245Y-66426141D02*
X159591150Y-66540427D01*
X159591150Y-66540427D02*
X159134007Y-66997570D01*
X159134007Y-66997570D02*
X159629245Y-66997570D01*
X159857817Y-66197570D02*
X160124484Y-66997570D01*
X160124484Y-66997570D02*
X160391150Y-66197570D01*
D10*
X144417976Y-124828480D02*
X144894166Y-124828480D01*
X144322738Y-125114195D02*
X144656071Y-124114195D01*
X144656071Y-124114195D02*
X144989404Y-125114195D01*
X145322738Y-125114195D02*
X145322738Y-124114195D01*
X145322738Y-124114195D02*
X145656071Y-124828480D01*
X145656071Y-124828480D02*
X145989404Y-124114195D01*
X145989404Y-124114195D02*
X145989404Y-125114195D01*
X146417976Y-125066576D02*
X146560833Y-125114195D01*
X146560833Y-125114195D02*
X146798928Y-125114195D01*
X146798928Y-125114195D02*
X146894166Y-125066576D01*
X146894166Y-125066576D02*
X146941785Y-125018956D01*
X146941785Y-125018956D02*
X146989404Y-124923718D01*
X146989404Y-124923718D02*
X146989404Y-124828480D01*
X146989404Y-124828480D02*
X146941785Y-124733242D01*
X146941785Y-124733242D02*
X146894166Y-124685623D01*
X146894166Y-124685623D02*
X146798928Y-124638004D01*
X146798928Y-124638004D02*
X146608452Y-124590385D01*
X146608452Y-124590385D02*
X146513214Y-124542766D01*
X146513214Y-124542766D02*
X146465595Y-124495147D01*
X146465595Y-124495147D02*
X146417976Y-124399909D01*
X146417976Y-124399909D02*
X146417976Y-124304671D01*
X146417976Y-124304671D02*
X146465595Y-124209433D01*
X146465595Y-124209433D02*
X146513214Y-124161814D01*
X146513214Y-124161814D02*
X146608452Y-124114195D01*
X146608452Y-124114195D02*
X146846547Y-124114195D01*
X146846547Y-124114195D02*
X146989404Y-124161814D01*
X148751309Y-125018956D02*
X148703690Y-125066576D01*
X148703690Y-125066576D02*
X148560833Y-125114195D01*
X148560833Y-125114195D02*
X148465595Y-125114195D01*
X148465595Y-125114195D02*
X148322738Y-125066576D01*
X148322738Y-125066576D02*
X148227500Y-124971337D01*
X148227500Y-124971337D02*
X148179881Y-124876099D01*
X148179881Y-124876099D02*
X148132262Y-124685623D01*
X148132262Y-124685623D02*
X148132262Y-124542766D01*
X148132262Y-124542766D02*
X148179881Y-124352290D01*
X148179881Y-124352290D02*
X148227500Y-124257052D01*
X148227500Y-124257052D02*
X148322738Y-124161814D01*
X148322738Y-124161814D02*
X148465595Y-124114195D01*
X148465595Y-124114195D02*
X148560833Y-124114195D01*
X148560833Y-124114195D02*
X148703690Y-124161814D01*
X148703690Y-124161814D02*
X148751309Y-124209433D01*
X149132262Y-124828480D02*
X149608452Y-124828480D01*
X149037024Y-125114195D02*
X149370357Y-124114195D01*
X149370357Y-124114195D02*
X149703690Y-125114195D01*
X150037024Y-125114195D02*
X150037024Y-124114195D01*
X150037024Y-124114195D02*
X150608452Y-125114195D01*
X150608452Y-125114195D02*
X150608452Y-124114195D01*
X151417976Y-124590385D02*
X151560833Y-124638004D01*
X151560833Y-124638004D02*
X151608452Y-124685623D01*
X151608452Y-124685623D02*
X151656071Y-124780861D01*
X151656071Y-124780861D02*
X151656071Y-124923718D01*
X151656071Y-124923718D02*
X151608452Y-125018956D01*
X151608452Y-125018956D02*
X151560833Y-125066576D01*
X151560833Y-125066576D02*
X151465595Y-125114195D01*
X151465595Y-125114195D02*
X151084643Y-125114195D01*
X151084643Y-125114195D02*
X151084643Y-124114195D01*
X151084643Y-124114195D02*
X151417976Y-124114195D01*
X151417976Y-124114195D02*
X151513214Y-124161814D01*
X151513214Y-124161814D02*
X151560833Y-124209433D01*
X151560833Y-124209433D02*
X151608452Y-124304671D01*
X151608452Y-124304671D02*
X151608452Y-124399909D01*
X151608452Y-124399909D02*
X151560833Y-124495147D01*
X151560833Y-124495147D02*
X151513214Y-124542766D01*
X151513214Y-124542766D02*
X151417976Y-124590385D01*
X151417976Y-124590385D02*
X151084643Y-124590385D01*
X152513214Y-124447528D02*
X152513214Y-125114195D01*
X152084643Y-124447528D02*
X152084643Y-124971337D01*
X152084643Y-124971337D02*
X152132262Y-125066576D01*
X152132262Y-125066576D02*
X152227500Y-125114195D01*
X152227500Y-125114195D02*
X152370357Y-125114195D01*
X152370357Y-125114195D02*
X152465595Y-125066576D01*
X152465595Y-125066576D02*
X152513214Y-125018956D01*
X152941786Y-125066576D02*
X153037024Y-125114195D01*
X153037024Y-125114195D02*
X153227500Y-125114195D01*
X153227500Y-125114195D02*
X153322738Y-125066576D01*
X153322738Y-125066576D02*
X153370357Y-124971337D01*
X153370357Y-124971337D02*
X153370357Y-124923718D01*
X153370357Y-124923718D02*
X153322738Y-124828480D01*
X153322738Y-124828480D02*
X153227500Y-124780861D01*
X153227500Y-124780861D02*
X153084643Y-124780861D01*
X153084643Y-124780861D02*
X152989405Y-124733242D01*
X152989405Y-124733242D02*
X152941786Y-124638004D01*
X152941786Y-124638004D02*
X152941786Y-124590385D01*
X152941786Y-124590385D02*
X152989405Y-124495147D01*
X152989405Y-124495147D02*
X153084643Y-124447528D01*
X153084643Y-124447528D02*
X153227500Y-124447528D01*
X153227500Y-124447528D02*
X153322738Y-124495147D01*
X145037023Y-126724139D02*
X144703690Y-126247948D01*
X144465595Y-126724139D02*
X144465595Y-125724139D01*
X144465595Y-125724139D02*
X144846547Y-125724139D01*
X144846547Y-125724139D02*
X144941785Y-125771758D01*
X144941785Y-125771758D02*
X144989404Y-125819377D01*
X144989404Y-125819377D02*
X145037023Y-125914615D01*
X145037023Y-125914615D02*
X145037023Y-126057472D01*
X145037023Y-126057472D02*
X144989404Y-126152710D01*
X144989404Y-126152710D02*
X144941785Y-126200329D01*
X144941785Y-126200329D02*
X144846547Y-126247948D01*
X144846547Y-126247948D02*
X144465595Y-126247948D01*
X145989404Y-125771758D02*
X145894166Y-125724139D01*
X145894166Y-125724139D02*
X145751309Y-125724139D01*
X145751309Y-125724139D02*
X145608452Y-125771758D01*
X145608452Y-125771758D02*
X145513214Y-125866996D01*
X145513214Y-125866996D02*
X145465595Y-125962234D01*
X145465595Y-125962234D02*
X145417976Y-126152710D01*
X145417976Y-126152710D02*
X145417976Y-126295567D01*
X145417976Y-126295567D02*
X145465595Y-126486043D01*
X145465595Y-126486043D02*
X145513214Y-126581281D01*
X145513214Y-126581281D02*
X145608452Y-126676520D01*
X145608452Y-126676520D02*
X145751309Y-126724139D01*
X145751309Y-126724139D02*
X145846547Y-126724139D01*
X145846547Y-126724139D02*
X145989404Y-126676520D01*
X145989404Y-126676520D02*
X146037023Y-126628900D01*
X146037023Y-126628900D02*
X146037023Y-126295567D01*
X146037023Y-126295567D02*
X145846547Y-126295567D01*
X146798928Y-126200329D02*
X146941785Y-126247948D01*
X146941785Y-126247948D02*
X146989404Y-126295567D01*
X146989404Y-126295567D02*
X147037023Y-126390805D01*
X147037023Y-126390805D02*
X147037023Y-126533662D01*
X147037023Y-126533662D02*
X146989404Y-126628900D01*
X146989404Y-126628900D02*
X146941785Y-126676520D01*
X146941785Y-126676520D02*
X146846547Y-126724139D01*
X146846547Y-126724139D02*
X146465595Y-126724139D01*
X146465595Y-126724139D02*
X146465595Y-125724139D01*
X146465595Y-125724139D02*
X146798928Y-125724139D01*
X146798928Y-125724139D02*
X146894166Y-125771758D01*
X146894166Y-125771758D02*
X146941785Y-125819377D01*
X146941785Y-125819377D02*
X146989404Y-125914615D01*
X146989404Y-125914615D02*
X146989404Y-126009853D01*
X146989404Y-126009853D02*
X146941785Y-126105091D01*
X146941785Y-126105091D02*
X146894166Y-126152710D01*
X146894166Y-126152710D02*
X146798928Y-126200329D01*
X146798928Y-126200329D02*
X146465595Y-126200329D01*
X148227500Y-126724139D02*
X148227500Y-125724139D01*
X148227500Y-125724139D02*
X148798928Y-126724139D01*
X148798928Y-126724139D02*
X148798928Y-125724139D01*
X149846547Y-126628900D02*
X149798928Y-126676520D01*
X149798928Y-126676520D02*
X149656071Y-126724139D01*
X149656071Y-126724139D02*
X149560833Y-126724139D01*
X149560833Y-126724139D02*
X149417976Y-126676520D01*
X149417976Y-126676520D02*
X149322738Y-126581281D01*
X149322738Y-126581281D02*
X149275119Y-126486043D01*
X149275119Y-126486043D02*
X149227500Y-126295567D01*
X149227500Y-126295567D02*
X149227500Y-126152710D01*
X149227500Y-126152710D02*
X149275119Y-125962234D01*
X149275119Y-125962234D02*
X149322738Y-125866996D01*
X149322738Y-125866996D02*
X149417976Y-125771758D01*
X149417976Y-125771758D02*
X149560833Y-125724139D01*
X149560833Y-125724139D02*
X149656071Y-125724139D01*
X149656071Y-125724139D02*
X149798928Y-125771758D01*
X149798928Y-125771758D02*
X149846547Y-125819377D01*
X150275119Y-126724139D02*
X150275119Y-125724139D01*
X150703690Y-126724139D02*
X150703690Y-126200329D01*
X150703690Y-126200329D02*
X150656071Y-126105091D01*
X150656071Y-126105091D02*
X150560833Y-126057472D01*
X150560833Y-126057472D02*
X150417976Y-126057472D01*
X150417976Y-126057472D02*
X150322738Y-126105091D01*
X150322738Y-126105091D02*
X150275119Y-126152710D01*
X151608452Y-126724139D02*
X151608452Y-126200329D01*
X151608452Y-126200329D02*
X151560833Y-126105091D01*
X151560833Y-126105091D02*
X151465595Y-126057472D01*
X151465595Y-126057472D02*
X151275119Y-126057472D01*
X151275119Y-126057472D02*
X151179881Y-126105091D01*
X151608452Y-126676520D02*
X151513214Y-126724139D01*
X151513214Y-126724139D02*
X151275119Y-126724139D01*
X151275119Y-126724139D02*
X151179881Y-126676520D01*
X151179881Y-126676520D02*
X151132262Y-126581281D01*
X151132262Y-126581281D02*
X151132262Y-126486043D01*
X151132262Y-126486043D02*
X151179881Y-126390805D01*
X151179881Y-126390805D02*
X151275119Y-126343186D01*
X151275119Y-126343186D02*
X151513214Y-126343186D01*
X151513214Y-126343186D02*
X151608452Y-126295567D01*
X152084643Y-126057472D02*
X152084643Y-126724139D01*
X152084643Y-126152710D02*
X152132262Y-126105091D01*
X152132262Y-126105091D02*
X152227500Y-126057472D01*
X152227500Y-126057472D02*
X152370357Y-126057472D01*
X152370357Y-126057472D02*
X152465595Y-126105091D01*
X152465595Y-126105091D02*
X152513214Y-126200329D01*
X152513214Y-126200329D02*
X152513214Y-126724139D01*
X152989405Y-126057472D02*
X152989405Y-126724139D01*
X152989405Y-126152710D02*
X153037024Y-126105091D01*
X153037024Y-126105091D02*
X153132262Y-126057472D01*
X153132262Y-126057472D02*
X153275119Y-126057472D01*
X153275119Y-126057472D02*
X153370357Y-126105091D01*
X153370357Y-126105091D02*
X153417976Y-126200329D01*
X153417976Y-126200329D02*
X153417976Y-126724139D01*
X154275119Y-126676520D02*
X154179881Y-126724139D01*
X154179881Y-126724139D02*
X153989405Y-126724139D01*
X153989405Y-126724139D02*
X153894167Y-126676520D01*
X153894167Y-126676520D02*
X153846548Y-126581281D01*
X153846548Y-126581281D02*
X153846548Y-126200329D01*
X153846548Y-126200329D02*
X153894167Y-126105091D01*
X153894167Y-126105091D02*
X153989405Y-126057472D01*
X153989405Y-126057472D02*
X154179881Y-126057472D01*
X154179881Y-126057472D02*
X154275119Y-126105091D01*
X154275119Y-126105091D02*
X154322738Y-126200329D01*
X154322738Y-126200329D02*
X154322738Y-126295567D01*
X154322738Y-126295567D02*
X153846548Y-126390805D01*
X154894167Y-126724139D02*
X154798929Y-126676520D01*
X154798929Y-126676520D02*
X154751310Y-126581281D01*
X154751310Y-126581281D02*
X154751310Y-125724139D01*
X155894168Y-125724139D02*
X156227501Y-126724139D01*
X156227501Y-126724139D02*
X156560834Y-125724139D01*
X157417977Y-126724139D02*
X156846549Y-126724139D01*
X157132263Y-126724139D02*
X157132263Y-125724139D01*
X157132263Y-125724139D02*
X157037025Y-125866996D01*
X157037025Y-125866996D02*
X156941787Y-125962234D01*
X156941787Y-125962234D02*
X156846549Y-126009853D01*
X157846549Y-126628900D02*
X157894168Y-126676520D01*
X157894168Y-126676520D02*
X157846549Y-126724139D01*
X157846549Y-126724139D02*
X157798930Y-126676520D01*
X157798930Y-126676520D02*
X157846549Y-126628900D01*
X157846549Y-126628900D02*
X157846549Y-126724139D01*
X158513215Y-125724139D02*
X158608453Y-125724139D01*
X158608453Y-125724139D02*
X158703691Y-125771758D01*
X158703691Y-125771758D02*
X158751310Y-125819377D01*
X158751310Y-125819377D02*
X158798929Y-125914615D01*
X158798929Y-125914615D02*
X158846548Y-126105091D01*
X158846548Y-126105091D02*
X158846548Y-126343186D01*
X158846548Y-126343186D02*
X158798929Y-126533662D01*
X158798929Y-126533662D02*
X158751310Y-126628900D01*
X158751310Y-126628900D02*
X158703691Y-126676520D01*
X158703691Y-126676520D02*
X158608453Y-126724139D01*
X158608453Y-126724139D02*
X158513215Y-126724139D01*
X158513215Y-126724139D02*
X158417977Y-126676520D01*
X158417977Y-126676520D02*
X158370358Y-126628900D01*
X158370358Y-126628900D02*
X158322739Y-126533662D01*
X158322739Y-126533662D02*
X158275120Y-126343186D01*
X158275120Y-126343186D02*
X158275120Y-126105091D01*
X158275120Y-126105091D02*
X158322739Y-125914615D01*
X158322739Y-125914615D02*
X158370358Y-125819377D01*
X158370358Y-125819377D02*
X158417977Y-125771758D01*
X158417977Y-125771758D02*
X158513215Y-125724139D01*
X160608453Y-126724139D02*
X160275120Y-126247948D01*
X160037025Y-126724139D02*
X160037025Y-125724139D01*
X160037025Y-125724139D02*
X160417977Y-125724139D01*
X160417977Y-125724139D02*
X160513215Y-125771758D01*
X160513215Y-125771758D02*
X160560834Y-125819377D01*
X160560834Y-125819377D02*
X160608453Y-125914615D01*
X160608453Y-125914615D02*
X160608453Y-126057472D01*
X160608453Y-126057472D02*
X160560834Y-126152710D01*
X160560834Y-126152710D02*
X160513215Y-126200329D01*
X160513215Y-126200329D02*
X160417977Y-126247948D01*
X160417977Y-126247948D02*
X160037025Y-126247948D01*
X161417977Y-126676520D02*
X161322739Y-126724139D01*
X161322739Y-126724139D02*
X161132263Y-126724139D01*
X161132263Y-126724139D02*
X161037025Y-126676520D01*
X161037025Y-126676520D02*
X160989406Y-126581281D01*
X160989406Y-126581281D02*
X160989406Y-126200329D01*
X160989406Y-126200329D02*
X161037025Y-126105091D01*
X161037025Y-126105091D02*
X161132263Y-126057472D01*
X161132263Y-126057472D02*
X161322739Y-126057472D01*
X161322739Y-126057472D02*
X161417977Y-126105091D01*
X161417977Y-126105091D02*
X161465596Y-126200329D01*
X161465596Y-126200329D02*
X161465596Y-126295567D01*
X161465596Y-126295567D02*
X160989406Y-126390805D01*
X161798930Y-126057472D02*
X162037025Y-126724139D01*
X162037025Y-126724139D02*
X162275120Y-126057472D01*
X163370359Y-126438424D02*
X163846549Y-126438424D01*
X163275121Y-126724139D02*
X163608454Y-125724139D01*
X163608454Y-125724139D02*
X163941787Y-126724139D01*
X127871801Y-89691196D02*
X127395611Y-89691196D01*
X127395611Y-89691196D02*
X127347992Y-90167386D01*
X127347992Y-90167386D02*
X127395611Y-90119767D01*
X127395611Y-90119767D02*
X127490849Y-90072148D01*
X127490849Y-90072148D02*
X127728944Y-90072148D01*
X127728944Y-90072148D02*
X127824182Y-90119767D01*
X127824182Y-90119767D02*
X127871801Y-90167386D01*
X127871801Y-90167386D02*
X127919420Y-90262624D01*
X127919420Y-90262624D02*
X127919420Y-90500719D01*
X127919420Y-90500719D02*
X127871801Y-90595957D01*
X127871801Y-90595957D02*
X127824182Y-90643577D01*
X127824182Y-90643577D02*
X127728944Y-90691196D01*
X127728944Y-90691196D02*
X127490849Y-90691196D01*
X127490849Y-90691196D02*
X127395611Y-90643577D01*
X127395611Y-90643577D02*
X127347992Y-90595957D01*
X128205135Y-89691196D02*
X128538468Y-90691196D01*
X128538468Y-90691196D02*
X128871801Y-89691196D01*
X138702322Y-74346403D02*
X138702322Y-73727356D01*
X138702322Y-73727356D02*
X139083274Y-74060689D01*
X139083274Y-74060689D02*
X139083274Y-73917832D01*
X139083274Y-73917832D02*
X139130893Y-73822594D01*
X139130893Y-73822594D02*
X139178512Y-73774975D01*
X139178512Y-73774975D02*
X139273750Y-73727356D01*
X139273750Y-73727356D02*
X139511845Y-73727356D01*
X139511845Y-73727356D02*
X139607083Y-73774975D01*
X139607083Y-73774975D02*
X139654703Y-73822594D01*
X139654703Y-73822594D02*
X139702322Y-73917832D01*
X139702322Y-73917832D02*
X139702322Y-74203546D01*
X139702322Y-74203546D02*
X139654703Y-74298784D01*
X139654703Y-74298784D02*
X139607083Y-74346403D01*
X139416607Y-72584498D02*
X139416607Y-72108308D01*
X139702322Y-72679736D02*
X138702322Y-72346403D01*
X138702322Y-72346403D02*
X139702322Y-72013070D01*
X139702322Y-71679736D02*
X139035655Y-71679736D01*
X139130893Y-71679736D02*
X139083274Y-71632117D01*
X139083274Y-71632117D02*
X139035655Y-71536879D01*
X139035655Y-71536879D02*
X139035655Y-71394022D01*
X139035655Y-71394022D02*
X139083274Y-71298784D01*
X139083274Y-71298784D02*
X139178512Y-71251165D01*
X139178512Y-71251165D02*
X139702322Y-71251165D01*
X139178512Y-71251165D02*
X139083274Y-71203546D01*
X139083274Y-71203546D02*
X139035655Y-71108308D01*
X139035655Y-71108308D02*
X139035655Y-70965451D01*
X139035655Y-70965451D02*
X139083274Y-70870212D01*
X139083274Y-70870212D02*
X139178512Y-70822593D01*
X139178512Y-70822593D02*
X139702322Y-70822593D01*
X139035655Y-70346403D02*
X140035655Y-70346403D01*
X139083274Y-70346403D02*
X139035655Y-70251165D01*
X139035655Y-70251165D02*
X139035655Y-70060689D01*
X139035655Y-70060689D02*
X139083274Y-69965451D01*
X139083274Y-69965451D02*
X139130893Y-69917832D01*
X139130893Y-69917832D02*
X139226131Y-69870213D01*
X139226131Y-69870213D02*
X139511845Y-69870213D01*
X139511845Y-69870213D02*
X139607083Y-69917832D01*
X139607083Y-69917832D02*
X139654703Y-69965451D01*
X139654703Y-69965451D02*
X139702322Y-70060689D01*
X139702322Y-70060689D02*
X139702322Y-70251165D01*
X139702322Y-70251165D02*
X139654703Y-70346403D01*
X177826354Y-86160509D02*
X178016830Y-86160509D01*
X178016830Y-86160509D02*
X178112068Y-86208128D01*
X178112068Y-86208128D02*
X178207306Y-86303366D01*
X178207306Y-86303366D02*
X178254925Y-86493842D01*
X178254925Y-86493842D02*
X178254925Y-86827175D01*
X178254925Y-86827175D02*
X178207306Y-87017651D01*
X178207306Y-87017651D02*
X178112068Y-87112890D01*
X178112068Y-87112890D02*
X178016830Y-87160509D01*
X178016830Y-87160509D02*
X177826354Y-87160509D01*
X177826354Y-87160509D02*
X177731116Y-87112890D01*
X177731116Y-87112890D02*
X177635878Y-87017651D01*
X177635878Y-87017651D02*
X177588259Y-86827175D01*
X177588259Y-86827175D02*
X177588259Y-86493842D01*
X177588259Y-86493842D02*
X177635878Y-86303366D01*
X177635878Y-86303366D02*
X177731116Y-86208128D01*
X177731116Y-86208128D02*
X177826354Y-86160509D01*
X179112068Y-86493842D02*
X179112068Y-87160509D01*
X178683497Y-86493842D02*
X178683497Y-87017651D01*
X178683497Y-87017651D02*
X178731116Y-87112890D01*
X178731116Y-87112890D02*
X178826354Y-87160509D01*
X178826354Y-87160509D02*
X178969211Y-87160509D01*
X178969211Y-87160509D02*
X179064449Y-87112890D01*
X179064449Y-87112890D02*
X179112068Y-87065270D01*
X179445402Y-86493842D02*
X179826354Y-86493842D01*
X179588259Y-86160509D02*
X179588259Y-87017651D01*
X179588259Y-87017651D02*
X179635878Y-87112890D01*
X179635878Y-87112890D02*
X179731116Y-87160509D01*
X179731116Y-87160509D02*
X179826354Y-87160509D01*
X181350164Y-86493842D02*
X181350164Y-87160509D01*
X181112069Y-86112890D02*
X180873974Y-86827175D01*
X180873974Y-86827175D02*
X181493021Y-86827175D01*
X126891081Y-92056423D02*
X127224414Y-93056423D01*
X127224414Y-93056423D02*
X127557747Y-92056423D01*
X127891081Y-93056423D02*
X127891081Y-92056423D01*
X127891081Y-92056423D02*
X128129176Y-92056423D01*
X128129176Y-92056423D02*
X128272033Y-92104042D01*
X128272033Y-92104042D02*
X128367271Y-92199280D01*
X128367271Y-92199280D02*
X128414890Y-92294518D01*
X128414890Y-92294518D02*
X128462509Y-92484994D01*
X128462509Y-92484994D02*
X128462509Y-92627851D01*
X128462509Y-92627851D02*
X128414890Y-92818327D01*
X128414890Y-92818327D02*
X128367271Y-92913565D01*
X128367271Y-92913565D02*
X128272033Y-93008804D01*
X128272033Y-93008804D02*
X128129176Y-93056423D01*
X128129176Y-93056423D02*
X127891081Y-93056423D01*
X129462509Y-92961184D02*
X129414890Y-93008804D01*
X129414890Y-93008804D02*
X129272033Y-93056423D01*
X129272033Y-93056423D02*
X129176795Y-93056423D01*
X129176795Y-93056423D02*
X129033938Y-93008804D01*
X129033938Y-93008804D02*
X128938700Y-92913565D01*
X128938700Y-92913565D02*
X128891081Y-92818327D01*
X128891081Y-92818327D02*
X128843462Y-92627851D01*
X128843462Y-92627851D02*
X128843462Y-92484994D01*
X128843462Y-92484994D02*
X128891081Y-92294518D01*
X128891081Y-92294518D02*
X128938700Y-92199280D01*
X128938700Y-92199280D02*
X129033938Y-92104042D01*
X129033938Y-92104042D02*
X129176795Y-92056423D01*
X129176795Y-92056423D02*
X129272033Y-92056423D01*
X129272033Y-92056423D02*
X129414890Y-92104042D01*
X129414890Y-92104042D02*
X129462509Y-92151661D01*
X149007097Y-68251164D02*
X148007097Y-68251164D01*
X148007097Y-68251164D02*
X148721382Y-67917831D01*
X148721382Y-67917831D02*
X148007097Y-67584498D01*
X148007097Y-67584498D02*
X149007097Y-67584498D01*
X149007097Y-67108307D02*
X148007097Y-67108307D01*
X148959478Y-66679736D02*
X149007097Y-66536879D01*
X149007097Y-66536879D02*
X149007097Y-66298784D01*
X149007097Y-66298784D02*
X148959478Y-66203546D01*
X148959478Y-66203546D02*
X148911858Y-66155927D01*
X148911858Y-66155927D02*
X148816620Y-66108308D01*
X148816620Y-66108308D02*
X148721382Y-66108308D01*
X148721382Y-66108308D02*
X148626144Y-66155927D01*
X148626144Y-66155927D02*
X148578525Y-66203546D01*
X148578525Y-66203546D02*
X148530906Y-66298784D01*
X148530906Y-66298784D02*
X148483287Y-66489260D01*
X148483287Y-66489260D02*
X148435668Y-66584498D01*
X148435668Y-66584498D02*
X148388049Y-66632117D01*
X148388049Y-66632117D02*
X148292811Y-66679736D01*
X148292811Y-66679736D02*
X148197573Y-66679736D01*
X148197573Y-66679736D02*
X148102335Y-66632117D01*
X148102335Y-66632117D02*
X148054716Y-66584498D01*
X148054716Y-66584498D02*
X148007097Y-66489260D01*
X148007097Y-66489260D02*
X148007097Y-66251165D01*
X148007097Y-66251165D02*
X148054716Y-66108308D01*
X148007097Y-65489260D02*
X148007097Y-65298784D01*
X148007097Y-65298784D02*
X148054716Y-65203546D01*
X148054716Y-65203546D02*
X148149954Y-65108308D01*
X148149954Y-65108308D02*
X148340430Y-65060689D01*
X148340430Y-65060689D02*
X148673763Y-65060689D01*
X148673763Y-65060689D02*
X148864239Y-65108308D01*
X148864239Y-65108308D02*
X148959478Y-65203546D01*
X148959478Y-65203546D02*
X149007097Y-65298784D01*
X149007097Y-65298784D02*
X149007097Y-65489260D01*
X149007097Y-65489260D02*
X148959478Y-65584498D01*
X148959478Y-65584498D02*
X148864239Y-65679736D01*
X148864239Y-65679736D02*
X148673763Y-65727355D01*
X148673763Y-65727355D02*
X148340430Y-65727355D01*
X148340430Y-65727355D02*
X148149954Y-65679736D01*
X148149954Y-65679736D02*
X148054716Y-65584498D01*
X148054716Y-65584498D02*
X148007097Y-65489260D01*
X146465340Y-67734202D02*
X145989149Y-68067535D01*
X146465340Y-68305630D02*
X145465340Y-68305630D01*
X145465340Y-68305630D02*
X145465340Y-67924678D01*
X145465340Y-67924678D02*
X145512959Y-67829440D01*
X145512959Y-67829440D02*
X145560578Y-67781821D01*
X145560578Y-67781821D02*
X145655816Y-67734202D01*
X145655816Y-67734202D02*
X145798673Y-67734202D01*
X145798673Y-67734202D02*
X145893911Y-67781821D01*
X145893911Y-67781821D02*
X145941530Y-67829440D01*
X145941530Y-67829440D02*
X145989149Y-67924678D01*
X145989149Y-67924678D02*
X145989149Y-68305630D01*
X145941530Y-67305630D02*
X145941530Y-66972297D01*
X146465340Y-66829440D02*
X146465340Y-67305630D01*
X146465340Y-67305630D02*
X145465340Y-67305630D01*
X145465340Y-67305630D02*
X145465340Y-66829440D01*
X146417721Y-66448487D02*
X146465340Y-66305630D01*
X146465340Y-66305630D02*
X146465340Y-66067535D01*
X146465340Y-66067535D02*
X146417721Y-65972297D01*
X146417721Y-65972297D02*
X146370101Y-65924678D01*
X146370101Y-65924678D02*
X146274863Y-65877059D01*
X146274863Y-65877059D02*
X146179625Y-65877059D01*
X146179625Y-65877059D02*
X146084387Y-65924678D01*
X146084387Y-65924678D02*
X146036768Y-65972297D01*
X146036768Y-65972297D02*
X145989149Y-66067535D01*
X145989149Y-66067535D02*
X145941530Y-66258011D01*
X145941530Y-66258011D02*
X145893911Y-66353249D01*
X145893911Y-66353249D02*
X145846292Y-66400868D01*
X145846292Y-66400868D02*
X145751054Y-66448487D01*
X145751054Y-66448487D02*
X145655816Y-66448487D01*
X145655816Y-66448487D02*
X145560578Y-66400868D01*
X145560578Y-66400868D02*
X145512959Y-66353249D01*
X145512959Y-66353249D02*
X145465340Y-66258011D01*
X145465340Y-66258011D02*
X145465340Y-66019916D01*
X145465340Y-66019916D02*
X145512959Y-65877059D01*
X145941530Y-65448487D02*
X145941530Y-65115154D01*
X146465340Y-64972297D02*
X146465340Y-65448487D01*
X146465340Y-65448487D02*
X145465340Y-65448487D01*
X145465340Y-65448487D02*
X145465340Y-64972297D01*
X145465340Y-64686582D02*
X145465340Y-64115154D01*
X146465340Y-64400868D02*
X145465340Y-64400868D01*
X144538293Y-77988737D02*
X144538293Y-78464927D01*
X144538293Y-78464927D02*
X145014483Y-78512546D01*
X145014483Y-78512546D02*
X144966864Y-78464927D01*
X144966864Y-78464927D02*
X144919245Y-78369689D01*
X144919245Y-78369689D02*
X144919245Y-78131594D01*
X144919245Y-78131594D02*
X144966864Y-78036356D01*
X144966864Y-78036356D02*
X145014483Y-77988737D01*
X145014483Y-77988737D02*
X145109721Y-77941118D01*
X145109721Y-77941118D02*
X145347816Y-77941118D01*
X145347816Y-77941118D02*
X145443054Y-77988737D01*
X145443054Y-77988737D02*
X145490674Y-78036356D01*
X145490674Y-78036356D02*
X145538293Y-78131594D01*
X145538293Y-78131594D02*
X145538293Y-78369689D01*
X145538293Y-78369689D02*
X145490674Y-78464927D01*
X145490674Y-78464927D02*
X145443054Y-78512546D01*
X144538293Y-77655403D02*
X145538293Y-77322070D01*
X145538293Y-77322070D02*
X144538293Y-76988737D01*
D11*
X149052776Y-117609189D02*
X149005157Y-117656809D01*
X149005157Y-117656809D02*
X148862300Y-117704428D01*
X148862300Y-117704428D02*
X148767062Y-117704428D01*
X148767062Y-117704428D02*
X148624205Y-117656809D01*
X148624205Y-117656809D02*
X148528967Y-117561570D01*
X148528967Y-117561570D02*
X148481348Y-117466332D01*
X148481348Y-117466332D02*
X148433729Y-117275856D01*
X148433729Y-117275856D02*
X148433729Y-117132999D01*
X148433729Y-117132999D02*
X148481348Y-116942523D01*
X148481348Y-116942523D02*
X148528967Y-116847285D01*
X148528967Y-116847285D02*
X148624205Y-116752047D01*
X148624205Y-116752047D02*
X148767062Y-116704428D01*
X148767062Y-116704428D02*
X148862300Y-116704428D01*
X148862300Y-116704428D02*
X149005157Y-116752047D01*
X149005157Y-116752047D02*
X149052776Y-116799666D01*
X149386110Y-116704428D02*
X150005157Y-116704428D01*
X150005157Y-116704428D02*
X149671824Y-117085380D01*
X149671824Y-117085380D02*
X149814681Y-117085380D01*
X149814681Y-117085380D02*
X149909919Y-117132999D01*
X149909919Y-117132999D02*
X149957538Y-117180618D01*
X149957538Y-117180618D02*
X150005157Y-117275856D01*
X150005157Y-117275856D02*
X150005157Y-117513951D01*
X150005157Y-117513951D02*
X149957538Y-117609189D01*
X149957538Y-117609189D02*
X149909919Y-117656809D01*
X149909919Y-117656809D02*
X149814681Y-117704428D01*
X149814681Y-117704428D02*
X149528967Y-117704428D01*
X149528967Y-117704428D02*
X149433729Y-117656809D01*
X149433729Y-117656809D02*
X149386110Y-117609189D01*
D12*
X152676439Y-106136397D02*
X152555487Y-106075921D01*
X152555487Y-106075921D02*
X152434534Y-105954969D01*
X152434534Y-105954969D02*
X152253106Y-105773540D01*
X152253106Y-105773540D02*
X152132153Y-105713064D01*
X152132153Y-105713064D02*
X152011201Y-105713064D01*
X152071677Y-106015445D02*
X151950725Y-105954969D01*
X151950725Y-105954969D02*
X151829772Y-105834016D01*
X151829772Y-105834016D02*
X151769296Y-105592111D01*
X151769296Y-105592111D02*
X151769296Y-105168778D01*
X151769296Y-105168778D02*
X151829772Y-104926873D01*
X151829772Y-104926873D02*
X151950725Y-104805921D01*
X151950725Y-104805921D02*
X152071677Y-104745445D01*
X152071677Y-104745445D02*
X152313582Y-104745445D01*
X152313582Y-104745445D02*
X152434534Y-104805921D01*
X152434534Y-104805921D02*
X152555487Y-104926873D01*
X152555487Y-104926873D02*
X152615963Y-105168778D01*
X152615963Y-105168778D02*
X152615963Y-105592111D01*
X152615963Y-105592111D02*
X152555487Y-105834016D01*
X152555487Y-105834016D02*
X152434534Y-105954969D01*
X152434534Y-105954969D02*
X152313582Y-106015445D01*
X152313582Y-106015445D02*
X152071677Y-106015445D01*
X153039296Y-104745445D02*
X153825487Y-104745445D01*
X153825487Y-104745445D02*
X153402153Y-105229254D01*
X153402153Y-105229254D02*
X153583582Y-105229254D01*
X153583582Y-105229254D02*
X153704534Y-105289730D01*
X153704534Y-105289730D02*
X153765010Y-105350207D01*
X153765010Y-105350207D02*
X153825487Y-105471159D01*
X153825487Y-105471159D02*
X153825487Y-105773540D01*
X153825487Y-105773540D02*
X153765010Y-105894492D01*
X153765010Y-105894492D02*
X153704534Y-105954969D01*
X153704534Y-105954969D02*
X153583582Y-106015445D01*
X153583582Y-106015445D02*
X153220725Y-106015445D01*
X153220725Y-106015445D02*
X153099772Y-105954969D01*
X153099772Y-105954969D02*
X153039296Y-105894492D01*
X152950245Y-99035586D02*
X152829293Y-98975110D01*
X152829293Y-98975110D02*
X152708340Y-98854158D01*
X152708340Y-98854158D02*
X152526912Y-98672729D01*
X152526912Y-98672729D02*
X152405959Y-98612253D01*
X152405959Y-98612253D02*
X152285007Y-98612253D01*
X152345483Y-98914634D02*
X152224531Y-98854158D01*
X152224531Y-98854158D02*
X152103578Y-98733205D01*
X152103578Y-98733205D02*
X152043102Y-98491300D01*
X152043102Y-98491300D02*
X152043102Y-98067967D01*
X152043102Y-98067967D02*
X152103578Y-97826062D01*
X152103578Y-97826062D02*
X152224531Y-97705110D01*
X152224531Y-97705110D02*
X152345483Y-97644634D01*
X152345483Y-97644634D02*
X152587388Y-97644634D01*
X152587388Y-97644634D02*
X152708340Y-97705110D01*
X152708340Y-97705110D02*
X152829293Y-97826062D01*
X152829293Y-97826062D02*
X152889769Y-98067967D01*
X152889769Y-98067967D02*
X152889769Y-98491300D01*
X152889769Y-98491300D02*
X152829293Y-98733205D01*
X152829293Y-98733205D02*
X152708340Y-98854158D01*
X152708340Y-98854158D02*
X152587388Y-98914634D01*
X152587388Y-98914634D02*
X152345483Y-98914634D01*
X154038816Y-97644634D02*
X153434054Y-97644634D01*
X153434054Y-97644634D02*
X153373578Y-98249396D01*
X153373578Y-98249396D02*
X153434054Y-98188919D01*
X153434054Y-98188919D02*
X153555007Y-98128443D01*
X153555007Y-98128443D02*
X153857388Y-98128443D01*
X153857388Y-98128443D02*
X153978340Y-98188919D01*
X153978340Y-98188919D02*
X154038816Y-98249396D01*
X154038816Y-98249396D02*
X154099293Y-98370348D01*
X154099293Y-98370348D02*
X154099293Y-98672729D01*
X154099293Y-98672729D02*
X154038816Y-98793681D01*
X154038816Y-98793681D02*
X153978340Y-98854158D01*
X153978340Y-98854158D02*
X153857388Y-98914634D01*
X153857388Y-98914634D02*
X153555007Y-98914634D01*
X153555007Y-98914634D02*
X153434054Y-98854158D01*
X153434054Y-98854158D02*
X153373578Y-98793681D01*
D11*
X136261071Y-58774688D02*
X135927738Y-58298497D01*
X135689643Y-58774688D02*
X135689643Y-57774688D01*
X135689643Y-57774688D02*
X136070595Y-57774688D01*
X136070595Y-57774688D02*
X136165833Y-57822307D01*
X136165833Y-57822307D02*
X136213452Y-57869926D01*
X136213452Y-57869926D02*
X136261071Y-57965164D01*
X136261071Y-57965164D02*
X136261071Y-58108021D01*
X136261071Y-58108021D02*
X136213452Y-58203259D01*
X136213452Y-58203259D02*
X136165833Y-58250878D01*
X136165833Y-58250878D02*
X136070595Y-58298497D01*
X136070595Y-58298497D02*
X135689643Y-58298497D01*
X136594405Y-57774688D02*
X137261071Y-57774688D01*
X137261071Y-57774688D02*
X136832500Y-58774688D01*
X171276218Y-74293537D02*
X171276218Y-73293537D01*
X171276218Y-73293537D02*
X171514313Y-73293537D01*
X171514313Y-73293537D02*
X171657170Y-73341156D01*
X171657170Y-73341156D02*
X171752408Y-73436394D01*
X171752408Y-73436394D02*
X171800027Y-73531632D01*
X171800027Y-73531632D02*
X171847646Y-73722108D01*
X171847646Y-73722108D02*
X171847646Y-73864965D01*
X171847646Y-73864965D02*
X171800027Y-74055441D01*
X171800027Y-74055441D02*
X171752408Y-74150679D01*
X171752408Y-74150679D02*
X171657170Y-74245918D01*
X171657170Y-74245918D02*
X171514313Y-74293537D01*
X171514313Y-74293537D02*
X171276218Y-74293537D01*
X172228599Y-73388775D02*
X172276218Y-73341156D01*
X172276218Y-73341156D02*
X172371456Y-73293537D01*
X172371456Y-73293537D02*
X172609551Y-73293537D01*
X172609551Y-73293537D02*
X172704789Y-73341156D01*
X172704789Y-73341156D02*
X172752408Y-73388775D01*
X172752408Y-73388775D02*
X172800027Y-73484013D01*
X172800027Y-73484013D02*
X172800027Y-73579251D01*
X172800027Y-73579251D02*
X172752408Y-73722108D01*
X172752408Y-73722108D02*
X172180980Y-74293537D01*
X172180980Y-74293537D02*
X172800027Y-74293537D01*
X170370295Y-78386019D02*
X170370295Y-77386019D01*
X170941723Y-78386019D02*
X170513152Y-77814590D01*
X170941723Y-77386019D02*
X170370295Y-77957447D01*
X150042819Y-62908133D02*
X150757104Y-62908133D01*
X150757104Y-62908133D02*
X150899961Y-62955752D01*
X150899961Y-62955752D02*
X150995200Y-63050990D01*
X150995200Y-63050990D02*
X151042819Y-63193847D01*
X151042819Y-63193847D02*
X151042819Y-63289085D01*
X151042819Y-61908133D02*
X151042819Y-62479561D01*
X151042819Y-62193847D02*
X150042819Y-62193847D01*
X150042819Y-62193847D02*
X150185676Y-62289085D01*
X150185676Y-62289085D02*
X150280914Y-62384323D01*
X150280914Y-62384323D02*
X150328533Y-62479561D01*
X171228430Y-106629827D02*
X171942715Y-106629827D01*
X171942715Y-106629827D02*
X172085572Y-106677446D01*
X172085572Y-106677446D02*
X172180811Y-106772684D01*
X172180811Y-106772684D02*
X172228430Y-106915541D01*
X172228430Y-106915541D02*
X172228430Y-107010779D01*
X171323668Y-106201255D02*
X171276049Y-106153636D01*
X171276049Y-106153636D02*
X171228430Y-106058398D01*
X171228430Y-106058398D02*
X171228430Y-105820303D01*
X171228430Y-105820303D02*
X171276049Y-105725065D01*
X171276049Y-105725065D02*
X171323668Y-105677446D01*
X171323668Y-105677446D02*
X171418906Y-105629827D01*
X171418906Y-105629827D02*
X171514144Y-105629827D01*
X171514144Y-105629827D02*
X171657001Y-105677446D01*
X171657001Y-105677446D02*
X172228430Y-106248874D01*
X172228430Y-106248874D02*
X172228430Y-105629827D01*
X138790419Y-97722356D02*
X137790419Y-97722356D01*
X137790419Y-97722356D02*
X138790419Y-97150928D01*
X138790419Y-97150928D02*
X137790419Y-97150928D01*
X137790419Y-96817594D02*
X137790419Y-96246166D01*
X138790419Y-96531880D02*
X137790419Y-96531880D01*
X138695180Y-95341404D02*
X138742800Y-95389023D01*
X138742800Y-95389023D02*
X138790419Y-95531880D01*
X138790419Y-95531880D02*
X138790419Y-95627118D01*
X138790419Y-95627118D02*
X138742800Y-95769975D01*
X138742800Y-95769975D02*
X138647561Y-95865213D01*
X138647561Y-95865213D02*
X138552323Y-95912832D01*
X138552323Y-95912832D02*
X138361847Y-95960451D01*
X138361847Y-95960451D02*
X138218990Y-95960451D01*
X138218990Y-95960451D02*
X138028514Y-95912832D01*
X138028514Y-95912832D02*
X137933276Y-95865213D01*
X137933276Y-95865213D02*
X137838038Y-95769975D01*
X137838038Y-95769975D02*
X137790419Y-95627118D01*
X137790419Y-95627118D02*
X137790419Y-95531880D01*
X137790419Y-95531880D02*
X137838038Y-95389023D01*
X137838038Y-95389023D02*
X137885657Y-95341404D01*
X138790419Y-94389023D02*
X138790419Y-94960451D01*
X138790419Y-94674737D02*
X137790419Y-94674737D01*
X137790419Y-94674737D02*
X137933276Y-94769975D01*
X137933276Y-94769975D02*
X138028514Y-94865213D01*
X138028514Y-94865213D02*
X138076133Y-94960451D01*
D12*
X152769289Y-91247583D02*
X152648337Y-91187107D01*
X152648337Y-91187107D02*
X152527384Y-91066155D01*
X152527384Y-91066155D02*
X152345956Y-90884726D01*
X152345956Y-90884726D02*
X152225003Y-90824250D01*
X152225003Y-90824250D02*
X152104051Y-90824250D01*
X152164527Y-91126631D02*
X152043575Y-91066155D01*
X152043575Y-91066155D02*
X151922622Y-90945202D01*
X151922622Y-90945202D02*
X151862146Y-90703297D01*
X151862146Y-90703297D02*
X151862146Y-90279964D01*
X151862146Y-90279964D02*
X151922622Y-90038059D01*
X151922622Y-90038059D02*
X152043575Y-89917107D01*
X152043575Y-89917107D02*
X152164527Y-89856631D01*
X152164527Y-89856631D02*
X152406432Y-89856631D01*
X152406432Y-89856631D02*
X152527384Y-89917107D01*
X152527384Y-89917107D02*
X152648337Y-90038059D01*
X152648337Y-90038059D02*
X152708813Y-90279964D01*
X152708813Y-90279964D02*
X152708813Y-90703297D01*
X152708813Y-90703297D02*
X152648337Y-90945202D01*
X152648337Y-90945202D02*
X152527384Y-91066155D01*
X152527384Y-91066155D02*
X152406432Y-91126631D01*
X152406432Y-91126631D02*
X152164527Y-91126631D01*
X153132146Y-89856631D02*
X153978813Y-89856631D01*
X153978813Y-89856631D02*
X153434527Y-91126631D01*
D11*
X148039419Y-121077533D02*
X148753704Y-121077533D01*
X148753704Y-121077533D02*
X148896561Y-121125152D01*
X148896561Y-121125152D02*
X148991800Y-121220390D01*
X148991800Y-121220390D02*
X149039419Y-121363247D01*
X149039419Y-121363247D02*
X149039419Y-121458485D01*
X148039419Y-120696580D02*
X148039419Y-120077533D01*
X148039419Y-120077533D02*
X148420371Y-120410866D01*
X148420371Y-120410866D02*
X148420371Y-120268009D01*
X148420371Y-120268009D02*
X148467990Y-120172771D01*
X148467990Y-120172771D02*
X148515609Y-120125152D01*
X148515609Y-120125152D02*
X148610847Y-120077533D01*
X148610847Y-120077533D02*
X148848942Y-120077533D01*
X148848942Y-120077533D02*
X148944180Y-120125152D01*
X148944180Y-120125152D02*
X148991800Y-120172771D01*
X148991800Y-120172771D02*
X149039419Y-120268009D01*
X149039419Y-120268009D02*
X149039419Y-120553723D01*
X149039419Y-120553723D02*
X148991800Y-120648961D01*
X148991800Y-120648961D02*
X148944180Y-120696580D01*
D12*
X129071880Y-71022318D02*
X129071880Y-72050413D01*
X129071880Y-72050413D02*
X129132357Y-72171365D01*
X129132357Y-72171365D02*
X129192833Y-72231842D01*
X129192833Y-72231842D02*
X129313785Y-72292318D01*
X129313785Y-72292318D02*
X129555690Y-72292318D01*
X129555690Y-72292318D02*
X129676642Y-72231842D01*
X129676642Y-72231842D02*
X129737119Y-72171365D01*
X129737119Y-72171365D02*
X129797595Y-72050413D01*
X129797595Y-72050413D02*
X129797595Y-71022318D01*
X131007118Y-71022318D02*
X130402356Y-71022318D01*
X130402356Y-71022318D02*
X130341880Y-71627080D01*
X130341880Y-71627080D02*
X130402356Y-71566603D01*
X130402356Y-71566603D02*
X130523309Y-71506127D01*
X130523309Y-71506127D02*
X130825690Y-71506127D01*
X130825690Y-71506127D02*
X130946642Y-71566603D01*
X130946642Y-71566603D02*
X131007118Y-71627080D01*
X131007118Y-71627080D02*
X131067595Y-71748032D01*
X131067595Y-71748032D02*
X131067595Y-72050413D01*
X131067595Y-72050413D02*
X131007118Y-72171365D01*
X131007118Y-72171365D02*
X130946642Y-72231842D01*
X130946642Y-72231842D02*
X130825690Y-72292318D01*
X130825690Y-72292318D02*
X130523309Y-72292318D01*
X130523309Y-72292318D02*
X130402356Y-72231842D01*
X130402356Y-72231842D02*
X130341880Y-72171365D01*
X163376715Y-107290670D02*
X164223382Y-107290670D01*
X164223382Y-107290670D02*
X163376715Y-108560670D01*
X163376715Y-108560670D02*
X164223382Y-108560670D01*
X165372430Y-108560670D02*
X164646715Y-108560670D01*
X165009572Y-108560670D02*
X165009572Y-107290670D01*
X165009572Y-107290670D02*
X164888620Y-107472098D01*
X164888620Y-107472098D02*
X164767668Y-107593051D01*
X164767668Y-107593051D02*
X164646715Y-107653527D01*
D11*
X153454542Y-73379919D02*
X153121209Y-72903728D01*
X152883114Y-73379919D02*
X152883114Y-72379919D01*
X152883114Y-72379919D02*
X153264066Y-72379919D01*
X153264066Y-72379919D02*
X153359304Y-72427538D01*
X153359304Y-72427538D02*
X153406923Y-72475157D01*
X153406923Y-72475157D02*
X153454542Y-72570395D01*
X153454542Y-72570395D02*
X153454542Y-72713252D01*
X153454542Y-72713252D02*
X153406923Y-72808490D01*
X153406923Y-72808490D02*
X153359304Y-72856109D01*
X153359304Y-72856109D02*
X153264066Y-72903728D01*
X153264066Y-72903728D02*
X152883114Y-72903728D01*
X153835495Y-72475157D02*
X153883114Y-72427538D01*
X153883114Y-72427538D02*
X153978352Y-72379919D01*
X153978352Y-72379919D02*
X154216447Y-72379919D01*
X154216447Y-72379919D02*
X154311685Y-72427538D01*
X154311685Y-72427538D02*
X154359304Y-72475157D01*
X154359304Y-72475157D02*
X154406923Y-72570395D01*
X154406923Y-72570395D02*
X154406923Y-72665633D01*
X154406923Y-72665633D02*
X154359304Y-72808490D01*
X154359304Y-72808490D02*
X153787876Y-73379919D01*
X153787876Y-73379919D02*
X154406923Y-73379919D01*
X154787876Y-72475157D02*
X154835495Y-72427538D01*
X154835495Y-72427538D02*
X154930733Y-72379919D01*
X154930733Y-72379919D02*
X155168828Y-72379919D01*
X155168828Y-72379919D02*
X155264066Y-72427538D01*
X155264066Y-72427538D02*
X155311685Y-72475157D01*
X155311685Y-72475157D02*
X155359304Y-72570395D01*
X155359304Y-72570395D02*
X155359304Y-72665633D01*
X155359304Y-72665633D02*
X155311685Y-72808490D01*
X155311685Y-72808490D02*
X154740257Y-73379919D01*
X154740257Y-73379919D02*
X155359304Y-73379919D01*
X158142606Y-72443705D02*
X157666415Y-72777038D01*
X158142606Y-73015133D02*
X157142606Y-73015133D01*
X157142606Y-73015133D02*
X157142606Y-72634181D01*
X157142606Y-72634181D02*
X157190225Y-72538943D01*
X157190225Y-72538943D02*
X157237844Y-72491324D01*
X157237844Y-72491324D02*
X157333082Y-72443705D01*
X157333082Y-72443705D02*
X157475939Y-72443705D01*
X157475939Y-72443705D02*
X157571177Y-72491324D01*
X157571177Y-72491324D02*
X157618796Y-72538943D01*
X157618796Y-72538943D02*
X157666415Y-72634181D01*
X157666415Y-72634181D02*
X157666415Y-73015133D01*
X157142606Y-71586562D02*
X157142606Y-71777038D01*
X157142606Y-71777038D02*
X157190225Y-71872276D01*
X157190225Y-71872276D02*
X157237844Y-71919895D01*
X157237844Y-71919895D02*
X157380701Y-72015133D01*
X157380701Y-72015133D02*
X157571177Y-72062752D01*
X157571177Y-72062752D02*
X157952129Y-72062752D01*
X157952129Y-72062752D02*
X158047367Y-72015133D01*
X158047367Y-72015133D02*
X158094987Y-71967514D01*
X158094987Y-71967514D02*
X158142606Y-71872276D01*
X158142606Y-71872276D02*
X158142606Y-71681800D01*
X158142606Y-71681800D02*
X158094987Y-71586562D01*
X158094987Y-71586562D02*
X158047367Y-71538943D01*
X158047367Y-71538943D02*
X157952129Y-71491324D01*
X157952129Y-71491324D02*
X157714034Y-71491324D01*
X157714034Y-71491324D02*
X157618796Y-71538943D01*
X157618796Y-71538943D02*
X157571177Y-71586562D01*
X157571177Y-71586562D02*
X157523558Y-71681800D01*
X157523558Y-71681800D02*
X157523558Y-71872276D01*
X157523558Y-71872276D02*
X157571177Y-71967514D01*
X157571177Y-71967514D02*
X157618796Y-72015133D01*
X157618796Y-72015133D02*
X157714034Y-72062752D01*
D12*
X152724610Y-83472129D02*
X152603658Y-83411653D01*
X152603658Y-83411653D02*
X152482705Y-83290701D01*
X152482705Y-83290701D02*
X152301277Y-83109272D01*
X152301277Y-83109272D02*
X152180324Y-83048796D01*
X152180324Y-83048796D02*
X152059372Y-83048796D01*
X152119848Y-83351177D02*
X151998896Y-83290701D01*
X151998896Y-83290701D02*
X151877943Y-83169748D01*
X151877943Y-83169748D02*
X151817467Y-82927843D01*
X151817467Y-82927843D02*
X151817467Y-82504510D01*
X151817467Y-82504510D02*
X151877943Y-82262605D01*
X151877943Y-82262605D02*
X151998896Y-82141653D01*
X151998896Y-82141653D02*
X152119848Y-82081177D01*
X152119848Y-82081177D02*
X152361753Y-82081177D01*
X152361753Y-82081177D02*
X152482705Y-82141653D01*
X152482705Y-82141653D02*
X152603658Y-82262605D01*
X152603658Y-82262605D02*
X152664134Y-82504510D01*
X152664134Y-82504510D02*
X152664134Y-82927843D01*
X152664134Y-82927843D02*
X152603658Y-83169748D01*
X152603658Y-83169748D02*
X152482705Y-83290701D01*
X152482705Y-83290701D02*
X152361753Y-83351177D01*
X152361753Y-83351177D02*
X152119848Y-83351177D01*
X153268896Y-83351177D02*
X153510800Y-83351177D01*
X153510800Y-83351177D02*
X153631753Y-83290701D01*
X153631753Y-83290701D02*
X153692229Y-83230224D01*
X153692229Y-83230224D02*
X153813181Y-83048796D01*
X153813181Y-83048796D02*
X153873658Y-82806891D01*
X153873658Y-82806891D02*
X153873658Y-82323081D01*
X153873658Y-82323081D02*
X153813181Y-82202129D01*
X153813181Y-82202129D02*
X153752705Y-82141653D01*
X153752705Y-82141653D02*
X153631753Y-82081177D01*
X153631753Y-82081177D02*
X153389848Y-82081177D01*
X153389848Y-82081177D02*
X153268896Y-82141653D01*
X153268896Y-82141653D02*
X153208419Y-82202129D01*
X153208419Y-82202129D02*
X153147943Y-82323081D01*
X153147943Y-82323081D02*
X153147943Y-82625462D01*
X153147943Y-82625462D02*
X153208419Y-82746415D01*
X153208419Y-82746415D02*
X153268896Y-82806891D01*
X153268896Y-82806891D02*
X153389848Y-82867367D01*
X153389848Y-82867367D02*
X153631753Y-82867367D01*
X153631753Y-82867367D02*
X153752705Y-82806891D01*
X153752705Y-82806891D02*
X153813181Y-82746415D01*
X153813181Y-82746415D02*
X153873658Y-82625462D01*
D11*
X126532930Y-97668136D02*
X125532930Y-97668136D01*
X125532930Y-97668136D02*
X125532930Y-97287184D01*
X125532930Y-97287184D02*
X125580549Y-97191946D01*
X125580549Y-97191946D02*
X125628168Y-97144327D01*
X125628168Y-97144327D02*
X125723406Y-97096708D01*
X125723406Y-97096708D02*
X125866263Y-97096708D01*
X125866263Y-97096708D02*
X125961501Y-97144327D01*
X125961501Y-97144327D02*
X126009120Y-97191946D01*
X126009120Y-97191946D02*
X126056739Y-97287184D01*
X126056739Y-97287184D02*
X126056739Y-97668136D01*
X126532930Y-96525279D02*
X126485311Y-96620517D01*
X126485311Y-96620517D02*
X126437691Y-96668136D01*
X126437691Y-96668136D02*
X126342453Y-96715755D01*
X126342453Y-96715755D02*
X126056739Y-96715755D01*
X126056739Y-96715755D02*
X125961501Y-96668136D01*
X125961501Y-96668136D02*
X125913882Y-96620517D01*
X125913882Y-96620517D02*
X125866263Y-96525279D01*
X125866263Y-96525279D02*
X125866263Y-96382422D01*
X125866263Y-96382422D02*
X125913882Y-96287184D01*
X125913882Y-96287184D02*
X125961501Y-96239565D01*
X125961501Y-96239565D02*
X126056739Y-96191946D01*
X126056739Y-96191946D02*
X126342453Y-96191946D01*
X126342453Y-96191946D02*
X126437691Y-96239565D01*
X126437691Y-96239565D02*
X126485311Y-96287184D01*
X126485311Y-96287184D02*
X126532930Y-96382422D01*
X126532930Y-96382422D02*
X126532930Y-96525279D01*
X125866263Y-95858612D02*
X126532930Y-95668136D01*
X126532930Y-95668136D02*
X126056739Y-95477660D01*
X126056739Y-95477660D02*
X126532930Y-95287184D01*
X126532930Y-95287184D02*
X125866263Y-95096708D01*
X126485311Y-94334803D02*
X126532930Y-94430041D01*
X126532930Y-94430041D02*
X126532930Y-94620517D01*
X126532930Y-94620517D02*
X126485311Y-94715755D01*
X126485311Y-94715755D02*
X126390072Y-94763374D01*
X126390072Y-94763374D02*
X126009120Y-94763374D01*
X126009120Y-94763374D02*
X125913882Y-94715755D01*
X125913882Y-94715755D02*
X125866263Y-94620517D01*
X125866263Y-94620517D02*
X125866263Y-94430041D01*
X125866263Y-94430041D02*
X125913882Y-94334803D01*
X125913882Y-94334803D02*
X126009120Y-94287184D01*
X126009120Y-94287184D02*
X126104358Y-94287184D01*
X126104358Y-94287184D02*
X126199596Y-94763374D01*
X126532930Y-93858612D02*
X125866263Y-93858612D01*
X126056739Y-93858612D02*
X125961501Y-93810993D01*
X125961501Y-93810993D02*
X125913882Y-93763374D01*
X125913882Y-93763374D02*
X125866263Y-93668136D01*
X125866263Y-93668136D02*
X125866263Y-93572898D01*
X126532930Y-93239564D02*
X125532930Y-93239564D01*
X125913882Y-93239564D02*
X125866263Y-93144326D01*
X125866263Y-93144326D02*
X125866263Y-92953850D01*
X125866263Y-92953850D02*
X125913882Y-92858612D01*
X125913882Y-92858612D02*
X125961501Y-92810993D01*
X125961501Y-92810993D02*
X126056739Y-92763374D01*
X126056739Y-92763374D02*
X126342453Y-92763374D01*
X126342453Y-92763374D02*
X126437691Y-92810993D01*
X126437691Y-92810993D02*
X126485311Y-92858612D01*
X126485311Y-92858612D02*
X126532930Y-92953850D01*
X126532930Y-92953850D02*
X126532930Y-93144326D01*
X126532930Y-93144326D02*
X126485311Y-93239564D01*
X126532930Y-92191945D02*
X126485311Y-92287183D01*
X126485311Y-92287183D02*
X126437691Y-92334802D01*
X126437691Y-92334802D02*
X126342453Y-92382421D01*
X126342453Y-92382421D02*
X126056739Y-92382421D01*
X126056739Y-92382421D02*
X125961501Y-92334802D01*
X125961501Y-92334802D02*
X125913882Y-92287183D01*
X125913882Y-92287183D02*
X125866263Y-92191945D01*
X125866263Y-92191945D02*
X125866263Y-92049088D01*
X125866263Y-92049088D02*
X125913882Y-91953850D01*
X125913882Y-91953850D02*
X125961501Y-91906231D01*
X125961501Y-91906231D02*
X126056739Y-91858612D01*
X126056739Y-91858612D02*
X126342453Y-91858612D01*
X126342453Y-91858612D02*
X126437691Y-91906231D01*
X126437691Y-91906231D02*
X126485311Y-91953850D01*
X126485311Y-91953850D02*
X126532930Y-92049088D01*
X126532930Y-92049088D02*
X126532930Y-92191945D01*
X126532930Y-91001469D02*
X126009120Y-91001469D01*
X126009120Y-91001469D02*
X125913882Y-91049088D01*
X125913882Y-91049088D02*
X125866263Y-91144326D01*
X125866263Y-91144326D02*
X125866263Y-91334802D01*
X125866263Y-91334802D02*
X125913882Y-91430040D01*
X126485311Y-91001469D02*
X126532930Y-91096707D01*
X126532930Y-91096707D02*
X126532930Y-91334802D01*
X126532930Y-91334802D02*
X126485311Y-91430040D01*
X126485311Y-91430040D02*
X126390072Y-91477659D01*
X126390072Y-91477659D02*
X126294834Y-91477659D01*
X126294834Y-91477659D02*
X126199596Y-91430040D01*
X126199596Y-91430040D02*
X126151977Y-91334802D01*
X126151977Y-91334802D02*
X126151977Y-91096707D01*
X126151977Y-91096707D02*
X126104358Y-91001469D01*
X126532930Y-90525278D02*
X125866263Y-90525278D01*
X126056739Y-90525278D02*
X125961501Y-90477659D01*
X125961501Y-90477659D02*
X125913882Y-90430040D01*
X125913882Y-90430040D02*
X125866263Y-90334802D01*
X125866263Y-90334802D02*
X125866263Y-90239564D01*
X126532930Y-89477659D02*
X125532930Y-89477659D01*
X126485311Y-89477659D02*
X126532930Y-89572897D01*
X126532930Y-89572897D02*
X126532930Y-89763373D01*
X126532930Y-89763373D02*
X126485311Y-89858611D01*
X126485311Y-89858611D02*
X126437691Y-89906230D01*
X126437691Y-89906230D02*
X126342453Y-89953849D01*
X126342453Y-89953849D02*
X126056739Y-89953849D01*
X126056739Y-89953849D02*
X125961501Y-89906230D01*
X125961501Y-89906230D02*
X125913882Y-89858611D01*
X125913882Y-89858611D02*
X125866263Y-89763373D01*
X125866263Y-89763373D02*
X125866263Y-89572897D01*
X125866263Y-89572897D02*
X125913882Y-89477659D01*
X126532930Y-88477659D02*
X126532930Y-89049087D01*
X126532930Y-88763373D02*
X125532930Y-88763373D01*
X125532930Y-88763373D02*
X125675787Y-88858611D01*
X125675787Y-88858611D02*
X125771025Y-88953849D01*
X125771025Y-88953849D02*
X125818644Y-89049087D01*
X150867119Y-73090333D02*
X151581404Y-73090333D01*
X151581404Y-73090333D02*
X151724261Y-73137952D01*
X151724261Y-73137952D02*
X151819500Y-73233190D01*
X151819500Y-73233190D02*
X151867119Y-73376047D01*
X151867119Y-73376047D02*
X151867119Y-73471285D01*
X151200452Y-72185571D02*
X151867119Y-72185571D01*
X150819500Y-72423666D02*
X151533785Y-72661761D01*
X151533785Y-72661761D02*
X151533785Y-72042714D01*
D12*
X162868585Y-99576544D02*
X163715252Y-99576544D01*
X163715252Y-99576544D02*
X162868585Y-100846544D01*
X162868585Y-100846544D02*
X163715252Y-100846544D01*
X164138585Y-99697496D02*
X164199061Y-99637020D01*
X164199061Y-99637020D02*
X164320014Y-99576544D01*
X164320014Y-99576544D02*
X164622395Y-99576544D01*
X164622395Y-99576544D02*
X164743347Y-99637020D01*
X164743347Y-99637020D02*
X164803823Y-99697496D01*
X164803823Y-99697496D02*
X164864300Y-99818448D01*
X164864300Y-99818448D02*
X164864300Y-99939401D01*
X164864300Y-99939401D02*
X164803823Y-100120829D01*
X164803823Y-100120829D02*
X164078109Y-100846544D01*
X164078109Y-100846544D02*
X164864300Y-100846544D01*
D11*
X143977595Y-78886619D02*
X143977595Y-79696142D01*
X143977595Y-79696142D02*
X144025214Y-79791380D01*
X144025214Y-79791380D02*
X144072833Y-79839000D01*
X144072833Y-79839000D02*
X144168071Y-79886619D01*
X144168071Y-79886619D02*
X144358547Y-79886619D01*
X144358547Y-79886619D02*
X144453785Y-79839000D01*
X144453785Y-79839000D02*
X144501404Y-79791380D01*
X144501404Y-79791380D02*
X144549023Y-79696142D01*
X144549023Y-79696142D02*
X144549023Y-78886619D01*
X144977595Y-78981857D02*
X145025214Y-78934238D01*
X145025214Y-78934238D02*
X145120452Y-78886619D01*
X145120452Y-78886619D02*
X145358547Y-78886619D01*
X145358547Y-78886619D02*
X145453785Y-78934238D01*
X145453785Y-78934238D02*
X145501404Y-78981857D01*
X145501404Y-78981857D02*
X145549023Y-79077095D01*
X145549023Y-79077095D02*
X145549023Y-79172333D01*
X145549023Y-79172333D02*
X145501404Y-79315190D01*
X145501404Y-79315190D02*
X144929976Y-79886619D01*
X144929976Y-79886619D02*
X145549023Y-79886619D01*
X136174419Y-62071833D02*
X136888704Y-62071833D01*
X136888704Y-62071833D02*
X137031561Y-62119452D01*
X137031561Y-62119452D02*
X137126800Y-62214690D01*
X137126800Y-62214690D02*
X137174419Y-62357547D01*
X137174419Y-62357547D02*
X137174419Y-62452785D01*
X136174419Y-61119452D02*
X136174419Y-61595642D01*
X136174419Y-61595642D02*
X136650609Y-61643261D01*
X136650609Y-61643261D02*
X136602990Y-61595642D01*
X136602990Y-61595642D02*
X136555371Y-61500404D01*
X136555371Y-61500404D02*
X136555371Y-61262309D01*
X136555371Y-61262309D02*
X136602990Y-61167071D01*
X136602990Y-61167071D02*
X136650609Y-61119452D01*
X136650609Y-61119452D02*
X136745847Y-61071833D01*
X136745847Y-61071833D02*
X136983942Y-61071833D01*
X136983942Y-61071833D02*
X137079180Y-61119452D01*
X137079180Y-61119452D02*
X137126800Y-61167071D01*
X137126800Y-61167071D02*
X137174419Y-61262309D01*
X137174419Y-61262309D02*
X137174419Y-61500404D01*
X137174419Y-61500404D02*
X137126800Y-61595642D01*
X137126800Y-61595642D02*
X137079180Y-61643261D01*
D12*
X138431308Y-87170798D02*
X138370832Y-87291750D01*
X138370832Y-87291750D02*
X138249880Y-87412703D01*
X138249880Y-87412703D02*
X138068451Y-87594131D01*
X138068451Y-87594131D02*
X138007975Y-87715084D01*
X138007975Y-87715084D02*
X138007975Y-87836036D01*
X138310356Y-87775560D02*
X138249880Y-87896512D01*
X138249880Y-87896512D02*
X138128927Y-88017465D01*
X138128927Y-88017465D02*
X137887022Y-88077941D01*
X137887022Y-88077941D02*
X137463689Y-88077941D01*
X137463689Y-88077941D02*
X137221784Y-88017465D01*
X137221784Y-88017465D02*
X137100832Y-87896512D01*
X137100832Y-87896512D02*
X137040356Y-87775560D01*
X137040356Y-87775560D02*
X137040356Y-87533655D01*
X137040356Y-87533655D02*
X137100832Y-87412703D01*
X137100832Y-87412703D02*
X137221784Y-87291750D01*
X137221784Y-87291750D02*
X137463689Y-87231274D01*
X137463689Y-87231274D02*
X137887022Y-87231274D01*
X137887022Y-87231274D02*
X138128927Y-87291750D01*
X138128927Y-87291750D02*
X138249880Y-87412703D01*
X138249880Y-87412703D02*
X138310356Y-87533655D01*
X138310356Y-87533655D02*
X138310356Y-87775560D01*
X138310356Y-86021750D02*
X138310356Y-86747465D01*
X138310356Y-86384608D02*
X137040356Y-86384608D01*
X137040356Y-86384608D02*
X137221784Y-86505560D01*
X137221784Y-86505560D02*
X137342737Y-86626512D01*
X137342737Y-86626512D02*
X137403213Y-86747465D01*
D11*
X162092321Y-112468860D02*
X162092321Y-112945051D01*
X161758988Y-111945051D02*
X162092321Y-112468860D01*
X162092321Y-112468860D02*
X162425654Y-111945051D01*
X162711369Y-112040289D02*
X162758988Y-111992670D01*
X162758988Y-111992670D02*
X162854226Y-111945051D01*
X162854226Y-111945051D02*
X163092321Y-111945051D01*
X163092321Y-111945051D02*
X163187559Y-111992670D01*
X163187559Y-111992670D02*
X163235178Y-112040289D01*
X163235178Y-112040289D02*
X163282797Y-112135527D01*
X163282797Y-112135527D02*
X163282797Y-112230765D01*
X163282797Y-112230765D02*
X163235178Y-112373622D01*
X163235178Y-112373622D02*
X162663750Y-112945051D01*
X162663750Y-112945051D02*
X163282797Y-112945051D01*
D12*
X123605012Y-112069918D02*
X123181678Y-111465156D01*
X122879297Y-112069918D02*
X122879297Y-110799918D01*
X122879297Y-110799918D02*
X123363107Y-110799918D01*
X123363107Y-110799918D02*
X123484059Y-110860394D01*
X123484059Y-110860394D02*
X123544536Y-110920870D01*
X123544536Y-110920870D02*
X123605012Y-111041822D01*
X123605012Y-111041822D02*
X123605012Y-111223251D01*
X123605012Y-111223251D02*
X123544536Y-111344203D01*
X123544536Y-111344203D02*
X123484059Y-111404680D01*
X123484059Y-111404680D02*
X123363107Y-111465156D01*
X123363107Y-111465156D02*
X122879297Y-111465156D01*
X124633107Y-112009442D02*
X124512155Y-112069918D01*
X124512155Y-112069918D02*
X124270250Y-112069918D01*
X124270250Y-112069918D02*
X124149297Y-112009442D01*
X124149297Y-112009442D02*
X124088821Y-111888489D01*
X124088821Y-111888489D02*
X124088821Y-111404680D01*
X124088821Y-111404680D02*
X124149297Y-111283727D01*
X124149297Y-111283727D02*
X124270250Y-111223251D01*
X124270250Y-111223251D02*
X124512155Y-111223251D01*
X124512155Y-111223251D02*
X124633107Y-111283727D01*
X124633107Y-111283727D02*
X124693583Y-111404680D01*
X124693583Y-111404680D02*
X124693583Y-111525632D01*
X124693583Y-111525632D02*
X124088821Y-111646584D01*
X125177392Y-112009442D02*
X125298345Y-112069918D01*
X125298345Y-112069918D02*
X125540249Y-112069918D01*
X125540249Y-112069918D02*
X125661202Y-112009442D01*
X125661202Y-112009442D02*
X125721678Y-111888489D01*
X125721678Y-111888489D02*
X125721678Y-111828013D01*
X125721678Y-111828013D02*
X125661202Y-111707061D01*
X125661202Y-111707061D02*
X125540249Y-111646584D01*
X125540249Y-111646584D02*
X125358821Y-111646584D01*
X125358821Y-111646584D02*
X125237868Y-111586108D01*
X125237868Y-111586108D02*
X125177392Y-111465156D01*
X125177392Y-111465156D02*
X125177392Y-111404680D01*
X125177392Y-111404680D02*
X125237868Y-111283727D01*
X125237868Y-111283727D02*
X125358821Y-111223251D01*
X125358821Y-111223251D02*
X125540249Y-111223251D01*
X125540249Y-111223251D02*
X125661202Y-111283727D01*
X126749773Y-112009442D02*
X126628821Y-112069918D01*
X126628821Y-112069918D02*
X126386916Y-112069918D01*
X126386916Y-112069918D02*
X126265963Y-112009442D01*
X126265963Y-112009442D02*
X126205487Y-111888489D01*
X126205487Y-111888489D02*
X126205487Y-111404680D01*
X126205487Y-111404680D02*
X126265963Y-111283727D01*
X126265963Y-111283727D02*
X126386916Y-111223251D01*
X126386916Y-111223251D02*
X126628821Y-111223251D01*
X126628821Y-111223251D02*
X126749773Y-111283727D01*
X126749773Y-111283727D02*
X126810249Y-111404680D01*
X126810249Y-111404680D02*
X126810249Y-111525632D01*
X126810249Y-111525632D02*
X126205487Y-111646584D01*
X127173106Y-111223251D02*
X127656915Y-111223251D01*
X127354534Y-110799918D02*
X127354534Y-111888489D01*
X127354534Y-111888489D02*
X127415011Y-112009442D01*
X127415011Y-112009442D02*
X127535963Y-112069918D01*
X127535963Y-112069918D02*
X127656915Y-112069918D01*
X128745487Y-112069918D02*
X128019772Y-112069918D01*
X128382629Y-112069918D02*
X128382629Y-110799918D01*
X128382629Y-110799918D02*
X128261677Y-110981346D01*
X128261677Y-110981346D02*
X128140725Y-111102299D01*
X128140725Y-111102299D02*
X128019772Y-111162775D01*
D11*
X161595381Y-117473723D02*
X161547762Y-117521343D01*
X161547762Y-117521343D02*
X161404905Y-117568962D01*
X161404905Y-117568962D02*
X161309667Y-117568962D01*
X161309667Y-117568962D02*
X161166810Y-117521343D01*
X161166810Y-117521343D02*
X161071572Y-117426104D01*
X161071572Y-117426104D02*
X161023953Y-117330866D01*
X161023953Y-117330866D02*
X160976334Y-117140390D01*
X160976334Y-117140390D02*
X160976334Y-116997533D01*
X160976334Y-116997533D02*
X161023953Y-116807057D01*
X161023953Y-116807057D02*
X161071572Y-116711819D01*
X161071572Y-116711819D02*
X161166810Y-116616581D01*
X161166810Y-116616581D02*
X161309667Y-116568962D01*
X161309667Y-116568962D02*
X161404905Y-116568962D01*
X161404905Y-116568962D02*
X161547762Y-116616581D01*
X161547762Y-116616581D02*
X161595381Y-116664200D01*
X162500143Y-116568962D02*
X162023953Y-116568962D01*
X162023953Y-116568962D02*
X161976334Y-117045152D01*
X161976334Y-117045152D02*
X162023953Y-116997533D01*
X162023953Y-116997533D02*
X162119191Y-116949914D01*
X162119191Y-116949914D02*
X162357286Y-116949914D01*
X162357286Y-116949914D02*
X162452524Y-116997533D01*
X162452524Y-116997533D02*
X162500143Y-117045152D01*
X162500143Y-117045152D02*
X162547762Y-117140390D01*
X162547762Y-117140390D02*
X162547762Y-117378485D01*
X162547762Y-117378485D02*
X162500143Y-117473723D01*
X162500143Y-117473723D02*
X162452524Y-117521343D01*
X162452524Y-117521343D02*
X162357286Y-117568962D01*
X162357286Y-117568962D02*
X162119191Y-117568962D01*
X162119191Y-117568962D02*
X162023953Y-117521343D01*
X162023953Y-117521343D02*
X161976334Y-117473723D01*
X155163560Y-121332628D02*
X155163560Y-121808819D01*
X154830227Y-120808819D02*
X155163560Y-121332628D01*
X155163560Y-121332628D02*
X155496893Y-120808819D01*
X156354036Y-121808819D02*
X155782608Y-121808819D01*
X156068322Y-121808819D02*
X156068322Y-120808819D01*
X156068322Y-120808819D02*
X155973084Y-120951676D01*
X155973084Y-120951676D02*
X155877846Y-121046914D01*
X155877846Y-121046914D02*
X155782608Y-121094533D01*
X168037333Y-71285580D02*
X167989714Y-71333200D01*
X167989714Y-71333200D02*
X167846857Y-71380819D01*
X167846857Y-71380819D02*
X167751619Y-71380819D01*
X167751619Y-71380819D02*
X167608762Y-71333200D01*
X167608762Y-71333200D02*
X167513524Y-71237961D01*
X167513524Y-71237961D02*
X167465905Y-71142723D01*
X167465905Y-71142723D02*
X167418286Y-70952247D01*
X167418286Y-70952247D02*
X167418286Y-70809390D01*
X167418286Y-70809390D02*
X167465905Y-70618914D01*
X167465905Y-70618914D02*
X167513524Y-70523676D01*
X167513524Y-70523676D02*
X167608762Y-70428438D01*
X167608762Y-70428438D02*
X167751619Y-70380819D01*
X167751619Y-70380819D02*
X167846857Y-70380819D01*
X167846857Y-70380819D02*
X167989714Y-70428438D01*
X167989714Y-70428438D02*
X168037333Y-70476057D01*
X168608762Y-70809390D02*
X168513524Y-70761771D01*
X168513524Y-70761771D02*
X168465905Y-70714152D01*
X168465905Y-70714152D02*
X168418286Y-70618914D01*
X168418286Y-70618914D02*
X168418286Y-70571295D01*
X168418286Y-70571295D02*
X168465905Y-70476057D01*
X168465905Y-70476057D02*
X168513524Y-70428438D01*
X168513524Y-70428438D02*
X168608762Y-70380819D01*
X168608762Y-70380819D02*
X168799238Y-70380819D01*
X168799238Y-70380819D02*
X168894476Y-70428438D01*
X168894476Y-70428438D02*
X168942095Y-70476057D01*
X168942095Y-70476057D02*
X168989714Y-70571295D01*
X168989714Y-70571295D02*
X168989714Y-70618914D01*
X168989714Y-70618914D02*
X168942095Y-70714152D01*
X168942095Y-70714152D02*
X168894476Y-70761771D01*
X168894476Y-70761771D02*
X168799238Y-70809390D01*
X168799238Y-70809390D02*
X168608762Y-70809390D01*
X168608762Y-70809390D02*
X168513524Y-70857009D01*
X168513524Y-70857009D02*
X168465905Y-70904628D01*
X168465905Y-70904628D02*
X168418286Y-70999866D01*
X168418286Y-70999866D02*
X168418286Y-71190342D01*
X168418286Y-71190342D02*
X168465905Y-71285580D01*
X168465905Y-71285580D02*
X168513524Y-71333200D01*
X168513524Y-71333200D02*
X168608762Y-71380819D01*
X168608762Y-71380819D02*
X168799238Y-71380819D01*
X168799238Y-71380819D02*
X168894476Y-71333200D01*
X168894476Y-71333200D02*
X168942095Y-71285580D01*
X168942095Y-71285580D02*
X168989714Y-71190342D01*
X168989714Y-71190342D02*
X168989714Y-70999866D01*
X168989714Y-70999866D02*
X168942095Y-70904628D01*
X168942095Y-70904628D02*
X168894476Y-70857009D01*
X168894476Y-70857009D02*
X168799238Y-70809390D01*
D12*
X162711757Y-83964596D02*
X163558424Y-83964596D01*
X163558424Y-83964596D02*
X162711757Y-85234596D01*
X162711757Y-85234596D02*
X163558424Y-85234596D01*
X164586519Y-84387929D02*
X164586519Y-85234596D01*
X164284138Y-83904120D02*
X163981757Y-84811262D01*
X163981757Y-84811262D02*
X164767948Y-84811262D01*
X162802560Y-91600415D02*
X163649227Y-91600415D01*
X163649227Y-91600415D02*
X162802560Y-92870415D01*
X162802560Y-92870415D02*
X163649227Y-92870415D01*
X164012084Y-91600415D02*
X164798275Y-91600415D01*
X164798275Y-91600415D02*
X164374941Y-92084224D01*
X164374941Y-92084224D02*
X164556370Y-92084224D01*
X164556370Y-92084224D02*
X164677322Y-92144700D01*
X164677322Y-92144700D02*
X164737798Y-92205177D01*
X164737798Y-92205177D02*
X164798275Y-92326129D01*
X164798275Y-92326129D02*
X164798275Y-92628510D01*
X164798275Y-92628510D02*
X164737798Y-92749462D01*
X164737798Y-92749462D02*
X164677322Y-92809939D01*
X164677322Y-92809939D02*
X164556370Y-92870415D01*
X164556370Y-92870415D02*
X164193513Y-92870415D01*
X164193513Y-92870415D02*
X164072560Y-92809939D01*
X164072560Y-92809939D02*
X164012084Y-92749462D01*
D13*
%TO.C,C3*%
X152110648Y-116285200D02*
X153533152Y-116285200D01*
X152110648Y-118105200D02*
X153533152Y-118105200D01*
D14*
%TO.C,Q3*%
X154299900Y-101771800D02*
X154299900Y-104966800D01*
X164839900Y-101771800D02*
X154299900Y-101771800D01*
X164839900Y-106461800D02*
X164839900Y-101771800D01*
%TO.C,Q5*%
X154299900Y-94020700D02*
X154299900Y-97215700D01*
X164839900Y-94020700D02*
X154299900Y-94020700D01*
X164839900Y-98710700D02*
X164839900Y-94020700D01*
D13*
%TO.C,R7*%
X140486100Y-58260700D02*
X140556100Y-58260700D01*
X140486100Y-58260700D02*
G75*
G02*
X137746100Y-58260700I-1370000J0D01*
G01*
X137746100Y-58260700D02*
G75*
G02*
X140486100Y-58260700I1370000J0D01*
G01*
%TO.C,D2*%
X161812200Y-75831200D02*
X162832200Y-75831200D01*
X162832200Y-74361200D02*
X162832200Y-77301200D01*
X162832200Y-77301200D02*
X168272200Y-77301200D01*
X167252200Y-77301200D02*
X167252200Y-74361200D01*
X167372200Y-77301200D02*
X167372200Y-74361200D01*
X167492200Y-77301200D02*
X167492200Y-74361200D01*
X168272200Y-74361200D02*
X162832200Y-74361200D01*
X168272200Y-77301200D02*
X168272200Y-74361200D01*
X169292200Y-75831200D02*
X168272200Y-75831200D01*
%TO.C,J1*%
X151588000Y-57204800D02*
X157908000Y-57204800D01*
X151588000Y-67944800D02*
X151588000Y-57204800D01*
X151588000Y-67944800D02*
X157908000Y-67944800D01*
X152048000Y-67944800D02*
X152048000Y-57204800D01*
X157348000Y-67944800D02*
X157348000Y-57204800D01*
X157408000Y-68184800D02*
X158148000Y-68184800D01*
X157908000Y-67944800D02*
X157908000Y-57204800D01*
X158148000Y-68184800D02*
X158148000Y-67684800D01*
%TO.C,J2*%
X165634600Y-79185600D02*
X176954600Y-79185600D01*
X165634600Y-104705600D02*
X165634600Y-79185600D01*
X165634600Y-104705600D02*
X176954600Y-104705600D01*
X167694600Y-104705600D02*
X167694600Y-79185600D01*
X169940600Y-80397600D02*
X170320600Y-80777600D01*
X169940600Y-85477600D02*
X170320600Y-85857600D01*
X169940600Y-90557600D02*
X170320600Y-90937600D01*
X169940600Y-95637600D02*
X170320600Y-96017600D01*
X169940600Y-100717600D02*
X170047600Y-100824600D01*
X170206600Y-80131600D02*
X170602600Y-80526600D01*
X170206600Y-85211600D02*
X170602600Y-85606600D01*
X170206600Y-90291600D02*
X170602600Y-90686600D01*
X170206600Y-95371600D02*
X170602600Y-95766600D01*
X170206600Y-100451600D02*
X170313600Y-100558600D01*
X172586600Y-83043600D02*
X172982600Y-83438600D01*
X172586600Y-88123600D02*
X172982600Y-88518600D01*
X172586600Y-93203600D02*
X172982600Y-93598600D01*
X172586600Y-98283600D02*
X172982600Y-98678600D01*
X172868600Y-82792600D02*
X173248600Y-83172600D01*
X172868600Y-87872600D02*
X173248600Y-88252600D01*
X172868600Y-92952600D02*
X173248600Y-93332600D01*
X172868600Y-98032600D02*
X173248600Y-98412600D01*
X172875600Y-103653600D02*
X172982600Y-103759600D01*
X173141600Y-103387600D02*
X173248600Y-103493600D01*
X173894600Y-104705600D02*
X173894600Y-79185600D01*
X176394600Y-104705600D02*
X176394600Y-79185600D01*
X176454600Y-104945600D02*
X177194600Y-104945600D01*
X176954600Y-104705600D02*
X176954600Y-79185600D01*
X177194600Y-104945600D02*
X177194600Y-104445600D01*
X173774600Y-81785600D02*
G75*
G02*
X169414600Y-81785600I-2180000J0D01*
G01*
X169414600Y-81785600D02*
G75*
G02*
X173774600Y-81785600I2180000J0D01*
G01*
X173774600Y-86865600D02*
G75*
G02*
X169414600Y-86865600I-2180000J0D01*
G01*
X169414600Y-86865600D02*
G75*
G02*
X173774600Y-86865600I2180000J0D01*
G01*
X173774600Y-91945600D02*
G75*
G02*
X169414600Y-91945600I-2180000J0D01*
G01*
X169414600Y-91945600D02*
G75*
G02*
X173774600Y-91945600I2180000J0D01*
G01*
X173774600Y-97025600D02*
G75*
G02*
X169414600Y-97025600I-2180000J0D01*
G01*
X169414600Y-97025600D02*
G75*
G02*
X173774600Y-97025600I2180000J0D01*
G01*
X173774600Y-102105600D02*
G75*
G02*
X169414600Y-102105600I-2180000J0D01*
G01*
X169414600Y-102105600D02*
G75*
G02*
X173774600Y-102105600I2180000J0D01*
G01*
%TO.C,NTC1*%
X135965600Y-96179500D02*
X135965600Y-96249500D01*
X137335600Y-94809500D02*
G75*
G02*
X134595600Y-94809500I-1370000J0D01*
G01*
X134595600Y-94809500D02*
G75*
G02*
X137335600Y-94809500I1370000J0D01*
G01*
D14*
%TO.C,Q7*%
X154231400Y-86131400D02*
X154231400Y-89326400D01*
X164771400Y-86131400D02*
X154231400Y-86131400D01*
X164771400Y-90821400D02*
X164771400Y-86131400D01*
D13*
%TO.C,J3*%
X132224600Y-119414200D02*
X132224600Y-122074200D01*
X144984600Y-119414200D02*
X132224600Y-119414200D01*
X144984600Y-119414200D02*
X144984600Y-122074200D01*
X144984600Y-122074200D02*
X132224600Y-122074200D01*
X146254600Y-119414200D02*
X147584600Y-119414200D01*
X147584600Y-119414200D02*
X147584600Y-120744200D01*
D10*
%TO.C,U5*%
X122039500Y-68353000D02*
X138039500Y-68353000D01*
X122039500Y-75083000D02*
X122039500Y-68353000D01*
X138039500Y-68353000D02*
X138039500Y-75083000D01*
X138039500Y-75083000D02*
X122039500Y-75083000D01*
D14*
%TO.C,Z1*%
X155178500Y-107104000D02*
X158982500Y-107104000D01*
X155178500Y-107964000D02*
X152655500Y-107964000D01*
X155178500Y-108824000D02*
X155178500Y-107104000D01*
X158982500Y-107104000D02*
X158982500Y-108824000D01*
X158982500Y-107964000D02*
X158122500Y-108824000D01*
X158982500Y-108824000D02*
X155178500Y-108824000D01*
X161505500Y-107964000D02*
X158982500Y-107964000D01*
D13*
%TO.C,R22*%
X153370336Y-73835100D02*
X154824464Y-73835100D01*
X153370336Y-75655100D02*
X154824464Y-75655100D01*
%TO.C,R6*%
X160563600Y-72318900D02*
X160493600Y-72318900D01*
X163303600Y-72318900D02*
G75*
G02*
X160563600Y-72318900I-1370000J0D01*
G01*
X160563600Y-72318900D02*
G75*
G02*
X163303600Y-72318900I1370000J0D01*
G01*
D14*
%TO.C,Q9*%
X154186800Y-78405400D02*
X154186800Y-81600400D01*
X164726800Y-78405400D02*
X154186800Y-78405400D01*
X164726800Y-83095400D02*
X164726800Y-78405400D01*
D13*
%TO.C,Powerboard1*%
X129646300Y-91332600D02*
X129646300Y-86192600D01*
X132306300Y-86192600D02*
X129646300Y-86192600D01*
X132306300Y-91332600D02*
X129646300Y-91332600D01*
X132306300Y-91332600D02*
X132306300Y-86192600D01*
X132306300Y-92602600D02*
X132306300Y-93932600D01*
X132306300Y-93932600D02*
X130976300Y-93932600D01*
%TO.C,J4*%
X142672300Y-70157000D02*
X142672300Y-75357000D01*
X143242300Y-70157000D02*
X142672300Y-70157000D01*
X143242300Y-75357000D02*
X142672300Y-75357000D01*
X145782300Y-70157000D02*
X144762300Y-70157000D01*
X145782300Y-75357000D02*
X144762300Y-75357000D01*
X148322300Y-70157000D02*
X147302300Y-70157000D01*
X148322300Y-75357000D02*
X147302300Y-75357000D01*
X149842300Y-68717000D02*
X149842300Y-70157000D01*
X150412300Y-70157000D02*
X149842300Y-70157000D01*
X150412300Y-70157000D02*
X150412300Y-75357000D01*
X150412300Y-75357000D02*
X149842300Y-75357000D01*
D14*
%TO.C,Z2*%
X154725900Y-99409500D02*
X158529900Y-99409500D01*
X154725900Y-100269500D02*
X152202900Y-100269500D01*
X154725900Y-101129500D02*
X154725900Y-99409500D01*
X158529900Y-99409500D02*
X158529900Y-101129500D01*
X158529900Y-100269500D02*
X157669900Y-101129500D01*
X158529900Y-101129500D02*
X154725900Y-101129500D01*
X161052900Y-100269500D02*
X158529900Y-100269500D01*
D13*
%TO.C,U2*%
X142089500Y-80431800D02*
X142089500Y-116111800D01*
X142089500Y-116111800D02*
X147389500Y-116111800D01*
X143739500Y-80431800D02*
X142089500Y-80431800D01*
X147389500Y-80431800D02*
X145739500Y-80431800D01*
X147389500Y-116111800D02*
X147389500Y-80431800D01*
X145739500Y-80431800D02*
G75*
G02*
X143739500Y-80431800I-1000000J0D01*
G01*
%TO.C,J5*%
X137719600Y-63068500D02*
X137719600Y-61738500D01*
X139049600Y-63068500D02*
X137719600Y-63068500D01*
X140319600Y-60408500D02*
X142919600Y-60408500D01*
X140319600Y-63068500D02*
X140319600Y-60408500D01*
X140319600Y-63068500D02*
X142919600Y-63068500D01*
X142919600Y-63068500D02*
X142919600Y-60408500D01*
D14*
%TO.C,Q1*%
X133391000Y-76613600D02*
X133391000Y-87153600D01*
X133391000Y-87153600D02*
X136586000Y-87153600D01*
X138081000Y-76613600D02*
X133391000Y-76613600D01*
D13*
%TO.C,Y2*%
X152518400Y-109574600D02*
X158768400Y-109574600D01*
X152518400Y-114624600D02*
X158768400Y-114624600D01*
X152518400Y-114624600D02*
G75*
G02*
X152518400Y-109574600I0J2525000D01*
G01*
X158768400Y-109574600D02*
G75*
G02*
X158768400Y-114624600I0J-2525000D01*
G01*
D14*
%TO.C,Reset1*%
X129135300Y-110302500D02*
X129135300Y-112702500D01*
X134235300Y-108502500D02*
X130035300Y-108502500D01*
X134235300Y-114502500D02*
X130035300Y-114502500D01*
X135135300Y-110302500D02*
X135135300Y-112702500D01*
X136735300Y-113752500D02*
X136735300Y-113752500D01*
X136835300Y-113752500D02*
X136735300Y-113752500D01*
X136835300Y-113752500D02*
X136835300Y-113752500D01*
X136735300Y-113752500D02*
G75*
G02*
X136835300Y-113752500I50000J0D01*
G01*
X136835300Y-113752500D02*
G75*
G02*
X136735300Y-113752500I-50000J0D01*
G01*
D13*
%TO.C,C5*%
X158930952Y-116235000D02*
X157508448Y-116235000D01*
X158930952Y-118055000D02*
X157508448Y-118055000D01*
%TO.C,Y1*%
X152493500Y-118829000D02*
X158743500Y-118829000D01*
X152493500Y-123879000D02*
X158743500Y-123879000D01*
X152493500Y-123879000D02*
G75*
G02*
X152493500Y-118829000I0J2525000D01*
G01*
X158743500Y-118829000D02*
G75*
G02*
X158743500Y-123879000I0J-2525000D01*
G01*
%TO.C,C8*%
X167476936Y-71836000D02*
X168931064Y-71836000D01*
X167476936Y-73656000D02*
X168931064Y-73656000D01*
D14*
%TO.C,Z4*%
X154711000Y-83764300D02*
X158515000Y-83764300D01*
X154711000Y-84624300D02*
X152188000Y-84624300D01*
X154711000Y-85484300D02*
X154711000Y-83764300D01*
X158515000Y-83764300D02*
X158515000Y-85484300D01*
X158515000Y-84624300D02*
X157655000Y-85484300D01*
X158515000Y-85484300D02*
X154711000Y-85484300D01*
X161038000Y-84624300D02*
X158515000Y-84624300D01*
%TO.C,Z3*%
X154711000Y-91483800D02*
X158515000Y-91483800D01*
X154711000Y-92343800D02*
X152188000Y-92343800D01*
X154711000Y-93203800D02*
X154711000Y-91483800D01*
X158515000Y-91483800D02*
X158515000Y-93203800D01*
X158515000Y-92343800D02*
X157655000Y-93203800D01*
X158515000Y-93203800D02*
X154711000Y-93203800D01*
X161038000Y-92343800D02*
X158515000Y-92343800D01*
%TD*%
%LPC*%
D15*
%TO.C,C3*%
X151259400Y-117195200D03*
X154384400Y-117195200D03*
%TD*%
D16*
%TO.C,Q3*%
X157029900Y-104966800D03*
D17*
X159569900Y-104966800D03*
X162109900Y-104966800D03*
%TD*%
D16*
%TO.C,Q5*%
X157029900Y-97215700D03*
D17*
X159569900Y-97215700D03*
X162109900Y-97215700D03*
%TD*%
D18*
%TO.C,R7*%
X139116100Y-58260700D03*
D19*
X141656100Y-58260700D03*
%TD*%
D20*
%TO.C,D2*%
X170632200Y-75831200D03*
D21*
X160472200Y-75831200D03*
%TD*%
D20*
%TO.C,J1*%
X154748000Y-66384800D03*
D22*
X154748000Y-63844800D03*
X154748000Y-61304800D03*
X154748000Y-58764800D03*
%TD*%
D23*
%TO.C,J2*%
X171594600Y-102105600D03*
D24*
X171594600Y-97025600D03*
X171594600Y-91945600D03*
X171594600Y-86865600D03*
X171594600Y-81785600D03*
%TD*%
D18*
%TO.C,NTC1*%
X135965600Y-94809500D03*
D19*
X135965600Y-97349500D03*
%TD*%
D16*
%TO.C,Q7*%
X156961400Y-89326400D03*
D17*
X159501400Y-89326400D03*
X162041400Y-89326400D03*
%TD*%
D25*
%TO.C,J3*%
X146254600Y-120744200D03*
D26*
X143714600Y-120744200D03*
X141174600Y-120744200D03*
X138634600Y-120744200D03*
X136094600Y-120744200D03*
X133554600Y-120744200D03*
%TD*%
D27*
%TO.C,U5*%
X134999500Y-70018000D03*
X134999500Y-73418000D03*
X125079500Y-70018000D03*
X125079500Y-73418000D03*
%TD*%
D28*
%TO.C,Z1*%
X162430500Y-107964000D03*
D29*
X151730500Y-107964000D03*
%TD*%
D30*
%TO.C,R22*%
X152547400Y-74745100D03*
X155647400Y-74745100D03*
%TD*%
D18*
%TO.C,R6*%
X161933600Y-72318900D03*
D19*
X159393600Y-72318900D03*
%TD*%
D16*
%TO.C,Q9*%
X156916800Y-81600400D03*
D17*
X159456800Y-81600400D03*
X161996800Y-81600400D03*
%TD*%
D25*
%TO.C,Powerboard1*%
X130976300Y-92602600D03*
D26*
X130976300Y-90062600D03*
X130976300Y-87522600D03*
%TD*%
D31*
%TO.C,J4*%
X149082300Y-70232000D03*
X149082300Y-75282000D03*
X146542300Y-70232000D03*
X146542300Y-75282000D03*
X144002300Y-70232000D03*
X144002300Y-75282000D03*
%TD*%
D28*
%TO.C,Z2*%
X161977900Y-100269500D03*
D29*
X151277900Y-100269500D03*
%TD*%
D32*
%TO.C,U2*%
X140929500Y-81761800D03*
D19*
X140929500Y-84301800D03*
X140929500Y-86841800D03*
X140929500Y-89381800D03*
X140929500Y-91921800D03*
X140929500Y-94461800D03*
X140929500Y-97001800D03*
X140929500Y-99541800D03*
X140929500Y-102081800D03*
X140929500Y-104621800D03*
X140929500Y-107161800D03*
X140929500Y-109701800D03*
X140929500Y-112241800D03*
X140929500Y-114781800D03*
X148549500Y-114781800D03*
X148549500Y-112241800D03*
X148549500Y-109701800D03*
X148549500Y-107161800D03*
X148549500Y-104621800D03*
X148549500Y-102081800D03*
X148549500Y-99541800D03*
X148549500Y-97001800D03*
X148549500Y-94461800D03*
X148549500Y-91921800D03*
X148549500Y-89381800D03*
X148549500Y-86841800D03*
X148549500Y-84301800D03*
X148549500Y-81761800D03*
%TD*%
D25*
%TO.C,J5*%
X139049600Y-61738500D03*
D26*
X141589600Y-61738500D03*
%TD*%
D16*
%TO.C,Q1*%
X136586000Y-84423600D03*
D17*
X136586000Y-81883600D03*
X136586000Y-79343600D03*
%TD*%
D33*
%TO.C,Y2*%
X153203400Y-112099600D03*
X158083400Y-112099600D03*
%TD*%
D34*
%TO.C,Reset1*%
X135385300Y-113752500D03*
D33*
X128885300Y-113752500D03*
X135385300Y-109252500D03*
X128885300Y-109252500D03*
%TD*%
D35*
%TO.C,C5*%
X159782200Y-117145000D03*
X156657200Y-117145000D03*
%TD*%
D33*
%TO.C,Y1*%
X153178500Y-121354000D03*
X158058500Y-121354000D03*
%TD*%
D30*
%TO.C,C8*%
X166654000Y-72746000D03*
X169754000Y-72746000D03*
%TD*%
D28*
%TO.C,Z4*%
X161963000Y-84624300D03*
D29*
X151263000Y-84624300D03*
%TD*%
D28*
%TO.C,Z3*%
X161963000Y-92343800D03*
D29*
X151263000Y-92343800D03*
%TD*%
%LPD*%
M02*
