%TF.GenerationSoftware,KiCad,Pcbnew,8.0.1-rc1*%
%TF.CreationDate,2024-06-16T18:47:49-07:00*%
%TF.ProjectId,AMS - CANBus - RGB - Nchannel,414d5320-2d20-4434-914e-427573202d20,rev?*%
%TF.SameCoordinates,Original*%
%TF.FileFunction,Profile,NP*%
%FSLAX46Y46*%
G04 Gerber Fmt 4.6, Leading zero omitted, Abs format (unit mm)*
G04 Created by KiCad (PCBNEW 8.0.1-rc1) date 2024-06-16 18:47:49*
%MOMM*%
%LPD*%
G01*
G04 APERTURE LIST*
%ADD10C,0.200000*%
%TA.AperFunction,Profile*%
%ADD11C,0.200000*%
%TD*%
G04 APERTURE END LIST*
D10*
X175629317Y-111545738D02*
X175642430Y-111286037D01*
X175680920Y-111033839D01*
X175743510Y-110790419D01*
X175828922Y-110557055D01*
X175935881Y-110335022D01*
X176063109Y-110125599D01*
X176209329Y-109930061D01*
X176373265Y-109749686D01*
X176553641Y-109585750D01*
X176749178Y-109439529D01*
X176958602Y-109312302D01*
X177180634Y-109205343D01*
X177413998Y-109119931D01*
X177657418Y-109057341D01*
X177909616Y-109018851D01*
X178169317Y-109005738D01*
D11*
X121527300Y-56300729D02*
X121527300Y-72175733D01*
D10*
X118987300Y-109005738D02*
X119247000Y-109018851D01*
X119499198Y-109057341D01*
X119742618Y-109119931D01*
X119975982Y-109205343D01*
X120198015Y-109312302D01*
X120407438Y-109439529D01*
X120602976Y-109585750D01*
X120783351Y-109749686D01*
X120947287Y-109930061D01*
X121093508Y-110125599D01*
X121220735Y-110335022D01*
X121327694Y-110557055D01*
X121413106Y-110790419D01*
X121475696Y-111033839D01*
X121514186Y-111286037D01*
X121527300Y-111545738D01*
D11*
X173089309Y-62904725D02*
G75*
G02*
X167501309Y-62904725I-2794000J0D01*
G01*
X167501309Y-62904725D02*
G75*
G02*
X173089309Y-62904725I2794000J0D01*
G01*
X175629317Y-127420721D02*
X175629317Y-111545738D01*
X185027300Y-74715733D02*
X178169317Y-74715733D01*
D10*
X121527300Y-72175733D02*
X121514186Y-72435433D01*
X121475696Y-72687631D01*
X121413106Y-72931051D01*
X121327694Y-73164415D01*
X121220735Y-73386448D01*
X121093508Y-73595871D01*
X120947287Y-73791409D01*
X120783351Y-73971784D01*
X120602976Y-74135720D01*
X120407438Y-74281941D01*
X120198015Y-74409168D01*
X119975982Y-74516127D01*
X119742618Y-74601539D01*
X119499198Y-74664129D01*
X119247000Y-74702619D01*
X118987300Y-74715733D01*
D11*
X121527300Y-111545738D02*
X121527300Y-127420721D01*
X112129317Y-74715733D02*
X112129317Y-109005738D01*
X121527300Y-127420721D02*
X175629317Y-127420721D01*
X173089309Y-120816725D02*
G75*
G02*
X167501309Y-120816725I-2794000J0D01*
G01*
X167501309Y-120816725D02*
G75*
G02*
X173089309Y-120816725I2794000J0D01*
G01*
X175629317Y-56300729D02*
X121527300Y-56300729D01*
X178169317Y-109005738D02*
X185027300Y-109005738D01*
X129655309Y-62904725D02*
G75*
G02*
X124067309Y-62904725I-2794000J0D01*
G01*
X124067309Y-62904725D02*
G75*
G02*
X129655309Y-62904725I2794000J0D01*
G01*
X185027300Y-109005738D02*
X185027300Y-74715733D01*
X112129317Y-109005738D02*
X118987300Y-109005738D01*
X118987300Y-74715733D02*
X112129317Y-74715733D01*
X129655309Y-120816725D02*
G75*
G02*
X124067309Y-120816725I-2794000J0D01*
G01*
X124067309Y-120816725D02*
G75*
G02*
X129655309Y-120816725I2794000J0D01*
G01*
D10*
X178169317Y-74715733D02*
X177909616Y-74702619D01*
X177657418Y-74664129D01*
X177413998Y-74601539D01*
X177180634Y-74516127D01*
X176958602Y-74409168D01*
X176749178Y-74281941D01*
X176553641Y-74135720D01*
X176373265Y-73971784D01*
X176209329Y-73791409D01*
X176063109Y-73595871D01*
X175935881Y-73386448D01*
X175828922Y-73164415D01*
X175743510Y-72931051D01*
X175680920Y-72687631D01*
X175642430Y-72435433D01*
X175629317Y-72175733D01*
D11*
X175629317Y-72175733D02*
X175629317Y-56300729D01*
M02*
