%TF.GenerationSoftware,KiCad,Pcbnew,8.0.1-rc1*%
%TF.CreationDate,2024-06-22T18:18:56-07:00*%
%TF.ProjectId,AMS - CANBus - RGB - Nchannel,414d5320-2d20-4434-914e-427573202d20,rev?*%
%TF.SameCoordinates,Original*%
%TF.FileFunction,Soldermask,Bot*%
%TF.FilePolarity,Negative*%
%FSLAX46Y46*%
G04 Gerber Fmt 4.6, Leading zero omitted, Abs format (unit mm)*
G04 Created by KiCad (PCBNEW 8.0.1-rc1) date 2024-06-22 18:18:56*
%MOMM*%
%LPD*%
G01*
G04 APERTURE LIST*
G04 Aperture macros list*
%AMRoundRect*
0 Rectangle with rounded corners*
0 $1 Rounding radius*
0 $2 $3 $4 $5 $6 $7 $8 $9 X,Y pos of 4 corners*
0 Add a 4 corners polygon primitive as box body*
4,1,4,$2,$3,$4,$5,$6,$7,$8,$9,$2,$3,0*
0 Add four circle primitives for the rounded corners*
1,1,$1+$1,$2,$3*
1,1,$1+$1,$4,$5*
1,1,$1+$1,$6,$7*
1,1,$1+$1,$8,$9*
0 Add four rect primitives between the rounded corners*
20,1,$1+$1,$2,$3,$4,$5,0*
20,1,$1+$1,$4,$5,$6,$7,0*
20,1,$1+$1,$6,$7,$8,$9,0*
20,1,$1+$1,$8,$9,$2,$3,0*%
G04 Aperture macros list end*
%ADD10R,1.920000X1.920000*%
%ADD11C,1.920000*%
%ADD12C,1.600000*%
%ADD13O,1.600000X1.600000*%
%ADD14R,2.200000X2.200000*%
%ADD15O,2.200000X2.200000*%
%ADD16C,2.200000*%
%ADD17R,2.600000X2.600000*%
%ADD18C,2.600000*%
%ADD19R,1.700000X1.700000*%
%ADD20O,1.700000X1.700000*%
%ADD21C,2.400000*%
%ADD22R,1.150000X1.150000*%
%ADD23C,1.150000*%
%ADD24R,1.600000X1.600000*%
%ADD25C,1.500000*%
%ADD26R,1.500000X1.500000*%
%ADD27RoundRect,0.250000X0.400000X0.625000X-0.400000X0.625000X-0.400000X-0.625000X0.400000X-0.625000X0*%
%ADD28RoundRect,0.250000X-0.412500X-0.650000X0.412500X-0.650000X0.412500X0.650000X-0.412500X0.650000X0*%
%ADD29RoundRect,0.150000X0.825000X0.150000X-0.825000X0.150000X-0.825000X-0.150000X0.825000X-0.150000X0*%
%ADD30RoundRect,0.150000X0.587500X0.150000X-0.587500X0.150000X-0.587500X-0.150000X0.587500X-0.150000X0*%
%ADD31RoundRect,0.250000X-0.625000X0.400000X-0.625000X-0.400000X0.625000X-0.400000X0.625000X0.400000X0*%
%ADD32RoundRect,0.250000X0.412500X0.650000X-0.412500X0.650000X-0.412500X-0.650000X0.412500X-0.650000X0*%
%ADD33RoundRect,0.150000X0.875000X0.150000X-0.875000X0.150000X-0.875000X-0.150000X0.875000X-0.150000X0*%
%ADD34RoundRect,0.250000X0.625000X-0.400000X0.625000X0.400000X-0.625000X0.400000X-0.625000X-0.400000X0*%
%ADD35R,1.000000X0.550000*%
G04 APERTURE END LIST*
D10*
%TO.C,Q3*%
X157029900Y-104966800D03*
D11*
X159569900Y-104966800D03*
X162109900Y-104966800D03*
%TD*%
D10*
%TO.C,Q5*%
X157029900Y-97215700D03*
D11*
X159569900Y-97215700D03*
X162109900Y-97215700D03*
%TD*%
D12*
%TO.C,R7*%
X139116100Y-58260700D03*
D13*
X141656100Y-58260700D03*
%TD*%
D14*
%TO.C,D2*%
X170632200Y-75831200D03*
D15*
X160472200Y-75831200D03*
%TD*%
D14*
%TO.C,J1*%
X154748000Y-66384800D03*
D16*
X154748000Y-63844800D03*
X154748000Y-61304800D03*
X154748000Y-58764800D03*
%TD*%
D17*
%TO.C,J2*%
X171594600Y-102105600D03*
D18*
X171594600Y-97025600D03*
X171594600Y-91945600D03*
X171594600Y-86865600D03*
X171594600Y-81785600D03*
%TD*%
D12*
%TO.C,NTC1*%
X135965600Y-94809500D03*
D13*
X135965600Y-97349500D03*
%TD*%
D10*
%TO.C,Q7*%
X156961400Y-89326400D03*
D11*
X159501400Y-89326400D03*
X162041400Y-89326400D03*
%TD*%
D19*
%TO.C,J3*%
X146254600Y-120744200D03*
D20*
X143714600Y-120744200D03*
X141174600Y-120744200D03*
X138634600Y-120744200D03*
X136094600Y-120744200D03*
X133554600Y-120744200D03*
%TD*%
D21*
%TO.C,U5*%
X134999500Y-70018000D03*
X134999500Y-73418000D03*
X125079500Y-70018000D03*
X125079500Y-73418000D03*
%TD*%
D22*
%TO.C,Z1*%
X162430500Y-107964000D03*
D23*
X151730500Y-107964000D03*
%TD*%
D12*
%TO.C,R6*%
X161933600Y-72318900D03*
D13*
X159393600Y-72318900D03*
%TD*%
D10*
%TO.C,Q9*%
X156916800Y-81600400D03*
D11*
X159456800Y-81600400D03*
X161996800Y-81600400D03*
%TD*%
D19*
%TO.C,Powerboard1*%
X130976300Y-92602600D03*
D20*
X130976300Y-90062600D03*
X130976300Y-87522600D03*
%TD*%
D22*
%TO.C,Z2*%
X161977900Y-100269500D03*
D23*
X151277900Y-100269500D03*
%TD*%
D24*
%TO.C,U2*%
X140929500Y-81761800D03*
D13*
X140929500Y-84301800D03*
X140929500Y-86841800D03*
X140929500Y-89381800D03*
X140929500Y-91921800D03*
X140929500Y-94461800D03*
X140929500Y-97001800D03*
X140929500Y-99541800D03*
X140929500Y-102081800D03*
X140929500Y-104621800D03*
X140929500Y-107161800D03*
X140929500Y-109701800D03*
X140929500Y-112241800D03*
X140929500Y-114781800D03*
X148549500Y-114781800D03*
X148549500Y-112241800D03*
X148549500Y-109701800D03*
X148549500Y-107161800D03*
X148549500Y-104621800D03*
X148549500Y-102081800D03*
X148549500Y-99541800D03*
X148549500Y-97001800D03*
X148549500Y-94461800D03*
X148549500Y-91921800D03*
X148549500Y-89381800D03*
X148549500Y-86841800D03*
X148549500Y-84301800D03*
X148549500Y-81761800D03*
%TD*%
D19*
%TO.C,J5*%
X139049600Y-61738500D03*
D20*
X141589600Y-61738500D03*
%TD*%
D10*
%TO.C,Q1*%
X136586000Y-84423600D03*
D11*
X136586000Y-81883600D03*
X136586000Y-79343600D03*
%TD*%
D25*
%TO.C,Y2*%
X153203400Y-112099600D03*
X158083400Y-112099600D03*
%TD*%
D26*
%TO.C,Reset1*%
X135385300Y-113752500D03*
D25*
X128885300Y-113752500D03*
X135385300Y-109252500D03*
X128885300Y-109252500D03*
%TD*%
%TO.C,Y1*%
X153178500Y-121354000D03*
X158058500Y-121354000D03*
%TD*%
D22*
%TO.C,Z4*%
X161963000Y-84624300D03*
D23*
X151263000Y-84624300D03*
%TD*%
D22*
%TO.C,Z3*%
X161963000Y-92343800D03*
D23*
X151263000Y-92343800D03*
%TD*%
D27*
%TO.C,R20*%
X176769600Y-77837900D03*
X173669600Y-77837900D03*
%TD*%
%TO.C,R16*%
X159386300Y-86870400D03*
X156286300Y-86870400D03*
%TD*%
%TO.C,R12*%
X163917200Y-94778800D03*
X160817200Y-94778800D03*
%TD*%
%TO.C,R14*%
X158163000Y-92343800D03*
X155063000Y-92343800D03*
%TD*%
%TO.C,R19*%
X159068200Y-78796800D03*
X155968200Y-78796800D03*
%TD*%
D28*
%TO.C,C2*%
X151273200Y-117184300D03*
X154398200Y-117184300D03*
%TD*%
D29*
%TO.C,U4*%
X163203300Y-66068900D03*
X163203300Y-67338900D03*
X163203300Y-68608900D03*
X163203300Y-69878900D03*
X158253300Y-69878900D03*
X158253300Y-68608900D03*
X158253300Y-67338900D03*
X158253300Y-66068900D03*
%TD*%
D27*
%TO.C,R1*%
X131364300Y-81129300D03*
X128264300Y-81129300D03*
%TD*%
%TO.C,R18*%
X164047000Y-78759100D03*
X160947000Y-78759100D03*
%TD*%
D30*
%TO.C,Q6*%
X153141200Y-88862400D03*
X153141200Y-90762400D03*
X151266200Y-89812400D03*
%TD*%
D31*
%TO.C,R4*%
X132096400Y-109912300D03*
X132096400Y-113012300D03*
%TD*%
D30*
%TO.C,Q8*%
X153776600Y-80343300D03*
X153776600Y-82243300D03*
X151901600Y-81293300D03*
%TD*%
D32*
%TO.C,C4*%
X159775700Y-117159400D03*
X156650700Y-117159400D03*
%TD*%
D33*
%TO.C,U3*%
X151455100Y-65127000D03*
X151455100Y-66397000D03*
X151455100Y-67667000D03*
X151455100Y-68937000D03*
X151455100Y-70207000D03*
X151455100Y-71477000D03*
X151455100Y-72747000D03*
X151455100Y-74017000D03*
X151455100Y-75287000D03*
X142155100Y-75287000D03*
X142155100Y-74017000D03*
X142155100Y-72747000D03*
X142155100Y-71477000D03*
X142155100Y-70207000D03*
X142155100Y-68937000D03*
X142155100Y-67667000D03*
X142155100Y-66397000D03*
X142155100Y-65127000D03*
%TD*%
D34*
%TO.C,R5*%
X144703000Y-87196800D03*
X144703000Y-84096800D03*
%TD*%
D31*
%TO.C,R3*%
X135973000Y-89148700D03*
X135973000Y-92248700D03*
%TD*%
D27*
%TO.C,R15*%
X164314800Y-86895500D03*
X161214800Y-86895500D03*
%TD*%
D32*
%TO.C,C1*%
X138717100Y-117199700D03*
X135592100Y-117199700D03*
%TD*%
D31*
%TO.C,R2*%
X144995600Y-99509000D03*
X144995600Y-102609000D03*
%TD*%
D27*
%TO.C,R9*%
X164299100Y-102591300D03*
X161199100Y-102591300D03*
%TD*%
%TO.C,R8*%
X158630500Y-107964000D03*
X155530500Y-107964000D03*
%TD*%
%TO.C,R13*%
X158976100Y-94816600D03*
X155876100Y-94816600D03*
%TD*%
%TO.C,R10*%
X158890400Y-102591300D03*
X155790400Y-102591300D03*
%TD*%
%TO.C,R11*%
X158177900Y-100269500D03*
X155077900Y-100269500D03*
%TD*%
D30*
%TO.C,Q10*%
X166489700Y-74881200D03*
X166489700Y-76781200D03*
X164614700Y-75831200D03*
%TD*%
D32*
%TO.C,C7*%
X137705500Y-103901700D03*
X134580500Y-103901700D03*
%TD*%
D35*
%TO.C,D1*%
X155737000Y-69105000D03*
X155737000Y-70405000D03*
X153837000Y-69755000D03*
%TD*%
D32*
%TO.C,C6*%
X137701800Y-101431800D03*
X134576800Y-101431800D03*
%TD*%
D30*
%TO.C,Q2*%
X152695600Y-104373800D03*
X152695600Y-106273800D03*
X150820600Y-105323800D03*
%TD*%
%TO.C,Q4*%
X153976400Y-96165100D03*
X153976400Y-98065100D03*
X152101400Y-97115100D03*
%TD*%
D27*
%TO.C,R17*%
X158163000Y-84624300D03*
X155063000Y-84624300D03*
%TD*%
M02*
