M48
INCH
T1C0.0118
T2C0.0295
T3C0.0315
T4C0.0394
T5C0.0433
T6C0.0504
T7C0.0512
T8C0.0630
%
G90
G05
T1
X5.0481Y-3.1938
X5.0874Y-4.1291
X5.1287Y-4.3511
X5.1883Y-4.5199
X5.2009Y-4.326
X5.2966Y-3.6087
X5.4213Y-3.9934
X5.7044Y-3.5933
X5.7058Y-2.89
X5.7094Y-2.725
X5.7102Y-2.7695
X5.9512Y-4.0121
X6.0117Y-4.1092
X6.0291Y-3.4995
X6.0537Y-3.1628
X6.0622Y-3.7862
X6.0781Y-4.614
X6.1676Y-4.612
X6.2269Y-3.3317
X6.2269Y-3.6356
X6.2275Y-3.9476
X6.2453Y-4.2506
X6.4253Y-2.6511
X6.4835Y-2.7111
X6.5547Y-2.9481
X6.8357Y-3.064
X6.959Y-3.0661
T2
X5.9552Y-3.3317
X5.9552Y-3.6356
X5.9558Y-3.9476
X5.9736Y-4.2506
X6.3765Y-3.3317
X6.3765Y-3.6356
X6.3771Y-3.9476
X6.3949Y-4.2506
T3
X5.353Y-3.7327
X5.353Y-3.8327
X5.477Y-2.2937
X5.5484Y-3.219
X5.5484Y-3.319
X5.5484Y-3.419
X5.5484Y-3.519
X5.5484Y-3.619
X5.5484Y-3.719
X5.5484Y-3.819
X5.5484Y-3.919
X5.5484Y-4.019
X5.5484Y-4.119
X5.5484Y-4.219
X5.5484Y-4.319
X5.5484Y-4.419
X5.5484Y-4.519
X5.577Y-2.2937
X5.8484Y-3.219
X5.8484Y-3.319
X5.8484Y-3.419
X5.8484Y-3.519
X5.8484Y-3.619
X5.8484Y-3.719
X5.8484Y-3.819
X5.8484Y-3.919
X5.8484Y-4.019
X5.8484Y-4.119
X5.8484Y-4.219
X5.8484Y-4.319
X5.8484Y-4.419
X5.8484Y-4.519
X6.0306Y-4.7777
X6.0316Y-4.4134
X6.2228Y-4.7777
X6.2238Y-4.4134
X6.2753Y-2.8472
X6.3753Y-2.8472
T4
X5.0742Y-4.3013
X5.0742Y-4.4784
X5.1565Y-3.4458
X5.1565Y-3.5458
X5.1565Y-3.6458
X5.2581Y-4.7537
X5.3301Y-4.3013
X5.3301Y-4.4784
X5.3581Y-4.7537
X5.4581Y-4.7537
X5.4744Y-2.4306
X5.5581Y-4.7537
X5.5744Y-2.4306
X5.6581Y-4.7537
X5.7581Y-4.7537
T5
X6.0924Y-2.3136
X6.0924Y-2.4136
X6.0924Y-2.5136
X6.0924Y-2.6136
X6.3178Y-2.9855
X6.7178Y-2.9855
T6
X5.3774Y-3.1238
X5.3774Y-3.2238
X5.3774Y-3.3238
X6.1778Y-3.2126
X6.1796Y-3.5168
X6.1823Y-3.8274
X6.1823Y-4.1326
X6.2778Y-3.2126
X6.2796Y-3.5168
X6.2823Y-3.8274
X6.2823Y-4.1326
X6.3778Y-3.2126
X6.3796Y-3.5168
X6.3823Y-3.8274
X6.3823Y-4.1326
T7
X6.7557Y-3.2199
X6.7557Y-3.4199
X6.7557Y-3.6199
X6.7557Y-3.8199
X6.7557Y-4.0199
T8
X4.9244Y-2.7566
X4.9244Y-2.8905
X5.3149Y-2.7566
X5.3149Y-2.8905
M30
