%TF.GenerationSoftware,KiCad,Pcbnew,8.0.1-rc1*%
%TF.CreationDate,2024-06-16T18:47:49-07:00*%
%TF.ProjectId,AMS - CANBus - RGB - Nchannel,414d5320-2d20-4434-914e-427573202d20,rev?*%
%TF.SameCoordinates,Original*%
%TF.FileFunction,Legend,Bot*%
%TF.FilePolarity,Positive*%
%FSLAX46Y46*%
G04 Gerber Fmt 4.6, Leading zero omitted, Abs format (unit mm)*
G04 Created by KiCad (PCBNEW 8.0.1-rc1) date 2024-06-16 18:47:49*
%MOMM*%
%LPD*%
G01*
G04 APERTURE LIST*
G04 Aperture macros list*
%AMRoundRect*
0 Rectangle with rounded corners*
0 $1 Rounding radius*
0 $2 $3 $4 $5 $6 $7 $8 $9 X,Y pos of 4 corners*
0 Add a 4 corners polygon primitive as box body*
4,1,4,$2,$3,$4,$5,$6,$7,$8,$9,$2,$3,0*
0 Add four circle primitives for the rounded corners*
1,1,$1+$1,$2,$3*
1,1,$1+$1,$4,$5*
1,1,$1+$1,$6,$7*
1,1,$1+$1,$8,$9*
0 Add four rect primitives between the rounded corners*
20,1,$1+$1,$2,$3,$4,$5,0*
20,1,$1+$1,$4,$5,$6,$7,0*
20,1,$1+$1,$6,$7,$8,$9,0*
20,1,$1+$1,$8,$9,$2,$3,0*%
G04 Aperture macros list end*
%ADD10C,0.150000*%
%ADD11C,0.254000*%
%ADD12C,0.120000*%
%ADD13C,0.200000*%
%ADD14R,1.920000X1.920000*%
%ADD15C,1.920000*%
%ADD16C,1.600000*%
%ADD17O,1.600000X1.600000*%
%ADD18R,2.200000X2.200000*%
%ADD19O,2.200000X2.200000*%
%ADD20C,2.200000*%
%ADD21R,2.600000X2.600000*%
%ADD22C,2.600000*%
%ADD23R,1.700000X1.700000*%
%ADD24O,1.700000X1.700000*%
%ADD25C,2.400000*%
%ADD26R,1.150000X1.150000*%
%ADD27C,1.150000*%
%ADD28R,1.600000X1.600000*%
%ADD29C,1.500000*%
%ADD30R,1.500000X1.500000*%
%ADD31RoundRect,0.250000X0.400000X0.625000X-0.400000X0.625000X-0.400000X-0.625000X0.400000X-0.625000X0*%
%ADD32RoundRect,0.250000X-0.412500X-0.650000X0.412500X-0.650000X0.412500X0.650000X-0.412500X0.650000X0*%
%ADD33RoundRect,0.150000X0.825000X0.150000X-0.825000X0.150000X-0.825000X-0.150000X0.825000X-0.150000X0*%
%ADD34RoundRect,0.150000X0.587500X0.150000X-0.587500X0.150000X-0.587500X-0.150000X0.587500X-0.150000X0*%
%ADD35RoundRect,0.250000X-0.625000X0.400000X-0.625000X-0.400000X0.625000X-0.400000X0.625000X0.400000X0*%
%ADD36RoundRect,0.250000X0.412500X0.650000X-0.412500X0.650000X-0.412500X-0.650000X0.412500X-0.650000X0*%
%ADD37RoundRect,0.150000X0.875000X0.150000X-0.875000X0.150000X-0.875000X-0.150000X0.875000X-0.150000X0*%
%ADD38RoundRect,0.250000X0.625000X-0.400000X0.625000X0.400000X-0.625000X0.400000X-0.625000X-0.400000X0*%
%ADD39R,1.000000X0.550000*%
G04 APERTURE END LIST*
D10*
X175862457Y-76472719D02*
X176195790Y-75996528D01*
X176433885Y-76472719D02*
X176433885Y-75472719D01*
X176433885Y-75472719D02*
X176052933Y-75472719D01*
X176052933Y-75472719D02*
X175957695Y-75520338D01*
X175957695Y-75520338D02*
X175910076Y-75567957D01*
X175910076Y-75567957D02*
X175862457Y-75663195D01*
X175862457Y-75663195D02*
X175862457Y-75806052D01*
X175862457Y-75806052D02*
X175910076Y-75901290D01*
X175910076Y-75901290D02*
X175957695Y-75948909D01*
X175957695Y-75948909D02*
X176052933Y-75996528D01*
X176052933Y-75996528D02*
X176433885Y-75996528D01*
X175481504Y-75567957D02*
X175433885Y-75520338D01*
X175433885Y-75520338D02*
X175338647Y-75472719D01*
X175338647Y-75472719D02*
X175100552Y-75472719D01*
X175100552Y-75472719D02*
X175005314Y-75520338D01*
X175005314Y-75520338D02*
X174957695Y-75567957D01*
X174957695Y-75567957D02*
X174910076Y-75663195D01*
X174910076Y-75663195D02*
X174910076Y-75758433D01*
X174910076Y-75758433D02*
X174957695Y-75901290D01*
X174957695Y-75901290D02*
X175529123Y-76472719D01*
X175529123Y-76472719D02*
X174910076Y-76472719D01*
X174291028Y-75472719D02*
X174195790Y-75472719D01*
X174195790Y-75472719D02*
X174100552Y-75520338D01*
X174100552Y-75520338D02*
X174052933Y-75567957D01*
X174052933Y-75567957D02*
X174005314Y-75663195D01*
X174005314Y-75663195D02*
X173957695Y-75853671D01*
X173957695Y-75853671D02*
X173957695Y-76091766D01*
X173957695Y-76091766D02*
X174005314Y-76282242D01*
X174005314Y-76282242D02*
X174052933Y-76377480D01*
X174052933Y-76377480D02*
X174100552Y-76425100D01*
X174100552Y-76425100D02*
X174195790Y-76472719D01*
X174195790Y-76472719D02*
X174291028Y-76472719D01*
X174291028Y-76472719D02*
X174386266Y-76425100D01*
X174386266Y-76425100D02*
X174433885Y-76377480D01*
X174433885Y-76377480D02*
X174481504Y-76282242D01*
X174481504Y-76282242D02*
X174529123Y-76091766D01*
X174529123Y-76091766D02*
X174529123Y-75853671D01*
X174529123Y-75853671D02*
X174481504Y-75663195D01*
X174481504Y-75663195D02*
X174433885Y-75567957D01*
X174433885Y-75567957D02*
X174386266Y-75520338D01*
X174386266Y-75520338D02*
X174291028Y-75472719D01*
X154556466Y-87149201D02*
X154889799Y-86673010D01*
X155127894Y-87149201D02*
X155127894Y-86149201D01*
X155127894Y-86149201D02*
X154746942Y-86149201D01*
X154746942Y-86149201D02*
X154651704Y-86196820D01*
X154651704Y-86196820D02*
X154604085Y-86244439D01*
X154604085Y-86244439D02*
X154556466Y-86339677D01*
X154556466Y-86339677D02*
X154556466Y-86482534D01*
X154556466Y-86482534D02*
X154604085Y-86577772D01*
X154604085Y-86577772D02*
X154651704Y-86625391D01*
X154651704Y-86625391D02*
X154746942Y-86673010D01*
X154746942Y-86673010D02*
X155127894Y-86673010D01*
X153604085Y-87149201D02*
X154175513Y-87149201D01*
X153889799Y-87149201D02*
X153889799Y-86149201D01*
X153889799Y-86149201D02*
X153985037Y-86292058D01*
X153985037Y-86292058D02*
X154080275Y-86387296D01*
X154080275Y-86387296D02*
X154175513Y-86434915D01*
X152746942Y-86149201D02*
X152937418Y-86149201D01*
X152937418Y-86149201D02*
X153032656Y-86196820D01*
X153032656Y-86196820D02*
X153080275Y-86244439D01*
X153080275Y-86244439D02*
X153175513Y-86387296D01*
X153175513Y-86387296D02*
X153223132Y-86577772D01*
X153223132Y-86577772D02*
X153223132Y-86958724D01*
X153223132Y-86958724D02*
X153175513Y-87053962D01*
X153175513Y-87053962D02*
X153127894Y-87101582D01*
X153127894Y-87101582D02*
X153032656Y-87149201D01*
X153032656Y-87149201D02*
X152842180Y-87149201D01*
X152842180Y-87149201D02*
X152746942Y-87101582D01*
X152746942Y-87101582D02*
X152699323Y-87053962D01*
X152699323Y-87053962D02*
X152651704Y-86958724D01*
X152651704Y-86958724D02*
X152651704Y-86720629D01*
X152651704Y-86720629D02*
X152699323Y-86625391D01*
X152699323Y-86625391D02*
X152746942Y-86577772D01*
X152746942Y-86577772D02*
X152842180Y-86530153D01*
X152842180Y-86530153D02*
X153032656Y-86530153D01*
X153032656Y-86530153D02*
X153127894Y-86577772D01*
X153127894Y-86577772D02*
X153175513Y-86625391D01*
X153175513Y-86625391D02*
X153223132Y-86720629D01*
X166895029Y-95346774D02*
X167228362Y-94870583D01*
X167466457Y-95346774D02*
X167466457Y-94346774D01*
X167466457Y-94346774D02*
X167085505Y-94346774D01*
X167085505Y-94346774D02*
X166990267Y-94394393D01*
X166990267Y-94394393D02*
X166942648Y-94442012D01*
X166942648Y-94442012D02*
X166895029Y-94537250D01*
X166895029Y-94537250D02*
X166895029Y-94680107D01*
X166895029Y-94680107D02*
X166942648Y-94775345D01*
X166942648Y-94775345D02*
X166990267Y-94822964D01*
X166990267Y-94822964D02*
X167085505Y-94870583D01*
X167085505Y-94870583D02*
X167466457Y-94870583D01*
X165942648Y-95346774D02*
X166514076Y-95346774D01*
X166228362Y-95346774D02*
X166228362Y-94346774D01*
X166228362Y-94346774D02*
X166323600Y-94489631D01*
X166323600Y-94489631D02*
X166418838Y-94584869D01*
X166418838Y-94584869D02*
X166514076Y-94632488D01*
X165561695Y-94442012D02*
X165514076Y-94394393D01*
X165514076Y-94394393D02*
X165418838Y-94346774D01*
X165418838Y-94346774D02*
X165180743Y-94346774D01*
X165180743Y-94346774D02*
X165085505Y-94394393D01*
X165085505Y-94394393D02*
X165037886Y-94442012D01*
X165037886Y-94442012D02*
X164990267Y-94537250D01*
X164990267Y-94537250D02*
X164990267Y-94632488D01*
X164990267Y-94632488D02*
X165037886Y-94775345D01*
X165037886Y-94775345D02*
X165609314Y-95346774D01*
X165609314Y-95346774D02*
X164990267Y-95346774D01*
X160002384Y-91703204D02*
X159526193Y-91369871D01*
X160002384Y-91131776D02*
X159002384Y-91131776D01*
X159002384Y-91131776D02*
X159002384Y-91512728D01*
X159002384Y-91512728D02*
X159050003Y-91607966D01*
X159050003Y-91607966D02*
X159097622Y-91655585D01*
X159097622Y-91655585D02*
X159192860Y-91703204D01*
X159192860Y-91703204D02*
X159335717Y-91703204D01*
X159335717Y-91703204D02*
X159430955Y-91655585D01*
X159430955Y-91655585D02*
X159478574Y-91607966D01*
X159478574Y-91607966D02*
X159526193Y-91512728D01*
X159526193Y-91512728D02*
X159526193Y-91131776D01*
X160002384Y-92655585D02*
X160002384Y-92084157D01*
X160002384Y-92369871D02*
X159002384Y-92369871D01*
X159002384Y-92369871D02*
X159145241Y-92274633D01*
X159145241Y-92274633D02*
X159240479Y-92179395D01*
X159240479Y-92179395D02*
X159288098Y-92084157D01*
X159335717Y-93512728D02*
X160002384Y-93512728D01*
X158954765Y-93274633D02*
X159669050Y-93036538D01*
X159669050Y-93036538D02*
X159669050Y-93655585D01*
X158161057Y-77431619D02*
X158494390Y-76955428D01*
X158732485Y-77431619D02*
X158732485Y-76431619D01*
X158732485Y-76431619D02*
X158351533Y-76431619D01*
X158351533Y-76431619D02*
X158256295Y-76479238D01*
X158256295Y-76479238D02*
X158208676Y-76526857D01*
X158208676Y-76526857D02*
X158161057Y-76622095D01*
X158161057Y-76622095D02*
X158161057Y-76764952D01*
X158161057Y-76764952D02*
X158208676Y-76860190D01*
X158208676Y-76860190D02*
X158256295Y-76907809D01*
X158256295Y-76907809D02*
X158351533Y-76955428D01*
X158351533Y-76955428D02*
X158732485Y-76955428D01*
X157208676Y-77431619D02*
X157780104Y-77431619D01*
X157494390Y-77431619D02*
X157494390Y-76431619D01*
X157494390Y-76431619D02*
X157589628Y-76574476D01*
X157589628Y-76574476D02*
X157684866Y-76669714D01*
X157684866Y-76669714D02*
X157780104Y-76717333D01*
X156732485Y-77431619D02*
X156542009Y-77431619D01*
X156542009Y-77431619D02*
X156446771Y-77384000D01*
X156446771Y-77384000D02*
X156399152Y-77336380D01*
X156399152Y-77336380D02*
X156303914Y-77193523D01*
X156303914Y-77193523D02*
X156256295Y-77003047D01*
X156256295Y-77003047D02*
X156256295Y-76622095D01*
X156256295Y-76622095D02*
X156303914Y-76526857D01*
X156303914Y-76526857D02*
X156351533Y-76479238D01*
X156351533Y-76479238D02*
X156446771Y-76431619D01*
X156446771Y-76431619D02*
X156637247Y-76431619D01*
X156637247Y-76431619D02*
X156732485Y-76479238D01*
X156732485Y-76479238D02*
X156780104Y-76526857D01*
X156780104Y-76526857D02*
X156827723Y-76622095D01*
X156827723Y-76622095D02*
X156827723Y-76860190D01*
X156827723Y-76860190D02*
X156780104Y-76955428D01*
X156780104Y-76955428D02*
X156732485Y-77003047D01*
X156732485Y-77003047D02*
X156637247Y-77050666D01*
X156637247Y-77050666D02*
X156446771Y-77050666D01*
X156446771Y-77050666D02*
X156351533Y-77003047D01*
X156351533Y-77003047D02*
X156303914Y-76955428D01*
X156303914Y-76955428D02*
X156256295Y-76860190D01*
X149496712Y-117604797D02*
X149544331Y-117652417D01*
X149544331Y-117652417D02*
X149687188Y-117700036D01*
X149687188Y-117700036D02*
X149782426Y-117700036D01*
X149782426Y-117700036D02*
X149925283Y-117652417D01*
X149925283Y-117652417D02*
X150020521Y-117557178D01*
X150020521Y-117557178D02*
X150068140Y-117461940D01*
X150068140Y-117461940D02*
X150115759Y-117271464D01*
X150115759Y-117271464D02*
X150115759Y-117128607D01*
X150115759Y-117128607D02*
X150068140Y-116938131D01*
X150068140Y-116938131D02*
X150020521Y-116842893D01*
X150020521Y-116842893D02*
X149925283Y-116747655D01*
X149925283Y-116747655D02*
X149782426Y-116700036D01*
X149782426Y-116700036D02*
X149687188Y-116700036D01*
X149687188Y-116700036D02*
X149544331Y-116747655D01*
X149544331Y-116747655D02*
X149496712Y-116795274D01*
X149115759Y-116795274D02*
X149068140Y-116747655D01*
X149068140Y-116747655D02*
X148972902Y-116700036D01*
X148972902Y-116700036D02*
X148734807Y-116700036D01*
X148734807Y-116700036D02*
X148639569Y-116747655D01*
X148639569Y-116747655D02*
X148591950Y-116795274D01*
X148591950Y-116795274D02*
X148544331Y-116890512D01*
X148544331Y-116890512D02*
X148544331Y-116985750D01*
X148544331Y-116985750D02*
X148591950Y-117128607D01*
X148591950Y-117128607D02*
X149163378Y-117700036D01*
X149163378Y-117700036D02*
X148544331Y-117700036D01*
X161490204Y-64028719D02*
X161490204Y-64838242D01*
X161490204Y-64838242D02*
X161442585Y-64933480D01*
X161442585Y-64933480D02*
X161394966Y-64981100D01*
X161394966Y-64981100D02*
X161299728Y-65028719D01*
X161299728Y-65028719D02*
X161109252Y-65028719D01*
X161109252Y-65028719D02*
X161014014Y-64981100D01*
X161014014Y-64981100D02*
X160966395Y-64933480D01*
X160966395Y-64933480D02*
X160918776Y-64838242D01*
X160918776Y-64838242D02*
X160918776Y-64028719D01*
X160014014Y-64362052D02*
X160014014Y-65028719D01*
X160252109Y-63981100D02*
X160490204Y-64695385D01*
X160490204Y-64695385D02*
X159871157Y-64695385D01*
X129980966Y-79764119D02*
X130314299Y-79287928D01*
X130552394Y-79764119D02*
X130552394Y-78764119D01*
X130552394Y-78764119D02*
X130171442Y-78764119D01*
X130171442Y-78764119D02*
X130076204Y-78811738D01*
X130076204Y-78811738D02*
X130028585Y-78859357D01*
X130028585Y-78859357D02*
X129980966Y-78954595D01*
X129980966Y-78954595D02*
X129980966Y-79097452D01*
X129980966Y-79097452D02*
X130028585Y-79192690D01*
X130028585Y-79192690D02*
X130076204Y-79240309D01*
X130076204Y-79240309D02*
X130171442Y-79287928D01*
X130171442Y-79287928D02*
X130552394Y-79287928D01*
X129028585Y-79764119D02*
X129600013Y-79764119D01*
X129314299Y-79764119D02*
X129314299Y-78764119D01*
X129314299Y-78764119D02*
X129409537Y-78906976D01*
X129409537Y-78906976D02*
X129504775Y-79002214D01*
X129504775Y-79002214D02*
X129600013Y-79049833D01*
X167288856Y-79378936D02*
X167622189Y-78902745D01*
X167860284Y-79378936D02*
X167860284Y-78378936D01*
X167860284Y-78378936D02*
X167479332Y-78378936D01*
X167479332Y-78378936D02*
X167384094Y-78426555D01*
X167384094Y-78426555D02*
X167336475Y-78474174D01*
X167336475Y-78474174D02*
X167288856Y-78569412D01*
X167288856Y-78569412D02*
X167288856Y-78712269D01*
X167288856Y-78712269D02*
X167336475Y-78807507D01*
X167336475Y-78807507D02*
X167384094Y-78855126D01*
X167384094Y-78855126D02*
X167479332Y-78902745D01*
X167479332Y-78902745D02*
X167860284Y-78902745D01*
X166336475Y-79378936D02*
X166907903Y-79378936D01*
X166622189Y-79378936D02*
X166622189Y-78378936D01*
X166622189Y-78378936D02*
X166717427Y-78521793D01*
X166717427Y-78521793D02*
X166812665Y-78617031D01*
X166812665Y-78617031D02*
X166907903Y-78664650D01*
X165765046Y-78807507D02*
X165860284Y-78759888D01*
X165860284Y-78759888D02*
X165907903Y-78712269D01*
X165907903Y-78712269D02*
X165955522Y-78617031D01*
X165955522Y-78617031D02*
X165955522Y-78569412D01*
X165955522Y-78569412D02*
X165907903Y-78474174D01*
X165907903Y-78474174D02*
X165860284Y-78426555D01*
X165860284Y-78426555D02*
X165765046Y-78378936D01*
X165765046Y-78378936D02*
X165574570Y-78378936D01*
X165574570Y-78378936D02*
X165479332Y-78426555D01*
X165479332Y-78426555D02*
X165431713Y-78474174D01*
X165431713Y-78474174D02*
X165384094Y-78569412D01*
X165384094Y-78569412D02*
X165384094Y-78617031D01*
X165384094Y-78617031D02*
X165431713Y-78712269D01*
X165431713Y-78712269D02*
X165479332Y-78759888D01*
X165479332Y-78759888D02*
X165574570Y-78807507D01*
X165574570Y-78807507D02*
X165765046Y-78807507D01*
X165765046Y-78807507D02*
X165860284Y-78855126D01*
X165860284Y-78855126D02*
X165907903Y-78902745D01*
X165907903Y-78902745D02*
X165955522Y-78997983D01*
X165955522Y-78997983D02*
X165955522Y-79188459D01*
X165955522Y-79188459D02*
X165907903Y-79283697D01*
X165907903Y-79283697D02*
X165860284Y-79331317D01*
X165860284Y-79331317D02*
X165765046Y-79378936D01*
X165765046Y-79378936D02*
X165574570Y-79378936D01*
X165574570Y-79378936D02*
X165479332Y-79331317D01*
X165479332Y-79331317D02*
X165431713Y-79283697D01*
X165431713Y-79283697D02*
X165384094Y-79188459D01*
X165384094Y-79188459D02*
X165384094Y-78997983D01*
X165384094Y-78997983D02*
X165431713Y-78902745D01*
X165431713Y-78902745D02*
X165479332Y-78855126D01*
X165479332Y-78855126D02*
X165574570Y-78807507D01*
X150589047Y-88702857D02*
X150684285Y-88655238D01*
X150684285Y-88655238D02*
X150779523Y-88560000D01*
X150779523Y-88560000D02*
X150922380Y-88417142D01*
X150922380Y-88417142D02*
X151017618Y-88369523D01*
X151017618Y-88369523D02*
X151112856Y-88369523D01*
X151065237Y-88607619D02*
X151160475Y-88560000D01*
X151160475Y-88560000D02*
X151255713Y-88464761D01*
X151255713Y-88464761D02*
X151303332Y-88274285D01*
X151303332Y-88274285D02*
X151303332Y-87940952D01*
X151303332Y-87940952D02*
X151255713Y-87750476D01*
X151255713Y-87750476D02*
X151160475Y-87655238D01*
X151160475Y-87655238D02*
X151065237Y-87607619D01*
X151065237Y-87607619D02*
X150874761Y-87607619D01*
X150874761Y-87607619D02*
X150779523Y-87655238D01*
X150779523Y-87655238D02*
X150684285Y-87750476D01*
X150684285Y-87750476D02*
X150636666Y-87940952D01*
X150636666Y-87940952D02*
X150636666Y-88274285D01*
X150636666Y-88274285D02*
X150684285Y-88464761D01*
X150684285Y-88464761D02*
X150779523Y-88560000D01*
X150779523Y-88560000D02*
X150874761Y-88607619D01*
X150874761Y-88607619D02*
X151065237Y-88607619D01*
X149779523Y-87607619D02*
X149969999Y-87607619D01*
X149969999Y-87607619D02*
X150065237Y-87655238D01*
X150065237Y-87655238D02*
X150112856Y-87702857D01*
X150112856Y-87702857D02*
X150208094Y-87845714D01*
X150208094Y-87845714D02*
X150255713Y-88036190D01*
X150255713Y-88036190D02*
X150255713Y-88417142D01*
X150255713Y-88417142D02*
X150208094Y-88512380D01*
X150208094Y-88512380D02*
X150160475Y-88560000D01*
X150160475Y-88560000D02*
X150065237Y-88607619D01*
X150065237Y-88607619D02*
X149874761Y-88607619D01*
X149874761Y-88607619D02*
X149779523Y-88560000D01*
X149779523Y-88560000D02*
X149731904Y-88512380D01*
X149731904Y-88512380D02*
X149684285Y-88417142D01*
X149684285Y-88417142D02*
X149684285Y-88179047D01*
X149684285Y-88179047D02*
X149731904Y-88083809D01*
X149731904Y-88083809D02*
X149779523Y-88036190D01*
X149779523Y-88036190D02*
X149874761Y-87988571D01*
X149874761Y-87988571D02*
X150065237Y-87988571D01*
X150065237Y-87988571D02*
X150160475Y-88036190D01*
X150160475Y-88036190D02*
X150208094Y-88083809D01*
X150208094Y-88083809D02*
X150255713Y-88179047D01*
X130731219Y-111295633D02*
X130255028Y-110962300D01*
X130731219Y-110724205D02*
X129731219Y-110724205D01*
X129731219Y-110724205D02*
X129731219Y-111105157D01*
X129731219Y-111105157D02*
X129778838Y-111200395D01*
X129778838Y-111200395D02*
X129826457Y-111248014D01*
X129826457Y-111248014D02*
X129921695Y-111295633D01*
X129921695Y-111295633D02*
X130064552Y-111295633D01*
X130064552Y-111295633D02*
X130159790Y-111248014D01*
X130159790Y-111248014D02*
X130207409Y-111200395D01*
X130207409Y-111200395D02*
X130255028Y-111105157D01*
X130255028Y-111105157D02*
X130255028Y-110724205D01*
X130064552Y-112152776D02*
X130731219Y-112152776D01*
X129683600Y-111914681D02*
X130397885Y-111676586D01*
X130397885Y-111676586D02*
X130397885Y-112295633D01*
X152934338Y-79443357D02*
X153029576Y-79395738D01*
X153029576Y-79395738D02*
X153124814Y-79300500D01*
X153124814Y-79300500D02*
X153267671Y-79157642D01*
X153267671Y-79157642D02*
X153362909Y-79110023D01*
X153362909Y-79110023D02*
X153458147Y-79110023D01*
X153410528Y-79348119D02*
X153505766Y-79300500D01*
X153505766Y-79300500D02*
X153601004Y-79205261D01*
X153601004Y-79205261D02*
X153648623Y-79014785D01*
X153648623Y-79014785D02*
X153648623Y-78681452D01*
X153648623Y-78681452D02*
X153601004Y-78490976D01*
X153601004Y-78490976D02*
X153505766Y-78395738D01*
X153505766Y-78395738D02*
X153410528Y-78348119D01*
X153410528Y-78348119D02*
X153220052Y-78348119D01*
X153220052Y-78348119D02*
X153124814Y-78395738D01*
X153124814Y-78395738D02*
X153029576Y-78490976D01*
X153029576Y-78490976D02*
X152981957Y-78681452D01*
X152981957Y-78681452D02*
X152981957Y-79014785D01*
X152981957Y-79014785D02*
X153029576Y-79205261D01*
X153029576Y-79205261D02*
X153124814Y-79300500D01*
X153124814Y-79300500D02*
X153220052Y-79348119D01*
X153220052Y-79348119D02*
X153410528Y-79348119D01*
X152410528Y-78776690D02*
X152505766Y-78729071D01*
X152505766Y-78729071D02*
X152553385Y-78681452D01*
X152553385Y-78681452D02*
X152601004Y-78586214D01*
X152601004Y-78586214D02*
X152601004Y-78538595D01*
X152601004Y-78538595D02*
X152553385Y-78443357D01*
X152553385Y-78443357D02*
X152505766Y-78395738D01*
X152505766Y-78395738D02*
X152410528Y-78348119D01*
X152410528Y-78348119D02*
X152220052Y-78348119D01*
X152220052Y-78348119D02*
X152124814Y-78395738D01*
X152124814Y-78395738D02*
X152077195Y-78443357D01*
X152077195Y-78443357D02*
X152029576Y-78538595D01*
X152029576Y-78538595D02*
X152029576Y-78586214D01*
X152029576Y-78586214D02*
X152077195Y-78681452D01*
X152077195Y-78681452D02*
X152124814Y-78729071D01*
X152124814Y-78729071D02*
X152220052Y-78776690D01*
X152220052Y-78776690D02*
X152410528Y-78776690D01*
X152410528Y-78776690D02*
X152505766Y-78824309D01*
X152505766Y-78824309D02*
X152553385Y-78871928D01*
X152553385Y-78871928D02*
X152601004Y-78967166D01*
X152601004Y-78967166D02*
X152601004Y-79157642D01*
X152601004Y-79157642D02*
X152553385Y-79252880D01*
X152553385Y-79252880D02*
X152505766Y-79300500D01*
X152505766Y-79300500D02*
X152410528Y-79348119D01*
X152410528Y-79348119D02*
X152220052Y-79348119D01*
X152220052Y-79348119D02*
X152124814Y-79300500D01*
X152124814Y-79300500D02*
X152077195Y-79252880D01*
X152077195Y-79252880D02*
X152029576Y-79157642D01*
X152029576Y-79157642D02*
X152029576Y-78967166D01*
X152029576Y-78967166D02*
X152077195Y-78871928D01*
X152077195Y-78871928D02*
X152124814Y-78824309D01*
X152124814Y-78824309D02*
X152220052Y-78776690D01*
X161974520Y-117522879D02*
X162022139Y-117570499D01*
X162022139Y-117570499D02*
X162164996Y-117618118D01*
X162164996Y-117618118D02*
X162260234Y-117618118D01*
X162260234Y-117618118D02*
X162403091Y-117570499D01*
X162403091Y-117570499D02*
X162498329Y-117475260D01*
X162498329Y-117475260D02*
X162545948Y-117380022D01*
X162545948Y-117380022D02*
X162593567Y-117189546D01*
X162593567Y-117189546D02*
X162593567Y-117046689D01*
X162593567Y-117046689D02*
X162545948Y-116856213D01*
X162545948Y-116856213D02*
X162498329Y-116760975D01*
X162498329Y-116760975D02*
X162403091Y-116665737D01*
X162403091Y-116665737D02*
X162260234Y-116618118D01*
X162260234Y-116618118D02*
X162164996Y-116618118D01*
X162164996Y-116618118D02*
X162022139Y-116665737D01*
X162022139Y-116665737D02*
X161974520Y-116713356D01*
X161117377Y-116951451D02*
X161117377Y-117618118D01*
X161355472Y-116570499D02*
X161593567Y-117284784D01*
X161593567Y-117284784D02*
X160974520Y-117284784D01*
X147567004Y-62941819D02*
X147567004Y-63751342D01*
X147567004Y-63751342D02*
X147519385Y-63846580D01*
X147519385Y-63846580D02*
X147471766Y-63894200D01*
X147471766Y-63894200D02*
X147376528Y-63941819D01*
X147376528Y-63941819D02*
X147186052Y-63941819D01*
X147186052Y-63941819D02*
X147090814Y-63894200D01*
X147090814Y-63894200D02*
X147043195Y-63846580D01*
X147043195Y-63846580D02*
X146995576Y-63751342D01*
X146995576Y-63751342D02*
X146995576Y-62941819D01*
X146614623Y-62941819D02*
X145995576Y-62941819D01*
X145995576Y-62941819D02*
X146328909Y-63322771D01*
X146328909Y-63322771D02*
X146186052Y-63322771D01*
X146186052Y-63322771D02*
X146090814Y-63370390D01*
X146090814Y-63370390D02*
X146043195Y-63418009D01*
X146043195Y-63418009D02*
X145995576Y-63513247D01*
X145995576Y-63513247D02*
X145995576Y-63751342D01*
X145995576Y-63751342D02*
X146043195Y-63846580D01*
X146043195Y-63846580D02*
X146090814Y-63894200D01*
X146090814Y-63894200D02*
X146186052Y-63941819D01*
X146186052Y-63941819D02*
X146471766Y-63941819D01*
X146471766Y-63941819D02*
X146567004Y-63894200D01*
X146567004Y-63894200D02*
X146614623Y-63846580D01*
X146977819Y-85480133D02*
X146501628Y-85146800D01*
X146977819Y-84908705D02*
X145977819Y-84908705D01*
X145977819Y-84908705D02*
X145977819Y-85289657D01*
X145977819Y-85289657D02*
X146025438Y-85384895D01*
X146025438Y-85384895D02*
X146073057Y-85432514D01*
X146073057Y-85432514D02*
X146168295Y-85480133D01*
X146168295Y-85480133D02*
X146311152Y-85480133D01*
X146311152Y-85480133D02*
X146406390Y-85432514D01*
X146406390Y-85432514D02*
X146454009Y-85384895D01*
X146454009Y-85384895D02*
X146501628Y-85289657D01*
X146501628Y-85289657D02*
X146501628Y-84908705D01*
X145977819Y-86384895D02*
X145977819Y-85908705D01*
X145977819Y-85908705D02*
X146454009Y-85861086D01*
X146454009Y-85861086D02*
X146406390Y-85908705D01*
X146406390Y-85908705D02*
X146358771Y-86003943D01*
X146358771Y-86003943D02*
X146358771Y-86242038D01*
X146358771Y-86242038D02*
X146406390Y-86337276D01*
X146406390Y-86337276D02*
X146454009Y-86384895D01*
X146454009Y-86384895D02*
X146549247Y-86432514D01*
X146549247Y-86432514D02*
X146787342Y-86432514D01*
X146787342Y-86432514D02*
X146882580Y-86384895D01*
X146882580Y-86384895D02*
X146930200Y-86337276D01*
X146930200Y-86337276D02*
X146977819Y-86242038D01*
X146977819Y-86242038D02*
X146977819Y-86003943D01*
X146977819Y-86003943D02*
X146930200Y-85908705D01*
X146930200Y-85908705D02*
X146882580Y-85861086D01*
X134607819Y-90532033D02*
X134131628Y-90198700D01*
X134607819Y-89960605D02*
X133607819Y-89960605D01*
X133607819Y-89960605D02*
X133607819Y-90341557D01*
X133607819Y-90341557D02*
X133655438Y-90436795D01*
X133655438Y-90436795D02*
X133703057Y-90484414D01*
X133703057Y-90484414D02*
X133798295Y-90532033D01*
X133798295Y-90532033D02*
X133941152Y-90532033D01*
X133941152Y-90532033D02*
X134036390Y-90484414D01*
X134036390Y-90484414D02*
X134084009Y-90436795D01*
X134084009Y-90436795D02*
X134131628Y-90341557D01*
X134131628Y-90341557D02*
X134131628Y-89960605D01*
X133607819Y-90865367D02*
X133607819Y-91484414D01*
X133607819Y-91484414D02*
X133988771Y-91151081D01*
X133988771Y-91151081D02*
X133988771Y-91293938D01*
X133988771Y-91293938D02*
X134036390Y-91389176D01*
X134036390Y-91389176D02*
X134084009Y-91436795D01*
X134084009Y-91436795D02*
X134179247Y-91484414D01*
X134179247Y-91484414D02*
X134417342Y-91484414D01*
X134417342Y-91484414D02*
X134512580Y-91436795D01*
X134512580Y-91436795D02*
X134560200Y-91389176D01*
X134560200Y-91389176D02*
X134607819Y-91293938D01*
X134607819Y-91293938D02*
X134607819Y-91008224D01*
X134607819Y-91008224D02*
X134560200Y-90912986D01*
X134560200Y-90912986D02*
X134512580Y-90865367D01*
X167254911Y-87425755D02*
X167588244Y-86949564D01*
X167826339Y-87425755D02*
X167826339Y-86425755D01*
X167826339Y-86425755D02*
X167445387Y-86425755D01*
X167445387Y-86425755D02*
X167350149Y-86473374D01*
X167350149Y-86473374D02*
X167302530Y-86520993D01*
X167302530Y-86520993D02*
X167254911Y-86616231D01*
X167254911Y-86616231D02*
X167254911Y-86759088D01*
X167254911Y-86759088D02*
X167302530Y-86854326D01*
X167302530Y-86854326D02*
X167350149Y-86901945D01*
X167350149Y-86901945D02*
X167445387Y-86949564D01*
X167445387Y-86949564D02*
X167826339Y-86949564D01*
X166302530Y-87425755D02*
X166873958Y-87425755D01*
X166588244Y-87425755D02*
X166588244Y-86425755D01*
X166588244Y-86425755D02*
X166683482Y-86568612D01*
X166683482Y-86568612D02*
X166778720Y-86663850D01*
X166778720Y-86663850D02*
X166873958Y-86711469D01*
X165397768Y-86425755D02*
X165873958Y-86425755D01*
X165873958Y-86425755D02*
X165921577Y-86901945D01*
X165921577Y-86901945D02*
X165873958Y-86854326D01*
X165873958Y-86854326D02*
X165778720Y-86806707D01*
X165778720Y-86806707D02*
X165540625Y-86806707D01*
X165540625Y-86806707D02*
X165445387Y-86854326D01*
X165445387Y-86854326D02*
X165397768Y-86901945D01*
X165397768Y-86901945D02*
X165350149Y-86997183D01*
X165350149Y-86997183D02*
X165350149Y-87235278D01*
X165350149Y-87235278D02*
X165397768Y-87330516D01*
X165397768Y-87330516D02*
X165445387Y-87378136D01*
X165445387Y-87378136D02*
X165540625Y-87425755D01*
X165540625Y-87425755D02*
X165778720Y-87425755D01*
X165778720Y-87425755D02*
X165873958Y-87378136D01*
X165873958Y-87378136D02*
X165921577Y-87330516D01*
X137354254Y-115871040D02*
X137401873Y-115918660D01*
X137401873Y-115918660D02*
X137544730Y-115966279D01*
X137544730Y-115966279D02*
X137639968Y-115966279D01*
X137639968Y-115966279D02*
X137782825Y-115918660D01*
X137782825Y-115918660D02*
X137878063Y-115823421D01*
X137878063Y-115823421D02*
X137925682Y-115728183D01*
X137925682Y-115728183D02*
X137973301Y-115537707D01*
X137973301Y-115537707D02*
X137973301Y-115394850D01*
X137973301Y-115394850D02*
X137925682Y-115204374D01*
X137925682Y-115204374D02*
X137878063Y-115109136D01*
X137878063Y-115109136D02*
X137782825Y-115013898D01*
X137782825Y-115013898D02*
X137639968Y-114966279D01*
X137639968Y-114966279D02*
X137544730Y-114966279D01*
X137544730Y-114966279D02*
X137401873Y-115013898D01*
X137401873Y-115013898D02*
X137354254Y-115061517D01*
X136401873Y-115966279D02*
X136973301Y-115966279D01*
X136687587Y-115966279D02*
X136687587Y-114966279D01*
X136687587Y-114966279D02*
X136782825Y-115109136D01*
X136782825Y-115109136D02*
X136878063Y-115204374D01*
X136878063Y-115204374D02*
X136973301Y-115251993D01*
X143630419Y-100892333D02*
X143154228Y-100559000D01*
X143630419Y-100320905D02*
X142630419Y-100320905D01*
X142630419Y-100320905D02*
X142630419Y-100701857D01*
X142630419Y-100701857D02*
X142678038Y-100797095D01*
X142678038Y-100797095D02*
X142725657Y-100844714D01*
X142725657Y-100844714D02*
X142820895Y-100892333D01*
X142820895Y-100892333D02*
X142963752Y-100892333D01*
X142963752Y-100892333D02*
X143058990Y-100844714D01*
X143058990Y-100844714D02*
X143106609Y-100797095D01*
X143106609Y-100797095D02*
X143154228Y-100701857D01*
X143154228Y-100701857D02*
X143154228Y-100320905D01*
X142725657Y-101273286D02*
X142678038Y-101320905D01*
X142678038Y-101320905D02*
X142630419Y-101416143D01*
X142630419Y-101416143D02*
X142630419Y-101654238D01*
X142630419Y-101654238D02*
X142678038Y-101749476D01*
X142678038Y-101749476D02*
X142725657Y-101797095D01*
X142725657Y-101797095D02*
X142820895Y-101844714D01*
X142820895Y-101844714D02*
X142916133Y-101844714D01*
X142916133Y-101844714D02*
X143058990Y-101797095D01*
X143058990Y-101797095D02*
X143630419Y-101225667D01*
X143630419Y-101225667D02*
X143630419Y-101844714D01*
X166277922Y-103096410D02*
X166611255Y-102620219D01*
X166849350Y-103096410D02*
X166849350Y-102096410D01*
X166849350Y-102096410D02*
X166468398Y-102096410D01*
X166468398Y-102096410D02*
X166373160Y-102144029D01*
X166373160Y-102144029D02*
X166325541Y-102191648D01*
X166325541Y-102191648D02*
X166277922Y-102286886D01*
X166277922Y-102286886D02*
X166277922Y-102429743D01*
X166277922Y-102429743D02*
X166325541Y-102524981D01*
X166325541Y-102524981D02*
X166373160Y-102572600D01*
X166373160Y-102572600D02*
X166468398Y-102620219D01*
X166468398Y-102620219D02*
X166849350Y-102620219D01*
X165801731Y-103096410D02*
X165611255Y-103096410D01*
X165611255Y-103096410D02*
X165516017Y-103048791D01*
X165516017Y-103048791D02*
X165468398Y-103001171D01*
X165468398Y-103001171D02*
X165373160Y-102858314D01*
X165373160Y-102858314D02*
X165325541Y-102667838D01*
X165325541Y-102667838D02*
X165325541Y-102286886D01*
X165325541Y-102286886D02*
X165373160Y-102191648D01*
X165373160Y-102191648D02*
X165420779Y-102144029D01*
X165420779Y-102144029D02*
X165516017Y-102096410D01*
X165516017Y-102096410D02*
X165706493Y-102096410D01*
X165706493Y-102096410D02*
X165801731Y-102144029D01*
X165801731Y-102144029D02*
X165849350Y-102191648D01*
X165849350Y-102191648D02*
X165896969Y-102286886D01*
X165896969Y-102286886D02*
X165896969Y-102524981D01*
X165896969Y-102524981D02*
X165849350Y-102620219D01*
X165849350Y-102620219D02*
X165801731Y-102667838D01*
X165801731Y-102667838D02*
X165706493Y-102715457D01*
X165706493Y-102715457D02*
X165516017Y-102715457D01*
X165516017Y-102715457D02*
X165420779Y-102667838D01*
X165420779Y-102667838D02*
X165373160Y-102620219D01*
X165373160Y-102620219D02*
X165325541Y-102524981D01*
X154003402Y-108494255D02*
X154336735Y-108018064D01*
X154574830Y-108494255D02*
X154574830Y-107494255D01*
X154574830Y-107494255D02*
X154193878Y-107494255D01*
X154193878Y-107494255D02*
X154098640Y-107541874D01*
X154098640Y-107541874D02*
X154051021Y-107589493D01*
X154051021Y-107589493D02*
X154003402Y-107684731D01*
X154003402Y-107684731D02*
X154003402Y-107827588D01*
X154003402Y-107827588D02*
X154051021Y-107922826D01*
X154051021Y-107922826D02*
X154098640Y-107970445D01*
X154098640Y-107970445D02*
X154193878Y-108018064D01*
X154193878Y-108018064D02*
X154574830Y-108018064D01*
X153431973Y-107922826D02*
X153527211Y-107875207D01*
X153527211Y-107875207D02*
X153574830Y-107827588D01*
X153574830Y-107827588D02*
X153622449Y-107732350D01*
X153622449Y-107732350D02*
X153622449Y-107684731D01*
X153622449Y-107684731D02*
X153574830Y-107589493D01*
X153574830Y-107589493D02*
X153527211Y-107541874D01*
X153527211Y-107541874D02*
X153431973Y-107494255D01*
X153431973Y-107494255D02*
X153241497Y-107494255D01*
X153241497Y-107494255D02*
X153146259Y-107541874D01*
X153146259Y-107541874D02*
X153098640Y-107589493D01*
X153098640Y-107589493D02*
X153051021Y-107684731D01*
X153051021Y-107684731D02*
X153051021Y-107732350D01*
X153051021Y-107732350D02*
X153098640Y-107827588D01*
X153098640Y-107827588D02*
X153146259Y-107875207D01*
X153146259Y-107875207D02*
X153241497Y-107922826D01*
X153241497Y-107922826D02*
X153431973Y-107922826D01*
X153431973Y-107922826D02*
X153527211Y-107970445D01*
X153527211Y-107970445D02*
X153574830Y-108018064D01*
X153574830Y-108018064D02*
X153622449Y-108113302D01*
X153622449Y-108113302D02*
X153622449Y-108303778D01*
X153622449Y-108303778D02*
X153574830Y-108399016D01*
X153574830Y-108399016D02*
X153527211Y-108446636D01*
X153527211Y-108446636D02*
X153431973Y-108494255D01*
X153431973Y-108494255D02*
X153241497Y-108494255D01*
X153241497Y-108494255D02*
X153146259Y-108446636D01*
X153146259Y-108446636D02*
X153098640Y-108399016D01*
X153098640Y-108399016D02*
X153051021Y-108303778D01*
X153051021Y-108303778D02*
X153051021Y-108113302D01*
X153051021Y-108113302D02*
X153098640Y-108018064D01*
X153098640Y-108018064D02*
X153146259Y-107970445D01*
X153146259Y-107970445D02*
X153241497Y-107922826D01*
X154149410Y-94749651D02*
X154482743Y-94273460D01*
X154720838Y-94749651D02*
X154720838Y-93749651D01*
X154720838Y-93749651D02*
X154339886Y-93749651D01*
X154339886Y-93749651D02*
X154244648Y-93797270D01*
X154244648Y-93797270D02*
X154197029Y-93844889D01*
X154197029Y-93844889D02*
X154149410Y-93940127D01*
X154149410Y-93940127D02*
X154149410Y-94082984D01*
X154149410Y-94082984D02*
X154197029Y-94178222D01*
X154197029Y-94178222D02*
X154244648Y-94225841D01*
X154244648Y-94225841D02*
X154339886Y-94273460D01*
X154339886Y-94273460D02*
X154720838Y-94273460D01*
X153197029Y-94749651D02*
X153768457Y-94749651D01*
X153482743Y-94749651D02*
X153482743Y-93749651D01*
X153482743Y-93749651D02*
X153577981Y-93892508D01*
X153577981Y-93892508D02*
X153673219Y-93987746D01*
X153673219Y-93987746D02*
X153768457Y-94035365D01*
X152863695Y-93749651D02*
X152244648Y-93749651D01*
X152244648Y-93749651D02*
X152577981Y-94130603D01*
X152577981Y-94130603D02*
X152435124Y-94130603D01*
X152435124Y-94130603D02*
X152339886Y-94178222D01*
X152339886Y-94178222D02*
X152292267Y-94225841D01*
X152292267Y-94225841D02*
X152244648Y-94321079D01*
X152244648Y-94321079D02*
X152244648Y-94559174D01*
X152244648Y-94559174D02*
X152292267Y-94654412D01*
X152292267Y-94654412D02*
X152339886Y-94702032D01*
X152339886Y-94702032D02*
X152435124Y-94749651D01*
X152435124Y-94749651D02*
X152720838Y-94749651D01*
X152720838Y-94749651D02*
X152816076Y-94702032D01*
X152816076Y-94702032D02*
X152863695Y-94654412D01*
X154161149Y-102291755D02*
X154494482Y-101815564D01*
X154732577Y-102291755D02*
X154732577Y-101291755D01*
X154732577Y-101291755D02*
X154351625Y-101291755D01*
X154351625Y-101291755D02*
X154256387Y-101339374D01*
X154256387Y-101339374D02*
X154208768Y-101386993D01*
X154208768Y-101386993D02*
X154161149Y-101482231D01*
X154161149Y-101482231D02*
X154161149Y-101625088D01*
X154161149Y-101625088D02*
X154208768Y-101720326D01*
X154208768Y-101720326D02*
X154256387Y-101767945D01*
X154256387Y-101767945D02*
X154351625Y-101815564D01*
X154351625Y-101815564D02*
X154732577Y-101815564D01*
X153208768Y-102291755D02*
X153780196Y-102291755D01*
X153494482Y-102291755D02*
X153494482Y-101291755D01*
X153494482Y-101291755D02*
X153589720Y-101434612D01*
X153589720Y-101434612D02*
X153684958Y-101529850D01*
X153684958Y-101529850D02*
X153780196Y-101577469D01*
X152589720Y-101291755D02*
X152494482Y-101291755D01*
X152494482Y-101291755D02*
X152399244Y-101339374D01*
X152399244Y-101339374D02*
X152351625Y-101386993D01*
X152351625Y-101386993D02*
X152304006Y-101482231D01*
X152304006Y-101482231D02*
X152256387Y-101672707D01*
X152256387Y-101672707D02*
X152256387Y-101910802D01*
X152256387Y-101910802D02*
X152304006Y-102101278D01*
X152304006Y-102101278D02*
X152351625Y-102196516D01*
X152351625Y-102196516D02*
X152399244Y-102244136D01*
X152399244Y-102244136D02*
X152494482Y-102291755D01*
X152494482Y-102291755D02*
X152589720Y-102291755D01*
X152589720Y-102291755D02*
X152684958Y-102244136D01*
X152684958Y-102244136D02*
X152732577Y-102196516D01*
X152732577Y-102196516D02*
X152780196Y-102101278D01*
X152780196Y-102101278D02*
X152827815Y-101910802D01*
X152827815Y-101910802D02*
X152827815Y-101672707D01*
X152827815Y-101672707D02*
X152780196Y-101482231D01*
X152780196Y-101482231D02*
X152732577Y-101386993D01*
X152732577Y-101386993D02*
X152684958Y-101339374D01*
X152684958Y-101339374D02*
X152589720Y-101291755D01*
X159984223Y-99611048D02*
X159508032Y-99277715D01*
X159984223Y-99039620D02*
X158984223Y-99039620D01*
X158984223Y-99039620D02*
X158984223Y-99420572D01*
X158984223Y-99420572D02*
X159031842Y-99515810D01*
X159031842Y-99515810D02*
X159079461Y-99563429D01*
X159079461Y-99563429D02*
X159174699Y-99611048D01*
X159174699Y-99611048D02*
X159317556Y-99611048D01*
X159317556Y-99611048D02*
X159412794Y-99563429D01*
X159412794Y-99563429D02*
X159460413Y-99515810D01*
X159460413Y-99515810D02*
X159508032Y-99420572D01*
X159508032Y-99420572D02*
X159508032Y-99039620D01*
X159984223Y-100563429D02*
X159984223Y-99992001D01*
X159984223Y-100277715D02*
X158984223Y-100277715D01*
X158984223Y-100277715D02*
X159127080Y-100182477D01*
X159127080Y-100182477D02*
X159222318Y-100087239D01*
X159222318Y-100087239D02*
X159269937Y-99992001D01*
X159984223Y-101515810D02*
X159984223Y-100944382D01*
X159984223Y-101230096D02*
X158984223Y-101230096D01*
X158984223Y-101230096D02*
X159127080Y-101134858D01*
X159127080Y-101134858D02*
X159222318Y-101039620D01*
X159222318Y-101039620D02*
X159269937Y-100944382D01*
X163820465Y-75301875D02*
X163915703Y-75254256D01*
X163915703Y-75254256D02*
X164010941Y-75159018D01*
X164010941Y-75159018D02*
X164153798Y-75016160D01*
X164153798Y-75016160D02*
X164249036Y-74968541D01*
X164249036Y-74968541D02*
X164344274Y-74968541D01*
X164296655Y-75206637D02*
X164391893Y-75159018D01*
X164391893Y-75159018D02*
X164487131Y-75063779D01*
X164487131Y-75063779D02*
X164534750Y-74873303D01*
X164534750Y-74873303D02*
X164534750Y-74539970D01*
X164534750Y-74539970D02*
X164487131Y-74349494D01*
X164487131Y-74349494D02*
X164391893Y-74254256D01*
X164391893Y-74254256D02*
X164296655Y-74206637D01*
X164296655Y-74206637D02*
X164106179Y-74206637D01*
X164106179Y-74206637D02*
X164010941Y-74254256D01*
X164010941Y-74254256D02*
X163915703Y-74349494D01*
X163915703Y-74349494D02*
X163868084Y-74539970D01*
X163868084Y-74539970D02*
X163868084Y-74873303D01*
X163868084Y-74873303D02*
X163915703Y-75063779D01*
X163915703Y-75063779D02*
X164010941Y-75159018D01*
X164010941Y-75159018D02*
X164106179Y-75206637D01*
X164106179Y-75206637D02*
X164296655Y-75206637D01*
X162915703Y-75206637D02*
X163487131Y-75206637D01*
X163201417Y-75206637D02*
X163201417Y-74206637D01*
X163201417Y-74206637D02*
X163296655Y-74349494D01*
X163296655Y-74349494D02*
X163391893Y-74444732D01*
X163391893Y-74444732D02*
X163487131Y-74492351D01*
X162296655Y-74206637D02*
X162201417Y-74206637D01*
X162201417Y-74206637D02*
X162106179Y-74254256D01*
X162106179Y-74254256D02*
X162058560Y-74301875D01*
X162058560Y-74301875D02*
X162010941Y-74397113D01*
X162010941Y-74397113D02*
X161963322Y-74587589D01*
X161963322Y-74587589D02*
X161963322Y-74825684D01*
X161963322Y-74825684D02*
X162010941Y-75016160D01*
X162010941Y-75016160D02*
X162058560Y-75111398D01*
X162058560Y-75111398D02*
X162106179Y-75159018D01*
X162106179Y-75159018D02*
X162201417Y-75206637D01*
X162201417Y-75206637D02*
X162296655Y-75206637D01*
X162296655Y-75206637D02*
X162391893Y-75159018D01*
X162391893Y-75159018D02*
X162439512Y-75111398D01*
X162439512Y-75111398D02*
X162487131Y-75016160D01*
X162487131Y-75016160D02*
X162534750Y-74825684D01*
X162534750Y-74825684D02*
X162534750Y-74587589D01*
X162534750Y-74587589D02*
X162487131Y-74397113D01*
X162487131Y-74397113D02*
X162439512Y-74301875D01*
X162439512Y-74301875D02*
X162391893Y-74254256D01*
X162391893Y-74254256D02*
X162296655Y-74206637D01*
X136175538Y-105960547D02*
X136223157Y-106008167D01*
X136223157Y-106008167D02*
X136366014Y-106055786D01*
X136366014Y-106055786D02*
X136461252Y-106055786D01*
X136461252Y-106055786D02*
X136604109Y-106008167D01*
X136604109Y-106008167D02*
X136699347Y-105912928D01*
X136699347Y-105912928D02*
X136746966Y-105817690D01*
X136746966Y-105817690D02*
X136794585Y-105627214D01*
X136794585Y-105627214D02*
X136794585Y-105484357D01*
X136794585Y-105484357D02*
X136746966Y-105293881D01*
X136746966Y-105293881D02*
X136699347Y-105198643D01*
X136699347Y-105198643D02*
X136604109Y-105103405D01*
X136604109Y-105103405D02*
X136461252Y-105055786D01*
X136461252Y-105055786D02*
X136366014Y-105055786D01*
X136366014Y-105055786D02*
X136223157Y-105103405D01*
X136223157Y-105103405D02*
X136175538Y-105151024D01*
X135842204Y-105055786D02*
X135175538Y-105055786D01*
X135175538Y-105055786D02*
X135604109Y-106055786D01*
D11*
X155787683Y-72290749D02*
X155787683Y-71020749D01*
X155787683Y-71020749D02*
X155485302Y-71020749D01*
X155485302Y-71020749D02*
X155303873Y-71081225D01*
X155303873Y-71081225D02*
X155182921Y-71202177D01*
X155182921Y-71202177D02*
X155122444Y-71323130D01*
X155122444Y-71323130D02*
X155061968Y-71565034D01*
X155061968Y-71565034D02*
X155061968Y-71746463D01*
X155061968Y-71746463D02*
X155122444Y-71988368D01*
X155122444Y-71988368D02*
X155182921Y-72109320D01*
X155182921Y-72109320D02*
X155303873Y-72230273D01*
X155303873Y-72230273D02*
X155485302Y-72290749D01*
X155485302Y-72290749D02*
X155787683Y-72290749D01*
X153852444Y-72290749D02*
X154578159Y-72290749D01*
X154215302Y-72290749D02*
X154215302Y-71020749D01*
X154215302Y-71020749D02*
X154336254Y-71202177D01*
X154336254Y-71202177D02*
X154457206Y-71323130D01*
X154457206Y-71323130D02*
X154578159Y-71383606D01*
D10*
X136305966Y-99941380D02*
X136353585Y-99989000D01*
X136353585Y-99989000D02*
X136496442Y-100036619D01*
X136496442Y-100036619D02*
X136591680Y-100036619D01*
X136591680Y-100036619D02*
X136734537Y-99989000D01*
X136734537Y-99989000D02*
X136829775Y-99893761D01*
X136829775Y-99893761D02*
X136877394Y-99798523D01*
X136877394Y-99798523D02*
X136925013Y-99608047D01*
X136925013Y-99608047D02*
X136925013Y-99465190D01*
X136925013Y-99465190D02*
X136877394Y-99274714D01*
X136877394Y-99274714D02*
X136829775Y-99179476D01*
X136829775Y-99179476D02*
X136734537Y-99084238D01*
X136734537Y-99084238D02*
X136591680Y-99036619D01*
X136591680Y-99036619D02*
X136496442Y-99036619D01*
X136496442Y-99036619D02*
X136353585Y-99084238D01*
X136353585Y-99084238D02*
X136305966Y-99131857D01*
X135448823Y-99036619D02*
X135639299Y-99036619D01*
X135639299Y-99036619D02*
X135734537Y-99084238D01*
X135734537Y-99084238D02*
X135782156Y-99131857D01*
X135782156Y-99131857D02*
X135877394Y-99274714D01*
X135877394Y-99274714D02*
X135925013Y-99465190D01*
X135925013Y-99465190D02*
X135925013Y-99846142D01*
X135925013Y-99846142D02*
X135877394Y-99941380D01*
X135877394Y-99941380D02*
X135829775Y-99989000D01*
X135829775Y-99989000D02*
X135734537Y-100036619D01*
X135734537Y-100036619D02*
X135544061Y-100036619D01*
X135544061Y-100036619D02*
X135448823Y-99989000D01*
X135448823Y-99989000D02*
X135401204Y-99941380D01*
X135401204Y-99941380D02*
X135353585Y-99846142D01*
X135353585Y-99846142D02*
X135353585Y-99608047D01*
X135353585Y-99608047D02*
X135401204Y-99512809D01*
X135401204Y-99512809D02*
X135448823Y-99465190D01*
X135448823Y-99465190D02*
X135544061Y-99417571D01*
X135544061Y-99417571D02*
X135734537Y-99417571D01*
X135734537Y-99417571D02*
X135829775Y-99465190D01*
X135829775Y-99465190D02*
X135877394Y-99512809D01*
X135877394Y-99512809D02*
X135925013Y-99608047D01*
X150870122Y-103539808D02*
X150965360Y-103492189D01*
X150965360Y-103492189D02*
X151060598Y-103396951D01*
X151060598Y-103396951D02*
X151203455Y-103254093D01*
X151203455Y-103254093D02*
X151298693Y-103206474D01*
X151298693Y-103206474D02*
X151393931Y-103206474D01*
X151346312Y-103444570D02*
X151441550Y-103396951D01*
X151441550Y-103396951D02*
X151536788Y-103301712D01*
X151536788Y-103301712D02*
X151584407Y-103111236D01*
X151584407Y-103111236D02*
X151584407Y-102777903D01*
X151584407Y-102777903D02*
X151536788Y-102587427D01*
X151536788Y-102587427D02*
X151441550Y-102492189D01*
X151441550Y-102492189D02*
X151346312Y-102444570D01*
X151346312Y-102444570D02*
X151155836Y-102444570D01*
X151155836Y-102444570D02*
X151060598Y-102492189D01*
X151060598Y-102492189D02*
X150965360Y-102587427D01*
X150965360Y-102587427D02*
X150917741Y-102777903D01*
X150917741Y-102777903D02*
X150917741Y-103111236D01*
X150917741Y-103111236D02*
X150965360Y-103301712D01*
X150965360Y-103301712D02*
X151060598Y-103396951D01*
X151060598Y-103396951D02*
X151155836Y-103444570D01*
X151155836Y-103444570D02*
X151346312Y-103444570D01*
X150536788Y-102539808D02*
X150489169Y-102492189D01*
X150489169Y-102492189D02*
X150393931Y-102444570D01*
X150393931Y-102444570D02*
X150155836Y-102444570D01*
X150155836Y-102444570D02*
X150060598Y-102492189D01*
X150060598Y-102492189D02*
X150012979Y-102539808D01*
X150012979Y-102539808D02*
X149965360Y-102635046D01*
X149965360Y-102635046D02*
X149965360Y-102730284D01*
X149965360Y-102730284D02*
X150012979Y-102873141D01*
X150012979Y-102873141D02*
X150584407Y-103444570D01*
X150584407Y-103444570D02*
X149965360Y-103444570D01*
X150760301Y-96579874D02*
X150855539Y-96532255D01*
X150855539Y-96532255D02*
X150950777Y-96437017D01*
X150950777Y-96437017D02*
X151093634Y-96294159D01*
X151093634Y-96294159D02*
X151188872Y-96246540D01*
X151188872Y-96246540D02*
X151284110Y-96246540D01*
X151236491Y-96484636D02*
X151331729Y-96437017D01*
X151331729Y-96437017D02*
X151426967Y-96341778D01*
X151426967Y-96341778D02*
X151474586Y-96151302D01*
X151474586Y-96151302D02*
X151474586Y-95817969D01*
X151474586Y-95817969D02*
X151426967Y-95627493D01*
X151426967Y-95627493D02*
X151331729Y-95532255D01*
X151331729Y-95532255D02*
X151236491Y-95484636D01*
X151236491Y-95484636D02*
X151046015Y-95484636D01*
X151046015Y-95484636D02*
X150950777Y-95532255D01*
X150950777Y-95532255D02*
X150855539Y-95627493D01*
X150855539Y-95627493D02*
X150807920Y-95817969D01*
X150807920Y-95817969D02*
X150807920Y-96151302D01*
X150807920Y-96151302D02*
X150855539Y-96341778D01*
X150855539Y-96341778D02*
X150950777Y-96437017D01*
X150950777Y-96437017D02*
X151046015Y-96484636D01*
X151046015Y-96484636D02*
X151236491Y-96484636D01*
X149950777Y-95817969D02*
X149950777Y-96484636D01*
X150188872Y-95437017D02*
X150426967Y-96151302D01*
X150426967Y-96151302D02*
X149807920Y-96151302D01*
X160052313Y-83805697D02*
X159576122Y-83472364D01*
X160052313Y-83234269D02*
X159052313Y-83234269D01*
X159052313Y-83234269D02*
X159052313Y-83615221D01*
X159052313Y-83615221D02*
X159099932Y-83710459D01*
X159099932Y-83710459D02*
X159147551Y-83758078D01*
X159147551Y-83758078D02*
X159242789Y-83805697D01*
X159242789Y-83805697D02*
X159385646Y-83805697D01*
X159385646Y-83805697D02*
X159480884Y-83758078D01*
X159480884Y-83758078D02*
X159528503Y-83710459D01*
X159528503Y-83710459D02*
X159576122Y-83615221D01*
X159576122Y-83615221D02*
X159576122Y-83234269D01*
X160052313Y-84758078D02*
X160052313Y-84186650D01*
X160052313Y-84472364D02*
X159052313Y-84472364D01*
X159052313Y-84472364D02*
X159195170Y-84377126D01*
X159195170Y-84377126D02*
X159290408Y-84281888D01*
X159290408Y-84281888D02*
X159338027Y-84186650D01*
X159052313Y-85091412D02*
X159052313Y-85758078D01*
X159052313Y-85758078D02*
X160052313Y-85329507D01*
D12*
%TO.C,R20*%
X174492536Y-76927900D02*
X175946664Y-76927900D01*
X174492536Y-78747900D02*
X175946664Y-78747900D01*
%TO.C,R16*%
X157109236Y-85960400D02*
X158563364Y-85960400D01*
X157109236Y-87780400D02*
X158563364Y-87780400D01*
%TO.C,R12*%
X161640136Y-93868800D02*
X163094264Y-93868800D01*
X161640136Y-95688800D02*
X163094264Y-95688800D01*
%TO.C,R14*%
X155885936Y-91433800D02*
X157340064Y-91433800D01*
X155885936Y-93253800D02*
X157340064Y-93253800D01*
%TO.C,R19*%
X156791136Y-77886800D02*
X158245264Y-77886800D01*
X156791136Y-79706800D02*
X158245264Y-79706800D01*
%TO.C,C2*%
X153546952Y-116274300D02*
X152124448Y-116274300D01*
X153546952Y-118094300D02*
X152124448Y-118094300D01*
%TO.C,U4*%
X158778300Y-65413900D02*
X160728300Y-65413900D01*
X158778300Y-70533900D02*
X160728300Y-70533900D01*
X162678300Y-65413900D02*
X160728300Y-65413900D01*
X162678300Y-70533900D02*
X160728300Y-70533900D01*
X163428300Y-65508900D02*
X163188300Y-65178900D01*
X163668300Y-65178900D01*
X163428300Y-65508900D01*
G36*
X163428300Y-65508900D02*
G01*
X163188300Y-65178900D01*
X163668300Y-65178900D01*
X163428300Y-65508900D01*
G37*
%TO.C,R1*%
X129087236Y-80219300D02*
X130541364Y-80219300D01*
X129087236Y-82039300D02*
X130541364Y-82039300D01*
%TO.C,R18*%
X161769936Y-77849100D02*
X163224064Y-77849100D01*
X161769936Y-79669100D02*
X163224064Y-79669100D01*
%TO.C,Q6*%
X151553700Y-88252400D02*
X152203700Y-88252400D01*
X151553700Y-91372400D02*
X152203700Y-91372400D01*
X152853700Y-88252400D02*
X152203700Y-88252400D01*
X152853700Y-91372400D02*
X152203700Y-91372400D01*
X153366200Y-88302400D02*
X153126200Y-87972400D01*
X153606200Y-87972400D01*
X153366200Y-88302400D01*
G36*
X153366200Y-88302400D02*
G01*
X153126200Y-87972400D01*
X153606200Y-87972400D01*
X153366200Y-88302400D01*
G37*
%TO.C,R4*%
X131186400Y-112189364D02*
X131186400Y-110735236D01*
X133006400Y-112189364D02*
X133006400Y-110735236D01*
%TO.C,Q8*%
X152189100Y-79733300D02*
X152839100Y-79733300D01*
X152189100Y-82853300D02*
X152839100Y-82853300D01*
X153489100Y-79733300D02*
X152839100Y-79733300D01*
X153489100Y-82853300D02*
X152839100Y-82853300D01*
X154001600Y-79783300D02*
X153761600Y-79453300D01*
X154241600Y-79453300D01*
X154001600Y-79783300D01*
G36*
X154001600Y-79783300D02*
G01*
X153761600Y-79453300D01*
X154241600Y-79453300D01*
X154001600Y-79783300D01*
G37*
%TO.C,C4*%
X157501948Y-116249400D02*
X158924452Y-116249400D01*
X157501948Y-118069400D02*
X158924452Y-118069400D01*
%TO.C,U3*%
X142945100Y-64322000D02*
X146805100Y-64322000D01*
X142945100Y-64567000D02*
X142945100Y-64322000D01*
X142945100Y-75847000D02*
X142945100Y-76092000D01*
X142945100Y-76092000D02*
X146805100Y-76092000D01*
X150665100Y-64322000D02*
X146805100Y-64322000D01*
X150665100Y-64567000D02*
X150665100Y-64322000D01*
X150665100Y-75847000D02*
X150665100Y-76092000D01*
X150665100Y-76092000D02*
X146805100Y-76092000D01*
X151517600Y-64567000D02*
X151177600Y-64097000D01*
X151857600Y-64097000D01*
X151517600Y-64567000D01*
G36*
X151517600Y-64567000D02*
G01*
X151177600Y-64097000D01*
X151857600Y-64097000D01*
X151517600Y-64567000D01*
G37*
%TO.C,R5*%
X143793000Y-84919736D02*
X143793000Y-86373864D01*
X145613000Y-84919736D02*
X145613000Y-86373864D01*
%TO.C,R3*%
X135063000Y-91425764D02*
X135063000Y-89971636D01*
X136883000Y-91425764D02*
X136883000Y-89971636D01*
%TO.C,R15*%
X162037736Y-85985500D02*
X163491864Y-85985500D01*
X162037736Y-87805500D02*
X163491864Y-87805500D01*
%TO.C,C1*%
X136443348Y-116289700D02*
X137865852Y-116289700D01*
X136443348Y-118109700D02*
X137865852Y-118109700D01*
%TO.C,R2*%
X144085600Y-101786064D02*
X144085600Y-100331936D01*
X145905600Y-101786064D02*
X145905600Y-100331936D01*
%TO.C,R9*%
X162022036Y-101681300D02*
X163476164Y-101681300D01*
X162022036Y-103501300D02*
X163476164Y-103501300D01*
%TO.C,R8*%
X156353436Y-107054000D02*
X157807564Y-107054000D01*
X156353436Y-108874000D02*
X157807564Y-108874000D01*
%TO.C,R13*%
X156699036Y-93906600D02*
X158153164Y-93906600D01*
X156699036Y-95726600D02*
X158153164Y-95726600D01*
%TO.C,R10*%
X156613336Y-101681300D02*
X158067464Y-101681300D01*
X156613336Y-103501300D02*
X158067464Y-103501300D01*
%TO.C,R11*%
X155900836Y-99359500D02*
X157354964Y-99359500D01*
X155900836Y-101179500D02*
X157354964Y-101179500D01*
%TO.C,Q10*%
X164902200Y-74271200D02*
X165552200Y-74271200D01*
X164902200Y-77391200D02*
X165552200Y-77391200D01*
X166202200Y-74271200D02*
X165552200Y-74271200D01*
X166202200Y-77391200D02*
X165552200Y-77391200D01*
X166714700Y-74321200D02*
X166474700Y-73991200D01*
X166954700Y-73991200D01*
X166714700Y-74321200D01*
G36*
X166714700Y-74321200D02*
G01*
X166474700Y-73991200D01*
X166954700Y-73991200D01*
X166714700Y-74321200D01*
G37*
%TO.C,C7*%
X135431748Y-102991700D02*
X136854252Y-102991700D01*
X135431748Y-104811700D02*
X136854252Y-104811700D01*
D13*
%TO.C,D1*%
X154687000Y-68755000D02*
X154887000Y-68755000D01*
X154687000Y-70755000D02*
X154687000Y-68755000D01*
X154887000Y-68755000D02*
X154887000Y-70755000D01*
X154887000Y-70755000D02*
X154687000Y-70755000D01*
X155237000Y-68580000D02*
X156237000Y-68580000D01*
D12*
%TO.C,C6*%
X135428048Y-100521800D02*
X136850552Y-100521800D01*
X135428048Y-102341800D02*
X136850552Y-102341800D01*
%TO.C,Q2*%
X151108100Y-103763800D02*
X151758100Y-103763800D01*
X151108100Y-106883800D02*
X151758100Y-106883800D01*
X152408100Y-103763800D02*
X151758100Y-103763800D01*
X152408100Y-106883800D02*
X151758100Y-106883800D01*
X152920600Y-103813800D02*
X152680600Y-103483800D01*
X153160600Y-103483800D01*
X152920600Y-103813800D01*
G36*
X152920600Y-103813800D02*
G01*
X152680600Y-103483800D01*
X153160600Y-103483800D01*
X152920600Y-103813800D01*
G37*
%TO.C,Q4*%
X152388900Y-95555100D02*
X153038900Y-95555100D01*
X152388900Y-98675100D02*
X153038900Y-98675100D01*
X153688900Y-95555100D02*
X153038900Y-95555100D01*
X153688900Y-98675100D02*
X153038900Y-98675100D01*
X154201400Y-95605100D02*
X153961400Y-95275100D01*
X154441400Y-95275100D01*
X154201400Y-95605100D01*
G36*
X154201400Y-95605100D02*
G01*
X153961400Y-95275100D01*
X154441400Y-95275100D01*
X154201400Y-95605100D01*
G37*
%TO.C,R17*%
X155885936Y-83714300D02*
X157340064Y-83714300D01*
X155885936Y-85534300D02*
X157340064Y-85534300D01*
%TD*%
%LPC*%
D14*
%TO.C,Q3*%
X157029900Y-104966800D03*
D15*
X159569900Y-104966800D03*
X162109900Y-104966800D03*
%TD*%
D14*
%TO.C,Q5*%
X157029900Y-97215700D03*
D15*
X159569900Y-97215700D03*
X162109900Y-97215700D03*
%TD*%
D16*
%TO.C,R7*%
X139116100Y-58260700D03*
D17*
X141656100Y-58260700D03*
%TD*%
D18*
%TO.C,D2*%
X170632200Y-75831200D03*
D19*
X160472200Y-75831200D03*
%TD*%
D18*
%TO.C,J1*%
X154748000Y-66384800D03*
D20*
X154748000Y-63844800D03*
X154748000Y-61304800D03*
X154748000Y-58764800D03*
%TD*%
D21*
%TO.C,J2*%
X171594600Y-102105600D03*
D22*
X171594600Y-97025600D03*
X171594600Y-91945600D03*
X171594600Y-86865600D03*
X171594600Y-81785600D03*
%TD*%
D16*
%TO.C,NTC1*%
X135965600Y-94809500D03*
D17*
X135965600Y-97349500D03*
%TD*%
D14*
%TO.C,Q7*%
X156961400Y-89326400D03*
D15*
X159501400Y-89326400D03*
X162041400Y-89326400D03*
%TD*%
D23*
%TO.C,J3*%
X146254600Y-120744200D03*
D24*
X143714600Y-120744200D03*
X141174600Y-120744200D03*
X138634600Y-120744200D03*
X136094600Y-120744200D03*
X133554600Y-120744200D03*
%TD*%
D25*
%TO.C,U5*%
X134999500Y-70018000D03*
X134999500Y-73418000D03*
X125079500Y-70018000D03*
X125079500Y-73418000D03*
%TD*%
D26*
%TO.C,Z1*%
X162430500Y-107964000D03*
D27*
X151730500Y-107964000D03*
%TD*%
D16*
%TO.C,R6*%
X161933600Y-72318900D03*
D17*
X159393600Y-72318900D03*
%TD*%
D14*
%TO.C,Q9*%
X156916800Y-81600400D03*
D15*
X159456800Y-81600400D03*
X161996800Y-81600400D03*
%TD*%
D23*
%TO.C,Powerboard1*%
X130976300Y-92602600D03*
D24*
X130976300Y-90062600D03*
X130976300Y-87522600D03*
%TD*%
D26*
%TO.C,Z2*%
X161977900Y-100269500D03*
D27*
X151277900Y-100269500D03*
%TD*%
D28*
%TO.C,U2*%
X140929500Y-81761800D03*
D17*
X140929500Y-84301800D03*
X140929500Y-86841800D03*
X140929500Y-89381800D03*
X140929500Y-91921800D03*
X140929500Y-94461800D03*
X140929500Y-97001800D03*
X140929500Y-99541800D03*
X140929500Y-102081800D03*
X140929500Y-104621800D03*
X140929500Y-107161800D03*
X140929500Y-109701800D03*
X140929500Y-112241800D03*
X140929500Y-114781800D03*
X148549500Y-114781800D03*
X148549500Y-112241800D03*
X148549500Y-109701800D03*
X148549500Y-107161800D03*
X148549500Y-104621800D03*
X148549500Y-102081800D03*
X148549500Y-99541800D03*
X148549500Y-97001800D03*
X148549500Y-94461800D03*
X148549500Y-91921800D03*
X148549500Y-89381800D03*
X148549500Y-86841800D03*
X148549500Y-84301800D03*
X148549500Y-81761800D03*
%TD*%
D23*
%TO.C,J5*%
X139049600Y-61738500D03*
D24*
X141589600Y-61738500D03*
%TD*%
D14*
%TO.C,Q1*%
X136586000Y-84423600D03*
D15*
X136586000Y-81883600D03*
X136586000Y-79343600D03*
%TD*%
D29*
%TO.C,Y2*%
X153203400Y-112099600D03*
X158083400Y-112099600D03*
%TD*%
D30*
%TO.C,Reset1*%
X135385300Y-113752500D03*
D29*
X128885300Y-113752500D03*
X135385300Y-109252500D03*
X128885300Y-109252500D03*
%TD*%
%TO.C,Y1*%
X153178500Y-121354000D03*
X158058500Y-121354000D03*
%TD*%
D26*
%TO.C,Z4*%
X161963000Y-84624300D03*
D27*
X151263000Y-84624300D03*
%TD*%
D26*
%TO.C,Z3*%
X161963000Y-92343800D03*
D27*
X151263000Y-92343800D03*
%TD*%
D31*
%TO.C,R20*%
X176769600Y-77837900D03*
X173669600Y-77837900D03*
%TD*%
%TO.C,R16*%
X159386300Y-86870400D03*
X156286300Y-86870400D03*
%TD*%
%TO.C,R12*%
X163917200Y-94778800D03*
X160817200Y-94778800D03*
%TD*%
%TO.C,R14*%
X158163000Y-92343800D03*
X155063000Y-92343800D03*
%TD*%
%TO.C,R19*%
X159068200Y-78796800D03*
X155968200Y-78796800D03*
%TD*%
D32*
%TO.C,C2*%
X151273200Y-117184300D03*
X154398200Y-117184300D03*
%TD*%
D33*
%TO.C,U4*%
X163203300Y-66068900D03*
X163203300Y-67338900D03*
X163203300Y-68608900D03*
X163203300Y-69878900D03*
X158253300Y-69878900D03*
X158253300Y-68608900D03*
X158253300Y-67338900D03*
X158253300Y-66068900D03*
%TD*%
D31*
%TO.C,R1*%
X131364300Y-81129300D03*
X128264300Y-81129300D03*
%TD*%
%TO.C,R18*%
X164047000Y-78759100D03*
X160947000Y-78759100D03*
%TD*%
D34*
%TO.C,Q6*%
X153141200Y-88862400D03*
X153141200Y-90762400D03*
X151266200Y-89812400D03*
%TD*%
D35*
%TO.C,R4*%
X132096400Y-109912300D03*
X132096400Y-113012300D03*
%TD*%
D34*
%TO.C,Q8*%
X153776600Y-80343300D03*
X153776600Y-82243300D03*
X151901600Y-81293300D03*
%TD*%
D36*
%TO.C,C4*%
X159775700Y-117159400D03*
X156650700Y-117159400D03*
%TD*%
D37*
%TO.C,U3*%
X151455100Y-65127000D03*
X151455100Y-66397000D03*
X151455100Y-67667000D03*
X151455100Y-68937000D03*
X151455100Y-70207000D03*
X151455100Y-71477000D03*
X151455100Y-72747000D03*
X151455100Y-74017000D03*
X151455100Y-75287000D03*
X142155100Y-75287000D03*
X142155100Y-74017000D03*
X142155100Y-72747000D03*
X142155100Y-71477000D03*
X142155100Y-70207000D03*
X142155100Y-68937000D03*
X142155100Y-67667000D03*
X142155100Y-66397000D03*
X142155100Y-65127000D03*
%TD*%
D38*
%TO.C,R5*%
X144703000Y-87196800D03*
X144703000Y-84096800D03*
%TD*%
D35*
%TO.C,R3*%
X135973000Y-89148700D03*
X135973000Y-92248700D03*
%TD*%
D31*
%TO.C,R15*%
X164314800Y-86895500D03*
X161214800Y-86895500D03*
%TD*%
D36*
%TO.C,C1*%
X138717100Y-117199700D03*
X135592100Y-117199700D03*
%TD*%
D35*
%TO.C,R2*%
X144995600Y-99509000D03*
X144995600Y-102609000D03*
%TD*%
D31*
%TO.C,R9*%
X164299100Y-102591300D03*
X161199100Y-102591300D03*
%TD*%
%TO.C,R8*%
X158630500Y-107964000D03*
X155530500Y-107964000D03*
%TD*%
%TO.C,R13*%
X158976100Y-94816600D03*
X155876100Y-94816600D03*
%TD*%
%TO.C,R10*%
X158890400Y-102591300D03*
X155790400Y-102591300D03*
%TD*%
%TO.C,R11*%
X158177900Y-100269500D03*
X155077900Y-100269500D03*
%TD*%
D34*
%TO.C,Q10*%
X166489700Y-74881200D03*
X166489700Y-76781200D03*
X164614700Y-75831200D03*
%TD*%
D36*
%TO.C,C7*%
X137705500Y-103901700D03*
X134580500Y-103901700D03*
%TD*%
D39*
%TO.C,D1*%
X155737000Y-69105000D03*
X155737000Y-70405000D03*
X153837000Y-69755000D03*
%TD*%
D36*
%TO.C,C6*%
X137701800Y-101431800D03*
X134576800Y-101431800D03*
%TD*%
D34*
%TO.C,Q2*%
X152695600Y-104373800D03*
X152695600Y-106273800D03*
X150820600Y-105323800D03*
%TD*%
%TO.C,Q4*%
X153976400Y-96165100D03*
X153976400Y-98065100D03*
X152101400Y-97115100D03*
%TD*%
D31*
%TO.C,R17*%
X158163000Y-84624300D03*
X155063000Y-84624300D03*
%TD*%
%LPD*%
M02*
