%TF.GenerationSoftware,KiCad,Pcbnew,8.0.1-rc1*%
%TF.CreationDate,2024-06-23T11:02:47-07:00*%
%TF.ProjectId,AMS - CANBus Sensor - RPM,414d5320-2d20-4434-914e-427573205365,rev?*%
%TF.SameCoordinates,Original*%
%TF.FileFunction,Copper,L2,Bot*%
%TF.FilePolarity,Positive*%
%FSLAX46Y46*%
G04 Gerber Fmt 4.6, Leading zero omitted, Abs format (unit mm)*
G04 Created by KiCad (PCBNEW 8.0.1-rc1) date 2024-06-23 11:02:47*
%MOMM*%
%LPD*%
G01*
G04 APERTURE LIST*
G04 Aperture macros list*
%AMRoundRect*
0 Rectangle with rounded corners*
0 $1 Rounding radius*
0 $2 $3 $4 $5 $6 $7 $8 $9 X,Y pos of 4 corners*
0 Add a 4 corners polygon primitive as box body*
4,1,4,$2,$3,$4,$5,$6,$7,$8,$9,$2,$3,0*
0 Add four circle primitives for the rounded corners*
1,1,$1+$1,$2,$3*
1,1,$1+$1,$4,$5*
1,1,$1+$1,$6,$7*
1,1,$1+$1,$8,$9*
0 Add four rect primitives between the rounded corners*
20,1,$1+$1,$2,$3,$4,$5,0*
20,1,$1+$1,$4,$5,$6,$7,0*
20,1,$1+$1,$6,$7,$8,$9,0*
20,1,$1+$1,$8,$9,$2,$3,0*%
G04 Aperture macros list end*
%TA.AperFunction,SMDPad,CuDef*%
%ADD10RoundRect,0.250000X-0.400000X-0.625000X0.400000X-0.625000X0.400000X0.625000X-0.400000X0.625000X0*%
%TD*%
%TA.AperFunction,ComponentPad*%
%ADD11R,2.200000X2.200000*%
%TD*%
%TA.AperFunction,ComponentPad*%
%ADD12C,2.200000*%
%TD*%
%TA.AperFunction,SMDPad,CuDef*%
%ADD13RoundRect,0.250000X0.625000X-0.400000X0.625000X0.400000X-0.625000X0.400000X-0.625000X-0.400000X0*%
%TD*%
%TA.AperFunction,ComponentPad*%
%ADD14C,1.600000*%
%TD*%
%TA.AperFunction,ComponentPad*%
%ADD15R,1.600000X1.600000*%
%TD*%
%TA.AperFunction,ComponentPad*%
%ADD16R,1.200000X1.200000*%
%TD*%
%TA.AperFunction,ComponentPad*%
%ADD17C,1.200000*%
%TD*%
%TA.AperFunction,ComponentPad*%
%ADD18O,1.600000X1.600000*%
%TD*%
%TA.AperFunction,SMDPad,CuDef*%
%ADD19RoundRect,0.250000X0.400000X0.625000X-0.400000X0.625000X-0.400000X-0.625000X0.400000X-0.625000X0*%
%TD*%
%TA.AperFunction,ComponentPad*%
%ADD20R,1.160000X1.160000*%
%TD*%
%TA.AperFunction,ComponentPad*%
%ADD21C,1.160000*%
%TD*%
%TA.AperFunction,ComponentPad*%
%ADD22R,1.700000X1.700000*%
%TD*%
%TA.AperFunction,ComponentPad*%
%ADD23O,1.700000X1.700000*%
%TD*%
%TA.AperFunction,ComponentPad*%
%ADD24C,2.400000*%
%TD*%
%TA.AperFunction,ComponentPad*%
%ADD25R,1.920000X1.920000*%
%TD*%
%TA.AperFunction,ComponentPad*%
%ADD26C,1.920000*%
%TD*%
%TA.AperFunction,SMDPad,CuDef*%
%ADD27R,1.500000X0.650000*%
%TD*%
%TA.AperFunction,ComponentPad*%
%ADD28C,1.440000*%
%TD*%
%TA.AperFunction,ComponentPad*%
%ADD29R,1.130000X1.130000*%
%TD*%
%TA.AperFunction,ComponentPad*%
%ADD30C,1.130000*%
%TD*%
%TA.AperFunction,ComponentPad*%
%ADD31C,1.500000*%
%TD*%
%TA.AperFunction,ComponentPad*%
%ADD32R,1.500000X1.500000*%
%TD*%
%TA.AperFunction,SMDPad,CuDef*%
%ADD33RoundRect,0.250000X-0.625000X0.400000X-0.625000X-0.400000X0.625000X-0.400000X0.625000X0.400000X0*%
%TD*%
%TA.AperFunction,ComponentPad*%
%ADD34R,1.575000X1.575000*%
%TD*%
%TA.AperFunction,ComponentPad*%
%ADD35C,1.575000*%
%TD*%
%TA.AperFunction,SMDPad,CuDef*%
%ADD36RoundRect,0.250000X-0.650000X0.412500X-0.650000X-0.412500X0.650000X-0.412500X0.650000X0.412500X0*%
%TD*%
%TA.AperFunction,SMDPad,CuDef*%
%ADD37RoundRect,0.250000X0.412500X0.650000X-0.412500X0.650000X-0.412500X-0.650000X0.412500X-0.650000X0*%
%TD*%
%TA.AperFunction,SMDPad,CuDef*%
%ADD38RoundRect,0.150000X0.875000X0.150000X-0.875000X0.150000X-0.875000X-0.150000X0.875000X-0.150000X0*%
%TD*%
%TA.AperFunction,SMDPad,CuDef*%
%ADD39R,1.000000X0.550000*%
%TD*%
%TA.AperFunction,ViaPad*%
%ADD40C,0.600000*%
%TD*%
%TA.AperFunction,Conductor*%
%ADD41C,0.200000*%
%TD*%
%TA.AperFunction,Conductor*%
%ADD42C,0.635000*%
%TD*%
%TA.AperFunction,Conductor*%
%ADD43C,0.762000*%
%TD*%
%TA.AperFunction,Conductor*%
%ADD44C,0.381000*%
%TD*%
%TA.AperFunction,Conductor*%
%ADD45C,0.508000*%
%TD*%
G04 APERTURE END LIST*
D10*
%TO.P,C12,1*%
%TO.N,Net-(IC2-CP1)*%
X164230800Y-93317400D03*
%TO.P,C12,2*%
%TO.N,GND*%
X167330800Y-93317400D03*
%TD*%
D11*
%TO.P,J9,1,Pin_1*%
%TO.N,TachIn*%
X155246300Y-79618100D03*
D12*
%TO.P,J9,2,Pin_2*%
%TO.N,Net-(J9-Pin_2)*%
X155246300Y-77078100D03*
%TO.P,J9,3,Pin_3*%
%TO.N,GND*%
X155246300Y-74538100D03*
%TO.P,J9,4,Pin_4*%
%TO.N,CANBUS_L*%
X155246300Y-71998100D03*
%TO.P,J9,5,Pin_5*%
%TO.N,CANBUS_H*%
X155246300Y-69458100D03*
%TD*%
D13*
%TO.P,C10,1*%
%TO.N,Net-(IC1-V+_1)*%
X148916600Y-91545200D03*
%TO.P,C10,2*%
%TO.N,GND*%
X148916600Y-88445200D03*
%TD*%
D10*
%TO.P,C8,1*%
%TO.N,Net-(IC1-FB)*%
X147290100Y-96632100D03*
%TO.P,C8,2*%
%TO.N,GND*%
X150390100Y-96632100D03*
%TD*%
D14*
%TO.P,C9,2*%
%TO.N,GND*%
X150843200Y-104556400D03*
D15*
%TO.P,C9,1*%
%TO.N,Net-(IC1-V+_1)*%
X150843200Y-99556400D03*
%TD*%
D16*
%TO.P,C13,1*%
%TO.N,Net-(IC2-CP2{slash}IN+)*%
X154122300Y-108777100D03*
D17*
%TO.P,C13,2*%
%TO.N,GND*%
X154122300Y-107277100D03*
%TD*%
D14*
%TO.P,R4,1*%
%TO.N,Net-(U3-Rs)*%
X141165400Y-68921400D03*
D18*
%TO.P,R4,2*%
%TO.N,GND*%
X141165400Y-71461400D03*
%TD*%
D14*
%TO.P,L1,1,1*%
%TO.N,Net-(IC1-LX)*%
X141253000Y-90023800D03*
D18*
%TO.P,L1,2,2*%
%TO.N,GND*%
X141253000Y-100183800D03*
%TD*%
D10*
%TO.P,R11,1*%
%TO.N,Net-(IC2-CP2{slash}IN+)*%
X155909400Y-108804300D03*
%TO.P,R11,2*%
%TO.N,GND*%
X159009400Y-108804300D03*
%TD*%
D14*
%TO.P,NTC1,1*%
%TO.N,/BareMinAtmel328P/PC0-A0*%
X132332700Y-102297100D03*
D18*
%TO.P,NTC1,2*%
%TO.N,+5V*%
X134872700Y-102297100D03*
%TD*%
D19*
%TO.P,R9,1*%
%TO.N,Net-(IC2-TACH+)*%
X165042100Y-88273600D03*
%TO.P,R9,2*%
%TO.N,GND*%
X161942100Y-88273600D03*
%TD*%
D20*
%TO.P,IC1,1,OUT*%
%TO.N,Net-(IC1-OUT)*%
X144571900Y-88691700D03*
D21*
%TO.P,IC1,2,FB*%
%TO.N,Net-(IC1-FB)*%
X144571900Y-91231700D03*
%TO.P,IC1,3,SHDN*%
%TO.N,GND*%
X144571900Y-93771700D03*
%TO.P,IC1,4,REF*%
%TO.N,Net-(IC1-FB)*%
X144571900Y-96311700D03*
%TO.P,IC1,5,GND*%
%TO.N,GND*%
X152191900Y-96311700D03*
%TO.P,IC1,6,V+_1*%
%TO.N,Net-(IC1-V+_1)*%
X152191900Y-93771700D03*
%TO.P,IC1,7,V+_2*%
X152191900Y-91231700D03*
%TO.P,IC1,8,LX*%
%TO.N,Net-(IC1-LX)*%
X152191900Y-88691700D03*
%TD*%
D14*
%TO.P,R6,1*%
%TO.N,Net-(J4-Pin_2)*%
X134731500Y-72933100D03*
D18*
%TO.P,R6,2*%
%TO.N,CANBUS_L*%
X132191500Y-72933100D03*
%TD*%
D22*
%TO.P,Powerboard1,1,Pin_1*%
%TO.N,+VDC*%
X128349100Y-103565100D03*
D23*
%TO.P,Powerboard1,2,Pin_2*%
%TO.N,+5V*%
X128349100Y-101025100D03*
%TO.P,Powerboard1,3,Pin_3*%
%TO.N,GND*%
X128349100Y-98485100D03*
%TD*%
D22*
%TO.P,J4,1,Pin_1*%
%TO.N,CANBUS_H*%
X134544600Y-69362300D03*
D23*
%TO.P,J4,2,Pin_2*%
%TO.N,Net-(J4-Pin_2)*%
X132004600Y-69362300D03*
%TD*%
D24*
%TO.P,U2,1,1*%
%TO.N,Net-(Q1-Pad3)*%
X122551000Y-84380500D03*
%TO.P,U2,2,2*%
X122551000Y-80980500D03*
%TO.P,U2,3,3*%
%TO.N,+VDC*%
X132471000Y-84380500D03*
%TO.P,U2,4,4*%
X132471000Y-80980500D03*
%TD*%
D25*
%TO.P,Q1,1*%
%TO.N,Net-(Q1-Pad1)*%
X133881200Y-95296400D03*
D26*
%TO.P,Q1,2*%
%TO.N,Net-(J9-Pin_2)*%
X133881200Y-92756400D03*
%TO.P,Q1,3*%
%TO.N,Net-(Q1-Pad3)*%
X133881200Y-90216400D03*
%TD*%
D27*
%TO.P,IC4,8,V+*%
%TO.N,+5V*%
X154067000Y-100374900D03*
%TO.P,IC4,7,OUTB*%
%TO.N,/BareMinAtmel328P/PC2-A2*%
X154067000Y-101644900D03*
%TO.P,IC4,6,-IN_B*%
X154067000Y-102914900D03*
%TO.P,IC4,5,+INB*%
%TO.N,/RPM_Sensor/RPM-Vout*%
X154067000Y-104184900D03*
%TO.P,IC4,4,V-*%
%TO.N,GND*%
X159467000Y-104184900D03*
%TO.P,IC4,3,+IN_A*%
%TO.N,Net-(IC4-+IN_A)*%
X159467000Y-102914900D03*
%TO.P,IC4,2,-INA*%
%TO.N,/BareMinAtmel328P/PC1-A1*%
X159467000Y-101644900D03*
%TO.P,IC4,1,OUT_A*%
X159467000Y-100374900D03*
%TD*%
D28*
%TO.P,RV1,3,3*%
%TO.N,GND*%
X161784400Y-84400700D03*
%TO.P,RV1,2,2*%
%TO.N,Net-(J6-Pin_1)*%
X164324400Y-84400700D03*
%TO.P,RV1,1,1*%
%TO.N,Net-(IC1-OUT)*%
X166864400Y-84400700D03*
%TD*%
D15*
%TO.P,C11,1*%
%TO.N,Net-(IC1-OUT)*%
X142908700Y-103082900D03*
D14*
%TO.P,C11,2*%
%TO.N,GND*%
X142908700Y-108082900D03*
%TD*%
D22*
%TO.P,J2,1,Pin_1*%
%TO.N,GND*%
X154230000Y-133648600D03*
D23*
%TO.P,J2,2,Pin_2*%
%TO.N,unconnected-(J2-Pin_2-Pad2)*%
X151690000Y-133648600D03*
%TO.P,J2,3,Pin_3*%
%TO.N,+5V*%
X149150000Y-133648600D03*
%TO.P,J2,4,Pin_4*%
%TO.N,/BareMinAtmel328P/PD0-RX*%
X146610000Y-133648600D03*
%TO.P,J2,5,Pin_5*%
%TO.N,/BareMinAtmel328P/PD1-TX*%
X144070000Y-133648600D03*
%TO.P,J2,6,Pin_6*%
%TO.N,Net-(J2-Pin_6)*%
X141530000Y-133648600D03*
%TD*%
D29*
%TO.P,IC2,1,TACH+*%
%TO.N,Net-(IC2-TACH+)*%
X162007700Y-90765900D03*
D30*
%TO.P,IC2,2,CP1*%
%TO.N,Net-(IC2-CP1)*%
X162007700Y-93305900D03*
%TO.P,IC2,3,CP2/IN+*%
%TO.N,Net-(IC2-CP2{slash}IN+)*%
X162007700Y-95845900D03*
%TO.P,IC2,4,EMIT*%
%TO.N,/RPM_Sensor/RPM-Vout*%
X162007700Y-98385900D03*
%TO.P,IC2,5,COL*%
%TO.N,+VDC*%
X169947700Y-98385900D03*
%TO.P,IC2,6,V+*%
%TO.N,Net-(IC2-V+)*%
X169947700Y-95845900D03*
%TO.P,IC2,7,IN-*%
%TO.N,/RPM_Sensor/RPM-Vout*%
X169947700Y-93305900D03*
%TO.P,IC2,8,TACH-/GND*%
%TO.N,GND*%
X169947700Y-90765900D03*
%TD*%
D19*
%TO.P,R8,1*%
%TO.N,TachIn*%
X170076600Y-88263300D03*
%TO.P,R8,2*%
%TO.N,Net-(IC2-TACH+)*%
X166976600Y-88263300D03*
%TD*%
D31*
%TO.P,Y2,1,1*%
%TO.N,Net-(U4-OSC1)*%
X150037500Y-84434600D03*
%TO.P,Y2,2,2*%
%TO.N,Net-(U4-OSC2)*%
X154917500Y-84434600D03*
%TD*%
D32*
%TO.P,Reset1,1,NO_1*%
%TO.N,/BareMinAtmel328P/RESET*%
X137890100Y-136171500D03*
D31*
%TO.P,Reset1,2,NO_2*%
%TO.N,unconnected-(Reset1-NO_2-Pad2)*%
X131390100Y-136171500D03*
%TO.P,Reset1,3,COM_1*%
%TO.N,GND*%
X137890100Y-131671500D03*
%TO.P,Reset1,4,COM_2*%
%TO.N,unconnected-(Reset1-COM_2-Pad4)*%
X131390100Y-131671500D03*
%TD*%
%TO.P,Y1,2,2*%
%TO.N,Net-(U1-XTAL1{slash}PB6)*%
X148909000Y-123284400D03*
%TO.P,Y1,1,1*%
%TO.N,Net-(U1-XTAL2{slash}PB7)*%
X153789000Y-123284400D03*
%TD*%
D33*
%TO.P,R16,1*%
%TO.N,/RPM_Sensor/RPM-Vout*%
X165977700Y-98105900D03*
%TO.P,R16,2*%
%TO.N,GND*%
X165977700Y-101205900D03*
%TD*%
D34*
%TO.P,D2,1*%
%TO.N,Net-(IC1-LX)*%
X137580900Y-88313900D03*
D35*
%TO.P,D2,2*%
%TO.N,Net-(IC1-OUT)*%
X137580900Y-102413900D03*
%TD*%
D15*
%TO.P,U1,1,~{RESET}/PC6*%
%TO.N,/BareMinAtmel328P/RESET*%
X132296200Y-119209800D03*
D18*
%TO.P,U1,2,PD0*%
%TO.N,/BareMinAtmel328P/PD0-RX*%
X134836200Y-119209800D03*
%TO.P,U1,3,PD1*%
%TO.N,/BareMinAtmel328P/PD1-TX*%
X137376200Y-119209800D03*
%TO.P,U1,4,PD2*%
%TO.N,/BareMinAtmel328P/PD2-D2*%
X139916200Y-119209800D03*
%TO.P,U1,5,PD3*%
%TO.N,/BareMinAtmel328P/PD3-D3*%
X142456200Y-119209800D03*
%TO.P,U1,6,PD4*%
%TO.N,/BareMinAtmel328P/PD4-D4*%
X144996200Y-119209800D03*
%TO.P,U1,7,VCC*%
%TO.N,+5V*%
X147536200Y-119209800D03*
%TO.P,U1,8,GND*%
%TO.N,GND*%
X150076200Y-119209800D03*
%TO.P,U1,9,XTAL1/PB6*%
%TO.N,Net-(U1-XTAL1{slash}PB6)*%
X152616200Y-119209800D03*
%TO.P,U1,10,XTAL2/PB7*%
%TO.N,Net-(U1-XTAL2{slash}PB7)*%
X155156200Y-119209800D03*
%TO.P,U1,11,PD5*%
%TO.N,/BareMinAtmel328P/PD5-D5*%
X157696200Y-119209800D03*
%TO.P,U1,12,PD6*%
%TO.N,/BareMinAtmel328P/PD6-D6*%
X160236200Y-119209800D03*
%TO.P,U1,13,PD7*%
%TO.N,/BareMinAtmel328P/PD7-D7*%
X162776200Y-119209800D03*
%TO.P,U1,14,PB0*%
%TO.N,/BareMinAtmel328P/PB0-D8*%
X165316200Y-119209800D03*
%TO.P,U1,15,PB1*%
%TO.N,/BareMinAtmel328P/PB1-D9*%
X165316200Y-111589800D03*
%TO.P,U1,16,PB2*%
%TO.N,/BareMinAtmel328P/PB2-D10-SS*%
X162776200Y-111589800D03*
%TO.P,U1,17,PB3*%
%TO.N,/BareMinAtmel328P/PB3-D11-MOSI*%
X160236200Y-111589800D03*
%TO.P,U1,18,PB4*%
%TO.N,/BareMinAtmel328P/PB4-D12-MISO*%
X157696200Y-111589800D03*
%TO.P,U1,19,PB5*%
%TO.N,/BareMinAtmel328P/PB5-D13-SCK*%
X155156200Y-111589800D03*
%TO.P,U1,20,AVCC*%
%TO.N,+5V*%
X152616200Y-111589800D03*
%TO.P,U1,21,AREF*%
%TO.N,/BareMinAtmel328P/AREF*%
X150076200Y-111589800D03*
%TO.P,U1,22,GND*%
%TO.N,GND*%
X147536200Y-111589800D03*
%TO.P,U1,23,PC0*%
%TO.N,/BareMinAtmel328P/PC0-A0*%
X144996200Y-111589800D03*
%TO.P,U1,24,PC1*%
%TO.N,/BareMinAtmel328P/PC1-A1*%
X142456200Y-111589800D03*
%TO.P,U1,25,PC2*%
%TO.N,/BareMinAtmel328P/PC2-A2*%
X139916200Y-111589800D03*
%TO.P,U1,26,PC3*%
%TO.N,/BareMinAtmel328P/PC3-A3*%
X137376200Y-111589800D03*
%TO.P,U1,27,PC4*%
%TO.N,/BareMinAtmel328P/PC4-A4-SDA*%
X134836200Y-111589800D03*
%TO.P,U1,28,PC5*%
%TO.N,/BareMinAtmel328P/PC5-A5-SCL*%
X132296200Y-111589800D03*
%TD*%
D36*
%TO.P,C3,1*%
%TO.N,Net-(J2-Pin_6)*%
X134500000Y-132278500D03*
%TO.P,C3,2*%
%TO.N,/BareMinAtmel328P/RESET*%
X134500000Y-135403500D03*
%TD*%
D37*
%TO.P,C2,1*%
%TO.N,Net-(U1-XTAL1{slash}PB6)*%
X144303300Y-122841300D03*
%TO.P,C2,2*%
%TO.N,GND*%
X141178300Y-122841300D03*
%TD*%
D38*
%TO.P,U4,1,TXCAN*%
%TO.N,/CANBUS-MCP2515/TXtoCANTC*%
X147668200Y-75422700D03*
%TO.P,U4,2,RXCAN*%
%TO.N,/CANBUS-MCP2515/RXtoCANTC*%
X147668200Y-76692700D03*
%TO.P,U4,3,CLKOUT/SOF*%
%TO.N,unconnected-(U4-CLKOUT{slash}SOF-Pad3)*%
X147668200Y-77962700D03*
%TO.P,U4,4,~{TX0RTS}*%
%TO.N,unconnected-(U4-~{TX0RTS}-Pad4)*%
X147668200Y-79232700D03*
%TO.P,U4,5,~{TX1RTS}*%
%TO.N,unconnected-(U4-~{TX1RTS}-Pad5)*%
X147668200Y-80502700D03*
%TO.P,U4,6,~{TX2RTS}*%
%TO.N,unconnected-(U4-~{TX2RTS}-Pad6)*%
X147668200Y-81772700D03*
%TO.P,U4,7,OSC2*%
%TO.N,Net-(U4-OSC2)*%
X147668200Y-83042700D03*
%TO.P,U4,8,OSC1*%
%TO.N,Net-(U4-OSC1)*%
X147668200Y-84312700D03*
%TO.P,U4,9,VSS*%
%TO.N,GND*%
X147668200Y-85582700D03*
%TO.P,U4,10,~{RX1BF}*%
%TO.N,unconnected-(U4-~{RX1BF}-Pad10)*%
X138368200Y-85582700D03*
%TO.P,U4,11,~{RX0BF}*%
%TO.N,unconnected-(U4-~{RX0BF}-Pad11)*%
X138368200Y-84312700D03*
%TO.P,U4,12,~{INT}*%
%TO.N,/BareMinAtmel328P/PD2-D2*%
X138368200Y-83042700D03*
%TO.P,U4,13,SCK*%
%TO.N,/BareMinAtmel328P/PB5-D13-SCK*%
X138368200Y-81772700D03*
%TO.P,U4,14,SI*%
%TO.N,/BareMinAtmel328P/PB3-D11-MOSI*%
X138368200Y-80502700D03*
%TO.P,U4,15,SO*%
%TO.N,/BareMinAtmel328P/PB4-D12-MISO*%
X138368200Y-79232700D03*
%TO.P,U4,16,~{CS}*%
%TO.N,/BareMinAtmel328P/PB1-D9*%
X138368200Y-77962700D03*
%TO.P,U4,17,~{RESET}*%
%TO.N,Net-(U4-~{RESET})*%
X138368200Y-76692700D03*
%TO.P,U4,18,VDD*%
%TO.N,+5V*%
X138368200Y-75422700D03*
%TD*%
D19*
%TO.P,R1,1*%
%TO.N,+5V*%
X135824100Y-125096000D03*
%TO.P,R1,2*%
%TO.N,/BareMinAtmel328P/RESET*%
X132724100Y-125096000D03*
%TD*%
%TO.P,R7,1*%
%TO.N,GND*%
X129011100Y-108001700D03*
%TO.P,R7,2*%
%TO.N,/BareMinAtmel328P/PC0-A0*%
X125911100Y-108001700D03*
%TD*%
D36*
%TO.P,C4,1*%
%TO.N,+5V*%
X143852200Y-69487000D03*
%TO.P,C4,2*%
%TO.N,GND*%
X143852200Y-72612000D03*
%TD*%
D13*
%TO.P,R5,1*%
%TO.N,Net-(U4-~{RESET})*%
X138458500Y-72988500D03*
%TO.P,R5,2*%
%TO.N,+5V*%
X138458500Y-69888500D03*
%TD*%
D33*
%TO.P,R3,1*%
%TO.N,/BareMinAtmel328P/AREF*%
X150123600Y-113846200D03*
%TO.P,R3,2*%
%TO.N,+5V*%
X150123600Y-116946200D03*
%TD*%
%TO.P,R2,1*%
%TO.N,Net-(Q1-Pad1)*%
X128322200Y-92401100D03*
%TO.P,R2,2*%
%TO.N,GND*%
X128322200Y-95501100D03*
%TD*%
D36*
%TO.P,C5,1*%
%TO.N,+5V*%
X147599200Y-69413100D03*
%TO.P,C5,2*%
%TO.N,GND*%
X147599200Y-72538100D03*
%TD*%
D39*
%TO.P,D1,1,CATHODE_1*%
%TO.N,CANBUS_H*%
X152584000Y-70128100D03*
%TO.P,D1,2,CATHODE_2*%
%TO.N,CANBUS_L*%
X152584000Y-71428100D03*
%TO.P,D1,3,COMMON_ANODE*%
%TO.N,GND*%
X150684000Y-70778100D03*
%TD*%
D40*
%TO.N,Net-(U4-~{RESET})*%
X138475926Y-73047052D03*
X138348612Y-76692699D03*
%TO.N,+5V*%
X134661500Y-125055100D03*
%TO.N,Net-(J6-Pin_1)*%
X163430400Y-88416100D03*
%TO.N,Net-(IC4-+IN_A)*%
X158203400Y-103435300D03*
%TO.N,/RPM_Sensor/RPM-Vout*%
X156519700Y-101888900D03*
%TO.N,Net-(IC2-TACH+)*%
X164638100Y-89796300D03*
%TO.N,Net-(IC2-CP2{slash}IN+)*%
X157122600Y-100305100D03*
%TO.N,Net-(IC1-OUT)*%
X143998800Y-100119400D03*
%TO.N,Net-(IC1-V+_1)*%
X143787900Y-85342000D03*
%TO.N,/CANBUS-MCP2515/TXtoCANTC*%
X146120500Y-73534000D03*
%TO.N,/CANBUS-MCP2515/RXtoCANTC*%
X145780100Y-75286100D03*
%TO.N,/BareMinAtmel328P/PC0-A0*%
X132332700Y-107184100D03*
%TO.N,/BareMinAtmel328P/PC1-A1*%
X162855000Y-101202000D03*
%TO.N,/BareMinAtmel328P/PC2-A2*%
X152978300Y-104902300D03*
%TO.N,/BareMinAtmel328P/PB4-D12-MISO*%
X150926900Y-110034200D03*
%TO.N,/BareMinAtmel328P/PB5-D13-SCK*%
X151748800Y-113372100D03*
%TO.N,CANBUS_L*%
X152601000Y-71424300D03*
%TO.N,Net-(U4-OSC1)*%
X145672700Y-82903300D03*
%TO.N,Net-(U4-OSC2)*%
X145756000Y-81725900D03*
%TO.N,+5V*%
X145442000Y-71077800D03*
X140499600Y-79258800D03*
X141830305Y-74123795D03*
%TO.N,GND*%
X141134000Y-122904000D03*
X165975000Y-101234000D03*
X143942000Y-70909900D03*
X158415300Y-106813300D03*
X124126900Y-93650100D03*
%TD*%
D41*
%TO.N,+5V*%
X143621412Y-75914902D02*
X143621412Y-78390150D01*
X141830305Y-74123795D02*
X143621412Y-75914902D01*
X143621412Y-78390150D02*
X142752762Y-79258800D01*
X140531400Y-75422700D02*
X138368200Y-75422700D01*
X142752762Y-79258800D02*
X140499600Y-79258800D01*
X141830305Y-74123795D02*
X140531400Y-75422700D01*
X135824100Y-125096000D02*
X134702400Y-125096000D01*
D42*
%TO.N,TachIn*%
X170077000Y-81811400D02*
X170077000Y-85037300D01*
X170094000Y-81794100D02*
X170077000Y-81811400D01*
X167918000Y-79618100D02*
X170094000Y-81794100D01*
X155246300Y-79618100D02*
X167918000Y-79618100D01*
X170077000Y-85037300D02*
X170077000Y-88263300D01*
D41*
X170076600Y-85037700D02*
X170076600Y-88263300D01*
X170077000Y-85037300D02*
X170076600Y-85037700D01*
%TO.N,Net-(J6-Pin_1)*%
X163430400Y-85294700D02*
X163430400Y-88416100D01*
X164324400Y-84400700D02*
X163430400Y-85294700D01*
%TO.N,Net-(IC4-+IN_A)*%
X158415300Y-103223400D02*
X158203400Y-103435300D01*
X158415300Y-102914900D02*
X158415300Y-103223400D01*
X159467000Y-102914900D02*
X158415300Y-102914900D01*
%TO.N,/RPM_Sensor/RPM-Vout*%
X162007700Y-98385900D02*
X165697700Y-98385900D01*
X165977700Y-97275900D02*
X165977700Y-98105900D01*
X169947700Y-93305900D02*
X165977700Y-97275900D01*
X154067000Y-104184900D02*
X155118700Y-104184900D01*
X155118700Y-103289900D02*
X156519700Y-101888900D01*
X155118700Y-104184900D02*
X155118700Y-103289900D01*
%TO.N,Net-(IC2-TACH+)*%
X166976600Y-88263300D02*
X165052400Y-88263300D01*
X165042100Y-89392300D02*
X165042100Y-88273600D01*
X164638100Y-89796300D02*
X165042100Y-89392300D01*
D43*
%TO.N,Net-(IC1-LX)*%
X139543000Y-88313900D02*
X141253000Y-90023800D01*
X137581000Y-88313900D02*
X139543000Y-88313900D01*
D41*
%TO.N,Net-(IC2-CP2{slash}IN+)*%
X157122600Y-107536700D02*
X157122600Y-100305100D01*
X155882200Y-108777100D02*
X157122600Y-107536700D01*
X154122300Y-108777100D02*
X155882200Y-108777100D01*
%TO.N,Net-(IC2-CP1)*%
X162007700Y-93305900D02*
X164219300Y-93305900D01*
%TO.N,Net-(IC1-OUT)*%
X144571900Y-88691700D02*
X144571900Y-89573400D01*
X143690200Y-99810800D02*
X143998800Y-100119400D01*
X143690200Y-90455100D02*
X143690200Y-99810800D01*
X144571900Y-89573400D02*
X143690200Y-90455100D01*
D43*
X142240000Y-102414000D02*
X142908700Y-103082700D01*
X137581000Y-102414000D02*
X142240000Y-102414000D01*
D41*
%TO.N,Net-(IC1-V+_1)*%
X150843200Y-99556400D02*
X150843200Y-98454700D01*
X151394000Y-98454700D02*
X150843200Y-98454700D01*
X153074000Y-96774700D02*
X151394000Y-98454700D01*
X153074000Y-94653800D02*
X153074000Y-96774700D01*
X152191900Y-93771700D02*
X153074000Y-94653800D01*
X151143100Y-93771700D02*
X148916600Y-91545200D01*
X152191900Y-93771700D02*
X151143100Y-93771700D01*
X143994500Y-85342000D02*
X143787900Y-85342000D01*
X146388100Y-87735600D02*
X143994500Y-85342000D01*
X146388100Y-89016700D02*
X146388100Y-87735600D01*
X148916600Y-91545200D02*
X146388100Y-89016700D01*
%TO.N,Net-(IC1-FB)*%
X145473600Y-92133400D02*
X144571900Y-91231700D01*
X145473600Y-96311700D02*
X145473600Y-92133400D01*
X144571900Y-96311700D02*
X145473600Y-96311700D01*
X145473600Y-96311700D02*
X146969700Y-96311700D01*
%TO.N,/CANBUS-MCP2515/TXtoCANTC*%
X146120500Y-73875000D02*
X146120500Y-73534000D01*
X147668200Y-75422700D02*
X146120500Y-73875000D01*
%TO.N,/CANBUS-MCP2515/RXtoCANTC*%
X147186700Y-76692700D02*
X145780100Y-75286100D01*
%TO.N,/BareMinAtmel328P/PD2-D2*%
X139916200Y-119209800D02*
X139916200Y-118108100D01*
X142882300Y-87157200D02*
X138767800Y-83042700D01*
X142882300Y-99857400D02*
X142882300Y-87157200D01*
X144028600Y-101003700D02*
X142882300Y-99857400D01*
X144028600Y-104797000D02*
X144028600Y-101003700D01*
X141327800Y-107497800D02*
X144028600Y-104797000D01*
X141327800Y-116696500D02*
X141327800Y-107497800D01*
X139916200Y-118108100D02*
X141327800Y-116696500D01*
%TO.N,/BareMinAtmel328P/PB1-D9*%
X165316200Y-102780600D02*
X165316200Y-111589800D01*
X163093300Y-100557700D02*
X165316200Y-102780600D01*
X162834000Y-100557700D02*
X163093300Y-100557700D01*
X152238000Y-89961700D02*
X162834000Y-100557700D01*
X152166700Y-89961700D02*
X152238000Y-89961700D01*
X151776900Y-89571900D02*
X152166700Y-89961700D01*
X148190800Y-89571900D02*
X151776900Y-89571900D01*
X147387500Y-88768600D02*
X148190800Y-89571900D01*
X147387500Y-86997500D02*
X147387500Y-88768600D01*
X139897900Y-79507900D02*
X147387500Y-86997500D01*
X139897900Y-79096900D02*
X139897900Y-79507900D01*
X138763700Y-77962700D02*
X139897900Y-79096900D01*
D44*
%TO.N,/BareMinAtmel328P/AREF*%
X150124000Y-113846000D02*
X150124000Y-111637000D01*
D43*
%TO.N,Net-(Q1-Pad3)*%
X128387000Y-90216400D02*
X122551000Y-84380500D01*
X133881000Y-90216400D02*
X128387000Y-90216400D01*
%TO.N,Net-(Q1-Pad1)*%
X130986000Y-92401100D02*
X133881000Y-95296400D01*
X128322200Y-92401100D02*
X130986000Y-92401100D01*
D41*
%TO.N,/BareMinAtmel328P/PC0-A0*%
X132332700Y-102297100D02*
X132332700Y-107184100D01*
X130276800Y-109240000D02*
X132332700Y-107184100D01*
X127149400Y-109240000D02*
X130276800Y-109240000D01*
X125911100Y-108001700D02*
X127149400Y-109240000D01*
D44*
%TO.N,/BareMinAtmel328P/PC1-A1*%
X162412000Y-101645000D02*
X162855000Y-101202000D01*
X159467100Y-101645000D02*
X162412000Y-101645000D01*
D41*
X158415300Y-100374900D02*
X158415300Y-101644900D01*
X159467000Y-100374900D02*
X158415300Y-100374900D01*
X159467000Y-101644900D02*
X158415300Y-101644900D01*
%TO.N,/BareMinAtmel328P/PC2-A2*%
X153015300Y-102170800D02*
X153015300Y-102914900D01*
X153541200Y-101644900D02*
X153015300Y-102170800D01*
X154067000Y-102914900D02*
X153015300Y-102914900D01*
X152978300Y-102951900D02*
X153015300Y-102914900D01*
X152978300Y-104902300D02*
X152978300Y-102951900D01*
D44*
%TO.N,Net-(J4-Pin_2)*%
X132005000Y-70206200D02*
X132005000Y-69362300D01*
X134731700Y-72932900D02*
X132005000Y-70206200D01*
D41*
%TO.N,/BareMinAtmel328P/PD1-TX*%
X137376200Y-125803100D02*
X144070000Y-132496900D01*
X137376200Y-119209800D02*
X137376200Y-125803100D01*
X144070000Y-133648600D02*
X144070000Y-132496900D01*
%TO.N,/BareMinAtmel328P/PD0-RX*%
X134836200Y-119209800D02*
X135937900Y-119209800D01*
X146610000Y-133648600D02*
X146610000Y-132496900D01*
X135937900Y-119072100D02*
X135937900Y-119209800D01*
X136931300Y-118078700D02*
X135937900Y-119072100D01*
X137860400Y-118078700D02*
X136931300Y-118078700D01*
X138498700Y-118717000D02*
X137860400Y-118078700D01*
X138498700Y-124385600D02*
X138498700Y-118717000D01*
X146610000Y-132496900D02*
X138498700Y-124385600D01*
%TO.N,/BareMinAtmel328P/PB4-D12-MISO*%
X148628800Y-107736100D02*
X150926900Y-110034200D01*
X148628800Y-96164300D02*
X148628800Y-107736100D01*
X146333100Y-93868600D02*
X148628800Y-96164300D01*
X146333100Y-92394300D02*
X146333100Y-93868600D01*
X145584700Y-91645900D02*
X146333100Y-92394300D01*
X145584700Y-88068200D02*
X145584700Y-91645900D01*
X143865800Y-86349300D02*
X145584700Y-88068200D01*
X143376200Y-86349300D02*
X143865800Y-86349300D01*
X139401900Y-82375000D02*
X143376200Y-86349300D01*
X137298000Y-82375000D02*
X139401900Y-82375000D01*
X137028500Y-82105500D02*
X137298000Y-82375000D01*
X137028500Y-80158100D02*
X137028500Y-82105500D01*
X137953900Y-79232700D02*
X137028500Y-80158100D01*
%TO.N,/BareMinAtmel328P/PB3-D11-MOSI*%
X160236200Y-111589800D02*
X159134500Y-111589800D01*
X139799600Y-80502700D02*
X138368200Y-80502700D01*
X146789800Y-87492900D02*
X139799600Y-80502700D01*
X146789800Y-88813400D02*
X146789800Y-87492900D01*
X148339700Y-90363300D02*
X146789800Y-88813400D01*
X150050600Y-90363300D02*
X148339700Y-90363300D01*
X157778800Y-98091500D02*
X150050600Y-90363300D01*
X157778800Y-102820700D02*
X157778800Y-98091500D01*
X157589700Y-103009800D02*
X157778800Y-102820700D01*
X157589700Y-109250700D02*
X157589700Y-103009800D01*
X159134500Y-110795500D02*
X157589700Y-109250700D01*
X159134500Y-111589800D02*
X159134500Y-110795500D01*
%TO.N,/BareMinAtmel328P/PB5-D13-SCK*%
X151299800Y-112923100D02*
X151748800Y-113372100D01*
X151299800Y-110512200D02*
X151299800Y-112923100D01*
X151528600Y-110283400D02*
X151299800Y-110512200D01*
X151528600Y-107051900D02*
X151528600Y-110283400D01*
X149068000Y-104591300D02*
X151528600Y-107051900D01*
X149068000Y-94561200D02*
X149068000Y-104591300D01*
X145986400Y-91479600D02*
X149068000Y-94561200D01*
X145986400Y-87901900D02*
X145986400Y-91479600D01*
X144032100Y-85947600D02*
X145986400Y-87901900D01*
X143542500Y-85947600D02*
X144032100Y-85947600D01*
X139367600Y-81772700D02*
X143542500Y-85947600D01*
X138368200Y-81772700D02*
X139367600Y-81772700D01*
D45*
%TO.N,CANBUS_H*%
X154576000Y-70128100D02*
X154911000Y-69793100D01*
X152584000Y-70128100D02*
X154576000Y-70128100D01*
%TO.N,CANBUS_L*%
X152605000Y-71428100D02*
X154676000Y-71428100D01*
D41*
%TO.N,Net-(U4-OSC1)*%
X147082100Y-84312700D02*
X145672700Y-82903300D01*
D44*
X147790000Y-84434600D02*
X147668100Y-84312800D01*
X150037500Y-84434600D02*
X147790000Y-84434600D01*
%TO.N,Net-(U4-OSC2)*%
X153526000Y-83042700D02*
X147668200Y-83042700D01*
X154917700Y-84434400D02*
X153526000Y-83042700D01*
D41*
X147072800Y-83042700D02*
X145756000Y-81725900D01*
%TO.N,+5V*%
X154067000Y-100374900D02*
X153015300Y-100374900D01*
X152616200Y-111589800D02*
X152616200Y-110488100D01*
X134872700Y-102297100D02*
X134872700Y-103398800D01*
X143299200Y-70039900D02*
X138609900Y-70039900D01*
D44*
X147536000Y-117992000D02*
X147536000Y-119209800D01*
X148582000Y-116946000D02*
X147536000Y-117992000D01*
X150123400Y-116946000D02*
X148582000Y-116946000D01*
D41*
X145442000Y-71077800D02*
X145442000Y-69487000D01*
D43*
X143852200Y-69487000D02*
X145442000Y-69487000D01*
X145442000Y-69487000D02*
X147525000Y-69487000D01*
D41*
X133675300Y-104596200D02*
X134872700Y-103398800D01*
X133675300Y-124068900D02*
X133675300Y-104596200D01*
X134661500Y-125055100D02*
X133675300Y-124068900D01*
X149150000Y-133648600D02*
X147998300Y-133648600D01*
X134702400Y-125096000D02*
X134661500Y-125055100D01*
X147998300Y-133917100D02*
X147998300Y-133648600D01*
X147086300Y-134829100D02*
X147998300Y-133917100D01*
X143550600Y-134829100D02*
X147086300Y-134829100D01*
X142800000Y-134078500D02*
X143550600Y-134829100D01*
X142800000Y-132071900D02*
X142800000Y-134078500D01*
X135824100Y-125096000D02*
X142800000Y-132071900D01*
X152376600Y-110248500D02*
X152616200Y-110488100D01*
X152376600Y-101013600D02*
X152376600Y-110248500D01*
X153015300Y-100374900D02*
X152376600Y-101013600D01*
X152616200Y-114453500D02*
X152616200Y-111589800D01*
X150123700Y-116946000D02*
X152616200Y-114453500D01*
D44*
%TO.N,Net-(J2-Pin_6)*%
X135870000Y-133649000D02*
X141529600Y-133649000D01*
X134500200Y-132278300D02*
X135870000Y-133649000D01*
%TO.N,/BareMinAtmel328P/RESET*%
X137122000Y-135403000D02*
X137506000Y-135787500D01*
X134500100Y-135403000D02*
X137122000Y-135403000D01*
D41*
X132724100Y-133627000D02*
X132724100Y-125096000D01*
X134500100Y-135403000D02*
X132724100Y-133627000D01*
X132296200Y-124668100D02*
X132296200Y-119209800D01*
%TO.N,Net-(U1-XTAL1{slash}PB6)*%
X152616200Y-119209800D02*
X152616200Y-120311500D01*
X151881500Y-120311500D02*
X148909000Y-123284000D01*
X152616200Y-120311500D02*
X151881500Y-120311500D01*
D44*
X148466000Y-122841000D02*
X148909000Y-123284000D01*
X144303600Y-122841000D02*
X148466000Y-122841000D01*
D43*
%TO.N,GND*%
X136879000Y-71461400D02*
X141165000Y-71461400D01*
X136178000Y-72162000D02*
X136879000Y-71461400D01*
X136178000Y-100184000D02*
X136178000Y-72162000D01*
X136178000Y-100184000D02*
X130048000Y-100184000D01*
X141253000Y-100184000D02*
X136178000Y-100184000D01*
D44*
X143942000Y-70909900D02*
X143942000Y-72522200D01*
D42*
X167396000Y-93317400D02*
X169948000Y-90765900D01*
D43*
X130048000Y-106965000D02*
X130048000Y-100184000D01*
X129011200Y-108001800D02*
X130048000Y-106965000D01*
X149359000Y-70778100D02*
X150684000Y-70778100D01*
X147599000Y-72538100D02*
X149359000Y-70778100D01*
D41*
X159467000Y-104184900D02*
X158415300Y-104184900D01*
X153867300Y-74538100D02*
X150684000Y-71354800D01*
X155246300Y-74538100D02*
X153867300Y-74538100D01*
X150684000Y-70778100D02*
X150684000Y-71354800D01*
D43*
X130048000Y-100184000D02*
X128349100Y-98485100D01*
X128349000Y-98485100D02*
X128349000Y-95528100D01*
D44*
X141717000Y-70909900D02*
X141165200Y-71461200D01*
X143942000Y-70909900D02*
X141717000Y-70909900D01*
D43*
X143852200Y-72612000D02*
X147525000Y-72612000D01*
D41*
X158415300Y-108210200D02*
X159009400Y-108804300D01*
X158415300Y-106813300D02*
X158415300Y-108210200D01*
D42*
X164434000Y-90765900D02*
X161942000Y-88273600D01*
X169947700Y-90765900D02*
X164434000Y-90765900D01*
D41*
X125977900Y-95501100D02*
X124126900Y-93650100D01*
X128322000Y-95501100D02*
X125977900Y-95501100D01*
X158415300Y-106813300D02*
X158415300Y-104184900D01*
X149741500Y-97280700D02*
X150390100Y-96632100D01*
X149741500Y-103454700D02*
X149741500Y-97280700D01*
X150843200Y-104556400D02*
X149741500Y-103454700D01*
X150390100Y-96632100D02*
X151871500Y-96632100D01*
X146434500Y-111452100D02*
X143065300Y-108082900D01*
X146434500Y-111589800D02*
X146434500Y-111452100D01*
X147536200Y-111589800D02*
X146434500Y-111589800D01*
X147668200Y-85582700D02*
X149612900Y-87527400D01*
X149612900Y-87748900D02*
X148916600Y-88445200D01*
X149612900Y-87527400D02*
X149612900Y-87748900D01*
X161784400Y-84400700D02*
X161784400Y-87527400D01*
X161784400Y-87527400D02*
X149612900Y-87527400D01*
X146434500Y-119712600D02*
X146434500Y-111589800D01*
X147058600Y-120336700D02*
X146434500Y-119712600D01*
X147985300Y-120336700D02*
X147058600Y-120336700D01*
X148974500Y-119347500D02*
X147985300Y-120336700D01*
X148974500Y-119209800D02*
X148974500Y-119347500D01*
X150076200Y-119209800D02*
X148974500Y-119209800D01*
%TD*%
M02*
