%TF.GenerationSoftware,KiCad,Pcbnew,8.0.1-rc1*%
%TF.CreationDate,2024-06-23T11:02:47-07:00*%
%TF.ProjectId,AMS - CANBus Sensor - RPM,414d5320-2d20-4434-914e-427573205365,rev?*%
%TF.SameCoordinates,Original*%
%TF.FileFunction,Legend,Bot*%
%TF.FilePolarity,Positive*%
%FSLAX46Y46*%
G04 Gerber Fmt 4.6, Leading zero omitted, Abs format (unit mm)*
G04 Created by KiCad (PCBNEW 8.0.1-rc1) date 2024-06-23 11:02:47*
%MOMM*%
%LPD*%
G01*
G04 APERTURE LIST*
G04 Aperture macros list*
%AMRoundRect*
0 Rectangle with rounded corners*
0 $1 Rounding radius*
0 $2 $3 $4 $5 $6 $7 $8 $9 X,Y pos of 4 corners*
0 Add a 4 corners polygon primitive as box body*
4,1,4,$2,$3,$4,$5,$6,$7,$8,$9,$2,$3,0*
0 Add four circle primitives for the rounded corners*
1,1,$1+$1,$2,$3*
1,1,$1+$1,$4,$5*
1,1,$1+$1,$6,$7*
1,1,$1+$1,$8,$9*
0 Add four rect primitives between the rounded corners*
20,1,$1+$1,$2,$3,$4,$5,0*
20,1,$1+$1,$4,$5,$6,$7,0*
20,1,$1+$1,$6,$7,$8,$9,0*
20,1,$1+$1,$8,$9,$2,$3,0*%
G04 Aperture macros list end*
%ADD10C,0.150000*%
%ADD11C,0.254000*%
%ADD12C,0.120000*%
%ADD13C,0.200000*%
%ADD14RoundRect,0.250000X-0.400000X-0.625000X0.400000X-0.625000X0.400000X0.625000X-0.400000X0.625000X0*%
%ADD15R,2.200000X2.200000*%
%ADD16C,2.200000*%
%ADD17RoundRect,0.250000X0.625000X-0.400000X0.625000X0.400000X-0.625000X0.400000X-0.625000X-0.400000X0*%
%ADD18C,1.600000*%
%ADD19R,1.600000X1.600000*%
%ADD20R,1.200000X1.200000*%
%ADD21C,1.200000*%
%ADD22O,1.600000X1.600000*%
%ADD23RoundRect,0.250000X0.400000X0.625000X-0.400000X0.625000X-0.400000X-0.625000X0.400000X-0.625000X0*%
%ADD24R,1.160000X1.160000*%
%ADD25C,1.160000*%
%ADD26R,1.700000X1.700000*%
%ADD27O,1.700000X1.700000*%
%ADD28C,2.400000*%
%ADD29R,1.920000X1.920000*%
%ADD30C,1.920000*%
%ADD31R,1.500000X0.650000*%
%ADD32C,1.440000*%
%ADD33R,1.130000X1.130000*%
%ADD34C,1.130000*%
%ADD35C,1.500000*%
%ADD36R,1.500000X1.500000*%
%ADD37RoundRect,0.250000X-0.625000X0.400000X-0.625000X-0.400000X0.625000X-0.400000X0.625000X0.400000X0*%
%ADD38R,1.575000X1.575000*%
%ADD39C,1.575000*%
%ADD40RoundRect,0.250000X-0.650000X0.412500X-0.650000X-0.412500X0.650000X-0.412500X0.650000X0.412500X0*%
%ADD41RoundRect,0.250000X0.412500X0.650000X-0.412500X0.650000X-0.412500X-0.650000X0.412500X-0.650000X0*%
%ADD42RoundRect,0.150000X0.875000X0.150000X-0.875000X0.150000X-0.875000X-0.150000X0.875000X-0.150000X0*%
%ADD43R,1.000000X0.550000*%
G04 APERTURE END LIST*
D10*
X166423657Y-95496980D02*
X166471276Y-95544600D01*
X166471276Y-95544600D02*
X166614133Y-95592219D01*
X166614133Y-95592219D02*
X166709371Y-95592219D01*
X166709371Y-95592219D02*
X166852228Y-95544600D01*
X166852228Y-95544600D02*
X166947466Y-95449361D01*
X166947466Y-95449361D02*
X166995085Y-95354123D01*
X166995085Y-95354123D02*
X167042704Y-95163647D01*
X167042704Y-95163647D02*
X167042704Y-95020790D01*
X167042704Y-95020790D02*
X166995085Y-94830314D01*
X166995085Y-94830314D02*
X166947466Y-94735076D01*
X166947466Y-94735076D02*
X166852228Y-94639838D01*
X166852228Y-94639838D02*
X166709371Y-94592219D01*
X166709371Y-94592219D02*
X166614133Y-94592219D01*
X166614133Y-94592219D02*
X166471276Y-94639838D01*
X166471276Y-94639838D02*
X166423657Y-94687457D01*
X165471276Y-95592219D02*
X166042704Y-95592219D01*
X165756990Y-95592219D02*
X165756990Y-94592219D01*
X165756990Y-94592219D02*
X165852228Y-94735076D01*
X165852228Y-94735076D02*
X165947466Y-94830314D01*
X165947466Y-94830314D02*
X166042704Y-94877933D01*
X165090323Y-94687457D02*
X165042704Y-94639838D01*
X165042704Y-94639838D02*
X164947466Y-94592219D01*
X164947466Y-94592219D02*
X164709371Y-94592219D01*
X164709371Y-94592219D02*
X164614133Y-94639838D01*
X164614133Y-94639838D02*
X164566514Y-94687457D01*
X164566514Y-94687457D02*
X164518895Y-94782695D01*
X164518895Y-94782695D02*
X164518895Y-94877933D01*
X164518895Y-94877933D02*
X164566514Y-95020790D01*
X164566514Y-95020790D02*
X165137942Y-95592219D01*
X165137942Y-95592219D02*
X164518895Y-95592219D01*
X151096180Y-89352342D02*
X151143800Y-89304723D01*
X151143800Y-89304723D02*
X151191419Y-89161866D01*
X151191419Y-89161866D02*
X151191419Y-89066628D01*
X151191419Y-89066628D02*
X151143800Y-88923771D01*
X151143800Y-88923771D02*
X151048561Y-88828533D01*
X151048561Y-88828533D02*
X150953323Y-88780914D01*
X150953323Y-88780914D02*
X150762847Y-88733295D01*
X150762847Y-88733295D02*
X150619990Y-88733295D01*
X150619990Y-88733295D02*
X150429514Y-88780914D01*
X150429514Y-88780914D02*
X150334276Y-88828533D01*
X150334276Y-88828533D02*
X150239038Y-88923771D01*
X150239038Y-88923771D02*
X150191419Y-89066628D01*
X150191419Y-89066628D02*
X150191419Y-89161866D01*
X150191419Y-89161866D02*
X150239038Y-89304723D01*
X150239038Y-89304723D02*
X150286657Y-89352342D01*
X151191419Y-90304723D02*
X151191419Y-89733295D01*
X151191419Y-90019009D02*
X150191419Y-90019009D01*
X150191419Y-90019009D02*
X150334276Y-89923771D01*
X150334276Y-89923771D02*
X150429514Y-89828533D01*
X150429514Y-89828533D02*
X150477133Y-89733295D01*
X150191419Y-90923771D02*
X150191419Y-91019009D01*
X150191419Y-91019009D02*
X150239038Y-91114247D01*
X150239038Y-91114247D02*
X150286657Y-91161866D01*
X150286657Y-91161866D02*
X150381895Y-91209485D01*
X150381895Y-91209485D02*
X150572371Y-91257104D01*
X150572371Y-91257104D02*
X150810466Y-91257104D01*
X150810466Y-91257104D02*
X151000942Y-91209485D01*
X151000942Y-91209485D02*
X151096180Y-91161866D01*
X151096180Y-91161866D02*
X151143800Y-91114247D01*
X151143800Y-91114247D02*
X151191419Y-91019009D01*
X151191419Y-91019009D02*
X151191419Y-90923771D01*
X151191419Y-90923771D02*
X151143800Y-90828533D01*
X151143800Y-90828533D02*
X151096180Y-90780914D01*
X151096180Y-90780914D02*
X151000942Y-90733295D01*
X151000942Y-90733295D02*
X150810466Y-90685676D01*
X150810466Y-90685676D02*
X150572371Y-90685676D01*
X150572371Y-90685676D02*
X150381895Y-90733295D01*
X150381895Y-90733295D02*
X150286657Y-90780914D01*
X150286657Y-90780914D02*
X150239038Y-90828533D01*
X150239038Y-90828533D02*
X150191419Y-90923771D01*
X149006766Y-98811680D02*
X149054385Y-98859300D01*
X149054385Y-98859300D02*
X149197242Y-98906919D01*
X149197242Y-98906919D02*
X149292480Y-98906919D01*
X149292480Y-98906919D02*
X149435337Y-98859300D01*
X149435337Y-98859300D02*
X149530575Y-98764061D01*
X149530575Y-98764061D02*
X149578194Y-98668823D01*
X149578194Y-98668823D02*
X149625813Y-98478347D01*
X149625813Y-98478347D02*
X149625813Y-98335490D01*
X149625813Y-98335490D02*
X149578194Y-98145014D01*
X149578194Y-98145014D02*
X149530575Y-98049776D01*
X149530575Y-98049776D02*
X149435337Y-97954538D01*
X149435337Y-97954538D02*
X149292480Y-97906919D01*
X149292480Y-97906919D02*
X149197242Y-97906919D01*
X149197242Y-97906919D02*
X149054385Y-97954538D01*
X149054385Y-97954538D02*
X149006766Y-98002157D01*
X148435337Y-98335490D02*
X148530575Y-98287871D01*
X148530575Y-98287871D02*
X148578194Y-98240252D01*
X148578194Y-98240252D02*
X148625813Y-98145014D01*
X148625813Y-98145014D02*
X148625813Y-98097395D01*
X148625813Y-98097395D02*
X148578194Y-98002157D01*
X148578194Y-98002157D02*
X148530575Y-97954538D01*
X148530575Y-97954538D02*
X148435337Y-97906919D01*
X148435337Y-97906919D02*
X148244861Y-97906919D01*
X148244861Y-97906919D02*
X148149623Y-97954538D01*
X148149623Y-97954538D02*
X148102004Y-98002157D01*
X148102004Y-98002157D02*
X148054385Y-98097395D01*
X148054385Y-98097395D02*
X148054385Y-98145014D01*
X148054385Y-98145014D02*
X148102004Y-98240252D01*
X148102004Y-98240252D02*
X148149623Y-98287871D01*
X148149623Y-98287871D02*
X148244861Y-98335490D01*
X148244861Y-98335490D02*
X148435337Y-98335490D01*
X148435337Y-98335490D02*
X148530575Y-98383109D01*
X148530575Y-98383109D02*
X148578194Y-98430728D01*
X148578194Y-98430728D02*
X148625813Y-98525966D01*
X148625813Y-98525966D02*
X148625813Y-98716442D01*
X148625813Y-98716442D02*
X148578194Y-98811680D01*
X148578194Y-98811680D02*
X148530575Y-98859300D01*
X148530575Y-98859300D02*
X148435337Y-98906919D01*
X148435337Y-98906919D02*
X148244861Y-98906919D01*
X148244861Y-98906919D02*
X148149623Y-98859300D01*
X148149623Y-98859300D02*
X148102004Y-98811680D01*
X148102004Y-98811680D02*
X148054385Y-98716442D01*
X148054385Y-98716442D02*
X148054385Y-98525966D01*
X148054385Y-98525966D02*
X148102004Y-98430728D01*
X148102004Y-98430728D02*
X148149623Y-98383109D01*
X148149623Y-98383109D02*
X148244861Y-98335490D01*
X161996746Y-109264302D02*
X162330079Y-108788111D01*
X162568174Y-109264302D02*
X162568174Y-108264302D01*
X162568174Y-108264302D02*
X162187222Y-108264302D01*
X162187222Y-108264302D02*
X162091984Y-108311921D01*
X162091984Y-108311921D02*
X162044365Y-108359540D01*
X162044365Y-108359540D02*
X161996746Y-108454778D01*
X161996746Y-108454778D02*
X161996746Y-108597635D01*
X161996746Y-108597635D02*
X162044365Y-108692873D01*
X162044365Y-108692873D02*
X162091984Y-108740492D01*
X162091984Y-108740492D02*
X162187222Y-108788111D01*
X162187222Y-108788111D02*
X162568174Y-108788111D01*
X161044365Y-109264302D02*
X161615793Y-109264302D01*
X161330079Y-109264302D02*
X161330079Y-108264302D01*
X161330079Y-108264302D02*
X161425317Y-108407159D01*
X161425317Y-108407159D02*
X161520555Y-108502397D01*
X161520555Y-108502397D02*
X161615793Y-108550016D01*
X160091984Y-109264302D02*
X160663412Y-109264302D01*
X160377698Y-109264302D02*
X160377698Y-108264302D01*
X160377698Y-108264302D02*
X160472936Y-108407159D01*
X160472936Y-108407159D02*
X160568174Y-108502397D01*
X160568174Y-108502397D02*
X160663412Y-108550016D01*
X163658766Y-86908419D02*
X163992099Y-86432228D01*
X164230194Y-86908419D02*
X164230194Y-85908419D01*
X164230194Y-85908419D02*
X163849242Y-85908419D01*
X163849242Y-85908419D02*
X163754004Y-85956038D01*
X163754004Y-85956038D02*
X163706385Y-86003657D01*
X163706385Y-86003657D02*
X163658766Y-86098895D01*
X163658766Y-86098895D02*
X163658766Y-86241752D01*
X163658766Y-86241752D02*
X163706385Y-86336990D01*
X163706385Y-86336990D02*
X163754004Y-86384609D01*
X163754004Y-86384609D02*
X163849242Y-86432228D01*
X163849242Y-86432228D02*
X164230194Y-86432228D01*
X163182575Y-86908419D02*
X162992099Y-86908419D01*
X162992099Y-86908419D02*
X162896861Y-86860800D01*
X162896861Y-86860800D02*
X162849242Y-86813180D01*
X162849242Y-86813180D02*
X162754004Y-86670323D01*
X162754004Y-86670323D02*
X162706385Y-86479847D01*
X162706385Y-86479847D02*
X162706385Y-86098895D01*
X162706385Y-86098895D02*
X162754004Y-86003657D01*
X162754004Y-86003657D02*
X162801623Y-85956038D01*
X162801623Y-85956038D02*
X162896861Y-85908419D01*
X162896861Y-85908419D02*
X163087337Y-85908419D01*
X163087337Y-85908419D02*
X163182575Y-85956038D01*
X163182575Y-85956038D02*
X163230194Y-86003657D01*
X163230194Y-86003657D02*
X163277813Y-86098895D01*
X163277813Y-86098895D02*
X163277813Y-86336990D01*
X163277813Y-86336990D02*
X163230194Y-86432228D01*
X163230194Y-86432228D02*
X163182575Y-86479847D01*
X163182575Y-86479847D02*
X163087337Y-86527466D01*
X163087337Y-86527466D02*
X162896861Y-86527466D01*
X162896861Y-86527466D02*
X162801623Y-86479847D01*
X162801623Y-86479847D02*
X162754004Y-86432228D01*
X162754004Y-86432228D02*
X162706385Y-86336990D01*
D11*
X158263106Y-99432753D02*
X158263106Y-98162753D01*
X156932629Y-99311800D02*
X156993105Y-99372277D01*
X156993105Y-99372277D02*
X157174534Y-99432753D01*
X157174534Y-99432753D02*
X157295486Y-99432753D01*
X157295486Y-99432753D02*
X157476915Y-99372277D01*
X157476915Y-99372277D02*
X157597867Y-99251324D01*
X157597867Y-99251324D02*
X157658344Y-99130372D01*
X157658344Y-99130372D02*
X157718820Y-98888467D01*
X157718820Y-98888467D02*
X157718820Y-98707038D01*
X157718820Y-98707038D02*
X157658344Y-98465134D01*
X157658344Y-98465134D02*
X157597867Y-98344181D01*
X157597867Y-98344181D02*
X157476915Y-98223229D01*
X157476915Y-98223229D02*
X157295486Y-98162753D01*
X157295486Y-98162753D02*
X157174534Y-98162753D01*
X157174534Y-98162753D02*
X156993105Y-98223229D01*
X156993105Y-98223229D02*
X156932629Y-98283705D01*
X155844058Y-98586086D02*
X155844058Y-99432753D01*
X156146439Y-98102277D02*
X156448820Y-99009419D01*
X156448820Y-99009419D02*
X155662629Y-99009419D01*
D10*
X168693266Y-86898119D02*
X169026599Y-86421928D01*
X169264694Y-86898119D02*
X169264694Y-85898119D01*
X169264694Y-85898119D02*
X168883742Y-85898119D01*
X168883742Y-85898119D02*
X168788504Y-85945738D01*
X168788504Y-85945738D02*
X168740885Y-85993357D01*
X168740885Y-85993357D02*
X168693266Y-86088595D01*
X168693266Y-86088595D02*
X168693266Y-86231452D01*
X168693266Y-86231452D02*
X168740885Y-86326690D01*
X168740885Y-86326690D02*
X168788504Y-86374309D01*
X168788504Y-86374309D02*
X168883742Y-86421928D01*
X168883742Y-86421928D02*
X169264694Y-86421928D01*
X168121837Y-86326690D02*
X168217075Y-86279071D01*
X168217075Y-86279071D02*
X168264694Y-86231452D01*
X168264694Y-86231452D02*
X168312313Y-86136214D01*
X168312313Y-86136214D02*
X168312313Y-86088595D01*
X168312313Y-86088595D02*
X168264694Y-85993357D01*
X168264694Y-85993357D02*
X168217075Y-85945738D01*
X168217075Y-85945738D02*
X168121837Y-85898119D01*
X168121837Y-85898119D02*
X167931361Y-85898119D01*
X167931361Y-85898119D02*
X167836123Y-85945738D01*
X167836123Y-85945738D02*
X167788504Y-85993357D01*
X167788504Y-85993357D02*
X167740885Y-86088595D01*
X167740885Y-86088595D02*
X167740885Y-86136214D01*
X167740885Y-86136214D02*
X167788504Y-86231452D01*
X167788504Y-86231452D02*
X167836123Y-86279071D01*
X167836123Y-86279071D02*
X167931361Y-86326690D01*
X167931361Y-86326690D02*
X168121837Y-86326690D01*
X168121837Y-86326690D02*
X168217075Y-86374309D01*
X168217075Y-86374309D02*
X168264694Y-86421928D01*
X168264694Y-86421928D02*
X168312313Y-86517166D01*
X168312313Y-86517166D02*
X168312313Y-86707642D01*
X168312313Y-86707642D02*
X168264694Y-86802880D01*
X168264694Y-86802880D02*
X168217075Y-86850500D01*
X168217075Y-86850500D02*
X168121837Y-86898119D01*
X168121837Y-86898119D02*
X167931361Y-86898119D01*
X167931361Y-86898119D02*
X167836123Y-86850500D01*
X167836123Y-86850500D02*
X167788504Y-86802880D01*
X167788504Y-86802880D02*
X167740885Y-86707642D01*
X167740885Y-86707642D02*
X167740885Y-86517166D01*
X167740885Y-86517166D02*
X167788504Y-86421928D01*
X167788504Y-86421928D02*
X167836123Y-86374309D01*
X167836123Y-86374309D02*
X167931361Y-86326690D01*
X164612519Y-99013042D02*
X164136328Y-98679709D01*
X164612519Y-98441614D02*
X163612519Y-98441614D01*
X163612519Y-98441614D02*
X163612519Y-98822566D01*
X163612519Y-98822566D02*
X163660138Y-98917804D01*
X163660138Y-98917804D02*
X163707757Y-98965423D01*
X163707757Y-98965423D02*
X163802995Y-99013042D01*
X163802995Y-99013042D02*
X163945852Y-99013042D01*
X163945852Y-99013042D02*
X164041090Y-98965423D01*
X164041090Y-98965423D02*
X164088709Y-98917804D01*
X164088709Y-98917804D02*
X164136328Y-98822566D01*
X164136328Y-98822566D02*
X164136328Y-98441614D01*
X164612519Y-99965423D02*
X164612519Y-99393995D01*
X164612519Y-99679709D02*
X163612519Y-99679709D01*
X163612519Y-99679709D02*
X163755376Y-99584471D01*
X163755376Y-99584471D02*
X163850614Y-99489233D01*
X163850614Y-99489233D02*
X163898233Y-99393995D01*
X163612519Y-100822566D02*
X163612519Y-100632090D01*
X163612519Y-100632090D02*
X163660138Y-100536852D01*
X163660138Y-100536852D02*
X163707757Y-100489233D01*
X163707757Y-100489233D02*
X163850614Y-100393995D01*
X163850614Y-100393995D02*
X164041090Y-100346376D01*
X164041090Y-100346376D02*
X164422042Y-100346376D01*
X164422042Y-100346376D02*
X164517280Y-100393995D01*
X164517280Y-100393995D02*
X164564900Y-100441614D01*
X164564900Y-100441614D02*
X164612519Y-100536852D01*
X164612519Y-100536852D02*
X164612519Y-100727328D01*
X164612519Y-100727328D02*
X164564900Y-100822566D01*
X164564900Y-100822566D02*
X164517280Y-100870185D01*
X164517280Y-100870185D02*
X164422042Y-100917804D01*
X164422042Y-100917804D02*
X164183947Y-100917804D01*
X164183947Y-100917804D02*
X164088709Y-100870185D01*
X164088709Y-100870185D02*
X164041090Y-100822566D01*
X164041090Y-100822566D02*
X163993471Y-100727328D01*
X163993471Y-100727328D02*
X163993471Y-100536852D01*
X163993471Y-100536852D02*
X164041090Y-100441614D01*
X164041090Y-100441614D02*
X164088709Y-100393995D01*
X164088709Y-100393995D02*
X164183947Y-100346376D01*
X133009580Y-133674333D02*
X133057200Y-133626714D01*
X133057200Y-133626714D02*
X133104819Y-133483857D01*
X133104819Y-133483857D02*
X133104819Y-133388619D01*
X133104819Y-133388619D02*
X133057200Y-133245762D01*
X133057200Y-133245762D02*
X132961961Y-133150524D01*
X132961961Y-133150524D02*
X132866723Y-133102905D01*
X132866723Y-133102905D02*
X132676247Y-133055286D01*
X132676247Y-133055286D02*
X132533390Y-133055286D01*
X132533390Y-133055286D02*
X132342914Y-133102905D01*
X132342914Y-133102905D02*
X132247676Y-133150524D01*
X132247676Y-133150524D02*
X132152438Y-133245762D01*
X132152438Y-133245762D02*
X132104819Y-133388619D01*
X132104819Y-133388619D02*
X132104819Y-133483857D01*
X132104819Y-133483857D02*
X132152438Y-133626714D01*
X132152438Y-133626714D02*
X132200057Y-133674333D01*
X132104819Y-134007667D02*
X132104819Y-134626714D01*
X132104819Y-134626714D02*
X132485771Y-134293381D01*
X132485771Y-134293381D02*
X132485771Y-134436238D01*
X132485771Y-134436238D02*
X132533390Y-134531476D01*
X132533390Y-134531476D02*
X132581009Y-134579095D01*
X132581009Y-134579095D02*
X132676247Y-134626714D01*
X132676247Y-134626714D02*
X132914342Y-134626714D01*
X132914342Y-134626714D02*
X133009580Y-134579095D01*
X133009580Y-134579095D02*
X133057200Y-134531476D01*
X133057200Y-134531476D02*
X133104819Y-134436238D01*
X133104819Y-134436238D02*
X133104819Y-134150524D01*
X133104819Y-134150524D02*
X133057200Y-134055286D01*
X133057200Y-134055286D02*
X133009580Y-134007667D01*
X142907466Y-121350880D02*
X142955085Y-121398500D01*
X142955085Y-121398500D02*
X143097942Y-121446119D01*
X143097942Y-121446119D02*
X143193180Y-121446119D01*
X143193180Y-121446119D02*
X143336037Y-121398500D01*
X143336037Y-121398500D02*
X143431275Y-121303261D01*
X143431275Y-121303261D02*
X143478894Y-121208023D01*
X143478894Y-121208023D02*
X143526513Y-121017547D01*
X143526513Y-121017547D02*
X143526513Y-120874690D01*
X143526513Y-120874690D02*
X143478894Y-120684214D01*
X143478894Y-120684214D02*
X143431275Y-120588976D01*
X143431275Y-120588976D02*
X143336037Y-120493738D01*
X143336037Y-120493738D02*
X143193180Y-120446119D01*
X143193180Y-120446119D02*
X143097942Y-120446119D01*
X143097942Y-120446119D02*
X142955085Y-120493738D01*
X142955085Y-120493738D02*
X142907466Y-120541357D01*
X142526513Y-120541357D02*
X142478894Y-120493738D01*
X142478894Y-120493738D02*
X142383656Y-120446119D01*
X142383656Y-120446119D02*
X142145561Y-120446119D01*
X142145561Y-120446119D02*
X142050323Y-120493738D01*
X142050323Y-120493738D02*
X142002704Y-120541357D01*
X142002704Y-120541357D02*
X141955085Y-120636595D01*
X141955085Y-120636595D02*
X141955085Y-120731833D01*
X141955085Y-120731833D02*
X142002704Y-120874690D01*
X142002704Y-120874690D02*
X142574132Y-121446119D01*
X142574132Y-121446119D02*
X141955085Y-121446119D01*
X138911121Y-73947699D02*
X138911121Y-74757222D01*
X138911121Y-74757222D02*
X138863502Y-74852460D01*
X138863502Y-74852460D02*
X138815883Y-74900080D01*
X138815883Y-74900080D02*
X138720645Y-74947699D01*
X138720645Y-74947699D02*
X138530169Y-74947699D01*
X138530169Y-74947699D02*
X138434931Y-74900080D01*
X138434931Y-74900080D02*
X138387312Y-74852460D01*
X138387312Y-74852460D02*
X138339693Y-74757222D01*
X138339693Y-74757222D02*
X138339693Y-73947699D01*
X137434931Y-74281032D02*
X137434931Y-74947699D01*
X137673026Y-73900080D02*
X137911121Y-74614365D01*
X137911121Y-74614365D02*
X137292074Y-74614365D01*
X134440766Y-123730819D02*
X134774099Y-123254628D01*
X135012194Y-123730819D02*
X135012194Y-122730819D01*
X135012194Y-122730819D02*
X134631242Y-122730819D01*
X134631242Y-122730819D02*
X134536004Y-122778438D01*
X134536004Y-122778438D02*
X134488385Y-122826057D01*
X134488385Y-122826057D02*
X134440766Y-122921295D01*
X134440766Y-122921295D02*
X134440766Y-123064152D01*
X134440766Y-123064152D02*
X134488385Y-123159390D01*
X134488385Y-123159390D02*
X134536004Y-123207009D01*
X134536004Y-123207009D02*
X134631242Y-123254628D01*
X134631242Y-123254628D02*
X135012194Y-123254628D01*
X133488385Y-123730819D02*
X134059813Y-123730819D01*
X133774099Y-123730819D02*
X133774099Y-122730819D01*
X133774099Y-122730819D02*
X133869337Y-122873676D01*
X133869337Y-122873676D02*
X133964575Y-122968914D01*
X133964575Y-122968914D02*
X134059813Y-123016533D01*
X127627766Y-106636519D02*
X127961099Y-106160328D01*
X128199194Y-106636519D02*
X128199194Y-105636519D01*
X128199194Y-105636519D02*
X127818242Y-105636519D01*
X127818242Y-105636519D02*
X127723004Y-105684138D01*
X127723004Y-105684138D02*
X127675385Y-105731757D01*
X127675385Y-105731757D02*
X127627766Y-105826995D01*
X127627766Y-105826995D02*
X127627766Y-105969852D01*
X127627766Y-105969852D02*
X127675385Y-106065090D01*
X127675385Y-106065090D02*
X127723004Y-106112709D01*
X127723004Y-106112709D02*
X127818242Y-106160328D01*
X127818242Y-106160328D02*
X128199194Y-106160328D01*
X127294432Y-105636519D02*
X126627766Y-105636519D01*
X126627766Y-105636519D02*
X127056337Y-106636519D01*
X142213712Y-73355136D02*
X142261331Y-73402756D01*
X142261331Y-73402756D02*
X142404188Y-73450375D01*
X142404188Y-73450375D02*
X142499426Y-73450375D01*
X142499426Y-73450375D02*
X142642283Y-73402756D01*
X142642283Y-73402756D02*
X142737521Y-73307517D01*
X142737521Y-73307517D02*
X142785140Y-73212279D01*
X142785140Y-73212279D02*
X142832759Y-73021803D01*
X142832759Y-73021803D02*
X142832759Y-72878946D01*
X142832759Y-72878946D02*
X142785140Y-72688470D01*
X142785140Y-72688470D02*
X142737521Y-72593232D01*
X142737521Y-72593232D02*
X142642283Y-72497994D01*
X142642283Y-72497994D02*
X142499426Y-72450375D01*
X142499426Y-72450375D02*
X142404188Y-72450375D01*
X142404188Y-72450375D02*
X142261331Y-72497994D01*
X142261331Y-72497994D02*
X142213712Y-72545613D01*
X141356569Y-72783708D02*
X141356569Y-73450375D01*
X141594664Y-72402756D02*
X141832759Y-73117041D01*
X141832759Y-73117041D02*
X141213712Y-73117041D01*
X137276924Y-71299598D02*
X136800733Y-70966265D01*
X137276924Y-70728170D02*
X136276924Y-70728170D01*
X136276924Y-70728170D02*
X136276924Y-71109122D01*
X136276924Y-71109122D02*
X136324543Y-71204360D01*
X136324543Y-71204360D02*
X136372162Y-71251979D01*
X136372162Y-71251979D02*
X136467400Y-71299598D01*
X136467400Y-71299598D02*
X136610257Y-71299598D01*
X136610257Y-71299598D02*
X136705495Y-71251979D01*
X136705495Y-71251979D02*
X136753114Y-71204360D01*
X136753114Y-71204360D02*
X136800733Y-71109122D01*
X136800733Y-71109122D02*
X136800733Y-70728170D01*
X136276924Y-72204360D02*
X136276924Y-71728170D01*
X136276924Y-71728170D02*
X136753114Y-71680551D01*
X136753114Y-71680551D02*
X136705495Y-71728170D01*
X136705495Y-71728170D02*
X136657876Y-71823408D01*
X136657876Y-71823408D02*
X136657876Y-72061503D01*
X136657876Y-72061503D02*
X136705495Y-72156741D01*
X136705495Y-72156741D02*
X136753114Y-72204360D01*
X136753114Y-72204360D02*
X136848352Y-72251979D01*
X136848352Y-72251979D02*
X137086447Y-72251979D01*
X137086447Y-72251979D02*
X137181685Y-72204360D01*
X137181685Y-72204360D02*
X137229305Y-72156741D01*
X137229305Y-72156741D02*
X137276924Y-72061503D01*
X137276924Y-72061503D02*
X137276924Y-71823408D01*
X137276924Y-71823408D02*
X137229305Y-71728170D01*
X137229305Y-71728170D02*
X137181685Y-71680551D01*
X148758419Y-115229533D02*
X148282228Y-114896200D01*
X148758419Y-114658105D02*
X147758419Y-114658105D01*
X147758419Y-114658105D02*
X147758419Y-115039057D01*
X147758419Y-115039057D02*
X147806038Y-115134295D01*
X147806038Y-115134295D02*
X147853657Y-115181914D01*
X147853657Y-115181914D02*
X147948895Y-115229533D01*
X147948895Y-115229533D02*
X148091752Y-115229533D01*
X148091752Y-115229533D02*
X148186990Y-115181914D01*
X148186990Y-115181914D02*
X148234609Y-115134295D01*
X148234609Y-115134295D02*
X148282228Y-115039057D01*
X148282228Y-115039057D02*
X148282228Y-114658105D01*
X147758419Y-115562867D02*
X147758419Y-116181914D01*
X147758419Y-116181914D02*
X148139371Y-115848581D01*
X148139371Y-115848581D02*
X148139371Y-115991438D01*
X148139371Y-115991438D02*
X148186990Y-116086676D01*
X148186990Y-116086676D02*
X148234609Y-116134295D01*
X148234609Y-116134295D02*
X148329847Y-116181914D01*
X148329847Y-116181914D02*
X148567942Y-116181914D01*
X148567942Y-116181914D02*
X148663180Y-116134295D01*
X148663180Y-116134295D02*
X148710800Y-116086676D01*
X148710800Y-116086676D02*
X148758419Y-115991438D01*
X148758419Y-115991438D02*
X148758419Y-115705724D01*
X148758419Y-115705724D02*
X148710800Y-115610486D01*
X148710800Y-115610486D02*
X148663180Y-115562867D01*
X126957019Y-93784433D02*
X126480828Y-93451100D01*
X126957019Y-93213005D02*
X125957019Y-93213005D01*
X125957019Y-93213005D02*
X125957019Y-93593957D01*
X125957019Y-93593957D02*
X126004638Y-93689195D01*
X126004638Y-93689195D02*
X126052257Y-93736814D01*
X126052257Y-93736814D02*
X126147495Y-93784433D01*
X126147495Y-93784433D02*
X126290352Y-93784433D01*
X126290352Y-93784433D02*
X126385590Y-93736814D01*
X126385590Y-93736814D02*
X126433209Y-93689195D01*
X126433209Y-93689195D02*
X126480828Y-93593957D01*
X126480828Y-93593957D02*
X126480828Y-93213005D01*
X126052257Y-94165386D02*
X126004638Y-94213005D01*
X126004638Y-94213005D02*
X125957019Y-94308243D01*
X125957019Y-94308243D02*
X125957019Y-94546338D01*
X125957019Y-94546338D02*
X126004638Y-94641576D01*
X126004638Y-94641576D02*
X126052257Y-94689195D01*
X126052257Y-94689195D02*
X126147495Y-94736814D01*
X126147495Y-94736814D02*
X126242733Y-94736814D01*
X126242733Y-94736814D02*
X126385590Y-94689195D01*
X126385590Y-94689195D02*
X126957019Y-94117767D01*
X126957019Y-94117767D02*
X126957019Y-94736814D01*
X146108780Y-70808933D02*
X146156400Y-70761314D01*
X146156400Y-70761314D02*
X146204019Y-70618457D01*
X146204019Y-70618457D02*
X146204019Y-70523219D01*
X146204019Y-70523219D02*
X146156400Y-70380362D01*
X146156400Y-70380362D02*
X146061161Y-70285124D01*
X146061161Y-70285124D02*
X145965923Y-70237505D01*
X145965923Y-70237505D02*
X145775447Y-70189886D01*
X145775447Y-70189886D02*
X145632590Y-70189886D01*
X145632590Y-70189886D02*
X145442114Y-70237505D01*
X145442114Y-70237505D02*
X145346876Y-70285124D01*
X145346876Y-70285124D02*
X145251638Y-70380362D01*
X145251638Y-70380362D02*
X145204019Y-70523219D01*
X145204019Y-70523219D02*
X145204019Y-70618457D01*
X145204019Y-70618457D02*
X145251638Y-70761314D01*
X145251638Y-70761314D02*
X145299257Y-70808933D01*
X145204019Y-71713695D02*
X145204019Y-71237505D01*
X145204019Y-71237505D02*
X145680209Y-71189886D01*
X145680209Y-71189886D02*
X145632590Y-71237505D01*
X145632590Y-71237505D02*
X145584971Y-71332743D01*
X145584971Y-71332743D02*
X145584971Y-71570838D01*
X145584971Y-71570838D02*
X145632590Y-71666076D01*
X145632590Y-71666076D02*
X145680209Y-71713695D01*
X145680209Y-71713695D02*
X145775447Y-71761314D01*
X145775447Y-71761314D02*
X146013542Y-71761314D01*
X146013542Y-71761314D02*
X146108780Y-71713695D01*
X146108780Y-71713695D02*
X146156400Y-71666076D01*
X146156400Y-71666076D02*
X146204019Y-71570838D01*
X146204019Y-71570838D02*
X146204019Y-71332743D01*
X146204019Y-71332743D02*
X146156400Y-71237505D01*
X146156400Y-71237505D02*
X146108780Y-71189886D01*
D11*
X152632381Y-69241400D02*
X152632381Y-67971400D01*
X152632381Y-67971400D02*
X152330000Y-67971400D01*
X152330000Y-67971400D02*
X152148571Y-68031876D01*
X152148571Y-68031876D02*
X152027619Y-68152828D01*
X152027619Y-68152828D02*
X151967142Y-68273781D01*
X151967142Y-68273781D02*
X151906666Y-68515685D01*
X151906666Y-68515685D02*
X151906666Y-68697114D01*
X151906666Y-68697114D02*
X151967142Y-68939019D01*
X151967142Y-68939019D02*
X152027619Y-69059971D01*
X152027619Y-69059971D02*
X152148571Y-69180924D01*
X152148571Y-69180924D02*
X152330000Y-69241400D01*
X152330000Y-69241400D02*
X152632381Y-69241400D01*
X150697142Y-69241400D02*
X151422857Y-69241400D01*
X151060000Y-69241400D02*
X151060000Y-67971400D01*
X151060000Y-67971400D02*
X151180952Y-68152828D01*
X151180952Y-68152828D02*
X151301904Y-68273781D01*
X151301904Y-68273781D02*
X151422857Y-68334257D01*
D12*
%TO.C,C12*%
X166507864Y-94227400D02*
X165053736Y-94227400D01*
X166507864Y-92407400D02*
X165053736Y-92407400D01*
%TO.C,C10*%
X149826600Y-89268136D02*
X149826600Y-90722264D01*
X148006600Y-89268136D02*
X148006600Y-90722264D01*
%TO.C,C8*%
X149567164Y-97542100D02*
X148113036Y-97542100D01*
X149567164Y-95722100D02*
X148113036Y-95722100D01*
%TO.C,R11*%
X158186464Y-109714300D02*
X156732336Y-109714300D01*
X158186464Y-107894300D02*
X156732336Y-107894300D01*
%TO.C,R9*%
X162765036Y-87363600D02*
X164219164Y-87363600D01*
X162765036Y-89183600D02*
X164219164Y-89183600D01*
D13*
%TO.C,IC4*%
X158367000Y-104729900D02*
X155167000Y-104729900D01*
X155167000Y-104729900D02*
X155167000Y-99829900D01*
X158367000Y-99829900D02*
X158367000Y-104729900D01*
X155167000Y-99829900D02*
X158367000Y-99829900D01*
X158717000Y-99699900D02*
X160217000Y-99699900D01*
D12*
%TO.C,R8*%
X167799536Y-87353300D02*
X169253664Y-87353300D01*
X167799536Y-89173300D02*
X169253664Y-89173300D01*
%TO.C,R16*%
X165067700Y-100382964D02*
X165067700Y-98928836D01*
X166887700Y-100382964D02*
X166887700Y-98928836D01*
%TO.C,C3*%
X133590000Y-134552252D02*
X133590000Y-133129748D01*
X135410000Y-134552252D02*
X135410000Y-133129748D01*
%TO.C,C2*%
X142029548Y-123751300D02*
X143452052Y-123751300D01*
X142029548Y-121931300D02*
X143452052Y-121931300D01*
%TO.C,U4*%
X139158200Y-74617700D02*
X143018200Y-74617700D01*
X139158200Y-74862700D02*
X139158200Y-74617700D01*
X139158200Y-86142700D02*
X139158200Y-86387700D01*
X139158200Y-86387700D02*
X143018200Y-86387700D01*
X146878200Y-74617700D02*
X143018200Y-74617700D01*
X146878200Y-74862700D02*
X146878200Y-74617700D01*
X146878200Y-86142700D02*
X146878200Y-86387700D01*
X146878200Y-86387700D02*
X143018200Y-86387700D01*
X147730700Y-74862700D02*
X147390700Y-74392700D01*
X148070700Y-74392700D01*
X147730700Y-74862700D01*
G36*
X147730700Y-74862700D02*
G01*
X147390700Y-74392700D01*
X148070700Y-74392700D01*
X147730700Y-74862700D01*
G37*
%TO.C,R1*%
X133547036Y-124186000D02*
X135001164Y-124186000D01*
X133547036Y-126006000D02*
X135001164Y-126006000D01*
%TO.C,R7*%
X126734036Y-107091700D02*
X128188164Y-107091700D01*
X126734036Y-108911700D02*
X128188164Y-108911700D01*
%TO.C,C4*%
X142942200Y-71760752D02*
X142942200Y-70338248D01*
X144762200Y-71760752D02*
X144762200Y-70338248D01*
%TO.C,R5*%
X137548500Y-70711436D02*
X137548500Y-72165564D01*
X139368500Y-70711436D02*
X139368500Y-72165564D01*
%TO.C,R3*%
X151033600Y-116123264D02*
X151033600Y-114669136D01*
X149213600Y-116123264D02*
X149213600Y-114669136D01*
%TO.C,R2*%
X127412200Y-94678164D02*
X127412200Y-93224036D01*
X129232200Y-94678164D02*
X129232200Y-93224036D01*
%TO.C,C5*%
X146689200Y-71686852D02*
X146689200Y-70264348D01*
X148509200Y-71686852D02*
X148509200Y-70264348D01*
D13*
%TO.C,D1*%
X151534000Y-69778100D02*
X151734000Y-69778100D01*
X151534000Y-71778100D02*
X151534000Y-69778100D01*
X151734000Y-69778100D02*
X151734000Y-71778100D01*
X151734000Y-71778100D02*
X151534000Y-71778100D01*
X152084000Y-69603100D02*
X153084000Y-69603100D01*
%TD*%
%LPC*%
D14*
%TO.C,C12*%
X164230800Y-93317400D03*
X167330800Y-93317400D03*
%TD*%
D15*
%TO.C,J9*%
X155246300Y-79618100D03*
D16*
X155246300Y-77078100D03*
X155246300Y-74538100D03*
X155246300Y-71998100D03*
X155246300Y-69458100D03*
%TD*%
D17*
%TO.C,C10*%
X148916600Y-91545200D03*
X148916600Y-88445200D03*
%TD*%
D14*
%TO.C,C8*%
X147290100Y-96632100D03*
X150390100Y-96632100D03*
%TD*%
D18*
%TO.C,C9*%
X150843200Y-104556400D03*
D19*
X150843200Y-99556400D03*
%TD*%
D20*
%TO.C,C13*%
X154122300Y-108777100D03*
D21*
X154122300Y-107277100D03*
%TD*%
D18*
%TO.C,R4*%
X141165400Y-68921400D03*
D22*
X141165400Y-71461400D03*
%TD*%
D18*
%TO.C,L1*%
X141253000Y-90023800D03*
D22*
X141253000Y-100183800D03*
%TD*%
D14*
%TO.C,R11*%
X155909400Y-108804300D03*
X159009400Y-108804300D03*
%TD*%
D18*
%TO.C,NTC1*%
X132332700Y-102297100D03*
D22*
X134872700Y-102297100D03*
%TD*%
D23*
%TO.C,R9*%
X165042100Y-88273600D03*
X161942100Y-88273600D03*
%TD*%
D24*
%TO.C,IC1*%
X144571900Y-88691700D03*
D25*
X144571900Y-91231700D03*
X144571900Y-93771700D03*
X144571900Y-96311700D03*
X152191900Y-96311700D03*
X152191900Y-93771700D03*
X152191900Y-91231700D03*
X152191900Y-88691700D03*
%TD*%
D18*
%TO.C,R6*%
X134731500Y-72933100D03*
D22*
X132191500Y-72933100D03*
%TD*%
D26*
%TO.C,Powerboard1*%
X128349100Y-103565100D03*
D27*
X128349100Y-101025100D03*
X128349100Y-98485100D03*
%TD*%
D26*
%TO.C,J4*%
X134544600Y-69362300D03*
D27*
X132004600Y-69362300D03*
%TD*%
D28*
%TO.C,U2*%
X122551000Y-84380500D03*
X122551000Y-80980500D03*
X132471000Y-84380500D03*
X132471000Y-80980500D03*
%TD*%
D29*
%TO.C,Q1*%
X133881200Y-95296400D03*
D30*
X133881200Y-92756400D03*
X133881200Y-90216400D03*
%TD*%
D31*
%TO.C,IC4*%
X154067000Y-100374900D03*
X154067000Y-101644900D03*
X154067000Y-102914900D03*
X154067000Y-104184900D03*
X159467000Y-104184900D03*
X159467000Y-102914900D03*
X159467000Y-101644900D03*
X159467000Y-100374900D03*
%TD*%
D32*
%TO.C,RV1*%
X161784400Y-84400700D03*
X164324400Y-84400700D03*
X166864400Y-84400700D03*
%TD*%
D19*
%TO.C,C11*%
X142908700Y-103082900D03*
D18*
X142908700Y-108082900D03*
%TD*%
D26*
%TO.C,J2*%
X154230000Y-133648600D03*
D27*
X151690000Y-133648600D03*
X149150000Y-133648600D03*
X146610000Y-133648600D03*
X144070000Y-133648600D03*
X141530000Y-133648600D03*
%TD*%
D33*
%TO.C,IC2*%
X162007700Y-90765900D03*
D34*
X162007700Y-93305900D03*
X162007700Y-95845900D03*
X162007700Y-98385900D03*
X169947700Y-98385900D03*
X169947700Y-95845900D03*
X169947700Y-93305900D03*
X169947700Y-90765900D03*
%TD*%
D23*
%TO.C,R8*%
X170076600Y-88263300D03*
X166976600Y-88263300D03*
%TD*%
D35*
%TO.C,Y2*%
X150037500Y-84434600D03*
X154917500Y-84434600D03*
%TD*%
D36*
%TO.C,Reset1*%
X137890100Y-136171500D03*
D35*
X131390100Y-136171500D03*
X137890100Y-131671500D03*
X131390100Y-131671500D03*
%TD*%
%TO.C,Y1*%
X148909000Y-123284400D03*
X153789000Y-123284400D03*
%TD*%
D37*
%TO.C,R16*%
X165977700Y-98105900D03*
X165977700Y-101205900D03*
%TD*%
D38*
%TO.C,D2*%
X137580900Y-88313900D03*
D39*
X137580900Y-102413900D03*
%TD*%
D19*
%TO.C,U1*%
X132296200Y-119209800D03*
D22*
X134836200Y-119209800D03*
X137376200Y-119209800D03*
X139916200Y-119209800D03*
X142456200Y-119209800D03*
X144996200Y-119209800D03*
X147536200Y-119209800D03*
X150076200Y-119209800D03*
X152616200Y-119209800D03*
X155156200Y-119209800D03*
X157696200Y-119209800D03*
X160236200Y-119209800D03*
X162776200Y-119209800D03*
X165316200Y-119209800D03*
X165316200Y-111589800D03*
X162776200Y-111589800D03*
X160236200Y-111589800D03*
X157696200Y-111589800D03*
X155156200Y-111589800D03*
X152616200Y-111589800D03*
X150076200Y-111589800D03*
X147536200Y-111589800D03*
X144996200Y-111589800D03*
X142456200Y-111589800D03*
X139916200Y-111589800D03*
X137376200Y-111589800D03*
X134836200Y-111589800D03*
X132296200Y-111589800D03*
%TD*%
D40*
%TO.C,C3*%
X134500000Y-132278500D03*
X134500000Y-135403500D03*
%TD*%
D41*
%TO.C,C2*%
X144303300Y-122841300D03*
X141178300Y-122841300D03*
%TD*%
D42*
%TO.C,U4*%
X147668200Y-75422700D03*
X147668200Y-76692700D03*
X147668200Y-77962700D03*
X147668200Y-79232700D03*
X147668200Y-80502700D03*
X147668200Y-81772700D03*
X147668200Y-83042700D03*
X147668200Y-84312700D03*
X147668200Y-85582700D03*
X138368200Y-85582700D03*
X138368200Y-84312700D03*
X138368200Y-83042700D03*
X138368200Y-81772700D03*
X138368200Y-80502700D03*
X138368200Y-79232700D03*
X138368200Y-77962700D03*
X138368200Y-76692700D03*
X138368200Y-75422700D03*
%TD*%
D23*
%TO.C,R1*%
X135824100Y-125096000D03*
X132724100Y-125096000D03*
%TD*%
%TO.C,R7*%
X129011100Y-108001700D03*
X125911100Y-108001700D03*
%TD*%
D40*
%TO.C,C4*%
X143852200Y-69487000D03*
X143852200Y-72612000D03*
%TD*%
D17*
%TO.C,R5*%
X138458500Y-72988500D03*
X138458500Y-69888500D03*
%TD*%
D37*
%TO.C,R3*%
X150123600Y-113846200D03*
X150123600Y-116946200D03*
%TD*%
%TO.C,R2*%
X128322200Y-92401100D03*
X128322200Y-95501100D03*
%TD*%
D40*
%TO.C,C5*%
X147599200Y-69413100D03*
X147599200Y-72538100D03*
%TD*%
D43*
%TO.C,D1*%
X152584000Y-70128100D03*
X152584000Y-71428100D03*
X150684000Y-70778100D03*
%TD*%
%LPD*%
M02*
