M48
INCH
T1C0.0118
T2C0.0236
T3C0.0287
T4C0.0299
T5C0.0315
T6C0.0394
T7C0.0413
T8C0.0433
T9C0.0504
T10C0.0630
%
G90
G05
T1
X4.8869Y-3.687
X5.2099Y-4.2198
X5.3016Y-4.9234
X5.4468Y-3.0194
X5.4518Y-2.8759
X5.5315Y-3.1204
X5.5565Y-4.8387
X5.5839Y-2.9183
X5.6609Y-3.3599
X5.667Y-2.7917
X5.6692Y-3.9417
X5.7261Y-2.7983
X5.7351Y-3.2639
X5.7384Y-3.2176
X5.7394Y-2.964
X5.7528Y-2.895
X5.942Y-4.3321
X5.9744Y-4.4635
X6.0079Y-2.812
X6.0228Y-4.13
X6.1622Y-4.0114
X6.1859Y-3.949
X6.2285Y-4.0723
X6.2368Y-4.2052
X6.4116Y-3.9843
X6.4343Y-3.4809
X6.4818Y-3.5353
X6.5344Y-3.9856
T2
X6.0678Y-4.2235
X6.0678Y-4.2826
T3
X6.3783Y-3.5735
X6.3783Y-3.6735
X6.3783Y-3.7735
X6.3783Y-3.8735
X6.6909Y-3.5735
X6.6909Y-3.6735
X6.6909Y-3.7735
X6.6909Y-3.8735
T4
X5.6918Y-3.4918
X5.6918Y-3.5918
X5.6918Y-3.6918
X5.6918Y-3.7918
X5.9918Y-3.4918
X5.9918Y-3.5918
X5.9918Y-3.6918
X5.9918Y-3.7918
T5
X5.2044Y-2.8714
X5.2085Y-4.3933
X5.2085Y-4.6933
X5.2099Y-4.0274
X5.3044Y-2.8714
X5.3085Y-4.3933
X5.3085Y-4.6933
X5.3099Y-4.0274
X5.4085Y-4.3933
X5.4085Y-4.6933
X5.5085Y-4.3933
X5.5085Y-4.6933
X5.5577Y-2.7134
X5.5577Y-2.8134
X5.5611Y-3.5442
X5.5611Y-3.9442
X5.6085Y-4.3933
X5.6085Y-4.6933
X5.6263Y-4.0584
X5.6263Y-4.2552
X5.7085Y-4.3933
X5.7085Y-4.6933
X5.8085Y-4.3933
X5.8085Y-4.6933
X5.8626Y-4.8537
X5.907Y-3.3242
X5.9085Y-4.3933
X5.9085Y-4.6933
X5.9387Y-3.9195
X5.9387Y-4.1164
X6.0085Y-4.3933
X6.0085Y-4.6933
X6.0547Y-4.8537
X6.0991Y-3.3242
X6.1085Y-4.3933
X6.1085Y-4.6933
X6.2085Y-4.3933
X6.2085Y-4.6933
X6.3085Y-4.3933
X6.3085Y-4.6933
X6.3695Y-3.3229
X6.4085Y-4.3933
X6.4085Y-4.6933
X6.4695Y-3.3229
X6.5085Y-4.3933
X6.5085Y-4.6933
X6.5695Y-3.3229
T6
X5.0531Y-3.8774
X5.0531Y-3.9774
X5.0531Y-4.0774
X5.1728Y-5.1839
X5.1728Y-5.3611
X5.197Y-2.7308
X5.297Y-2.7308
X5.4287Y-5.1839
X5.4287Y-5.3611
X5.572Y-5.2618
X5.672Y-5.2618
X5.772Y-5.2618
X5.872Y-5.2618
X5.972Y-5.2618
X6.072Y-5.2618
T7
X5.4166Y-3.4769
X5.4166Y-4.032
T8
X6.1121Y-2.7346
X6.1121Y-2.8346
X6.1121Y-2.9346
X6.1121Y-3.0346
X6.1121Y-3.1346
T9
X5.2709Y-3.5518
X5.2709Y-3.6518
X5.2709Y-3.7518
T10
X4.8248Y-3.1882
X4.8248Y-3.3221
X5.2154Y-3.1882
X5.2154Y-3.3221
M30
