%TF.GenerationSoftware,KiCad,Pcbnew,8.0.1-rc1*%
%TF.CreationDate,2024-06-23T11:02:47-07:00*%
%TF.ProjectId,AMS - CANBus Sensor - RPM,414d5320-2d20-4434-914e-427573205365,rev?*%
%TF.SameCoordinates,Original*%
%TF.FileFunction,Copper,L1,Top*%
%TF.FilePolarity,Positive*%
%FSLAX46Y46*%
G04 Gerber Fmt 4.6, Leading zero omitted, Abs format (unit mm)*
G04 Created by KiCad (PCBNEW 8.0.1-rc1) date 2024-06-23 11:02:47*
%MOMM*%
%LPD*%
G01*
G04 APERTURE LIST*
G04 Aperture macros list*
%AMRoundRect*
0 Rectangle with rounded corners*
0 $1 Rounding radius*
0 $2 $3 $4 $5 $6 $7 $8 $9 X,Y pos of 4 corners*
0 Add a 4 corners polygon primitive as box body*
4,1,4,$2,$3,$4,$5,$6,$7,$8,$9,$2,$3,0*
0 Add four circle primitives for the rounded corners*
1,1,$1+$1,$2,$3*
1,1,$1+$1,$4,$5*
1,1,$1+$1,$6,$7*
1,1,$1+$1,$8,$9*
0 Add four rect primitives between the rounded corners*
20,1,$1+$1,$2,$3,$4,$5,0*
20,1,$1+$1,$4,$5,$6,$7,0*
20,1,$1+$1,$6,$7,$8,$9,0*
20,1,$1+$1,$8,$9,$2,$3,0*%
G04 Aperture macros list end*
%TA.AperFunction,ComponentPad*%
%ADD10R,2.200000X2.200000*%
%TD*%
%TA.AperFunction,ComponentPad*%
%ADD11C,2.200000*%
%TD*%
%TA.AperFunction,SMDPad,CuDef*%
%ADD12R,2.510000X1.000000*%
%TD*%
%TA.AperFunction,ComponentPad*%
%ADD13C,1.600000*%
%TD*%
%TA.AperFunction,ComponentPad*%
%ADD14R,1.600000X1.600000*%
%TD*%
%TA.AperFunction,ComponentPad*%
%ADD15R,1.200000X1.200000*%
%TD*%
%TA.AperFunction,ComponentPad*%
%ADD16C,1.200000*%
%TD*%
%TA.AperFunction,SMDPad,CuDef*%
%ADD17RoundRect,0.250000X-0.400000X-0.625000X0.400000X-0.625000X0.400000X0.625000X-0.400000X0.625000X0*%
%TD*%
%TA.AperFunction,ComponentPad*%
%ADD18O,1.600000X1.600000*%
%TD*%
%TA.AperFunction,SMDPad,CuDef*%
%ADD19R,3.150000X1.000000*%
%TD*%
%TA.AperFunction,SMDPad,CuDef*%
%ADD20RoundRect,0.250000X0.412500X0.650000X-0.412500X0.650000X-0.412500X-0.650000X0.412500X-0.650000X0*%
%TD*%
%TA.AperFunction,ComponentPad*%
%ADD21R,1.160000X1.160000*%
%TD*%
%TA.AperFunction,ComponentPad*%
%ADD22C,1.160000*%
%TD*%
%TA.AperFunction,ComponentPad*%
%ADD23R,1.700000X1.700000*%
%TD*%
%TA.AperFunction,ComponentPad*%
%ADD24O,1.700000X1.700000*%
%TD*%
%TA.AperFunction,ComponentPad*%
%ADD25C,2.400000*%
%TD*%
%TA.AperFunction,ComponentPad*%
%ADD26R,1.920000X1.920000*%
%TD*%
%TA.AperFunction,ComponentPad*%
%ADD27C,1.920000*%
%TD*%
%TA.AperFunction,ComponentPad*%
%ADD28C,1.440000*%
%TD*%
%TA.AperFunction,ComponentPad*%
%ADD29R,1.130000X1.130000*%
%TD*%
%TA.AperFunction,ComponentPad*%
%ADD30C,1.130000*%
%TD*%
%TA.AperFunction,SMDPad,CuDef*%
%ADD31RoundRect,0.250000X-0.625000X0.400000X-0.625000X-0.400000X0.625000X-0.400000X0.625000X0.400000X0*%
%TD*%
%TA.AperFunction,ComponentPad*%
%ADD32C,1.500000*%
%TD*%
%TA.AperFunction,ComponentPad*%
%ADD33R,1.500000X1.500000*%
%TD*%
%TA.AperFunction,ComponentPad*%
%ADD34R,1.575000X1.575000*%
%TD*%
%TA.AperFunction,ComponentPad*%
%ADD35C,1.575000*%
%TD*%
%TA.AperFunction,SMDPad,CuDef*%
%ADD36RoundRect,0.150000X-0.825000X-0.150000X0.825000X-0.150000X0.825000X0.150000X-0.825000X0.150000X0*%
%TD*%
%TA.AperFunction,SMDPad,CuDef*%
%ADD37RoundRect,0.250000X-0.412500X-0.650000X0.412500X-0.650000X0.412500X0.650000X-0.412500X0.650000X0*%
%TD*%
%TA.AperFunction,ViaPad*%
%ADD38C,0.600000*%
%TD*%
%TA.AperFunction,Conductor*%
%ADD39C,0.200000*%
%TD*%
%TA.AperFunction,Conductor*%
%ADD40C,0.381000*%
%TD*%
%TA.AperFunction,Conductor*%
%ADD41C,0.762000*%
%TD*%
%TA.AperFunction,Conductor*%
%ADD42C,0.508000*%
%TD*%
%TA.AperFunction,Conductor*%
%ADD43C,0.635000*%
%TD*%
G04 APERTURE END LIST*
D10*
%TO.P,J9,1,Pin_1*%
%TO.N,TachIn*%
X155246300Y-79618100D03*
D11*
%TO.P,J9,2,Pin_2*%
%TO.N,Net-(J9-Pin_2)*%
X155246300Y-77078100D03*
%TO.P,J9,3,Pin_3*%
%TO.N,GND*%
X155246300Y-74538100D03*
%TO.P,J9,4,Pin_4*%
%TO.N,CANBUS_L*%
X155246300Y-71998100D03*
%TO.P,J9,5,Pin_5*%
%TO.N,CANBUS_H*%
X155246300Y-69458100D03*
%TD*%
D12*
%TO.P,J6,1,Pin_1*%
%TO.N,Net-(J6-Pin_1)*%
X155312900Y-90634200D03*
%TO.P,J6,2,Pin_2*%
%TO.N,Net-(IC2-TACH+)*%
X158622900Y-93174200D03*
%TD*%
%TO.P,J3,1,Pin_1*%
%TO.N,+VDC*%
X138479600Y-82842000D03*
%TO.P,J3,2,Pin_2*%
%TO.N,Net-(IC1-V+_1)*%
X141789600Y-85382000D03*
%TD*%
D13*
%TO.P,C9,2*%
%TO.N,GND*%
X150843200Y-104556400D03*
D14*
%TO.P,C9,1*%
%TO.N,Net-(IC1-V+_1)*%
X150843200Y-99556400D03*
%TD*%
D15*
%TO.P,C13,1*%
%TO.N,Net-(IC2-CP2{slash}IN+)*%
X154122300Y-108777100D03*
D16*
%TO.P,C13,2*%
%TO.N,GND*%
X154122300Y-107277100D03*
%TD*%
D17*
%TO.P,R13,1*%
%TO.N,Net-(IC4-+IN_A)*%
X119658000Y-93650100D03*
%TO.P,R13,2*%
%TO.N,GND*%
X122758000Y-93650100D03*
%TD*%
D13*
%TO.P,R4,1*%
%TO.N,Net-(U3-Rs)*%
X141165400Y-68921400D03*
D18*
%TO.P,R4,2*%
%TO.N,GND*%
X141165400Y-71461400D03*
%TD*%
D13*
%TO.P,L1,1,1*%
%TO.N,Net-(IC1-LX)*%
X141253000Y-90023800D03*
D18*
%TO.P,L1,2,2*%
%TO.N,GND*%
X141253000Y-100183800D03*
%TD*%
D19*
%TO.P,J1,1,Pin_1*%
%TO.N,/BareMinAtmel328P/PB4-D12-MISO*%
X131749100Y-122556000D03*
%TO.P,J1,2,Pin_2*%
%TO.N,/BareMinAtmel328P/PB5-D13-SCK*%
X136799100Y-122556000D03*
%TO.P,J1,3,Pin_3*%
%TO.N,/BareMinAtmel328P/RESET*%
X131749100Y-125096000D03*
%TO.P,J1,4,Pin_4*%
%TO.N,+5V*%
X136799100Y-125096000D03*
%TO.P,J1,5,Pin_5*%
%TO.N,/BareMinAtmel328P/PB3-D11-MOSI*%
X131749100Y-127636000D03*
%TO.P,J1,6,Pin_6*%
%TO.N,GND*%
X136799100Y-127636000D03*
%TD*%
D13*
%TO.P,NTC1,1*%
%TO.N,/BareMinAtmel328P/PC0-A0*%
X132332700Y-102297100D03*
D18*
%TO.P,NTC1,2*%
%TO.N,+5V*%
X134872700Y-102297100D03*
%TD*%
D20*
%TO.P,C1,1*%
%TO.N,Net-(U1-XTAL2{slash}PB7)*%
X144305600Y-122847300D03*
%TO.P,C1,2*%
%TO.N,GND*%
X141180600Y-122847300D03*
%TD*%
D17*
%TO.P,R14,1*%
%TO.N,/BareMinAtmel328P/PC1-A1*%
X162855200Y-101202000D03*
%TO.P,R14,2*%
%TO.N,GND*%
X165955200Y-101202000D03*
%TD*%
D21*
%TO.P,IC1,1,OUT*%
%TO.N,Net-(IC1-OUT)*%
X144571900Y-88691700D03*
D22*
%TO.P,IC1,2,FB*%
%TO.N,Net-(IC1-FB)*%
X144571900Y-91231700D03*
%TO.P,IC1,3,SHDN*%
%TO.N,GND*%
X144571900Y-93771700D03*
%TO.P,IC1,4,REF*%
%TO.N,Net-(IC1-FB)*%
X144571900Y-96311700D03*
%TO.P,IC1,5,GND*%
%TO.N,GND*%
X152191900Y-96311700D03*
%TO.P,IC1,6,V+_1*%
%TO.N,Net-(IC1-V+_1)*%
X152191900Y-93771700D03*
%TO.P,IC1,7,V+_2*%
X152191900Y-91231700D03*
%TO.P,IC1,8,LX*%
%TO.N,Net-(IC1-LX)*%
X152191900Y-88691700D03*
%TD*%
D13*
%TO.P,R6,1*%
%TO.N,Net-(J4-Pin_2)*%
X134731500Y-72933100D03*
D18*
%TO.P,R6,2*%
%TO.N,CANBUS_L*%
X132191500Y-72933100D03*
%TD*%
D23*
%TO.P,Powerboard1,1,Pin_1*%
%TO.N,+VDC*%
X128349100Y-103565100D03*
D24*
%TO.P,Powerboard1,2,Pin_2*%
%TO.N,+5V*%
X128349100Y-101025100D03*
%TO.P,Powerboard1,3,Pin_3*%
%TO.N,GND*%
X128349100Y-98485100D03*
%TD*%
D23*
%TO.P,J4,1,Pin_1*%
%TO.N,CANBUS_H*%
X134544600Y-69362300D03*
D24*
%TO.P,J4,2,Pin_2*%
%TO.N,Net-(J4-Pin_2)*%
X132004600Y-69362300D03*
%TD*%
D25*
%TO.P,U2,1,1*%
%TO.N,Net-(Q1-Pad3)*%
X122551000Y-84380500D03*
%TO.P,U2,2,2*%
X122551000Y-80980500D03*
%TO.P,U2,3,3*%
%TO.N,+VDC*%
X132471000Y-84380500D03*
%TO.P,U2,4,4*%
X132471000Y-80980500D03*
%TD*%
D26*
%TO.P,Q1,1*%
%TO.N,Net-(Q1-Pad1)*%
X133881200Y-95296400D03*
D27*
%TO.P,Q1,2*%
%TO.N,Net-(J9-Pin_2)*%
X133881200Y-92756400D03*
%TO.P,Q1,3*%
%TO.N,Net-(Q1-Pad3)*%
X133881200Y-90216400D03*
%TD*%
D28*
%TO.P,RV1,3,3*%
%TO.N,GND*%
X161784400Y-84400700D03*
%TO.P,RV1,2,2*%
%TO.N,Net-(J6-Pin_1)*%
X164324400Y-84400700D03*
%TO.P,RV1,1,1*%
%TO.N,Net-(IC1-OUT)*%
X166864400Y-84400700D03*
%TD*%
D14*
%TO.P,C11,1*%
%TO.N,Net-(IC1-OUT)*%
X142908700Y-103082900D03*
D13*
%TO.P,C11,2*%
%TO.N,GND*%
X142908700Y-108082900D03*
%TD*%
D23*
%TO.P,J2,1,Pin_1*%
%TO.N,GND*%
X154230000Y-133648600D03*
D24*
%TO.P,J2,2,Pin_2*%
%TO.N,unconnected-(J2-Pin_2-Pad2)*%
X151690000Y-133648600D03*
%TO.P,J2,3,Pin_3*%
%TO.N,+5V*%
X149150000Y-133648600D03*
%TO.P,J2,4,Pin_4*%
%TO.N,/BareMinAtmel328P/PD0-RX*%
X146610000Y-133648600D03*
%TO.P,J2,5,Pin_5*%
%TO.N,/BareMinAtmel328P/PD1-TX*%
X144070000Y-133648600D03*
%TO.P,J2,6,Pin_6*%
%TO.N,Net-(J2-Pin_6)*%
X141530000Y-133648600D03*
%TD*%
D29*
%TO.P,IC2,1,TACH+*%
%TO.N,Net-(IC2-TACH+)*%
X162007700Y-90765900D03*
D30*
%TO.P,IC2,2,CP1*%
%TO.N,Net-(IC2-CP1)*%
X162007700Y-93305900D03*
%TO.P,IC2,3,CP2/IN+*%
%TO.N,Net-(IC2-CP2{slash}IN+)*%
X162007700Y-95845900D03*
%TO.P,IC2,4,EMIT*%
%TO.N,/RPM_Sensor/RPM-Vout*%
X162007700Y-98385900D03*
%TO.P,IC2,5,COL*%
%TO.N,+VDC*%
X169947700Y-98385900D03*
%TO.P,IC2,6,V+*%
%TO.N,Net-(IC2-V+)*%
X169947700Y-95845900D03*
%TO.P,IC2,7,IN-*%
%TO.N,/RPM_Sensor/RPM-Vout*%
X169947700Y-93305900D03*
%TO.P,IC2,8,TACH-/GND*%
%TO.N,GND*%
X169947700Y-90765900D03*
%TD*%
D31*
%TO.P,R12,1*%
%TO.N,Net-(IC2-V+)*%
X172177800Y-95912000D03*
%TO.P,R12,2*%
%TO.N,+VDC*%
X172177800Y-99012000D03*
%TD*%
D32*
%TO.P,Y2,1,1*%
%TO.N,Net-(U4-OSC1)*%
X150037500Y-84434600D03*
%TO.P,Y2,2,2*%
%TO.N,Net-(U4-OSC2)*%
X154917500Y-84434600D03*
%TD*%
D33*
%TO.P,Reset1,1,NO_1*%
%TO.N,/BareMinAtmel328P/RESET*%
X137890100Y-136171500D03*
D32*
%TO.P,Reset1,2,NO_2*%
%TO.N,unconnected-(Reset1-NO_2-Pad2)*%
X131390100Y-136171500D03*
%TO.P,Reset1,3,COM_1*%
%TO.N,GND*%
X137890100Y-131671500D03*
%TO.P,Reset1,4,COM_2*%
%TO.N,unconnected-(Reset1-COM_2-Pad4)*%
X131390100Y-131671500D03*
%TD*%
D17*
%TO.P,R10,1*%
%TO.N,+VDC*%
X119783900Y-89714300D03*
%TO.P,R10,2*%
%TO.N,Net-(IC4-+IN_A)*%
X122883900Y-89714300D03*
%TD*%
D32*
%TO.P,Y1,2,2*%
%TO.N,Net-(U1-XTAL1{slash}PB6)*%
X148909000Y-123284400D03*
%TO.P,Y1,1,1*%
%TO.N,Net-(U1-XTAL2{slash}PB7)*%
X153789000Y-123284400D03*
%TD*%
D17*
%TO.P,R15,1*%
%TO.N,/BareMinAtmel328P/PC2-A2*%
X162924900Y-104866700D03*
%TO.P,R15,2*%
%TO.N,GND*%
X166024900Y-104866700D03*
%TD*%
D20*
%TO.P,C7,1*%
%TO.N,Net-(U4-OSC1)*%
X148742600Y-77728700D03*
%TO.P,C7,2*%
%TO.N,GND*%
X145617600Y-77728700D03*
%TD*%
D34*
%TO.P,D2,1*%
%TO.N,Net-(IC1-LX)*%
X137580900Y-88313900D03*
D35*
%TO.P,D2,2*%
%TO.N,Net-(IC1-OUT)*%
X137580900Y-102413900D03*
%TD*%
D14*
%TO.P,U1,1,~{RESET}/PC6*%
%TO.N,/BareMinAtmel328P/RESET*%
X132296200Y-119209800D03*
D18*
%TO.P,U1,2,PD0*%
%TO.N,/BareMinAtmel328P/PD0-RX*%
X134836200Y-119209800D03*
%TO.P,U1,3,PD1*%
%TO.N,/BareMinAtmel328P/PD1-TX*%
X137376200Y-119209800D03*
%TO.P,U1,4,PD2*%
%TO.N,/BareMinAtmel328P/PD2-D2*%
X139916200Y-119209800D03*
%TO.P,U1,5,PD3*%
%TO.N,/BareMinAtmel328P/PD3-D3*%
X142456200Y-119209800D03*
%TO.P,U1,6,PD4*%
%TO.N,/BareMinAtmel328P/PD4-D4*%
X144996200Y-119209800D03*
%TO.P,U1,7,VCC*%
%TO.N,+5V*%
X147536200Y-119209800D03*
%TO.P,U1,8,GND*%
%TO.N,GND*%
X150076200Y-119209800D03*
%TO.P,U1,9,XTAL1/PB6*%
%TO.N,Net-(U1-XTAL1{slash}PB6)*%
X152616200Y-119209800D03*
%TO.P,U1,10,XTAL2/PB7*%
%TO.N,Net-(U1-XTAL2{slash}PB7)*%
X155156200Y-119209800D03*
%TO.P,U1,11,PD5*%
%TO.N,/BareMinAtmel328P/PD5-D5*%
X157696200Y-119209800D03*
%TO.P,U1,12,PD6*%
%TO.N,/BareMinAtmel328P/PD6-D6*%
X160236200Y-119209800D03*
%TO.P,U1,13,PD7*%
%TO.N,/BareMinAtmel328P/PD7-D7*%
X162776200Y-119209800D03*
%TO.P,U1,14,PB0*%
%TO.N,/BareMinAtmel328P/PB0-D8*%
X165316200Y-119209800D03*
%TO.P,U1,15,PB1*%
%TO.N,/BareMinAtmel328P/PB1-D9*%
X165316200Y-111589800D03*
%TO.P,U1,16,PB2*%
%TO.N,/BareMinAtmel328P/PB2-D10-SS*%
X162776200Y-111589800D03*
%TO.P,U1,17,PB3*%
%TO.N,/BareMinAtmel328P/PB3-D11-MOSI*%
X160236200Y-111589800D03*
%TO.P,U1,18,PB4*%
%TO.N,/BareMinAtmel328P/PB4-D12-MISO*%
X157696200Y-111589800D03*
%TO.P,U1,19,PB5*%
%TO.N,/BareMinAtmel328P/PB5-D13-SCK*%
X155156200Y-111589800D03*
%TO.P,U1,20,AVCC*%
%TO.N,+5V*%
X152616200Y-111589800D03*
%TO.P,U1,21,AREF*%
%TO.N,/BareMinAtmel328P/AREF*%
X150076200Y-111589800D03*
%TO.P,U1,22,GND*%
%TO.N,GND*%
X147536200Y-111589800D03*
%TO.P,U1,23,PC0*%
%TO.N,/BareMinAtmel328P/PC0-A0*%
X144996200Y-111589800D03*
%TO.P,U1,24,PC1*%
%TO.N,/BareMinAtmel328P/PC1-A1*%
X142456200Y-111589800D03*
%TO.P,U1,25,PC2*%
%TO.N,/BareMinAtmel328P/PC2-A2*%
X139916200Y-111589800D03*
%TO.P,U1,26,PC3*%
%TO.N,/BareMinAtmel328P/PC3-A3*%
X137376200Y-111589800D03*
%TO.P,U1,27,PC4*%
%TO.N,/BareMinAtmel328P/PC4-A4-SDA*%
X134836200Y-111589800D03*
%TO.P,U1,28,PC5*%
%TO.N,/BareMinAtmel328P/PC5-A5-SCL*%
X132296200Y-111589800D03*
%TD*%
D36*
%TO.P,U3,1,TXD*%
%TO.N,/CANBUS-MCP2515/TXtoCANTC*%
X143942000Y-69639900D03*
%TO.P,U3,2,VSS*%
%TO.N,GND*%
X143942000Y-70909900D03*
%TO.P,U3,3,VDD*%
%TO.N,+5V*%
X143942000Y-72179900D03*
%TO.P,U3,4,RXD*%
%TO.N,/CANBUS-MCP2515/RXtoCANTC*%
X143942000Y-73449900D03*
%TO.P,U3,5,Vref*%
%TO.N,unconnected-(U3-Vref-Pad5)*%
X148892000Y-73449900D03*
%TO.P,U3,6,CANL*%
%TO.N,CANBUS_L*%
X148892000Y-72179900D03*
%TO.P,U3,7,CANH*%
%TO.N,CANBUS_H*%
X148892000Y-70909900D03*
%TO.P,U3,8,Rs*%
%TO.N,Net-(U3-Rs)*%
X148892000Y-69639900D03*
%TD*%
D37*
%TO.P,C6,1*%
%TO.N,Net-(U4-OSC2)*%
X140596700Y-77728700D03*
%TO.P,C6,2*%
%TO.N,GND*%
X143721700Y-77728700D03*
%TD*%
D38*
%TO.N,Net-(U4-~{RESET})*%
X138475926Y-73047052D03*
X138348612Y-76692699D03*
%TO.N,+5V*%
X134661500Y-125055100D03*
%TO.N,Net-(J6-Pin_1)*%
X163430400Y-88416100D03*
%TO.N,Net-(IC4-+IN_A)*%
X158203400Y-103435300D03*
%TO.N,/RPM_Sensor/RPM-Vout*%
X156519700Y-101888900D03*
%TO.N,Net-(IC2-TACH+)*%
X164638100Y-89796300D03*
%TO.N,Net-(IC2-CP2{slash}IN+)*%
X157122600Y-100305100D03*
%TO.N,Net-(IC1-OUT)*%
X143998800Y-100119400D03*
%TO.N,Net-(IC1-V+_1)*%
X143787900Y-85342000D03*
%TO.N,/CANBUS-MCP2515/TXtoCANTC*%
X146120500Y-73534000D03*
%TO.N,/CANBUS-MCP2515/RXtoCANTC*%
X145780100Y-75286100D03*
%TO.N,/BareMinAtmel328P/PC0-A0*%
X132332700Y-107184100D03*
%TO.N,/BareMinAtmel328P/PC1-A1*%
X162855000Y-101202000D03*
%TO.N,/BareMinAtmel328P/PC2-A2*%
X152978300Y-104902300D03*
%TO.N,/BareMinAtmel328P/PB4-D12-MISO*%
X150926900Y-110034200D03*
%TO.N,/BareMinAtmel328P/PB5-D13-SCK*%
X151748800Y-113372100D03*
%TO.N,CANBUS_L*%
X152601000Y-71424300D03*
%TO.N,Net-(U4-OSC1)*%
X145672700Y-82903300D03*
%TO.N,Net-(U4-OSC2)*%
X145756000Y-81725900D03*
%TO.N,+5V*%
X145442000Y-71077800D03*
X140499600Y-79258800D03*
X141830305Y-74123795D03*
%TO.N,GND*%
X141134000Y-122904000D03*
X165975000Y-101234000D03*
X143942000Y-70909900D03*
X158415300Y-106813300D03*
X124126900Y-93650100D03*
%TD*%
D39*
%TO.N,+5V*%
X141830305Y-73913995D02*
X143564400Y-72179900D01*
X141830305Y-74123795D02*
X141830305Y-73913995D01*
D40*
%TO.N,Net-(U4-~{RESET})*%
X129999616Y-76083048D02*
X129999616Y-72209705D01*
X129999616Y-72209705D02*
X130873691Y-71335630D01*
X130954488Y-71254834D02*
X130873691Y-71335630D01*
X130609267Y-76692699D02*
X129999616Y-76083048D01*
X138348612Y-76692699D02*
X130609267Y-76692699D01*
X131130771Y-71254834D02*
X130954488Y-71254834D01*
X136683708Y-71254834D02*
X131130771Y-71254834D01*
X138475926Y-73047052D02*
X136683708Y-71254834D01*
D39*
%TO.N,Net-(J6-Pin_1)*%
X155312900Y-90634200D02*
X156869600Y-90634200D01*
X159087700Y-88416100D02*
X163430400Y-88416100D01*
X156869600Y-90634200D02*
X159087700Y-88416100D01*
%TO.N,Net-(IC4-+IN_A)*%
X122883900Y-90424200D02*
X119658000Y-93650100D01*
X149857700Y-103435300D02*
X158203400Y-103435300D01*
X148567300Y-104725700D02*
X149857700Y-103435300D01*
X126795800Y-104725700D02*
X148567300Y-104725700D01*
X119658000Y-97587900D02*
X126795800Y-104725700D01*
X119658000Y-93650100D02*
X119658000Y-97587900D01*
%TO.N,/RPM_Sensor/RPM-Vout*%
X160022700Y-98385900D02*
X156519700Y-101888900D01*
X162007700Y-98385900D02*
X160022700Y-98385900D01*
%TO.N,Net-(IC2-V+)*%
X169947700Y-95845900D02*
X172111700Y-95845900D01*
%TO.N,Net-(IC2-TACH+)*%
X159534400Y-92372500D02*
X158622900Y-92372500D01*
X161141000Y-90765900D02*
X159534400Y-92372500D01*
X158622900Y-93174200D02*
X158622900Y-92372500D01*
X161685600Y-90765900D02*
X161141000Y-90765900D01*
X163668500Y-90765900D02*
X164638100Y-89796300D01*
X162007700Y-90765900D02*
X163668500Y-90765900D01*
%TO.N,Net-(IC1-LX)*%
X150859800Y-90023800D02*
X152191900Y-88691700D01*
X141253000Y-90023800D02*
X150859800Y-90023800D01*
%TO.N,Net-(IC2-CP2{slash}IN+)*%
X161581800Y-95845900D02*
X157122600Y-100305100D01*
%TO.N,Net-(IC1-OUT)*%
X142908700Y-103082900D02*
X142908700Y-101981200D01*
X143998800Y-100891100D02*
X143998800Y-100119400D01*
X142908700Y-101981200D02*
X143998800Y-100891100D01*
X163455100Y-87810000D02*
X166864400Y-84400700D01*
X146335300Y-87810000D02*
X163455100Y-87810000D01*
X145453600Y-88691700D02*
X146335300Y-87810000D01*
X144571900Y-88691700D02*
X145453600Y-88691700D01*
%TO.N,Net-(IC1-V+_1)*%
X152191900Y-91231700D02*
X152191900Y-93771700D01*
X141789600Y-85382000D02*
X143747900Y-85382000D01*
X143747900Y-85382000D02*
X143787900Y-85342000D01*
%TO.N,/CANBUS-MCP2515/TXtoCANTC*%
X144855000Y-69639900D02*
X143942000Y-69639900D01*
X146120500Y-70905400D02*
X144855000Y-69639900D01*
X146120500Y-73534000D02*
X146120500Y-70905400D01*
%TO.N,/CANBUS-MCP2515/RXtoCANTC*%
X145778200Y-75286100D02*
X145780100Y-75286100D01*
X143942000Y-73449900D02*
X145778200Y-75286100D01*
%TO.N,Net-(U3-Rs)*%
X147857000Y-68604900D02*
X141481900Y-68604900D01*
X148892000Y-69639900D02*
X147857000Y-68604900D01*
D41*
%TO.N,Net-(Q1-Pad3)*%
X122551000Y-84380500D02*
X122551000Y-80980500D01*
D39*
%TO.N,/BareMinAtmel328P/PC0-A0*%
X144996200Y-111589800D02*
X143894500Y-111589800D01*
X134547500Y-107184100D02*
X132332700Y-107184100D01*
X138646200Y-111282800D02*
X134547500Y-107184100D01*
X138646200Y-111899700D02*
X138646200Y-111282800D01*
X139472300Y-112725800D02*
X138646200Y-111899700D01*
X142896200Y-112725800D02*
X139472300Y-112725800D01*
X143894500Y-111727500D02*
X142896200Y-112725800D01*
X143894500Y-111589800D02*
X143894500Y-111727500D01*
%TO.N,/BareMinAtmel328P/PC1-A1*%
X143819300Y-110226700D02*
X142456200Y-111589800D01*
X148517900Y-110226700D02*
X143819300Y-110226700D01*
X152595900Y-106148700D02*
X148517900Y-110226700D01*
X163501400Y-106148700D02*
X152595900Y-106148700D01*
X163879000Y-105771100D02*
X163501400Y-106148700D01*
X163879000Y-102225800D02*
X163879000Y-105771100D01*
X162855200Y-101202000D02*
X163879000Y-102225800D01*
%TO.N,/BareMinAtmel328P/PC2-A2*%
X139916200Y-111589800D02*
X141017900Y-111589800D01*
X152978300Y-104902300D02*
X162889300Y-104902300D01*
X141017900Y-111452000D02*
X141017900Y-111589800D01*
X141981800Y-110488100D02*
X141017900Y-111452000D01*
X142667600Y-110488100D02*
X141981800Y-110488100D01*
X144008900Y-109146800D02*
X142667600Y-110488100D01*
X148733800Y-109146800D02*
X144008900Y-109146800D01*
X152978300Y-104902300D02*
X148733800Y-109146800D01*
D41*
%TO.N,+VDC*%
X132471000Y-84380500D02*
X129065000Y-87786300D01*
X132471000Y-80980500D02*
X132471000Y-84380500D01*
X119784000Y-89714300D02*
X120748000Y-88750300D01*
X121712000Y-87786300D02*
X129065000Y-87786300D01*
X120748000Y-88750300D02*
X121712000Y-87786300D01*
D39*
X120747900Y-88750300D02*
X119783900Y-89714300D01*
X120748000Y-88750300D02*
X120747900Y-88750300D01*
D41*
X126614000Y-103565000D02*
X128349000Y-103565000D01*
X125040000Y-101992000D02*
X126614000Y-103565000D01*
X125040000Y-91811300D02*
X125040000Y-101992000D01*
X129065000Y-87786300D02*
X125040000Y-91811300D01*
X136941000Y-84380500D02*
X138479800Y-82842200D01*
X132471000Y-84380500D02*
X136941000Y-84380500D01*
D39*
X171551700Y-98385900D02*
X169947700Y-98385900D01*
X172177800Y-99012000D02*
X171551700Y-98385900D01*
X130120300Y-104184600D02*
X129500800Y-103565100D01*
X147390300Y-104184600D02*
X130120300Y-104184600D01*
X149074000Y-102500900D02*
X147390300Y-104184600D01*
X159711700Y-102500900D02*
X149074000Y-102500900D01*
X163826700Y-98385900D02*
X159711700Y-102500900D01*
X169947700Y-98385900D02*
X163826700Y-98385900D01*
X128349100Y-103565100D02*
X129500800Y-103565100D01*
D41*
%TO.N,Net-(J9-Pin_2)*%
X135875000Y-92756400D02*
X133881200Y-92756400D01*
X140497000Y-88134700D02*
X135875000Y-92756400D01*
X142634000Y-88134700D02*
X140497000Y-88134700D01*
X153691000Y-77078100D02*
X142634000Y-88134700D01*
X155246000Y-77078100D02*
X153691000Y-77078100D01*
D39*
%TO.N,/BareMinAtmel328P/PB4-D12-MISO*%
X157696200Y-111589800D02*
X156594500Y-111589800D01*
X131749100Y-122556000D02*
X133625800Y-122556000D01*
X150926900Y-110034200D02*
X151767400Y-110874600D01*
X152185900Y-110456100D02*
X151767400Y-110874600D01*
X155598500Y-110456100D02*
X152185900Y-110456100D01*
X156594500Y-111452100D02*
X155598500Y-110456100D01*
X156594500Y-111589800D02*
X156594500Y-111452100D01*
X136106200Y-120075600D02*
X133625800Y-122556000D01*
X136106200Y-118914600D02*
X136106200Y-120075600D01*
X139154800Y-115866000D02*
X136106200Y-118914600D01*
X141132900Y-115866000D02*
X139154800Y-115866000D01*
X144307400Y-112691500D02*
X141132900Y-115866000D01*
X150552800Y-112691500D02*
X144307400Y-112691500D01*
X151177900Y-112066400D02*
X150552800Y-112691500D01*
X151177900Y-111464100D02*
X151177900Y-112066400D01*
X151767400Y-110874600D02*
X151177900Y-111464100D01*
%TO.N,/BareMinAtmel328P/PB3-D11-MOSI*%
X159134500Y-111818100D02*
X159134500Y-111589800D01*
X155552800Y-115399800D02*
X159134500Y-111818100D01*
X144609200Y-115399800D02*
X155552800Y-115399800D01*
X141186200Y-118822800D02*
X144609200Y-115399800D01*
X141186200Y-119739800D02*
X141186200Y-118822800D01*
X139602800Y-121323200D02*
X141186200Y-119739800D01*
X139602800Y-122292300D02*
X139602800Y-121323200D01*
X137600800Y-124294300D02*
X139602800Y-122292300D01*
X134526100Y-124294300D02*
X137600800Y-124294300D01*
X133625800Y-125194600D02*
X134526100Y-124294300D01*
X133625800Y-127636000D02*
X133625800Y-125194600D01*
X131749100Y-127636000D02*
X133625800Y-127636000D01*
X160236200Y-111589800D02*
X159134500Y-111589800D01*
%TO.N,/BareMinAtmel328P/PB5-D13-SCK*%
X155156200Y-111589800D02*
X154054500Y-111589800D01*
X136799100Y-122556000D02*
X138675800Y-122556000D01*
X152500500Y-113372100D02*
X151748800Y-113372100D01*
X154054500Y-111818100D02*
X152500500Y-113372100D01*
X154054500Y-111589800D02*
X154054500Y-111818100D01*
X150803300Y-114317600D02*
X151748800Y-113372100D01*
X143249300Y-114317600D02*
X150803300Y-114317600D01*
X138675800Y-118891100D02*
X143249300Y-114317600D01*
X138675800Y-122556000D02*
X138675800Y-118891100D01*
%TO.N,CANBUS_H*%
X136369900Y-70035900D02*
X135696300Y-69362300D01*
X141901600Y-70035900D02*
X136369900Y-70035900D01*
X142913900Y-69023600D02*
X141901600Y-70035900D01*
X145002100Y-69023600D02*
X142913900Y-69023600D01*
X146888400Y-70909900D02*
X145002100Y-69023600D01*
X148892000Y-70909900D02*
X146888400Y-70909900D01*
X134544600Y-69362300D02*
X135696300Y-69362300D01*
X151331600Y-70909900D02*
X148892000Y-70909900D01*
X152783400Y-69458100D02*
X151331600Y-70909900D01*
X155246300Y-69458100D02*
X152783400Y-69458100D01*
D42*
%TO.N,CANBUS_L*%
X151846000Y-72179900D02*
X152601000Y-71424300D01*
X148892000Y-72179900D02*
X151846000Y-72179900D01*
D39*
X147596900Y-73083800D02*
X148500800Y-72179900D01*
X147596900Y-74344000D02*
X147596900Y-73083800D01*
X146050100Y-75890800D02*
X147596900Y-74344000D01*
X136113200Y-75890800D02*
X146050100Y-75890800D01*
X133293200Y-73070800D02*
X136113200Y-75890800D01*
X133293200Y-72933100D02*
X133293200Y-73070800D01*
X132191500Y-72933100D02*
X133293200Y-72933100D01*
%TO.N,Net-(U4-OSC1)*%
X148742600Y-79833400D02*
X145672700Y-82903300D01*
X148742600Y-77728700D02*
X148742600Y-79833400D01*
%TO.N,Net-(U4-OSC2)*%
X141758800Y-77728700D02*
X140596700Y-77728700D01*
X145756000Y-81725900D02*
X141758800Y-77728700D01*
%TO.N,+5V*%
X136799100Y-125096000D02*
X134922400Y-125096000D01*
X134881500Y-125055100D02*
X134661500Y-125055100D01*
X134922400Y-125096000D02*
X134881500Y-125055100D01*
X134872700Y-102297100D02*
X133771000Y-102297100D01*
X140499600Y-83024200D02*
X140499600Y-79258800D01*
X136580700Y-86943100D02*
X140499600Y-83024200D01*
X135342200Y-86943100D02*
X136580700Y-86943100D01*
X132619500Y-89665800D02*
X135342200Y-86943100D01*
X132619500Y-101025100D02*
X132619500Y-89665800D01*
X133771000Y-102176600D02*
X132619500Y-101025100D01*
X133771000Y-102297100D02*
X133771000Y-102176600D01*
X132619500Y-101025100D02*
X128349100Y-101025100D01*
X145442000Y-71077800D02*
X144339900Y-72179900D01*
X147536200Y-119209800D02*
X146434500Y-119209800D01*
X146434500Y-119347600D02*
X146434500Y-119209800D01*
X145470600Y-120311500D02*
X146434500Y-119347600D01*
X141867600Y-120311500D02*
X145470600Y-120311500D01*
X140004500Y-122174600D02*
X141867600Y-120311500D01*
X140004500Y-122458600D02*
X140004500Y-122174600D01*
X137367100Y-125096000D02*
X140004500Y-122458600D01*
%TO.N,/BareMinAtmel328P/RESET*%
X131469900Y-120311500D02*
X132296200Y-120311500D01*
X129872400Y-121909000D02*
X131469900Y-120311500D01*
X129872400Y-125096000D02*
X129872400Y-121909000D01*
X131749100Y-125096000D02*
X129872400Y-125096000D01*
X132296200Y-119209800D02*
X132296200Y-120311500D01*
%TO.N,Net-(U1-XTAL2{slash}PB7)*%
X155156200Y-120311900D02*
X152986200Y-122481900D01*
X155156200Y-119209800D02*
X155156200Y-120311900D01*
D40*
X152648000Y-122144000D02*
X152986200Y-122481900D01*
X145009000Y-122144000D02*
X152648000Y-122144000D01*
X144657500Y-122495500D02*
X145009000Y-122144000D01*
X152986200Y-122481900D02*
X153789000Y-123284000D01*
D41*
%TO.N,GND*%
X143722000Y-77728700D02*
X145617600Y-77728700D01*
D39*
X151389100Y-131671500D02*
X137890100Y-131671500D01*
X153078300Y-133360700D02*
X151389100Y-131671500D01*
X153078300Y-133648600D02*
X153078300Y-133360700D01*
X154230000Y-133648600D02*
X153078300Y-133648600D01*
D43*
X165975000Y-101234000D02*
X165975000Y-103025500D01*
D39*
X165955200Y-103005700D02*
X165955200Y-101202000D01*
X165975000Y-103025500D02*
X165955200Y-103005700D01*
X157951500Y-107277100D02*
X154122300Y-107277100D01*
X158415300Y-106813300D02*
X157951500Y-107277100D01*
X122758000Y-93650100D02*
X124126900Y-93650100D01*
X147536200Y-111589800D02*
X148637900Y-111589800D01*
D43*
X165975000Y-103025500D02*
X165975000Y-104817000D01*
D39*
X164078300Y-106813300D02*
X166024800Y-104866800D01*
X158415300Y-106813300D02*
X164078300Y-106813300D01*
X152813600Y-107277100D02*
X154122300Y-107277100D01*
X148637900Y-111452800D02*
X152813600Y-107277100D01*
X148637900Y-111589800D02*
X148637900Y-111452800D01*
X148808600Y-74538100D02*
X155246300Y-74538100D01*
X145618000Y-77728700D02*
X148808600Y-74538100D01*
X161784400Y-81076200D02*
X161784400Y-84400700D01*
X155246300Y-74538100D02*
X161784400Y-81076200D01*
X141253000Y-100183800D02*
X142354700Y-100183800D01*
X146226800Y-95426600D02*
X144571900Y-93771700D01*
X146226800Y-96311700D02*
X146226800Y-95426600D01*
X142354700Y-100183800D02*
X146226800Y-96311700D01*
X146226800Y-96311700D02*
X152191900Y-96311700D01*
X147316700Y-108082900D02*
X142908700Y-108082900D01*
X150843200Y-104556400D02*
X147316700Y-108082900D01*
D40*
X141134000Y-124376000D02*
X137890100Y-127619900D01*
X141134000Y-122904000D02*
X141134000Y-124376000D01*
D39*
X137890100Y-127619900D02*
X137890100Y-131671500D01*
D40*
X147729000Y-121557000D02*
X150076000Y-119210000D01*
X142471000Y-121557000D02*
X147729000Y-121557000D01*
X141181000Y-122847000D02*
X142471000Y-121557000D01*
%TD*%
M02*
