%TF.GenerationSoftware,KiCad,Pcbnew,8.0.1-rc1*%
%TF.CreationDate,2024-06-23T11:02:47-07:00*%
%TF.ProjectId,AMS - CANBus Sensor - RPM,414d5320-2d20-4434-914e-427573205365,rev?*%
%TF.SameCoordinates,Original*%
%TF.FileFunction,Profile,NP*%
%FSLAX46Y46*%
G04 Gerber Fmt 4.6, Leading zero omitted, Abs format (unit mm)*
G04 Created by KiCad (PCBNEW 8.0.1-rc1) date 2024-06-23 11:02:47*
%MOMM*%
%LPD*%
G01*
G04 APERTURE LIST*
%ADD10C,0.200000*%
%TA.AperFunction,Profile*%
%ADD11C,0.200000*%
%TD*%
G04 APERTURE END LIST*
D10*
X119034396Y-83041994D02*
X119021282Y-83301694D01*
X118982792Y-83553892D01*
X118920202Y-83797312D01*
X118834790Y-84030676D01*
X118727831Y-84252709D01*
X118600604Y-84462132D01*
X118454383Y-84657670D01*
X118290447Y-84838045D01*
X118110072Y-85001981D01*
X117914534Y-85148202D01*
X117705111Y-85275429D01*
X117483078Y-85382388D01*
X117249714Y-85467800D01*
X117006294Y-85530390D01*
X116754096Y-85568880D01*
X116494396Y-85581994D01*
D11*
X173136413Y-83041994D02*
X173136413Y-67166990D01*
X127162405Y-131682986D02*
G75*
G02*
X121574405Y-131682986I-2794000J0D01*
G01*
X121574405Y-131682986D02*
G75*
G02*
X127162405Y-131682986I2794000J0D01*
G01*
X116494396Y-85581994D02*
X109636413Y-85581994D01*
X173136413Y-67166990D02*
X119034396Y-67166990D01*
X173136413Y-138286982D02*
X173136413Y-122411999D01*
X109636413Y-85581994D02*
X109636413Y-119871999D01*
D10*
X173136413Y-122411999D02*
X173149526Y-122152298D01*
X173188016Y-121900100D01*
X173250606Y-121656680D01*
X173336018Y-121423316D01*
X173442977Y-121201283D01*
X173570205Y-120991860D01*
X173716425Y-120796322D01*
X173880361Y-120615947D01*
X174060737Y-120452011D01*
X174256274Y-120305790D01*
X174465698Y-120178563D01*
X174687730Y-120071604D01*
X174921094Y-119986192D01*
X175164514Y-119923602D01*
X175416712Y-119885112D01*
X175676413Y-119871999D01*
X175676413Y-85581994D02*
X175416712Y-85568880D01*
X175164514Y-85530390D01*
X174921094Y-85467800D01*
X174687730Y-85382388D01*
X174465698Y-85275429D01*
X174256274Y-85148202D01*
X174060737Y-85001981D01*
X173880361Y-84838045D01*
X173716425Y-84657670D01*
X173570205Y-84462132D01*
X173442977Y-84252709D01*
X173336018Y-84030676D01*
X173250606Y-83797312D01*
X173188016Y-83553892D01*
X173149526Y-83301694D01*
X173136413Y-83041994D01*
D11*
X119034396Y-67166990D02*
X119034396Y-83041994D01*
X170596405Y-73770986D02*
G75*
G02*
X165008405Y-73770986I-2794000J0D01*
G01*
X165008405Y-73770986D02*
G75*
G02*
X170596405Y-73770986I2794000J0D01*
G01*
X109636413Y-119871999D02*
X116494396Y-119871999D01*
X127162405Y-73770986D02*
G75*
G02*
X121574405Y-73770986I-2794000J0D01*
G01*
X121574405Y-73770986D02*
G75*
G02*
X127162405Y-73770986I2794000J0D01*
G01*
X170596405Y-131682986D02*
G75*
G02*
X165008405Y-131682986I-2794000J0D01*
G01*
X165008405Y-131682986D02*
G75*
G02*
X170596405Y-131682986I2794000J0D01*
G01*
X119034396Y-122411999D02*
X119034396Y-138286982D01*
X119034396Y-138286982D02*
X173136413Y-138286982D01*
X175676413Y-119871999D02*
X182534396Y-119871999D01*
X182534396Y-85581994D02*
X175676413Y-85581994D01*
D10*
X116494396Y-119871999D02*
X116754096Y-119885112D01*
X117006294Y-119923602D01*
X117249714Y-119986192D01*
X117483078Y-120071604D01*
X117705111Y-120178563D01*
X117914534Y-120305790D01*
X118110072Y-120452011D01*
X118290447Y-120615947D01*
X118454383Y-120796322D01*
X118600604Y-120991860D01*
X118727831Y-121201283D01*
X118834790Y-121423316D01*
X118920202Y-121656680D01*
X118982792Y-121900100D01*
X119021282Y-122152298D01*
X119034396Y-122411999D01*
D11*
X182534396Y-119871999D02*
X182534396Y-85581994D01*
M02*
