M48
INCH
T1C0.0118
T2C0.0315
T3C0.0394
T4C0.0433
T5C0.0504
T6C0.0551
%
G90
G05
T1
X4.1718Y-3.0036
X4.2062Y-3.004
X4.4766Y-2.6747
X4.5373Y-2.7729
X4.5385Y-3.055
X4.5813Y-3.047
X5.289Y-2.7951
X5.3996Y-3.5755
X5.4344Y-3.5277
X5.4943Y-2.7601
X5.5124Y-2.6139
T2
X4.2616Y-2.1181
X4.3616Y-2.1181
X4.8291Y-2.3861
X4.8291Y-2.4861
X4.8291Y-2.5861
X4.8291Y-2.6861
X4.8291Y-2.7861
X4.8291Y-2.8861
X4.8291Y-2.9861
X4.8291Y-3.0861
X4.8291Y-3.1861
X4.8291Y-3.2861
X4.8291Y-3.3861
X4.8291Y-3.4861
X4.8291Y-3.5861
X4.8291Y-3.6861
X5.1291Y-2.3861
X5.1291Y-2.4861
X5.1291Y-2.5861
X5.1291Y-2.6861
X5.1291Y-2.7861
X5.1291Y-2.8861
X5.1291Y-2.9861
X5.1291Y-3.0861
X5.1291Y-3.1861
X5.1291Y-3.2861
X5.1291Y-3.3861
X5.1291Y-3.4861
X5.1291Y-3.5861
X5.1291Y-3.6861
X5.2446Y-2.6329
X5.2446Y-2.7329
X5.2874Y-2.5033
X5.3189Y-3.2595
X5.3199Y-2.8951
X5.3874Y-2.5033
X5.511Y-3.2595
X5.512Y-2.8951
T3
X4.2624Y-3.6863
X4.2624Y-3.8634
X4.5183Y-3.6863
X4.5183Y-3.8634
X4.6804Y-3.8375
X4.6829Y-2.809
X4.6829Y-2.909
X4.6829Y-3.009
X4.7804Y-3.8375
X4.8804Y-3.8375
X4.9804Y-3.8375
X5.0804Y-3.8375
X5.1804Y-3.8375
X5.7351Y-2.9036
X5.7351Y-3.0036
X5.7351Y-3.1036
X5.7351Y-3.2036
X5.7351Y-3.3036
X5.7351Y-3.4036
X5.7351Y-3.5036
X5.7351Y-3.6036
X5.7377Y-2.7482
X5.8351Y-2.9036
X5.8351Y-3.0036
X5.8351Y-3.1036
X5.8351Y-3.2036
X5.8351Y-3.3036
X5.8351Y-3.4036
X5.8351Y-3.5036
X5.8351Y-3.6036
X5.8377Y-2.7482
T4
X5.6826Y-2.2876
X5.6826Y-2.3876
X5.6826Y-2.4876
X5.6826Y-2.5876
T5
X5.4603Y-2.1128
X5.4603Y-2.2128
X5.4603Y-2.3128
T6
X4.6281Y-2.0784
X4.6281Y-2.1768
X4.7659Y-2.0784
X4.7659Y-2.1768
X4.9943Y-2.0784
X4.9943Y-2.1768
X5.1321Y-2.0784
X5.1321Y-2.1768
M30
