%TF.GenerationSoftware,KiCad,Pcbnew,8.0.1-rc1*%
%TF.CreationDate,2024-05-12T16:28:37-07:00*%
%TF.ProjectId,Automotive Monitoring System CANBus Sensor,4175746f-6d6f-4746-9976-65204d6f6e69,rev?*%
%TF.SameCoordinates,Original*%
%TF.FileFunction,Copper,L2,Inr*%
%TF.FilePolarity,Positive*%
%FSLAX46Y46*%
G04 Gerber Fmt 4.6, Leading zero omitted, Abs format (unit mm)*
G04 Created by KiCad (PCBNEW 8.0.1-rc1) date 2024-05-12 16:28:37*
%MOMM*%
%LPD*%
G01*
G04 APERTURE LIST*
%TA.AperFunction,ComponentPad*%
%ADD10R,1.700000X1.700000*%
%TD*%
%TA.AperFunction,ComponentPad*%
%ADD11O,1.700000X1.700000*%
%TD*%
%TA.AperFunction,ComponentPad*%
%ADD12C,1.600000*%
%TD*%
%TA.AperFunction,ComponentPad*%
%ADD13O,1.600000X1.600000*%
%TD*%
%TA.AperFunction,ComponentPad*%
%ADD14C,2.100000*%
%TD*%
%TA.AperFunction,ComponentPad*%
%ADD15R,2.200000X2.200000*%
%TD*%
%TA.AperFunction,ComponentPad*%
%ADD16C,2.200000*%
%TD*%
%TA.AperFunction,ComponentPad*%
%ADD17R,1.920000X1.920000*%
%TD*%
%TA.AperFunction,ComponentPad*%
%ADD18C,1.920000*%
%TD*%
%TA.AperFunction,ComponentPad*%
%ADD19C,1.500000*%
%TD*%
%TA.AperFunction,ComponentPad*%
%ADD20R,1.500000X1.500000*%
%TD*%
%TA.AperFunction,ComponentPad*%
%ADD21R,1.600000X1.600000*%
%TD*%
%TA.AperFunction,ViaPad*%
%ADD22C,0.600000*%
%TD*%
%TA.AperFunction,Conductor*%
%ADD23C,0.762000*%
%TD*%
%TA.AperFunction,Conductor*%
%ADD24C,0.200000*%
%TD*%
G04 APERTURE END LIST*
D10*
%TO.N,+5V*%
%TO.C,J6*%
X145670700Y-73750200D03*
D11*
%TO.N,/BareMinAtmel328P/PD3-D3*%
X148210700Y-73750200D03*
%TO.N,+VDC*%
X145670700Y-76290200D03*
%TO.N,/BareMinAtmel328P/PD4-D4*%
X148210700Y-76290200D03*
%TO.N,/BareMinAtmel328P/PC1-A1*%
X145670700Y-78830200D03*
%TO.N,/BareMinAtmel328P/PD5-D5*%
X148210700Y-78830200D03*
%TO.N,/BareMinAtmel328P/PC2-A2*%
X145670700Y-81370200D03*
%TO.N,/BareMinAtmel328P/PD6-D6*%
X148210700Y-81370200D03*
%TO.N,/BareMinAtmel328P/PC3-A3*%
X145670700Y-83910200D03*
%TO.N,/BareMinAtmel328P/PD7-D7*%
X148210700Y-83910200D03*
%TO.N,/BareMinAtmel328P/PC4-A4-SDA*%
X145670700Y-86450200D03*
%TO.N,/BareMinAtmel328P/PB0-D8*%
X148210700Y-86450200D03*
%TO.N,/BareMinAtmel328P/PC5-A5-SCL*%
X145670700Y-88990200D03*
%TO.N,/BareMinAtmel328P/PB2-D10-SS*%
X148210700Y-88990200D03*
%TO.N,GND*%
X145670700Y-91530200D03*
X148210700Y-91530200D03*
%TD*%
D12*
%TO.N,Net-(U3-Rs)*%
%TO.C,R4*%
X133212700Y-66876100D03*
D13*
%TO.N,GND*%
X133212700Y-69416100D03*
%TD*%
D12*
%TO.N,/BareMinAtmel328P/PC0-A0*%
%TO.C,NTC1*%
X108245700Y-53800500D03*
D13*
%TO.N,+5V*%
X110785700Y-53800500D03*
%TD*%
D12*
%TO.N,Net-(J4-Pin_2)*%
%TO.C,R6*%
X136841000Y-63583500D03*
D13*
%TO.N,CANBUS_L*%
X134301000Y-63583500D03*
%TD*%
D10*
%TO.N,+VDC*%
%TO.C,Powerboard1*%
X118946900Y-71348200D03*
D11*
%TO.N,+5V*%
X118946900Y-73888200D03*
%TO.N,GND*%
X118946900Y-76428200D03*
%TD*%
D10*
%TO.N,CANBUS_H*%
%TO.C,J4*%
X148277500Y-69805300D03*
D11*
%TO.N,Net-(J4-Pin_2)*%
X145737500Y-69805300D03*
%TD*%
D14*
%TO.N,+VDC*%
%TO.C,U2*%
X117554300Y-55290900D03*
X121054300Y-55290900D03*
%TO.N,Net-(Q1-Pad3)*%
X126854300Y-55290900D03*
X130354300Y-55290900D03*
X130354300Y-52790900D03*
X126854300Y-52790900D03*
%TO.N,+VDC*%
X121054300Y-52790900D03*
X117554300Y-52790900D03*
%TD*%
D15*
%TO.N,Net-(J5-Pin_1)*%
%TO.C,J5*%
X144337900Y-65725000D03*
D16*
%TO.N,GND*%
X144337900Y-63185000D03*
%TO.N,CANBUS_H*%
X144337900Y-60645000D03*
%TO.N,CANBUS_L*%
X144337900Y-58105000D03*
%TD*%
D17*
%TO.N,Net-(Q1-Pad1)*%
%TO.C,Q1*%
X138691700Y-58745000D03*
D18*
%TO.N,Net-(J5-Pin_1)*%
X138691700Y-56205000D03*
%TO.N,Net-(Q1-Pad3)*%
X138691700Y-53665000D03*
%TD*%
D10*
%TO.N,GND*%
%TO.C,J2*%
X131583000Y-97472600D03*
D11*
%TO.N,unconnected-(J2-Pin_2-Pad2)*%
X129043000Y-97472600D03*
%TO.N,+5V*%
X126503000Y-97472600D03*
%TO.N,/BareMinAtmel328P/PD0-RX*%
X123963000Y-97472600D03*
%TO.N,/BareMinAtmel328P/PD1-TX*%
X121423000Y-97472600D03*
%TO.N,Net-(J2-Pin_6)*%
X118883000Y-97472600D03*
%TD*%
D19*
%TO.N,Net-(U4-OSC1)*%
%TO.C,Y2*%
X135124800Y-73536500D03*
%TO.N,Net-(U4-OSC2)*%
X140004800Y-73536500D03*
%TD*%
D20*
%TO.N,/BareMinAtmel328P/RESET*%
%TO.C,Reset1*%
X114764200Y-98131600D03*
D19*
%TO.N,unconnected-(Reset1-NO_2-Pad2)*%
X108264200Y-98131600D03*
%TO.N,GND*%
X114764200Y-93631600D03*
%TO.N,unconnected-(Reset1-COM_2-Pad4)*%
X108264200Y-93631600D03*
%TD*%
%TO.N,Net-(U1-XTAL2{slash}PB7)*%
%TO.C,Y1*%
X135099900Y-82790900D03*
%TO.N,Net-(U1-XTAL1{slash}PB6)*%
X139979900Y-82790900D03*
%TD*%
D21*
%TO.N,/BareMinAtmel328P/RESET*%
%TO.C,U1*%
X122659400Y-60606700D03*
D13*
%TO.N,/BareMinAtmel328P/PD0-RX*%
X122659400Y-63146700D03*
%TO.N,/BareMinAtmel328P/PD1-TX*%
X122659400Y-65686700D03*
%TO.N,/BareMinAtmel328P/PD2-D2*%
X122659400Y-68226700D03*
%TO.N,/BareMinAtmel328P/PD3-D3*%
X122659400Y-70766700D03*
%TO.N,/BareMinAtmel328P/PD4-D4*%
X122659400Y-73306700D03*
%TO.N,+5V*%
X122659400Y-75846700D03*
%TO.N,GND*%
X122659400Y-78386700D03*
%TO.N,Net-(U1-XTAL1{slash}PB6)*%
X122659400Y-80926700D03*
%TO.N,Net-(U1-XTAL2{slash}PB7)*%
X122659400Y-83466700D03*
%TO.N,/BareMinAtmel328P/PD5-D5*%
X122659400Y-86006700D03*
%TO.N,/BareMinAtmel328P/PD6-D6*%
X122659400Y-88546700D03*
%TO.N,/BareMinAtmel328P/PD7-D7*%
X122659400Y-91086700D03*
%TO.N,/BareMinAtmel328P/PB0-D8*%
X122659400Y-93626700D03*
%TO.N,/BareMinAtmel328P/PB1-D9*%
X130279400Y-93626700D03*
%TO.N,/BareMinAtmel328P/PB2-D10-SS*%
X130279400Y-91086700D03*
%TO.N,/BareMinAtmel328P/PB3-D11-MOSI*%
X130279400Y-88546700D03*
%TO.N,/BareMinAtmel328P/PB4-D12-MISO*%
X130279400Y-86006700D03*
%TO.N,/BareMinAtmel328P/PB5-D13-SCK*%
X130279400Y-83466700D03*
%TO.N,+5V*%
X130279400Y-80926700D03*
%TO.N,/BareMinAtmel328P/AREF*%
X130279400Y-78386700D03*
%TO.N,GND*%
X130279400Y-75846700D03*
%TO.N,/BareMinAtmel328P/PC0-A0*%
X130279400Y-73306700D03*
%TO.N,/BareMinAtmel328P/PC1-A1*%
X130279400Y-70766700D03*
%TO.N,/BareMinAtmel328P/PC2-A2*%
X130279400Y-68226700D03*
%TO.N,/BareMinAtmel328P/PC3-A3*%
X130279400Y-65686700D03*
%TO.N,/BareMinAtmel328P/PC4-A4-SDA*%
X130279400Y-63146700D03*
%TO.N,/BareMinAtmel328P/PC5-A5-SCL*%
X130279400Y-60606700D03*
%TD*%
D22*
%TO.N,/BareMinAtmel328P/RESET*%
X137149000Y-90817500D03*
%TO.N,+5V*%
X138034000Y-89602800D03*
%TO.N,Net-(U4-OSC2)*%
X116364300Y-77393900D03*
%TO.N,Net-(U4-OSC1)*%
X115277900Y-77595800D03*
%TO.N,/BareMinAtmel328P/PB5-D13-SCK*%
X106837800Y-76301600D03*
%TO.N,/BareMinAtmel328P/PC2-A2*%
X134341100Y-70994700D03*
%TO.N,/BareMinAtmel328P/PD2-D2*%
X105963600Y-76290800D03*
%TO.N,/CANBUS-MCP2515/RXtoCANTC*%
X115246500Y-70431100D03*
X139554400Y-70107600D03*
%TO.N,/CANBUS-MCP2515/TXtoCANTC*%
X113704600Y-67937600D03*
X140015700Y-66392500D03*
%TD*%
D23*
%TO.N,GND*%
X131583000Y-97472600D02*
X139728000Y-97472600D01*
X120905000Y-78386700D02*
X118947000Y-76428200D01*
X127739000Y-78386700D02*
X122659400Y-78386700D01*
X122659400Y-78386700D02*
X120905000Y-78386700D01*
X133213000Y-72627400D02*
X133213000Y-69416100D01*
X145671000Y-91237900D02*
X130279000Y-75846700D01*
X148210700Y-91530200D02*
X145671000Y-91530200D01*
X130279000Y-75560600D02*
X133213000Y-72627400D01*
X130279000Y-75846700D02*
X127739000Y-78386700D01*
X139728000Y-97472600D02*
X145671000Y-91530200D01*
X139444000Y-63185000D02*
X144337900Y-63185000D01*
X133213000Y-69416100D02*
X139444000Y-63185000D01*
D24*
%TO.N,/BareMinAtmel328P/RESET*%
X120153000Y-97090600D02*
X117943700Y-94881300D01*
X116964400Y-67264300D02*
X122521900Y-61706800D01*
X120153000Y-97858800D02*
X120153000Y-97090600D01*
X129977400Y-94846700D02*
X127773000Y-97051100D01*
X117943700Y-94881300D02*
X116964400Y-94881300D01*
X126993600Y-98646900D02*
X120941100Y-98646900D01*
X137149000Y-90817500D02*
X133119800Y-94846700D01*
X114764200Y-97081500D02*
X116964400Y-94881300D01*
X122659400Y-60606700D02*
X122659400Y-61706800D01*
X114764200Y-98131600D02*
X114764200Y-97081500D01*
X122521900Y-61706800D02*
X122659400Y-61706800D01*
X133119800Y-94846700D02*
X129977400Y-94846700D01*
X127773000Y-97051100D02*
X127773000Y-97867500D01*
X116964400Y-94881300D02*
X116964400Y-67264300D01*
X120941100Y-98646900D02*
X120153000Y-97858800D01*
X127773000Y-97867500D02*
X126993600Y-98646900D01*
%TO.N,+5V*%
X137543300Y-89249700D02*
X137680900Y-89249700D01*
X134168300Y-85874700D02*
X135638500Y-87344800D01*
X129955100Y-92356700D02*
X126503000Y-95808800D01*
X126503000Y-95808800D02*
X126503000Y-97472600D01*
X135638500Y-87344800D02*
X137543300Y-89249700D01*
X135638500Y-87344800D02*
X130626600Y-92356700D01*
X130279400Y-81476700D02*
X134168300Y-85365600D01*
X134168300Y-85365600D02*
X134168300Y-85874700D01*
X130626600Y-92356700D02*
X129955100Y-92356700D01*
X137680900Y-89249700D02*
X138034000Y-89602800D01*
%TO.N,CANBUS_H*%
X148277500Y-64584600D02*
X144337900Y-60645000D01*
X148277500Y-69805300D02*
X148277500Y-64584600D01*
%TO.N,/BareMinAtmel328P/PD0-RX*%
X123963000Y-96322500D02*
X123792900Y-96322500D01*
X117786000Y-70361300D02*
X121190400Y-66956900D01*
X122796900Y-64246800D02*
X122659400Y-64246800D01*
X123963000Y-97472600D02*
X123963000Y-96322500D01*
X122659400Y-63146700D02*
X122659400Y-64246800D01*
X121190400Y-66956900D02*
X123004700Y-66956900D01*
X123790500Y-66171100D02*
X123790500Y-65240400D01*
X117786000Y-90315600D02*
X117786000Y-70361300D01*
X123790500Y-65240400D02*
X122796900Y-64246800D01*
X123792900Y-96322500D02*
X117786000Y-90315600D01*
X123004700Y-66956900D02*
X123790500Y-66171100D01*
%TO.N,/BareMinAtmel328P/PD1-TX*%
X121559300Y-65686700D02*
X117385800Y-69860200D01*
X122659400Y-65686700D02*
X121559300Y-65686700D01*
X117385800Y-92285300D02*
X121423000Y-96322500D01*
X121423000Y-97472600D02*
X121423000Y-96322500D01*
X117385800Y-69860200D02*
X117385800Y-92285300D01*
%TO.N,/BareMinAtmel328P/PC2-A2*%
X144520600Y-81174200D02*
X144520600Y-81370200D01*
X145670700Y-81370200D02*
X144520600Y-81370200D01*
X134341100Y-70994700D02*
X144520600Y-81174200D01*
%TO.N,/BareMinAtmel328P/PC0-A0*%
X130141800Y-72206600D02*
X129179300Y-71244100D01*
X112268700Y-57823500D02*
X108245700Y-53800500D01*
X130279400Y-73306700D02*
X130279400Y-72206600D01*
X129179300Y-71244100D02*
X129179300Y-65097100D01*
X121905700Y-57823500D02*
X112268700Y-57823500D01*
X130279400Y-72206600D02*
X130141800Y-72206600D01*
X129179300Y-65097100D02*
X121905700Y-57823500D01*
%TD*%
M02*
