%TF.GenerationSoftware,KiCad,Pcbnew,8.0.1-rc1*%
%TF.CreationDate,2024-05-12T16:22:44-07:00*%
%TF.ProjectId,Automotive Monitoring System CANBus Sensor,4175746f-6d6f-4746-9976-65204d6f6e69,rev?*%
%TF.SameCoordinates,Original*%
%TF.FileFunction,Legend,Top*%
%TF.FilePolarity,Positive*%
%FSLAX46Y46*%
G04 Gerber Fmt 4.6, Leading zero omitted, Abs format (unit mm)*
G04 Created by KiCad (PCBNEW 8.0.1-rc1) date 2024-05-12 16:22:44*
%MOMM*%
%LPD*%
G01*
G04 APERTURE LIST*
G04 Aperture macros list*
%AMRoundRect*
0 Rectangle with rounded corners*
0 $1 Rounding radius*
0 $2 $3 $4 $5 $6 $7 $8 $9 X,Y pos of 4 corners*
0 Add a 4 corners polygon primitive as box body*
4,1,4,$2,$3,$4,$5,$6,$7,$8,$9,$2,$3,0*
0 Add four circle primitives for the rounded corners*
1,1,$1+$1,$2,$3*
1,1,$1+$1,$4,$5*
1,1,$1+$1,$6,$7*
1,1,$1+$1,$8,$9*
0 Add four rect primitives between the rounded corners*
20,1,$1+$1,$2,$3,$4,$5,0*
20,1,$1+$1,$4,$5,$6,$7,0*
20,1,$1+$1,$6,$7,$8,$9,0*
20,1,$1+$1,$8,$9,$2,$3,0*%
G04 Aperture macros list end*
%ADD10C,0.150000*%
%ADD11C,0.254000*%
%ADD12C,0.120000*%
%ADD13C,0.100000*%
%ADD14C,0.200000*%
%ADD15RoundRect,0.250000X-0.650000X0.412500X-0.650000X-0.412500X0.650000X-0.412500X0.650000X0.412500X0*%
%ADD16R,1.700000X1.700000*%
%ADD17O,1.700000X1.700000*%
%ADD18C,1.600000*%
%ADD19O,1.600000X1.600000*%
%ADD20RoundRect,0.250000X-0.400000X-0.625000X0.400000X-0.625000X0.400000X0.625000X-0.400000X0.625000X0*%
%ADD21R,3.150000X1.000000*%
%ADD22RoundRect,0.250000X-0.412500X-0.650000X0.412500X-0.650000X0.412500X0.650000X-0.412500X0.650000X0*%
%ADD23C,2.400000*%
%ADD24C,2.100000*%
%ADD25R,2.200000X2.200000*%
%ADD26C,2.200000*%
%ADD27R,1.920000X1.920000*%
%ADD28C,1.920000*%
%ADD29C,1.500000*%
%ADD30R,1.500000X1.500000*%
%ADD31RoundRect,0.250000X0.412500X0.650000X-0.412500X0.650000X-0.412500X-0.650000X0.412500X-0.650000X0*%
%ADD32R,1.600000X1.600000*%
G04 APERTURE END LIST*
D10*
X148901360Y-60867751D02*
X148863264Y-60905847D01*
X148863264Y-60905847D02*
X148748979Y-60943942D01*
X148748979Y-60943942D02*
X148672788Y-60943942D01*
X148672788Y-60943942D02*
X148558502Y-60905847D01*
X148558502Y-60905847D02*
X148482312Y-60829656D01*
X148482312Y-60829656D02*
X148444217Y-60753466D01*
X148444217Y-60753466D02*
X148406121Y-60601085D01*
X148406121Y-60601085D02*
X148406121Y-60486799D01*
X148406121Y-60486799D02*
X148444217Y-60334418D01*
X148444217Y-60334418D02*
X148482312Y-60258227D01*
X148482312Y-60258227D02*
X148558502Y-60182037D01*
X148558502Y-60182037D02*
X148672788Y-60143942D01*
X148672788Y-60143942D02*
X148748979Y-60143942D01*
X148748979Y-60143942D02*
X148863264Y-60182037D01*
X148863264Y-60182037D02*
X148901360Y-60220132D01*
X149244217Y-60943942D02*
X149244217Y-60143942D01*
X149244217Y-60524894D02*
X149701360Y-60524894D01*
X149701360Y-60943942D02*
X149701360Y-60143942D01*
X148996598Y-58353895D02*
X148958502Y-58391991D01*
X148958502Y-58391991D02*
X148844217Y-58430086D01*
X148844217Y-58430086D02*
X148768026Y-58430086D01*
X148768026Y-58430086D02*
X148653740Y-58391991D01*
X148653740Y-58391991D02*
X148577550Y-58315800D01*
X148577550Y-58315800D02*
X148539455Y-58239610D01*
X148539455Y-58239610D02*
X148501359Y-58087229D01*
X148501359Y-58087229D02*
X148501359Y-57972943D01*
X148501359Y-57972943D02*
X148539455Y-57820562D01*
X148539455Y-57820562D02*
X148577550Y-57744371D01*
X148577550Y-57744371D02*
X148653740Y-57668181D01*
X148653740Y-57668181D02*
X148768026Y-57630086D01*
X148768026Y-57630086D02*
X148844217Y-57630086D01*
X148844217Y-57630086D02*
X148958502Y-57668181D01*
X148958502Y-57668181D02*
X148996598Y-57706276D01*
X149720407Y-58430086D02*
X149339455Y-58430086D01*
X149339455Y-58430086D02*
X149339455Y-57630086D01*
X130942386Y-98980700D02*
X130866196Y-98942605D01*
X130866196Y-98942605D02*
X130751910Y-98942605D01*
X130751910Y-98942605D02*
X130637624Y-98980700D01*
X130637624Y-98980700D02*
X130561434Y-99056890D01*
X130561434Y-99056890D02*
X130523339Y-99133081D01*
X130523339Y-99133081D02*
X130485243Y-99285462D01*
X130485243Y-99285462D02*
X130485243Y-99399748D01*
X130485243Y-99399748D02*
X130523339Y-99552129D01*
X130523339Y-99552129D02*
X130561434Y-99628319D01*
X130561434Y-99628319D02*
X130637624Y-99704510D01*
X130637624Y-99704510D02*
X130751910Y-99742605D01*
X130751910Y-99742605D02*
X130828101Y-99742605D01*
X130828101Y-99742605D02*
X130942386Y-99704510D01*
X130942386Y-99704510D02*
X130980482Y-99666414D01*
X130980482Y-99666414D02*
X130980482Y-99399748D01*
X130980482Y-99399748D02*
X130828101Y-99399748D01*
X131323339Y-99742605D02*
X131323339Y-98942605D01*
X131323339Y-98942605D02*
X131780482Y-99742605D01*
X131780482Y-99742605D02*
X131780482Y-98942605D01*
X132161434Y-99742605D02*
X132161434Y-98942605D01*
X132161434Y-98942605D02*
X132351910Y-98942605D01*
X132351910Y-98942605D02*
X132466196Y-98980700D01*
X132466196Y-98980700D02*
X132542386Y-99056890D01*
X132542386Y-99056890D02*
X132580481Y-99133081D01*
X132580481Y-99133081D02*
X132618577Y-99285462D01*
X132618577Y-99285462D02*
X132618577Y-99399748D01*
X132618577Y-99399748D02*
X132580481Y-99552129D01*
X132580481Y-99552129D02*
X132542386Y-99628319D01*
X132542386Y-99628319D02*
X132466196Y-99704510D01*
X132466196Y-99704510D02*
X132351910Y-99742605D01*
X132351910Y-99742605D02*
X132161434Y-99742605D01*
X118356658Y-99769355D02*
X118089991Y-99388402D01*
X117899515Y-99769355D02*
X117899515Y-98969355D01*
X117899515Y-98969355D02*
X118204277Y-98969355D01*
X118204277Y-98969355D02*
X118280467Y-99007450D01*
X118280467Y-99007450D02*
X118318562Y-99045545D01*
X118318562Y-99045545D02*
X118356658Y-99121736D01*
X118356658Y-99121736D02*
X118356658Y-99236021D01*
X118356658Y-99236021D02*
X118318562Y-99312212D01*
X118318562Y-99312212D02*
X118280467Y-99350307D01*
X118280467Y-99350307D02*
X118204277Y-99388402D01*
X118204277Y-99388402D02*
X117899515Y-99388402D01*
X118661419Y-99731260D02*
X118775705Y-99769355D01*
X118775705Y-99769355D02*
X118966181Y-99769355D01*
X118966181Y-99769355D02*
X119042372Y-99731260D01*
X119042372Y-99731260D02*
X119080467Y-99693164D01*
X119080467Y-99693164D02*
X119118562Y-99616974D01*
X119118562Y-99616974D02*
X119118562Y-99540783D01*
X119118562Y-99540783D02*
X119080467Y-99464593D01*
X119080467Y-99464593D02*
X119042372Y-99426498D01*
X119042372Y-99426498D02*
X118966181Y-99388402D01*
X118966181Y-99388402D02*
X118813800Y-99350307D01*
X118813800Y-99350307D02*
X118737610Y-99312212D01*
X118737610Y-99312212D02*
X118699515Y-99274117D01*
X118699515Y-99274117D02*
X118661419Y-99197926D01*
X118661419Y-99197926D02*
X118661419Y-99121736D01*
X118661419Y-99121736D02*
X118699515Y-99045545D01*
X118699515Y-99045545D02*
X118737610Y-99007450D01*
X118737610Y-99007450D02*
X118813800Y-98969355D01*
X118813800Y-98969355D02*
X119004277Y-98969355D01*
X119004277Y-98969355D02*
X119118562Y-99007450D01*
X119347134Y-98969355D02*
X119804277Y-98969355D01*
X119575705Y-99769355D02*
X119575705Y-98969355D01*
X126359825Y-98969355D02*
X125978873Y-98969355D01*
X125978873Y-98969355D02*
X125940777Y-99350307D01*
X125940777Y-99350307D02*
X125978873Y-99312212D01*
X125978873Y-99312212D02*
X126055063Y-99274117D01*
X126055063Y-99274117D02*
X126245539Y-99274117D01*
X126245539Y-99274117D02*
X126321730Y-99312212D01*
X126321730Y-99312212D02*
X126359825Y-99350307D01*
X126359825Y-99350307D02*
X126397920Y-99426498D01*
X126397920Y-99426498D02*
X126397920Y-99616974D01*
X126397920Y-99616974D02*
X126359825Y-99693164D01*
X126359825Y-99693164D02*
X126321730Y-99731260D01*
X126321730Y-99731260D02*
X126245539Y-99769355D01*
X126245539Y-99769355D02*
X126055063Y-99769355D01*
X126055063Y-99769355D02*
X125978873Y-99731260D01*
X125978873Y-99731260D02*
X125940777Y-99693164D01*
X126626492Y-98969355D02*
X126893159Y-99769355D01*
X126893159Y-99769355D02*
X127159825Y-98969355D01*
X148463264Y-62320690D02*
X148387074Y-62282595D01*
X148387074Y-62282595D02*
X148272788Y-62282595D01*
X148272788Y-62282595D02*
X148158502Y-62320690D01*
X148158502Y-62320690D02*
X148082312Y-62396880D01*
X148082312Y-62396880D02*
X148044217Y-62473071D01*
X148044217Y-62473071D02*
X148006121Y-62625452D01*
X148006121Y-62625452D02*
X148006121Y-62739738D01*
X148006121Y-62739738D02*
X148044217Y-62892119D01*
X148044217Y-62892119D02*
X148082312Y-62968309D01*
X148082312Y-62968309D02*
X148158502Y-63044500D01*
X148158502Y-63044500D02*
X148272788Y-63082595D01*
X148272788Y-63082595D02*
X148348979Y-63082595D01*
X148348979Y-63082595D02*
X148463264Y-63044500D01*
X148463264Y-63044500D02*
X148501360Y-63006404D01*
X148501360Y-63006404D02*
X148501360Y-62739738D01*
X148501360Y-62739738D02*
X148348979Y-62739738D01*
X148844217Y-63082595D02*
X148844217Y-62282595D01*
X148844217Y-62282595D02*
X149301360Y-63082595D01*
X149301360Y-63082595D02*
X149301360Y-62282595D01*
X149682312Y-63082595D02*
X149682312Y-62282595D01*
X149682312Y-62282595D02*
X149872788Y-62282595D01*
X149872788Y-62282595D02*
X149987074Y-62320690D01*
X149987074Y-62320690D02*
X150063264Y-62396880D01*
X150063264Y-62396880D02*
X150101359Y-62473071D01*
X150101359Y-62473071D02*
X150139455Y-62625452D01*
X150139455Y-62625452D02*
X150139455Y-62739738D01*
X150139455Y-62739738D02*
X150101359Y-62892119D01*
X150101359Y-62892119D02*
X150063264Y-62968309D01*
X150063264Y-62968309D02*
X149987074Y-63044500D01*
X149987074Y-63044500D02*
X149872788Y-63082595D01*
X149872788Y-63082595D02*
X149682312Y-63082595D01*
X123822106Y-99756849D02*
X123555439Y-99375896D01*
X123364963Y-99756849D02*
X123364963Y-98956849D01*
X123364963Y-98956849D02*
X123669725Y-98956849D01*
X123669725Y-98956849D02*
X123745915Y-98994944D01*
X123745915Y-98994944D02*
X123784010Y-99033039D01*
X123784010Y-99033039D02*
X123822106Y-99109230D01*
X123822106Y-99109230D02*
X123822106Y-99223515D01*
X123822106Y-99223515D02*
X123784010Y-99299706D01*
X123784010Y-99299706D02*
X123745915Y-99337801D01*
X123745915Y-99337801D02*
X123669725Y-99375896D01*
X123669725Y-99375896D02*
X123364963Y-99375896D01*
X124088772Y-98956849D02*
X124622106Y-99756849D01*
X124622106Y-98956849D02*
X124088772Y-99756849D01*
X120824369Y-98981862D02*
X121281512Y-98981862D01*
X121052940Y-99781862D02*
X121052940Y-98981862D01*
X121471988Y-98981862D02*
X122005322Y-99781862D01*
X122005322Y-98981862D02*
X121471988Y-99781862D01*
X148577549Y-66159255D02*
X148120406Y-66159255D01*
X148348978Y-66159255D02*
X148348978Y-65359255D01*
X148348978Y-65359255D02*
X148272787Y-65473540D01*
X148272787Y-65473540D02*
X148196597Y-65549731D01*
X148196597Y-65549731D02*
X148120406Y-65587826D01*
X148882311Y-65435445D02*
X148920407Y-65397350D01*
X148920407Y-65397350D02*
X148996597Y-65359255D01*
X148996597Y-65359255D02*
X149187073Y-65359255D01*
X149187073Y-65359255D02*
X149263264Y-65397350D01*
X149263264Y-65397350D02*
X149301359Y-65435445D01*
X149301359Y-65435445D02*
X149339454Y-65511636D01*
X149339454Y-65511636D02*
X149339454Y-65587826D01*
X149339454Y-65587826D02*
X149301359Y-65702112D01*
X149301359Y-65702112D02*
X148844216Y-66159255D01*
X148844216Y-66159255D02*
X149339454Y-66159255D01*
X149568026Y-65359255D02*
X149834693Y-66159255D01*
X149834693Y-66159255D02*
X150101359Y-65359255D01*
X120959980Y-93100666D02*
X121007600Y-93148285D01*
X121007600Y-93148285D02*
X121055219Y-93291142D01*
X121055219Y-93291142D02*
X121055219Y-93386380D01*
X121055219Y-93386380D02*
X121007600Y-93529237D01*
X121007600Y-93529237D02*
X120912361Y-93624475D01*
X120912361Y-93624475D02*
X120817123Y-93672094D01*
X120817123Y-93672094D02*
X120626647Y-93719713D01*
X120626647Y-93719713D02*
X120483790Y-93719713D01*
X120483790Y-93719713D02*
X120293314Y-93672094D01*
X120293314Y-93672094D02*
X120198076Y-93624475D01*
X120198076Y-93624475D02*
X120102838Y-93529237D01*
X120102838Y-93529237D02*
X120055219Y-93386380D01*
X120055219Y-93386380D02*
X120055219Y-93291142D01*
X120055219Y-93291142D02*
X120102838Y-93148285D01*
X120102838Y-93148285D02*
X120150457Y-93100666D01*
X120055219Y-92767332D02*
X120055219Y-92148285D01*
X120055219Y-92148285D02*
X120436171Y-92481618D01*
X120436171Y-92481618D02*
X120436171Y-92338761D01*
X120436171Y-92338761D02*
X120483790Y-92243523D01*
X120483790Y-92243523D02*
X120531409Y-92195904D01*
X120531409Y-92195904D02*
X120626647Y-92148285D01*
X120626647Y-92148285D02*
X120864742Y-92148285D01*
X120864742Y-92148285D02*
X120959980Y-92195904D01*
X120959980Y-92195904D02*
X121007600Y-92243523D01*
X121007600Y-92243523D02*
X121055219Y-92338761D01*
X121055219Y-92338761D02*
X121055219Y-92624475D01*
X121055219Y-92624475D02*
X121007600Y-92719713D01*
X121007600Y-92719713D02*
X120959980Y-92767332D01*
X146746161Y-93426654D02*
X146746161Y-94140939D01*
X146746161Y-94140939D02*
X146698542Y-94283796D01*
X146698542Y-94283796D02*
X146603304Y-94379035D01*
X146603304Y-94379035D02*
X146460447Y-94426654D01*
X146460447Y-94426654D02*
X146365209Y-94426654D01*
X147650923Y-93426654D02*
X147460447Y-93426654D01*
X147460447Y-93426654D02*
X147365209Y-93474273D01*
X147365209Y-93474273D02*
X147317590Y-93521892D01*
X147317590Y-93521892D02*
X147222352Y-93664749D01*
X147222352Y-93664749D02*
X147174733Y-93855225D01*
X147174733Y-93855225D02*
X147174733Y-94236177D01*
X147174733Y-94236177D02*
X147222352Y-94331415D01*
X147222352Y-94331415D02*
X147269971Y-94379035D01*
X147269971Y-94379035D02*
X147365209Y-94426654D01*
X147365209Y-94426654D02*
X147555685Y-94426654D01*
X147555685Y-94426654D02*
X147650923Y-94379035D01*
X147650923Y-94379035D02*
X147698542Y-94331415D01*
X147698542Y-94331415D02*
X147746161Y-94236177D01*
X147746161Y-94236177D02*
X147746161Y-93998082D01*
X147746161Y-93998082D02*
X147698542Y-93902844D01*
X147698542Y-93902844D02*
X147650923Y-93855225D01*
X147650923Y-93855225D02*
X147555685Y-93807606D01*
X147555685Y-93807606D02*
X147365209Y-93807606D01*
X147365209Y-93807606D02*
X147269971Y-93855225D01*
X147269971Y-93855225D02*
X147222352Y-93902844D01*
X147222352Y-93902844D02*
X147174733Y-93998082D01*
X136022168Y-68312999D02*
X135545977Y-68646332D01*
X136022168Y-68884427D02*
X135022168Y-68884427D01*
X135022168Y-68884427D02*
X135022168Y-68503475D01*
X135022168Y-68503475D02*
X135069787Y-68408237D01*
X135069787Y-68408237D02*
X135117406Y-68360618D01*
X135117406Y-68360618D02*
X135212644Y-68312999D01*
X135212644Y-68312999D02*
X135355501Y-68312999D01*
X135355501Y-68312999D02*
X135450739Y-68360618D01*
X135450739Y-68360618D02*
X135498358Y-68408237D01*
X135498358Y-68408237D02*
X135545977Y-68503475D01*
X135545977Y-68503475D02*
X135545977Y-68884427D01*
X135355501Y-67455856D02*
X136022168Y-67455856D01*
X134974549Y-67693951D02*
X135688834Y-67932046D01*
X135688834Y-67932046D02*
X135688834Y-67312999D01*
X109131333Y-56535219D02*
X108798000Y-56059028D01*
X108559905Y-56535219D02*
X108559905Y-55535219D01*
X108559905Y-55535219D02*
X108940857Y-55535219D01*
X108940857Y-55535219D02*
X109036095Y-55582838D01*
X109036095Y-55582838D02*
X109083714Y-55630457D01*
X109083714Y-55630457D02*
X109131333Y-55725695D01*
X109131333Y-55725695D02*
X109131333Y-55868552D01*
X109131333Y-55868552D02*
X109083714Y-55963790D01*
X109083714Y-55963790D02*
X109036095Y-56011409D01*
X109036095Y-56011409D02*
X108940857Y-56059028D01*
X108940857Y-56059028D02*
X108559905Y-56059028D01*
X109464667Y-55535219D02*
X110131333Y-55535219D01*
X110131333Y-55535219D02*
X109702762Y-56535219D01*
X137298339Y-94735985D02*
X137298339Y-95450270D01*
X137298339Y-95450270D02*
X137250720Y-95593127D01*
X137250720Y-95593127D02*
X137155482Y-95688366D01*
X137155482Y-95688366D02*
X137012625Y-95735985D01*
X137012625Y-95735985D02*
X136917387Y-95735985D01*
X138298339Y-95735985D02*
X137726911Y-95735985D01*
X138012625Y-95735985D02*
X138012625Y-94735985D01*
X138012625Y-94735985D02*
X137917387Y-94878842D01*
X137917387Y-94878842D02*
X137822149Y-94974080D01*
X137822149Y-94974080D02*
X137726911Y-95021699D01*
X107872843Y-51885319D02*
X107872843Y-50885319D01*
X107872843Y-50885319D02*
X108444271Y-51885319D01*
X108444271Y-51885319D02*
X108444271Y-50885319D01*
X108777605Y-50885319D02*
X109349033Y-50885319D01*
X109063319Y-51885319D02*
X109063319Y-50885319D01*
X110253795Y-51790080D02*
X110206176Y-51837700D01*
X110206176Y-51837700D02*
X110063319Y-51885319D01*
X110063319Y-51885319D02*
X109968081Y-51885319D01*
X109968081Y-51885319D02*
X109825224Y-51837700D01*
X109825224Y-51837700D02*
X109729986Y-51742461D01*
X109729986Y-51742461D02*
X109682367Y-51647223D01*
X109682367Y-51647223D02*
X109634748Y-51456747D01*
X109634748Y-51456747D02*
X109634748Y-51313890D01*
X109634748Y-51313890D02*
X109682367Y-51123414D01*
X109682367Y-51123414D02*
X109729986Y-51028176D01*
X109729986Y-51028176D02*
X109825224Y-50932938D01*
X109825224Y-50932938D02*
X109968081Y-50885319D01*
X109968081Y-50885319D02*
X110063319Y-50885319D01*
X110063319Y-50885319D02*
X110206176Y-50932938D01*
X110206176Y-50932938D02*
X110253795Y-50980557D01*
X111206176Y-51885319D02*
X110634748Y-51885319D01*
X110920462Y-51885319D02*
X110920462Y-50885319D01*
X110920462Y-50885319D02*
X110825224Y-51028176D01*
X110825224Y-51028176D02*
X110729986Y-51123414D01*
X110729986Y-51123414D02*
X110634748Y-51171033D01*
X134550845Y-77293840D02*
X134503226Y-77341460D01*
X134503226Y-77341460D02*
X134360369Y-77389079D01*
X134360369Y-77389079D02*
X134265131Y-77389079D01*
X134265131Y-77389079D02*
X134122274Y-77341460D01*
X134122274Y-77341460D02*
X134027036Y-77246221D01*
X134027036Y-77246221D02*
X133979417Y-77150983D01*
X133979417Y-77150983D02*
X133931798Y-76960507D01*
X133931798Y-76960507D02*
X133931798Y-76817650D01*
X133931798Y-76817650D02*
X133979417Y-76627174D01*
X133979417Y-76627174D02*
X134027036Y-76531936D01*
X134027036Y-76531936D02*
X134122274Y-76436698D01*
X134122274Y-76436698D02*
X134265131Y-76389079D01*
X134265131Y-76389079D02*
X134360369Y-76389079D01*
X134360369Y-76389079D02*
X134503226Y-76436698D01*
X134503226Y-76436698D02*
X134550845Y-76484317D01*
X135503226Y-77389079D02*
X134931798Y-77389079D01*
X135217512Y-77389079D02*
X135217512Y-76389079D01*
X135217512Y-76389079D02*
X135122274Y-76531936D01*
X135122274Y-76531936D02*
X135027036Y-76627174D01*
X135027036Y-76627174D02*
X134931798Y-76674793D01*
X133050006Y-63708305D02*
X132573815Y-64041638D01*
X133050006Y-64279733D02*
X132050006Y-64279733D01*
X132050006Y-64279733D02*
X132050006Y-63898781D01*
X132050006Y-63898781D02*
X132097625Y-63803543D01*
X132097625Y-63803543D02*
X132145244Y-63755924D01*
X132145244Y-63755924D02*
X132240482Y-63708305D01*
X132240482Y-63708305D02*
X132383339Y-63708305D01*
X132383339Y-63708305D02*
X132478577Y-63755924D01*
X132478577Y-63755924D02*
X132526196Y-63803543D01*
X132526196Y-63803543D02*
X132573815Y-63898781D01*
X132573815Y-63898781D02*
X132573815Y-64279733D01*
X132050006Y-62851162D02*
X132050006Y-63041638D01*
X132050006Y-63041638D02*
X132097625Y-63136876D01*
X132097625Y-63136876D02*
X132145244Y-63184495D01*
X132145244Y-63184495D02*
X132288101Y-63279733D01*
X132288101Y-63279733D02*
X132478577Y-63327352D01*
X132478577Y-63327352D02*
X132859529Y-63327352D01*
X132859529Y-63327352D02*
X132954767Y-63279733D01*
X132954767Y-63279733D02*
X133002387Y-63232114D01*
X133002387Y-63232114D02*
X133050006Y-63136876D01*
X133050006Y-63136876D02*
X133050006Y-62946400D01*
X133050006Y-62946400D02*
X133002387Y-62851162D01*
X133002387Y-62851162D02*
X132954767Y-62803543D01*
X132954767Y-62803543D02*
X132859529Y-62755924D01*
X132859529Y-62755924D02*
X132621434Y-62755924D01*
X132621434Y-62755924D02*
X132526196Y-62803543D01*
X132526196Y-62803543D02*
X132478577Y-62851162D01*
X132478577Y-62851162D02*
X132430958Y-62946400D01*
X132430958Y-62946400D02*
X132430958Y-63136876D01*
X132430958Y-63136876D02*
X132478577Y-63232114D01*
X132478577Y-63232114D02*
X132526196Y-63279733D01*
X132526196Y-63279733D02*
X132621434Y-63327352D01*
X116748346Y-78128061D02*
X115748346Y-78128061D01*
X115748346Y-78128061D02*
X115748346Y-77747109D01*
X115748346Y-77747109D02*
X115795965Y-77651871D01*
X115795965Y-77651871D02*
X115843584Y-77604252D01*
X115843584Y-77604252D02*
X115938822Y-77556633D01*
X115938822Y-77556633D02*
X116081679Y-77556633D01*
X116081679Y-77556633D02*
X116176917Y-77604252D01*
X116176917Y-77604252D02*
X116224536Y-77651871D01*
X116224536Y-77651871D02*
X116272155Y-77747109D01*
X116272155Y-77747109D02*
X116272155Y-78128061D01*
X116748346Y-76985204D02*
X116700727Y-77080442D01*
X116700727Y-77080442D02*
X116653107Y-77128061D01*
X116653107Y-77128061D02*
X116557869Y-77175680D01*
X116557869Y-77175680D02*
X116272155Y-77175680D01*
X116272155Y-77175680D02*
X116176917Y-77128061D01*
X116176917Y-77128061D02*
X116129298Y-77080442D01*
X116129298Y-77080442D02*
X116081679Y-76985204D01*
X116081679Y-76985204D02*
X116081679Y-76842347D01*
X116081679Y-76842347D02*
X116129298Y-76747109D01*
X116129298Y-76747109D02*
X116176917Y-76699490D01*
X116176917Y-76699490D02*
X116272155Y-76651871D01*
X116272155Y-76651871D02*
X116557869Y-76651871D01*
X116557869Y-76651871D02*
X116653107Y-76699490D01*
X116653107Y-76699490D02*
X116700727Y-76747109D01*
X116700727Y-76747109D02*
X116748346Y-76842347D01*
X116748346Y-76842347D02*
X116748346Y-76985204D01*
X116081679Y-76318537D02*
X116748346Y-76128061D01*
X116748346Y-76128061D02*
X116272155Y-75937585D01*
X116272155Y-75937585D02*
X116748346Y-75747109D01*
X116748346Y-75747109D02*
X116081679Y-75556633D01*
X116700727Y-74794728D02*
X116748346Y-74889966D01*
X116748346Y-74889966D02*
X116748346Y-75080442D01*
X116748346Y-75080442D02*
X116700727Y-75175680D01*
X116700727Y-75175680D02*
X116605488Y-75223299D01*
X116605488Y-75223299D02*
X116224536Y-75223299D01*
X116224536Y-75223299D02*
X116129298Y-75175680D01*
X116129298Y-75175680D02*
X116081679Y-75080442D01*
X116081679Y-75080442D02*
X116081679Y-74889966D01*
X116081679Y-74889966D02*
X116129298Y-74794728D01*
X116129298Y-74794728D02*
X116224536Y-74747109D01*
X116224536Y-74747109D02*
X116319774Y-74747109D01*
X116319774Y-74747109D02*
X116415012Y-75223299D01*
X116748346Y-74318537D02*
X116081679Y-74318537D01*
X116272155Y-74318537D02*
X116176917Y-74270918D01*
X116176917Y-74270918D02*
X116129298Y-74223299D01*
X116129298Y-74223299D02*
X116081679Y-74128061D01*
X116081679Y-74128061D02*
X116081679Y-74032823D01*
X116748346Y-73699489D02*
X115748346Y-73699489D01*
X116129298Y-73699489D02*
X116081679Y-73604251D01*
X116081679Y-73604251D02*
X116081679Y-73413775D01*
X116081679Y-73413775D02*
X116129298Y-73318537D01*
X116129298Y-73318537D02*
X116176917Y-73270918D01*
X116176917Y-73270918D02*
X116272155Y-73223299D01*
X116272155Y-73223299D02*
X116557869Y-73223299D01*
X116557869Y-73223299D02*
X116653107Y-73270918D01*
X116653107Y-73270918D02*
X116700727Y-73318537D01*
X116700727Y-73318537D02*
X116748346Y-73413775D01*
X116748346Y-73413775D02*
X116748346Y-73604251D01*
X116748346Y-73604251D02*
X116700727Y-73699489D01*
X116748346Y-72651870D02*
X116700727Y-72747108D01*
X116700727Y-72747108D02*
X116653107Y-72794727D01*
X116653107Y-72794727D02*
X116557869Y-72842346D01*
X116557869Y-72842346D02*
X116272155Y-72842346D01*
X116272155Y-72842346D02*
X116176917Y-72794727D01*
X116176917Y-72794727D02*
X116129298Y-72747108D01*
X116129298Y-72747108D02*
X116081679Y-72651870D01*
X116081679Y-72651870D02*
X116081679Y-72509013D01*
X116081679Y-72509013D02*
X116129298Y-72413775D01*
X116129298Y-72413775D02*
X116176917Y-72366156D01*
X116176917Y-72366156D02*
X116272155Y-72318537D01*
X116272155Y-72318537D02*
X116557869Y-72318537D01*
X116557869Y-72318537D02*
X116653107Y-72366156D01*
X116653107Y-72366156D02*
X116700727Y-72413775D01*
X116700727Y-72413775D02*
X116748346Y-72509013D01*
X116748346Y-72509013D02*
X116748346Y-72651870D01*
X116748346Y-71461394D02*
X116224536Y-71461394D01*
X116224536Y-71461394D02*
X116129298Y-71509013D01*
X116129298Y-71509013D02*
X116081679Y-71604251D01*
X116081679Y-71604251D02*
X116081679Y-71794727D01*
X116081679Y-71794727D02*
X116129298Y-71889965D01*
X116700727Y-71461394D02*
X116748346Y-71556632D01*
X116748346Y-71556632D02*
X116748346Y-71794727D01*
X116748346Y-71794727D02*
X116700727Y-71889965D01*
X116700727Y-71889965D02*
X116605488Y-71937584D01*
X116605488Y-71937584D02*
X116510250Y-71937584D01*
X116510250Y-71937584D02*
X116415012Y-71889965D01*
X116415012Y-71889965D02*
X116367393Y-71794727D01*
X116367393Y-71794727D02*
X116367393Y-71556632D01*
X116367393Y-71556632D02*
X116319774Y-71461394D01*
X116748346Y-70985203D02*
X116081679Y-70985203D01*
X116272155Y-70985203D02*
X116176917Y-70937584D01*
X116176917Y-70937584D02*
X116129298Y-70889965D01*
X116129298Y-70889965D02*
X116081679Y-70794727D01*
X116081679Y-70794727D02*
X116081679Y-70699489D01*
X116748346Y-69937584D02*
X115748346Y-69937584D01*
X116700727Y-69937584D02*
X116748346Y-70032822D01*
X116748346Y-70032822D02*
X116748346Y-70223298D01*
X116748346Y-70223298D02*
X116700727Y-70318536D01*
X116700727Y-70318536D02*
X116653107Y-70366155D01*
X116653107Y-70366155D02*
X116557869Y-70413774D01*
X116557869Y-70413774D02*
X116272155Y-70413774D01*
X116272155Y-70413774D02*
X116176917Y-70366155D01*
X116176917Y-70366155D02*
X116129298Y-70318536D01*
X116129298Y-70318536D02*
X116081679Y-70223298D01*
X116081679Y-70223298D02*
X116081679Y-70032822D01*
X116081679Y-70032822D02*
X116129298Y-69937584D01*
X116748346Y-68937584D02*
X116748346Y-69509012D01*
X116748346Y-69223298D02*
X115748346Y-69223298D01*
X115748346Y-69223298D02*
X115891203Y-69318536D01*
X115891203Y-69318536D02*
X115986441Y-69413774D01*
X115986441Y-69413774D02*
X116034060Y-69509012D01*
X142922679Y-70003101D02*
X143636964Y-70003101D01*
X143636964Y-70003101D02*
X143779821Y-70050720D01*
X143779821Y-70050720D02*
X143875060Y-70145958D01*
X143875060Y-70145958D02*
X143922679Y-70288815D01*
X143922679Y-70288815D02*
X143922679Y-70384053D01*
X143256012Y-69098339D02*
X143922679Y-69098339D01*
X142875060Y-69336434D02*
X143589345Y-69574529D01*
X143589345Y-69574529D02*
X143589345Y-68955482D01*
D11*
X132198673Y-57441488D02*
X132198673Y-58469583D01*
X132198673Y-58469583D02*
X132259150Y-58590535D01*
X132259150Y-58590535D02*
X132319626Y-58651012D01*
X132319626Y-58651012D02*
X132440578Y-58711488D01*
X132440578Y-58711488D02*
X132682483Y-58711488D01*
X132682483Y-58711488D02*
X132803435Y-58651012D01*
X132803435Y-58651012D02*
X132863912Y-58590535D01*
X132863912Y-58590535D02*
X132924388Y-58469583D01*
X132924388Y-58469583D02*
X132924388Y-57441488D01*
X133468673Y-57562440D02*
X133529149Y-57501964D01*
X133529149Y-57501964D02*
X133650102Y-57441488D01*
X133650102Y-57441488D02*
X133952483Y-57441488D01*
X133952483Y-57441488D02*
X134073435Y-57501964D01*
X134073435Y-57501964D02*
X134133911Y-57562440D01*
X134133911Y-57562440D02*
X134194388Y-57683392D01*
X134194388Y-57683392D02*
X134194388Y-57804345D01*
X134194388Y-57804345D02*
X134133911Y-57985773D01*
X134133911Y-57985773D02*
X133408197Y-58711488D01*
X133408197Y-58711488D02*
X134194388Y-58711488D01*
D10*
X139632719Y-62248333D02*
X140347004Y-62248333D01*
X140347004Y-62248333D02*
X140489861Y-62295952D01*
X140489861Y-62295952D02*
X140585100Y-62391190D01*
X140585100Y-62391190D02*
X140632719Y-62534047D01*
X140632719Y-62534047D02*
X140632719Y-62629285D01*
X139632719Y-61295952D02*
X139632719Y-61772142D01*
X139632719Y-61772142D02*
X140108909Y-61819761D01*
X140108909Y-61819761D02*
X140061290Y-61772142D01*
X140061290Y-61772142D02*
X140013671Y-61676904D01*
X140013671Y-61676904D02*
X140013671Y-61438809D01*
X140013671Y-61438809D02*
X140061290Y-61343571D01*
X140061290Y-61343571D02*
X140108909Y-61295952D01*
X140108909Y-61295952D02*
X140204147Y-61248333D01*
X140204147Y-61248333D02*
X140442242Y-61248333D01*
X140442242Y-61248333D02*
X140537480Y-61295952D01*
X140537480Y-61295952D02*
X140585100Y-61343571D01*
X140585100Y-61343571D02*
X140632719Y-61438809D01*
X140632719Y-61438809D02*
X140632719Y-61676904D01*
X140632719Y-61676904D02*
X140585100Y-61772142D01*
X140585100Y-61772142D02*
X140537480Y-61819761D01*
D11*
X135165590Y-60509371D02*
X135105114Y-60630323D01*
X135105114Y-60630323D02*
X134984162Y-60751276D01*
X134984162Y-60751276D02*
X134802733Y-60932704D01*
X134802733Y-60932704D02*
X134742257Y-61053657D01*
X134742257Y-61053657D02*
X134742257Y-61174609D01*
X135044638Y-61114133D02*
X134984162Y-61235085D01*
X134984162Y-61235085D02*
X134863209Y-61356038D01*
X134863209Y-61356038D02*
X134621304Y-61416514D01*
X134621304Y-61416514D02*
X134197971Y-61416514D01*
X134197971Y-61416514D02*
X133956066Y-61356038D01*
X133956066Y-61356038D02*
X133835114Y-61235085D01*
X133835114Y-61235085D02*
X133774638Y-61114133D01*
X133774638Y-61114133D02*
X133774638Y-60872228D01*
X133774638Y-60872228D02*
X133835114Y-60751276D01*
X133835114Y-60751276D02*
X133956066Y-60630323D01*
X133956066Y-60630323D02*
X134197971Y-60569847D01*
X134197971Y-60569847D02*
X134621304Y-60569847D01*
X134621304Y-60569847D02*
X134863209Y-60630323D01*
X134863209Y-60630323D02*
X134984162Y-60751276D01*
X134984162Y-60751276D02*
X135044638Y-60872228D01*
X135044638Y-60872228D02*
X135044638Y-61114133D01*
X135044638Y-59360323D02*
X135044638Y-60086038D01*
X135044638Y-59723181D02*
X133774638Y-59723181D01*
X133774638Y-59723181D02*
X133956066Y-59844133D01*
X133956066Y-59844133D02*
X134077019Y-59965085D01*
X134077019Y-59965085D02*
X134137495Y-60086038D01*
D10*
X133367819Y-97805933D02*
X134082104Y-97805933D01*
X134082104Y-97805933D02*
X134224961Y-97853552D01*
X134224961Y-97853552D02*
X134320200Y-97948790D01*
X134320200Y-97948790D02*
X134367819Y-98091647D01*
X134367819Y-98091647D02*
X134367819Y-98186885D01*
X133463057Y-97377361D02*
X133415438Y-97329742D01*
X133415438Y-97329742D02*
X133367819Y-97234504D01*
X133367819Y-97234504D02*
X133367819Y-96996409D01*
X133367819Y-96996409D02*
X133415438Y-96901171D01*
X133415438Y-96901171D02*
X133463057Y-96853552D01*
X133463057Y-96853552D02*
X133558295Y-96805933D01*
X133558295Y-96805933D02*
X133653533Y-96805933D01*
X133653533Y-96805933D02*
X133796390Y-96853552D01*
X133796390Y-96853552D02*
X134367819Y-97424980D01*
X134367819Y-97424980D02*
X134367819Y-96805933D01*
X137088609Y-69990128D02*
X137088609Y-70466319D01*
X136755276Y-69466319D02*
X137088609Y-69990128D01*
X137088609Y-69990128D02*
X137421942Y-69466319D01*
X137707657Y-69561557D02*
X137755276Y-69513938D01*
X137755276Y-69513938D02*
X137850514Y-69466319D01*
X137850514Y-69466319D02*
X138088609Y-69466319D01*
X138088609Y-69466319D02*
X138183847Y-69513938D01*
X138183847Y-69513938D02*
X138231466Y-69561557D01*
X138231466Y-69561557D02*
X138279085Y-69656795D01*
X138279085Y-69656795D02*
X138279085Y-69752033D01*
X138279085Y-69752033D02*
X138231466Y-69894890D01*
X138231466Y-69894890D02*
X137660038Y-70466319D01*
X137660038Y-70466319D02*
X138279085Y-70466319D01*
D11*
X106912940Y-98101693D02*
X106308178Y-98525027D01*
X106912940Y-98827408D02*
X105642940Y-98827408D01*
X105642940Y-98827408D02*
X105642940Y-98343598D01*
X105642940Y-98343598D02*
X105703416Y-98222646D01*
X105703416Y-98222646D02*
X105763892Y-98162169D01*
X105763892Y-98162169D02*
X105884844Y-98101693D01*
X105884844Y-98101693D02*
X106066273Y-98101693D01*
X106066273Y-98101693D02*
X106187225Y-98162169D01*
X106187225Y-98162169D02*
X106247702Y-98222646D01*
X106247702Y-98222646D02*
X106308178Y-98343598D01*
X106308178Y-98343598D02*
X106308178Y-98827408D01*
X106852464Y-97073598D02*
X106912940Y-97194550D01*
X106912940Y-97194550D02*
X106912940Y-97436455D01*
X106912940Y-97436455D02*
X106852464Y-97557408D01*
X106852464Y-97557408D02*
X106731511Y-97617884D01*
X106731511Y-97617884D02*
X106247702Y-97617884D01*
X106247702Y-97617884D02*
X106126749Y-97557408D01*
X106126749Y-97557408D02*
X106066273Y-97436455D01*
X106066273Y-97436455D02*
X106066273Y-97194550D01*
X106066273Y-97194550D02*
X106126749Y-97073598D01*
X106126749Y-97073598D02*
X106247702Y-97013122D01*
X106247702Y-97013122D02*
X106368654Y-97013122D01*
X106368654Y-97013122D02*
X106489606Y-97617884D01*
X106852464Y-96529313D02*
X106912940Y-96408360D01*
X106912940Y-96408360D02*
X106912940Y-96166456D01*
X106912940Y-96166456D02*
X106852464Y-96045503D01*
X106852464Y-96045503D02*
X106731511Y-95985027D01*
X106731511Y-95985027D02*
X106671035Y-95985027D01*
X106671035Y-95985027D02*
X106550083Y-96045503D01*
X106550083Y-96045503D02*
X106489606Y-96166456D01*
X106489606Y-96166456D02*
X106489606Y-96347884D01*
X106489606Y-96347884D02*
X106429130Y-96468837D01*
X106429130Y-96468837D02*
X106308178Y-96529313D01*
X106308178Y-96529313D02*
X106247702Y-96529313D01*
X106247702Y-96529313D02*
X106126749Y-96468837D01*
X106126749Y-96468837D02*
X106066273Y-96347884D01*
X106066273Y-96347884D02*
X106066273Y-96166456D01*
X106066273Y-96166456D02*
X106126749Y-96045503D01*
X106852464Y-94956932D02*
X106912940Y-95077884D01*
X106912940Y-95077884D02*
X106912940Y-95319789D01*
X106912940Y-95319789D02*
X106852464Y-95440742D01*
X106852464Y-95440742D02*
X106731511Y-95501218D01*
X106731511Y-95501218D02*
X106247702Y-95501218D01*
X106247702Y-95501218D02*
X106126749Y-95440742D01*
X106126749Y-95440742D02*
X106066273Y-95319789D01*
X106066273Y-95319789D02*
X106066273Y-95077884D01*
X106066273Y-95077884D02*
X106126749Y-94956932D01*
X106126749Y-94956932D02*
X106247702Y-94896456D01*
X106247702Y-94896456D02*
X106368654Y-94896456D01*
X106368654Y-94896456D02*
X106489606Y-95501218D01*
X106066273Y-94533599D02*
X106066273Y-94049790D01*
X105642940Y-94352171D02*
X106731511Y-94352171D01*
X106731511Y-94352171D02*
X106852464Y-94291694D01*
X106852464Y-94291694D02*
X106912940Y-94170742D01*
X106912940Y-94170742D02*
X106912940Y-94049790D01*
X106912940Y-92961218D02*
X106912940Y-93686933D01*
X106912940Y-93324076D02*
X105642940Y-93324076D01*
X105642940Y-93324076D02*
X105824368Y-93445028D01*
X105824368Y-93445028D02*
X105945321Y-93565980D01*
X105945321Y-93565980D02*
X106005797Y-93686933D01*
D10*
X137084960Y-82769528D02*
X137084960Y-83245719D01*
X136751627Y-82245719D02*
X137084960Y-82769528D01*
X137084960Y-82769528D02*
X137418293Y-82245719D01*
X138275436Y-83245719D02*
X137704008Y-83245719D01*
X137989722Y-83245719D02*
X137989722Y-82245719D01*
X137989722Y-82245719D02*
X137894484Y-82388576D01*
X137894484Y-82388576D02*
X137799246Y-82483814D01*
X137799246Y-82483814D02*
X137704008Y-82531433D01*
X139720605Y-77293913D02*
X139672986Y-77341533D01*
X139672986Y-77341533D02*
X139530129Y-77389152D01*
X139530129Y-77389152D02*
X139434891Y-77389152D01*
X139434891Y-77389152D02*
X139292034Y-77341533D01*
X139292034Y-77341533D02*
X139196796Y-77246294D01*
X139196796Y-77246294D02*
X139149177Y-77151056D01*
X139149177Y-77151056D02*
X139101558Y-76960580D01*
X139101558Y-76960580D02*
X139101558Y-76817723D01*
X139101558Y-76817723D02*
X139149177Y-76627247D01*
X139149177Y-76627247D02*
X139196796Y-76532009D01*
X139196796Y-76532009D02*
X139292034Y-76436771D01*
X139292034Y-76436771D02*
X139434891Y-76389152D01*
X139434891Y-76389152D02*
X139530129Y-76389152D01*
X139530129Y-76389152D02*
X139672986Y-76436771D01*
X139672986Y-76436771D02*
X139720605Y-76484390D01*
X140053939Y-76389152D02*
X140720605Y-76389152D01*
X140720605Y-76389152D02*
X140292034Y-77389152D01*
X125791689Y-62064478D02*
X125791689Y-62874001D01*
X125791689Y-62874001D02*
X125839308Y-62969239D01*
X125839308Y-62969239D02*
X125886927Y-63016859D01*
X125886927Y-63016859D02*
X125982165Y-63064478D01*
X125982165Y-63064478D02*
X126172641Y-63064478D01*
X126172641Y-63064478D02*
X126267879Y-63016859D01*
X126267879Y-63016859D02*
X126315498Y-62969239D01*
X126315498Y-62969239D02*
X126363117Y-62874001D01*
X126363117Y-62874001D02*
X126363117Y-62064478D01*
X127363117Y-63064478D02*
X126791689Y-63064478D01*
X127077403Y-63064478D02*
X127077403Y-62064478D01*
X127077403Y-62064478D02*
X126982165Y-62207335D01*
X126982165Y-62207335D02*
X126886927Y-62302573D01*
X126886927Y-62302573D02*
X126791689Y-62350192D01*
D12*
%TO.C,C3*%
X117840400Y-92222748D02*
X117840400Y-93645252D01*
X119660400Y-92222748D02*
X119660400Y-93645252D01*
%TO.C,J6*%
X144340700Y-72420200D02*
X145670700Y-72420200D01*
X144340700Y-73750200D02*
X144340700Y-72420200D01*
X144340700Y-75020200D02*
X144340700Y-92860200D01*
X144340700Y-75020200D02*
X146940700Y-75020200D01*
X144340700Y-92860200D02*
X149540700Y-92860200D01*
X146940700Y-72420200D02*
X149540700Y-72420200D01*
X146940700Y-75020200D02*
X146940700Y-72420200D01*
X149540700Y-72420200D02*
X149540700Y-92860200D01*
%TO.C,R4*%
X133212700Y-68246100D02*
X133212700Y-68316100D01*
X134582700Y-66876100D02*
G75*
G02*
X131842700Y-66876100I-1370000J0D01*
G01*
X131842700Y-66876100D02*
G75*
G02*
X134582700Y-66876100I1370000J0D01*
G01*
%TO.C,R7*%
X108570936Y-56990400D02*
X110025064Y-56990400D01*
X108570936Y-58810400D02*
X110025064Y-58810400D01*
%TO.C,J1*%
X133503300Y-87362100D02*
X134943300Y-87362100D01*
X134943300Y-86792100D02*
X134943300Y-87362100D01*
X134943300Y-86792100D02*
X140143300Y-86792100D01*
X134943300Y-88882100D02*
X134943300Y-89902100D01*
X134943300Y-91422100D02*
X134943300Y-92442100D01*
X134943300Y-93962100D02*
X134943300Y-94532100D01*
X134943300Y-94532100D02*
X140143300Y-94532100D01*
X140143300Y-86792100D02*
X140143300Y-87362100D01*
X140143300Y-88882100D02*
X140143300Y-89902100D01*
X140143300Y-91422100D02*
X140143300Y-92442100D01*
X140143300Y-93962100D02*
X140143300Y-94532100D01*
%TO.C,NTC1*%
X109615700Y-53800500D02*
X109685700Y-53800500D01*
X109615700Y-53800500D02*
G75*
G02*
X106875700Y-53800500I-1370000J0D01*
G01*
X106875700Y-53800500D02*
G75*
G02*
X109615700Y-53800500I1370000J0D01*
G01*
%TO.C,C1*%
X134039248Y-77712500D02*
X135461752Y-77712500D01*
X134039248Y-79532500D02*
X135461752Y-79532500D01*
%TO.C,R6*%
X135471000Y-63583500D02*
X135401000Y-63583500D01*
X138211000Y-63583500D02*
G75*
G02*
X135471000Y-63583500I-1370000J0D01*
G01*
X135471000Y-63583500D02*
G75*
G02*
X138211000Y-63583500I1370000J0D01*
G01*
%TO.C,Powerboard1*%
X117616900Y-70018200D02*
X118946900Y-70018200D01*
X117616900Y-71348200D02*
X117616900Y-70018200D01*
X117616900Y-72618200D02*
X117616900Y-77758200D01*
X117616900Y-72618200D02*
X120276900Y-72618200D01*
X117616900Y-77758200D02*
X120276900Y-77758200D01*
X120276900Y-72618200D02*
X120276900Y-77758200D01*
%TO.C,J4*%
X144407500Y-68475300D02*
X144407500Y-71135300D01*
X147007500Y-68475300D02*
X144407500Y-68475300D01*
X147007500Y-68475300D02*
X147007500Y-71135300D01*
X147007500Y-71135300D02*
X144407500Y-71135300D01*
X148277500Y-68475300D02*
X149607500Y-68475300D01*
X149607500Y-68475300D02*
X149607500Y-69805300D01*
D13*
%TO.C,U2*%
X113954300Y-51040900D02*
X133954300Y-51040900D01*
X113954300Y-57040900D02*
X113954300Y-51040900D01*
D14*
X117554300Y-57790900D02*
X117554300Y-57790900D01*
X117554300Y-57790900D02*
X117554300Y-57790900D01*
X117554300Y-57890900D02*
X117554300Y-57890900D01*
D13*
X133954300Y-51040900D02*
X133954300Y-57040900D01*
X133954300Y-57040900D02*
X113954300Y-57040900D01*
D14*
X117554300Y-57790900D02*
G75*
G02*
X117554300Y-57890900I0J-50000D01*
G01*
X117554300Y-57890900D02*
G75*
G02*
X117554300Y-57790900I0J50000D01*
G01*
X117554300Y-57890900D02*
G75*
G02*
X117554300Y-57790900I0J50000D01*
G01*
D12*
%TO.C,J5*%
X141177900Y-56545000D02*
X147497900Y-56545000D01*
X141177900Y-67285000D02*
X141177900Y-56545000D01*
X141177900Y-67285000D02*
X147497900Y-67285000D01*
X141637900Y-67285000D02*
X141637900Y-56545000D01*
X146937900Y-67285000D02*
X146937900Y-56545000D01*
X146997900Y-67525000D02*
X147737900Y-67525000D01*
X147497900Y-67285000D02*
X147497900Y-56545000D01*
X147737900Y-67525000D02*
X147737900Y-67025000D01*
D14*
%TO.C,Q1*%
X135496700Y-50935000D02*
X135496700Y-61475000D01*
X135496700Y-61475000D02*
X138691700Y-61475000D01*
X140186700Y-50935000D02*
X135496700Y-50935000D01*
D12*
%TO.C,J2*%
X117553000Y-96142600D02*
X117553000Y-98802600D01*
X130313000Y-96142600D02*
X117553000Y-96142600D01*
X130313000Y-96142600D02*
X130313000Y-98802600D01*
X130313000Y-98802600D02*
X117553000Y-98802600D01*
X131583000Y-96142600D02*
X132913000Y-96142600D01*
X132913000Y-96142600D02*
X132913000Y-97472600D01*
%TO.C,Y2*%
X134439800Y-71011500D02*
X140689800Y-71011500D01*
X134439800Y-76061500D02*
X140689800Y-76061500D01*
X134439800Y-76061500D02*
G75*
G02*
X134439800Y-71011500I0J2525000D01*
G01*
X140689800Y-71011500D02*
G75*
G02*
X140689800Y-76061500I0J-2525000D01*
G01*
D14*
%TO.C,Reset1*%
X108514200Y-94681600D02*
X108514200Y-97081600D01*
X113614200Y-92881600D02*
X109414200Y-92881600D01*
X113614200Y-98881600D02*
X109414200Y-98881600D01*
X114514200Y-94681600D02*
X114514200Y-97081600D01*
X116114200Y-98131600D02*
X116114200Y-98131600D01*
X116214200Y-98131600D02*
X116114200Y-98131600D01*
X116214200Y-98131600D02*
X116214200Y-98131600D01*
X116114200Y-98131600D02*
G75*
G02*
X116214200Y-98131600I50000J0D01*
G01*
X116214200Y-98131600D02*
G75*
G02*
X116114200Y-98131600I-50000J0D01*
G01*
D12*
%TO.C,Y1*%
X134414900Y-80265900D02*
X140664900Y-80265900D01*
X134414900Y-85315900D02*
X140664900Y-85315900D01*
X134414900Y-85315900D02*
G75*
G02*
X134414900Y-80265900I0J2525000D01*
G01*
X140664900Y-80265900D02*
G75*
G02*
X140664900Y-85315900I0J-2525000D01*
G01*
%TO.C,C7*%
X140732652Y-77723600D02*
X139310148Y-77723600D01*
X140732652Y-79543600D02*
X139310148Y-79543600D01*
%TO.C,U1*%
X123819400Y-59276700D02*
X123819400Y-94956700D01*
X123819400Y-94956700D02*
X129119400Y-94956700D01*
X125469400Y-59276700D02*
X123819400Y-59276700D01*
X129119400Y-59276700D02*
X127469400Y-59276700D01*
X129119400Y-94956700D02*
X129119400Y-59276700D01*
X127469400Y-59276700D02*
G75*
G02*
X125469400Y-59276700I-1000000J0D01*
G01*
%TD*%
%LPC*%
D15*
%TO.C,C3*%
X118750400Y-91371500D03*
X118750400Y-94496500D03*
%TD*%
D16*
%TO.C,J6*%
X145670700Y-73750200D03*
D17*
X148210700Y-73750200D03*
X145670700Y-76290200D03*
X148210700Y-76290200D03*
X145670700Y-78830200D03*
X148210700Y-78830200D03*
X145670700Y-81370200D03*
X148210700Y-81370200D03*
X145670700Y-83910200D03*
X148210700Y-83910200D03*
X145670700Y-86450200D03*
X148210700Y-86450200D03*
X145670700Y-88990200D03*
X148210700Y-88990200D03*
X145670700Y-91530200D03*
X148210700Y-91530200D03*
%TD*%
D18*
%TO.C,R4*%
X133212700Y-66876100D03*
D19*
X133212700Y-69416100D03*
%TD*%
D20*
%TO.C,R7*%
X107748000Y-57900400D03*
X110848000Y-57900400D03*
%TD*%
D21*
%TO.C,J1*%
X135018300Y-88122100D03*
X140068300Y-88122100D03*
X135018300Y-90662100D03*
X140068300Y-90662100D03*
X135018300Y-93202100D03*
X140068300Y-93202100D03*
%TD*%
D18*
%TO.C,NTC1*%
X108245700Y-53800500D03*
D19*
X110785700Y-53800500D03*
%TD*%
D22*
%TO.C,C1*%
X133188000Y-78622500D03*
X136313000Y-78622500D03*
%TD*%
D18*
%TO.C,R6*%
X136841000Y-63583500D03*
D19*
X134301000Y-63583500D03*
%TD*%
D16*
%TO.C,Powerboard1*%
X118946900Y-71348200D03*
D17*
X118946900Y-73888200D03*
X118946900Y-76428200D03*
%TD*%
D16*
%TO.C,J4*%
X148277500Y-69805300D03*
D17*
X145737500Y-69805300D03*
%TD*%
D23*
%TO.C,U2*%
X123954300Y-54040900D03*
D24*
X117554300Y-55290900D03*
X121054300Y-55290900D03*
X126854300Y-55290900D03*
X130354300Y-55290900D03*
X130354300Y-52790900D03*
X126854300Y-52790900D03*
X121054300Y-52790900D03*
X117554300Y-52790900D03*
%TD*%
D25*
%TO.C,J5*%
X144337900Y-65725000D03*
D26*
X144337900Y-63185000D03*
X144337900Y-60645000D03*
X144337900Y-58105000D03*
%TD*%
D27*
%TO.C,Q1*%
X138691700Y-58745000D03*
D28*
X138691700Y-56205000D03*
X138691700Y-53665000D03*
%TD*%
D16*
%TO.C,J2*%
X131583000Y-97472600D03*
D17*
X129043000Y-97472600D03*
X126503000Y-97472600D03*
X123963000Y-97472600D03*
X121423000Y-97472600D03*
X118883000Y-97472600D03*
%TD*%
D29*
%TO.C,Y2*%
X135124800Y-73536500D03*
X140004800Y-73536500D03*
%TD*%
D30*
%TO.C,Reset1*%
X114764200Y-98131600D03*
D29*
X108264200Y-98131600D03*
X114764200Y-93631600D03*
X108264200Y-93631600D03*
%TD*%
%TO.C,Y1*%
X135099900Y-82790900D03*
X139979900Y-82790900D03*
%TD*%
D31*
%TO.C,C7*%
X141583900Y-78633600D03*
X138458900Y-78633600D03*
%TD*%
D32*
%TO.C,U1*%
X122659400Y-60606700D03*
D19*
X122659400Y-63146700D03*
X122659400Y-65686700D03*
X122659400Y-68226700D03*
X122659400Y-70766700D03*
X122659400Y-73306700D03*
X122659400Y-75846700D03*
X122659400Y-78386700D03*
X122659400Y-80926700D03*
X122659400Y-83466700D03*
X122659400Y-86006700D03*
X122659400Y-88546700D03*
X122659400Y-91086700D03*
X122659400Y-93626700D03*
X130279400Y-93626700D03*
X130279400Y-91086700D03*
X130279400Y-88546700D03*
X130279400Y-86006700D03*
X130279400Y-83466700D03*
X130279400Y-80926700D03*
X130279400Y-78386700D03*
X130279400Y-75846700D03*
X130279400Y-73306700D03*
X130279400Y-70766700D03*
X130279400Y-68226700D03*
X130279400Y-65686700D03*
X130279400Y-63146700D03*
X130279400Y-60606700D03*
%TD*%
%LPD*%
M02*
