%TF.GenerationSoftware,KiCad,Pcbnew,8.0.1-rc1*%
%TF.CreationDate,2024-04-11T19:34:16-07:00*%
%TF.ProjectId,Automotive Monitoring System CANBus Sensor,4175746f-6d6f-4746-9976-65204d6f6e69,rev?*%
%TF.SameCoordinates,Original*%
%TF.FileFunction,Legend,Bot*%
%TF.FilePolarity,Positive*%
%FSLAX46Y46*%
G04 Gerber Fmt 4.6, Leading zero omitted, Abs format (unit mm)*
G04 Created by KiCad (PCBNEW 8.0.1-rc1) date 2024-04-11 19:34:16*
%MOMM*%
%LPD*%
G01*
G04 APERTURE LIST*
G04 Aperture macros list*
%AMRoundRect*
0 Rectangle with rounded corners*
0 $1 Rounding radius*
0 $2 $3 $4 $5 $6 $7 $8 $9 X,Y pos of 4 corners*
0 Add a 4 corners polygon primitive as box body*
4,1,4,$2,$3,$4,$5,$6,$7,$8,$9,$2,$3,0*
0 Add four circle primitives for the rounded corners*
1,1,$1+$1,$2,$3*
1,1,$1+$1,$4,$5*
1,1,$1+$1,$6,$7*
1,1,$1+$1,$8,$9*
0 Add four rect primitives between the rounded corners*
20,1,$1+$1,$2,$3,$4,$5,0*
20,1,$1+$1,$4,$5,$6,$7,0*
20,1,$1+$1,$6,$7,$8,$9,0*
20,1,$1+$1,$8,$9,$2,$3,0*%
G04 Aperture macros list end*
%ADD10C,0.150000*%
%ADD11C,0.254000*%
%ADD12C,0.120000*%
%ADD13C,0.200000*%
%ADD14R,1.700000X1.700000*%
%ADD15O,1.700000X1.700000*%
%ADD16C,1.600000*%
%ADD17O,1.600000X1.600000*%
%ADD18C,2.400000*%
%ADD19C,2.100000*%
%ADD20R,2.200000X2.200000*%
%ADD21C,2.200000*%
%ADD22R,1.920000X1.920000*%
%ADD23C,1.920000*%
%ADD24C,1.500000*%
%ADD25R,1.500000X1.500000*%
%ADD26R,1.600000X1.600000*%
%ADD27RoundRect,0.250000X-0.412500X-0.650000X0.412500X-0.650000X0.412500X0.650000X-0.412500X0.650000X0*%
%ADD28RoundRect,0.150000X0.875000X0.150000X-0.875000X0.150000X-0.875000X-0.150000X0.875000X-0.150000X0*%
%ADD29RoundRect,0.250000X0.400000X0.625000X-0.400000X0.625000X-0.400000X-0.625000X0.400000X-0.625000X0*%
%ADD30RoundRect,0.250000X-0.650000X0.412500X-0.650000X-0.412500X0.650000X-0.412500X0.650000X0.412500X0*%
%ADD31RoundRect,0.150000X0.825000X0.150000X-0.825000X0.150000X-0.825000X-0.150000X0.825000X-0.150000X0*%
%ADD32RoundRect,0.250000X0.625000X-0.400000X0.625000X0.400000X-0.625000X0.400000X-0.625000X-0.400000X0*%
%ADD33RoundRect,0.250000X-0.625000X0.400000X-0.625000X-0.400000X0.625000X-0.400000X0.625000X0.400000X0*%
%ADD34R,1.000000X0.550000*%
%ADD35RoundRect,0.250000X0.412500X0.650000X-0.412500X0.650000X-0.412500X-0.650000X0.412500X-0.650000X0*%
G04 APERTURE END LIST*
D10*
X134923766Y-80830780D02*
X134971385Y-80878400D01*
X134971385Y-80878400D02*
X135114242Y-80926019D01*
X135114242Y-80926019D02*
X135209480Y-80926019D01*
X135209480Y-80926019D02*
X135352337Y-80878400D01*
X135352337Y-80878400D02*
X135447575Y-80783161D01*
X135447575Y-80783161D02*
X135495194Y-80687923D01*
X135495194Y-80687923D02*
X135542813Y-80497447D01*
X135542813Y-80497447D02*
X135542813Y-80354590D01*
X135542813Y-80354590D02*
X135495194Y-80164114D01*
X135495194Y-80164114D02*
X135447575Y-80068876D01*
X135447575Y-80068876D02*
X135352337Y-79973638D01*
X135352337Y-79973638D02*
X135209480Y-79926019D01*
X135209480Y-79926019D02*
X135114242Y-79926019D01*
X135114242Y-79926019D02*
X134971385Y-79973638D01*
X134971385Y-79973638D02*
X134923766Y-80021257D01*
X134542813Y-80021257D02*
X134495194Y-79973638D01*
X134495194Y-79973638D02*
X134399956Y-79926019D01*
X134399956Y-79926019D02*
X134161861Y-79926019D01*
X134161861Y-79926019D02*
X134066623Y-79973638D01*
X134066623Y-79973638D02*
X134019004Y-80021257D01*
X134019004Y-80021257D02*
X133971385Y-80116495D01*
X133971385Y-80116495D02*
X133971385Y-80211733D01*
X133971385Y-80211733D02*
X134019004Y-80354590D01*
X134019004Y-80354590D02*
X134590432Y-80926019D01*
X134590432Y-80926019D02*
X133971385Y-80926019D01*
X109816504Y-66553219D02*
X109816504Y-67362742D01*
X109816504Y-67362742D02*
X109768885Y-67457980D01*
X109768885Y-67457980D02*
X109721266Y-67505600D01*
X109721266Y-67505600D02*
X109626028Y-67553219D01*
X109626028Y-67553219D02*
X109435552Y-67553219D01*
X109435552Y-67553219D02*
X109340314Y-67505600D01*
X109340314Y-67505600D02*
X109292695Y-67457980D01*
X109292695Y-67457980D02*
X109245076Y-67362742D01*
X109245076Y-67362742D02*
X109245076Y-66553219D01*
X108340314Y-66886552D02*
X108340314Y-67553219D01*
X108578409Y-66505600D02*
X108816504Y-67219885D01*
X108816504Y-67219885D02*
X108197457Y-67219885D01*
X137709966Y-89296919D02*
X138043299Y-88820728D01*
X138281394Y-89296919D02*
X138281394Y-88296919D01*
X138281394Y-88296919D02*
X137900442Y-88296919D01*
X137900442Y-88296919D02*
X137805204Y-88344538D01*
X137805204Y-88344538D02*
X137757585Y-88392157D01*
X137757585Y-88392157D02*
X137709966Y-88487395D01*
X137709966Y-88487395D02*
X137709966Y-88630252D01*
X137709966Y-88630252D02*
X137757585Y-88725490D01*
X137757585Y-88725490D02*
X137805204Y-88773109D01*
X137805204Y-88773109D02*
X137900442Y-88820728D01*
X137900442Y-88820728D02*
X138281394Y-88820728D01*
X136757585Y-89296919D02*
X137329013Y-89296919D01*
X137043299Y-89296919D02*
X137043299Y-88296919D01*
X137043299Y-88296919D02*
X137138537Y-88439776D01*
X137138537Y-88439776D02*
X137233775Y-88535014D01*
X137233775Y-88535014D02*
X137329013Y-88582633D01*
X105865280Y-62990233D02*
X105912900Y-62942614D01*
X105912900Y-62942614D02*
X105960519Y-62799757D01*
X105960519Y-62799757D02*
X105960519Y-62704519D01*
X105960519Y-62704519D02*
X105912900Y-62561662D01*
X105912900Y-62561662D02*
X105817661Y-62466424D01*
X105817661Y-62466424D02*
X105722423Y-62418805D01*
X105722423Y-62418805D02*
X105531947Y-62371186D01*
X105531947Y-62371186D02*
X105389090Y-62371186D01*
X105389090Y-62371186D02*
X105198614Y-62418805D01*
X105198614Y-62418805D02*
X105103376Y-62466424D01*
X105103376Y-62466424D02*
X105008138Y-62561662D01*
X105008138Y-62561662D02*
X104960519Y-62704519D01*
X104960519Y-62704519D02*
X104960519Y-62799757D01*
X104960519Y-62799757D02*
X105008138Y-62942614D01*
X105008138Y-62942614D02*
X105055757Y-62990233D01*
X105293852Y-63847376D02*
X105960519Y-63847376D01*
X104912900Y-63609281D02*
X105627185Y-63371186D01*
X105627185Y-63371186D02*
X105627185Y-63990233D01*
X139337204Y-65154819D02*
X139337204Y-65964342D01*
X139337204Y-65964342D02*
X139289585Y-66059580D01*
X139289585Y-66059580D02*
X139241966Y-66107200D01*
X139241966Y-66107200D02*
X139146728Y-66154819D01*
X139146728Y-66154819D02*
X138956252Y-66154819D01*
X138956252Y-66154819D02*
X138861014Y-66107200D01*
X138861014Y-66107200D02*
X138813395Y-66059580D01*
X138813395Y-66059580D02*
X138765776Y-65964342D01*
X138765776Y-65964342D02*
X138765776Y-65154819D01*
X138384823Y-65154819D02*
X137765776Y-65154819D01*
X137765776Y-65154819D02*
X138099109Y-65535771D01*
X138099109Y-65535771D02*
X137956252Y-65535771D01*
X137956252Y-65535771D02*
X137861014Y-65583390D01*
X137861014Y-65583390D02*
X137813395Y-65631009D01*
X137813395Y-65631009D02*
X137765776Y-65726247D01*
X137765776Y-65726247D02*
X137765776Y-65964342D01*
X137765776Y-65964342D02*
X137813395Y-66059580D01*
X137813395Y-66059580D02*
X137861014Y-66107200D01*
X137861014Y-66107200D02*
X137956252Y-66154819D01*
X137956252Y-66154819D02*
X138241966Y-66154819D01*
X138241966Y-66154819D02*
X138337204Y-66107200D01*
X138337204Y-66107200D02*
X138384823Y-66059580D01*
X104657719Y-64644933D02*
X104181528Y-64311600D01*
X104657719Y-64073505D02*
X103657719Y-64073505D01*
X103657719Y-64073505D02*
X103657719Y-64454457D01*
X103657719Y-64454457D02*
X103705338Y-64549695D01*
X103705338Y-64549695D02*
X103752957Y-64597314D01*
X103752957Y-64597314D02*
X103848195Y-64644933D01*
X103848195Y-64644933D02*
X103991052Y-64644933D01*
X103991052Y-64644933D02*
X104086290Y-64597314D01*
X104086290Y-64597314D02*
X104133909Y-64549695D01*
X104133909Y-64549695D02*
X104181528Y-64454457D01*
X104181528Y-64454457D02*
X104181528Y-64073505D01*
X103657719Y-65549695D02*
X103657719Y-65073505D01*
X103657719Y-65073505D02*
X104133909Y-65025886D01*
X104133909Y-65025886D02*
X104086290Y-65073505D01*
X104086290Y-65073505D02*
X104038671Y-65168743D01*
X104038671Y-65168743D02*
X104038671Y-65406838D01*
X104038671Y-65406838D02*
X104086290Y-65502076D01*
X104086290Y-65502076D02*
X104133909Y-65549695D01*
X104133909Y-65549695D02*
X104229147Y-65597314D01*
X104229147Y-65597314D02*
X104467242Y-65597314D01*
X104467242Y-65597314D02*
X104562480Y-65549695D01*
X104562480Y-65549695D02*
X104610100Y-65502076D01*
X104610100Y-65502076D02*
X104657719Y-65406838D01*
X104657719Y-65406838D02*
X104657719Y-65168743D01*
X104657719Y-65168743D02*
X104610100Y-65073505D01*
X104610100Y-65073505D02*
X104562480Y-65025886D01*
X128734219Y-76940033D02*
X128258028Y-76606700D01*
X128734219Y-76368605D02*
X127734219Y-76368605D01*
X127734219Y-76368605D02*
X127734219Y-76749557D01*
X127734219Y-76749557D02*
X127781838Y-76844795D01*
X127781838Y-76844795D02*
X127829457Y-76892414D01*
X127829457Y-76892414D02*
X127924695Y-76940033D01*
X127924695Y-76940033D02*
X128067552Y-76940033D01*
X128067552Y-76940033D02*
X128162790Y-76892414D01*
X128162790Y-76892414D02*
X128210409Y-76844795D01*
X128210409Y-76844795D02*
X128258028Y-76749557D01*
X128258028Y-76749557D02*
X128258028Y-76368605D01*
X127734219Y-77273367D02*
X127734219Y-77892414D01*
X127734219Y-77892414D02*
X128115171Y-77559081D01*
X128115171Y-77559081D02*
X128115171Y-77701938D01*
X128115171Y-77701938D02*
X128162790Y-77797176D01*
X128162790Y-77797176D02*
X128210409Y-77844795D01*
X128210409Y-77844795D02*
X128305647Y-77892414D01*
X128305647Y-77892414D02*
X128543742Y-77892414D01*
X128543742Y-77892414D02*
X128638980Y-77844795D01*
X128638980Y-77844795D02*
X128686600Y-77797176D01*
X128686600Y-77797176D02*
X128734219Y-77701938D01*
X128734219Y-77701938D02*
X128734219Y-77416224D01*
X128734219Y-77416224D02*
X128686600Y-77320986D01*
X128686600Y-77320986D02*
X128638980Y-77273367D01*
X141835919Y-53086333D02*
X141359728Y-52753000D01*
X141835919Y-52514905D02*
X140835919Y-52514905D01*
X140835919Y-52514905D02*
X140835919Y-52895857D01*
X140835919Y-52895857D02*
X140883538Y-52991095D01*
X140883538Y-52991095D02*
X140931157Y-53038714D01*
X140931157Y-53038714D02*
X141026395Y-53086333D01*
X141026395Y-53086333D02*
X141169252Y-53086333D01*
X141169252Y-53086333D02*
X141264490Y-53038714D01*
X141264490Y-53038714D02*
X141312109Y-52991095D01*
X141312109Y-52991095D02*
X141359728Y-52895857D01*
X141359728Y-52895857D02*
X141359728Y-52514905D01*
X140931157Y-53467286D02*
X140883538Y-53514905D01*
X140883538Y-53514905D02*
X140835919Y-53610143D01*
X140835919Y-53610143D02*
X140835919Y-53848238D01*
X140835919Y-53848238D02*
X140883538Y-53943476D01*
X140883538Y-53943476D02*
X140931157Y-53991095D01*
X140931157Y-53991095D02*
X141026395Y-54038714D01*
X141026395Y-54038714D02*
X141121633Y-54038714D01*
X141121633Y-54038714D02*
X141264490Y-53991095D01*
X141264490Y-53991095D02*
X141835919Y-53419667D01*
X141835919Y-53419667D02*
X141835919Y-54038714D01*
X109612280Y-62916333D02*
X109659900Y-62868714D01*
X109659900Y-62868714D02*
X109707519Y-62725857D01*
X109707519Y-62725857D02*
X109707519Y-62630619D01*
X109707519Y-62630619D02*
X109659900Y-62487762D01*
X109659900Y-62487762D02*
X109564661Y-62392524D01*
X109564661Y-62392524D02*
X109469423Y-62344905D01*
X109469423Y-62344905D02*
X109278947Y-62297286D01*
X109278947Y-62297286D02*
X109136090Y-62297286D01*
X109136090Y-62297286D02*
X108945614Y-62344905D01*
X108945614Y-62344905D02*
X108850376Y-62392524D01*
X108850376Y-62392524D02*
X108755138Y-62487762D01*
X108755138Y-62487762D02*
X108707519Y-62630619D01*
X108707519Y-62630619D02*
X108707519Y-62725857D01*
X108707519Y-62725857D02*
X108755138Y-62868714D01*
X108755138Y-62868714D02*
X108802757Y-62916333D01*
X108707519Y-63821095D02*
X108707519Y-63344905D01*
X108707519Y-63344905D02*
X109183709Y-63297286D01*
X109183709Y-63297286D02*
X109136090Y-63344905D01*
X109136090Y-63344905D02*
X109088471Y-63440143D01*
X109088471Y-63440143D02*
X109088471Y-63678238D01*
X109088471Y-63678238D02*
X109136090Y-63773476D01*
X109136090Y-63773476D02*
X109183709Y-63821095D01*
X109183709Y-63821095D02*
X109278947Y-63868714D01*
X109278947Y-63868714D02*
X109517042Y-63868714D01*
X109517042Y-63868714D02*
X109612280Y-63821095D01*
X109612280Y-63821095D02*
X109659900Y-63773476D01*
X109659900Y-63773476D02*
X109707519Y-63678238D01*
X109707519Y-63678238D02*
X109707519Y-63440143D01*
X109707519Y-63440143D02*
X109659900Y-63344905D01*
X109659900Y-63344905D02*
X109612280Y-63297286D01*
D11*
X141268181Y-61297700D02*
X141268181Y-60027700D01*
X141268181Y-60027700D02*
X140965800Y-60027700D01*
X140965800Y-60027700D02*
X140784371Y-60088176D01*
X140784371Y-60088176D02*
X140663419Y-60209128D01*
X140663419Y-60209128D02*
X140602942Y-60330081D01*
X140602942Y-60330081D02*
X140542466Y-60571985D01*
X140542466Y-60571985D02*
X140542466Y-60753414D01*
X140542466Y-60753414D02*
X140602942Y-60995319D01*
X140602942Y-60995319D02*
X140663419Y-61116271D01*
X140663419Y-61116271D02*
X140784371Y-61237224D01*
X140784371Y-61237224D02*
X140965800Y-61297700D01*
X140965800Y-61297700D02*
X141268181Y-61297700D01*
X139332942Y-61297700D02*
X140058657Y-61297700D01*
X139695800Y-61297700D02*
X139695800Y-60027700D01*
X139695800Y-60027700D02*
X139816752Y-60209128D01*
X139816752Y-60209128D02*
X139937704Y-60330081D01*
X139937704Y-60330081D02*
X140058657Y-60390557D01*
D10*
X140182066Y-77140580D02*
X140229685Y-77188200D01*
X140229685Y-77188200D02*
X140372542Y-77235819D01*
X140372542Y-77235819D02*
X140467780Y-77235819D01*
X140467780Y-77235819D02*
X140610637Y-77188200D01*
X140610637Y-77188200D02*
X140705875Y-77092961D01*
X140705875Y-77092961D02*
X140753494Y-76997723D01*
X140753494Y-76997723D02*
X140801113Y-76807247D01*
X140801113Y-76807247D02*
X140801113Y-76664390D01*
X140801113Y-76664390D02*
X140753494Y-76473914D01*
X140753494Y-76473914D02*
X140705875Y-76378676D01*
X140705875Y-76378676D02*
X140610637Y-76283438D01*
X140610637Y-76283438D02*
X140467780Y-76235819D01*
X140467780Y-76235819D02*
X140372542Y-76235819D01*
X140372542Y-76235819D02*
X140229685Y-76283438D01*
X140229685Y-76283438D02*
X140182066Y-76331057D01*
X139324923Y-76235819D02*
X139515399Y-76235819D01*
X139515399Y-76235819D02*
X139610637Y-76283438D01*
X139610637Y-76283438D02*
X139658256Y-76331057D01*
X139658256Y-76331057D02*
X139753494Y-76473914D01*
X139753494Y-76473914D02*
X139801113Y-76664390D01*
X139801113Y-76664390D02*
X139801113Y-77045342D01*
X139801113Y-77045342D02*
X139753494Y-77140580D01*
X139753494Y-77140580D02*
X139705875Y-77188200D01*
X139705875Y-77188200D02*
X139610637Y-77235819D01*
X139610637Y-77235819D02*
X139420161Y-77235819D01*
X139420161Y-77235819D02*
X139324923Y-77188200D01*
X139324923Y-77188200D02*
X139277304Y-77140580D01*
X139277304Y-77140580D02*
X139229685Y-77045342D01*
X139229685Y-77045342D02*
X139229685Y-76807247D01*
X139229685Y-76807247D02*
X139277304Y-76712009D01*
X139277304Y-76712009D02*
X139324923Y-76664390D01*
X139324923Y-76664390D02*
X139420161Y-76616771D01*
X139420161Y-76616771D02*
X139610637Y-76616771D01*
X139610637Y-76616771D02*
X139705875Y-76664390D01*
X139705875Y-76664390D02*
X139753494Y-76712009D01*
X139753494Y-76712009D02*
X139801113Y-76807247D01*
D12*
%TO.C,C2*%
X135468352Y-77711200D02*
X134045848Y-77711200D01*
X135468352Y-79531200D02*
X134045848Y-79531200D01*
%TO.C,U4*%
X105194600Y-67933400D02*
X109054600Y-67933400D01*
X105194600Y-68178400D02*
X105194600Y-67933400D01*
X105194600Y-79458400D02*
X105194600Y-79703400D01*
X105194600Y-79703400D02*
X109054600Y-79703400D01*
X112914600Y-67933400D02*
X109054600Y-67933400D01*
X112914600Y-68178400D02*
X112914600Y-67933400D01*
X112914600Y-79458400D02*
X112914600Y-79703400D01*
X112914600Y-79703400D02*
X109054600Y-79703400D01*
X113767100Y-68178400D02*
X113427100Y-67708400D01*
X114107100Y-67708400D01*
X113767100Y-68178400D01*
G36*
X113767100Y-68178400D02*
G01*
X113427100Y-67708400D01*
X114107100Y-67708400D01*
X113767100Y-68178400D01*
G37*
%TO.C,R1*%
X136816236Y-89752100D02*
X138270364Y-89752100D01*
X136816236Y-91572100D02*
X138270364Y-91572100D01*
%TO.C,C4*%
X106445700Y-63868152D02*
X106445700Y-62445648D01*
X108265700Y-63868152D02*
X108265700Y-62445648D01*
%TO.C,U3*%
X136625300Y-66540000D02*
X138575300Y-66540000D01*
X136625300Y-71660000D02*
X138575300Y-71660000D01*
X140525300Y-66540000D02*
X138575300Y-66540000D01*
X140525300Y-71660000D02*
X138575300Y-71660000D01*
X141275300Y-66635000D02*
X141035300Y-66305000D01*
X141515300Y-66305000D01*
X141275300Y-66635000D01*
G36*
X141275300Y-66635000D02*
G01*
X141035300Y-66305000D01*
X141515300Y-66305000D01*
X141275300Y-66635000D01*
G37*
%TO.C,R5*%
X101472900Y-64084536D02*
X101472900Y-65538664D01*
X103292900Y-64084536D02*
X103292900Y-65538664D01*
%TO.C,R3*%
X125549400Y-76379636D02*
X125549400Y-77833764D01*
X127369400Y-76379636D02*
X127369400Y-77833764D01*
%TO.C,R2*%
X142291100Y-53980064D02*
X142291100Y-52525936D01*
X144111100Y-53980064D02*
X144111100Y-52525936D01*
%TO.C,C5*%
X110192700Y-63794252D02*
X110192700Y-62371748D01*
X112012700Y-63794252D02*
X112012700Y-62371748D01*
D13*
%TO.C,D1*%
X140169800Y-61834400D02*
X140369800Y-61834400D01*
X140169800Y-63834400D02*
X140169800Y-61834400D01*
X140369800Y-61834400D02*
X140369800Y-63834400D01*
X140369800Y-63834400D02*
X140169800Y-63834400D01*
X140719800Y-61659400D02*
X141719800Y-61659400D01*
D12*
%TO.C,C6*%
X139304148Y-77721000D02*
X140726652Y-77721000D01*
X139304148Y-79541000D02*
X140726652Y-79541000D01*
%TD*%
%LPC*%
D14*
%TO.C,J6*%
X145670700Y-73750200D03*
D15*
X148210700Y-73750200D03*
X145670700Y-76290200D03*
X148210700Y-76290200D03*
X145670700Y-78830200D03*
X148210700Y-78830200D03*
X145670700Y-81370200D03*
X148210700Y-81370200D03*
X145670700Y-83910200D03*
X148210700Y-83910200D03*
X145670700Y-86450200D03*
X148210700Y-86450200D03*
X145670700Y-88990200D03*
X148210700Y-88990200D03*
X145670700Y-91530200D03*
X148210700Y-91530200D03*
%TD*%
D16*
%TO.C,R4*%
X133212700Y-66876100D03*
D17*
X133212700Y-69416100D03*
%TD*%
D16*
%TO.C,NTC1*%
X108245700Y-53800500D03*
D17*
X110785700Y-53800500D03*
%TD*%
D16*
%TO.C,R6*%
X136841000Y-63583500D03*
D17*
X134301000Y-63583500D03*
%TD*%
D14*
%TO.C,Powerboard1*%
X118946900Y-71348200D03*
D15*
X118946900Y-73888200D03*
X118946900Y-76428200D03*
%TD*%
D14*
%TO.C,J4*%
X148277500Y-69805300D03*
D15*
X145737500Y-69805300D03*
%TD*%
D18*
%TO.C,U2*%
X123954300Y-54040900D03*
D19*
X117554300Y-55290900D03*
X121054300Y-55290900D03*
X126854300Y-55290900D03*
X130354300Y-55290900D03*
X130354300Y-52790900D03*
X126854300Y-52790900D03*
X121054300Y-52790900D03*
X117554300Y-52790900D03*
%TD*%
D20*
%TO.C,J5*%
X144337900Y-65725000D03*
D21*
X144337900Y-63185000D03*
X144337900Y-60645000D03*
X144337900Y-58105000D03*
%TD*%
D22*
%TO.C,Q1*%
X138691700Y-58745000D03*
D23*
X138691700Y-56205000D03*
X138691700Y-53665000D03*
%TD*%
D14*
%TO.C,J2*%
X131583000Y-97472600D03*
D15*
X129043000Y-97472600D03*
X126503000Y-97472600D03*
X123963000Y-97472600D03*
X121423000Y-97472600D03*
X118883000Y-97472600D03*
%TD*%
D24*
%TO.C,Y2*%
X135124800Y-73536500D03*
X140004800Y-73536500D03*
%TD*%
D25*
%TO.C,Reset1*%
X114764200Y-98131600D03*
D24*
X108264200Y-98131600D03*
X114764200Y-93631600D03*
X108264200Y-93631600D03*
%TD*%
%TO.C,Y1*%
X135099900Y-82790900D03*
X139979900Y-82790900D03*
%TD*%
D26*
%TO.C,U1*%
X122659400Y-60606700D03*
D17*
X122659400Y-63146700D03*
X122659400Y-65686700D03*
X122659400Y-68226700D03*
X122659400Y-70766700D03*
X122659400Y-73306700D03*
X122659400Y-75846700D03*
X122659400Y-78386700D03*
X122659400Y-80926700D03*
X122659400Y-83466700D03*
X122659400Y-86006700D03*
X122659400Y-88546700D03*
X122659400Y-91086700D03*
X122659400Y-93626700D03*
X130279400Y-93626700D03*
X130279400Y-91086700D03*
X130279400Y-88546700D03*
X130279400Y-86006700D03*
X130279400Y-83466700D03*
X130279400Y-80926700D03*
X130279400Y-78386700D03*
X130279400Y-75846700D03*
X130279400Y-73306700D03*
X130279400Y-70766700D03*
X130279400Y-68226700D03*
X130279400Y-65686700D03*
X130279400Y-63146700D03*
X130279400Y-60606700D03*
%TD*%
D27*
%TO.C,C2*%
X133194600Y-78621200D03*
X136319600Y-78621200D03*
%TD*%
D28*
%TO.C,U4*%
X113704600Y-68738400D03*
X113704600Y-70008400D03*
X113704600Y-71278400D03*
X113704600Y-72548400D03*
X113704600Y-73818400D03*
X113704600Y-75088400D03*
X113704600Y-76358400D03*
X113704600Y-77628400D03*
X113704600Y-78898400D03*
X104404600Y-78898400D03*
X104404600Y-77628400D03*
X104404600Y-76358400D03*
X104404600Y-75088400D03*
X104404600Y-73818400D03*
X104404600Y-72548400D03*
X104404600Y-71278400D03*
X104404600Y-70008400D03*
X104404600Y-68738400D03*
%TD*%
D29*
%TO.C,R1*%
X139093300Y-90662100D03*
X135993300Y-90662100D03*
%TD*%
D30*
%TO.C,C4*%
X107355700Y-61594400D03*
X107355700Y-64719400D03*
%TD*%
D31*
%TO.C,U3*%
X141050300Y-67195000D03*
X141050300Y-68465000D03*
X141050300Y-69735000D03*
X141050300Y-71005000D03*
X136100300Y-71005000D03*
X136100300Y-69735000D03*
X136100300Y-68465000D03*
X136100300Y-67195000D03*
%TD*%
D32*
%TO.C,R5*%
X102382900Y-66361600D03*
X102382900Y-63261600D03*
%TD*%
%TO.C,R3*%
X126459400Y-78656700D03*
X126459400Y-75556700D03*
%TD*%
D33*
%TO.C,R2*%
X143201100Y-51703000D03*
X143201100Y-54803000D03*
%TD*%
D30*
%TO.C,C5*%
X111102700Y-61520500D03*
X111102700Y-64645500D03*
%TD*%
D34*
%TO.C,D1*%
X141219800Y-62184400D03*
X141219800Y-63484400D03*
X139319800Y-62834400D03*
%TD*%
D35*
%TO.C,C6*%
X141577900Y-78631000D03*
X138452900Y-78631000D03*
%TD*%
%LPD*%
M02*
