%TF.GenerationSoftware,KiCad,Pcbnew,8.0.1-rc1*%
%TF.CreationDate,2024-05-12T16:28:37-07:00*%
%TF.ProjectId,Automotive Monitoring System CANBus Sensor,4175746f-6d6f-4746-9976-65204d6f6e69,rev?*%
%TF.SameCoordinates,Original*%
%TF.FileFunction,Soldermask,Top*%
%TF.FilePolarity,Negative*%
%FSLAX46Y46*%
G04 Gerber Fmt 4.6, Leading zero omitted, Abs format (unit mm)*
G04 Created by KiCad (PCBNEW 8.0.1-rc1) date 2024-05-12 16:28:37*
%MOMM*%
%LPD*%
G01*
G04 APERTURE LIST*
G04 Aperture macros list*
%AMRoundRect*
0 Rectangle with rounded corners*
0 $1 Rounding radius*
0 $2 $3 $4 $5 $6 $7 $8 $9 X,Y pos of 4 corners*
0 Add a 4 corners polygon primitive as box body*
4,1,4,$2,$3,$4,$5,$6,$7,$8,$9,$2,$3,0*
0 Add four circle primitives for the rounded corners*
1,1,$1+$1,$2,$3*
1,1,$1+$1,$4,$5*
1,1,$1+$1,$6,$7*
1,1,$1+$1,$8,$9*
0 Add four rect primitives between the rounded corners*
20,1,$1+$1,$2,$3,$4,$5,0*
20,1,$1+$1,$4,$5,$6,$7,0*
20,1,$1+$1,$6,$7,$8,$9,0*
20,1,$1+$1,$8,$9,$2,$3,0*%
G04 Aperture macros list end*
%ADD10RoundRect,0.250000X-0.650000X0.412500X-0.650000X-0.412500X0.650000X-0.412500X0.650000X0.412500X0*%
%ADD11R,1.700000X1.700000*%
%ADD12O,1.700000X1.700000*%
%ADD13C,1.600000*%
%ADD14O,1.600000X1.600000*%
%ADD15RoundRect,0.250000X-0.400000X-0.625000X0.400000X-0.625000X0.400000X0.625000X-0.400000X0.625000X0*%
%ADD16R,3.150000X1.000000*%
%ADD17RoundRect,0.250000X-0.412500X-0.650000X0.412500X-0.650000X0.412500X0.650000X-0.412500X0.650000X0*%
%ADD18C,2.400000*%
%ADD19C,2.100000*%
%ADD20R,2.200000X2.200000*%
%ADD21C,2.200000*%
%ADD22R,1.920000X1.920000*%
%ADD23C,1.920000*%
%ADD24C,1.500000*%
%ADD25R,1.500000X1.500000*%
%ADD26RoundRect,0.250000X0.412500X0.650000X-0.412500X0.650000X-0.412500X-0.650000X0.412500X-0.650000X0*%
%ADD27R,1.600000X1.600000*%
G04 APERTURE END LIST*
D10*
%TO.C,C3*%
X118750400Y-91371500D03*
X118750400Y-94496500D03*
%TD*%
D11*
%TO.C,J6*%
X145670700Y-73750200D03*
D12*
X148210700Y-73750200D03*
X145670700Y-76290200D03*
X148210700Y-76290200D03*
X145670700Y-78830200D03*
X148210700Y-78830200D03*
X145670700Y-81370200D03*
X148210700Y-81370200D03*
X145670700Y-83910200D03*
X148210700Y-83910200D03*
X145670700Y-86450200D03*
X148210700Y-86450200D03*
X145670700Y-88990200D03*
X148210700Y-88990200D03*
X145670700Y-91530200D03*
X148210700Y-91530200D03*
%TD*%
D13*
%TO.C,R4*%
X133212700Y-66876100D03*
D14*
X133212700Y-69416100D03*
%TD*%
D15*
%TO.C,R7*%
X107748000Y-57900400D03*
X110848000Y-57900400D03*
%TD*%
D16*
%TO.C,J1*%
X135018300Y-88122100D03*
X140068300Y-88122100D03*
X135018300Y-90662100D03*
X140068300Y-90662100D03*
X135018300Y-93202100D03*
X140068300Y-93202100D03*
%TD*%
D13*
%TO.C,NTC1*%
X108245700Y-53800500D03*
D14*
X110785700Y-53800500D03*
%TD*%
D17*
%TO.C,C1*%
X133188000Y-78622500D03*
X136313000Y-78622500D03*
%TD*%
D13*
%TO.C,R6*%
X136841000Y-63583500D03*
D14*
X134301000Y-63583500D03*
%TD*%
D11*
%TO.C,Powerboard1*%
X118946900Y-71348200D03*
D12*
X118946900Y-73888200D03*
X118946900Y-76428200D03*
%TD*%
D11*
%TO.C,J4*%
X148277500Y-69805300D03*
D12*
X145737500Y-69805300D03*
%TD*%
D18*
%TO.C,U2*%
X123954300Y-54040900D03*
D19*
X117554300Y-55290900D03*
X121054300Y-55290900D03*
X126854300Y-55290900D03*
X130354300Y-55290900D03*
X130354300Y-52790900D03*
X126854300Y-52790900D03*
X121054300Y-52790900D03*
X117554300Y-52790900D03*
%TD*%
D20*
%TO.C,J5*%
X144337900Y-65725000D03*
D21*
X144337900Y-63185000D03*
X144337900Y-60645000D03*
X144337900Y-58105000D03*
%TD*%
D22*
%TO.C,Q1*%
X138691700Y-58745000D03*
D23*
X138691700Y-56205000D03*
X138691700Y-53665000D03*
%TD*%
D11*
%TO.C,J2*%
X131583000Y-97472600D03*
D12*
X129043000Y-97472600D03*
X126503000Y-97472600D03*
X123963000Y-97472600D03*
X121423000Y-97472600D03*
X118883000Y-97472600D03*
%TD*%
D24*
%TO.C,Y2*%
X135124800Y-73536500D03*
X140004800Y-73536500D03*
%TD*%
D25*
%TO.C,Reset1*%
X114764200Y-98131600D03*
D24*
X108264200Y-98131600D03*
X114764200Y-93631600D03*
X108264200Y-93631600D03*
%TD*%
%TO.C,Y1*%
X135099900Y-82790900D03*
X139979900Y-82790900D03*
%TD*%
D26*
%TO.C,C7*%
X141583900Y-78633600D03*
X138458900Y-78633600D03*
%TD*%
D27*
%TO.C,U1*%
X122659400Y-60606700D03*
D14*
X122659400Y-63146700D03*
X122659400Y-65686700D03*
X122659400Y-68226700D03*
X122659400Y-70766700D03*
X122659400Y-73306700D03*
X122659400Y-75846700D03*
X122659400Y-78386700D03*
X122659400Y-80926700D03*
X122659400Y-83466700D03*
X122659400Y-86006700D03*
X122659400Y-88546700D03*
X122659400Y-91086700D03*
X122659400Y-93626700D03*
X130279400Y-93626700D03*
X130279400Y-91086700D03*
X130279400Y-88546700D03*
X130279400Y-86006700D03*
X130279400Y-83466700D03*
X130279400Y-80926700D03*
X130279400Y-78386700D03*
X130279400Y-75846700D03*
X130279400Y-73306700D03*
X130279400Y-70766700D03*
X130279400Y-68226700D03*
X130279400Y-65686700D03*
X130279400Y-63146700D03*
X130279400Y-60606700D03*
%TD*%
M02*
