%TF.GenerationSoftware,KiCad,Pcbnew,8.0.1-rc1*%
%TF.CreationDate,2024-05-12T16:28:37-07:00*%
%TF.ProjectId,Automotive Monitoring System CANBus Sensor,4175746f-6d6f-4746-9976-65204d6f6e69,rev?*%
%TF.SameCoordinates,Original*%
%TF.FileFunction,Paste,Bot*%
%TF.FilePolarity,Positive*%
%FSLAX46Y46*%
G04 Gerber Fmt 4.6, Leading zero omitted, Abs format (unit mm)*
G04 Created by KiCad (PCBNEW 8.0.1-rc1) date 2024-05-12 16:28:37*
%MOMM*%
%LPD*%
G01*
G04 APERTURE LIST*
G04 Aperture macros list*
%AMRoundRect*
0 Rectangle with rounded corners*
0 $1 Rounding radius*
0 $2 $3 $4 $5 $6 $7 $8 $9 X,Y pos of 4 corners*
0 Add a 4 corners polygon primitive as box body*
4,1,4,$2,$3,$4,$5,$6,$7,$8,$9,$2,$3,0*
0 Add four circle primitives for the rounded corners*
1,1,$1+$1,$2,$3*
1,1,$1+$1,$4,$5*
1,1,$1+$1,$6,$7*
1,1,$1+$1,$8,$9*
0 Add four rect primitives between the rounded corners*
20,1,$1+$1,$2,$3,$4,$5,0*
20,1,$1+$1,$4,$5,$6,$7,0*
20,1,$1+$1,$6,$7,$8,$9,0*
20,1,$1+$1,$8,$9,$2,$3,0*%
G04 Aperture macros list end*
%ADD10RoundRect,0.250000X-0.412500X-0.650000X0.412500X-0.650000X0.412500X0.650000X-0.412500X0.650000X0*%
%ADD11RoundRect,0.150000X0.875000X0.150000X-0.875000X0.150000X-0.875000X-0.150000X0.875000X-0.150000X0*%
%ADD12RoundRect,0.250000X0.400000X0.625000X-0.400000X0.625000X-0.400000X-0.625000X0.400000X-0.625000X0*%
%ADD13RoundRect,0.250000X-0.650000X0.412500X-0.650000X-0.412500X0.650000X-0.412500X0.650000X0.412500X0*%
%ADD14RoundRect,0.150000X0.825000X0.150000X-0.825000X0.150000X-0.825000X-0.150000X0.825000X-0.150000X0*%
%ADD15RoundRect,0.250000X0.625000X-0.400000X0.625000X0.400000X-0.625000X0.400000X-0.625000X-0.400000X0*%
%ADD16RoundRect,0.250000X-0.625000X0.400000X-0.625000X-0.400000X0.625000X-0.400000X0.625000X0.400000X0*%
%ADD17R,1.000000X0.550000*%
%ADD18RoundRect,0.250000X0.412500X0.650000X-0.412500X0.650000X-0.412500X-0.650000X0.412500X-0.650000X0*%
G04 APERTURE END LIST*
D10*
%TO.C,C2*%
X133194600Y-78621200D03*
X136319600Y-78621200D03*
%TD*%
D11*
%TO.C,U4*%
X113704600Y-68738400D03*
X113704600Y-70008400D03*
X113704600Y-71278400D03*
X113704600Y-72548400D03*
X113704600Y-73818400D03*
X113704600Y-75088400D03*
X113704600Y-76358400D03*
X113704600Y-77628400D03*
X113704600Y-78898400D03*
X104404600Y-78898400D03*
X104404600Y-77628400D03*
X104404600Y-76358400D03*
X104404600Y-75088400D03*
X104404600Y-73818400D03*
X104404600Y-72548400D03*
X104404600Y-71278400D03*
X104404600Y-70008400D03*
X104404600Y-68738400D03*
%TD*%
D12*
%TO.C,R1*%
X139093300Y-90662100D03*
X135993300Y-90662100D03*
%TD*%
D13*
%TO.C,C4*%
X107355700Y-61594400D03*
X107355700Y-64719400D03*
%TD*%
D14*
%TO.C,U3*%
X141050300Y-67195000D03*
X141050300Y-68465000D03*
X141050300Y-69735000D03*
X141050300Y-71005000D03*
X136100300Y-71005000D03*
X136100300Y-69735000D03*
X136100300Y-68465000D03*
X136100300Y-67195000D03*
%TD*%
D15*
%TO.C,R5*%
X102382900Y-66361600D03*
X102382900Y-63261600D03*
%TD*%
%TO.C,R3*%
X126459400Y-78656700D03*
X126459400Y-75556700D03*
%TD*%
D16*
%TO.C,R2*%
X143201100Y-51703000D03*
X143201100Y-54803000D03*
%TD*%
D13*
%TO.C,C5*%
X111102700Y-61520500D03*
X111102700Y-64645500D03*
%TD*%
D17*
%TO.C,D1*%
X141219800Y-62184400D03*
X141219800Y-63484400D03*
X139319800Y-62834400D03*
%TD*%
D18*
%TO.C,C6*%
X141577900Y-78631000D03*
X138452900Y-78631000D03*
%TD*%
M02*
