%TF.GenerationSoftware,KiCad,Pcbnew,8.0.1-rc1*%
%TF.CreationDate,2024-08-20T18:32:43-07:00*%
%TF.ProjectId,AMS - CANBus Sensor - Temperature,414d5320-2d20-4434-914e-427573205365,rev?*%
%TF.SameCoordinates,Original*%
%TF.FileFunction,Soldermask,Bot*%
%TF.FilePolarity,Negative*%
%FSLAX46Y46*%
G04 Gerber Fmt 4.6, Leading zero omitted, Abs format (unit mm)*
G04 Created by KiCad (PCBNEW 8.0.1-rc1) date 2024-08-20 18:32:43*
%MOMM*%
%LPD*%
G01*
G04 APERTURE LIST*
G04 Aperture macros list*
%AMRoundRect*
0 Rectangle with rounded corners*
0 $1 Rounding radius*
0 $2 $3 $4 $5 $6 $7 $8 $9 X,Y pos of 4 corners*
0 Add a 4 corners polygon primitive as box body*
4,1,4,$2,$3,$4,$5,$6,$7,$8,$9,$2,$3,0*
0 Add four circle primitives for the rounded corners*
1,1,$1+$1,$2,$3*
1,1,$1+$1,$4,$5*
1,1,$1+$1,$6,$7*
1,1,$1+$1,$8,$9*
0 Add four rect primitives between the rounded corners*
20,1,$1+$1,$2,$3,$4,$5,0*
20,1,$1+$1,$4,$5,$6,$7,0*
20,1,$1+$1,$6,$7,$8,$9,0*
20,1,$1+$1,$8,$9,$2,$3,0*%
G04 Aperture macros list end*
%ADD10C,2.400000*%
%ADD11R,1.500000X1.500000*%
%ADD12C,1.500000*%
%ADD13R,1.920000X1.920000*%
%ADD14C,1.920000*%
%ADD15R,1.850000X0.900000*%
%ADD16R,1.850000X3.200000*%
%ADD17R,1.525000X0.650000*%
%ADD18R,1.000000X0.550000*%
%ADD19C,1.600000*%
%ADD20O,1.600000X1.600000*%
%ADD21R,2.200000X2.200000*%
%ADD22C,2.200000*%
%ADD23R,1.700000X1.700000*%
%ADD24O,1.700000X1.700000*%
%ADD25R,1.600000X1.600000*%
%ADD26RoundRect,0.250000X0.650000X-0.412500X0.650000X0.412500X-0.650000X0.412500X-0.650000X-0.412500X0*%
%ADD27RoundRect,0.250000X-0.650000X0.412500X-0.650000X-0.412500X0.650000X-0.412500X0.650000X0.412500X0*%
%ADD28RoundRect,0.150000X0.825000X0.150000X-0.825000X0.150000X-0.825000X-0.150000X0.825000X-0.150000X0*%
%ADD29R,1.705000X0.450000*%
%ADD30RoundRect,0.250000X-0.412500X-0.650000X0.412500X-0.650000X0.412500X0.650000X-0.412500X0.650000X0*%
%ADD31RoundRect,0.250000X-0.625000X0.400000X-0.625000X-0.400000X0.625000X-0.400000X0.625000X0.400000X0*%
%ADD32RoundRect,0.250000X0.412500X0.650000X-0.412500X0.650000X-0.412500X-0.650000X0.412500X-0.650000X0*%
%ADD33RoundRect,0.150000X0.875000X0.150000X-0.875000X0.150000X-0.875000X-0.150000X0.875000X-0.150000X0*%
%ADD34RoundRect,0.250000X0.625000X-0.400000X0.625000X0.400000X-0.625000X0.400000X-0.625000X-0.400000X0*%
G04 APERTURE END LIST*
D10*
%TO.C,U5*%
X134999500Y-70018000D03*
X134999500Y-73418000D03*
X125079500Y-70018000D03*
X125079500Y-73418000D03*
%TD*%
D11*
%TO.C,Reset1*%
X135385300Y-113752500D03*
D12*
X128885300Y-113752500D03*
X135385300Y-109252500D03*
X128885300Y-109252500D03*
%TD*%
D13*
%TO.C,Q1*%
X136586000Y-84423600D03*
D14*
X136586000Y-81883600D03*
X136586000Y-79343600D03*
%TD*%
D15*
%TO.C,IC5*%
X125227300Y-82238500D03*
X125227300Y-79938500D03*
X125227300Y-77638500D03*
D16*
X131427300Y-79938500D03*
%TD*%
D17*
%TO.C,IC4*%
X126702000Y-105163600D03*
X126702000Y-103893600D03*
X126702000Y-102623600D03*
X126702000Y-101353600D03*
X126702000Y-100083600D03*
X126702000Y-98813600D03*
X126702000Y-97543600D03*
X126702000Y-96273600D03*
X132126000Y-96273600D03*
X132126000Y-97543600D03*
X132126000Y-98813600D03*
X132126000Y-100083600D03*
X132126000Y-101353600D03*
X132126000Y-102623600D03*
X132126000Y-103893600D03*
X132126000Y-105163600D03*
%TD*%
D18*
%TO.C,D1*%
X155655900Y-74744100D03*
X155655900Y-76044100D03*
X153755900Y-75394100D03*
%TD*%
D19*
%TO.C,R7*%
X139116100Y-58260700D03*
D20*
X141656100Y-58260700D03*
%TD*%
D21*
%TO.C,J1*%
X157148000Y-71872800D03*
D22*
X157148000Y-69332800D03*
X157148000Y-66792800D03*
X157148000Y-64252800D03*
%TD*%
D19*
%TO.C,NTC1*%
X135965600Y-94809500D03*
D20*
X135965600Y-97349500D03*
%TD*%
D23*
%TO.C,J3*%
X146767300Y-124094700D03*
D24*
X144227300Y-124094700D03*
X141687300Y-124094700D03*
X139147300Y-124094700D03*
X136607300Y-124094700D03*
X134067300Y-124094700D03*
%TD*%
D21*
%TO.C,J15*%
X167848300Y-96013700D03*
D22*
X167848300Y-93473700D03*
X167848300Y-90933700D03*
X167848300Y-88393700D03*
%TD*%
D19*
%TO.C,R6*%
X159962900Y-75582300D03*
D20*
X157422900Y-75582300D03*
%TD*%
D21*
%TO.C,J14*%
X167892100Y-83986200D03*
D22*
X167892100Y-81446200D03*
X167892100Y-78906200D03*
X167892100Y-76366200D03*
%TD*%
D21*
%TO.C,J16*%
X167909100Y-108390600D03*
D22*
X167909100Y-105850600D03*
X167909100Y-103310600D03*
X167909100Y-100770600D03*
%TD*%
D23*
%TO.C,Powerboard1*%
X130976300Y-92602600D03*
D24*
X130976300Y-90062600D03*
X130976300Y-87522600D03*
%TD*%
D25*
%TO.C,U2*%
X140929500Y-81761800D03*
D20*
X140929500Y-84301800D03*
X140929500Y-86841800D03*
X140929500Y-89381800D03*
X140929500Y-91921800D03*
X140929500Y-94461800D03*
X140929500Y-97001800D03*
X140929500Y-99541800D03*
X140929500Y-102081800D03*
X140929500Y-104621800D03*
X140929500Y-107161800D03*
X140929500Y-109701800D03*
X140929500Y-112241800D03*
X140929500Y-114781800D03*
X148549500Y-114781800D03*
X148549500Y-112241800D03*
X148549500Y-109701800D03*
X148549500Y-107161800D03*
X148549500Y-104621800D03*
X148549500Y-102081800D03*
X148549500Y-99541800D03*
X148549500Y-97001800D03*
X148549500Y-94461800D03*
X148549500Y-91921800D03*
X148549500Y-89381800D03*
X148549500Y-86841800D03*
X148549500Y-84301800D03*
X148549500Y-81761800D03*
%TD*%
D23*
%TO.C,J5*%
X139049600Y-61738500D03*
D24*
X141589600Y-61738500D03*
%TD*%
D12*
%TO.C,Y2*%
X156482900Y-115391200D03*
X161362900Y-115391200D03*
%TD*%
%TO.C,Y1*%
X135241300Y-119345300D03*
X140121300Y-119345300D03*
%TD*%
D26*
%TO.C,C17*%
X122452500Y-80108100D03*
X122452500Y-76983100D03*
%TD*%
D27*
%TO.C,C2*%
X145046300Y-118038200D03*
X145046300Y-121163200D03*
%TD*%
D28*
%TO.C,U4*%
X168429800Y-67769000D03*
X168429800Y-69039000D03*
X168429800Y-70309000D03*
X168429800Y-71579000D03*
X163479800Y-71579000D03*
X163479800Y-70309000D03*
X163479800Y-69039000D03*
X163479800Y-67769000D03*
%TD*%
D29*
%TO.C,IC2*%
X159052800Y-93041700D03*
X159052800Y-93691700D03*
X159052800Y-94341700D03*
X159052800Y-94991700D03*
X159052800Y-95641700D03*
X159052800Y-96291700D03*
X159052800Y-96941700D03*
X159052800Y-97591700D03*
X159052800Y-98241700D03*
X159052800Y-98891700D03*
X152056800Y-98891700D03*
X152056800Y-98241700D03*
X152056800Y-97591700D03*
X152056800Y-96941700D03*
X152056800Y-96291700D03*
X152056800Y-95641700D03*
X152056800Y-94991700D03*
X152056800Y-94341700D03*
X152056800Y-93691700D03*
X152056800Y-93041700D03*
%TD*%
D30*
%TO.C,C10*%
X171892600Y-77456100D03*
X175017600Y-77456100D03*
%TD*%
D31*
%TO.C,R4*%
X132096400Y-109912300D03*
X132096400Y-113012300D03*
%TD*%
D26*
%TO.C,C9*%
X162729800Y-86897200D03*
X162729800Y-83772200D03*
%TD*%
D32*
%TO.C,C4*%
X151743500Y-119515100D03*
X148618500Y-119515100D03*
%TD*%
D33*
%TO.C,U3*%
X151455100Y-65127000D03*
X151455100Y-66397000D03*
X151455100Y-67667000D03*
X151455100Y-68937000D03*
X151455100Y-70207000D03*
X151455100Y-71477000D03*
X151455100Y-72747000D03*
X151455100Y-74017000D03*
X151455100Y-75287000D03*
X142155100Y-75287000D03*
X142155100Y-74017000D03*
X142155100Y-72747000D03*
X142155100Y-71477000D03*
X142155100Y-70207000D03*
X142155100Y-68937000D03*
X142155100Y-67667000D03*
X142155100Y-66397000D03*
X142155100Y-65127000D03*
%TD*%
D34*
%TO.C,R5*%
X144703000Y-87196800D03*
X144703000Y-84096800D03*
%TD*%
D31*
%TO.C,R3*%
X135973000Y-89148700D03*
X135973000Y-92248700D03*
%TD*%
D29*
%TO.C,IC3*%
X158862000Y-105750800D03*
X158862000Y-106400800D03*
X158862000Y-107050800D03*
X158862000Y-107700800D03*
X158862000Y-108350800D03*
X158862000Y-109000800D03*
X158862000Y-109650800D03*
X158862000Y-110300800D03*
X158862000Y-110950800D03*
X158862000Y-111600800D03*
X151866000Y-111600800D03*
X151866000Y-110950800D03*
X151866000Y-110300800D03*
X151866000Y-109650800D03*
X151866000Y-109000800D03*
X151866000Y-108350800D03*
X151866000Y-107700800D03*
X151866000Y-107050800D03*
X151866000Y-106400800D03*
X151866000Y-105750800D03*
%TD*%
D32*
%TO.C,C1*%
X138717100Y-117199700D03*
X135592100Y-117199700D03*
%TD*%
D31*
%TO.C,R2*%
X144995600Y-99509000D03*
X144995600Y-102609000D03*
%TD*%
D29*
%TO.C,IC1*%
X158961000Y-81591200D03*
X158961000Y-82241200D03*
X158961000Y-82891200D03*
X158961000Y-83541200D03*
X158961000Y-84191200D03*
X158961000Y-84841200D03*
X158961000Y-85491200D03*
X158961000Y-86141200D03*
X158961000Y-86791200D03*
X158961000Y-87441200D03*
X151965000Y-87441200D03*
X151965000Y-86791200D03*
X151965000Y-86141200D03*
X151965000Y-85491200D03*
X151965000Y-84841200D03*
X151965000Y-84191200D03*
X151965000Y-83541200D03*
X151965000Y-82891200D03*
X151965000Y-82241200D03*
X151965000Y-81591200D03*
%TD*%
D27*
%TO.C,C12*%
X162889700Y-96066100D03*
X162889700Y-99191100D03*
%TD*%
D32*
%TO.C,C7*%
X138126100Y-103901500D03*
X135001100Y-103901500D03*
%TD*%
D30*
%TO.C,C13*%
X156521000Y-101175400D03*
X159646000Y-101175400D03*
%TD*%
D32*
%TO.C,C6*%
X138122400Y-101431600D03*
X134997400Y-101431600D03*
%TD*%
D27*
%TO.C,C14*%
X162869100Y-107189900D03*
X162869100Y-110314900D03*
%TD*%
D32*
%TO.C,C16*%
X169811100Y-112819400D03*
X166686100Y-112819400D03*
%TD*%
M02*
