%TF.GenerationSoftware,KiCad,Pcbnew,8.0.1-rc1*%
%TF.CreationDate,2024-08-20T18:32:43-07:00*%
%TF.ProjectId,AMS - CANBus Sensor - Temperature,414d5320-2d20-4434-914e-427573205365,rev?*%
%TF.SameCoordinates,Original*%
%TF.FileFunction,Legend,Top*%
%TF.FilePolarity,Positive*%
%FSLAX46Y46*%
G04 Gerber Fmt 4.6, Leading zero omitted, Abs format (unit mm)*
G04 Created by KiCad (PCBNEW 8.0.1-rc1) date 2024-08-20 18:32:43*
%MOMM*%
%LPD*%
G01*
G04 APERTURE LIST*
G04 Aperture macros list*
%AMRoundRect*
0 Rectangle with rounded corners*
0 $1 Rounding radius*
0 $2 $3 $4 $5 $6 $7 $8 $9 X,Y pos of 4 corners*
0 Add a 4 corners polygon primitive as box body*
4,1,4,$2,$3,$4,$5,$6,$7,$8,$9,$2,$3,0*
0 Add four circle primitives for the rounded corners*
1,1,$1+$1,$2,$3*
1,1,$1+$1,$4,$5*
1,1,$1+$1,$6,$7*
1,1,$1+$1,$8,$9*
0 Add four rect primitives between the rounded corners*
20,1,$1+$1,$2,$3,$4,$5,0*
20,1,$1+$1,$4,$5,$6,$7,0*
20,1,$1+$1,$6,$7,$8,$9,0*
20,1,$1+$1,$8,$9,$2,$3,0*%
G04 Aperture macros list end*
%ADD10C,0.100000*%
%ADD11C,0.150000*%
%ADD12C,0.254000*%
%ADD13C,0.200000*%
%ADD14C,0.120000*%
%ADD15C,2.400000*%
%ADD16R,1.500000X1.500000*%
%ADD17C,1.500000*%
%ADD18R,1.920000X1.920000*%
%ADD19C,1.920000*%
%ADD20R,0.600000X1.750000*%
%ADD21RoundRect,0.250000X-0.650000X0.412500X-0.650000X-0.412500X0.650000X-0.412500X0.650000X0.412500X0*%
%ADD22RoundRect,0.250000X-0.400000X-0.625000X0.400000X-0.625000X0.400000X0.625000X-0.400000X0.625000X0*%
%ADD23RoundRect,0.250000X0.650000X-0.412500X0.650000X0.412500X-0.650000X0.412500X-0.650000X-0.412500X0*%
%ADD24RoundRect,0.250000X-0.625000X0.400000X-0.625000X-0.400000X0.625000X-0.400000X0.625000X0.400000X0*%
%ADD25C,1.600000*%
%ADD26O,1.600000X1.600000*%
%ADD27R,2.200000X2.200000*%
%ADD28C,2.200000*%
%ADD29R,1.700000X1.700000*%
%ADD30O,1.700000X1.700000*%
%ADD31R,1.000000X3.150000*%
%ADD32R,1.750000X0.600000*%
%ADD33R,1.600000X1.600000*%
%ADD34RoundRect,0.250000X0.625000X-0.400000X0.625000X0.400000X-0.625000X0.400000X-0.625000X-0.400000X0*%
%ADD35RoundRect,0.250000X0.412500X0.650000X-0.412500X0.650000X-0.412500X-0.650000X0.412500X-0.650000X0*%
G04 APERTURE END LIST*
D10*
X155749714Y-100377371D02*
X150642036Y-100377371D01*
X150017978Y-89374742D02*
X160270845Y-89378744D01*
X141410522Y-77749485D02*
X141362903Y-77844723D01*
X141362903Y-77844723D02*
X141362903Y-77987580D01*
X141362903Y-77987580D02*
X141410522Y-78130437D01*
X141410522Y-78130437D02*
X141505760Y-78225675D01*
X141505760Y-78225675D02*
X141600998Y-78273294D01*
X141600998Y-78273294D02*
X141791474Y-78320913D01*
X141791474Y-78320913D02*
X141934331Y-78320913D01*
X141934331Y-78320913D02*
X142124807Y-78273294D01*
X142124807Y-78273294D02*
X142220045Y-78225675D01*
X142220045Y-78225675D02*
X142315284Y-78130437D01*
X142315284Y-78130437D02*
X142362903Y-77987580D01*
X142362903Y-77987580D02*
X142362903Y-77892342D01*
X142362903Y-77892342D02*
X142315284Y-77749485D01*
X142315284Y-77749485D02*
X142267664Y-77701866D01*
X142267664Y-77701866D02*
X141934331Y-77701866D01*
X141934331Y-77701866D02*
X141934331Y-77892342D01*
X142362903Y-77273294D02*
X141362903Y-77273294D01*
X141362903Y-77273294D02*
X142362903Y-76701866D01*
X142362903Y-76701866D02*
X141362903Y-76701866D01*
X142362903Y-76225675D02*
X141362903Y-76225675D01*
X141362903Y-76225675D02*
X141362903Y-75987580D01*
X141362903Y-75987580D02*
X141410522Y-75844723D01*
X141410522Y-75844723D02*
X141505760Y-75749485D01*
X141505760Y-75749485D02*
X141600998Y-75701866D01*
X141600998Y-75701866D02*
X141791474Y-75654247D01*
X141791474Y-75654247D02*
X141934331Y-75654247D01*
X141934331Y-75654247D02*
X142124807Y-75701866D01*
X142124807Y-75701866D02*
X142220045Y-75749485D01*
X142220045Y-75749485D02*
X142315284Y-75844723D01*
X142315284Y-75844723D02*
X142362903Y-75987580D01*
X142362903Y-75987580D02*
X142362903Y-76225675D01*
X144448247Y-62516753D02*
X144448247Y-63088181D01*
X144448247Y-62802467D02*
X143448247Y-62802467D01*
X143448247Y-62802467D02*
X143591104Y-62897705D01*
X143591104Y-62897705D02*
X143686342Y-62992943D01*
X143686342Y-62992943D02*
X143733961Y-63088181D01*
X143543485Y-62135800D02*
X143495866Y-62088181D01*
X143495866Y-62088181D02*
X143448247Y-61992943D01*
X143448247Y-61992943D02*
X143448247Y-61754848D01*
X143448247Y-61754848D02*
X143495866Y-61659610D01*
X143495866Y-61659610D02*
X143543485Y-61611991D01*
X143543485Y-61611991D02*
X143638723Y-61564372D01*
X143638723Y-61564372D02*
X143733961Y-61564372D01*
X143733961Y-61564372D02*
X143876818Y-61611991D01*
X143876818Y-61611991D02*
X144448247Y-62183419D01*
X144448247Y-62183419D02*
X144448247Y-61564372D01*
X143448247Y-60945324D02*
X143448247Y-60850086D01*
X143448247Y-60850086D02*
X143495866Y-60754848D01*
X143495866Y-60754848D02*
X143543485Y-60707229D01*
X143543485Y-60707229D02*
X143638723Y-60659610D01*
X143638723Y-60659610D02*
X143829199Y-60611991D01*
X143829199Y-60611991D02*
X144067294Y-60611991D01*
X144067294Y-60611991D02*
X144257770Y-60659610D01*
X144257770Y-60659610D02*
X144353008Y-60707229D01*
X144353008Y-60707229D02*
X144400628Y-60754848D01*
X144400628Y-60754848D02*
X144448247Y-60850086D01*
X144448247Y-60850086D02*
X144448247Y-60945324D01*
X144448247Y-60945324D02*
X144400628Y-61040562D01*
X144400628Y-61040562D02*
X144353008Y-61088181D01*
X144353008Y-61088181D02*
X144257770Y-61135800D01*
X144257770Y-61135800D02*
X144067294Y-61183419D01*
X144067294Y-61183419D02*
X143829199Y-61183419D01*
X143829199Y-61183419D02*
X143638723Y-61135800D01*
X143638723Y-61135800D02*
X143543485Y-61088181D01*
X143543485Y-61088181D02*
X143495866Y-61040562D01*
X143495866Y-61040562D02*
X143448247Y-60945324D01*
X143448247Y-59231038D02*
X143448247Y-59040562D01*
X143448247Y-59040562D02*
X143495866Y-58945324D01*
X143495866Y-58945324D02*
X143591104Y-58850086D01*
X143591104Y-58850086D02*
X143781580Y-58802467D01*
X143781580Y-58802467D02*
X144114913Y-58802467D01*
X144114913Y-58802467D02*
X144305389Y-58850086D01*
X144305389Y-58850086D02*
X144400628Y-58945324D01*
X144400628Y-58945324D02*
X144448247Y-59040562D01*
X144448247Y-59040562D02*
X144448247Y-59231038D01*
X144448247Y-59231038D02*
X144400628Y-59326276D01*
X144400628Y-59326276D02*
X144305389Y-59421514D01*
X144305389Y-59421514D02*
X144114913Y-59469133D01*
X144114913Y-59469133D02*
X143781580Y-59469133D01*
X143781580Y-59469133D02*
X143591104Y-59421514D01*
X143591104Y-59421514D02*
X143495866Y-59326276D01*
X143495866Y-59326276D02*
X143448247Y-59231038D01*
X144448247Y-58373895D02*
X143448247Y-58373895D01*
X144448247Y-57945324D02*
X143924437Y-57945324D01*
X143924437Y-57945324D02*
X143829199Y-57992943D01*
X143829199Y-57992943D02*
X143781580Y-58088181D01*
X143781580Y-58088181D02*
X143781580Y-58231038D01*
X143781580Y-58231038D02*
X143829199Y-58326276D01*
X143829199Y-58326276D02*
X143876818Y-58373895D01*
X144448247Y-57469133D02*
X143781580Y-57469133D01*
X143876818Y-57469133D02*
X143829199Y-57421514D01*
X143829199Y-57421514D02*
X143781580Y-57326276D01*
X143781580Y-57326276D02*
X143781580Y-57183419D01*
X143781580Y-57183419D02*
X143829199Y-57088181D01*
X143829199Y-57088181D02*
X143924437Y-57040562D01*
X143924437Y-57040562D02*
X144448247Y-57040562D01*
X143924437Y-57040562D02*
X143829199Y-56992943D01*
X143829199Y-56992943D02*
X143781580Y-56897705D01*
X143781580Y-56897705D02*
X143781580Y-56754848D01*
X143781580Y-56754848D02*
X143829199Y-56659609D01*
X143829199Y-56659609D02*
X143924437Y-56611990D01*
X143924437Y-56611990D02*
X144448247Y-56611990D01*
X145962952Y-62469134D02*
X146010572Y-62516753D01*
X146010572Y-62516753D02*
X146058191Y-62659610D01*
X146058191Y-62659610D02*
X146058191Y-62754848D01*
X146058191Y-62754848D02*
X146010572Y-62897705D01*
X146010572Y-62897705D02*
X145915333Y-62992943D01*
X145915333Y-62992943D02*
X145820095Y-63040562D01*
X145820095Y-63040562D02*
X145629619Y-63088181D01*
X145629619Y-63088181D02*
X145486762Y-63088181D01*
X145486762Y-63088181D02*
X145296286Y-63040562D01*
X145296286Y-63040562D02*
X145201048Y-62992943D01*
X145201048Y-62992943D02*
X145105810Y-62897705D01*
X145105810Y-62897705D02*
X145058191Y-62754848D01*
X145058191Y-62754848D02*
X145058191Y-62659610D01*
X145058191Y-62659610D02*
X145105810Y-62516753D01*
X145105810Y-62516753D02*
X145153429Y-62469134D01*
X145772476Y-62088181D02*
X145772476Y-61611991D01*
X146058191Y-62183419D02*
X145058191Y-61850086D01*
X145058191Y-61850086D02*
X146058191Y-61516753D01*
X146058191Y-61183419D02*
X145058191Y-61183419D01*
X145058191Y-61183419D02*
X146058191Y-60611991D01*
X146058191Y-60611991D02*
X145058191Y-60611991D01*
X145534381Y-59040562D02*
X145582000Y-58897705D01*
X145582000Y-58897705D02*
X145629619Y-58850086D01*
X145629619Y-58850086D02*
X145724857Y-58802467D01*
X145724857Y-58802467D02*
X145867714Y-58802467D01*
X145867714Y-58802467D02*
X145962952Y-58850086D01*
X145962952Y-58850086D02*
X146010572Y-58897705D01*
X146010572Y-58897705D02*
X146058191Y-58992943D01*
X146058191Y-58992943D02*
X146058191Y-59373895D01*
X146058191Y-59373895D02*
X145058191Y-59373895D01*
X145058191Y-59373895D02*
X145058191Y-59040562D01*
X145058191Y-59040562D02*
X145105810Y-58945324D01*
X145105810Y-58945324D02*
X145153429Y-58897705D01*
X145153429Y-58897705D02*
X145248667Y-58850086D01*
X145248667Y-58850086D02*
X145343905Y-58850086D01*
X145343905Y-58850086D02*
X145439143Y-58897705D01*
X145439143Y-58897705D02*
X145486762Y-58945324D01*
X145486762Y-58945324D02*
X145534381Y-59040562D01*
X145534381Y-59040562D02*
X145534381Y-59373895D01*
X145391524Y-57945324D02*
X146058191Y-57945324D01*
X145391524Y-58373895D02*
X145915333Y-58373895D01*
X145915333Y-58373895D02*
X146010572Y-58326276D01*
X146010572Y-58326276D02*
X146058191Y-58231038D01*
X146058191Y-58231038D02*
X146058191Y-58088181D01*
X146058191Y-58088181D02*
X146010572Y-57992943D01*
X146010572Y-57992943D02*
X145962952Y-57945324D01*
X146010572Y-57516752D02*
X146058191Y-57421514D01*
X146058191Y-57421514D02*
X146058191Y-57231038D01*
X146058191Y-57231038D02*
X146010572Y-57135800D01*
X146010572Y-57135800D02*
X145915333Y-57088181D01*
X145915333Y-57088181D02*
X145867714Y-57088181D01*
X145867714Y-57088181D02*
X145772476Y-57135800D01*
X145772476Y-57135800D02*
X145724857Y-57231038D01*
X145724857Y-57231038D02*
X145724857Y-57373895D01*
X145724857Y-57373895D02*
X145677238Y-57469133D01*
X145677238Y-57469133D02*
X145582000Y-57516752D01*
X145582000Y-57516752D02*
X145534381Y-57516752D01*
X145534381Y-57516752D02*
X145439143Y-57469133D01*
X145439143Y-57469133D02*
X145391524Y-57373895D01*
X145391524Y-57373895D02*
X145391524Y-57231038D01*
X145391524Y-57231038D02*
X145439143Y-57135800D01*
X147668135Y-62469134D02*
X147191944Y-62802467D01*
X147668135Y-63040562D02*
X146668135Y-63040562D01*
X146668135Y-63040562D02*
X146668135Y-62659610D01*
X146668135Y-62659610D02*
X146715754Y-62564372D01*
X146715754Y-62564372D02*
X146763373Y-62516753D01*
X146763373Y-62516753D02*
X146858611Y-62469134D01*
X146858611Y-62469134D02*
X147001468Y-62469134D01*
X147001468Y-62469134D02*
X147096706Y-62516753D01*
X147096706Y-62516753D02*
X147144325Y-62564372D01*
X147144325Y-62564372D02*
X147191944Y-62659610D01*
X147191944Y-62659610D02*
X147191944Y-63040562D01*
X147620516Y-61659610D02*
X147668135Y-61754848D01*
X147668135Y-61754848D02*
X147668135Y-61945324D01*
X147668135Y-61945324D02*
X147620516Y-62040562D01*
X147620516Y-62040562D02*
X147525277Y-62088181D01*
X147525277Y-62088181D02*
X147144325Y-62088181D01*
X147144325Y-62088181D02*
X147049087Y-62040562D01*
X147049087Y-62040562D02*
X147001468Y-61945324D01*
X147001468Y-61945324D02*
X147001468Y-61754848D01*
X147001468Y-61754848D02*
X147049087Y-61659610D01*
X147049087Y-61659610D02*
X147144325Y-61611991D01*
X147144325Y-61611991D02*
X147239563Y-61611991D01*
X147239563Y-61611991D02*
X147334801Y-62088181D01*
X147620516Y-61231038D02*
X147668135Y-61135800D01*
X147668135Y-61135800D02*
X147668135Y-60945324D01*
X147668135Y-60945324D02*
X147620516Y-60850086D01*
X147620516Y-60850086D02*
X147525277Y-60802467D01*
X147525277Y-60802467D02*
X147477658Y-60802467D01*
X147477658Y-60802467D02*
X147382420Y-60850086D01*
X147382420Y-60850086D02*
X147334801Y-60945324D01*
X147334801Y-60945324D02*
X147334801Y-61088181D01*
X147334801Y-61088181D02*
X147287182Y-61183419D01*
X147287182Y-61183419D02*
X147191944Y-61231038D01*
X147191944Y-61231038D02*
X147144325Y-61231038D01*
X147144325Y-61231038D02*
X147049087Y-61183419D01*
X147049087Y-61183419D02*
X147001468Y-61088181D01*
X147001468Y-61088181D02*
X147001468Y-60945324D01*
X147001468Y-60945324D02*
X147049087Y-60850086D01*
X147668135Y-60373895D02*
X147001468Y-60373895D01*
X146668135Y-60373895D02*
X146715754Y-60421514D01*
X146715754Y-60421514D02*
X146763373Y-60373895D01*
X146763373Y-60373895D02*
X146715754Y-60326276D01*
X146715754Y-60326276D02*
X146668135Y-60373895D01*
X146668135Y-60373895D02*
X146763373Y-60373895D01*
X147620516Y-59945324D02*
X147668135Y-59850086D01*
X147668135Y-59850086D02*
X147668135Y-59659610D01*
X147668135Y-59659610D02*
X147620516Y-59564372D01*
X147620516Y-59564372D02*
X147525277Y-59516753D01*
X147525277Y-59516753D02*
X147477658Y-59516753D01*
X147477658Y-59516753D02*
X147382420Y-59564372D01*
X147382420Y-59564372D02*
X147334801Y-59659610D01*
X147334801Y-59659610D02*
X147334801Y-59802467D01*
X147334801Y-59802467D02*
X147287182Y-59897705D01*
X147287182Y-59897705D02*
X147191944Y-59945324D01*
X147191944Y-59945324D02*
X147144325Y-59945324D01*
X147144325Y-59945324D02*
X147049087Y-59897705D01*
X147049087Y-59897705D02*
X147001468Y-59802467D01*
X147001468Y-59802467D02*
X147001468Y-59659610D01*
X147001468Y-59659610D02*
X147049087Y-59564372D01*
X147001468Y-59231038D02*
X147001468Y-58850086D01*
X146668135Y-59088181D02*
X147525277Y-59088181D01*
X147525277Y-59088181D02*
X147620516Y-59040562D01*
X147620516Y-59040562D02*
X147668135Y-58945324D01*
X147668135Y-58945324D02*
X147668135Y-58850086D01*
X147668135Y-58373895D02*
X147620516Y-58469133D01*
X147620516Y-58469133D02*
X147572896Y-58516752D01*
X147572896Y-58516752D02*
X147477658Y-58564371D01*
X147477658Y-58564371D02*
X147191944Y-58564371D01*
X147191944Y-58564371D02*
X147096706Y-58516752D01*
X147096706Y-58516752D02*
X147049087Y-58469133D01*
X147049087Y-58469133D02*
X147001468Y-58373895D01*
X147001468Y-58373895D02*
X147001468Y-58231038D01*
X147001468Y-58231038D02*
X147049087Y-58135800D01*
X147049087Y-58135800D02*
X147096706Y-58088181D01*
X147096706Y-58088181D02*
X147191944Y-58040562D01*
X147191944Y-58040562D02*
X147477658Y-58040562D01*
X147477658Y-58040562D02*
X147572896Y-58088181D01*
X147572896Y-58088181D02*
X147620516Y-58135800D01*
X147620516Y-58135800D02*
X147668135Y-58231038D01*
X147668135Y-58231038D02*
X147668135Y-58373895D01*
X147668135Y-57611990D02*
X147001468Y-57611990D01*
X147191944Y-57611990D02*
X147096706Y-57564371D01*
X147096706Y-57564371D02*
X147049087Y-57516752D01*
X147049087Y-57516752D02*
X147001468Y-57421514D01*
X147001468Y-57421514D02*
X147001468Y-57326276D01*
X171987431Y-103396129D02*
X171654098Y-103396129D01*
X171654098Y-103919939D02*
X171654098Y-102919939D01*
X171654098Y-102919939D02*
X172130288Y-102919939D01*
X172654098Y-103919939D02*
X172558860Y-103872320D01*
X172558860Y-103872320D02*
X172511241Y-103824700D01*
X172511241Y-103824700D02*
X172463622Y-103729462D01*
X172463622Y-103729462D02*
X172463622Y-103443748D01*
X172463622Y-103443748D02*
X172511241Y-103348510D01*
X172511241Y-103348510D02*
X172558860Y-103300891D01*
X172558860Y-103300891D02*
X172654098Y-103253272D01*
X172654098Y-103253272D02*
X172796955Y-103253272D01*
X172796955Y-103253272D02*
X172892193Y-103300891D01*
X172892193Y-103300891D02*
X172939812Y-103348510D01*
X172939812Y-103348510D02*
X172987431Y-103443748D01*
X172987431Y-103443748D02*
X172987431Y-103729462D01*
X172987431Y-103729462D02*
X172939812Y-103824700D01*
X172939812Y-103824700D02*
X172892193Y-103872320D01*
X172892193Y-103872320D02*
X172796955Y-103919939D01*
X172796955Y-103919939D02*
X172654098Y-103919939D01*
X173416003Y-103919939D02*
X173416003Y-103253272D01*
X173416003Y-103443748D02*
X173463622Y-103348510D01*
X173463622Y-103348510D02*
X173511241Y-103300891D01*
X173511241Y-103300891D02*
X173606479Y-103253272D01*
X173606479Y-103253272D02*
X173701717Y-103253272D01*
X174463622Y-103872320D02*
X174368384Y-103919939D01*
X174368384Y-103919939D02*
X174177908Y-103919939D01*
X174177908Y-103919939D02*
X174082670Y-103872320D01*
X174082670Y-103872320D02*
X174035051Y-103824700D01*
X174035051Y-103824700D02*
X173987432Y-103729462D01*
X173987432Y-103729462D02*
X173987432Y-103443748D01*
X173987432Y-103443748D02*
X174035051Y-103348510D01*
X174035051Y-103348510D02*
X174082670Y-103300891D01*
X174082670Y-103300891D02*
X174177908Y-103253272D01*
X174177908Y-103253272D02*
X174368384Y-103253272D01*
X174368384Y-103253272D02*
X174463622Y-103300891D01*
X175273146Y-103872320D02*
X175177908Y-103919939D01*
X175177908Y-103919939D02*
X174987432Y-103919939D01*
X174987432Y-103919939D02*
X174892194Y-103872320D01*
X174892194Y-103872320D02*
X174844575Y-103777081D01*
X174844575Y-103777081D02*
X174844575Y-103396129D01*
X174844575Y-103396129D02*
X174892194Y-103300891D01*
X174892194Y-103300891D02*
X174987432Y-103253272D01*
X174987432Y-103253272D02*
X175177908Y-103253272D01*
X175177908Y-103253272D02*
X175273146Y-103300891D01*
X175273146Y-103300891D02*
X175320765Y-103396129D01*
X175320765Y-103396129D02*
X175320765Y-103491367D01*
X175320765Y-103491367D02*
X174844575Y-103586605D01*
X175749337Y-103538986D02*
X176511242Y-103538986D01*
X159898839Y-79120283D02*
X160517886Y-79120283D01*
X160517886Y-79120283D02*
X160184553Y-79501235D01*
X160184553Y-79501235D02*
X160327410Y-79501235D01*
X160327410Y-79501235D02*
X160422648Y-79548854D01*
X160422648Y-79548854D02*
X160470267Y-79596473D01*
X160470267Y-79596473D02*
X160517886Y-79691711D01*
X160517886Y-79691711D02*
X160517886Y-79929806D01*
X160517886Y-79929806D02*
X160470267Y-80025044D01*
X160470267Y-80025044D02*
X160422648Y-80072664D01*
X160422648Y-80072664D02*
X160327410Y-80120283D01*
X160327410Y-80120283D02*
X160041696Y-80120283D01*
X160041696Y-80120283D02*
X159946458Y-80072664D01*
X159946458Y-80072664D02*
X159898839Y-80025044D01*
X154445641Y-91623255D02*
X154493260Y-91575636D01*
X154493260Y-91575636D02*
X154588498Y-91528017D01*
X154588498Y-91528017D02*
X154826593Y-91528017D01*
X154826593Y-91528017D02*
X154921831Y-91575636D01*
X154921831Y-91575636D02*
X154969450Y-91623255D01*
X154969450Y-91623255D02*
X155017069Y-91718493D01*
X155017069Y-91718493D02*
X155017069Y-91813731D01*
X155017069Y-91813731D02*
X154969450Y-91956588D01*
X154969450Y-91956588D02*
X154398022Y-92528017D01*
X154398022Y-92528017D02*
X155017069Y-92528017D01*
X172159373Y-96319495D02*
X171826040Y-95843304D01*
X171587945Y-96319495D02*
X171587945Y-95319495D01*
X171587945Y-95319495D02*
X171968897Y-95319495D01*
X171968897Y-95319495D02*
X172064135Y-95367114D01*
X172064135Y-95367114D02*
X172111754Y-95414733D01*
X172111754Y-95414733D02*
X172159373Y-95509971D01*
X172159373Y-95509971D02*
X172159373Y-95652828D01*
X172159373Y-95652828D02*
X172111754Y-95748066D01*
X172111754Y-95748066D02*
X172064135Y-95795685D01*
X172064135Y-95795685D02*
X171968897Y-95843304D01*
X171968897Y-95843304D02*
X171587945Y-95843304D01*
X172445088Y-95319495D02*
X173016516Y-95319495D01*
X172730802Y-96319495D02*
X172730802Y-95319495D01*
X173349850Y-96319495D02*
X173349850Y-95319495D01*
X173349850Y-95319495D02*
X173587945Y-95319495D01*
X173587945Y-95319495D02*
X173730802Y-95367114D01*
X173730802Y-95367114D02*
X173826040Y-95462352D01*
X173826040Y-95462352D02*
X173873659Y-95557590D01*
X173873659Y-95557590D02*
X173921278Y-95748066D01*
X173921278Y-95748066D02*
X173921278Y-95890923D01*
X173921278Y-95890923D02*
X173873659Y-96081399D01*
X173873659Y-96081399D02*
X173826040Y-96176637D01*
X173826040Y-96176637D02*
X173730802Y-96271876D01*
X173730802Y-96271876D02*
X173587945Y-96319495D01*
X173587945Y-96319495D02*
X173349850Y-96319495D01*
X174349850Y-96319495D02*
X174349850Y-95319495D01*
X174826040Y-95652828D02*
X174826040Y-96319495D01*
X174826040Y-95748066D02*
X174873659Y-95700447D01*
X174873659Y-95700447D02*
X174968897Y-95652828D01*
X174968897Y-95652828D02*
X175111754Y-95652828D01*
X175111754Y-95652828D02*
X175206992Y-95700447D01*
X175206992Y-95700447D02*
X175254611Y-95795685D01*
X175254611Y-95795685D02*
X175254611Y-96319495D01*
X175730802Y-95938542D02*
X176492707Y-95938542D01*
X176111754Y-96319495D02*
X176111754Y-95557590D01*
X178096469Y-81300119D02*
X177620278Y-81633452D01*
X178096469Y-81871547D02*
X177096469Y-81871547D01*
X177096469Y-81871547D02*
X177096469Y-81490595D01*
X177096469Y-81490595D02*
X177144088Y-81395357D01*
X177144088Y-81395357D02*
X177191707Y-81347738D01*
X177191707Y-81347738D02*
X177286945Y-81300119D01*
X177286945Y-81300119D02*
X177429802Y-81300119D01*
X177429802Y-81300119D02*
X177525040Y-81347738D01*
X177525040Y-81347738D02*
X177572659Y-81395357D01*
X177572659Y-81395357D02*
X177620278Y-81490595D01*
X177620278Y-81490595D02*
X177620278Y-81871547D01*
X177096469Y-81014404D02*
X177096469Y-80442976D01*
X178096469Y-80728690D02*
X177096469Y-80728690D01*
X178096469Y-80109642D02*
X177096469Y-80109642D01*
X177096469Y-80109642D02*
X177096469Y-79871547D01*
X177096469Y-79871547D02*
X177144088Y-79728690D01*
X177144088Y-79728690D02*
X177239326Y-79633452D01*
X177239326Y-79633452D02*
X177334564Y-79585833D01*
X177334564Y-79585833D02*
X177525040Y-79538214D01*
X177525040Y-79538214D02*
X177667897Y-79538214D01*
X177667897Y-79538214D02*
X177858373Y-79585833D01*
X177858373Y-79585833D02*
X177953611Y-79633452D01*
X177953611Y-79633452D02*
X178048850Y-79728690D01*
X178048850Y-79728690D02*
X178096469Y-79871547D01*
X178096469Y-79871547D02*
X178096469Y-80109642D01*
X178096469Y-78585833D02*
X178096469Y-79157261D01*
X178096469Y-78871547D02*
X177096469Y-78871547D01*
X177096469Y-78871547D02*
X177239326Y-78966785D01*
X177239326Y-78966785D02*
X177334564Y-79062023D01*
X177334564Y-79062023D02*
X177382183Y-79157261D01*
X154454738Y-107255816D02*
X154502357Y-107208197D01*
X154502357Y-107208197D02*
X154597595Y-107160578D01*
X154597595Y-107160578D02*
X154835690Y-107160578D01*
X154835690Y-107160578D02*
X154930928Y-107208197D01*
X154930928Y-107208197D02*
X154978547Y-107255816D01*
X154978547Y-107255816D02*
X155026166Y-107351054D01*
X155026166Y-107351054D02*
X155026166Y-107446292D01*
X155026166Y-107446292D02*
X154978547Y-107589149D01*
X154978547Y-107589149D02*
X154407119Y-108160578D01*
X154407119Y-108160578D02*
X155026166Y-108160578D01*
X155454738Y-107779625D02*
X156216643Y-107779625D01*
X156597595Y-107160578D02*
X157216642Y-107160578D01*
X157216642Y-107160578D02*
X156883309Y-107541530D01*
X156883309Y-107541530D02*
X157026166Y-107541530D01*
X157026166Y-107541530D02*
X157121404Y-107589149D01*
X157121404Y-107589149D02*
X157169023Y-107636768D01*
X157169023Y-107636768D02*
X157216642Y-107732006D01*
X157216642Y-107732006D02*
X157216642Y-107970101D01*
X157216642Y-107970101D02*
X157169023Y-108065339D01*
X157169023Y-108065339D02*
X157121404Y-108112959D01*
X157121404Y-108112959D02*
X157026166Y-108160578D01*
X157026166Y-108160578D02*
X156740452Y-108160578D01*
X156740452Y-108160578D02*
X156645214Y-108112959D01*
X156645214Y-108112959D02*
X156597595Y-108065339D01*
X171934674Y-79374863D02*
X171601341Y-79374863D01*
X171601341Y-79898673D02*
X171601341Y-78898673D01*
X171601341Y-78898673D02*
X172077531Y-78898673D01*
X172601341Y-79898673D02*
X172506103Y-79851054D01*
X172506103Y-79851054D02*
X172458484Y-79803434D01*
X172458484Y-79803434D02*
X172410865Y-79708196D01*
X172410865Y-79708196D02*
X172410865Y-79422482D01*
X172410865Y-79422482D02*
X172458484Y-79327244D01*
X172458484Y-79327244D02*
X172506103Y-79279625D01*
X172506103Y-79279625D02*
X172601341Y-79232006D01*
X172601341Y-79232006D02*
X172744198Y-79232006D01*
X172744198Y-79232006D02*
X172839436Y-79279625D01*
X172839436Y-79279625D02*
X172887055Y-79327244D01*
X172887055Y-79327244D02*
X172934674Y-79422482D01*
X172934674Y-79422482D02*
X172934674Y-79708196D01*
X172934674Y-79708196D02*
X172887055Y-79803434D01*
X172887055Y-79803434D02*
X172839436Y-79851054D01*
X172839436Y-79851054D02*
X172744198Y-79898673D01*
X172744198Y-79898673D02*
X172601341Y-79898673D01*
X173363246Y-79898673D02*
X173363246Y-79232006D01*
X173363246Y-79422482D02*
X173410865Y-79327244D01*
X173410865Y-79327244D02*
X173458484Y-79279625D01*
X173458484Y-79279625D02*
X173553722Y-79232006D01*
X173553722Y-79232006D02*
X173648960Y-79232006D01*
X174410865Y-79851054D02*
X174315627Y-79898673D01*
X174315627Y-79898673D02*
X174125151Y-79898673D01*
X174125151Y-79898673D02*
X174029913Y-79851054D01*
X174029913Y-79851054D02*
X173982294Y-79803434D01*
X173982294Y-79803434D02*
X173934675Y-79708196D01*
X173934675Y-79708196D02*
X173934675Y-79422482D01*
X173934675Y-79422482D02*
X173982294Y-79327244D01*
X173982294Y-79327244D02*
X174029913Y-79279625D01*
X174029913Y-79279625D02*
X174125151Y-79232006D01*
X174125151Y-79232006D02*
X174315627Y-79232006D01*
X174315627Y-79232006D02*
X174410865Y-79279625D01*
X175220389Y-79851054D02*
X175125151Y-79898673D01*
X175125151Y-79898673D02*
X174934675Y-79898673D01*
X174934675Y-79898673D02*
X174839437Y-79851054D01*
X174839437Y-79851054D02*
X174791818Y-79755815D01*
X174791818Y-79755815D02*
X174791818Y-79374863D01*
X174791818Y-79374863D02*
X174839437Y-79279625D01*
X174839437Y-79279625D02*
X174934675Y-79232006D01*
X174934675Y-79232006D02*
X175125151Y-79232006D01*
X175125151Y-79232006D02*
X175220389Y-79279625D01*
X175220389Y-79279625D02*
X175268008Y-79374863D01*
X175268008Y-79374863D02*
X175268008Y-79470101D01*
X175268008Y-79470101D02*
X174791818Y-79565339D01*
X175696580Y-79517720D02*
X176458485Y-79517720D01*
X171945087Y-91158742D02*
X171611754Y-91158742D01*
X171611754Y-91682552D02*
X171611754Y-90682552D01*
X171611754Y-90682552D02*
X172087944Y-90682552D01*
X172611754Y-91682552D02*
X172516516Y-91634933D01*
X172516516Y-91634933D02*
X172468897Y-91587313D01*
X172468897Y-91587313D02*
X172421278Y-91492075D01*
X172421278Y-91492075D02*
X172421278Y-91206361D01*
X172421278Y-91206361D02*
X172468897Y-91111123D01*
X172468897Y-91111123D02*
X172516516Y-91063504D01*
X172516516Y-91063504D02*
X172611754Y-91015885D01*
X172611754Y-91015885D02*
X172754611Y-91015885D01*
X172754611Y-91015885D02*
X172849849Y-91063504D01*
X172849849Y-91063504D02*
X172897468Y-91111123D01*
X172897468Y-91111123D02*
X172945087Y-91206361D01*
X172945087Y-91206361D02*
X172945087Y-91492075D01*
X172945087Y-91492075D02*
X172897468Y-91587313D01*
X172897468Y-91587313D02*
X172849849Y-91634933D01*
X172849849Y-91634933D02*
X172754611Y-91682552D01*
X172754611Y-91682552D02*
X172611754Y-91682552D01*
X173373659Y-91682552D02*
X173373659Y-91015885D01*
X173373659Y-91206361D02*
X173421278Y-91111123D01*
X173421278Y-91111123D02*
X173468897Y-91063504D01*
X173468897Y-91063504D02*
X173564135Y-91015885D01*
X173564135Y-91015885D02*
X173659373Y-91015885D01*
X174421278Y-91634933D02*
X174326040Y-91682552D01*
X174326040Y-91682552D02*
X174135564Y-91682552D01*
X174135564Y-91682552D02*
X174040326Y-91634933D01*
X174040326Y-91634933D02*
X173992707Y-91587313D01*
X173992707Y-91587313D02*
X173945088Y-91492075D01*
X173945088Y-91492075D02*
X173945088Y-91206361D01*
X173945088Y-91206361D02*
X173992707Y-91111123D01*
X173992707Y-91111123D02*
X174040326Y-91063504D01*
X174040326Y-91063504D02*
X174135564Y-91015885D01*
X174135564Y-91015885D02*
X174326040Y-91015885D01*
X174326040Y-91015885D02*
X174421278Y-91063504D01*
X175230802Y-91634933D02*
X175135564Y-91682552D01*
X175135564Y-91682552D02*
X174945088Y-91682552D01*
X174945088Y-91682552D02*
X174849850Y-91634933D01*
X174849850Y-91634933D02*
X174802231Y-91539694D01*
X174802231Y-91539694D02*
X174802231Y-91158742D01*
X174802231Y-91158742D02*
X174849850Y-91063504D01*
X174849850Y-91063504D02*
X174945088Y-91015885D01*
X174945088Y-91015885D02*
X175135564Y-91015885D01*
X175135564Y-91015885D02*
X175230802Y-91063504D01*
X175230802Y-91063504D02*
X175278421Y-91158742D01*
X175278421Y-91158742D02*
X175278421Y-91253980D01*
X175278421Y-91253980D02*
X174802231Y-91349218D01*
X175706993Y-91301599D02*
X176468898Y-91301599D01*
X172148960Y-84535616D02*
X171815627Y-84059425D01*
X171577532Y-84535616D02*
X171577532Y-83535616D01*
X171577532Y-83535616D02*
X171958484Y-83535616D01*
X171958484Y-83535616D02*
X172053722Y-83583235D01*
X172053722Y-83583235D02*
X172101341Y-83630854D01*
X172101341Y-83630854D02*
X172148960Y-83726092D01*
X172148960Y-83726092D02*
X172148960Y-83868949D01*
X172148960Y-83868949D02*
X172101341Y-83964187D01*
X172101341Y-83964187D02*
X172053722Y-84011806D01*
X172053722Y-84011806D02*
X171958484Y-84059425D01*
X171958484Y-84059425D02*
X171577532Y-84059425D01*
X172434675Y-83535616D02*
X173006103Y-83535616D01*
X172720389Y-84535616D02*
X172720389Y-83535616D01*
X173339437Y-84535616D02*
X173339437Y-83535616D01*
X173339437Y-83535616D02*
X173577532Y-83535616D01*
X173577532Y-83535616D02*
X173720389Y-83583235D01*
X173720389Y-83583235D02*
X173815627Y-83678473D01*
X173815627Y-83678473D02*
X173863246Y-83773711D01*
X173863246Y-83773711D02*
X173910865Y-83964187D01*
X173910865Y-83964187D02*
X173910865Y-84107044D01*
X173910865Y-84107044D02*
X173863246Y-84297520D01*
X173863246Y-84297520D02*
X173815627Y-84392758D01*
X173815627Y-84392758D02*
X173720389Y-84487997D01*
X173720389Y-84487997D02*
X173577532Y-84535616D01*
X173577532Y-84535616D02*
X173339437Y-84535616D01*
X174339437Y-84535616D02*
X174339437Y-83535616D01*
X174815627Y-83868949D02*
X174815627Y-84535616D01*
X174815627Y-83964187D02*
X174863246Y-83916568D01*
X174863246Y-83916568D02*
X174958484Y-83868949D01*
X174958484Y-83868949D02*
X175101341Y-83868949D01*
X175101341Y-83868949D02*
X175196579Y-83916568D01*
X175196579Y-83916568D02*
X175244198Y-84011806D01*
X175244198Y-84011806D02*
X175244198Y-84535616D01*
X175720389Y-84154663D02*
X176482294Y-84154663D01*
X176101341Y-84535616D02*
X176101341Y-83773711D01*
X171987431Y-105803204D02*
X171654098Y-105803204D01*
X171654098Y-106327014D02*
X171654098Y-105327014D01*
X171654098Y-105327014D02*
X172130288Y-105327014D01*
X172654098Y-106327014D02*
X172558860Y-106279395D01*
X172558860Y-106279395D02*
X172511241Y-106231775D01*
X172511241Y-106231775D02*
X172463622Y-106136537D01*
X172463622Y-106136537D02*
X172463622Y-105850823D01*
X172463622Y-105850823D02*
X172511241Y-105755585D01*
X172511241Y-105755585D02*
X172558860Y-105707966D01*
X172558860Y-105707966D02*
X172654098Y-105660347D01*
X172654098Y-105660347D02*
X172796955Y-105660347D01*
X172796955Y-105660347D02*
X172892193Y-105707966D01*
X172892193Y-105707966D02*
X172939812Y-105755585D01*
X172939812Y-105755585D02*
X172987431Y-105850823D01*
X172987431Y-105850823D02*
X172987431Y-106136537D01*
X172987431Y-106136537D02*
X172939812Y-106231775D01*
X172939812Y-106231775D02*
X172892193Y-106279395D01*
X172892193Y-106279395D02*
X172796955Y-106327014D01*
X172796955Y-106327014D02*
X172654098Y-106327014D01*
X173416003Y-106327014D02*
X173416003Y-105660347D01*
X173416003Y-105850823D02*
X173463622Y-105755585D01*
X173463622Y-105755585D02*
X173511241Y-105707966D01*
X173511241Y-105707966D02*
X173606479Y-105660347D01*
X173606479Y-105660347D02*
X173701717Y-105660347D01*
X174463622Y-106279395D02*
X174368384Y-106327014D01*
X174368384Y-106327014D02*
X174177908Y-106327014D01*
X174177908Y-106327014D02*
X174082670Y-106279395D01*
X174082670Y-106279395D02*
X174035051Y-106231775D01*
X174035051Y-106231775D02*
X173987432Y-106136537D01*
X173987432Y-106136537D02*
X173987432Y-105850823D01*
X173987432Y-105850823D02*
X174035051Y-105755585D01*
X174035051Y-105755585D02*
X174082670Y-105707966D01*
X174082670Y-105707966D02*
X174177908Y-105660347D01*
X174177908Y-105660347D02*
X174368384Y-105660347D01*
X174368384Y-105660347D02*
X174463622Y-105707966D01*
X175273146Y-106279395D02*
X175177908Y-106327014D01*
X175177908Y-106327014D02*
X174987432Y-106327014D01*
X174987432Y-106327014D02*
X174892194Y-106279395D01*
X174892194Y-106279395D02*
X174844575Y-106184156D01*
X174844575Y-106184156D02*
X174844575Y-105803204D01*
X174844575Y-105803204D02*
X174892194Y-105707966D01*
X174892194Y-105707966D02*
X174987432Y-105660347D01*
X174987432Y-105660347D02*
X175177908Y-105660347D01*
X175177908Y-105660347D02*
X175273146Y-105707966D01*
X175273146Y-105707966D02*
X175320765Y-105803204D01*
X175320765Y-105803204D02*
X175320765Y-105898442D01*
X175320765Y-105898442D02*
X174844575Y-105993680D01*
X175749337Y-105946061D02*
X176511242Y-105946061D01*
X176130289Y-106327014D02*
X176130289Y-105565109D01*
X171945087Y-93565817D02*
X171611754Y-93565817D01*
X171611754Y-94089627D02*
X171611754Y-93089627D01*
X171611754Y-93089627D02*
X172087944Y-93089627D01*
X172611754Y-94089627D02*
X172516516Y-94042008D01*
X172516516Y-94042008D02*
X172468897Y-93994388D01*
X172468897Y-93994388D02*
X172421278Y-93899150D01*
X172421278Y-93899150D02*
X172421278Y-93613436D01*
X172421278Y-93613436D02*
X172468897Y-93518198D01*
X172468897Y-93518198D02*
X172516516Y-93470579D01*
X172516516Y-93470579D02*
X172611754Y-93422960D01*
X172611754Y-93422960D02*
X172754611Y-93422960D01*
X172754611Y-93422960D02*
X172849849Y-93470579D01*
X172849849Y-93470579D02*
X172897468Y-93518198D01*
X172897468Y-93518198D02*
X172945087Y-93613436D01*
X172945087Y-93613436D02*
X172945087Y-93899150D01*
X172945087Y-93899150D02*
X172897468Y-93994388D01*
X172897468Y-93994388D02*
X172849849Y-94042008D01*
X172849849Y-94042008D02*
X172754611Y-94089627D01*
X172754611Y-94089627D02*
X172611754Y-94089627D01*
X173373659Y-94089627D02*
X173373659Y-93422960D01*
X173373659Y-93613436D02*
X173421278Y-93518198D01*
X173421278Y-93518198D02*
X173468897Y-93470579D01*
X173468897Y-93470579D02*
X173564135Y-93422960D01*
X173564135Y-93422960D02*
X173659373Y-93422960D01*
X174421278Y-94042008D02*
X174326040Y-94089627D01*
X174326040Y-94089627D02*
X174135564Y-94089627D01*
X174135564Y-94089627D02*
X174040326Y-94042008D01*
X174040326Y-94042008D02*
X173992707Y-93994388D01*
X173992707Y-93994388D02*
X173945088Y-93899150D01*
X173945088Y-93899150D02*
X173945088Y-93613436D01*
X173945088Y-93613436D02*
X173992707Y-93518198D01*
X173992707Y-93518198D02*
X174040326Y-93470579D01*
X174040326Y-93470579D02*
X174135564Y-93422960D01*
X174135564Y-93422960D02*
X174326040Y-93422960D01*
X174326040Y-93422960D02*
X174421278Y-93470579D01*
X175230802Y-94042008D02*
X175135564Y-94089627D01*
X175135564Y-94089627D02*
X174945088Y-94089627D01*
X174945088Y-94089627D02*
X174849850Y-94042008D01*
X174849850Y-94042008D02*
X174802231Y-93946769D01*
X174802231Y-93946769D02*
X174802231Y-93565817D01*
X174802231Y-93565817D02*
X174849850Y-93470579D01*
X174849850Y-93470579D02*
X174945088Y-93422960D01*
X174945088Y-93422960D02*
X175135564Y-93422960D01*
X175135564Y-93422960D02*
X175230802Y-93470579D01*
X175230802Y-93470579D02*
X175278421Y-93565817D01*
X175278421Y-93565817D02*
X175278421Y-93661055D01*
X175278421Y-93661055D02*
X174802231Y-93756293D01*
X175706993Y-93708674D02*
X176468898Y-93708674D01*
X176087945Y-94089627D02*
X176087945Y-93327722D01*
D11*
X161385190Y-67226163D02*
X161347094Y-67264259D01*
X161347094Y-67264259D02*
X161232809Y-67302354D01*
X161232809Y-67302354D02*
X161156618Y-67302354D01*
X161156618Y-67302354D02*
X161042332Y-67264259D01*
X161042332Y-67264259D02*
X160966142Y-67188068D01*
X160966142Y-67188068D02*
X160928047Y-67111878D01*
X160928047Y-67111878D02*
X160889951Y-66959497D01*
X160889951Y-66959497D02*
X160889951Y-66845211D01*
X160889951Y-66845211D02*
X160928047Y-66692830D01*
X160928047Y-66692830D02*
X160966142Y-66616639D01*
X160966142Y-66616639D02*
X161042332Y-66540449D01*
X161042332Y-66540449D02*
X161156618Y-66502354D01*
X161156618Y-66502354D02*
X161232809Y-66502354D01*
X161232809Y-66502354D02*
X161347094Y-66540449D01*
X161347094Y-66540449D02*
X161385190Y-66578544D01*
X161728047Y-67302354D02*
X161728047Y-66502354D01*
X161728047Y-66883306D02*
X162185190Y-66883306D01*
X162185190Y-67302354D02*
X162185190Y-66502354D01*
X161464931Y-64514958D02*
X161426835Y-64553054D01*
X161426835Y-64553054D02*
X161312550Y-64591149D01*
X161312550Y-64591149D02*
X161236359Y-64591149D01*
X161236359Y-64591149D02*
X161122073Y-64553054D01*
X161122073Y-64553054D02*
X161045883Y-64476863D01*
X161045883Y-64476863D02*
X161007788Y-64400673D01*
X161007788Y-64400673D02*
X160969692Y-64248292D01*
X160969692Y-64248292D02*
X160969692Y-64134006D01*
X160969692Y-64134006D02*
X161007788Y-63981625D01*
X161007788Y-63981625D02*
X161045883Y-63905434D01*
X161045883Y-63905434D02*
X161122073Y-63829244D01*
X161122073Y-63829244D02*
X161236359Y-63791149D01*
X161236359Y-63791149D02*
X161312550Y-63791149D01*
X161312550Y-63791149D02*
X161426835Y-63829244D01*
X161426835Y-63829244D02*
X161464931Y-63867339D01*
X162188740Y-64591149D02*
X161807788Y-64591149D01*
X161807788Y-64591149D02*
X161807788Y-63791149D01*
D10*
X158959083Y-102393862D02*
X159578130Y-102393862D01*
X159578130Y-102393862D02*
X159244797Y-102774814D01*
X159244797Y-102774814D02*
X159387654Y-102774814D01*
X159387654Y-102774814D02*
X159482892Y-102822433D01*
X159482892Y-102822433D02*
X159530511Y-102870052D01*
X159530511Y-102870052D02*
X159578130Y-102965290D01*
X159578130Y-102965290D02*
X159578130Y-103203385D01*
X159578130Y-103203385D02*
X159530511Y-103298623D01*
X159530511Y-103298623D02*
X159482892Y-103346243D01*
X159482892Y-103346243D02*
X159387654Y-103393862D01*
X159387654Y-103393862D02*
X159101940Y-103393862D01*
X159101940Y-103393862D02*
X159006702Y-103346243D01*
X159006702Y-103346243D02*
X158959083Y-103298623D01*
X150419868Y-78458080D02*
X150467487Y-78315223D01*
X150467487Y-78315223D02*
X150467487Y-78077128D01*
X150467487Y-78077128D02*
X150419868Y-77981890D01*
X150419868Y-77981890D02*
X150372248Y-77934271D01*
X150372248Y-77934271D02*
X150277010Y-77886652D01*
X150277010Y-77886652D02*
X150181772Y-77886652D01*
X150181772Y-77886652D02*
X150086534Y-77934271D01*
X150086534Y-77934271D02*
X150038915Y-77981890D01*
X150038915Y-77981890D02*
X149991296Y-78077128D01*
X149991296Y-78077128D02*
X149943677Y-78267604D01*
X149943677Y-78267604D02*
X149896058Y-78362842D01*
X149896058Y-78362842D02*
X149848439Y-78410461D01*
X149848439Y-78410461D02*
X149753201Y-78458080D01*
X149753201Y-78458080D02*
X149657963Y-78458080D01*
X149657963Y-78458080D02*
X149562725Y-78410461D01*
X149562725Y-78410461D02*
X149515106Y-78362842D01*
X149515106Y-78362842D02*
X149467487Y-78267604D01*
X149467487Y-78267604D02*
X149467487Y-78029509D01*
X149467487Y-78029509D02*
X149515106Y-77886652D01*
X150372248Y-76886652D02*
X150419868Y-76934271D01*
X150419868Y-76934271D02*
X150467487Y-77077128D01*
X150467487Y-77077128D02*
X150467487Y-77172366D01*
X150467487Y-77172366D02*
X150419868Y-77315223D01*
X150419868Y-77315223D02*
X150324629Y-77410461D01*
X150324629Y-77410461D02*
X150229391Y-77458080D01*
X150229391Y-77458080D02*
X150038915Y-77505699D01*
X150038915Y-77505699D02*
X149896058Y-77505699D01*
X149896058Y-77505699D02*
X149705582Y-77458080D01*
X149705582Y-77458080D02*
X149610344Y-77410461D01*
X149610344Y-77410461D02*
X149515106Y-77315223D01*
X149515106Y-77315223D02*
X149467487Y-77172366D01*
X149467487Y-77172366D02*
X149467487Y-77077128D01*
X149467487Y-77077128D02*
X149515106Y-76934271D01*
X149515106Y-76934271D02*
X149562725Y-76886652D01*
X150467487Y-76458080D02*
X149467487Y-76458080D01*
X150467487Y-75886652D02*
X149896058Y-76315223D01*
X149467487Y-75886652D02*
X150038915Y-76458080D01*
X158621610Y-104739202D02*
X158669229Y-104691583D01*
X158669229Y-104691583D02*
X158764467Y-104643964D01*
X158764467Y-104643964D02*
X159002562Y-104643964D01*
X159002562Y-104643964D02*
X159097800Y-104691583D01*
X159097800Y-104691583D02*
X159145419Y-104739202D01*
X159145419Y-104739202D02*
X159193038Y-104834440D01*
X159193038Y-104834440D02*
X159193038Y-104929678D01*
X159193038Y-104929678D02*
X159145419Y-105072535D01*
X159145419Y-105072535D02*
X158573991Y-105643964D01*
X158573991Y-105643964D02*
X159193038Y-105643964D01*
X159621610Y-105263011D02*
X160383515Y-105263011D01*
X161288276Y-104977297D02*
X161288276Y-105643964D01*
X161050181Y-104596345D02*
X160812086Y-105310630D01*
X160812086Y-105310630D02*
X161431133Y-105310630D01*
D11*
X146123743Y-125612981D02*
X146047553Y-125574886D01*
X146047553Y-125574886D02*
X145933267Y-125574886D01*
X145933267Y-125574886D02*
X145818981Y-125612981D01*
X145818981Y-125612981D02*
X145742791Y-125689171D01*
X145742791Y-125689171D02*
X145704696Y-125765362D01*
X145704696Y-125765362D02*
X145666600Y-125917743D01*
X145666600Y-125917743D02*
X145666600Y-126032029D01*
X145666600Y-126032029D02*
X145704696Y-126184410D01*
X145704696Y-126184410D02*
X145742791Y-126260600D01*
X145742791Y-126260600D02*
X145818981Y-126336791D01*
X145818981Y-126336791D02*
X145933267Y-126374886D01*
X145933267Y-126374886D02*
X146009458Y-126374886D01*
X146009458Y-126374886D02*
X146123743Y-126336791D01*
X146123743Y-126336791D02*
X146161839Y-126298695D01*
X146161839Y-126298695D02*
X146161839Y-126032029D01*
X146161839Y-126032029D02*
X146009458Y-126032029D01*
X146504696Y-126374886D02*
X146504696Y-125574886D01*
X146504696Y-125574886D02*
X146961839Y-126374886D01*
X146961839Y-126374886D02*
X146961839Y-125574886D01*
X147342791Y-126374886D02*
X147342791Y-125574886D01*
X147342791Y-125574886D02*
X147533267Y-125574886D01*
X147533267Y-125574886D02*
X147647553Y-125612981D01*
X147647553Y-125612981D02*
X147723743Y-125689171D01*
X147723743Y-125689171D02*
X147761838Y-125765362D01*
X147761838Y-125765362D02*
X147799934Y-125917743D01*
X147799934Y-125917743D02*
X147799934Y-126032029D01*
X147799934Y-126032029D02*
X147761838Y-126184410D01*
X147761838Y-126184410D02*
X147723743Y-126260600D01*
X147723743Y-126260600D02*
X147647553Y-126336791D01*
X147647553Y-126336791D02*
X147533267Y-126374886D01*
X147533267Y-126374886D02*
X147342791Y-126374886D01*
D10*
X172159373Y-88994897D02*
X171826040Y-88518706D01*
X171587945Y-88994897D02*
X171587945Y-87994897D01*
X171587945Y-87994897D02*
X171968897Y-87994897D01*
X171968897Y-87994897D02*
X172064135Y-88042516D01*
X172064135Y-88042516D02*
X172111754Y-88090135D01*
X172111754Y-88090135D02*
X172159373Y-88185373D01*
X172159373Y-88185373D02*
X172159373Y-88328230D01*
X172159373Y-88328230D02*
X172111754Y-88423468D01*
X172111754Y-88423468D02*
X172064135Y-88471087D01*
X172064135Y-88471087D02*
X171968897Y-88518706D01*
X171968897Y-88518706D02*
X171587945Y-88518706D01*
X172445088Y-87994897D02*
X173016516Y-87994897D01*
X172730802Y-88994897D02*
X172730802Y-87994897D01*
X173349850Y-88994897D02*
X173349850Y-87994897D01*
X173349850Y-87994897D02*
X173587945Y-87994897D01*
X173587945Y-87994897D02*
X173730802Y-88042516D01*
X173730802Y-88042516D02*
X173826040Y-88137754D01*
X173826040Y-88137754D02*
X173873659Y-88232992D01*
X173873659Y-88232992D02*
X173921278Y-88423468D01*
X173921278Y-88423468D02*
X173921278Y-88566325D01*
X173921278Y-88566325D02*
X173873659Y-88756801D01*
X173873659Y-88756801D02*
X173826040Y-88852039D01*
X173826040Y-88852039D02*
X173730802Y-88947278D01*
X173730802Y-88947278D02*
X173587945Y-88994897D01*
X173587945Y-88994897D02*
X173349850Y-88994897D01*
X174349850Y-88994897D02*
X174349850Y-87994897D01*
X174826040Y-88328230D02*
X174826040Y-88994897D01*
X174826040Y-88423468D02*
X174873659Y-88375849D01*
X174873659Y-88375849D02*
X174968897Y-88328230D01*
X174968897Y-88328230D02*
X175111754Y-88328230D01*
X175111754Y-88328230D02*
X175206992Y-88375849D01*
X175206992Y-88375849D02*
X175254611Y-88471087D01*
X175254611Y-88471087D02*
X175254611Y-88994897D01*
X175730802Y-88613944D02*
X176492707Y-88613944D01*
X172148960Y-77211018D02*
X171815627Y-76734827D01*
X171577532Y-77211018D02*
X171577532Y-76211018D01*
X171577532Y-76211018D02*
X171958484Y-76211018D01*
X171958484Y-76211018D02*
X172053722Y-76258637D01*
X172053722Y-76258637D02*
X172101341Y-76306256D01*
X172101341Y-76306256D02*
X172148960Y-76401494D01*
X172148960Y-76401494D02*
X172148960Y-76544351D01*
X172148960Y-76544351D02*
X172101341Y-76639589D01*
X172101341Y-76639589D02*
X172053722Y-76687208D01*
X172053722Y-76687208D02*
X171958484Y-76734827D01*
X171958484Y-76734827D02*
X171577532Y-76734827D01*
X172434675Y-76211018D02*
X173006103Y-76211018D01*
X172720389Y-77211018D02*
X172720389Y-76211018D01*
X173339437Y-77211018D02*
X173339437Y-76211018D01*
X173339437Y-76211018D02*
X173577532Y-76211018D01*
X173577532Y-76211018D02*
X173720389Y-76258637D01*
X173720389Y-76258637D02*
X173815627Y-76353875D01*
X173815627Y-76353875D02*
X173863246Y-76449113D01*
X173863246Y-76449113D02*
X173910865Y-76639589D01*
X173910865Y-76639589D02*
X173910865Y-76782446D01*
X173910865Y-76782446D02*
X173863246Y-76972922D01*
X173863246Y-76972922D02*
X173815627Y-77068160D01*
X173815627Y-77068160D02*
X173720389Y-77163399D01*
X173720389Y-77163399D02*
X173577532Y-77211018D01*
X173577532Y-77211018D02*
X173339437Y-77211018D01*
X174339437Y-77211018D02*
X174339437Y-76211018D01*
X174815627Y-76544351D02*
X174815627Y-77211018D01*
X174815627Y-76639589D02*
X174863246Y-76591970D01*
X174863246Y-76591970D02*
X174958484Y-76544351D01*
X174958484Y-76544351D02*
X175101341Y-76544351D01*
X175101341Y-76544351D02*
X175196579Y-76591970D01*
X175196579Y-76591970D02*
X175244198Y-76687208D01*
X175244198Y-76687208D02*
X175244198Y-77211018D01*
X175720389Y-76830065D02*
X176482294Y-76830065D01*
D11*
X133538015Y-126401636D02*
X133271348Y-126020683D01*
X133080872Y-126401636D02*
X133080872Y-125601636D01*
X133080872Y-125601636D02*
X133385634Y-125601636D01*
X133385634Y-125601636D02*
X133461824Y-125639731D01*
X133461824Y-125639731D02*
X133499919Y-125677826D01*
X133499919Y-125677826D02*
X133538015Y-125754017D01*
X133538015Y-125754017D02*
X133538015Y-125868302D01*
X133538015Y-125868302D02*
X133499919Y-125944493D01*
X133499919Y-125944493D02*
X133461824Y-125982588D01*
X133461824Y-125982588D02*
X133385634Y-126020683D01*
X133385634Y-126020683D02*
X133080872Y-126020683D01*
X133842776Y-126363541D02*
X133957062Y-126401636D01*
X133957062Y-126401636D02*
X134147538Y-126401636D01*
X134147538Y-126401636D02*
X134223729Y-126363541D01*
X134223729Y-126363541D02*
X134261824Y-126325445D01*
X134261824Y-126325445D02*
X134299919Y-126249255D01*
X134299919Y-126249255D02*
X134299919Y-126173064D01*
X134299919Y-126173064D02*
X134261824Y-126096874D01*
X134261824Y-126096874D02*
X134223729Y-126058779D01*
X134223729Y-126058779D02*
X134147538Y-126020683D01*
X134147538Y-126020683D02*
X133995157Y-125982588D01*
X133995157Y-125982588D02*
X133918967Y-125944493D01*
X133918967Y-125944493D02*
X133880872Y-125906398D01*
X133880872Y-125906398D02*
X133842776Y-125830207D01*
X133842776Y-125830207D02*
X133842776Y-125754017D01*
X133842776Y-125754017D02*
X133880872Y-125677826D01*
X133880872Y-125677826D02*
X133918967Y-125639731D01*
X133918967Y-125639731D02*
X133995157Y-125601636D01*
X133995157Y-125601636D02*
X134185634Y-125601636D01*
X134185634Y-125601636D02*
X134299919Y-125639731D01*
X134528491Y-125601636D02*
X134985634Y-125601636D01*
X134757062Y-126401636D02*
X134757062Y-125601636D01*
X141541182Y-125601636D02*
X141160230Y-125601636D01*
X141160230Y-125601636D02*
X141122134Y-125982588D01*
X141122134Y-125982588D02*
X141160230Y-125944493D01*
X141160230Y-125944493D02*
X141236420Y-125906398D01*
X141236420Y-125906398D02*
X141426896Y-125906398D01*
X141426896Y-125906398D02*
X141503087Y-125944493D01*
X141503087Y-125944493D02*
X141541182Y-125982588D01*
X141541182Y-125982588D02*
X141579277Y-126058779D01*
X141579277Y-126058779D02*
X141579277Y-126249255D01*
X141579277Y-126249255D02*
X141541182Y-126325445D01*
X141541182Y-126325445D02*
X141503087Y-126363541D01*
X141503087Y-126363541D02*
X141426896Y-126401636D01*
X141426896Y-126401636D02*
X141236420Y-126401636D01*
X141236420Y-126401636D02*
X141160230Y-126363541D01*
X141160230Y-126363541D02*
X141122134Y-126325445D01*
X141807849Y-125601636D02*
X142074516Y-126401636D01*
X142074516Y-126401636D02*
X142341182Y-125601636D01*
D10*
X159715677Y-91087531D02*
X160334724Y-91087531D01*
X160334724Y-91087531D02*
X160001391Y-91468483D01*
X160001391Y-91468483D02*
X160144248Y-91468483D01*
X160144248Y-91468483D02*
X160239486Y-91516102D01*
X160239486Y-91516102D02*
X160287105Y-91563721D01*
X160287105Y-91563721D02*
X160334724Y-91658959D01*
X160334724Y-91658959D02*
X160334724Y-91897054D01*
X160334724Y-91897054D02*
X160287105Y-91992292D01*
X160287105Y-91992292D02*
X160239486Y-92039912D01*
X160239486Y-92039912D02*
X160144248Y-92087531D01*
X160144248Y-92087531D02*
X159858534Y-92087531D01*
X159858534Y-92087531D02*
X159763296Y-92039912D01*
X159763296Y-92039912D02*
X159715677Y-91992292D01*
X144268809Y-68393689D02*
X143268809Y-68393689D01*
X143268809Y-68393689D02*
X143983094Y-68060356D01*
X143983094Y-68060356D02*
X143268809Y-67727023D01*
X143268809Y-67727023D02*
X144268809Y-67727023D01*
X143268809Y-67060356D02*
X143268809Y-66869880D01*
X143268809Y-66869880D02*
X143316428Y-66774642D01*
X143316428Y-66774642D02*
X143411666Y-66679404D01*
X143411666Y-66679404D02*
X143602142Y-66631785D01*
X143602142Y-66631785D02*
X143935475Y-66631785D01*
X143935475Y-66631785D02*
X144125951Y-66679404D01*
X144125951Y-66679404D02*
X144221190Y-66774642D01*
X144221190Y-66774642D02*
X144268809Y-66869880D01*
X144268809Y-66869880D02*
X144268809Y-67060356D01*
X144268809Y-67060356D02*
X144221190Y-67155594D01*
X144221190Y-67155594D02*
X144125951Y-67250832D01*
X144125951Y-67250832D02*
X143935475Y-67298451D01*
X143935475Y-67298451D02*
X143602142Y-67298451D01*
X143602142Y-67298451D02*
X143411666Y-67250832D01*
X143411666Y-67250832D02*
X143316428Y-67155594D01*
X143316428Y-67155594D02*
X143268809Y-67060356D01*
X144221190Y-66250832D02*
X144268809Y-66107975D01*
X144268809Y-66107975D02*
X144268809Y-65869880D01*
X144268809Y-65869880D02*
X144221190Y-65774642D01*
X144221190Y-65774642D02*
X144173570Y-65727023D01*
X144173570Y-65727023D02*
X144078332Y-65679404D01*
X144078332Y-65679404D02*
X143983094Y-65679404D01*
X143983094Y-65679404D02*
X143887856Y-65727023D01*
X143887856Y-65727023D02*
X143840237Y-65774642D01*
X143840237Y-65774642D02*
X143792618Y-65869880D01*
X143792618Y-65869880D02*
X143744999Y-66060356D01*
X143744999Y-66060356D02*
X143697380Y-66155594D01*
X143697380Y-66155594D02*
X143649761Y-66203213D01*
X143649761Y-66203213D02*
X143554523Y-66250832D01*
X143554523Y-66250832D02*
X143459285Y-66250832D01*
X143459285Y-66250832D02*
X143364047Y-66203213D01*
X143364047Y-66203213D02*
X143316428Y-66155594D01*
X143316428Y-66155594D02*
X143268809Y-66060356D01*
X143268809Y-66060356D02*
X143268809Y-65822261D01*
X143268809Y-65822261D02*
X143316428Y-65679404D01*
X144268809Y-65250832D02*
X143268809Y-65250832D01*
X154373996Y-96136894D02*
X154421615Y-96089275D01*
X154421615Y-96089275D02*
X154516853Y-96041656D01*
X154516853Y-96041656D02*
X154754948Y-96041656D01*
X154754948Y-96041656D02*
X154850186Y-96089275D01*
X154850186Y-96089275D02*
X154897805Y-96136894D01*
X154897805Y-96136894D02*
X154945424Y-96232132D01*
X154945424Y-96232132D02*
X154945424Y-96327370D01*
X154945424Y-96327370D02*
X154897805Y-96470227D01*
X154897805Y-96470227D02*
X154326377Y-97041656D01*
X154326377Y-97041656D02*
X154945424Y-97041656D01*
X155373996Y-96660703D02*
X156135901Y-96660703D01*
X156516853Y-96041656D02*
X157135900Y-96041656D01*
X157135900Y-96041656D02*
X156802567Y-96422608D01*
X156802567Y-96422608D02*
X156945424Y-96422608D01*
X156945424Y-96422608D02*
X157040662Y-96470227D01*
X157040662Y-96470227D02*
X157088281Y-96517846D01*
X157088281Y-96517846D02*
X157135900Y-96613084D01*
X157135900Y-96613084D02*
X157135900Y-96851179D01*
X157135900Y-96851179D02*
X157088281Y-96946417D01*
X157088281Y-96946417D02*
X157040662Y-96994037D01*
X157040662Y-96994037D02*
X156945424Y-97041656D01*
X156945424Y-97041656D02*
X156659710Y-97041656D01*
X156659710Y-97041656D02*
X156564472Y-96994037D01*
X156564472Y-96994037D02*
X156516853Y-96946417D01*
D11*
X161267353Y-68932689D02*
X161191163Y-68894594D01*
X161191163Y-68894594D02*
X161076877Y-68894594D01*
X161076877Y-68894594D02*
X160962591Y-68932689D01*
X160962591Y-68932689D02*
X160886401Y-69008879D01*
X160886401Y-69008879D02*
X160848306Y-69085070D01*
X160848306Y-69085070D02*
X160810210Y-69237451D01*
X160810210Y-69237451D02*
X160810210Y-69351737D01*
X160810210Y-69351737D02*
X160848306Y-69504118D01*
X160848306Y-69504118D02*
X160886401Y-69580308D01*
X160886401Y-69580308D02*
X160962591Y-69656499D01*
X160962591Y-69656499D02*
X161076877Y-69694594D01*
X161076877Y-69694594D02*
X161153068Y-69694594D01*
X161153068Y-69694594D02*
X161267353Y-69656499D01*
X161267353Y-69656499D02*
X161305449Y-69618403D01*
X161305449Y-69618403D02*
X161305449Y-69351737D01*
X161305449Y-69351737D02*
X161153068Y-69351737D01*
X161648306Y-69694594D02*
X161648306Y-68894594D01*
X161648306Y-68894594D02*
X162105449Y-69694594D01*
X162105449Y-69694594D02*
X162105449Y-68894594D01*
X162486401Y-69694594D02*
X162486401Y-68894594D01*
X162486401Y-68894594D02*
X162676877Y-68894594D01*
X162676877Y-68894594D02*
X162791163Y-68932689D01*
X162791163Y-68932689D02*
X162867353Y-69008879D01*
X162867353Y-69008879D02*
X162905448Y-69085070D01*
X162905448Y-69085070D02*
X162943544Y-69237451D01*
X162943544Y-69237451D02*
X162943544Y-69351737D01*
X162943544Y-69351737D02*
X162905448Y-69504118D01*
X162905448Y-69504118D02*
X162867353Y-69580308D01*
X162867353Y-69580308D02*
X162791163Y-69656499D01*
X162791163Y-69656499D02*
X162676877Y-69694594D01*
X162676877Y-69694594D02*
X162486401Y-69694594D01*
X139003463Y-126389130D02*
X138736796Y-126008177D01*
X138546320Y-126389130D02*
X138546320Y-125589130D01*
X138546320Y-125589130D02*
X138851082Y-125589130D01*
X138851082Y-125589130D02*
X138927272Y-125627225D01*
X138927272Y-125627225D02*
X138965367Y-125665320D01*
X138965367Y-125665320D02*
X139003463Y-125741511D01*
X139003463Y-125741511D02*
X139003463Y-125855796D01*
X139003463Y-125855796D02*
X138965367Y-125931987D01*
X138965367Y-125931987D02*
X138927272Y-125970082D01*
X138927272Y-125970082D02*
X138851082Y-126008177D01*
X138851082Y-126008177D02*
X138546320Y-126008177D01*
X139270129Y-125589130D02*
X139803463Y-126389130D01*
X139803463Y-125589130D02*
X139270129Y-126389130D01*
D10*
X127097009Y-87093811D02*
X127001771Y-87046192D01*
X127001771Y-87046192D02*
X126858914Y-87046192D01*
X126858914Y-87046192D02*
X126716057Y-87093811D01*
X126716057Y-87093811D02*
X126620819Y-87189049D01*
X126620819Y-87189049D02*
X126573200Y-87284287D01*
X126573200Y-87284287D02*
X126525581Y-87474763D01*
X126525581Y-87474763D02*
X126525581Y-87617620D01*
X126525581Y-87617620D02*
X126573200Y-87808096D01*
X126573200Y-87808096D02*
X126620819Y-87903334D01*
X126620819Y-87903334D02*
X126716057Y-87998573D01*
X126716057Y-87998573D02*
X126858914Y-88046192D01*
X126858914Y-88046192D02*
X126954152Y-88046192D01*
X126954152Y-88046192D02*
X127097009Y-87998573D01*
X127097009Y-87998573D02*
X127144628Y-87950953D01*
X127144628Y-87950953D02*
X127144628Y-87617620D01*
X127144628Y-87617620D02*
X126954152Y-87617620D01*
X127573200Y-88046192D02*
X127573200Y-87046192D01*
X127573200Y-87046192D02*
X128144628Y-88046192D01*
X128144628Y-88046192D02*
X128144628Y-87046192D01*
X128620819Y-88046192D02*
X128620819Y-87046192D01*
X128620819Y-87046192D02*
X128858914Y-87046192D01*
X128858914Y-87046192D02*
X129001771Y-87093811D01*
X129001771Y-87093811D02*
X129097009Y-87189049D01*
X129097009Y-87189049D02*
X129144628Y-87284287D01*
X129144628Y-87284287D02*
X129192247Y-87474763D01*
X129192247Y-87474763D02*
X129192247Y-87617620D01*
X129192247Y-87617620D02*
X129144628Y-87808096D01*
X129144628Y-87808096D02*
X129097009Y-87903334D01*
X129097009Y-87903334D02*
X129001771Y-87998573D01*
X129001771Y-87998573D02*
X128858914Y-88046192D01*
X128858914Y-88046192D02*
X128620819Y-88046192D01*
X154610013Y-80635174D02*
X154657632Y-80587555D01*
X154657632Y-80587555D02*
X154752870Y-80539936D01*
X154752870Y-80539936D02*
X154990965Y-80539936D01*
X154990965Y-80539936D02*
X155086203Y-80587555D01*
X155086203Y-80587555D02*
X155133822Y-80635174D01*
X155133822Y-80635174D02*
X155181441Y-80730412D01*
X155181441Y-80730412D02*
X155181441Y-80825650D01*
X155181441Y-80825650D02*
X155133822Y-80968507D01*
X155133822Y-80968507D02*
X154562394Y-81539936D01*
X154562394Y-81539936D02*
X155181441Y-81539936D01*
X154660345Y-102234865D02*
X154707964Y-102187246D01*
X154707964Y-102187246D02*
X154803202Y-102139627D01*
X154803202Y-102139627D02*
X155041297Y-102139627D01*
X155041297Y-102139627D02*
X155136535Y-102187246D01*
X155136535Y-102187246D02*
X155184154Y-102234865D01*
X155184154Y-102234865D02*
X155231773Y-102330103D01*
X155231773Y-102330103D02*
X155231773Y-102425341D01*
X155231773Y-102425341D02*
X155184154Y-102568198D01*
X155184154Y-102568198D02*
X154612726Y-103139627D01*
X154612726Y-103139627D02*
X155231773Y-103139627D01*
X172201717Y-101232284D02*
X171868384Y-100756093D01*
X171630289Y-101232284D02*
X171630289Y-100232284D01*
X171630289Y-100232284D02*
X172011241Y-100232284D01*
X172011241Y-100232284D02*
X172106479Y-100279903D01*
X172106479Y-100279903D02*
X172154098Y-100327522D01*
X172154098Y-100327522D02*
X172201717Y-100422760D01*
X172201717Y-100422760D02*
X172201717Y-100565617D01*
X172201717Y-100565617D02*
X172154098Y-100660855D01*
X172154098Y-100660855D02*
X172106479Y-100708474D01*
X172106479Y-100708474D02*
X172011241Y-100756093D01*
X172011241Y-100756093D02*
X171630289Y-100756093D01*
X172487432Y-100232284D02*
X173058860Y-100232284D01*
X172773146Y-101232284D02*
X172773146Y-100232284D01*
X173392194Y-101232284D02*
X173392194Y-100232284D01*
X173392194Y-100232284D02*
X173630289Y-100232284D01*
X173630289Y-100232284D02*
X173773146Y-100279903D01*
X173773146Y-100279903D02*
X173868384Y-100375141D01*
X173868384Y-100375141D02*
X173916003Y-100470379D01*
X173916003Y-100470379D02*
X173963622Y-100660855D01*
X173963622Y-100660855D02*
X173963622Y-100803712D01*
X173963622Y-100803712D02*
X173916003Y-100994188D01*
X173916003Y-100994188D02*
X173868384Y-101089426D01*
X173868384Y-101089426D02*
X173773146Y-101184665D01*
X173773146Y-101184665D02*
X173630289Y-101232284D01*
X173630289Y-101232284D02*
X173392194Y-101232284D01*
X174392194Y-101232284D02*
X174392194Y-100232284D01*
X174868384Y-100565617D02*
X174868384Y-101232284D01*
X174868384Y-100660855D02*
X174916003Y-100613236D01*
X174916003Y-100613236D02*
X175011241Y-100565617D01*
X175011241Y-100565617D02*
X175154098Y-100565617D01*
X175154098Y-100565617D02*
X175249336Y-100613236D01*
X175249336Y-100613236D02*
X175296955Y-100708474D01*
X175296955Y-100708474D02*
X175296955Y-101232284D01*
X175773146Y-100851331D02*
X176535051Y-100851331D01*
X154601058Y-85277177D02*
X154648677Y-85229558D01*
X154648677Y-85229558D02*
X154743915Y-85181939D01*
X154743915Y-85181939D02*
X154982010Y-85181939D01*
X154982010Y-85181939D02*
X155077248Y-85229558D01*
X155077248Y-85229558D02*
X155124867Y-85277177D01*
X155124867Y-85277177D02*
X155172486Y-85372415D01*
X155172486Y-85372415D02*
X155172486Y-85467653D01*
X155172486Y-85467653D02*
X155124867Y-85610510D01*
X155124867Y-85610510D02*
X154553439Y-86181939D01*
X154553439Y-86181939D02*
X155172486Y-86181939D01*
X155601058Y-85800986D02*
X156362963Y-85800986D01*
X156743915Y-85181939D02*
X157362962Y-85181939D01*
X157362962Y-85181939D02*
X157029629Y-85562891D01*
X157029629Y-85562891D02*
X157172486Y-85562891D01*
X157172486Y-85562891D02*
X157267724Y-85610510D01*
X157267724Y-85610510D02*
X157315343Y-85658129D01*
X157315343Y-85658129D02*
X157362962Y-85753367D01*
X157362962Y-85753367D02*
X157362962Y-85991462D01*
X157362962Y-85991462D02*
X157315343Y-86086700D01*
X157315343Y-86086700D02*
X157267724Y-86134320D01*
X157267724Y-86134320D02*
X157172486Y-86181939D01*
X157172486Y-86181939D02*
X156886772Y-86181939D01*
X156886772Y-86181939D02*
X156791534Y-86134320D01*
X156791534Y-86134320D02*
X156743915Y-86086700D01*
X159718186Y-93354013D02*
X159765805Y-93306394D01*
X159765805Y-93306394D02*
X159861043Y-93258775D01*
X159861043Y-93258775D02*
X160099138Y-93258775D01*
X160099138Y-93258775D02*
X160194376Y-93306394D01*
X160194376Y-93306394D02*
X160241995Y-93354013D01*
X160241995Y-93354013D02*
X160289614Y-93449251D01*
X160289614Y-93449251D02*
X160289614Y-93544489D01*
X160289614Y-93544489D02*
X160241995Y-93687346D01*
X160241995Y-93687346D02*
X159670567Y-94258775D01*
X159670567Y-94258775D02*
X160289614Y-94258775D01*
X160718186Y-93877822D02*
X161480091Y-93877822D01*
X162384852Y-93592108D02*
X162384852Y-94258775D01*
X162146757Y-93211156D02*
X161908662Y-93925441D01*
X161908662Y-93925441D02*
X162527709Y-93925441D01*
D11*
X136005726Y-125614143D02*
X136462869Y-125614143D01*
X136234297Y-126414143D02*
X136234297Y-125614143D01*
X136653345Y-125614143D02*
X137186679Y-126414143D01*
X137186679Y-125614143D02*
X136653345Y-126414143D01*
X161267353Y-72485541D02*
X160810210Y-72485541D01*
X161038782Y-72485541D02*
X161038782Y-71685541D01*
X161038782Y-71685541D02*
X160962591Y-71799826D01*
X160962591Y-71799826D02*
X160886401Y-71876017D01*
X160886401Y-71876017D02*
X160810210Y-71914112D01*
X161572115Y-71761731D02*
X161610211Y-71723636D01*
X161610211Y-71723636D02*
X161686401Y-71685541D01*
X161686401Y-71685541D02*
X161876877Y-71685541D01*
X161876877Y-71685541D02*
X161953068Y-71723636D01*
X161953068Y-71723636D02*
X161991163Y-71761731D01*
X161991163Y-71761731D02*
X162029258Y-71837922D01*
X162029258Y-71837922D02*
X162029258Y-71914112D01*
X162029258Y-71914112D02*
X161991163Y-72028398D01*
X161991163Y-72028398D02*
X161534020Y-72485541D01*
X161534020Y-72485541D02*
X162029258Y-72485541D01*
X162257830Y-71685541D02*
X162524497Y-72485541D01*
X162524497Y-72485541D02*
X162791163Y-71685541D01*
D10*
X150768588Y-124535652D02*
X151244778Y-124535652D01*
X150673350Y-124821367D02*
X151006683Y-123821367D01*
X151006683Y-123821367D02*
X151340016Y-124821367D01*
X151673350Y-124821367D02*
X151673350Y-123821367D01*
X151673350Y-123821367D02*
X152006683Y-124535652D01*
X152006683Y-124535652D02*
X152340016Y-123821367D01*
X152340016Y-123821367D02*
X152340016Y-124821367D01*
X152768588Y-124773748D02*
X152911445Y-124821367D01*
X152911445Y-124821367D02*
X153149540Y-124821367D01*
X153149540Y-124821367D02*
X153244778Y-124773748D01*
X153244778Y-124773748D02*
X153292397Y-124726128D01*
X153292397Y-124726128D02*
X153340016Y-124630890D01*
X153340016Y-124630890D02*
X153340016Y-124535652D01*
X153340016Y-124535652D02*
X153292397Y-124440414D01*
X153292397Y-124440414D02*
X153244778Y-124392795D01*
X153244778Y-124392795D02*
X153149540Y-124345176D01*
X153149540Y-124345176D02*
X152959064Y-124297557D01*
X152959064Y-124297557D02*
X152863826Y-124249938D01*
X152863826Y-124249938D02*
X152816207Y-124202319D01*
X152816207Y-124202319D02*
X152768588Y-124107081D01*
X152768588Y-124107081D02*
X152768588Y-124011843D01*
X152768588Y-124011843D02*
X152816207Y-123916605D01*
X152816207Y-123916605D02*
X152863826Y-123868986D01*
X152863826Y-123868986D02*
X152959064Y-123821367D01*
X152959064Y-123821367D02*
X153197159Y-123821367D01*
X153197159Y-123821367D02*
X153340016Y-123868986D01*
X155101921Y-124726128D02*
X155054302Y-124773748D01*
X155054302Y-124773748D02*
X154911445Y-124821367D01*
X154911445Y-124821367D02*
X154816207Y-124821367D01*
X154816207Y-124821367D02*
X154673350Y-124773748D01*
X154673350Y-124773748D02*
X154578112Y-124678509D01*
X154578112Y-124678509D02*
X154530493Y-124583271D01*
X154530493Y-124583271D02*
X154482874Y-124392795D01*
X154482874Y-124392795D02*
X154482874Y-124249938D01*
X154482874Y-124249938D02*
X154530493Y-124059462D01*
X154530493Y-124059462D02*
X154578112Y-123964224D01*
X154578112Y-123964224D02*
X154673350Y-123868986D01*
X154673350Y-123868986D02*
X154816207Y-123821367D01*
X154816207Y-123821367D02*
X154911445Y-123821367D01*
X154911445Y-123821367D02*
X155054302Y-123868986D01*
X155054302Y-123868986D02*
X155101921Y-123916605D01*
X155482874Y-124535652D02*
X155959064Y-124535652D01*
X155387636Y-124821367D02*
X155720969Y-123821367D01*
X155720969Y-123821367D02*
X156054302Y-124821367D01*
X156387636Y-124821367D02*
X156387636Y-123821367D01*
X156387636Y-123821367D02*
X156959064Y-124821367D01*
X156959064Y-124821367D02*
X156959064Y-123821367D01*
X157768588Y-124297557D02*
X157911445Y-124345176D01*
X157911445Y-124345176D02*
X157959064Y-124392795D01*
X157959064Y-124392795D02*
X158006683Y-124488033D01*
X158006683Y-124488033D02*
X158006683Y-124630890D01*
X158006683Y-124630890D02*
X157959064Y-124726128D01*
X157959064Y-124726128D02*
X157911445Y-124773748D01*
X157911445Y-124773748D02*
X157816207Y-124821367D01*
X157816207Y-124821367D02*
X157435255Y-124821367D01*
X157435255Y-124821367D02*
X157435255Y-123821367D01*
X157435255Y-123821367D02*
X157768588Y-123821367D01*
X157768588Y-123821367D02*
X157863826Y-123868986D01*
X157863826Y-123868986D02*
X157911445Y-123916605D01*
X157911445Y-123916605D02*
X157959064Y-124011843D01*
X157959064Y-124011843D02*
X157959064Y-124107081D01*
X157959064Y-124107081D02*
X157911445Y-124202319D01*
X157911445Y-124202319D02*
X157863826Y-124249938D01*
X157863826Y-124249938D02*
X157768588Y-124297557D01*
X157768588Y-124297557D02*
X157435255Y-124297557D01*
X158863826Y-124154700D02*
X158863826Y-124821367D01*
X158435255Y-124154700D02*
X158435255Y-124678509D01*
X158435255Y-124678509D02*
X158482874Y-124773748D01*
X158482874Y-124773748D02*
X158578112Y-124821367D01*
X158578112Y-124821367D02*
X158720969Y-124821367D01*
X158720969Y-124821367D02*
X158816207Y-124773748D01*
X158816207Y-124773748D02*
X158863826Y-124726128D01*
X159292398Y-124773748D02*
X159387636Y-124821367D01*
X159387636Y-124821367D02*
X159578112Y-124821367D01*
X159578112Y-124821367D02*
X159673350Y-124773748D01*
X159673350Y-124773748D02*
X159720969Y-124678509D01*
X159720969Y-124678509D02*
X159720969Y-124630890D01*
X159720969Y-124630890D02*
X159673350Y-124535652D01*
X159673350Y-124535652D02*
X159578112Y-124488033D01*
X159578112Y-124488033D02*
X159435255Y-124488033D01*
X159435255Y-124488033D02*
X159340017Y-124440414D01*
X159340017Y-124440414D02*
X159292398Y-124345176D01*
X159292398Y-124345176D02*
X159292398Y-124297557D01*
X159292398Y-124297557D02*
X159340017Y-124202319D01*
X159340017Y-124202319D02*
X159435255Y-124154700D01*
X159435255Y-124154700D02*
X159578112Y-124154700D01*
X159578112Y-124154700D02*
X159673350Y-124202319D01*
X151387635Y-126431311D02*
X151054302Y-125955120D01*
X150816207Y-126431311D02*
X150816207Y-125431311D01*
X150816207Y-125431311D02*
X151197159Y-125431311D01*
X151197159Y-125431311D02*
X151292397Y-125478930D01*
X151292397Y-125478930D02*
X151340016Y-125526549D01*
X151340016Y-125526549D02*
X151387635Y-125621787D01*
X151387635Y-125621787D02*
X151387635Y-125764644D01*
X151387635Y-125764644D02*
X151340016Y-125859882D01*
X151340016Y-125859882D02*
X151292397Y-125907501D01*
X151292397Y-125907501D02*
X151197159Y-125955120D01*
X151197159Y-125955120D02*
X150816207Y-125955120D01*
X151673350Y-125431311D02*
X152244778Y-125431311D01*
X151959064Y-126431311D02*
X151959064Y-125431311D01*
X152578112Y-126431311D02*
X152578112Y-125431311D01*
X152578112Y-125431311D02*
X152816207Y-125431311D01*
X152816207Y-125431311D02*
X152959064Y-125478930D01*
X152959064Y-125478930D02*
X153054302Y-125574168D01*
X153054302Y-125574168D02*
X153101921Y-125669406D01*
X153101921Y-125669406D02*
X153149540Y-125859882D01*
X153149540Y-125859882D02*
X153149540Y-126002739D01*
X153149540Y-126002739D02*
X153101921Y-126193215D01*
X153101921Y-126193215D02*
X153054302Y-126288453D01*
X153054302Y-126288453D02*
X152959064Y-126383692D01*
X152959064Y-126383692D02*
X152816207Y-126431311D01*
X152816207Y-126431311D02*
X152578112Y-126431311D01*
X154197160Y-125431311D02*
X154768588Y-125431311D01*
X154482874Y-126431311D02*
X154482874Y-125431311D01*
X155482874Y-126383692D02*
X155387636Y-126431311D01*
X155387636Y-126431311D02*
X155197160Y-126431311D01*
X155197160Y-126431311D02*
X155101922Y-126383692D01*
X155101922Y-126383692D02*
X155054303Y-126288453D01*
X155054303Y-126288453D02*
X155054303Y-125907501D01*
X155054303Y-125907501D02*
X155101922Y-125812263D01*
X155101922Y-125812263D02*
X155197160Y-125764644D01*
X155197160Y-125764644D02*
X155387636Y-125764644D01*
X155387636Y-125764644D02*
X155482874Y-125812263D01*
X155482874Y-125812263D02*
X155530493Y-125907501D01*
X155530493Y-125907501D02*
X155530493Y-126002739D01*
X155530493Y-126002739D02*
X155054303Y-126097977D01*
X155959065Y-126431311D02*
X155959065Y-125764644D01*
X155959065Y-125859882D02*
X156006684Y-125812263D01*
X156006684Y-125812263D02*
X156101922Y-125764644D01*
X156101922Y-125764644D02*
X156244779Y-125764644D01*
X156244779Y-125764644D02*
X156340017Y-125812263D01*
X156340017Y-125812263D02*
X156387636Y-125907501D01*
X156387636Y-125907501D02*
X156387636Y-126431311D01*
X156387636Y-125907501D02*
X156435255Y-125812263D01*
X156435255Y-125812263D02*
X156530493Y-125764644D01*
X156530493Y-125764644D02*
X156673350Y-125764644D01*
X156673350Y-125764644D02*
X156768589Y-125812263D01*
X156768589Y-125812263D02*
X156816208Y-125907501D01*
X156816208Y-125907501D02*
X156816208Y-126431311D01*
X157292398Y-125764644D02*
X157292398Y-126764644D01*
X157292398Y-125812263D02*
X157387636Y-125764644D01*
X157387636Y-125764644D02*
X157578112Y-125764644D01*
X157578112Y-125764644D02*
X157673350Y-125812263D01*
X157673350Y-125812263D02*
X157720969Y-125859882D01*
X157720969Y-125859882D02*
X157768588Y-125955120D01*
X157768588Y-125955120D02*
X157768588Y-126240834D01*
X157768588Y-126240834D02*
X157720969Y-126336072D01*
X157720969Y-126336072D02*
X157673350Y-126383692D01*
X157673350Y-126383692D02*
X157578112Y-126431311D01*
X157578112Y-126431311D02*
X157387636Y-126431311D01*
X157387636Y-126431311D02*
X157292398Y-126383692D01*
X158816208Y-125431311D02*
X159149541Y-126431311D01*
X159149541Y-126431311D02*
X159482874Y-125431311D01*
X160340017Y-126431311D02*
X159768589Y-126431311D01*
X160054303Y-126431311D02*
X160054303Y-125431311D01*
X160054303Y-125431311D02*
X159959065Y-125574168D01*
X159959065Y-125574168D02*
X159863827Y-125669406D01*
X159863827Y-125669406D02*
X159768589Y-125717025D01*
X160768589Y-126336072D02*
X160816208Y-126383692D01*
X160816208Y-126383692D02*
X160768589Y-126431311D01*
X160768589Y-126431311D02*
X160720970Y-126383692D01*
X160720970Y-126383692D02*
X160768589Y-126336072D01*
X160768589Y-126336072D02*
X160768589Y-126431311D01*
X161768588Y-126431311D02*
X161197160Y-126431311D01*
X161482874Y-126431311D02*
X161482874Y-125431311D01*
X161482874Y-125431311D02*
X161387636Y-125574168D01*
X161387636Y-125574168D02*
X161292398Y-125669406D01*
X161292398Y-125669406D02*
X161197160Y-125717025D01*
X163530493Y-126431311D02*
X163197160Y-125955120D01*
X162959065Y-126431311D02*
X162959065Y-125431311D01*
X162959065Y-125431311D02*
X163340017Y-125431311D01*
X163340017Y-125431311D02*
X163435255Y-125478930D01*
X163435255Y-125478930D02*
X163482874Y-125526549D01*
X163482874Y-125526549D02*
X163530493Y-125621787D01*
X163530493Y-125621787D02*
X163530493Y-125764644D01*
X163530493Y-125764644D02*
X163482874Y-125859882D01*
X163482874Y-125859882D02*
X163435255Y-125907501D01*
X163435255Y-125907501D02*
X163340017Y-125955120D01*
X163340017Y-125955120D02*
X162959065Y-125955120D01*
X164340017Y-126383692D02*
X164244779Y-126431311D01*
X164244779Y-126431311D02*
X164054303Y-126431311D01*
X164054303Y-126431311D02*
X163959065Y-126383692D01*
X163959065Y-126383692D02*
X163911446Y-126288453D01*
X163911446Y-126288453D02*
X163911446Y-125907501D01*
X163911446Y-125907501D02*
X163959065Y-125812263D01*
X163959065Y-125812263D02*
X164054303Y-125764644D01*
X164054303Y-125764644D02*
X164244779Y-125764644D01*
X164244779Y-125764644D02*
X164340017Y-125812263D01*
X164340017Y-125812263D02*
X164387636Y-125907501D01*
X164387636Y-125907501D02*
X164387636Y-126002739D01*
X164387636Y-126002739D02*
X163911446Y-126097977D01*
X164720970Y-125764644D02*
X164959065Y-126431311D01*
X164959065Y-126431311D02*
X165197160Y-125764644D01*
X166292399Y-126145596D02*
X166768589Y-126145596D01*
X166197161Y-126431311D02*
X166530494Y-125431311D01*
X166530494Y-125431311D02*
X166863827Y-126431311D01*
X127871801Y-89691196D02*
X127395611Y-89691196D01*
X127395611Y-89691196D02*
X127347992Y-90167386D01*
X127347992Y-90167386D02*
X127395611Y-90119767D01*
X127395611Y-90119767D02*
X127490849Y-90072148D01*
X127490849Y-90072148D02*
X127728944Y-90072148D01*
X127728944Y-90072148D02*
X127824182Y-90119767D01*
X127824182Y-90119767D02*
X127871801Y-90167386D01*
X127871801Y-90167386D02*
X127919420Y-90262624D01*
X127919420Y-90262624D02*
X127919420Y-90500719D01*
X127919420Y-90500719D02*
X127871801Y-90595957D01*
X127871801Y-90595957D02*
X127824182Y-90643577D01*
X127824182Y-90643577D02*
X127728944Y-90691196D01*
X127728944Y-90691196D02*
X127490849Y-90691196D01*
X127490849Y-90691196D02*
X127395611Y-90643577D01*
X127395611Y-90643577D02*
X127347992Y-90595957D01*
X128205135Y-89691196D02*
X128538468Y-90691196D01*
X128538468Y-90691196D02*
X128871801Y-89691196D01*
X138702322Y-74346403D02*
X138702322Y-73727356D01*
X138702322Y-73727356D02*
X139083274Y-74060689D01*
X139083274Y-74060689D02*
X139083274Y-73917832D01*
X139083274Y-73917832D02*
X139130893Y-73822594D01*
X139130893Y-73822594D02*
X139178512Y-73774975D01*
X139178512Y-73774975D02*
X139273750Y-73727356D01*
X139273750Y-73727356D02*
X139511845Y-73727356D01*
X139511845Y-73727356D02*
X139607083Y-73774975D01*
X139607083Y-73774975D02*
X139654703Y-73822594D01*
X139654703Y-73822594D02*
X139702322Y-73917832D01*
X139702322Y-73917832D02*
X139702322Y-74203546D01*
X139702322Y-74203546D02*
X139654703Y-74298784D01*
X139654703Y-74298784D02*
X139607083Y-74346403D01*
X139416607Y-72584498D02*
X139416607Y-72108308D01*
X139702322Y-72679736D02*
X138702322Y-72346403D01*
X138702322Y-72346403D02*
X139702322Y-72013070D01*
X139702322Y-71679736D02*
X139035655Y-71679736D01*
X139130893Y-71679736D02*
X139083274Y-71632117D01*
X139083274Y-71632117D02*
X139035655Y-71536879D01*
X139035655Y-71536879D02*
X139035655Y-71394022D01*
X139035655Y-71394022D02*
X139083274Y-71298784D01*
X139083274Y-71298784D02*
X139178512Y-71251165D01*
X139178512Y-71251165D02*
X139702322Y-71251165D01*
X139178512Y-71251165D02*
X139083274Y-71203546D01*
X139083274Y-71203546D02*
X139035655Y-71108308D01*
X139035655Y-71108308D02*
X139035655Y-70965451D01*
X139035655Y-70965451D02*
X139083274Y-70870212D01*
X139083274Y-70870212D02*
X139178512Y-70822593D01*
X139178512Y-70822593D02*
X139702322Y-70822593D01*
X139035655Y-70346403D02*
X140035655Y-70346403D01*
X139083274Y-70346403D02*
X139035655Y-70251165D01*
X139035655Y-70251165D02*
X139035655Y-70060689D01*
X139035655Y-70060689D02*
X139083274Y-69965451D01*
X139083274Y-69965451D02*
X139130893Y-69917832D01*
X139130893Y-69917832D02*
X139226131Y-69870213D01*
X139226131Y-69870213D02*
X139511845Y-69870213D01*
X139511845Y-69870213D02*
X139607083Y-69917832D01*
X139607083Y-69917832D02*
X139654703Y-69965451D01*
X139654703Y-69965451D02*
X139702322Y-70060689D01*
X139702322Y-70060689D02*
X139702322Y-70251165D01*
X139702322Y-70251165D02*
X139654703Y-70346403D01*
X172201717Y-108556882D02*
X171868384Y-108080691D01*
X171630289Y-108556882D02*
X171630289Y-107556882D01*
X171630289Y-107556882D02*
X172011241Y-107556882D01*
X172011241Y-107556882D02*
X172106479Y-107604501D01*
X172106479Y-107604501D02*
X172154098Y-107652120D01*
X172154098Y-107652120D02*
X172201717Y-107747358D01*
X172201717Y-107747358D02*
X172201717Y-107890215D01*
X172201717Y-107890215D02*
X172154098Y-107985453D01*
X172154098Y-107985453D02*
X172106479Y-108033072D01*
X172106479Y-108033072D02*
X172011241Y-108080691D01*
X172011241Y-108080691D02*
X171630289Y-108080691D01*
X172487432Y-107556882D02*
X173058860Y-107556882D01*
X172773146Y-108556882D02*
X172773146Y-107556882D01*
X173392194Y-108556882D02*
X173392194Y-107556882D01*
X173392194Y-107556882D02*
X173630289Y-107556882D01*
X173630289Y-107556882D02*
X173773146Y-107604501D01*
X173773146Y-107604501D02*
X173868384Y-107699739D01*
X173868384Y-107699739D02*
X173916003Y-107794977D01*
X173916003Y-107794977D02*
X173963622Y-107985453D01*
X173963622Y-107985453D02*
X173963622Y-108128310D01*
X173963622Y-108128310D02*
X173916003Y-108318786D01*
X173916003Y-108318786D02*
X173868384Y-108414024D01*
X173868384Y-108414024D02*
X173773146Y-108509263D01*
X173773146Y-108509263D02*
X173630289Y-108556882D01*
X173630289Y-108556882D02*
X173392194Y-108556882D01*
X174392194Y-108556882D02*
X174392194Y-107556882D01*
X174868384Y-107890215D02*
X174868384Y-108556882D01*
X174868384Y-107985453D02*
X174916003Y-107937834D01*
X174916003Y-107937834D02*
X175011241Y-107890215D01*
X175011241Y-107890215D02*
X175154098Y-107890215D01*
X175154098Y-107890215D02*
X175249336Y-107937834D01*
X175249336Y-107937834D02*
X175296955Y-108033072D01*
X175296955Y-108033072D02*
X175296955Y-108556882D01*
X175773146Y-108175929D02*
X176535051Y-108175929D01*
X176154098Y-108556882D02*
X176154098Y-107794977D01*
X179369409Y-104994445D02*
X178893218Y-105327778D01*
X179369409Y-105565873D02*
X178369409Y-105565873D01*
X178369409Y-105565873D02*
X178369409Y-105184921D01*
X178369409Y-105184921D02*
X178417028Y-105089683D01*
X178417028Y-105089683D02*
X178464647Y-105042064D01*
X178464647Y-105042064D02*
X178559885Y-104994445D01*
X178559885Y-104994445D02*
X178702742Y-104994445D01*
X178702742Y-104994445D02*
X178797980Y-105042064D01*
X178797980Y-105042064D02*
X178845599Y-105089683D01*
X178845599Y-105089683D02*
X178893218Y-105184921D01*
X178893218Y-105184921D02*
X178893218Y-105565873D01*
X178369409Y-104708730D02*
X178369409Y-104137302D01*
X179369409Y-104423016D02*
X178369409Y-104423016D01*
X179369409Y-103803968D02*
X178369409Y-103803968D01*
X178369409Y-103803968D02*
X178369409Y-103565873D01*
X178369409Y-103565873D02*
X178417028Y-103423016D01*
X178417028Y-103423016D02*
X178512266Y-103327778D01*
X178512266Y-103327778D02*
X178607504Y-103280159D01*
X178607504Y-103280159D02*
X178797980Y-103232540D01*
X178797980Y-103232540D02*
X178940837Y-103232540D01*
X178940837Y-103232540D02*
X179131313Y-103280159D01*
X179131313Y-103280159D02*
X179226551Y-103327778D01*
X179226551Y-103327778D02*
X179321790Y-103423016D01*
X179321790Y-103423016D02*
X179369409Y-103565873D01*
X179369409Y-103565873D02*
X179369409Y-103803968D01*
X178369409Y-102899206D02*
X178369409Y-102280159D01*
X178369409Y-102280159D02*
X178750361Y-102613492D01*
X178750361Y-102613492D02*
X178750361Y-102470635D01*
X178750361Y-102470635D02*
X178797980Y-102375397D01*
X178797980Y-102375397D02*
X178845599Y-102327778D01*
X178845599Y-102327778D02*
X178940837Y-102280159D01*
X178940837Y-102280159D02*
X179178932Y-102280159D01*
X179178932Y-102280159D02*
X179274170Y-102327778D01*
X179274170Y-102327778D02*
X179321790Y-102375397D01*
X179321790Y-102375397D02*
X179369409Y-102470635D01*
X179369409Y-102470635D02*
X179369409Y-102756349D01*
X179369409Y-102756349D02*
X179321790Y-102851587D01*
X179321790Y-102851587D02*
X179274170Y-102899206D01*
X178902925Y-93611039D02*
X178426734Y-93944372D01*
X178902925Y-94182467D02*
X177902925Y-94182467D01*
X177902925Y-94182467D02*
X177902925Y-93801515D01*
X177902925Y-93801515D02*
X177950544Y-93706277D01*
X177950544Y-93706277D02*
X177998163Y-93658658D01*
X177998163Y-93658658D02*
X178093401Y-93611039D01*
X178093401Y-93611039D02*
X178236258Y-93611039D01*
X178236258Y-93611039D02*
X178331496Y-93658658D01*
X178331496Y-93658658D02*
X178379115Y-93706277D01*
X178379115Y-93706277D02*
X178426734Y-93801515D01*
X178426734Y-93801515D02*
X178426734Y-94182467D01*
X177902925Y-93325324D02*
X177902925Y-92753896D01*
X178902925Y-93039610D02*
X177902925Y-93039610D01*
X178902925Y-92420562D02*
X177902925Y-92420562D01*
X177902925Y-92420562D02*
X177902925Y-92182467D01*
X177902925Y-92182467D02*
X177950544Y-92039610D01*
X177950544Y-92039610D02*
X178045782Y-91944372D01*
X178045782Y-91944372D02*
X178141020Y-91896753D01*
X178141020Y-91896753D02*
X178331496Y-91849134D01*
X178331496Y-91849134D02*
X178474353Y-91849134D01*
X178474353Y-91849134D02*
X178664829Y-91896753D01*
X178664829Y-91896753D02*
X178760067Y-91944372D01*
X178760067Y-91944372D02*
X178855306Y-92039610D01*
X178855306Y-92039610D02*
X178902925Y-92182467D01*
X178902925Y-92182467D02*
X178902925Y-92420562D01*
X177998163Y-91468181D02*
X177950544Y-91420562D01*
X177950544Y-91420562D02*
X177902925Y-91325324D01*
X177902925Y-91325324D02*
X177902925Y-91087229D01*
X177902925Y-91087229D02*
X177950544Y-90991991D01*
X177950544Y-90991991D02*
X177998163Y-90944372D01*
X177998163Y-90944372D02*
X178093401Y-90896753D01*
X178093401Y-90896753D02*
X178188639Y-90896753D01*
X178188639Y-90896753D02*
X178331496Y-90944372D01*
X178331496Y-90944372D02*
X178902925Y-91515800D01*
X178902925Y-91515800D02*
X178902925Y-90896753D01*
X126765616Y-92024991D02*
X127098949Y-93024991D01*
X127098949Y-93024991D02*
X127432282Y-92024991D01*
X127765616Y-93024991D02*
X127765616Y-92024991D01*
X127765616Y-92024991D02*
X128003711Y-92024991D01*
X128003711Y-92024991D02*
X128146568Y-92072610D01*
X128146568Y-92072610D02*
X128241806Y-92167848D01*
X128241806Y-92167848D02*
X128289425Y-92263086D01*
X128289425Y-92263086D02*
X128337044Y-92453562D01*
X128337044Y-92453562D02*
X128337044Y-92596419D01*
X128337044Y-92596419D02*
X128289425Y-92786895D01*
X128289425Y-92786895D02*
X128241806Y-92882133D01*
X128241806Y-92882133D02*
X128146568Y-92977372D01*
X128146568Y-92977372D02*
X128003711Y-93024991D01*
X128003711Y-93024991D02*
X127765616Y-93024991D01*
X129337044Y-92929752D02*
X129289425Y-92977372D01*
X129289425Y-92977372D02*
X129146568Y-93024991D01*
X129146568Y-93024991D02*
X129051330Y-93024991D01*
X129051330Y-93024991D02*
X128908473Y-92977372D01*
X128908473Y-92977372D02*
X128813235Y-92882133D01*
X128813235Y-92882133D02*
X128765616Y-92786895D01*
X128765616Y-92786895D02*
X128717997Y-92596419D01*
X128717997Y-92596419D02*
X128717997Y-92453562D01*
X128717997Y-92453562D02*
X128765616Y-92263086D01*
X128765616Y-92263086D02*
X128813235Y-92167848D01*
X128813235Y-92167848D02*
X128908473Y-92072610D01*
X128908473Y-92072610D02*
X129051330Y-92024991D01*
X129051330Y-92024991D02*
X129146568Y-92024991D01*
X129146568Y-92024991D02*
X129289425Y-92072610D01*
X129289425Y-92072610D02*
X129337044Y-92120229D01*
X149007097Y-68251164D02*
X148007097Y-68251164D01*
X148007097Y-68251164D02*
X148721382Y-67917831D01*
X148721382Y-67917831D02*
X148007097Y-67584498D01*
X148007097Y-67584498D02*
X149007097Y-67584498D01*
X149007097Y-67108307D02*
X148007097Y-67108307D01*
X148959478Y-66679736D02*
X149007097Y-66536879D01*
X149007097Y-66536879D02*
X149007097Y-66298784D01*
X149007097Y-66298784D02*
X148959478Y-66203546D01*
X148959478Y-66203546D02*
X148911858Y-66155927D01*
X148911858Y-66155927D02*
X148816620Y-66108308D01*
X148816620Y-66108308D02*
X148721382Y-66108308D01*
X148721382Y-66108308D02*
X148626144Y-66155927D01*
X148626144Y-66155927D02*
X148578525Y-66203546D01*
X148578525Y-66203546D02*
X148530906Y-66298784D01*
X148530906Y-66298784D02*
X148483287Y-66489260D01*
X148483287Y-66489260D02*
X148435668Y-66584498D01*
X148435668Y-66584498D02*
X148388049Y-66632117D01*
X148388049Y-66632117D02*
X148292811Y-66679736D01*
X148292811Y-66679736D02*
X148197573Y-66679736D01*
X148197573Y-66679736D02*
X148102335Y-66632117D01*
X148102335Y-66632117D02*
X148054716Y-66584498D01*
X148054716Y-66584498D02*
X148007097Y-66489260D01*
X148007097Y-66489260D02*
X148007097Y-66251165D01*
X148007097Y-66251165D02*
X148054716Y-66108308D01*
X148007097Y-65489260D02*
X148007097Y-65298784D01*
X148007097Y-65298784D02*
X148054716Y-65203546D01*
X148054716Y-65203546D02*
X148149954Y-65108308D01*
X148149954Y-65108308D02*
X148340430Y-65060689D01*
X148340430Y-65060689D02*
X148673763Y-65060689D01*
X148673763Y-65060689D02*
X148864239Y-65108308D01*
X148864239Y-65108308D02*
X148959478Y-65203546D01*
X148959478Y-65203546D02*
X149007097Y-65298784D01*
X149007097Y-65298784D02*
X149007097Y-65489260D01*
X149007097Y-65489260D02*
X148959478Y-65584498D01*
X148959478Y-65584498D02*
X148864239Y-65679736D01*
X148864239Y-65679736D02*
X148673763Y-65727355D01*
X148673763Y-65727355D02*
X148340430Y-65727355D01*
X148340430Y-65727355D02*
X148149954Y-65679736D01*
X148149954Y-65679736D02*
X148054716Y-65584498D01*
X148054716Y-65584498D02*
X148007097Y-65489260D01*
X146465340Y-67734202D02*
X145989149Y-68067535D01*
X146465340Y-68305630D02*
X145465340Y-68305630D01*
X145465340Y-68305630D02*
X145465340Y-67924678D01*
X145465340Y-67924678D02*
X145512959Y-67829440D01*
X145512959Y-67829440D02*
X145560578Y-67781821D01*
X145560578Y-67781821D02*
X145655816Y-67734202D01*
X145655816Y-67734202D02*
X145798673Y-67734202D01*
X145798673Y-67734202D02*
X145893911Y-67781821D01*
X145893911Y-67781821D02*
X145941530Y-67829440D01*
X145941530Y-67829440D02*
X145989149Y-67924678D01*
X145989149Y-67924678D02*
X145989149Y-68305630D01*
X145941530Y-67305630D02*
X145941530Y-66972297D01*
X146465340Y-66829440D02*
X146465340Y-67305630D01*
X146465340Y-67305630D02*
X145465340Y-67305630D01*
X145465340Y-67305630D02*
X145465340Y-66829440D01*
X146417721Y-66448487D02*
X146465340Y-66305630D01*
X146465340Y-66305630D02*
X146465340Y-66067535D01*
X146465340Y-66067535D02*
X146417721Y-65972297D01*
X146417721Y-65972297D02*
X146370101Y-65924678D01*
X146370101Y-65924678D02*
X146274863Y-65877059D01*
X146274863Y-65877059D02*
X146179625Y-65877059D01*
X146179625Y-65877059D02*
X146084387Y-65924678D01*
X146084387Y-65924678D02*
X146036768Y-65972297D01*
X146036768Y-65972297D02*
X145989149Y-66067535D01*
X145989149Y-66067535D02*
X145941530Y-66258011D01*
X145941530Y-66258011D02*
X145893911Y-66353249D01*
X145893911Y-66353249D02*
X145846292Y-66400868D01*
X145846292Y-66400868D02*
X145751054Y-66448487D01*
X145751054Y-66448487D02*
X145655816Y-66448487D01*
X145655816Y-66448487D02*
X145560578Y-66400868D01*
X145560578Y-66400868D02*
X145512959Y-66353249D01*
X145512959Y-66353249D02*
X145465340Y-66258011D01*
X145465340Y-66258011D02*
X145465340Y-66019916D01*
X145465340Y-66019916D02*
X145512959Y-65877059D01*
X145941530Y-65448487D02*
X145941530Y-65115154D01*
X146465340Y-64972297D02*
X146465340Y-65448487D01*
X146465340Y-65448487D02*
X145465340Y-65448487D01*
X145465340Y-65448487D02*
X145465340Y-64972297D01*
X145465340Y-64686582D02*
X145465340Y-64115154D01*
X146465340Y-64400868D02*
X145465340Y-64400868D01*
X171934674Y-81781938D02*
X171601341Y-81781938D01*
X171601341Y-82305748D02*
X171601341Y-81305748D01*
X171601341Y-81305748D02*
X172077531Y-81305748D01*
X172601341Y-82305748D02*
X172506103Y-82258129D01*
X172506103Y-82258129D02*
X172458484Y-82210509D01*
X172458484Y-82210509D02*
X172410865Y-82115271D01*
X172410865Y-82115271D02*
X172410865Y-81829557D01*
X172410865Y-81829557D02*
X172458484Y-81734319D01*
X172458484Y-81734319D02*
X172506103Y-81686700D01*
X172506103Y-81686700D02*
X172601341Y-81639081D01*
X172601341Y-81639081D02*
X172744198Y-81639081D01*
X172744198Y-81639081D02*
X172839436Y-81686700D01*
X172839436Y-81686700D02*
X172887055Y-81734319D01*
X172887055Y-81734319D02*
X172934674Y-81829557D01*
X172934674Y-81829557D02*
X172934674Y-82115271D01*
X172934674Y-82115271D02*
X172887055Y-82210509D01*
X172887055Y-82210509D02*
X172839436Y-82258129D01*
X172839436Y-82258129D02*
X172744198Y-82305748D01*
X172744198Y-82305748D02*
X172601341Y-82305748D01*
X173363246Y-82305748D02*
X173363246Y-81639081D01*
X173363246Y-81829557D02*
X173410865Y-81734319D01*
X173410865Y-81734319D02*
X173458484Y-81686700D01*
X173458484Y-81686700D02*
X173553722Y-81639081D01*
X173553722Y-81639081D02*
X173648960Y-81639081D01*
X174410865Y-82258129D02*
X174315627Y-82305748D01*
X174315627Y-82305748D02*
X174125151Y-82305748D01*
X174125151Y-82305748D02*
X174029913Y-82258129D01*
X174029913Y-82258129D02*
X173982294Y-82210509D01*
X173982294Y-82210509D02*
X173934675Y-82115271D01*
X173934675Y-82115271D02*
X173934675Y-81829557D01*
X173934675Y-81829557D02*
X173982294Y-81734319D01*
X173982294Y-81734319D02*
X174029913Y-81686700D01*
X174029913Y-81686700D02*
X174125151Y-81639081D01*
X174125151Y-81639081D02*
X174315627Y-81639081D01*
X174315627Y-81639081D02*
X174410865Y-81686700D01*
X175220389Y-82258129D02*
X175125151Y-82305748D01*
X175125151Y-82305748D02*
X174934675Y-82305748D01*
X174934675Y-82305748D02*
X174839437Y-82258129D01*
X174839437Y-82258129D02*
X174791818Y-82162890D01*
X174791818Y-82162890D02*
X174791818Y-81781938D01*
X174791818Y-81781938D02*
X174839437Y-81686700D01*
X174839437Y-81686700D02*
X174934675Y-81639081D01*
X174934675Y-81639081D02*
X175125151Y-81639081D01*
X175125151Y-81639081D02*
X175220389Y-81686700D01*
X175220389Y-81686700D02*
X175268008Y-81781938D01*
X175268008Y-81781938D02*
X175268008Y-81877176D01*
X175268008Y-81877176D02*
X174791818Y-81972414D01*
X175696580Y-81924795D02*
X176458485Y-81924795D01*
X176077532Y-82305748D02*
X176077532Y-81543843D01*
X159677789Y-81597719D02*
X159725408Y-81550100D01*
X159725408Y-81550100D02*
X159820646Y-81502481D01*
X159820646Y-81502481D02*
X160058741Y-81502481D01*
X160058741Y-81502481D02*
X160153979Y-81550100D01*
X160153979Y-81550100D02*
X160201598Y-81597719D01*
X160201598Y-81597719D02*
X160249217Y-81692957D01*
X160249217Y-81692957D02*
X160249217Y-81788195D01*
X160249217Y-81788195D02*
X160201598Y-81931052D01*
X160201598Y-81931052D02*
X159630170Y-82502481D01*
X159630170Y-82502481D02*
X160249217Y-82502481D01*
X160677789Y-82121528D02*
X161439694Y-82121528D01*
X162344455Y-81835814D02*
X162344455Y-82502481D01*
X162106360Y-81454862D02*
X161868265Y-82169147D01*
X161868265Y-82169147D02*
X162487312Y-82169147D01*
X144538293Y-77988737D02*
X144538293Y-78464927D01*
X144538293Y-78464927D02*
X145014483Y-78512546D01*
X145014483Y-78512546D02*
X144966864Y-78464927D01*
X144966864Y-78464927D02*
X144919245Y-78369689D01*
X144919245Y-78369689D02*
X144919245Y-78131594D01*
X144919245Y-78131594D02*
X144966864Y-78036356D01*
X144966864Y-78036356D02*
X145014483Y-77988737D01*
X145014483Y-77988737D02*
X145109721Y-77941118D01*
X145109721Y-77941118D02*
X145347816Y-77941118D01*
X145347816Y-77941118D02*
X145443054Y-77988737D01*
X145443054Y-77988737D02*
X145490674Y-78036356D01*
X145490674Y-78036356D02*
X145538293Y-78131594D01*
X145538293Y-78131594D02*
X145538293Y-78369689D01*
X145538293Y-78369689D02*
X145490674Y-78464927D01*
X145490674Y-78464927D02*
X145443054Y-78512546D01*
X144538293Y-77655403D02*
X145538293Y-77322070D01*
X145538293Y-77322070D02*
X144538293Y-76988737D01*
D12*
X129071880Y-71022318D02*
X129071880Y-72050413D01*
X129071880Y-72050413D02*
X129132357Y-72171365D01*
X129132357Y-72171365D02*
X129192833Y-72231842D01*
X129192833Y-72231842D02*
X129313785Y-72292318D01*
X129313785Y-72292318D02*
X129555690Y-72292318D01*
X129555690Y-72292318D02*
X129676642Y-72231842D01*
X129676642Y-72231842D02*
X129737119Y-72171365D01*
X129737119Y-72171365D02*
X129797595Y-72050413D01*
X129797595Y-72050413D02*
X129797595Y-71022318D01*
X131007118Y-71022318D02*
X130402356Y-71022318D01*
X130402356Y-71022318D02*
X130341880Y-71627080D01*
X130341880Y-71627080D02*
X130402356Y-71566603D01*
X130402356Y-71566603D02*
X130523309Y-71506127D01*
X130523309Y-71506127D02*
X130825690Y-71506127D01*
X130825690Y-71506127D02*
X130946642Y-71566603D01*
X130946642Y-71566603D02*
X131007118Y-71627080D01*
X131007118Y-71627080D02*
X131067595Y-71748032D01*
X131067595Y-71748032D02*
X131067595Y-72050413D01*
X131067595Y-72050413D02*
X131007118Y-72171365D01*
X131007118Y-72171365D02*
X130946642Y-72231842D01*
X130946642Y-72231842D02*
X130825690Y-72292318D01*
X130825690Y-72292318D02*
X130523309Y-72292318D01*
X130523309Y-72292318D02*
X130402356Y-72231842D01*
X130402356Y-72231842D02*
X130341880Y-72171365D01*
X123545394Y-111992188D02*
X123122060Y-111387426D01*
X122819679Y-111992188D02*
X122819679Y-110722188D01*
X122819679Y-110722188D02*
X123303489Y-110722188D01*
X123303489Y-110722188D02*
X123424441Y-110782664D01*
X123424441Y-110782664D02*
X123484918Y-110843140D01*
X123484918Y-110843140D02*
X123545394Y-110964092D01*
X123545394Y-110964092D02*
X123545394Y-111145521D01*
X123545394Y-111145521D02*
X123484918Y-111266473D01*
X123484918Y-111266473D02*
X123424441Y-111326950D01*
X123424441Y-111326950D02*
X123303489Y-111387426D01*
X123303489Y-111387426D02*
X122819679Y-111387426D01*
X124573489Y-111931712D02*
X124452537Y-111992188D01*
X124452537Y-111992188D02*
X124210632Y-111992188D01*
X124210632Y-111992188D02*
X124089679Y-111931712D01*
X124089679Y-111931712D02*
X124029203Y-111810759D01*
X124029203Y-111810759D02*
X124029203Y-111326950D01*
X124029203Y-111326950D02*
X124089679Y-111205997D01*
X124089679Y-111205997D02*
X124210632Y-111145521D01*
X124210632Y-111145521D02*
X124452537Y-111145521D01*
X124452537Y-111145521D02*
X124573489Y-111205997D01*
X124573489Y-111205997D02*
X124633965Y-111326950D01*
X124633965Y-111326950D02*
X124633965Y-111447902D01*
X124633965Y-111447902D02*
X124029203Y-111568854D01*
X125117774Y-111931712D02*
X125238727Y-111992188D01*
X125238727Y-111992188D02*
X125480631Y-111992188D01*
X125480631Y-111992188D02*
X125601584Y-111931712D01*
X125601584Y-111931712D02*
X125662060Y-111810759D01*
X125662060Y-111810759D02*
X125662060Y-111750283D01*
X125662060Y-111750283D02*
X125601584Y-111629331D01*
X125601584Y-111629331D02*
X125480631Y-111568854D01*
X125480631Y-111568854D02*
X125299203Y-111568854D01*
X125299203Y-111568854D02*
X125178250Y-111508378D01*
X125178250Y-111508378D02*
X125117774Y-111387426D01*
X125117774Y-111387426D02*
X125117774Y-111326950D01*
X125117774Y-111326950D02*
X125178250Y-111205997D01*
X125178250Y-111205997D02*
X125299203Y-111145521D01*
X125299203Y-111145521D02*
X125480631Y-111145521D01*
X125480631Y-111145521D02*
X125601584Y-111205997D01*
X126690155Y-111931712D02*
X126569203Y-111992188D01*
X126569203Y-111992188D02*
X126327298Y-111992188D01*
X126327298Y-111992188D02*
X126206345Y-111931712D01*
X126206345Y-111931712D02*
X126145869Y-111810759D01*
X126145869Y-111810759D02*
X126145869Y-111326950D01*
X126145869Y-111326950D02*
X126206345Y-111205997D01*
X126206345Y-111205997D02*
X126327298Y-111145521D01*
X126327298Y-111145521D02*
X126569203Y-111145521D01*
X126569203Y-111145521D02*
X126690155Y-111205997D01*
X126690155Y-111205997D02*
X126750631Y-111326950D01*
X126750631Y-111326950D02*
X126750631Y-111447902D01*
X126750631Y-111447902D02*
X126145869Y-111568854D01*
X127113488Y-111145521D02*
X127597297Y-111145521D01*
X127294916Y-110722188D02*
X127294916Y-111810759D01*
X127294916Y-111810759D02*
X127355393Y-111931712D01*
X127355393Y-111931712D02*
X127476345Y-111992188D01*
X127476345Y-111992188D02*
X127597297Y-111992188D01*
X128685869Y-111992188D02*
X127960154Y-111992188D01*
X128323011Y-111992188D02*
X128323011Y-110722188D01*
X128323011Y-110722188D02*
X128202059Y-110903616D01*
X128202059Y-110903616D02*
X128081107Y-111024569D01*
X128081107Y-111024569D02*
X127960154Y-111085045D01*
X140018523Y-78795447D02*
X139958047Y-78916399D01*
X139958047Y-78916399D02*
X139837095Y-79037352D01*
X139837095Y-79037352D02*
X139655666Y-79218780D01*
X139655666Y-79218780D02*
X139595190Y-79339733D01*
X139595190Y-79339733D02*
X139595190Y-79460685D01*
X139897571Y-79400209D02*
X139837095Y-79521161D01*
X139837095Y-79521161D02*
X139716142Y-79642114D01*
X139716142Y-79642114D02*
X139474237Y-79702590D01*
X139474237Y-79702590D02*
X139050904Y-79702590D01*
X139050904Y-79702590D02*
X138808999Y-79642114D01*
X138808999Y-79642114D02*
X138688047Y-79521161D01*
X138688047Y-79521161D02*
X138627571Y-79400209D01*
X138627571Y-79400209D02*
X138627571Y-79158304D01*
X138627571Y-79158304D02*
X138688047Y-79037352D01*
X138688047Y-79037352D02*
X138808999Y-78916399D01*
X138808999Y-78916399D02*
X139050904Y-78855923D01*
X139050904Y-78855923D02*
X139474237Y-78855923D01*
X139474237Y-78855923D02*
X139716142Y-78916399D01*
X139716142Y-78916399D02*
X139837095Y-79037352D01*
X139837095Y-79037352D02*
X139897571Y-79158304D01*
X139897571Y-79158304D02*
X139897571Y-79400209D01*
X139897571Y-77646399D02*
X139897571Y-78372114D01*
X139897571Y-78009257D02*
X138627571Y-78009257D01*
X138627571Y-78009257D02*
X138808999Y-78130209D01*
X138808999Y-78130209D02*
X138929952Y-78251161D01*
X138929952Y-78251161D02*
X138990428Y-78372114D01*
D11*
X149985419Y-81371333D02*
X150699704Y-81371333D01*
X150699704Y-81371333D02*
X150842561Y-81418952D01*
X150842561Y-81418952D02*
X150937800Y-81514190D01*
X150937800Y-81514190D02*
X150985419Y-81657047D01*
X150985419Y-81657047D02*
X150985419Y-81752285D01*
X150080657Y-80942761D02*
X150033038Y-80895142D01*
X150033038Y-80895142D02*
X149985419Y-80799904D01*
X149985419Y-80799904D02*
X149985419Y-80561809D01*
X149985419Y-80561809D02*
X150033038Y-80466571D01*
X150033038Y-80466571D02*
X150080657Y-80418952D01*
X150080657Y-80418952D02*
X150175895Y-80371333D01*
X150175895Y-80371333D02*
X150271133Y-80371333D01*
X150271133Y-80371333D02*
X150413990Y-80418952D01*
X150413990Y-80418952D02*
X150985419Y-80990380D01*
X150985419Y-80990380D02*
X150985419Y-80371333D01*
X147304069Y-119795750D02*
X147351689Y-119843369D01*
X147351689Y-119843369D02*
X147399308Y-119986226D01*
X147399308Y-119986226D02*
X147399308Y-120081464D01*
X147399308Y-120081464D02*
X147351689Y-120224321D01*
X147351689Y-120224321D02*
X147256450Y-120319559D01*
X147256450Y-120319559D02*
X147161212Y-120367178D01*
X147161212Y-120367178D02*
X146970736Y-120414797D01*
X146970736Y-120414797D02*
X146827879Y-120414797D01*
X146827879Y-120414797D02*
X146637403Y-120367178D01*
X146637403Y-120367178D02*
X146542165Y-120319559D01*
X146542165Y-120319559D02*
X146446927Y-120224321D01*
X146446927Y-120224321D02*
X146399308Y-120081464D01*
X146399308Y-120081464D02*
X146399308Y-119986226D01*
X146399308Y-119986226D02*
X146446927Y-119843369D01*
X146446927Y-119843369D02*
X146494546Y-119795750D01*
X146399308Y-119462416D02*
X146399308Y-118843369D01*
X146399308Y-118843369D02*
X146780260Y-119176702D01*
X146780260Y-119176702D02*
X146780260Y-119033845D01*
X146780260Y-119033845D02*
X146827879Y-118938607D01*
X146827879Y-118938607D02*
X146875498Y-118890988D01*
X146875498Y-118890988D02*
X146970736Y-118843369D01*
X146970736Y-118843369D02*
X147208831Y-118843369D01*
X147208831Y-118843369D02*
X147304069Y-118890988D01*
X147304069Y-118890988D02*
X147351689Y-118938607D01*
X147351689Y-118938607D02*
X147399308Y-119033845D01*
X147399308Y-119033845D02*
X147399308Y-119319559D01*
X147399308Y-119319559D02*
X147351689Y-119414797D01*
X147351689Y-119414797D02*
X147304069Y-119462416D01*
X150025919Y-97423523D02*
X150740204Y-97423523D01*
X150740204Y-97423523D02*
X150883061Y-97471142D01*
X150883061Y-97471142D02*
X150978300Y-97566380D01*
X150978300Y-97566380D02*
X151025919Y-97709237D01*
X151025919Y-97709237D02*
X151025919Y-97804475D01*
X151025919Y-96423523D02*
X151025919Y-96994951D01*
X151025919Y-96709237D02*
X150025919Y-96709237D01*
X150025919Y-96709237D02*
X150168776Y-96804475D01*
X150168776Y-96804475D02*
X150264014Y-96899713D01*
X150264014Y-96899713D02*
X150311633Y-96994951D01*
X150025919Y-95804475D02*
X150025919Y-95709237D01*
X150025919Y-95709237D02*
X150073538Y-95613999D01*
X150073538Y-95613999D02*
X150121157Y-95566380D01*
X150121157Y-95566380D02*
X150216395Y-95518761D01*
X150216395Y-95518761D02*
X150406871Y-95471142D01*
X150406871Y-95471142D02*
X150644966Y-95471142D01*
X150644966Y-95471142D02*
X150835442Y-95518761D01*
X150835442Y-95518761D02*
X150930680Y-95566380D01*
X150930680Y-95566380D02*
X150978300Y-95613999D01*
X150978300Y-95613999D02*
X151025919Y-95709237D01*
X151025919Y-95709237D02*
X151025919Y-95804475D01*
X151025919Y-95804475D02*
X150978300Y-95899713D01*
X150978300Y-95899713D02*
X150930680Y-95947332D01*
X150930680Y-95947332D02*
X150835442Y-95994951D01*
X150835442Y-95994951D02*
X150644966Y-96042570D01*
X150644966Y-96042570D02*
X150406871Y-96042570D01*
X150406871Y-96042570D02*
X150216395Y-95994951D01*
X150216395Y-95994951D02*
X150121157Y-95947332D01*
X150121157Y-95947332D02*
X150073538Y-95899713D01*
X150073538Y-95899713D02*
X150025919Y-95804475D01*
X129593533Y-78620119D02*
X129260200Y-78143928D01*
X129022105Y-78620119D02*
X129022105Y-77620119D01*
X129022105Y-77620119D02*
X129403057Y-77620119D01*
X129403057Y-77620119D02*
X129498295Y-77667738D01*
X129498295Y-77667738D02*
X129545914Y-77715357D01*
X129545914Y-77715357D02*
X129593533Y-77810595D01*
X129593533Y-77810595D02*
X129593533Y-77953452D01*
X129593533Y-77953452D02*
X129545914Y-78048690D01*
X129545914Y-78048690D02*
X129498295Y-78096309D01*
X129498295Y-78096309D02*
X129403057Y-78143928D01*
X129403057Y-78143928D02*
X129022105Y-78143928D01*
X130545914Y-78620119D02*
X129974486Y-78620119D01*
X130260200Y-78620119D02*
X130260200Y-77620119D01*
X130260200Y-77620119D02*
X130164962Y-77762976D01*
X130164962Y-77762976D02*
X130069724Y-77858214D01*
X130069724Y-77858214D02*
X129974486Y-77905833D01*
X161239380Y-85501366D02*
X161287000Y-85548985D01*
X161287000Y-85548985D02*
X161334619Y-85691842D01*
X161334619Y-85691842D02*
X161334619Y-85787080D01*
X161334619Y-85787080D02*
X161287000Y-85929937D01*
X161287000Y-85929937D02*
X161191761Y-86025175D01*
X161191761Y-86025175D02*
X161096523Y-86072794D01*
X161096523Y-86072794D02*
X160906047Y-86120413D01*
X160906047Y-86120413D02*
X160763190Y-86120413D01*
X160763190Y-86120413D02*
X160572714Y-86072794D01*
X160572714Y-86072794D02*
X160477476Y-86025175D01*
X160477476Y-86025175D02*
X160382238Y-85929937D01*
X160382238Y-85929937D02*
X160334619Y-85787080D01*
X160334619Y-85787080D02*
X160334619Y-85691842D01*
X160334619Y-85691842D02*
X160382238Y-85548985D01*
X160382238Y-85548985D02*
X160429857Y-85501366D01*
X160763190Y-84929937D02*
X160715571Y-85025175D01*
X160715571Y-85025175D02*
X160667952Y-85072794D01*
X160667952Y-85072794D02*
X160572714Y-85120413D01*
X160572714Y-85120413D02*
X160525095Y-85120413D01*
X160525095Y-85120413D02*
X160429857Y-85072794D01*
X160429857Y-85072794D02*
X160382238Y-85025175D01*
X160382238Y-85025175D02*
X160334619Y-84929937D01*
X160334619Y-84929937D02*
X160334619Y-84739461D01*
X160334619Y-84739461D02*
X160382238Y-84644223D01*
X160382238Y-84644223D02*
X160429857Y-84596604D01*
X160429857Y-84596604D02*
X160525095Y-84548985D01*
X160525095Y-84548985D02*
X160572714Y-84548985D01*
X160572714Y-84548985D02*
X160667952Y-84596604D01*
X160667952Y-84596604D02*
X160715571Y-84644223D01*
X160715571Y-84644223D02*
X160763190Y-84739461D01*
X160763190Y-84739461D02*
X160763190Y-84929937D01*
X160763190Y-84929937D02*
X160810809Y-85025175D01*
X160810809Y-85025175D02*
X160858428Y-85072794D01*
X160858428Y-85072794D02*
X160953666Y-85120413D01*
X160953666Y-85120413D02*
X161144142Y-85120413D01*
X161144142Y-85120413D02*
X161239380Y-85072794D01*
X161239380Y-85072794D02*
X161287000Y-85025175D01*
X161287000Y-85025175D02*
X161334619Y-84929937D01*
X161334619Y-84929937D02*
X161334619Y-84739461D01*
X161334619Y-84739461D02*
X161287000Y-84644223D01*
X161287000Y-84644223D02*
X161239380Y-84596604D01*
X161239380Y-84596604D02*
X161144142Y-84548985D01*
X161144142Y-84548985D02*
X160953666Y-84548985D01*
X160953666Y-84548985D02*
X160858428Y-84596604D01*
X160858428Y-84596604D02*
X160810809Y-84644223D01*
X160810809Y-84644223D02*
X160763190Y-84739461D01*
X161507338Y-102923096D02*
X161031147Y-103256429D01*
X161507338Y-103494524D02*
X160507338Y-103494524D01*
X160507338Y-103494524D02*
X160507338Y-103113572D01*
X160507338Y-103113572D02*
X160554957Y-103018334D01*
X160554957Y-103018334D02*
X160602576Y-102970715D01*
X160602576Y-102970715D02*
X160697814Y-102923096D01*
X160697814Y-102923096D02*
X160840671Y-102923096D01*
X160840671Y-102923096D02*
X160935909Y-102970715D01*
X160935909Y-102970715D02*
X160983528Y-103018334D01*
X160983528Y-103018334D02*
X161031147Y-103113572D01*
X161031147Y-103113572D02*
X161031147Y-103494524D01*
X161507338Y-101970715D02*
X161507338Y-102542143D01*
X161507338Y-102256429D02*
X160507338Y-102256429D01*
X160507338Y-102256429D02*
X160650195Y-102351667D01*
X160650195Y-102351667D02*
X160745433Y-102446905D01*
X160745433Y-102446905D02*
X160793052Y-102542143D01*
X160507338Y-101351667D02*
X160507338Y-101256429D01*
X160507338Y-101256429D02*
X160554957Y-101161191D01*
X160554957Y-101161191D02*
X160602576Y-101113572D01*
X160602576Y-101113572D02*
X160697814Y-101065953D01*
X160697814Y-101065953D02*
X160888290Y-101018334D01*
X160888290Y-101018334D02*
X161126385Y-101018334D01*
X161126385Y-101018334D02*
X161316861Y-101065953D01*
X161316861Y-101065953D02*
X161412099Y-101113572D01*
X161412099Y-101113572D02*
X161459719Y-101161191D01*
X161459719Y-101161191D02*
X161507338Y-101256429D01*
X161507338Y-101256429D02*
X161507338Y-101351667D01*
X161507338Y-101351667D02*
X161459719Y-101446905D01*
X161459719Y-101446905D02*
X161412099Y-101494524D01*
X161412099Y-101494524D02*
X161316861Y-101542143D01*
X161316861Y-101542143D02*
X161126385Y-101589762D01*
X161126385Y-101589762D02*
X160888290Y-101589762D01*
X160888290Y-101589762D02*
X160697814Y-101542143D01*
X160697814Y-101542143D02*
X160602576Y-101494524D01*
X160602576Y-101494524D02*
X160554957Y-101446905D01*
X160554957Y-101446905D02*
X160507338Y-101351667D01*
X136261071Y-58774688D02*
X135927738Y-58298497D01*
X135689643Y-58774688D02*
X135689643Y-57774688D01*
X135689643Y-57774688D02*
X136070595Y-57774688D01*
X136070595Y-57774688D02*
X136165833Y-57822307D01*
X136165833Y-57822307D02*
X136213452Y-57869926D01*
X136213452Y-57869926D02*
X136261071Y-57965164D01*
X136261071Y-57965164D02*
X136261071Y-58108021D01*
X136261071Y-58108021D02*
X136213452Y-58203259D01*
X136213452Y-58203259D02*
X136165833Y-58250878D01*
X136165833Y-58250878D02*
X136070595Y-58298497D01*
X136070595Y-58298497D02*
X135689643Y-58298497D01*
X136594405Y-57774688D02*
X137261071Y-57774688D01*
X137261071Y-57774688D02*
X136832500Y-58774688D01*
X152442819Y-68396133D02*
X153157104Y-68396133D01*
X153157104Y-68396133D02*
X153299961Y-68443752D01*
X153299961Y-68443752D02*
X153395200Y-68538990D01*
X153395200Y-68538990D02*
X153442819Y-68681847D01*
X153442819Y-68681847D02*
X153442819Y-68777085D01*
X153442819Y-67396133D02*
X153442819Y-67967561D01*
X153442819Y-67681847D02*
X152442819Y-67681847D01*
X152442819Y-67681847D02*
X152585676Y-67777085D01*
X152585676Y-67777085D02*
X152680914Y-67872323D01*
X152680914Y-67872323D02*
X152728533Y-67967561D01*
X138790419Y-97722356D02*
X137790419Y-97722356D01*
X137790419Y-97722356D02*
X138790419Y-97150928D01*
X138790419Y-97150928D02*
X137790419Y-97150928D01*
X137790419Y-96817594D02*
X137790419Y-96246166D01*
X138790419Y-96531880D02*
X137790419Y-96531880D01*
X138695180Y-95341404D02*
X138742800Y-95389023D01*
X138742800Y-95389023D02*
X138790419Y-95531880D01*
X138790419Y-95531880D02*
X138790419Y-95627118D01*
X138790419Y-95627118D02*
X138742800Y-95769975D01*
X138742800Y-95769975D02*
X138647561Y-95865213D01*
X138647561Y-95865213D02*
X138552323Y-95912832D01*
X138552323Y-95912832D02*
X138361847Y-95960451D01*
X138361847Y-95960451D02*
X138218990Y-95960451D01*
X138218990Y-95960451D02*
X138028514Y-95912832D01*
X138028514Y-95912832D02*
X137933276Y-95865213D01*
X137933276Y-95865213D02*
X137838038Y-95769975D01*
X137838038Y-95769975D02*
X137790419Y-95627118D01*
X137790419Y-95627118D02*
X137790419Y-95531880D01*
X137790419Y-95531880D02*
X137838038Y-95389023D01*
X137838038Y-95389023D02*
X137885657Y-95341404D01*
X138790419Y-94389023D02*
X138790419Y-94960451D01*
X138790419Y-94674737D02*
X137790419Y-94674737D01*
X137790419Y-94674737D02*
X137933276Y-94769975D01*
X137933276Y-94769975D02*
X138028514Y-94865213D01*
X138028514Y-94865213D02*
X138076133Y-94960451D01*
X148552119Y-124428033D02*
X149266404Y-124428033D01*
X149266404Y-124428033D02*
X149409261Y-124475652D01*
X149409261Y-124475652D02*
X149504500Y-124570890D01*
X149504500Y-124570890D02*
X149552119Y-124713747D01*
X149552119Y-124713747D02*
X149552119Y-124808985D01*
X148552119Y-124047080D02*
X148552119Y-123428033D01*
X148552119Y-123428033D02*
X148933071Y-123761366D01*
X148933071Y-123761366D02*
X148933071Y-123618509D01*
X148933071Y-123618509D02*
X148980690Y-123523271D01*
X148980690Y-123523271D02*
X149028309Y-123475652D01*
X149028309Y-123475652D02*
X149123547Y-123428033D01*
X149123547Y-123428033D02*
X149361642Y-123428033D01*
X149361642Y-123428033D02*
X149456880Y-123475652D01*
X149456880Y-123475652D02*
X149504500Y-123523271D01*
X149504500Y-123523271D02*
X149552119Y-123618509D01*
X149552119Y-123618509D02*
X149552119Y-123904223D01*
X149552119Y-123904223D02*
X149504500Y-123999461D01*
X149504500Y-123999461D02*
X149456880Y-124047080D01*
X171735712Y-98659074D02*
X172449997Y-98659074D01*
X172449997Y-98659074D02*
X172592854Y-98706693D01*
X172592854Y-98706693D02*
X172688093Y-98801931D01*
X172688093Y-98801931D02*
X172735712Y-98944788D01*
X172735712Y-98944788D02*
X172735712Y-99040026D01*
X172735712Y-97659074D02*
X172735712Y-98230502D01*
X172735712Y-97944788D02*
X171735712Y-97944788D01*
X171735712Y-97944788D02*
X171878569Y-98040026D01*
X171878569Y-98040026D02*
X171973807Y-98135264D01*
X171973807Y-98135264D02*
X172021426Y-98230502D01*
X171735712Y-96754312D02*
X171735712Y-97230502D01*
X171735712Y-97230502D02*
X172211902Y-97278121D01*
X172211902Y-97278121D02*
X172164283Y-97230502D01*
X172164283Y-97230502D02*
X172116664Y-97135264D01*
X172116664Y-97135264D02*
X172116664Y-96897169D01*
X172116664Y-96897169D02*
X172164283Y-96801931D01*
X172164283Y-96801931D02*
X172211902Y-96754312D01*
X172211902Y-96754312D02*
X172307140Y-96706693D01*
X172307140Y-96706693D02*
X172545235Y-96706693D01*
X172545235Y-96706693D02*
X172640473Y-96754312D01*
X172640473Y-96754312D02*
X172688093Y-96801931D01*
X172688093Y-96801931D02*
X172735712Y-96897169D01*
X172735712Y-96897169D02*
X172735712Y-97135264D01*
X172735712Y-97135264D02*
X172688093Y-97230502D01*
X172688093Y-97230502D02*
X172640473Y-97278121D01*
X161481959Y-89307990D02*
X161005768Y-89641323D01*
X161481959Y-89879418D02*
X160481959Y-89879418D01*
X160481959Y-89879418D02*
X160481959Y-89498466D01*
X160481959Y-89498466D02*
X160529578Y-89403228D01*
X160529578Y-89403228D02*
X160577197Y-89355609D01*
X160577197Y-89355609D02*
X160672435Y-89307990D01*
X160672435Y-89307990D02*
X160815292Y-89307990D01*
X160815292Y-89307990D02*
X160910530Y-89355609D01*
X160910530Y-89355609D02*
X160958149Y-89403228D01*
X160958149Y-89403228D02*
X161005768Y-89498466D01*
X161005768Y-89498466D02*
X161005768Y-89879418D01*
X161481959Y-88831799D02*
X161481959Y-88641323D01*
X161481959Y-88641323D02*
X161434340Y-88546085D01*
X161434340Y-88546085D02*
X161386720Y-88498466D01*
X161386720Y-88498466D02*
X161243863Y-88403228D01*
X161243863Y-88403228D02*
X161053387Y-88355609D01*
X161053387Y-88355609D02*
X160672435Y-88355609D01*
X160672435Y-88355609D02*
X160577197Y-88403228D01*
X160577197Y-88403228D02*
X160529578Y-88450847D01*
X160529578Y-88450847D02*
X160481959Y-88546085D01*
X160481959Y-88546085D02*
X160481959Y-88736561D01*
X160481959Y-88736561D02*
X160529578Y-88831799D01*
X160529578Y-88831799D02*
X160577197Y-88879418D01*
X160577197Y-88879418D02*
X160672435Y-88927037D01*
X160672435Y-88927037D02*
X160910530Y-88927037D01*
X160910530Y-88927037D02*
X161005768Y-88879418D01*
X161005768Y-88879418D02*
X161053387Y-88831799D01*
X161053387Y-88831799D02*
X161101006Y-88736561D01*
X161101006Y-88736561D02*
X161101006Y-88546085D01*
X161101006Y-88546085D02*
X161053387Y-88450847D01*
X161053387Y-88450847D02*
X161005768Y-88403228D01*
X161005768Y-88403228D02*
X160910530Y-88355609D01*
X149991619Y-86128533D02*
X150705904Y-86128533D01*
X150705904Y-86128533D02*
X150848761Y-86176152D01*
X150848761Y-86176152D02*
X150944000Y-86271390D01*
X150944000Y-86271390D02*
X150991619Y-86414247D01*
X150991619Y-86414247D02*
X150991619Y-86509485D01*
X149991619Y-85747580D02*
X149991619Y-85080914D01*
X149991619Y-85080914D02*
X150991619Y-85509485D01*
X150025919Y-92308333D02*
X150740204Y-92308333D01*
X150740204Y-92308333D02*
X150883061Y-92355952D01*
X150883061Y-92355952D02*
X150978300Y-92451190D01*
X150978300Y-92451190D02*
X151025919Y-92594047D01*
X151025919Y-92594047D02*
X151025919Y-92689285D01*
X150454490Y-91689285D02*
X150406871Y-91784523D01*
X150406871Y-91784523D02*
X150359252Y-91832142D01*
X150359252Y-91832142D02*
X150264014Y-91879761D01*
X150264014Y-91879761D02*
X150216395Y-91879761D01*
X150216395Y-91879761D02*
X150121157Y-91832142D01*
X150121157Y-91832142D02*
X150073538Y-91784523D01*
X150073538Y-91784523D02*
X150025919Y-91689285D01*
X150025919Y-91689285D02*
X150025919Y-91498809D01*
X150025919Y-91498809D02*
X150073538Y-91403571D01*
X150073538Y-91403571D02*
X150121157Y-91355952D01*
X150121157Y-91355952D02*
X150216395Y-91308333D01*
X150216395Y-91308333D02*
X150264014Y-91308333D01*
X150264014Y-91308333D02*
X150359252Y-91355952D01*
X150359252Y-91355952D02*
X150406871Y-91403571D01*
X150406871Y-91403571D02*
X150454490Y-91498809D01*
X150454490Y-91498809D02*
X150454490Y-91689285D01*
X150454490Y-91689285D02*
X150502109Y-91784523D01*
X150502109Y-91784523D02*
X150549728Y-91832142D01*
X150549728Y-91832142D02*
X150644966Y-91879761D01*
X150644966Y-91879761D02*
X150835442Y-91879761D01*
X150835442Y-91879761D02*
X150930680Y-91832142D01*
X150930680Y-91832142D02*
X150978300Y-91784523D01*
X150978300Y-91784523D02*
X151025919Y-91689285D01*
X151025919Y-91689285D02*
X151025919Y-91498809D01*
X151025919Y-91498809D02*
X150978300Y-91403571D01*
X150978300Y-91403571D02*
X150930680Y-91355952D01*
X150930680Y-91355952D02*
X150835442Y-91308333D01*
X150835442Y-91308333D02*
X150644966Y-91308333D01*
X150644966Y-91308333D02*
X150549728Y-91355952D01*
X150549728Y-91355952D02*
X150502109Y-91403571D01*
X150502109Y-91403571D02*
X150454490Y-91498809D01*
X161334039Y-109778443D02*
X161381659Y-109826062D01*
X161381659Y-109826062D02*
X161429278Y-109968919D01*
X161429278Y-109968919D02*
X161429278Y-110064157D01*
X161429278Y-110064157D02*
X161381659Y-110207014D01*
X161381659Y-110207014D02*
X161286420Y-110302252D01*
X161286420Y-110302252D02*
X161191182Y-110349871D01*
X161191182Y-110349871D02*
X161000706Y-110397490D01*
X161000706Y-110397490D02*
X160857849Y-110397490D01*
X160857849Y-110397490D02*
X160667373Y-110349871D01*
X160667373Y-110349871D02*
X160572135Y-110302252D01*
X160572135Y-110302252D02*
X160476897Y-110207014D01*
X160476897Y-110207014D02*
X160429278Y-110064157D01*
X160429278Y-110064157D02*
X160429278Y-109968919D01*
X160429278Y-109968919D02*
X160476897Y-109826062D01*
X160476897Y-109826062D02*
X160524516Y-109778443D01*
X161429278Y-108826062D02*
X161429278Y-109397490D01*
X161429278Y-109111776D02*
X160429278Y-109111776D01*
X160429278Y-109111776D02*
X160572135Y-109207014D01*
X160572135Y-109207014D02*
X160667373Y-109302252D01*
X160667373Y-109302252D02*
X160714992Y-109397490D01*
X160429278Y-107921300D02*
X160429278Y-108397490D01*
X160429278Y-108397490D02*
X160905468Y-108445109D01*
X160905468Y-108445109D02*
X160857849Y-108397490D01*
X160857849Y-108397490D02*
X160810230Y-108302252D01*
X160810230Y-108302252D02*
X160810230Y-108064157D01*
X160810230Y-108064157D02*
X160857849Y-107968919D01*
X160857849Y-107968919D02*
X160905468Y-107921300D01*
X160905468Y-107921300D02*
X161000706Y-107873681D01*
X161000706Y-107873681D02*
X161238801Y-107873681D01*
X161238801Y-107873681D02*
X161334039Y-107921300D01*
X161334039Y-107921300D02*
X161381659Y-107968919D01*
X161381659Y-107968919D02*
X161429278Y-108064157D01*
X161429278Y-108064157D02*
X161429278Y-108302252D01*
X161429278Y-108302252D02*
X161381659Y-108397490D01*
X161381659Y-108397490D02*
X161334039Y-108445109D01*
X156171906Y-75707105D02*
X155695715Y-76040438D01*
X156171906Y-76278533D02*
X155171906Y-76278533D01*
X155171906Y-76278533D02*
X155171906Y-75897581D01*
X155171906Y-75897581D02*
X155219525Y-75802343D01*
X155219525Y-75802343D02*
X155267144Y-75754724D01*
X155267144Y-75754724D02*
X155362382Y-75707105D01*
X155362382Y-75707105D02*
X155505239Y-75707105D01*
X155505239Y-75707105D02*
X155600477Y-75754724D01*
X155600477Y-75754724D02*
X155648096Y-75802343D01*
X155648096Y-75802343D02*
X155695715Y-75897581D01*
X155695715Y-75897581D02*
X155695715Y-76278533D01*
X155171906Y-74849962D02*
X155171906Y-75040438D01*
X155171906Y-75040438D02*
X155219525Y-75135676D01*
X155219525Y-75135676D02*
X155267144Y-75183295D01*
X155267144Y-75183295D02*
X155410001Y-75278533D01*
X155410001Y-75278533D02*
X155600477Y-75326152D01*
X155600477Y-75326152D02*
X155981429Y-75326152D01*
X155981429Y-75326152D02*
X156076667Y-75278533D01*
X156076667Y-75278533D02*
X156124287Y-75230914D01*
X156124287Y-75230914D02*
X156171906Y-75135676D01*
X156171906Y-75135676D02*
X156171906Y-74945200D01*
X156171906Y-74945200D02*
X156124287Y-74849962D01*
X156124287Y-74849962D02*
X156076667Y-74802343D01*
X156076667Y-74802343D02*
X155981429Y-74754724D01*
X155981429Y-74754724D02*
X155743334Y-74754724D01*
X155743334Y-74754724D02*
X155648096Y-74802343D01*
X155648096Y-74802343D02*
X155600477Y-74849962D01*
X155600477Y-74849962D02*
X155552858Y-74945200D01*
X155552858Y-74945200D02*
X155552858Y-75135676D01*
X155552858Y-75135676D02*
X155600477Y-75230914D01*
X155600477Y-75230914D02*
X155648096Y-75278533D01*
X155648096Y-75278533D02*
X155743334Y-75326152D01*
X170598845Y-73694443D02*
X171313130Y-73694443D01*
X171313130Y-73694443D02*
X171455987Y-73742062D01*
X171455987Y-73742062D02*
X171551226Y-73837300D01*
X171551226Y-73837300D02*
X171598845Y-73980157D01*
X171598845Y-73980157D02*
X171598845Y-74075395D01*
X171598845Y-72694443D02*
X171598845Y-73265871D01*
X171598845Y-72980157D02*
X170598845Y-72980157D01*
X170598845Y-72980157D02*
X170741702Y-73075395D01*
X170741702Y-73075395D02*
X170836940Y-73170633D01*
X170836940Y-73170633D02*
X170884559Y-73265871D01*
X170932178Y-71837300D02*
X171598845Y-71837300D01*
X170551226Y-72075395D02*
X171265511Y-72313490D01*
X171265511Y-72313490D02*
X171265511Y-71694443D01*
X166960786Y-110480472D02*
X166960786Y-111194757D01*
X166960786Y-111194757D02*
X166913167Y-111337614D01*
X166913167Y-111337614D02*
X166817929Y-111432853D01*
X166817929Y-111432853D02*
X166675072Y-111480472D01*
X166675072Y-111480472D02*
X166579834Y-111480472D01*
X167960786Y-111480472D02*
X167389358Y-111480472D01*
X167675072Y-111480472D02*
X167675072Y-110480472D01*
X167675072Y-110480472D02*
X167579834Y-110623329D01*
X167579834Y-110623329D02*
X167484596Y-110718567D01*
X167484596Y-110718567D02*
X167389358Y-110766186D01*
X168817929Y-110480472D02*
X168627453Y-110480472D01*
X168627453Y-110480472D02*
X168532215Y-110528091D01*
X168532215Y-110528091D02*
X168484596Y-110575710D01*
X168484596Y-110575710D02*
X168389358Y-110718567D01*
X168389358Y-110718567D02*
X168341739Y-110909043D01*
X168341739Y-110909043D02*
X168341739Y-111289995D01*
X168341739Y-111289995D02*
X168389358Y-111385233D01*
X168389358Y-111385233D02*
X168436977Y-111432853D01*
X168436977Y-111432853D02*
X168532215Y-111480472D01*
X168532215Y-111480472D02*
X168722691Y-111480472D01*
X168722691Y-111480472D02*
X168817929Y-111432853D01*
X168817929Y-111432853D02*
X168865548Y-111385233D01*
X168865548Y-111385233D02*
X168913167Y-111289995D01*
X168913167Y-111289995D02*
X168913167Y-111051900D01*
X168913167Y-111051900D02*
X168865548Y-110956662D01*
X168865548Y-110956662D02*
X168817929Y-110909043D01*
X168817929Y-110909043D02*
X168722691Y-110861424D01*
X168722691Y-110861424D02*
X168532215Y-110861424D01*
X168532215Y-110861424D02*
X168436977Y-110909043D01*
X168436977Y-110909043D02*
X168389358Y-110956662D01*
X168389358Y-110956662D02*
X168341739Y-111051900D01*
X125148354Y-94865800D02*
X124148354Y-94865800D01*
X124148354Y-94865800D02*
X124148354Y-94484848D01*
X124148354Y-94484848D02*
X124195973Y-94389610D01*
X124195973Y-94389610D02*
X124243592Y-94341991D01*
X124243592Y-94341991D02*
X124338830Y-94294372D01*
X124338830Y-94294372D02*
X124481687Y-94294372D01*
X124481687Y-94294372D02*
X124576925Y-94341991D01*
X124576925Y-94341991D02*
X124624544Y-94389610D01*
X124624544Y-94389610D02*
X124672163Y-94484848D01*
X124672163Y-94484848D02*
X124672163Y-94865800D01*
X125148354Y-93722943D02*
X125100735Y-93818181D01*
X125100735Y-93818181D02*
X125053115Y-93865800D01*
X125053115Y-93865800D02*
X124957877Y-93913419D01*
X124957877Y-93913419D02*
X124672163Y-93913419D01*
X124672163Y-93913419D02*
X124576925Y-93865800D01*
X124576925Y-93865800D02*
X124529306Y-93818181D01*
X124529306Y-93818181D02*
X124481687Y-93722943D01*
X124481687Y-93722943D02*
X124481687Y-93580086D01*
X124481687Y-93580086D02*
X124529306Y-93484848D01*
X124529306Y-93484848D02*
X124576925Y-93437229D01*
X124576925Y-93437229D02*
X124672163Y-93389610D01*
X124672163Y-93389610D02*
X124957877Y-93389610D01*
X124957877Y-93389610D02*
X125053115Y-93437229D01*
X125053115Y-93437229D02*
X125100735Y-93484848D01*
X125100735Y-93484848D02*
X125148354Y-93580086D01*
X125148354Y-93580086D02*
X125148354Y-93722943D01*
X124481687Y-93056276D02*
X125148354Y-92865800D01*
X125148354Y-92865800D02*
X124672163Y-92675324D01*
X124672163Y-92675324D02*
X125148354Y-92484848D01*
X125148354Y-92484848D02*
X124481687Y-92294372D01*
X125100735Y-91532467D02*
X125148354Y-91627705D01*
X125148354Y-91627705D02*
X125148354Y-91818181D01*
X125148354Y-91818181D02*
X125100735Y-91913419D01*
X125100735Y-91913419D02*
X125005496Y-91961038D01*
X125005496Y-91961038D02*
X124624544Y-91961038D01*
X124624544Y-91961038D02*
X124529306Y-91913419D01*
X124529306Y-91913419D02*
X124481687Y-91818181D01*
X124481687Y-91818181D02*
X124481687Y-91627705D01*
X124481687Y-91627705D02*
X124529306Y-91532467D01*
X124529306Y-91532467D02*
X124624544Y-91484848D01*
X124624544Y-91484848D02*
X124719782Y-91484848D01*
X124719782Y-91484848D02*
X124815020Y-91961038D01*
X125148354Y-91056276D02*
X124481687Y-91056276D01*
X124672163Y-91056276D02*
X124576925Y-91008657D01*
X124576925Y-91008657D02*
X124529306Y-90961038D01*
X124529306Y-90961038D02*
X124481687Y-90865800D01*
X124481687Y-90865800D02*
X124481687Y-90770562D01*
X125148354Y-90437228D02*
X124148354Y-90437228D01*
X124529306Y-90437228D02*
X124481687Y-90341990D01*
X124481687Y-90341990D02*
X124481687Y-90151514D01*
X124481687Y-90151514D02*
X124529306Y-90056276D01*
X124529306Y-90056276D02*
X124576925Y-90008657D01*
X124576925Y-90008657D02*
X124672163Y-89961038D01*
X124672163Y-89961038D02*
X124957877Y-89961038D01*
X124957877Y-89961038D02*
X125053115Y-90008657D01*
X125053115Y-90008657D02*
X125100735Y-90056276D01*
X125100735Y-90056276D02*
X125148354Y-90151514D01*
X125148354Y-90151514D02*
X125148354Y-90341990D01*
X125148354Y-90341990D02*
X125100735Y-90437228D01*
X125148354Y-89389609D02*
X125100735Y-89484847D01*
X125100735Y-89484847D02*
X125053115Y-89532466D01*
X125053115Y-89532466D02*
X124957877Y-89580085D01*
X124957877Y-89580085D02*
X124672163Y-89580085D01*
X124672163Y-89580085D02*
X124576925Y-89532466D01*
X124576925Y-89532466D02*
X124529306Y-89484847D01*
X124529306Y-89484847D02*
X124481687Y-89389609D01*
X124481687Y-89389609D02*
X124481687Y-89246752D01*
X124481687Y-89246752D02*
X124529306Y-89151514D01*
X124529306Y-89151514D02*
X124576925Y-89103895D01*
X124576925Y-89103895D02*
X124672163Y-89056276D01*
X124672163Y-89056276D02*
X124957877Y-89056276D01*
X124957877Y-89056276D02*
X125053115Y-89103895D01*
X125053115Y-89103895D02*
X125100735Y-89151514D01*
X125100735Y-89151514D02*
X125148354Y-89246752D01*
X125148354Y-89246752D02*
X125148354Y-89389609D01*
X125148354Y-88199133D02*
X124624544Y-88199133D01*
X124624544Y-88199133D02*
X124529306Y-88246752D01*
X124529306Y-88246752D02*
X124481687Y-88341990D01*
X124481687Y-88341990D02*
X124481687Y-88532466D01*
X124481687Y-88532466D02*
X124529306Y-88627704D01*
X125100735Y-88199133D02*
X125148354Y-88294371D01*
X125148354Y-88294371D02*
X125148354Y-88532466D01*
X125148354Y-88532466D02*
X125100735Y-88627704D01*
X125100735Y-88627704D02*
X125005496Y-88675323D01*
X125005496Y-88675323D02*
X124910258Y-88675323D01*
X124910258Y-88675323D02*
X124815020Y-88627704D01*
X124815020Y-88627704D02*
X124767401Y-88532466D01*
X124767401Y-88532466D02*
X124767401Y-88294371D01*
X124767401Y-88294371D02*
X124719782Y-88199133D01*
X125148354Y-87722942D02*
X124481687Y-87722942D01*
X124672163Y-87722942D02*
X124576925Y-87675323D01*
X124576925Y-87675323D02*
X124529306Y-87627704D01*
X124529306Y-87627704D02*
X124481687Y-87532466D01*
X124481687Y-87532466D02*
X124481687Y-87437228D01*
X125148354Y-86675323D02*
X124148354Y-86675323D01*
X125100735Y-86675323D02*
X125148354Y-86770561D01*
X125148354Y-86770561D02*
X125148354Y-86961037D01*
X125148354Y-86961037D02*
X125100735Y-87056275D01*
X125100735Y-87056275D02*
X125053115Y-87103894D01*
X125053115Y-87103894D02*
X124957877Y-87151513D01*
X124957877Y-87151513D02*
X124672163Y-87151513D01*
X124672163Y-87151513D02*
X124576925Y-87103894D01*
X124576925Y-87103894D02*
X124529306Y-87056275D01*
X124529306Y-87056275D02*
X124481687Y-86961037D01*
X124481687Y-86961037D02*
X124481687Y-86770561D01*
X124481687Y-86770561D02*
X124529306Y-86675323D01*
X125148354Y-85675323D02*
X125148354Y-86246751D01*
X125148354Y-85961037D02*
X124148354Y-85961037D01*
X124148354Y-85961037D02*
X124291211Y-86056275D01*
X124291211Y-86056275D02*
X124386449Y-86151513D01*
X124386449Y-86151513D02*
X124434068Y-86246751D01*
X150369919Y-73140333D02*
X151084204Y-73140333D01*
X151084204Y-73140333D02*
X151227061Y-73187952D01*
X151227061Y-73187952D02*
X151322300Y-73283190D01*
X151322300Y-73283190D02*
X151369919Y-73426047D01*
X151369919Y-73426047D02*
X151369919Y-73521285D01*
X150703252Y-72235571D02*
X151369919Y-72235571D01*
X150322300Y-72473666D02*
X151036585Y-72711761D01*
X151036585Y-72711761D02*
X151036585Y-72092714D01*
X157833866Y-89551619D02*
X157833866Y-90265904D01*
X157833866Y-90265904D02*
X157786247Y-90408761D01*
X157786247Y-90408761D02*
X157691009Y-90504000D01*
X157691009Y-90504000D02*
X157548152Y-90551619D01*
X157548152Y-90551619D02*
X157452914Y-90551619D01*
X158357676Y-90551619D02*
X158548152Y-90551619D01*
X158548152Y-90551619D02*
X158643390Y-90504000D01*
X158643390Y-90504000D02*
X158691009Y-90456380D01*
X158691009Y-90456380D02*
X158786247Y-90313523D01*
X158786247Y-90313523D02*
X158833866Y-90123047D01*
X158833866Y-90123047D02*
X158833866Y-89742095D01*
X158833866Y-89742095D02*
X158786247Y-89646857D01*
X158786247Y-89646857D02*
X158738628Y-89599238D01*
X158738628Y-89599238D02*
X158643390Y-89551619D01*
X158643390Y-89551619D02*
X158452914Y-89551619D01*
X158452914Y-89551619D02*
X158357676Y-89599238D01*
X158357676Y-89599238D02*
X158310057Y-89646857D01*
X158310057Y-89646857D02*
X158262438Y-89742095D01*
X158262438Y-89742095D02*
X158262438Y-89980190D01*
X158262438Y-89980190D02*
X158310057Y-90075428D01*
X158310057Y-90075428D02*
X158357676Y-90123047D01*
X158357676Y-90123047D02*
X158452914Y-90170666D01*
X158452914Y-90170666D02*
X158643390Y-90170666D01*
X158643390Y-90170666D02*
X158738628Y-90123047D01*
X158738628Y-90123047D02*
X158786247Y-90075428D01*
X158786247Y-90075428D02*
X158833866Y-89980190D01*
X143977595Y-78886619D02*
X143977595Y-79696142D01*
X143977595Y-79696142D02*
X144025214Y-79791380D01*
X144025214Y-79791380D02*
X144072833Y-79839000D01*
X144072833Y-79839000D02*
X144168071Y-79886619D01*
X144168071Y-79886619D02*
X144358547Y-79886619D01*
X144358547Y-79886619D02*
X144453785Y-79839000D01*
X144453785Y-79839000D02*
X144501404Y-79791380D01*
X144501404Y-79791380D02*
X144549023Y-79696142D01*
X144549023Y-79696142D02*
X144549023Y-78886619D01*
X144977595Y-78981857D02*
X145025214Y-78934238D01*
X145025214Y-78934238D02*
X145120452Y-78886619D01*
X145120452Y-78886619D02*
X145358547Y-78886619D01*
X145358547Y-78886619D02*
X145453785Y-78934238D01*
X145453785Y-78934238D02*
X145501404Y-78981857D01*
X145501404Y-78981857D02*
X145549023Y-79077095D01*
X145549023Y-79077095D02*
X145549023Y-79172333D01*
X145549023Y-79172333D02*
X145501404Y-79315190D01*
X145501404Y-79315190D02*
X144929976Y-79886619D01*
X144929976Y-79886619D02*
X145549023Y-79886619D01*
X136174419Y-62071833D02*
X136888704Y-62071833D01*
X136888704Y-62071833D02*
X137031561Y-62119452D01*
X137031561Y-62119452D02*
X137126800Y-62214690D01*
X137126800Y-62214690D02*
X137174419Y-62357547D01*
X137174419Y-62357547D02*
X137174419Y-62452785D01*
X136174419Y-61119452D02*
X136174419Y-61595642D01*
X136174419Y-61595642D02*
X136650609Y-61643261D01*
X136650609Y-61643261D02*
X136602990Y-61595642D01*
X136602990Y-61595642D02*
X136555371Y-61500404D01*
X136555371Y-61500404D02*
X136555371Y-61262309D01*
X136555371Y-61262309D02*
X136602990Y-61167071D01*
X136602990Y-61167071D02*
X136650609Y-61119452D01*
X136650609Y-61119452D02*
X136745847Y-61071833D01*
X136745847Y-61071833D02*
X136983942Y-61071833D01*
X136983942Y-61071833D02*
X137079180Y-61119452D01*
X137079180Y-61119452D02*
X137126800Y-61167071D01*
X137126800Y-61167071D02*
X137174419Y-61262309D01*
X137174419Y-61262309D02*
X137174419Y-61500404D01*
X137174419Y-61500404D02*
X137126800Y-61595642D01*
X137126800Y-61595642D02*
X137079180Y-61643261D01*
X163373429Y-74913227D02*
X162897238Y-75246560D01*
X163373429Y-75484655D02*
X162373429Y-75484655D01*
X162373429Y-75484655D02*
X162373429Y-75103703D01*
X162373429Y-75103703D02*
X162421048Y-75008465D01*
X162421048Y-75008465D02*
X162468667Y-74960846D01*
X162468667Y-74960846D02*
X162563905Y-74913227D01*
X162563905Y-74913227D02*
X162706762Y-74913227D01*
X162706762Y-74913227D02*
X162802000Y-74960846D01*
X162802000Y-74960846D02*
X162849619Y-75008465D01*
X162849619Y-75008465D02*
X162897238Y-75103703D01*
X162897238Y-75103703D02*
X162897238Y-75484655D01*
X162802000Y-74341798D02*
X162754381Y-74437036D01*
X162754381Y-74437036D02*
X162706762Y-74484655D01*
X162706762Y-74484655D02*
X162611524Y-74532274D01*
X162611524Y-74532274D02*
X162563905Y-74532274D01*
X162563905Y-74532274D02*
X162468667Y-74484655D01*
X162468667Y-74484655D02*
X162421048Y-74437036D01*
X162421048Y-74437036D02*
X162373429Y-74341798D01*
X162373429Y-74341798D02*
X162373429Y-74151322D01*
X162373429Y-74151322D02*
X162421048Y-74056084D01*
X162421048Y-74056084D02*
X162468667Y-74008465D01*
X162468667Y-74008465D02*
X162563905Y-73960846D01*
X162563905Y-73960846D02*
X162611524Y-73960846D01*
X162611524Y-73960846D02*
X162706762Y-74008465D01*
X162706762Y-74008465D02*
X162754381Y-74056084D01*
X162754381Y-74056084D02*
X162802000Y-74151322D01*
X162802000Y-74151322D02*
X162802000Y-74341798D01*
X162802000Y-74341798D02*
X162849619Y-74437036D01*
X162849619Y-74437036D02*
X162897238Y-74484655D01*
X162897238Y-74484655D02*
X162992476Y-74532274D01*
X162992476Y-74532274D02*
X163182952Y-74532274D01*
X163182952Y-74532274D02*
X163278190Y-74484655D01*
X163278190Y-74484655D02*
X163325810Y-74437036D01*
X163325810Y-74437036D02*
X163373429Y-74341798D01*
X163373429Y-74341798D02*
X163373429Y-74151322D01*
X163373429Y-74151322D02*
X163325810Y-74056084D01*
X163325810Y-74056084D02*
X163278190Y-74008465D01*
X163278190Y-74008465D02*
X163182952Y-73960846D01*
X163182952Y-73960846D02*
X162992476Y-73960846D01*
X162992476Y-73960846D02*
X162897238Y-74008465D01*
X162897238Y-74008465D02*
X162849619Y-74056084D01*
X162849619Y-74056084D02*
X162802000Y-74151322D01*
X158445044Y-112144599D02*
X158445044Y-112620790D01*
X158111711Y-111620790D02*
X158445044Y-112144599D01*
X158445044Y-112144599D02*
X158778377Y-111620790D01*
X159064092Y-111716028D02*
X159111711Y-111668409D01*
X159111711Y-111668409D02*
X159206949Y-111620790D01*
X159206949Y-111620790D02*
X159445044Y-111620790D01*
X159445044Y-111620790D02*
X159540282Y-111668409D01*
X159540282Y-111668409D02*
X159587901Y-111716028D01*
X159587901Y-111716028D02*
X159635520Y-111811266D01*
X159635520Y-111811266D02*
X159635520Y-111906504D01*
X159635520Y-111906504D02*
X159587901Y-112049361D01*
X159587901Y-112049361D02*
X159016473Y-112620790D01*
X159016473Y-112620790D02*
X159635520Y-112620790D01*
X156877066Y-77683019D02*
X156877066Y-78397304D01*
X156877066Y-78397304D02*
X156829447Y-78540161D01*
X156829447Y-78540161D02*
X156734209Y-78635400D01*
X156734209Y-78635400D02*
X156591352Y-78683019D01*
X156591352Y-78683019D02*
X156496114Y-78683019D01*
X157781828Y-77683019D02*
X157591352Y-77683019D01*
X157591352Y-77683019D02*
X157496114Y-77730638D01*
X157496114Y-77730638D02*
X157448495Y-77778257D01*
X157448495Y-77778257D02*
X157353257Y-77921114D01*
X157353257Y-77921114D02*
X157305638Y-78111590D01*
X157305638Y-78111590D02*
X157305638Y-78492542D01*
X157305638Y-78492542D02*
X157353257Y-78587780D01*
X157353257Y-78587780D02*
X157400876Y-78635400D01*
X157400876Y-78635400D02*
X157496114Y-78683019D01*
X157496114Y-78683019D02*
X157686590Y-78683019D01*
X157686590Y-78683019D02*
X157781828Y-78635400D01*
X157781828Y-78635400D02*
X157829447Y-78587780D01*
X157829447Y-78587780D02*
X157877066Y-78492542D01*
X157877066Y-78492542D02*
X157877066Y-78254447D01*
X157877066Y-78254447D02*
X157829447Y-78159209D01*
X157829447Y-78159209D02*
X157781828Y-78111590D01*
X157781828Y-78111590D02*
X157686590Y-78063971D01*
X157686590Y-78063971D02*
X157496114Y-78063971D01*
X157496114Y-78063971D02*
X157400876Y-78111590D01*
X157400876Y-78111590D02*
X157353257Y-78159209D01*
X157353257Y-78159209D02*
X157305638Y-78254447D01*
X153566681Y-119862923D02*
X153519062Y-119910543D01*
X153519062Y-119910543D02*
X153376205Y-119958162D01*
X153376205Y-119958162D02*
X153280967Y-119958162D01*
X153280967Y-119958162D02*
X153138110Y-119910543D01*
X153138110Y-119910543D02*
X153042872Y-119815304D01*
X153042872Y-119815304D02*
X152995253Y-119720066D01*
X152995253Y-119720066D02*
X152947634Y-119529590D01*
X152947634Y-119529590D02*
X152947634Y-119386733D01*
X152947634Y-119386733D02*
X152995253Y-119196257D01*
X152995253Y-119196257D02*
X153042872Y-119101019D01*
X153042872Y-119101019D02*
X153138110Y-119005781D01*
X153138110Y-119005781D02*
X153280967Y-118958162D01*
X153280967Y-118958162D02*
X153376205Y-118958162D01*
X153376205Y-118958162D02*
X153519062Y-119005781D01*
X153519062Y-119005781D02*
X153566681Y-119053400D01*
X154471443Y-118958162D02*
X153995253Y-118958162D01*
X153995253Y-118958162D02*
X153947634Y-119434352D01*
X153947634Y-119434352D02*
X153995253Y-119386733D01*
X153995253Y-119386733D02*
X154090491Y-119339114D01*
X154090491Y-119339114D02*
X154328586Y-119339114D01*
X154328586Y-119339114D02*
X154423824Y-119386733D01*
X154423824Y-119386733D02*
X154471443Y-119434352D01*
X154471443Y-119434352D02*
X154519062Y-119529590D01*
X154519062Y-119529590D02*
X154519062Y-119767685D01*
X154519062Y-119767685D02*
X154471443Y-119862923D01*
X154471443Y-119862923D02*
X154423824Y-119910543D01*
X154423824Y-119910543D02*
X154328586Y-119958162D01*
X154328586Y-119958162D02*
X154090491Y-119958162D01*
X154090491Y-119958162D02*
X153995253Y-119910543D01*
X153995253Y-119910543D02*
X153947634Y-119862923D01*
X161447806Y-98267870D02*
X161495426Y-98315489D01*
X161495426Y-98315489D02*
X161543045Y-98458346D01*
X161543045Y-98458346D02*
X161543045Y-98553584D01*
X161543045Y-98553584D02*
X161495426Y-98696441D01*
X161495426Y-98696441D02*
X161400187Y-98791679D01*
X161400187Y-98791679D02*
X161304949Y-98839298D01*
X161304949Y-98839298D02*
X161114473Y-98886917D01*
X161114473Y-98886917D02*
X160971616Y-98886917D01*
X160971616Y-98886917D02*
X160781140Y-98839298D01*
X160781140Y-98839298D02*
X160685902Y-98791679D01*
X160685902Y-98791679D02*
X160590664Y-98696441D01*
X160590664Y-98696441D02*
X160543045Y-98553584D01*
X160543045Y-98553584D02*
X160543045Y-98458346D01*
X160543045Y-98458346D02*
X160590664Y-98315489D01*
X160590664Y-98315489D02*
X160638283Y-98267870D01*
X161543045Y-97315489D02*
X161543045Y-97886917D01*
X161543045Y-97601203D02*
X160543045Y-97601203D01*
X160543045Y-97601203D02*
X160685902Y-97696441D01*
X160685902Y-97696441D02*
X160781140Y-97791679D01*
X160781140Y-97791679D02*
X160828759Y-97886917D01*
X161543045Y-96363108D02*
X161543045Y-96934536D01*
X161543045Y-96648822D02*
X160543045Y-96648822D01*
X160543045Y-96648822D02*
X160685902Y-96744060D01*
X160685902Y-96744060D02*
X160781140Y-96839298D01*
X160781140Y-96839298D02*
X160828759Y-96934536D01*
X137226360Y-119323928D02*
X137226360Y-119800119D01*
X136893027Y-118800119D02*
X137226360Y-119323928D01*
X137226360Y-119323928D02*
X137559693Y-118800119D01*
X138416836Y-119800119D02*
X137845408Y-119800119D01*
X138131122Y-119800119D02*
X138131122Y-118800119D01*
X138131122Y-118800119D02*
X138035884Y-118942976D01*
X138035884Y-118942976D02*
X137940646Y-119038214D01*
X137940646Y-119038214D02*
X137845408Y-119085833D01*
X156444076Y-100922819D02*
X156444076Y-101637104D01*
X156444076Y-101637104D02*
X156396457Y-101779961D01*
X156396457Y-101779961D02*
X156301219Y-101875200D01*
X156301219Y-101875200D02*
X156158362Y-101922819D01*
X156158362Y-101922819D02*
X156063124Y-101922819D01*
X157444076Y-101922819D02*
X156872648Y-101922819D01*
X157158362Y-101922819D02*
X157158362Y-100922819D01*
X157158362Y-100922819D02*
X157063124Y-101065676D01*
X157063124Y-101065676D02*
X156967886Y-101160914D01*
X156967886Y-101160914D02*
X156872648Y-101208533D01*
X157825029Y-101018057D02*
X157872648Y-100970438D01*
X157872648Y-100970438D02*
X157967886Y-100922819D01*
X157967886Y-100922819D02*
X158205981Y-100922819D01*
X158205981Y-100922819D02*
X158301219Y-100970438D01*
X158301219Y-100970438D02*
X158348838Y-101018057D01*
X158348838Y-101018057D02*
X158396457Y-101113295D01*
X158396457Y-101113295D02*
X158396457Y-101208533D01*
X158396457Y-101208533D02*
X158348838Y-101351390D01*
X158348838Y-101351390D02*
X157777410Y-101922819D01*
X157777410Y-101922819D02*
X158396457Y-101922819D01*
X150143719Y-103645823D02*
X150858004Y-103645823D01*
X150858004Y-103645823D02*
X151000861Y-103693442D01*
X151000861Y-103693442D02*
X151096100Y-103788680D01*
X151096100Y-103788680D02*
X151143719Y-103931537D01*
X151143719Y-103931537D02*
X151143719Y-104026775D01*
X151143719Y-102645823D02*
X151143719Y-103217251D01*
X151143719Y-102931537D02*
X150143719Y-102931537D01*
X150143719Y-102931537D02*
X150286576Y-103026775D01*
X150286576Y-103026775D02*
X150381814Y-103122013D01*
X150381814Y-103122013D02*
X150429433Y-103217251D01*
X151143719Y-101693442D02*
X151143719Y-102264870D01*
X151143719Y-101979156D02*
X150143719Y-101979156D01*
X150143719Y-101979156D02*
X150286576Y-102074394D01*
X150286576Y-102074394D02*
X150381814Y-102169632D01*
X150381814Y-102169632D02*
X150429433Y-102264870D01*
X150215819Y-108438223D02*
X150930104Y-108438223D01*
X150930104Y-108438223D02*
X151072961Y-108485842D01*
X151072961Y-108485842D02*
X151168200Y-108581080D01*
X151168200Y-108581080D02*
X151215819Y-108723937D01*
X151215819Y-108723937D02*
X151215819Y-108819175D01*
X151215819Y-107438223D02*
X151215819Y-108009651D01*
X151215819Y-107723937D02*
X150215819Y-107723937D01*
X150215819Y-107723937D02*
X150358676Y-107819175D01*
X150358676Y-107819175D02*
X150453914Y-107914413D01*
X150453914Y-107914413D02*
X150501533Y-108009651D01*
X150215819Y-107104889D02*
X150215819Y-106485842D01*
X150215819Y-106485842D02*
X150596771Y-106819175D01*
X150596771Y-106819175D02*
X150596771Y-106676318D01*
X150596771Y-106676318D02*
X150644390Y-106581080D01*
X150644390Y-106581080D02*
X150692009Y-106533461D01*
X150692009Y-106533461D02*
X150787247Y-106485842D01*
X150787247Y-106485842D02*
X151025342Y-106485842D01*
X151025342Y-106485842D02*
X151120580Y-106533461D01*
X151120580Y-106533461D02*
X151168200Y-106581080D01*
X151168200Y-106581080D02*
X151215819Y-106676318D01*
X151215819Y-106676318D02*
X151215819Y-106962032D01*
X151215819Y-106962032D02*
X151168200Y-107057270D01*
X151168200Y-107057270D02*
X151120580Y-107104889D01*
D10*
%TO.C,U5*%
X138039500Y-75083000D02*
X122039500Y-75083000D01*
X122039500Y-75083000D02*
X122039500Y-68353000D01*
X122039500Y-68353000D02*
X138039500Y-68353000D01*
X138039500Y-68353000D02*
X138039500Y-75083000D01*
D13*
%TO.C,Reset1*%
X134235300Y-114502500D02*
X130035300Y-114502500D01*
X134235300Y-108502500D02*
X130035300Y-108502500D01*
X129135300Y-110302500D02*
X129135300Y-112702500D01*
X135135300Y-110302500D02*
X135135300Y-112702500D01*
X136835300Y-113752500D02*
X136835300Y-113752500D01*
X136735300Y-113752500D02*
X136735300Y-113752500D01*
X136835300Y-113752500D02*
X136735300Y-113752500D01*
X136735300Y-113752500D02*
G75*
G02*
X136835300Y-113752500I50000J0D01*
G01*
X136835300Y-113752500D02*
G75*
G02*
X136735300Y-113752500I-50000J0D01*
G01*
%TO.C,Q1*%
X138081000Y-76613600D02*
X133391000Y-76613600D01*
X133391000Y-76613600D02*
X133391000Y-87153600D01*
X133391000Y-87153600D02*
X136586000Y-87153600D01*
D14*
%TO.C,J2*%
X151530600Y-80343000D02*
X152530600Y-80343000D01*
X151530600Y-81733000D02*
X151530600Y-80343000D01*
X151530600Y-81733000D02*
X151530600Y-81733000D01*
X151530600Y-81733000D02*
X151530600Y-82728000D01*
X152650600Y-81733000D02*
X153650600Y-81733000D01*
X153650600Y-80343000D02*
X153650600Y-80343000D01*
X153650600Y-81733000D02*
X153650600Y-80343000D01*
%TO.C,C3*%
X144129800Y-118876948D02*
X144129800Y-120299452D01*
X145949800Y-118876948D02*
X145949800Y-120299452D01*
%TO.C,J10*%
X151571100Y-95919000D02*
X152571100Y-95919000D01*
X151571100Y-97309000D02*
X151571100Y-95919000D01*
X151571100Y-97309000D02*
X151571100Y-97309000D01*
X151571100Y-97309000D02*
X151571100Y-98304000D01*
X152691100Y-97309000D02*
X153691100Y-97309000D01*
X153691100Y-95919000D02*
X153691100Y-95919000D01*
X153691100Y-97309000D02*
X153691100Y-95919000D01*
%TO.C,R1*%
X129033136Y-79075300D02*
X130487264Y-79075300D01*
X129033136Y-80895300D02*
X130487264Y-80895300D01*
%TO.C,C8*%
X161819800Y-86045952D02*
X161819800Y-84623448D01*
X163639800Y-86045952D02*
X163639800Y-84623448D01*
%TO.C,R10*%
X161996800Y-102699436D02*
X161996800Y-104153564D01*
X163816800Y-102699436D02*
X163816800Y-104153564D01*
%TO.C,R7*%
X140486100Y-58260700D02*
X140556100Y-58260700D01*
X140486100Y-58260700D02*
G75*
G02*
X137746100Y-58260700I-1370000J0D01*
G01*
X137746100Y-58260700D02*
G75*
G02*
X140486100Y-58260700I1370000J0D01*
G01*
%TO.C,J1*%
X153988000Y-62692800D02*
X160308000Y-62692800D01*
X153988000Y-73432800D02*
X153988000Y-62692800D01*
X153988000Y-73432800D02*
X160308000Y-73432800D01*
X154448000Y-73432800D02*
X154448000Y-62692800D01*
X159748000Y-73432800D02*
X159748000Y-62692800D01*
X159808000Y-73672800D02*
X160548000Y-73672800D01*
X160308000Y-73432800D02*
X160308000Y-62692800D01*
X160548000Y-73672800D02*
X160548000Y-73172800D01*
%TO.C,NTC1*%
X135965600Y-96179500D02*
X135965600Y-96249500D01*
X137335600Y-94809500D02*
G75*
G02*
X134595600Y-94809500I-1370000J0D01*
G01*
X134595600Y-94809500D02*
G75*
G02*
X137335600Y-94809500I1370000J0D01*
G01*
%TO.C,J3*%
X132737300Y-122764700D02*
X132737300Y-125424700D01*
X145497300Y-122764700D02*
X132737300Y-122764700D01*
X145497300Y-122764700D02*
X145497300Y-125424700D01*
X145497300Y-125424700D02*
X132737300Y-125424700D01*
X146767300Y-122764700D02*
X148097300Y-122764700D01*
X148097300Y-122764700D02*
X148097300Y-124094700D01*
%TO.C,J15*%
X164688300Y-86833700D02*
X171008300Y-86833700D01*
X164688300Y-97573700D02*
X164688300Y-86833700D01*
X164688300Y-97573700D02*
X171008300Y-97573700D01*
X165148300Y-97573700D02*
X165148300Y-86833700D01*
X170448300Y-97573700D02*
X170448300Y-86833700D01*
X170508300Y-97813700D02*
X171248300Y-97813700D01*
X171008300Y-97573700D02*
X171008300Y-86833700D01*
X171248300Y-97813700D02*
X171248300Y-97313700D01*
%TO.C,R9*%
X161904500Y-89773636D02*
X161904500Y-91227764D01*
X163724500Y-89773636D02*
X163724500Y-91227764D01*
%TO.C,J7*%
X151536800Y-85100200D02*
X152536800Y-85100200D01*
X151536800Y-86490200D02*
X151536800Y-85100200D01*
X151536800Y-86490200D02*
X151536800Y-86490200D01*
X151536800Y-86490200D02*
X151536800Y-87485200D01*
X152656800Y-86490200D02*
X153656800Y-86490200D01*
X153656800Y-85100200D02*
X153656800Y-85100200D01*
X153656800Y-86490200D02*
X153656800Y-85100200D01*
%TO.C,J8*%
X151571100Y-91280000D02*
X152571100Y-91280000D01*
X151571100Y-92670000D02*
X151571100Y-91280000D01*
X151571100Y-92670000D02*
X151571100Y-92670000D01*
X151571100Y-92670000D02*
X151571100Y-93665000D01*
X152691100Y-92670000D02*
X153691100Y-92670000D01*
X153691100Y-91280000D02*
X153691100Y-91280000D01*
X153691100Y-92670000D02*
X153691100Y-91280000D01*
%TO.C,C15*%
X161959100Y-108041148D02*
X161959100Y-109463652D01*
X163779100Y-108041148D02*
X163779100Y-109463652D01*
%TO.C,R6*%
X158592900Y-75582300D02*
X158522900Y-75582300D01*
X161332900Y-75582300D02*
G75*
G02*
X158592900Y-75582300I-1370000J0D01*
G01*
X158592900Y-75582300D02*
G75*
G02*
X161332900Y-75582300I1370000J0D01*
G01*
%TO.C,J14*%
X164732100Y-74806200D02*
X171052100Y-74806200D01*
X164732100Y-85546200D02*
X164732100Y-74806200D01*
X164732100Y-85546200D02*
X171052100Y-85546200D01*
X165192100Y-85546200D02*
X165192100Y-74806200D01*
X170492100Y-85546200D02*
X170492100Y-74806200D01*
X170552100Y-85786200D02*
X171292100Y-85786200D01*
X171052100Y-85546200D02*
X171052100Y-74806200D01*
X171292100Y-85786200D02*
X171292100Y-85286200D01*
%TO.C,J16*%
X164749100Y-99210600D02*
X171069100Y-99210600D01*
X164749100Y-109950600D02*
X164749100Y-99210600D01*
X164749100Y-109950600D02*
X171069100Y-109950600D01*
X165209100Y-109950600D02*
X165209100Y-99210600D01*
X170509100Y-109950600D02*
X170509100Y-99210600D01*
X170569100Y-110190600D02*
X171309100Y-110190600D01*
X171069100Y-109950600D02*
X171069100Y-99210600D01*
X171309100Y-110190600D02*
X171309100Y-109690600D01*
%TO.C,Powerboard1*%
X129646300Y-91332600D02*
X129646300Y-86192600D01*
X132306300Y-86192600D02*
X129646300Y-86192600D01*
X132306300Y-91332600D02*
X129646300Y-91332600D01*
X132306300Y-91332600D02*
X132306300Y-86192600D01*
X132306300Y-92602600D02*
X132306300Y-93932600D01*
X132306300Y-93932600D02*
X130976300Y-93932600D01*
%TO.C,J4*%
X142175100Y-70207000D02*
X142175100Y-75407000D01*
X142745100Y-70207000D02*
X142175100Y-70207000D01*
X142745100Y-75407000D02*
X142175100Y-75407000D01*
X145285100Y-70207000D02*
X144265100Y-70207000D01*
X145285100Y-75407000D02*
X144265100Y-75407000D01*
X147825100Y-70207000D02*
X146805100Y-70207000D01*
X147825100Y-75407000D02*
X146805100Y-75407000D01*
X149345100Y-68767000D02*
X149345100Y-70207000D01*
X149915100Y-70207000D02*
X149345100Y-70207000D01*
X149915100Y-70207000D02*
X149915100Y-75407000D01*
X149915100Y-75407000D02*
X149345100Y-75407000D01*
%TO.C,J9*%
X157472200Y-91096800D02*
X156477200Y-91096800D01*
X157472200Y-91096800D02*
X157472200Y-91096800D01*
X157472200Y-91096800D02*
X158862200Y-91096800D01*
X157472200Y-92216800D02*
X157472200Y-93096800D01*
X157472200Y-94216800D02*
X158862200Y-94216800D01*
X158862200Y-91096800D02*
X158862200Y-92096800D01*
X158862200Y-93216800D02*
X158862200Y-94216800D01*
X158862200Y-94216800D02*
X158862200Y-94216800D01*
%TO.C,U2*%
X142089500Y-80431800D02*
X142089500Y-116111800D01*
X142089500Y-116111800D02*
X147389500Y-116111800D01*
X143739500Y-80431800D02*
X142089500Y-80431800D01*
X147389500Y-80431800D02*
X145739500Y-80431800D01*
X147389500Y-116111800D02*
X147389500Y-80431800D01*
X145739500Y-80431800D02*
G75*
G02*
X143739500Y-80431800I-1000000J0D01*
G01*
%TO.C,J5*%
X137719600Y-63068500D02*
X137719600Y-61738500D01*
X139049600Y-63068500D02*
X137719600Y-63068500D01*
X140319600Y-60408500D02*
X142919600Y-60408500D01*
X140319600Y-63068500D02*
X140319600Y-60408500D01*
X140319600Y-63068500D02*
X142919600Y-63068500D01*
X142919600Y-63068500D02*
X142919600Y-60408500D01*
%TO.C,R8*%
X161906200Y-78733664D02*
X161906200Y-77279536D01*
X163726200Y-78733664D02*
X163726200Y-77279536D01*
%TO.C,Y2*%
X155797900Y-112866200D02*
X162047900Y-112866200D01*
X155797900Y-117916200D02*
X162047900Y-117916200D01*
X155797900Y-117916200D02*
G75*
G02*
X155797900Y-112866200I0J2525000D01*
G01*
X162047900Y-112866200D02*
G75*
G02*
X162047900Y-117916200I0J-2525000D01*
G01*
%TO.C,J6*%
X156515400Y-79228200D02*
X155520400Y-79228200D01*
X156515400Y-79228200D02*
X156515400Y-79228200D01*
X156515400Y-79228200D02*
X157905400Y-79228200D01*
X156515400Y-80348200D02*
X156515400Y-81228200D01*
X156515400Y-82348200D02*
X157905400Y-82348200D01*
X157905400Y-79228200D02*
X157905400Y-80228200D01*
X157905400Y-81348200D02*
X157905400Y-82348200D01*
X157905400Y-82348200D02*
X157905400Y-82348200D01*
%TO.C,C5*%
X150902252Y-118624200D02*
X149479748Y-118624200D01*
X150902252Y-120444200D02*
X149479748Y-120444200D01*
%TO.C,C11*%
X161979700Y-96917348D02*
X161979700Y-98339852D01*
X163799700Y-96917348D02*
X163799700Y-98339852D01*
%TO.C,Y1*%
X134556300Y-116820300D02*
X140806300Y-116820300D01*
X134556300Y-121870300D02*
X140806300Y-121870300D01*
X134556300Y-121870300D02*
G75*
G02*
X134556300Y-116820300I0J2525000D01*
G01*
X140806300Y-116820300D02*
G75*
G02*
X140806300Y-121870300I0J-2525000D01*
G01*
%TO.C,J12*%
X156558600Y-102468000D02*
X155563600Y-102468000D01*
X156558600Y-102468000D02*
X156558600Y-102468000D01*
X156558600Y-102468000D02*
X157948600Y-102468000D01*
X156558600Y-103588000D02*
X156558600Y-104468000D01*
X156558600Y-105588000D02*
X157948600Y-105588000D01*
X157948600Y-102468000D02*
X157948600Y-103468000D01*
X157948600Y-104588000D02*
X157948600Y-105588000D01*
X157948600Y-105588000D02*
X157948600Y-105588000D01*
%TO.C,J11*%
X151688900Y-102141300D02*
X152688900Y-102141300D01*
X151688900Y-103531300D02*
X151688900Y-102141300D01*
X151688900Y-103531300D02*
X151688900Y-103531300D01*
X151688900Y-103531300D02*
X151688900Y-104526300D01*
X152808900Y-103531300D02*
X153808900Y-103531300D01*
X153808900Y-102141300D02*
X153808900Y-102141300D01*
X153808900Y-103531300D02*
X153808900Y-102141300D01*
%TO.C,J13*%
X151761000Y-106933700D02*
X152761000Y-106933700D01*
X151761000Y-108323700D02*
X151761000Y-106933700D01*
X151761000Y-108323700D02*
X151761000Y-108323700D01*
X151761000Y-108323700D02*
X151761000Y-109318700D01*
X152881000Y-108323700D02*
X153881000Y-108323700D01*
X153881000Y-106933700D02*
X153881000Y-106933700D01*
X153881000Y-108323700D02*
X153881000Y-106933700D01*
%TD*%
%LPC*%
D15*
%TO.C,U5*%
X134999500Y-70018000D03*
X134999500Y-73418000D03*
X125079500Y-70018000D03*
X125079500Y-73418000D03*
%TD*%
D16*
%TO.C,Reset1*%
X135385300Y-113752500D03*
D17*
X128885300Y-113752500D03*
X135385300Y-109252500D03*
X128885300Y-109252500D03*
%TD*%
D18*
%TO.C,Q1*%
X136586000Y-84423600D03*
D19*
X136586000Y-81883600D03*
X136586000Y-79343600D03*
%TD*%
D20*
%TO.C,J2*%
X152090600Y-81913000D03*
X153090600Y-80163000D03*
%TD*%
D21*
%TO.C,C3*%
X145039800Y-118025700D03*
X145039800Y-121150700D03*
%TD*%
D20*
%TO.C,J10*%
X152131100Y-97489000D03*
X153131100Y-95739000D03*
%TD*%
D22*
%TO.C,R1*%
X128210200Y-79985300D03*
X131310200Y-79985300D03*
%TD*%
D23*
%TO.C,C8*%
X162729800Y-86897200D03*
X162729800Y-83772200D03*
%TD*%
D24*
%TO.C,R10*%
X162906800Y-101876500D03*
X162906800Y-104976500D03*
%TD*%
D25*
%TO.C,R7*%
X139116100Y-58260700D03*
D26*
X141656100Y-58260700D03*
%TD*%
D27*
%TO.C,J1*%
X157148000Y-71872800D03*
D28*
X157148000Y-69332800D03*
X157148000Y-66792800D03*
X157148000Y-64252800D03*
%TD*%
D25*
%TO.C,NTC1*%
X135965600Y-94809500D03*
D26*
X135965600Y-97349500D03*
%TD*%
D29*
%TO.C,J3*%
X146767300Y-124094700D03*
D30*
X144227300Y-124094700D03*
X141687300Y-124094700D03*
X139147300Y-124094700D03*
X136607300Y-124094700D03*
X134067300Y-124094700D03*
%TD*%
D27*
%TO.C,J15*%
X167848300Y-96013700D03*
D28*
X167848300Y-93473700D03*
X167848300Y-90933700D03*
X167848300Y-88393700D03*
%TD*%
D24*
%TO.C,R9*%
X162814500Y-88950700D03*
X162814500Y-92050700D03*
%TD*%
D20*
%TO.C,J7*%
X152096800Y-86670200D03*
X153096800Y-84920200D03*
%TD*%
%TO.C,J8*%
X152131100Y-92850000D03*
X153131100Y-91100000D03*
%TD*%
D21*
%TO.C,C15*%
X162869100Y-107189900D03*
X162869100Y-110314900D03*
%TD*%
D25*
%TO.C,R6*%
X159962900Y-75582300D03*
D26*
X157422900Y-75582300D03*
%TD*%
D27*
%TO.C,J14*%
X167892100Y-83986200D03*
D28*
X167892100Y-81446200D03*
X167892100Y-78906200D03*
X167892100Y-76366200D03*
%TD*%
D27*
%TO.C,J16*%
X167909100Y-108390600D03*
D28*
X167909100Y-105850600D03*
X167909100Y-103310600D03*
X167909100Y-100770600D03*
%TD*%
D29*
%TO.C,Powerboard1*%
X130976300Y-92602600D03*
D30*
X130976300Y-90062600D03*
X130976300Y-87522600D03*
%TD*%
D31*
%TO.C,J4*%
X148585100Y-70282000D03*
X148585100Y-75332000D03*
X146045100Y-70282000D03*
X146045100Y-75332000D03*
X143505100Y-70282000D03*
X143505100Y-75332000D03*
%TD*%
D32*
%TO.C,J9*%
X157292200Y-91656800D03*
X159042200Y-92656800D03*
X157292200Y-93656800D03*
%TD*%
D33*
%TO.C,U2*%
X140929500Y-81761800D03*
D26*
X140929500Y-84301800D03*
X140929500Y-86841800D03*
X140929500Y-89381800D03*
X140929500Y-91921800D03*
X140929500Y-94461800D03*
X140929500Y-97001800D03*
X140929500Y-99541800D03*
X140929500Y-102081800D03*
X140929500Y-104621800D03*
X140929500Y-107161800D03*
X140929500Y-109701800D03*
X140929500Y-112241800D03*
X140929500Y-114781800D03*
X148549500Y-114781800D03*
X148549500Y-112241800D03*
X148549500Y-109701800D03*
X148549500Y-107161800D03*
X148549500Y-104621800D03*
X148549500Y-102081800D03*
X148549500Y-99541800D03*
X148549500Y-97001800D03*
X148549500Y-94461800D03*
X148549500Y-91921800D03*
X148549500Y-89381800D03*
X148549500Y-86841800D03*
X148549500Y-84301800D03*
X148549500Y-81761800D03*
%TD*%
D29*
%TO.C,J5*%
X139049600Y-61738500D03*
D30*
X141589600Y-61738500D03*
%TD*%
D34*
%TO.C,R8*%
X162816200Y-79556600D03*
X162816200Y-76456600D03*
%TD*%
D17*
%TO.C,Y2*%
X156482900Y-115391200D03*
X161362900Y-115391200D03*
%TD*%
D32*
%TO.C,J6*%
X156335400Y-79788200D03*
X158085400Y-80788200D03*
X156335400Y-81788200D03*
%TD*%
D35*
%TO.C,C5*%
X151753500Y-119534200D03*
X148628500Y-119534200D03*
%TD*%
D21*
%TO.C,C11*%
X162889700Y-96066100D03*
X162889700Y-99191100D03*
%TD*%
D17*
%TO.C,Y1*%
X135241300Y-119345300D03*
X140121300Y-119345300D03*
%TD*%
D32*
%TO.C,J12*%
X156378600Y-103028000D03*
X158128600Y-104028000D03*
X156378600Y-105028000D03*
%TD*%
D20*
%TO.C,J11*%
X152248900Y-103711300D03*
X153248900Y-101961300D03*
%TD*%
%TO.C,J13*%
X152321000Y-108503700D03*
X153321000Y-106753700D03*
%TD*%
%LPD*%
M02*
