%TF.GenerationSoftware,KiCad,Pcbnew,8.0.1-rc1*%
%TF.CreationDate,2024-11-21T18:28:05-08:00*%
%TF.ProjectId,AMS - CANBus Sensor - Temperature - RTD,414d5320-2d20-4434-914e-427573205365,rev?*%
%TF.SameCoordinates,Original*%
%TF.FileFunction,Copper,L2,Bot*%
%TF.FilePolarity,Positive*%
%FSLAX46Y46*%
G04 Gerber Fmt 4.6, Leading zero omitted, Abs format (unit mm)*
G04 Created by KiCad (PCBNEW 8.0.1-rc1) date 2024-11-21 18:28:05*
%MOMM*%
%LPD*%
G01*
G04 APERTURE LIST*
G04 Aperture macros list*
%AMRoundRect*
0 Rectangle with rounded corners*
0 $1 Rounding radius*
0 $2 $3 $4 $5 $6 $7 $8 $9 X,Y pos of 4 corners*
0 Add a 4 corners polygon primitive as box body*
4,1,4,$2,$3,$4,$5,$6,$7,$8,$9,$2,$3,0*
0 Add four circle primitives for the rounded corners*
1,1,$1+$1,$2,$3*
1,1,$1+$1,$4,$5*
1,1,$1+$1,$6,$7*
1,1,$1+$1,$8,$9*
0 Add four rect primitives between the rounded corners*
20,1,$1+$1,$2,$3,$4,$5,0*
20,1,$1+$1,$4,$5,$6,$7,0*
20,1,$1+$1,$6,$7,$8,$9,0*
20,1,$1+$1,$8,$9,$2,$3,0*%
G04 Aperture macros list end*
%TA.AperFunction,SMDPad,CuDef*%
%ADD10RoundRect,0.250000X-0.412500X-0.650000X0.412500X-0.650000X0.412500X0.650000X-0.412500X0.650000X0*%
%TD*%
%TA.AperFunction,ComponentPad*%
%ADD11C,2.400000*%
%TD*%
%TA.AperFunction,ComponentPad*%
%ADD12R,1.500000X1.500000*%
%TD*%
%TA.AperFunction,ComponentPad*%
%ADD13C,1.500000*%
%TD*%
%TA.AperFunction,ComponentPad*%
%ADD14R,1.920000X1.920000*%
%TD*%
%TA.AperFunction,ComponentPad*%
%ADD15C,1.920000*%
%TD*%
%TA.AperFunction,SMDPad,CuDef*%
%ADD16R,1.850000X0.900000*%
%TD*%
%TA.AperFunction,SMDPad,CuDef*%
%ADD17R,1.850000X3.200000*%
%TD*%
%TA.AperFunction,SMDPad,CuDef*%
%ADD18R,1.525000X0.650000*%
%TD*%
%TA.AperFunction,SMDPad,CuDef*%
%ADD19R,1.000000X0.550000*%
%TD*%
%TA.AperFunction,ComponentPad*%
%ADD20C,1.600000*%
%TD*%
%TA.AperFunction,ComponentPad*%
%ADD21O,1.600000X1.600000*%
%TD*%
%TA.AperFunction,ComponentPad*%
%ADD22R,2.200000X2.200000*%
%TD*%
%TA.AperFunction,ComponentPad*%
%ADD23C,2.200000*%
%TD*%
%TA.AperFunction,ComponentPad*%
%ADD24R,1.700000X1.700000*%
%TD*%
%TA.AperFunction,ComponentPad*%
%ADD25O,1.700000X1.700000*%
%TD*%
%TA.AperFunction,ComponentPad*%
%ADD26R,1.600000X1.600000*%
%TD*%
%TA.AperFunction,SMDPad,CuDef*%
%ADD27RoundRect,0.250000X0.650000X-0.412500X0.650000X0.412500X-0.650000X0.412500X-0.650000X-0.412500X0*%
%TD*%
%TA.AperFunction,SMDPad,CuDef*%
%ADD28RoundRect,0.250000X-0.650000X0.412500X-0.650000X-0.412500X0.650000X-0.412500X0.650000X0.412500X0*%
%TD*%
%TA.AperFunction,SMDPad,CuDef*%
%ADD29RoundRect,0.150000X0.825000X0.150000X-0.825000X0.150000X-0.825000X-0.150000X0.825000X-0.150000X0*%
%TD*%
%TA.AperFunction,SMDPad,CuDef*%
%ADD30R,1.705000X0.450000*%
%TD*%
%TA.AperFunction,SMDPad,CuDef*%
%ADD31RoundRect,0.250000X-0.625000X0.400000X-0.625000X-0.400000X0.625000X-0.400000X0.625000X0.400000X0*%
%TD*%
%TA.AperFunction,SMDPad,CuDef*%
%ADD32RoundRect,0.250000X0.412500X0.650000X-0.412500X0.650000X-0.412500X-0.650000X0.412500X-0.650000X0*%
%TD*%
%TA.AperFunction,SMDPad,CuDef*%
%ADD33RoundRect,0.150000X0.875000X0.150000X-0.875000X0.150000X-0.875000X-0.150000X0.875000X-0.150000X0*%
%TD*%
%TA.AperFunction,SMDPad,CuDef*%
%ADD34RoundRect,0.250000X0.625000X-0.400000X0.625000X0.400000X-0.625000X0.400000X-0.625000X-0.400000X0*%
%TD*%
%TA.AperFunction,ViaPad*%
%ADD35C,0.600000*%
%TD*%
%TA.AperFunction,Conductor*%
%ADD36C,0.200000*%
%TD*%
%TA.AperFunction,Conductor*%
%ADD37C,0.762000*%
%TD*%
G04 APERTURE END LIST*
D10*
%TO.P,C10,2*%
%TO.N,/MAX31865AAP+1/RTDIn+*%
X176219551Y-77425242D03*
%TO.P,C10,1*%
%TO.N,/MAX31865AAP+1/RTDin-*%
X173094551Y-77425242D03*
%TD*%
D11*
%TO.P,U5,1,1*%
%TO.N,Net-(Q1-Pad3)*%
X134999500Y-70018000D03*
%TO.P,U5,2,2*%
X134999500Y-73418000D03*
%TO.P,U5,3,3*%
%TO.N,+VDC*%
X125079500Y-70018000D03*
%TO.P,U5,4,4*%
X125079500Y-73418000D03*
%TD*%
D12*
%TO.P,Reset1,1,NO_1*%
%TO.N,/BareMinAtmel328P/RESET*%
X135385300Y-113752500D03*
D13*
%TO.P,Reset1,2,NO_2*%
%TO.N,unconnected-(Reset1-NO_2-Pad2)*%
X128885300Y-113752500D03*
%TO.P,Reset1,3,COM_1*%
%TO.N,GND*%
X135385300Y-109252500D03*
%TO.P,Reset1,4,COM_2*%
%TO.N,unconnected-(Reset1-COM_2-Pad4)*%
X128885300Y-109252500D03*
%TD*%
D14*
%TO.P,Q1,1*%
%TO.N,Net-(Q1-Pad1)*%
X136586000Y-84423600D03*
D15*
%TO.P,Q1,2*%
%TO.N,Net-(J1-Pin_1)*%
X136586000Y-81883600D03*
%TO.P,Q1,3*%
%TO.N,Net-(Q1-Pad3)*%
X136586000Y-79343600D03*
%TD*%
D16*
%TO.P,IC5,1,INPUT*%
%TO.N,+5V*%
X125227300Y-82238500D03*
%TO.P,IC5,2,ADJ/GND_1*%
%TO.N,GND*%
X125227300Y-79938500D03*
%TO.P,IC5,3,OUTPUT*%
%TO.N,+3.3V*%
X125227300Y-77638500D03*
D17*
%TO.P,IC5,4,ADJ/GND_2*%
%TO.N,GND*%
X131427300Y-79938500D03*
%TD*%
D18*
%TO.P,IC4,1,VCC*%
%TO.N,+3.3V*%
X126702000Y-105163600D03*
%TO.P,IC4,2,1Y*%
%TO.N,/MAX31865AAP+1/SLC3v*%
X126702000Y-103893600D03*
%TO.P,IC4,3,1A*%
%TO.N,CLK*%
X126702000Y-102623600D03*
%TO.P,IC4,4,2Y*%
%TO.N,MISO*%
X126702000Y-101353600D03*
%TO.P,IC4,5,2A*%
%TO.N,/MAX31865AAP+1/MISO3v*%
X126702000Y-100083600D03*
%TO.P,IC4,6,3Y*%
%TO.N,/MAX31865AAP+1/MOSI3v*%
X126702000Y-98813600D03*
%TO.P,IC4,7,3A*%
%TO.N,MOSI*%
X126702000Y-97543600D03*
%TO.P,IC4,8,GND*%
%TO.N,GND*%
X126702000Y-96273600D03*
%TO.P,IC4,9,4A*%
%TO.N,/BareMinAtmel328P/PD5-D5*%
X132126000Y-96273600D03*
%TO.P,IC4,10,4Y*%
%TO.N,/MAX31865AAP+3/CS3v*%
X132126000Y-97543600D03*
%TO.P,IC4,11,5A*%
%TO.N,/BareMinAtmel328P/PD4-D4*%
X132126000Y-98813600D03*
%TO.P,IC4,12,5Y*%
%TO.N,/MAX31865AAP+2/CS3v*%
X132126000Y-100083600D03*
%TO.P,IC4,13,NC_1*%
%TO.N,unconnected-(IC4-NC_1-Pad13)*%
X132126000Y-101353600D03*
%TO.P,IC4,14,6A*%
%TO.N,/BareMinAtmel328P/PD3-D3*%
X132126000Y-102623600D03*
%TO.P,IC4,15,6Y*%
%TO.N,/MAX31865AAP+1/CS3v*%
X132126000Y-103893600D03*
%TO.P,IC4,16,NC_2*%
%TO.N,unconnected-(IC4-NC_2-Pad16)*%
X132126000Y-105163600D03*
%TD*%
D19*
%TO.P,D1,1,CATHODE_1*%
%TO.N,CANBUS_H*%
X155655900Y-74744100D03*
%TO.P,D1,2,CATHODE_2*%
%TO.N,CANBUS_L*%
X155655900Y-76044100D03*
%TO.P,D1,3,COMMON_ANODE*%
%TO.N,GND*%
X153755900Y-75394100D03*
%TD*%
D20*
%TO.P,R7,1*%
%TO.N,Net-(J5-Pin_2)*%
X139116100Y-58260700D03*
D21*
%TO.P,R7,2*%
%TO.N,CANBUS_L*%
X141656100Y-58260700D03*
%TD*%
D22*
%TO.P,J1,1,Pin_1*%
%TO.N,Net-(J1-Pin_1)*%
X157148000Y-71872800D03*
D23*
%TO.P,J1,2,Pin_2*%
%TO.N,GND*%
X157148000Y-69332800D03*
%TO.P,J1,3,Pin_3*%
%TO.N,CANBUS_H*%
X157148000Y-66792800D03*
%TO.P,J1,4,Pin_4*%
%TO.N,CANBUS_L*%
X157148000Y-64252800D03*
%TD*%
D20*
%TO.P,NTC1,1*%
%TO.N,/BareMinAtmel328P/PC0-A0*%
X135965600Y-94809500D03*
D21*
%TO.P,NTC1,2*%
%TO.N,+5V*%
X135965600Y-97349500D03*
%TD*%
D24*
%TO.P,J3,1,Pin_1*%
%TO.N,GND*%
X146767300Y-124094700D03*
D25*
%TO.P,J3,2,Pin_2*%
%TO.N,unconnected-(J3-Pin_2-Pad2)*%
X144227300Y-124094700D03*
%TO.P,J3,3,Pin_3*%
%TO.N,+5V*%
X141687300Y-124094700D03*
%TO.P,J3,4,Pin_4*%
%TO.N,/BareMinAtmel328P/PD0-RX*%
X139147300Y-124094700D03*
%TO.P,J3,5,Pin_5*%
%TO.N,/BareMinAtmel328P/PD1-TX*%
X136607300Y-124094700D03*
%TO.P,J3,6,Pin_6*%
%TO.N,Net-(J3-Pin_6)*%
X134067300Y-124094700D03*
%TD*%
D22*
%TO.P,J15,1,Pin_1*%
%TO.N,/MAX31865AAP+2/RTDIn+*%
X170096300Y-95754700D03*
D23*
%TO.P,J15,2,Pin_2*%
%TO.N,/MAX31865AAP+2/FORCE+*%
X170096300Y-93214700D03*
%TO.P,J15,3,Pin_3*%
%TO.N,/MAX31865AAP+2/FORCE-*%
X170096300Y-90674700D03*
%TO.P,J15,4,Pin_4*%
%TO.N,/MAX31865AAP+2/RTDin-*%
X170096300Y-88134700D03*
%TD*%
D20*
%TO.P,R6,1*%
%TO.N,Net-(U4-Rs)*%
X159962900Y-75582300D03*
D21*
%TO.P,R6,2*%
%TO.N,GND*%
X157422900Y-75582300D03*
%TD*%
D22*
%TO.P,J14,1,Pin_1*%
%TO.N,/MAX31865AAP+1/RTDIn+*%
X170140100Y-83727200D03*
D23*
%TO.P,J14,2,Pin_2*%
%TO.N,/MAX31865AAP+1/FORCE+*%
X170140100Y-81187200D03*
%TO.P,J14,3,Pin_3*%
%TO.N,/MAX31865AAP+1/FORCE-*%
X170140100Y-78647200D03*
%TO.P,J14,4,Pin_4*%
%TO.N,/MAX31865AAP+1/RTDin-*%
X170140100Y-76107200D03*
%TD*%
D22*
%TO.P,J16,1,Pin_1*%
%TO.N,/MAX31865AAP+3/RTDIn+*%
X170157100Y-108131600D03*
D23*
%TO.P,J16,2,Pin_2*%
%TO.N,/MAX31865AAP+3/FORCE+*%
X170157100Y-105591600D03*
%TO.P,J16,3,Pin_3*%
%TO.N,/MAX31865AAP+3/FORCE-*%
X170157100Y-103051600D03*
%TO.P,J16,4,Pin_4*%
%TO.N,/MAX31865AAP+3/RTDin-*%
X170157100Y-100511600D03*
%TD*%
D24*
%TO.P,Powerboard1,1,Pin_1*%
%TO.N,+VDC*%
X130976300Y-92602600D03*
D25*
%TO.P,Powerboard1,2,Pin_2*%
%TO.N,+5V*%
X130976300Y-90062600D03*
%TO.P,Powerboard1,3,Pin_3*%
%TO.N,GND*%
X130976300Y-87522600D03*
%TD*%
D26*
%TO.P,U2,1,~{RESET}/PC6*%
%TO.N,/BareMinAtmel328P/RESET*%
X140929500Y-81761800D03*
D21*
%TO.P,U2,2,PD0*%
%TO.N,/BareMinAtmel328P/PD0-RX*%
X140929500Y-84301800D03*
%TO.P,U2,3,PD1*%
%TO.N,/BareMinAtmel328P/PD1-TX*%
X140929500Y-86841800D03*
%TO.P,U2,4,PD2*%
%TO.N,/BareMinAtmel328P/PD2-D2*%
X140929500Y-89381800D03*
%TO.P,U2,5,PD3*%
%TO.N,/BareMinAtmel328P/PD3-D3*%
X140929500Y-91921800D03*
%TO.P,U2,6,PD4*%
%TO.N,/BareMinAtmel328P/PD4-D4*%
X140929500Y-94461800D03*
%TO.P,U2,7,VCC*%
%TO.N,+5V*%
X140929500Y-97001800D03*
%TO.P,U2,8,GND*%
%TO.N,GND*%
X140929500Y-99541800D03*
%TO.P,U2,9,XTAL1/PB6*%
%TO.N,Net-(U2-XTAL1{slash}PB6)*%
X140929500Y-102081800D03*
%TO.P,U2,10,XTAL2/PB7*%
%TO.N,Net-(U2-XTAL2{slash}PB7)*%
X140929500Y-104621800D03*
%TO.P,U2,11,PD5*%
%TO.N,/BareMinAtmel328P/PD5-D5*%
X140929500Y-107161800D03*
%TO.P,U2,12,PD6*%
%TO.N,/BareMinAtmel328P/PD6-D6*%
X140929500Y-109701800D03*
%TO.P,U2,13,PD7*%
%TO.N,/BareMinAtmel328P/PD7-D7*%
X140929500Y-112241800D03*
%TO.P,U2,14,PB0*%
%TO.N,/BareMinAtmel328P/PB0-D8*%
X140929500Y-114781800D03*
%TO.P,U2,15,PB1*%
%TO.N,/BareMinAtmel328P/PB1-D9*%
X148549500Y-114781800D03*
%TO.P,U2,16,PB2*%
%TO.N,/BareMinAtmel328P/PB2-D10-SS*%
X148549500Y-112241800D03*
%TO.P,U2,17,PB3*%
%TO.N,MOSI*%
X148549500Y-109701800D03*
%TO.P,U2,18,PB4*%
%TO.N,MISO*%
X148549500Y-107161800D03*
%TO.P,U2,19,PB5*%
%TO.N,CLK*%
X148549500Y-104621800D03*
%TO.P,U2,20,AVCC*%
%TO.N,+5V*%
X148549500Y-102081800D03*
%TO.P,U2,21,AREF*%
%TO.N,/BareMinAtmel328P/AREF*%
X148549500Y-99541800D03*
%TO.P,U2,22,GND*%
%TO.N,GND*%
X148549500Y-97001800D03*
%TO.P,U2,23,PC0*%
%TO.N,/BareMinAtmel328P/PC0-A0*%
X148549500Y-94461800D03*
%TO.P,U2,24,PC1*%
%TO.N,/BareMinAtmel328P/PC1-A1*%
X148549500Y-91921800D03*
%TO.P,U2,25,PC2*%
%TO.N,/BareMinAtmel328P/PC2-A2*%
X148549500Y-89381800D03*
%TO.P,U2,26,PC3*%
%TO.N,/BareMinAtmel328P/PC3-A3*%
X148549500Y-86841800D03*
%TO.P,U2,27,PC4*%
%TO.N,/BareMinAtmel328P/PC4-A4-SDA*%
X148549500Y-84301800D03*
%TO.P,U2,28,PC5*%
%TO.N,/BareMinAtmel328P/PC5-A5-SCL*%
X148549500Y-81761800D03*
%TD*%
D24*
%TO.P,J5,1,Pin_1*%
%TO.N,CANBUS_H*%
X139049600Y-61738500D03*
D25*
%TO.P,J5,2,Pin_2*%
%TO.N,Net-(J5-Pin_2)*%
X141589600Y-61738500D03*
%TD*%
D13*
%TO.P,Y2,2,2*%
%TO.N,Net-(U3-OSC2)*%
X155712100Y-119374400D03*
%TO.P,Y2,1,1*%
%TO.N,Net-(U3-OSC1)*%
X150832100Y-119374400D03*
%TD*%
%TO.P,Y1,1,1*%
%TO.N,Net-(U2-XTAL2{slash}PB7)*%
X135241300Y-119345300D03*
%TO.P,Y1,2,2*%
%TO.N,Net-(U2-XTAL1{slash}PB6)*%
X140121300Y-119345300D03*
%TD*%
D27*
%TO.P,C17,1*%
%TO.N,GND*%
X122452500Y-80108100D03*
%TO.P,C17,2*%
%TO.N,+3.3V*%
X122452500Y-76983100D03*
%TD*%
D28*
%TO.P,C2,1*%
%TO.N,Net-(U2-XTAL1{slash}PB6)*%
X145046300Y-118038200D03*
%TO.P,C2,2*%
%TO.N,GND*%
X145046300Y-121163200D03*
%TD*%
D29*
%TO.P,U4,1,TXD*%
%TO.N,/CANBUS-MCP2515/TXtoCANTC*%
X168429800Y-67769000D03*
%TO.P,U4,2,VSS*%
%TO.N,GND*%
X168429800Y-69039000D03*
%TO.P,U4,3,VDD*%
%TO.N,+5V*%
X168429800Y-70309000D03*
%TO.P,U4,4,RXD*%
%TO.N,/CANBUS-MCP2515/RXtoCANTC*%
X168429800Y-71579000D03*
%TO.P,U4,5,Vref*%
%TO.N,unconnected-(U4-Vref-Pad5)*%
X163479800Y-71579000D03*
%TO.P,U4,6,CANL*%
%TO.N,CANBUS_L*%
X163479800Y-70309000D03*
%TO.P,U4,7,CANH*%
%TO.N,CANBUS_H*%
X163479800Y-69039000D03*
%TO.P,U4,8,Rs*%
%TO.N,Net-(U4-Rs)*%
X163479800Y-67769000D03*
%TD*%
D30*
%TO.P,IC2,1,~{DRDY}*%
%TO.N,unconnected-(IC2-~{DRDY}-Pad1)*%
X159052800Y-93041700D03*
%TO.P,IC2,2,DVDD*%
%TO.N,+3.3V*%
X159052800Y-93691700D03*
%TO.P,IC2,3,VDD*%
X159052800Y-94341700D03*
%TO.P,IC2,4,BIAS*%
%TO.N,Net-(IC2-BIAS)*%
X159052800Y-94991700D03*
%TO.P,IC2,5,REFIN+*%
X159052800Y-95641700D03*
%TO.P,IC2,6,REFIN-*%
%TO.N,Net-(IC2-ISENSOR)*%
X159052800Y-96291700D03*
%TO.P,IC2,7,ISENSOR*%
X159052800Y-96941700D03*
%TO.P,IC2,8,FORCE+*%
%TO.N,/MAX31865AAP+2/FORCE+*%
X159052800Y-97591700D03*
%TO.P,IC2,9,FORCE2*%
%TO.N,Net-(IC2-FORCE2)*%
X159052800Y-98241700D03*
%TO.P,IC2,10,RTDIN+*%
%TO.N,/MAX31865AAP+2/RTDIn+*%
X159052800Y-98891700D03*
%TO.P,IC2,11,RTDIN-*%
%TO.N,/MAX31865AAP+2/RTDin-*%
X152056800Y-98891700D03*
%TO.P,IC2,12,FORCE-*%
%TO.N,/MAX31865AAP+2/FORCE-*%
X152056800Y-98241700D03*
%TO.P,IC2,13,GND2*%
%TO.N,GND*%
X152056800Y-97591700D03*
%TO.P,IC2,14,SDI*%
%TO.N,/MAX31865AAP+1/MOSI3v*%
X152056800Y-96941700D03*
%TO.P,IC2,15,SCLK*%
%TO.N,/MAX31865AAP+1/SLC3v*%
X152056800Y-96291700D03*
%TO.P,IC2,16,~{CS}*%
%TO.N,/MAX31865AAP+2/CS3v*%
X152056800Y-95641700D03*
%TO.P,IC2,17,SDO*%
%TO.N,/MAX31865AAP+1/MISO3v*%
X152056800Y-94991700D03*
%TO.P,IC2,18,DGND*%
%TO.N,GND*%
X152056800Y-94341700D03*
%TO.P,IC2,19,GND*%
X152056800Y-93691700D03*
%TO.P,IC2,20,N.C.*%
%TO.N,unconnected-(IC2-N.C.-Pad20)*%
X152056800Y-93041700D03*
%TD*%
D31*
%TO.P,R4,1*%
%TO.N,+5V*%
X132096400Y-109912300D03*
%TO.P,R4,2*%
%TO.N,/BareMinAtmel328P/RESET*%
X132096400Y-113012300D03*
%TD*%
D27*
%TO.P,C9,1*%
%TO.N,+3.3V*%
X162729800Y-86897200D03*
%TO.P,C9,2*%
%TO.N,GND*%
X162729800Y-83772200D03*
%TD*%
D32*
%TO.P,C4,1*%
%TO.N,Net-(U3-OSC2)*%
X154543600Y-125526100D03*
%TO.P,C4,2*%
%TO.N,GND*%
X151418600Y-125526100D03*
%TD*%
D33*
%TO.P,U3,1,TXCAN*%
%TO.N,/CANBUS-MCP2515/TXtoCANTC*%
X151455100Y-65127000D03*
%TO.P,U3,2,RXCAN*%
%TO.N,/CANBUS-MCP2515/RXtoCANTC*%
X151455100Y-66397000D03*
%TO.P,U3,3,CLKOUT/SOF*%
%TO.N,unconnected-(U3-CLKOUT{slash}SOF-Pad3)*%
X151455100Y-67667000D03*
%TO.P,U3,4,~{TX0RTS}*%
%TO.N,unconnected-(U3-~{TX0RTS}-Pad4)*%
X151455100Y-68937000D03*
%TO.P,U3,5,~{TX1RTS}*%
%TO.N,unconnected-(U3-~{TX1RTS}-Pad5)*%
X151455100Y-70207000D03*
%TO.P,U3,6,~{TX2RTS}*%
%TO.N,unconnected-(U3-~{TX2RTS}-Pad6)*%
X151455100Y-71477000D03*
%TO.P,U3,7,OSC2*%
%TO.N,Net-(U3-OSC2)*%
X151455100Y-72747000D03*
%TO.P,U3,8,OSC1*%
%TO.N,Net-(U3-OSC1)*%
X151455100Y-74017000D03*
%TO.P,U3,9,VSS*%
%TO.N,GND*%
X151455100Y-75287000D03*
%TO.P,U3,10,~{RX1BF}*%
%TO.N,unconnected-(U3-~{RX1BF}-Pad10)*%
X142155100Y-75287000D03*
%TO.P,U3,11,~{RX0BF}*%
%TO.N,unconnected-(U3-~{RX0BF}-Pad11)*%
X142155100Y-74017000D03*
%TO.P,U3,12,~{INT}*%
%TO.N,/BareMinAtmel328P/PD2-D2*%
X142155100Y-72747000D03*
%TO.P,U3,13,SCK*%
%TO.N,CLK*%
X142155100Y-71477000D03*
%TO.P,U3,14,SI*%
%TO.N,MOSI*%
X142155100Y-70207000D03*
%TO.P,U3,15,SO*%
%TO.N,MISO*%
X142155100Y-68937000D03*
%TO.P,U3,16,~{CS}*%
%TO.N,/BareMinAtmel328P/PB1-D9*%
X142155100Y-67667000D03*
%TO.P,U3,17,~{RESET}*%
%TO.N,Net-(U3-~{RESET})*%
X142155100Y-66397000D03*
%TO.P,U3,18,VDD*%
%TO.N,+5V*%
X142155100Y-65127000D03*
%TD*%
D34*
%TO.P,R5,1*%
%TO.N,Net-(U3-~{RESET})*%
X144703000Y-87196800D03*
%TO.P,R5,2*%
%TO.N,+5V*%
X144703000Y-84096800D03*
%TD*%
D31*
%TO.P,R3,1*%
%TO.N,GND*%
X135973000Y-89148700D03*
%TO.P,R3,2*%
%TO.N,/BareMinAtmel328P/PC0-A0*%
X135973000Y-92248700D03*
%TD*%
D30*
%TO.P,IC3,1,~{DRDY}*%
%TO.N,unconnected-(IC3-~{DRDY}-Pad1)*%
X158862000Y-105750800D03*
%TO.P,IC3,2,DVDD*%
%TO.N,+3.3V*%
X158862000Y-106400800D03*
%TO.P,IC3,3,VDD*%
X158862000Y-107050800D03*
%TO.P,IC3,4,BIAS*%
%TO.N,Net-(IC3-BIAS)*%
X158862000Y-107700800D03*
%TO.P,IC3,5,REFIN+*%
X158862000Y-108350800D03*
%TO.P,IC3,6,REFIN-*%
%TO.N,Net-(IC3-ISENSOR)*%
X158862000Y-109000800D03*
%TO.P,IC3,7,ISENSOR*%
X158862000Y-109650800D03*
%TO.P,IC3,8,FORCE+*%
%TO.N,/MAX31865AAP+3/FORCE+*%
X158862000Y-110300800D03*
%TO.P,IC3,9,FORCE2*%
%TO.N,Net-(IC3-FORCE2)*%
X158862000Y-110950800D03*
%TO.P,IC3,10,RTDIN+*%
%TO.N,/MAX31865AAP+3/RTDIn+*%
X158862000Y-111600800D03*
%TO.P,IC3,11,RTDIN-*%
%TO.N,/MAX31865AAP+3/RTDin-*%
X151866000Y-111600800D03*
%TO.P,IC3,12,FORCE-*%
%TO.N,/MAX31865AAP+3/FORCE-*%
X151866000Y-110950800D03*
%TO.P,IC3,13,GND2*%
%TO.N,GND*%
X151866000Y-110300800D03*
%TO.P,IC3,14,SDI*%
%TO.N,/MAX31865AAP+1/MOSI3v*%
X151866000Y-109650800D03*
%TO.P,IC3,15,SCLK*%
%TO.N,/MAX31865AAP+1/SLC3v*%
X151866000Y-109000800D03*
%TO.P,IC3,16,~{CS}*%
%TO.N,/MAX31865AAP+3/CS3v*%
X151866000Y-108350800D03*
%TO.P,IC3,17,SDO*%
%TO.N,/MAX31865AAP+1/MISO3v*%
X151866000Y-107700800D03*
%TO.P,IC3,18,DGND*%
%TO.N,GND*%
X151866000Y-107050800D03*
%TO.P,IC3,19,GND*%
X151866000Y-106400800D03*
%TO.P,IC3,20,N.C.*%
%TO.N,unconnected-(IC3-N.C.-Pad20)*%
X151866000Y-105750800D03*
%TD*%
D32*
%TO.P,C1,1*%
%TO.N,Net-(J3-Pin_6)*%
X138717100Y-117199700D03*
%TO.P,C1,2*%
%TO.N,/BareMinAtmel328P/RESET*%
X135592100Y-117199700D03*
%TD*%
D31*
%TO.P,R2,1*%
%TO.N,/BareMinAtmel328P/AREF*%
X144995600Y-99509000D03*
%TO.P,R2,2*%
%TO.N,+5V*%
X144995600Y-102609000D03*
%TD*%
D30*
%TO.P,IC1,1,~{DRDY}*%
%TO.N,unconnected-(IC1-~{DRDY}-Pad1)*%
X158961000Y-81591200D03*
%TO.P,IC1,2,DVDD*%
%TO.N,+3.3V*%
X158961000Y-82241200D03*
%TO.P,IC1,3,VDD*%
X158961000Y-82891200D03*
%TO.P,IC1,4,BIAS*%
%TO.N,Net-(IC1-BIAS)*%
X158961000Y-83541200D03*
%TO.P,IC1,5,REFIN+*%
X158961000Y-84191200D03*
%TO.P,IC1,6,REFIN-*%
%TO.N,Net-(IC1-ISENSOR)*%
X158961000Y-84841200D03*
%TO.P,IC1,7,ISENSOR*%
X158961000Y-85491200D03*
%TO.P,IC1,8,FORCE+*%
%TO.N,/MAX31865AAP+1/FORCE+*%
X158961000Y-86141200D03*
%TO.P,IC1,9,FORCE2*%
%TO.N,Net-(IC1-FORCE2)*%
X158961000Y-86791200D03*
%TO.P,IC1,10,RTDIN+*%
%TO.N,/MAX31865AAP+1/RTDIn+*%
X158961000Y-87441200D03*
%TO.P,IC1,11,RTDIN-*%
%TO.N,/MAX31865AAP+1/RTDin-*%
X151965000Y-87441200D03*
%TO.P,IC1,12,FORCE-*%
%TO.N,/MAX31865AAP+1/FORCE-*%
X151965000Y-86791200D03*
%TO.P,IC1,13,GND2*%
%TO.N,GND*%
X151965000Y-86141200D03*
%TO.P,IC1,14,SDI*%
%TO.N,/MAX31865AAP+1/MOSI3v*%
X151965000Y-85491200D03*
%TO.P,IC1,15,SCLK*%
%TO.N,/MAX31865AAP+1/SLC3v*%
X151965000Y-84841200D03*
%TO.P,IC1,16,~{CS}*%
%TO.N,/MAX31865AAP+1/CS3v*%
X151965000Y-84191200D03*
%TO.P,IC1,17,SDO*%
%TO.N,/MAX31865AAP+1/MISO3v*%
X151965000Y-83541200D03*
%TO.P,IC1,18,DGND*%
%TO.N,GND*%
X151965000Y-82891200D03*
%TO.P,IC1,19,GND*%
X151965000Y-82241200D03*
%TO.P,IC1,20,N.C.*%
%TO.N,unconnected-(IC1-N.C.-Pad20)*%
X151965000Y-81591200D03*
%TD*%
D28*
%TO.P,C12,1*%
%TO.N,+3.3V*%
X162889700Y-96066100D03*
%TO.P,C12,2*%
%TO.N,GND*%
X162889700Y-99191100D03*
%TD*%
D32*
%TO.P,C7,1*%
%TO.N,+5V*%
X138126100Y-103901500D03*
%TO.P,C7,2*%
%TO.N,GND*%
X135001100Y-103901500D03*
%TD*%
D10*
%TO.P,C13,1*%
%TO.N,/MAX31865AAP+2/RTDin-*%
X156521000Y-101175400D03*
%TO.P,C13,2*%
%TO.N,/MAX31865AAP+2/RTDIn+*%
X159646000Y-101175400D03*
%TD*%
D32*
%TO.P,C6,1*%
%TO.N,+5V*%
X138122400Y-101431600D03*
%TO.P,C6,2*%
%TO.N,GND*%
X134997400Y-101431600D03*
%TD*%
D28*
%TO.P,C14,1*%
%TO.N,+3.3V*%
X162869100Y-107189900D03*
%TO.P,C14,2*%
%TO.N,GND*%
X162869100Y-110314900D03*
%TD*%
D32*
%TO.P,C16,1*%
%TO.N,/MAX31865AAP+3/RTDin-*%
X169811100Y-112819400D03*
%TO.P,C16,2*%
%TO.N,/MAX31865AAP+3/RTDIn+*%
X166686100Y-112819400D03*
%TD*%
D35*
%TO.N,CLK*%
X144808400Y-73455300D03*
X128797700Y-102279900D03*
%TO.N,MISO*%
X144421600Y-68405300D03*
X127984300Y-101983600D03*
X125982200Y-83637200D03*
%TO.N,MOSI*%
X126867100Y-83718600D03*
X128504700Y-98601700D03*
X144513100Y-70231200D03*
%TO.N,Net-(IC3-ISENSOR)*%
X161205700Y-107462500D03*
%TO.N,Net-(IC3-FORCE2)*%
X156743100Y-109925200D03*
%TO.N,Net-(IC3-BIAS)*%
X160259700Y-107336600D03*
%TO.N,/MAX31865AAP+3/FORCE-*%
X153890900Y-111885500D03*
%TO.N,/MAX31865AAP+3/CS3v*%
X150374600Y-109756000D03*
X134078400Y-96228800D03*
%TO.N,Net-(IC2-FORCE2)*%
X157666100Y-97585300D03*
%TO.N,/MAX31865AAP+2/FORCE-*%
X153734900Y-98888300D03*
%TO.N,Net-(IC2-BIAS)*%
X161968100Y-91318800D03*
%TO.N,Net-(IC2-ISENSOR)*%
X162700100Y-92711800D03*
%TO.N,/MAX31865AAP+2/CS3v*%
X153416500Y-93079100D03*
X142509400Y-95108700D03*
%TO.N,/MAX31865AAP+1/FORCE-*%
X153381600Y-86791100D03*
%TO.N,/MAX31865AAP+1/MISO3v*%
X143249800Y-100688000D03*
X129200900Y-100945500D03*
%TO.N,Net-(IC1-ISENSOR)*%
X162993800Y-78519200D03*
%TO.N,Net-(IC1-FORCE2)*%
X156818300Y-84794800D03*
%TO.N,/MAX31865AAP+1/CS3v*%
X145655000Y-91359300D03*
X134441200Y-92918000D03*
%TO.N,/MAX31865AAP+1/SLC3v*%
X149620900Y-93690000D03*
X128399100Y-101009700D03*
X150686300Y-96075400D03*
%TO.N,Net-(IC1-BIAS)*%
X162657400Y-80480600D03*
%TO.N,/MAX31865AAP+1/MOSI3v*%
X153854900Y-109017400D03*
X128294700Y-99581700D03*
%TO.N,+3.3V*%
X162762700Y-89703800D03*
X127426900Y-78493400D03*
%TO.N,/MAX31865AAP+3/RTDin-*%
X154362900Y-112825200D03*
%TO.N,/MAX31865AAP+2/RTDin-*%
X156637800Y-102911900D03*
X153713100Y-99982000D03*
%TO.N,/MAX31865AAP+1/RTDin-*%
X153465200Y-87990000D03*
%TO.N,Net-(U3-~{RESET})*%
X146207100Y-85295300D03*
X148134000Y-62777700D03*
%TO.N,/BareMinAtmel328P/PD2-D2*%
X130000300Y-78907000D03*
%TO.N,/BareMinAtmel328P/PB1-D9*%
X129826400Y-107667300D03*
%TO.N,/BareMinAtmel328P/PD5-D5*%
X133303900Y-96916800D03*
%TO.N,/BareMinAtmel328P/PD0-RX*%
X132403200Y-92991500D03*
%TO.N,+5V*%
X145030300Y-75355000D03*
X132920600Y-76553700D03*
%TO.N,/BareMinAtmel328P/RESET*%
X134378900Y-79001900D03*
%TO.N,GND*%
X150810800Y-88200100D03*
X153959400Y-98041100D03*
X154561200Y-84802700D03*
X161326600Y-84475100D03*
X162935600Y-109120100D03*
%TD*%
D36*
%TO.N,/MAX31865AAP+1/RTDin-*%
X171458142Y-77425242D02*
X170140100Y-76107200D01*
X173094551Y-77425242D02*
X171458142Y-77425242D01*
%TO.N,/MAX31865AAP+1/RTDIn+*%
X170140100Y-83504693D02*
X170140100Y-83727200D01*
X176219551Y-77425242D02*
X170140100Y-83504693D01*
%TO.N,CLK*%
X128454000Y-102623600D02*
X128797700Y-102279900D01*
X127134100Y-102623600D02*
X128454000Y-102623600D01*
X144808400Y-73455300D02*
X142830100Y-71477000D01*
X126702000Y-102623600D02*
X125637800Y-102623600D01*
X121237700Y-98223500D02*
X125637800Y-102623600D01*
X121237700Y-79468200D02*
X121237700Y-98223500D01*
X121589900Y-79116000D02*
X121237700Y-79468200D01*
X128585600Y-79116000D02*
X121589900Y-79116000D01*
X132229700Y-75471900D02*
X128585600Y-79116000D01*
X135982700Y-75471900D02*
X132229700Y-75471900D01*
X139977600Y-71477000D02*
X135982700Y-75471900D01*
X142155100Y-71477000D02*
X139977600Y-71477000D01*
%TO.N,MISO*%
X142686800Y-68405300D02*
X142155100Y-68937000D01*
X144421600Y-68405300D02*
X142686800Y-68405300D01*
X126702000Y-101353600D02*
X127766200Y-101353600D01*
X127766200Y-101765500D02*
X127984300Y-101983600D01*
X127766200Y-101353600D02*
X127766200Y-101765500D01*
X125225600Y-100941400D02*
X125637800Y-101353600D01*
X125225600Y-84393800D02*
X125225600Y-100941400D01*
X125982200Y-83637200D02*
X125225600Y-84393800D01*
X126702000Y-101353600D02*
X125637800Y-101353600D01*
%TO.N,MOSI*%
X126169900Y-97543600D02*
X125637800Y-97543600D01*
X126702000Y-97543600D02*
X127766200Y-97543600D01*
X127766200Y-97863200D02*
X128504700Y-98601700D01*
X127766200Y-97543600D02*
X127766200Y-97863200D01*
X144488900Y-70207000D02*
X144513100Y-70231200D01*
X142155100Y-70207000D02*
X144488900Y-70207000D01*
X125637800Y-84947900D02*
X126867100Y-83718600D01*
X125637800Y-97543600D02*
X125637800Y-84947900D01*
%TO.N,Net-(IC3-ISENSOR)*%
X160016200Y-108652000D02*
X161205700Y-107462500D01*
X160016200Y-109000800D02*
X160016200Y-108652000D01*
X158862000Y-109000800D02*
X160016200Y-109000800D01*
X157707800Y-109650800D02*
X157707800Y-109000800D01*
X158862000Y-109650800D02*
X157707800Y-109650800D01*
X158862000Y-109000800D02*
X157707800Y-109000800D01*
%TO.N,Net-(IC3-FORCE2)*%
X157707800Y-110889900D02*
X156743100Y-109925200D01*
X157707800Y-110950800D02*
X157707800Y-110889900D01*
X158862000Y-110950800D02*
X157707800Y-110950800D01*
%TO.N,Net-(IC3-BIAS)*%
X158862000Y-107700800D02*
X160016200Y-107700800D01*
X157707800Y-108350800D02*
X157707800Y-107700800D01*
X158862000Y-108350800D02*
X157707800Y-108350800D01*
X158862000Y-107700800D02*
X157707800Y-107700800D01*
X160016200Y-107580100D02*
X160259700Y-107336600D01*
X160016200Y-107700800D02*
X160016200Y-107580100D01*
%TO.N,/MAX31865AAP+3/FORCE-*%
X153020200Y-111014800D02*
X153890900Y-111885500D01*
X153020200Y-110950800D02*
X153020200Y-111014800D01*
X151866000Y-110950800D02*
X153020200Y-110950800D01*
%TO.N,/MAX31865AAP+3/FORCE+*%
X163796500Y-111297100D02*
X169502000Y-105591600D01*
X161012500Y-111297100D02*
X163796500Y-111297100D01*
X160016200Y-110300800D02*
X161012500Y-111297100D01*
X158862000Y-110300800D02*
X160016200Y-110300800D01*
%TO.N,/MAX31865AAP+3/CS3v*%
X133552400Y-97543600D02*
X132126000Y-97543600D01*
X134078400Y-97017600D02*
X133552400Y-97543600D01*
X134078400Y-96228800D02*
X134078400Y-97017600D01*
X151866000Y-108350800D02*
X150711800Y-108350800D01*
X150711800Y-109418800D02*
X150374600Y-109756000D01*
X150711800Y-108350800D02*
X150711800Y-109418800D01*
%TO.N,Net-(IC2-FORCE2)*%
X157898600Y-97817800D02*
X157666100Y-97585300D01*
X157898600Y-98241700D02*
X157898600Y-97817800D01*
X159052800Y-98241700D02*
X157898600Y-98241700D01*
%TO.N,/MAX31865AAP+2/FORCE-*%
X152056800Y-98241700D02*
X153211000Y-98241700D01*
X153211000Y-98364400D02*
X153734900Y-98888300D01*
X153211000Y-98241700D02*
X153211000Y-98364400D01*
%TO.N,/MAX31865AAP+2/FORCE+*%
X163700100Y-97591700D02*
X159052800Y-97591700D01*
X168077100Y-93214700D02*
X163700100Y-97591700D01*
X170096300Y-93214700D02*
X168077100Y-93214700D01*
%TO.N,Net-(IC2-BIAS)*%
X159052800Y-94991700D02*
X160207000Y-94991700D01*
X157898600Y-95641700D02*
X157898600Y-94991700D01*
X159052800Y-95641700D02*
X157898600Y-95641700D01*
X159052800Y-94991700D02*
X157898600Y-94991700D01*
X161968100Y-93230600D02*
X161968100Y-91318800D01*
X160207000Y-94991700D02*
X161968100Y-93230600D01*
%TO.N,Net-(IC2-ISENSOR)*%
X157898600Y-96941700D02*
X157898600Y-96291700D01*
X159052800Y-96291700D02*
X160207000Y-96291700D01*
X159052800Y-96941700D02*
X157898600Y-96941700D01*
X159052800Y-96291700D02*
X157898600Y-96291700D01*
X162488000Y-94010700D02*
X160207000Y-96291700D01*
X162488000Y-94008600D02*
X162488000Y-94010700D01*
X162700100Y-93796500D02*
X162488000Y-94008600D01*
X162700100Y-92711800D02*
X162700100Y-93796500D01*
%TO.N,/MAX31865AAP+2/CS3v*%
X136252500Y-100083600D02*
X132126000Y-100083600D01*
X140436000Y-95900100D02*
X136252500Y-100083600D01*
X141718000Y-95900100D02*
X140436000Y-95900100D01*
X142509400Y-95108700D02*
X141718000Y-95900100D01*
X152056800Y-95641700D02*
X153211000Y-95641700D01*
X153211000Y-93284600D02*
X153416500Y-93079100D01*
X153211000Y-95641700D02*
X153211000Y-93284600D01*
%TO.N,/MAX31865AAP+1/FORCE-*%
X153381600Y-86791200D02*
X153381600Y-86791100D01*
X151965000Y-86791200D02*
X153381600Y-86791200D01*
%TO.N,/MAX31865AAP+1/FORCE+*%
X168452300Y-81187200D02*
X170140100Y-81187200D01*
X164521400Y-85118100D02*
X168452300Y-81187200D01*
X161951900Y-85118100D02*
X164521400Y-85118100D01*
X160928800Y-86141200D02*
X161951900Y-85118100D01*
X158961000Y-86141200D02*
X160928800Y-86141200D01*
%TO.N,/MAX31865AAP+1/MISO3v*%
X150787900Y-94991700D02*
X152056800Y-94991700D01*
X150787900Y-94991700D02*
X149956200Y-95823400D01*
X153020200Y-105313100D02*
X153020200Y-107700800D01*
X150336000Y-102628900D02*
X153020200Y-105313100D01*
X150336000Y-97669000D02*
X150336000Y-102628900D01*
X149956200Y-97289200D02*
X150336000Y-97669000D01*
X149956200Y-95823400D02*
X149956200Y-97289200D01*
X151866000Y-107700800D02*
X153020200Y-107700800D01*
X151965000Y-83541200D02*
X150810800Y-83541200D01*
X126702000Y-100083600D02*
X127766200Y-100083600D01*
X149956200Y-95823400D02*
X143977000Y-95823400D01*
X143249800Y-96550600D02*
X143249800Y-100688000D01*
X143977000Y-95823400D02*
X143249800Y-96550600D01*
X128557700Y-100302300D02*
X129200900Y-100945500D01*
X127984900Y-100302300D02*
X128557700Y-100302300D01*
X127766200Y-100083600D02*
X127984900Y-100302300D01*
X143977000Y-95157400D02*
X143977000Y-95823400D01*
X143497400Y-94677800D02*
X143977000Y-95157400D01*
X143497400Y-86559300D02*
X143497400Y-94677800D01*
X144074600Y-85982100D02*
X143497400Y-86559300D01*
X144651900Y-85982100D02*
X144074600Y-85982100D01*
X147447800Y-83186200D02*
X144651900Y-85982100D01*
X147447800Y-81305400D02*
X147447800Y-83186200D01*
X148093100Y-80660100D02*
X147447800Y-81305400D01*
X149005900Y-80660100D02*
X148093100Y-80660100D01*
X150810800Y-82465000D02*
X149005900Y-80660100D01*
X150810800Y-83541200D02*
X150810800Y-82465000D01*
%TO.N,Net-(IC1-ISENSOR)*%
X163259200Y-78784600D02*
X162993800Y-78519200D01*
X163259200Y-81382200D02*
X163259200Y-78784600D01*
X160115200Y-84526200D02*
X163259200Y-81382200D01*
X160115200Y-84841200D02*
X160115200Y-84526200D01*
X158961000Y-84841200D02*
X160115200Y-84841200D01*
X157806800Y-85491200D02*
X157806800Y-84841200D01*
X158961000Y-85491200D02*
X157806800Y-85491200D01*
X158961000Y-84841200D02*
X157806800Y-84841200D01*
%TO.N,Net-(IC1-FORCE2)*%
X158961000Y-86791200D02*
X157806800Y-86791200D01*
X156818300Y-85802700D02*
X156818300Y-84794800D01*
X157806800Y-86791200D02*
X156818300Y-85802700D01*
%TO.N,/MAX31865AAP+1/CS3v*%
X145655000Y-88177100D02*
X145655000Y-91359300D01*
X148428600Y-85403500D02*
X145655000Y-88177100D01*
X149247800Y-85403500D02*
X148428600Y-85403500D01*
X150460100Y-84191200D02*
X149247800Y-85403500D01*
X151965000Y-84191200D02*
X150460100Y-84191200D01*
X130253000Y-103084800D02*
X131061800Y-103893600D01*
X130253000Y-96053200D02*
X130253000Y-103084800D01*
X132311200Y-93995000D02*
X130253000Y-96053200D01*
X133364200Y-93995000D02*
X132311200Y-93995000D01*
X134441200Y-92918000D02*
X133364200Y-93995000D01*
X132126000Y-103893600D02*
X131061800Y-103893600D01*
%TO.N,/MAX31865AAP+1/SLC3v*%
X151866000Y-109000800D02*
X153020200Y-109000800D01*
X152056800Y-96291700D02*
X150902600Y-96291700D01*
X150902600Y-102529400D02*
X150902600Y-96291700D01*
X153421900Y-105048700D02*
X150902600Y-102529400D01*
X153421900Y-108599100D02*
X153421900Y-105048700D01*
X153020200Y-109000800D02*
X153421900Y-108599100D01*
X151965000Y-84841200D02*
X150810800Y-84841200D01*
X126702000Y-103893600D02*
X128039900Y-103893600D01*
X150071800Y-93239100D02*
X149620900Y-93690000D01*
X150071800Y-85580200D02*
X150071800Y-93239100D01*
X150810800Y-84841200D02*
X150071800Y-85580200D01*
X129401000Y-102532500D02*
X128039900Y-103893600D01*
X129401000Y-102011600D02*
X129401000Y-102532500D01*
X128399100Y-101009700D02*
X129401000Y-102011600D01*
X150686300Y-96075400D02*
X150902600Y-96291700D01*
%TO.N,Net-(IC1-BIAS)*%
X158961000Y-83541200D02*
X160115200Y-83541200D01*
X157806800Y-84191200D02*
X157806800Y-83541200D01*
X158961000Y-84191200D02*
X157806800Y-84191200D01*
X158961000Y-83541200D02*
X157806800Y-83541200D01*
X160115200Y-83022800D02*
X162657400Y-80480600D01*
X160115200Y-83541200D02*
X160115200Y-83022800D01*
%TO.N,/MAX31865AAP+1/MOSI3v*%
X151866000Y-109650800D02*
X153020200Y-109650800D01*
X126702000Y-98813600D02*
X127766200Y-98813600D01*
X127766200Y-99053200D02*
X128294700Y-99581700D01*
X127766200Y-98813600D02*
X127766200Y-99053200D01*
X151965000Y-85491200D02*
X153119200Y-85491200D01*
X152056800Y-96941700D02*
X153211000Y-96941700D01*
X153298600Y-96854100D02*
X153211000Y-96941700D01*
X153948600Y-96854100D02*
X153298600Y-96854100D01*
X153653600Y-109017400D02*
X153854900Y-109017400D01*
X153020200Y-109650800D02*
X153653600Y-109017400D01*
X154561200Y-97466700D02*
X153948600Y-96854100D01*
X154561200Y-108311100D02*
X154561200Y-97466700D01*
X153854900Y-109017400D02*
X154561200Y-108311100D01*
X154066900Y-86438900D02*
X153119200Y-85491200D01*
X154066900Y-96735800D02*
X154066900Y-86438900D01*
X153948600Y-96854100D02*
X154066900Y-96735800D01*
%TO.N,+3.3V*%
X126702000Y-105163600D02*
X125637800Y-105163600D01*
X125227300Y-77638500D02*
X124000600Y-77638500D01*
X122452500Y-76983100D02*
X122452500Y-77605100D01*
X123967200Y-77605100D02*
X124000600Y-77638500D01*
X122452500Y-77605100D02*
X123967200Y-77605100D01*
X159052800Y-94341700D02*
X157898600Y-94341700D01*
X159114900Y-106797900D02*
X159114900Y-106653700D01*
X158862000Y-107050800D02*
X159114900Y-106797900D01*
X159114900Y-106653700D02*
X158862000Y-106400800D01*
X157033300Y-95207000D02*
X157898600Y-94341700D01*
X157033300Y-98358600D02*
X157033300Y-95207000D01*
X157898600Y-99223900D02*
X157033300Y-98358600D01*
X157898600Y-102864600D02*
X157898600Y-99223900D01*
X160614900Y-105580900D02*
X157898600Y-102864600D01*
X160614900Y-106263200D02*
X160614900Y-105580900D01*
X160224400Y-106653700D02*
X160614900Y-106263200D01*
X159114900Y-106653700D02*
X160224400Y-106653700D01*
X161942400Y-106263200D02*
X162869100Y-107189900D01*
X160614900Y-106263200D02*
X161942400Y-106263200D01*
X163338500Y-90279600D02*
X163338500Y-95617300D01*
X162762700Y-89703800D02*
X163338500Y-90279600D01*
X120836000Y-100361800D02*
X125637800Y-105163600D01*
X120836000Y-79221600D02*
X120836000Y-100361800D01*
X122452500Y-77605100D02*
X120836000Y-79221600D01*
X125227300Y-77638500D02*
X126454000Y-77638500D01*
X127426900Y-78493300D02*
X127426900Y-78493400D01*
X127308800Y-78493300D02*
X127426900Y-78493300D01*
X126454000Y-77638500D02*
X127308800Y-78493300D01*
X162729800Y-89703800D02*
X162729800Y-86897200D01*
X162729800Y-89703800D02*
X162762700Y-89703800D01*
X159052800Y-93691700D02*
X160207000Y-93691700D01*
X159952100Y-94341700D02*
X159629900Y-94341700D01*
X160207000Y-94086800D02*
X159952100Y-94341700D01*
X160207000Y-93691700D02*
X160207000Y-94086800D01*
X158961000Y-82891200D02*
X157806800Y-82891200D01*
X158961000Y-82241200D02*
X157806800Y-82241200D01*
X160207000Y-93691700D02*
X160207000Y-89703800D01*
X160207000Y-89703800D02*
X162729800Y-89703800D01*
X157806800Y-82891200D02*
X157806800Y-82241200D01*
X159673200Y-89703800D02*
X160207000Y-89703800D01*
X156191400Y-86222000D02*
X159673200Y-89703800D01*
X156191400Y-84506600D02*
X156191400Y-86222000D01*
X157806800Y-82891200D02*
X156191400Y-84506600D01*
%TO.N,/MAX31865AAP+3/RTDin-*%
X171577400Y-111053100D02*
X169811100Y-112819400D01*
X171577400Y-101931900D02*
X171577400Y-111053100D01*
X170157100Y-100511600D02*
X171577400Y-101931900D01*
X153020200Y-111897100D02*
X153020200Y-111600800D01*
X153948300Y-112825200D02*
X153020200Y-111897100D01*
X154362900Y-112825200D02*
X153948300Y-112825200D01*
X151866000Y-111600800D02*
X153020200Y-111600800D01*
%TO.N,/MAX31865AAP+3/RTDIn+*%
X169972200Y-109533300D02*
X170157100Y-109533300D01*
X166686100Y-112819400D02*
X169972200Y-109533300D01*
X170157100Y-108131600D02*
X170157100Y-109533300D01*
X161234800Y-112819400D02*
X166686100Y-112819400D01*
X160016200Y-111600800D02*
X161234800Y-112819400D01*
X158862000Y-111600800D02*
X160016200Y-111600800D01*
%TO.N,/MAX31865AAP+2/RTDin-*%
X156637800Y-101292200D02*
X156637800Y-102911900D01*
X153147100Y-99982000D02*
X152056800Y-98891700D01*
X153713100Y-99982000D02*
X153147100Y-99982000D01*
%TO.N,/MAX31865AAP+2/RTDIn+*%
X159052800Y-98891700D02*
X160106200Y-98891700D01*
X166236800Y-98212500D02*
X168694600Y-95754700D01*
X160785400Y-98212500D02*
X166236800Y-98212500D01*
X160106200Y-98891700D02*
X160785400Y-98212500D01*
X160106200Y-100715200D02*
X160106200Y-98891700D01*
X170096300Y-95754700D02*
X168694600Y-95754700D01*
%TO.N,/MAX31865AAP+1/RTDin-*%
X153119200Y-87644000D02*
X153465200Y-87990000D01*
X153119200Y-87441200D02*
X153119200Y-87644000D01*
X151965000Y-87441200D02*
X153119200Y-87441200D01*
%TO.N,Net-(U4-Rs)*%
X159962900Y-70883200D02*
X163077100Y-67769000D01*
X159962900Y-75582300D02*
X159962900Y-70883200D01*
%TO.N,Net-(U3-~{RESET})*%
X146207100Y-85692700D02*
X146207100Y-85295300D01*
X144703000Y-87196800D02*
X146207100Y-85692700D01*
X142772900Y-62777700D02*
X148134000Y-62777700D01*
X140810200Y-64740400D02*
X142772900Y-62777700D01*
X140810200Y-65577200D02*
X140810200Y-64740400D01*
X141630000Y-66397000D02*
X140810200Y-65577200D01*
%TO.N,Net-(J5-Pin_2)*%
X141442200Y-60586800D02*
X139116100Y-58260700D01*
X141589600Y-60586800D02*
X141442200Y-60586800D01*
X141589600Y-61738500D02*
X141589600Y-60586800D01*
%TO.N,Net-(U3-OSC1)*%
X152586900Y-121129200D02*
X150832100Y-119374400D01*
X152586900Y-125460100D02*
X152586900Y-121129200D01*
X153937400Y-126810600D02*
X152586900Y-125460100D01*
X155173100Y-126810600D02*
X153937400Y-126810600D01*
X156793600Y-125190100D02*
X155173100Y-126810600D01*
X156793600Y-118931200D02*
X156793600Y-125190100D01*
X156141400Y-118279000D02*
X156793600Y-118931200D01*
X156141400Y-107058500D02*
X156141400Y-118279000D01*
X157486500Y-105713400D02*
X156141400Y-107058500D01*
X157486500Y-99722500D02*
X157486500Y-105713400D01*
X155766300Y-98002300D02*
X157486500Y-99722500D01*
X155766300Y-83081300D02*
X155766300Y-98002300D01*
X165561100Y-73286500D02*
X155766300Y-83081300D01*
X165561100Y-67004300D02*
X165561100Y-73286500D01*
X160593900Y-62037100D02*
X165561100Y-67004300D01*
X156236100Y-62037100D02*
X160593900Y-62037100D01*
X154552700Y-63720500D02*
X156236100Y-62037100D01*
X154552700Y-67531100D02*
X154552700Y-63720500D01*
X152511800Y-69572000D02*
X154552700Y-67531100D01*
X150371900Y-69572000D02*
X152511800Y-69572000D01*
X150083000Y-69860900D02*
X150371900Y-69572000D01*
X150083000Y-73101300D02*
X150083000Y-69860900D01*
X150998700Y-74017000D02*
X150083000Y-73101300D01*
%TO.N,Net-(U3-OSC2)*%
X154543600Y-120542900D02*
X155712100Y-119374400D01*
X154543600Y-125526100D02*
X154543600Y-120542900D01*
X155364600Y-82677200D02*
X155364600Y-119026900D01*
X165159400Y-72882400D02*
X155364600Y-82677200D01*
X165159400Y-67170600D02*
X165159400Y-72882400D01*
X164659800Y-66671000D02*
X165159400Y-67170600D01*
X163593300Y-66671000D02*
X164659800Y-66671000D01*
X159361100Y-62438800D02*
X163593300Y-66671000D01*
X156402400Y-62438800D02*
X159361100Y-62438800D01*
X154954400Y-63886800D02*
X156402400Y-62438800D01*
X154954400Y-69659800D02*
X154954400Y-63886800D01*
X151867200Y-72747000D02*
X154954400Y-69659800D01*
%TO.N,Net-(U2-XTAL2{slash}PB7)*%
X140701200Y-105723500D02*
X140929500Y-105723500D01*
X139489700Y-106935000D02*
X140701200Y-105723500D01*
X139489700Y-111380900D02*
X139489700Y-106935000D01*
X137742500Y-113128100D02*
X139489700Y-111380900D01*
X137742500Y-116939600D02*
X137742500Y-113128100D01*
X135336800Y-119345300D02*
X137742500Y-116939600D01*
X140929500Y-104621800D02*
X140929500Y-105723500D01*
%TO.N,Net-(U2-XTAL1{slash}PB6)*%
X140929500Y-102081800D02*
X140929500Y-103183500D01*
X141157800Y-103183500D02*
X140929500Y-103183500D01*
X142072000Y-104097700D02*
X141157800Y-103183500D01*
X142072000Y-118038200D02*
X142072000Y-104097700D01*
X145046300Y-118038200D02*
X142072000Y-118038200D01*
X141428400Y-118038200D02*
X140121300Y-119345300D01*
X142072000Y-118038200D02*
X141428400Y-118038200D01*
%TO.N,Net-(J3-Pin_6)*%
X134067300Y-124094700D02*
X134067300Y-122943000D01*
X138717100Y-118293200D02*
X138717100Y-117199700D01*
X134067300Y-122943000D02*
X138717100Y-118293200D01*
%TO.N,/CANBUS-MCP2515/TXtoCANTC*%
X155734800Y-60826000D02*
X151455100Y-65105700D01*
X161486800Y-60826000D02*
X155734800Y-60826000D01*
X168429800Y-67769000D02*
X161486800Y-60826000D01*
%TO.N,/CANBUS-MCP2515/RXtoCANTC*%
X166215300Y-69747600D02*
X168046700Y-71579000D01*
X166215300Y-67088500D02*
X166215300Y-69747600D01*
X160762200Y-61635400D02*
X166215300Y-67088500D01*
X156069800Y-61635400D02*
X160762200Y-61635400D01*
X154151000Y-63554200D02*
X156069800Y-61635400D01*
X154151000Y-64676400D02*
X154151000Y-63554200D01*
X152430400Y-66397000D02*
X154151000Y-64676400D01*
X151455100Y-66397000D02*
X152430400Y-66397000D01*
%TO.N,/BareMinAtmel328P/PD2-D2*%
X130000300Y-78411700D02*
X130000300Y-78907000D01*
X132460000Y-75952000D02*
X130000300Y-78411700D01*
X136417400Y-75952000D02*
X132460000Y-75952000D01*
X139622400Y-72747000D02*
X136417400Y-75952000D01*
X142155100Y-72747000D02*
X139622400Y-72747000D01*
%TO.N,/BareMinAtmel328P/PB1-D9*%
X129826400Y-107667200D02*
X129826400Y-107667300D01*
X127526500Y-107667200D02*
X129826400Y-107667200D01*
X120434300Y-100575000D02*
X127526500Y-107667200D01*
X120434300Y-77113600D02*
X120434300Y-100575000D01*
X121857400Y-75690500D02*
X120434300Y-77113600D01*
X125888300Y-75690500D02*
X121857400Y-75690500D01*
X133911800Y-67667000D02*
X125888300Y-75690500D01*
X142155100Y-67667000D02*
X133911800Y-67667000D01*
%TO.N,/BareMinAtmel328P/AREF*%
X147415000Y-99509000D02*
X147447800Y-99541800D01*
X144995600Y-99509000D02*
X147415000Y-99509000D01*
X148549500Y-99541800D02*
X147447800Y-99541800D01*
%TO.N,/BareMinAtmel328P/PC0-A0*%
X135965600Y-92256100D02*
X135965600Y-94809500D01*
%TO.N,/BareMinAtmel328P/PD5-D5*%
X132126000Y-96273600D02*
X133190200Y-96273600D01*
X133190200Y-96803100D02*
X133303900Y-96916800D01*
X133190200Y-96273600D02*
X133190200Y-96803100D01*
%TO.N,/BareMinAtmel328P/PD3-D3*%
X140929500Y-91921800D02*
X139827800Y-91921800D01*
X132126000Y-102623600D02*
X131061800Y-102623600D01*
X139827700Y-91921800D02*
X139827800Y-91921800D01*
X139827700Y-92520200D02*
X139827700Y-91921800D01*
X136427200Y-95920700D02*
X139827700Y-92520200D01*
X135037700Y-95920700D02*
X136427200Y-95920700D01*
X134726100Y-95609100D02*
X135037700Y-95920700D01*
X131268700Y-95609100D02*
X134726100Y-95609100D01*
X130660100Y-96217700D02*
X131268700Y-95609100D01*
X130660100Y-102221900D02*
X130660100Y-96217700D01*
X131061800Y-102623600D02*
X130660100Y-102221900D01*
%TO.N,/BareMinAtmel328P/PD4-D4*%
X132126000Y-98813600D02*
X133190200Y-98813600D01*
X133351000Y-98974400D02*
X133190200Y-98813600D01*
X136538400Y-98974400D02*
X133351000Y-98974400D01*
X140929500Y-94583300D02*
X136538400Y-98974400D01*
%TO.N,/BareMinAtmel328P/PD1-TX*%
X140929500Y-86841800D02*
X139827800Y-86841800D01*
X136607300Y-124094700D02*
X135455600Y-124094700D01*
X135455600Y-124363200D02*
X135455600Y-124094700D01*
X134527200Y-125291600D02*
X135455600Y-124363200D01*
X133563100Y-125291600D02*
X134527200Y-125291600D01*
X130429400Y-122157900D02*
X133563100Y-125291600D01*
X130429400Y-104390000D02*
X130429400Y-122157900D01*
X129851300Y-103811900D02*
X130429400Y-104390000D01*
X129851300Y-95886900D02*
X129851300Y-103811900D01*
X132144900Y-93593300D02*
X129851300Y-95886900D01*
X132799200Y-93593300D02*
X132144900Y-93593300D01*
X135634600Y-90757900D02*
X132799200Y-93593300D01*
X136875700Y-90757900D02*
X135634600Y-90757900D01*
X139827800Y-87805800D02*
X136875700Y-90757900D01*
X139827800Y-86841800D02*
X139827800Y-87805800D01*
%TO.N,/BareMinAtmel328P/PD0-RX*%
X140929500Y-84301800D02*
X140929500Y-85403500D01*
X135293300Y-90101400D02*
X132403200Y-92991500D01*
X136861800Y-90101400D02*
X135293300Y-90101400D01*
X138430000Y-88533200D02*
X136861800Y-90101400D01*
X138430000Y-87627600D02*
X138430000Y-88533200D01*
X140654100Y-85403500D02*
X138430000Y-87627600D01*
X140929500Y-85403500D02*
X140654100Y-85403500D01*
%TO.N,/MAX31865AAP+1/RTDIn+*%
X160286500Y-87441200D02*
X158961000Y-87441200D01*
X162110200Y-85617500D02*
X160286500Y-87441200D01*
X166848100Y-85617500D02*
X162110200Y-85617500D01*
X168738400Y-83727200D02*
X166848100Y-85617500D01*
X170140100Y-83727200D02*
X168738400Y-83727200D01*
%TO.N,CANBUS_H*%
X155655900Y-74744100D02*
X156457600Y-74744100D01*
X158549700Y-68194500D02*
X157148000Y-66792800D01*
X158549700Y-73164700D02*
X158549700Y-68194500D01*
X157452800Y-74261600D02*
X158549700Y-73164700D01*
X156940100Y-74261600D02*
X157452800Y-74261600D01*
X156457600Y-74744100D02*
X156940100Y-74261600D01*
X164757700Y-68196100D02*
X163914800Y-69039000D01*
X164757700Y-67405600D02*
X164757700Y-68196100D01*
X164424800Y-67072700D02*
X164757700Y-67405600D01*
X163173400Y-67072700D02*
X164424800Y-67072700D01*
X158946500Y-62845800D02*
X163173400Y-67072700D01*
X156568100Y-62845800D02*
X158946500Y-62845800D01*
X155728200Y-63685700D02*
X156568100Y-62845800D01*
X155728200Y-65373000D02*
X155728200Y-63685700D01*
X157148000Y-66792800D02*
X155728200Y-65373000D01*
%TO.N,CANBUS_L*%
X155655900Y-76044100D02*
X155655900Y-76620800D01*
X155727000Y-76691900D02*
X155655900Y-76620800D01*
X157884400Y-76691900D02*
X155727000Y-76691900D01*
X158553300Y-76023000D02*
X157884400Y-76691900D01*
X159218600Y-76688300D02*
X158553300Y-76023000D01*
X160421100Y-76688300D02*
X159218600Y-76688300D01*
X161115500Y-75993900D02*
X160421100Y-76688300D01*
X161115500Y-72309900D02*
X161115500Y-75993900D01*
X163116400Y-70309000D02*
X161115500Y-72309900D01*
X158553300Y-74302200D02*
X158553300Y-76023000D01*
X158953500Y-73902000D02*
X158553300Y-74302200D01*
X158953500Y-66058300D02*
X158953500Y-73902000D01*
X157148000Y-64252800D02*
X158953500Y-66058300D01*
%TO.N,+5V*%
X140929500Y-97001800D02*
X142031200Y-97001800D01*
X148549500Y-102081800D02*
X147447800Y-102081800D01*
X144995600Y-102609000D02*
X146273200Y-102609000D01*
X146920600Y-102609000D02*
X147447800Y-102081800D01*
X146273200Y-102609000D02*
X146920600Y-102609000D01*
X141687300Y-122657600D02*
X141687300Y-124094700D01*
X144744200Y-119600700D02*
X141687300Y-122657600D01*
X145357100Y-119600700D02*
X144744200Y-119600700D01*
X146273200Y-118684600D02*
X145357100Y-119600700D01*
X146273200Y-102609000D02*
X146273200Y-118684600D01*
X135850500Y-110305200D02*
X132489300Y-110305200D01*
X138126100Y-108029600D02*
X135850500Y-110305200D01*
X138126100Y-103901500D02*
X138126100Y-108029600D01*
X142031200Y-97001800D02*
X142031200Y-100641800D01*
X143998400Y-102609000D02*
X144995600Y-102609000D01*
X142031200Y-100641800D02*
X143998400Y-102609000D01*
X138745900Y-100811800D02*
X138126100Y-101431600D01*
X141861200Y-100811800D02*
X138745900Y-100811800D01*
X142031200Y-100641800D02*
X141861200Y-100811800D01*
X138126100Y-101431600D02*
X138126100Y-103901500D01*
X143046100Y-85753700D02*
X144703000Y-84096800D01*
X143046100Y-94794500D02*
X143046100Y-85753700D01*
X143111100Y-94859500D02*
X143046100Y-94794500D01*
X143111100Y-95921900D02*
X143111100Y-94859500D01*
X142031200Y-97001800D02*
X143111100Y-95921900D01*
X129824600Y-85609100D02*
X126454000Y-82238500D01*
X129824600Y-88047200D02*
X129824600Y-85609100D01*
X130688300Y-88910900D02*
X129824600Y-88047200D01*
X130976300Y-88910900D02*
X130688300Y-88910900D01*
X130976300Y-90062600D02*
X130976300Y-88910900D01*
X125227300Y-82238500D02*
X126454000Y-82238500D01*
X144809900Y-65127000D02*
X145444900Y-65762000D01*
X142155100Y-65127000D02*
X144809900Y-65127000D01*
X166617000Y-68840900D02*
X168085100Y-70309000D01*
X166617000Y-66919000D02*
X166617000Y-68840900D01*
X160931700Y-61233700D02*
X166617000Y-66919000D01*
X155899300Y-61233700D02*
X160931700Y-61233700D01*
X152782400Y-64350600D02*
X155899300Y-61233700D01*
X152782400Y-65469600D02*
X152782400Y-64350600D01*
X152490000Y-65762000D02*
X152782400Y-65469600D01*
X145444900Y-65762000D02*
X152490000Y-65762000D01*
X145444900Y-74940400D02*
X145030300Y-75355000D01*
X145444900Y-65762000D02*
X145444900Y-74940400D01*
X143831600Y-76553700D02*
X132920600Y-76553700D01*
X145030300Y-75355000D02*
X143831600Y-76553700D01*
%TO.N,/BareMinAtmel328P/RESET*%
X135385300Y-113752500D02*
X134333600Y-113752500D01*
X133593400Y-113012300D02*
X134333600Y-113752500D01*
X132096400Y-113012300D02*
X133593400Y-113012300D01*
X140378700Y-81761800D02*
X139827800Y-81761800D01*
X135990600Y-80613600D02*
X134378900Y-79001900D01*
X138679600Y-80613600D02*
X135990600Y-80613600D01*
X139827800Y-81761800D02*
X138679600Y-80613600D01*
X135385300Y-116992900D02*
X135385300Y-113752500D01*
X142041700Y-83424800D02*
X140378700Y-81761800D01*
X142041700Y-92377000D02*
X142041700Y-83424800D01*
X141282800Y-93135900D02*
X142041700Y-92377000D01*
X140643400Y-93135900D02*
X141282800Y-93135900D01*
X137885300Y-95894000D02*
X140643400Y-93135900D01*
X137885300Y-97053900D02*
X137885300Y-95894000D01*
X136434900Y-98504300D02*
X137885300Y-97053900D01*
X133807300Y-98504300D02*
X136434900Y-98504300D01*
X133482000Y-98179000D02*
X133807300Y-98504300D01*
X131245300Y-98179000D02*
X133482000Y-98179000D01*
X131061800Y-98362500D02*
X131245300Y-98179000D01*
X131061800Y-101824500D02*
X131061800Y-98362500D01*
X131225900Y-101988600D02*
X131061800Y-101824500D01*
X133059200Y-101988600D02*
X131225900Y-101988600D01*
X133190300Y-102119700D02*
X133059200Y-101988600D01*
X133190300Y-106744200D02*
X133190300Y-102119700D01*
X130900400Y-109034100D02*
X133190300Y-106744200D01*
X130900400Y-111816300D02*
X130900400Y-109034100D01*
X132096400Y-113012300D02*
X130900400Y-111816300D01*
%TO.N,GND*%
X151455100Y-75287000D02*
X152551500Y-76383400D01*
X135001100Y-103901500D02*
X135001100Y-108868300D01*
X151866000Y-107050800D02*
X150812700Y-107050800D01*
X150812700Y-107050800D02*
X150713300Y-107050800D01*
X152056800Y-94341700D02*
X150902600Y-94341700D01*
X151866000Y-106400800D02*
X150812700Y-106400800D01*
X151479700Y-93691700D02*
X151157500Y-93691700D01*
X150902600Y-93946600D02*
X150902600Y-94341700D01*
X151157500Y-93691700D02*
X150902600Y-93946600D01*
X152056800Y-97591700D02*
X153510000Y-97591700D01*
X137751900Y-99541800D02*
X140929500Y-99541800D01*
X135858400Y-101435300D02*
X137751900Y-99541800D01*
X135001100Y-101435300D02*
X135858400Y-101435300D01*
X135001100Y-101435300D02*
X135001100Y-103901500D01*
X152259500Y-110300800D02*
X153538400Y-110300800D01*
X150711800Y-106501700D02*
X150812700Y-106400800D01*
X150711800Y-107050800D02*
X150711800Y-106501700D01*
X148549500Y-97001800D02*
X148549500Y-98103500D01*
X149651200Y-105239300D02*
X150812700Y-106400800D01*
X149651200Y-99067400D02*
X149651200Y-105239300D01*
X148687300Y-98103500D02*
X149651200Y-99067400D01*
X148549500Y-98103500D02*
X148687300Y-98103500D01*
X150810800Y-93345000D02*
X150810800Y-88200100D01*
X151157500Y-93691700D02*
X150810800Y-93345000D01*
X150810800Y-88200100D02*
X150810800Y-86141200D01*
X151965000Y-86141200D02*
X150810800Y-86141200D01*
X146767300Y-122884200D02*
X146767300Y-124094700D01*
X145046300Y-121163200D02*
X146767300Y-122884200D01*
X149350400Y-125526100D02*
X147919000Y-124094700D01*
X151418600Y-125526100D02*
X149350400Y-125526100D01*
X146767300Y-124094700D02*
X147919000Y-124094700D01*
X150713300Y-107050800D02*
X150712000Y-107050800D01*
X150712000Y-107050800D02*
X150711800Y-107050800D01*
X151866000Y-110300800D02*
X150711800Y-110300800D01*
X150138400Y-116071100D02*
X145046300Y-121163200D01*
X150138400Y-110370600D02*
X150138400Y-116071100D01*
X149761200Y-109993400D02*
X150138400Y-110370600D01*
X149761200Y-108001600D02*
X149761200Y-109993400D01*
X150712000Y-107050800D02*
X149761200Y-108001600D01*
X150642000Y-110370600D02*
X150711800Y-110300800D01*
X150138400Y-110370600D02*
X150642000Y-110370600D01*
X162029500Y-83772200D02*
X161326600Y-84475100D01*
X169721300Y-69974200D02*
X168786100Y-69039000D01*
X169721300Y-72543100D02*
X169721300Y-69974200D01*
X167973200Y-74291200D02*
X169721300Y-72543100D01*
X167973200Y-78528800D02*
X167973200Y-74291200D01*
X162729800Y-83772200D02*
X167973200Y-78528800D01*
X151965000Y-82891200D02*
X153119200Y-82891200D01*
X154561200Y-84333200D02*
X153119200Y-82891200D01*
X154561200Y-84802700D02*
X154561200Y-84333200D01*
X153119200Y-81986300D02*
X152864300Y-82241200D01*
X153119200Y-79709100D02*
X153119200Y-81986300D01*
X151212700Y-77802600D02*
X153119200Y-79709100D01*
X152542100Y-82241200D02*
X152864300Y-82241200D01*
X153119200Y-82496100D02*
X153119200Y-82891200D01*
X152864300Y-82241200D02*
X153119200Y-82496100D01*
X153510000Y-97591700D02*
X153959400Y-98041100D01*
X162869100Y-109186600D02*
X162935600Y-109120100D01*
X162869100Y-110314900D02*
X162869100Y-109186600D01*
X164079500Y-100380900D02*
X162889700Y-99191100D01*
X164079500Y-107976200D02*
X164079500Y-100380900D01*
X162935600Y-109120100D02*
X164079500Y-107976200D01*
X154962900Y-108876300D02*
X153538400Y-110300800D01*
X154962900Y-85204400D02*
X154962900Y-108876300D01*
X154561200Y-84802700D02*
X154962900Y-85204400D01*
X157234700Y-75394100D02*
X153755900Y-75394100D01*
X157422900Y-75582300D02*
X157234700Y-75394100D01*
D37*
X156326000Y-69332800D02*
X157148000Y-69332800D01*
X153755900Y-75394100D02*
X153755900Y-71902900D01*
X153755900Y-71902900D02*
X156326000Y-69332800D01*
X151347400Y-77802600D02*
X153755900Y-75394100D01*
X131427300Y-79938500D02*
X133563200Y-77802600D01*
X133563200Y-77802600D02*
X151347400Y-77802600D01*
X122622100Y-79938500D02*
X122452500Y-80108100D01*
X125227300Y-79938500D02*
X122622100Y-79938500D01*
X131427300Y-79938500D02*
X125227300Y-79938500D01*
X130976300Y-80389500D02*
X131427300Y-79938500D01*
X130976300Y-87522600D02*
X130976300Y-80389500D01*
D36*
X132382200Y-88928500D02*
X130976300Y-87522600D01*
X130108100Y-91332700D02*
X131337000Y-91332700D01*
X132382200Y-89148700D02*
X135973000Y-89148700D01*
X127766200Y-96273600D02*
X127766200Y-93674600D01*
X131337000Y-91332700D02*
X132382200Y-90287500D01*
X127766200Y-93674600D02*
X130108100Y-91332700D01*
X132382200Y-90287500D02*
X132382200Y-89148700D01*
X132382200Y-89148700D02*
X132382200Y-88928500D01*
X126702000Y-96273600D02*
X127766200Y-96273600D01*
%TD*%
M02*
