M48
INCH
T1C0.0118
T2C0.0315
T3C0.0394
T4C0.0433
T5C0.0504
T6C0.0630
%
G90
G05
T1
X4.9599Y-3.2928
X4.9948Y-3.296
X5.0168Y-3.0903
X5.0388Y-4.0151
X5.051Y-3.9205
X5.0551Y-3.9768
X5.0592Y-3.882
X5.0708Y-4.0268
X5.0866Y-3.9742
X5.1113Y-4.2389
X5.1181Y-3.1066
X5.2127Y-3.6611
X5.2331Y-3.0139
X5.2482Y-3.8156
X5.2787Y-3.7885
X5.2905Y-3.1103
X5.293Y-3.6582
X5.6106Y-3.7444
X5.6398Y-3.9641
X5.6859Y-2.6931
X5.6895Y-2.765
X5.7011Y-2.8919
X5.7099Y-2.9667
X5.7344Y-3.5968
X5.7562Y-3.3581
X5.832Y-2.4716
X5.8906Y-3.6886
X5.9203Y-4.3211
X5.9325Y-3.7825
X5.9374Y-3.4724
X6.0386Y-3.417
X6.04Y-3.6645
X6.0419Y-3.4642
X6.0517Y-3.9363
X6.0526Y-3.8932
X6.0573Y-4.292
X6.0587Y-4.4049
X6.0614Y-3.8599
X6.0773Y-4.4419
X6.0851Y-3.3387
X6.1668Y-4.0516
X6.171Y-4.3278
X6.1739Y-3.3384
X6.2073Y-3.8419
X6.3094Y-4.2259
X6.3467Y-4.2308
X6.3514Y-3.3258
X6.3767Y-3.5952
X6.4038Y-3.1685
X6.4055Y-3.6501
X6.408Y-3.5316
X6.4148Y-4.2961
X6.4171Y-3.0913
T2
X5.3245Y-4.6986
X5.353Y-3.7327
X5.353Y-3.8327
X5.477Y-2.2937
X5.5166Y-4.6986
X5.5484Y-3.219
X5.5484Y-3.319
X5.5484Y-3.419
X5.5484Y-3.519
X5.5484Y-3.619
X5.5484Y-3.719
X5.5484Y-3.819
X5.5484Y-3.919
X5.5484Y-4.019
X5.5484Y-4.119
X5.5484Y-4.219
X5.5484Y-4.319
X5.5484Y-4.419
X5.5484Y-4.519
X5.577Y-2.2937
X5.8484Y-3.219
X5.8484Y-3.319
X5.8484Y-3.419
X5.8484Y-3.519
X5.8484Y-3.619
X5.8484Y-3.719
X5.8484Y-3.819
X5.8484Y-3.919
X5.8484Y-4.019
X5.8484Y-4.119
X5.8484Y-4.219
X5.8484Y-4.319
X5.8484Y-4.419
X5.8484Y-4.519
X5.9383Y-4.6998
X6.1304Y-4.6998
X6.1978Y-2.9757
X6.2978Y-2.9757
T3
X5.0742Y-4.3013
X5.0742Y-4.4784
X5.1565Y-3.4458
X5.1565Y-3.5458
X5.1565Y-3.6458
X5.2782Y-4.8856
X5.3301Y-4.3013
X5.3301Y-4.4784
X5.3782Y-4.8856
X5.4744Y-2.4306
X5.4782Y-4.8856
X5.5744Y-2.4306
X5.5782Y-4.8856
X5.6782Y-4.8856
X5.7782Y-4.8856
T4
X6.1869Y-2.5296
X6.1869Y-2.6296
X6.1869Y-2.7296
X6.1869Y-2.8296
X6.6967Y-3.4699
X6.6967Y-3.5699
X6.6967Y-3.6699
X6.6967Y-3.7699
X6.6984Y-2.9963
X6.6984Y-3.0963
X6.6984Y-3.1963
X6.6984Y-3.2963
X6.6991Y-3.9571
X6.6991Y-4.0571
X6.6991Y-4.1571
X6.6991Y-4.2571
T5
X5.3774Y-3.1238
X5.3774Y-3.2238
X5.3774Y-3.3238
T6
X4.9244Y-2.7566
X4.9244Y-2.8905
X5.3149Y-2.7566
X5.3149Y-2.8905
M30
