%TF.GenerationSoftware,KiCad,Pcbnew,8.0.1-rc1*%
%TF.CreationDate,2024-11-21T18:28:05-08:00*%
%TF.ProjectId,AMS - CANBus Sensor - Temperature - RTD,414d5320-2d20-4434-914e-427573205365,rev?*%
%TF.SameCoordinates,Original*%
%TF.FileFunction,Paste,Top*%
%TF.FilePolarity,Positive*%
%FSLAX46Y46*%
G04 Gerber Fmt 4.6, Leading zero omitted, Abs format (unit mm)*
G04 Created by KiCad (PCBNEW 8.0.1-rc1) date 2024-11-21 18:28:05*
%MOMM*%
%LPD*%
G01*
G04 APERTURE LIST*
G04 Aperture macros list*
%AMRoundRect*
0 Rectangle with rounded corners*
0 $1 Rounding radius*
0 $2 $3 $4 $5 $6 $7 $8 $9 X,Y pos of 4 corners*
0 Add a 4 corners polygon primitive as box body*
4,1,4,$2,$3,$4,$5,$6,$7,$8,$9,$2,$3,0*
0 Add four circle primitives for the rounded corners*
1,1,$1+$1,$2,$3*
1,1,$1+$1,$4,$5*
1,1,$1+$1,$6,$7*
1,1,$1+$1,$8,$9*
0 Add four rect primitives between the rounded corners*
20,1,$1+$1,$2,$3,$4,$5,0*
20,1,$1+$1,$4,$5,$6,$7,0*
20,1,$1+$1,$6,$7,$8,$9,0*
20,1,$1+$1,$8,$9,$2,$3,0*%
G04 Aperture macros list end*
%ADD10R,1.000000X2.510000*%
%ADD11R,2.510000X1.000000*%
%ADD12RoundRect,0.250000X-0.650000X0.412500X-0.650000X-0.412500X0.650000X-0.412500X0.650000X0.412500X0*%
%ADD13RoundRect,0.250000X-0.400000X-0.625000X0.400000X-0.625000X0.400000X0.625000X-0.400000X0.625000X0*%
%ADD14RoundRect,0.250000X0.650000X-0.412500X0.650000X0.412500X-0.650000X0.412500X-0.650000X-0.412500X0*%
%ADD15RoundRect,0.250000X-0.625000X0.400000X-0.625000X-0.400000X0.625000X-0.400000X0.625000X0.400000X0*%
%ADD16R,1.000000X3.150000*%
%ADD17RoundRect,0.250000X0.625000X-0.400000X0.625000X0.400000X-0.625000X0.400000X-0.625000X-0.400000X0*%
%ADD18RoundRect,0.250000X0.412500X0.650000X-0.412500X0.650000X-0.412500X-0.650000X0.412500X-0.650000X0*%
G04 APERTURE END LIST*
D10*
%TO.C,J13*%
X161145200Y-114528300D03*
X163685200Y-117838300D03*
%TD*%
D11*
%TO.C,J12*%
X154800700Y-105528500D03*
X151490700Y-108068500D03*
X154800700Y-110608500D03*
%TD*%
D10*
%TO.C,J11*%
X158428300Y-107484600D03*
X160968300Y-110794600D03*
%TD*%
%TO.C,J10*%
X158534400Y-100436400D03*
X161074400Y-103746400D03*
%TD*%
D11*
%TO.C,J9*%
X154907400Y-91933000D03*
X151597400Y-94473000D03*
X154907400Y-97013000D03*
%TD*%
D10*
%TO.C,J8*%
X158715700Y-93290400D03*
X161255700Y-96600400D03*
%TD*%
%TO.C,J7*%
X158262000Y-86042500D03*
X160802000Y-89352500D03*
%TD*%
D11*
%TO.C,J6*%
X154909700Y-80726800D03*
X151599700Y-83266800D03*
X154909700Y-85806800D03*
%TD*%
D10*
%TO.C,J2*%
X158251300Y-79044600D03*
X160791300Y-82354600D03*
%TD*%
D12*
%TO.C,C3*%
X145039800Y-118025700D03*
X145039800Y-121150700D03*
%TD*%
D13*
%TO.C,R1*%
X128210200Y-79985300D03*
X131310200Y-79985300D03*
%TD*%
D14*
%TO.C,C8*%
X164977800Y-86638200D03*
X164977800Y-83513200D03*
%TD*%
D15*
%TO.C,R10*%
X165154800Y-101617500D03*
X165154800Y-104717500D03*
%TD*%
%TO.C,R9*%
X165062500Y-88691700D03*
X165062500Y-91791700D03*
%TD*%
D12*
%TO.C,C15*%
X165117100Y-106930900D03*
X165117100Y-110055900D03*
%TD*%
D16*
%TO.C,J4*%
X148585100Y-70282000D03*
X148585100Y-75332000D03*
X146045100Y-70282000D03*
X146045100Y-75332000D03*
X143505100Y-70282000D03*
X143505100Y-75332000D03*
%TD*%
D17*
%TO.C,R8*%
X165064200Y-79297600D03*
X165064200Y-76197600D03*
%TD*%
D18*
%TO.C,C5*%
X151408000Y-125541700D03*
X154533000Y-125541700D03*
%TD*%
D12*
%TO.C,C11*%
X165137700Y-95807100D03*
X165137700Y-98932100D03*
%TD*%
M02*
