%TF.GenerationSoftware,KiCad,Pcbnew,8.0.1-rc1*%
%TF.CreationDate,2024-11-22T07:55:53-08:00*%
%TF.ProjectId,AMS - CANBus Sensor - Vacuum,414d5320-2d20-4434-914e-427573205365,rev?*%
%TF.SameCoordinates,Original*%
%TF.FileFunction,Copper,L2,Bot*%
%TF.FilePolarity,Positive*%
%FSLAX46Y46*%
G04 Gerber Fmt 4.6, Leading zero omitted, Abs format (unit mm)*
G04 Created by KiCad (PCBNEW 8.0.1-rc1) date 2024-11-22 07:55:53*
%MOMM*%
%LPD*%
G01*
G04 APERTURE LIST*
G04 Aperture macros list*
%AMRoundRect*
0 Rectangle with rounded corners*
0 $1 Rounding radius*
0 $2 $3 $4 $5 $6 $7 $8 $9 X,Y pos of 4 corners*
0 Add a 4 corners polygon primitive as box body*
4,1,4,$2,$3,$4,$5,$6,$7,$8,$9,$2,$3,0*
0 Add four circle primitives for the rounded corners*
1,1,$1+$1,$2,$3*
1,1,$1+$1,$4,$5*
1,1,$1+$1,$6,$7*
1,1,$1+$1,$8,$9*
0 Add four rect primitives between the rounded corners*
20,1,$1+$1,$2,$3,$4,$5,0*
20,1,$1+$1,$4,$5,$6,$7,0*
20,1,$1+$1,$6,$7,$8,$9,0*
20,1,$1+$1,$8,$9,$2,$3,0*%
G04 Aperture macros list end*
%TA.AperFunction,ComponentPad*%
%ADD10C,2.400000*%
%TD*%
%TA.AperFunction,ComponentPad*%
%ADD11R,1.500000X1.500000*%
%TD*%
%TA.AperFunction,ComponentPad*%
%ADD12C,1.500000*%
%TD*%
%TA.AperFunction,ComponentPad*%
%ADD13C,1.200000*%
%TD*%
%TA.AperFunction,SMDPad,CuDef*%
%ADD14RoundRect,0.250000X0.400000X0.625000X-0.400000X0.625000X-0.400000X-0.625000X0.400000X-0.625000X0*%
%TD*%
%TA.AperFunction,ComponentPad*%
%ADD15R,1.920000X1.920000*%
%TD*%
%TA.AperFunction,ComponentPad*%
%ADD16C,1.920000*%
%TD*%
%TA.AperFunction,SMDPad,CuDef*%
%ADD17R,1.528000X0.650000*%
%TD*%
%TA.AperFunction,SMDPad,CuDef*%
%ADD18R,1.400000X0.300000*%
%TD*%
%TA.AperFunction,SMDPad,CuDef*%
%ADD19R,1.400000X0.600000*%
%TD*%
%TA.AperFunction,SMDPad,CuDef*%
%ADD20R,1.000000X0.550000*%
%TD*%
%TA.AperFunction,SMDPad,CuDef*%
%ADD21RoundRect,0.250000X0.412500X0.650000X-0.412500X0.650000X-0.412500X-0.650000X0.412500X-0.650000X0*%
%TD*%
%TA.AperFunction,SMDPad,CuDef*%
%ADD22RoundRect,0.250000X0.650000X-0.412500X0.650000X0.412500X-0.650000X0.412500X-0.650000X-0.412500X0*%
%TD*%
%TA.AperFunction,ComponentPad*%
%ADD23C,1.600000*%
%TD*%
%TA.AperFunction,ComponentPad*%
%ADD24O,1.600000X1.600000*%
%TD*%
%TA.AperFunction,ComponentPad*%
%ADD25R,2.200000X2.200000*%
%TD*%
%TA.AperFunction,ComponentPad*%
%ADD26C,2.200000*%
%TD*%
%TA.AperFunction,ComponentPad*%
%ADD27R,1.365000X1.365000*%
%TD*%
%TA.AperFunction,ComponentPad*%
%ADD28C,1.365000*%
%TD*%
%TA.AperFunction,ComponentPad*%
%ADD29R,1.700000X1.700000*%
%TD*%
%TA.AperFunction,ComponentPad*%
%ADD30O,1.700000X1.700000*%
%TD*%
%TA.AperFunction,ComponentPad*%
%ADD31R,1.600000X1.600000*%
%TD*%
%TA.AperFunction,ComponentPad*%
%ADD32R,1.050000X1.500000*%
%TD*%
%TA.AperFunction,ComponentPad*%
%ADD33O,1.050000X1.500000*%
%TD*%
%TA.AperFunction,SMDPad,CuDef*%
%ADD34RoundRect,0.250000X-0.412500X-0.650000X0.412500X-0.650000X0.412500X0.650000X-0.412500X0.650000X0*%
%TD*%
%TA.AperFunction,SMDPad,CuDef*%
%ADD35RoundRect,0.150000X-0.150000X0.825000X-0.150000X-0.825000X0.150000X-0.825000X0.150000X0.825000X0*%
%TD*%
%TA.AperFunction,SMDPad,CuDef*%
%ADD36RoundRect,0.250000X-0.625000X0.400000X-0.625000X-0.400000X0.625000X-0.400000X0.625000X0.400000X0*%
%TD*%
%TA.AperFunction,SMDPad,CuDef*%
%ADD37RoundRect,0.150000X0.875000X0.150000X-0.875000X0.150000X-0.875000X-0.150000X0.875000X-0.150000X0*%
%TD*%
%TA.AperFunction,SMDPad,CuDef*%
%ADD38RoundRect,0.250000X-0.400000X-0.625000X0.400000X-0.625000X0.400000X0.625000X-0.400000X0.625000X0*%
%TD*%
%TA.AperFunction,SMDPad,CuDef*%
%ADD39RoundRect,0.250000X-0.650000X0.412500X-0.650000X-0.412500X0.650000X-0.412500X0.650000X0.412500X0*%
%TD*%
%TA.AperFunction,ViaPad*%
%ADD40C,0.600000*%
%TD*%
%TA.AperFunction,Conductor*%
%ADD41C,0.200000*%
%TD*%
%TA.AperFunction,Conductor*%
%ADD42C,0.889000*%
%TD*%
G04 APERTURE END LIST*
D10*
%TO.P,U5,1,1*%
%TO.N,Net-(Q1-Pad3)*%
X134999500Y-70018000D03*
%TO.P,U5,2,2*%
X134999500Y-73418000D03*
%TO.P,U5,3,3*%
%TO.N,+VDC*%
X125079500Y-70018000D03*
%TO.P,U5,4,4*%
X125079500Y-73418000D03*
%TD*%
D11*
%TO.P,Reset1,1,NO_1*%
%TO.N,/BareMinAtmel328P/RESET*%
X130246900Y-113672200D03*
D12*
%TO.P,Reset1,2,NO_2*%
%TO.N,unconnected-(Reset1-NO_2-Pad2)*%
X123746900Y-113672200D03*
%TO.P,Reset1,3,COM_1*%
%TO.N,GND*%
X130246900Y-109172200D03*
%TO.P,Reset1,4,COM_2*%
%TO.N,unconnected-(Reset1-COM_2-Pad4)*%
X123746900Y-109172200D03*
%TD*%
D13*
%TO.P,R15,1*%
%TO.N,Net-(IC9-RG_1)*%
X157647100Y-104798200D03*
%TO.P,R15,2*%
%TO.N,Net-(IC9-RG_2)*%
X173147100Y-104798200D03*
%TD*%
%TO.P,R14,1*%
%TO.N,Net-(IC8-RG_1)*%
X159993000Y-79369700D03*
%TO.P,R14,2*%
%TO.N,Net-(IC8-RG_2)*%
X175493000Y-79369700D03*
%TD*%
D14*
%TO.P,R9,1*%
%TO.N,+5V*%
X130559200Y-104767900D03*
%TO.P,R9,2*%
%TO.N,+2V5*%
X127459200Y-104767900D03*
%TD*%
D15*
%TO.P,Q1,1*%
%TO.N,Net-(Q1-Pad1)*%
X142661000Y-73200500D03*
D16*
%TO.P,Q1,2*%
%TO.N,Net-(J1-Pin_1)*%
X142661000Y-70660500D03*
%TO.P,Q1,3*%
%TO.N,Net-(Q1-Pad3)*%
X142661000Y-68120500D03*
%TD*%
D17*
%TO.P,IC9,1,-IN*%
%TO.N,Net-(IC6-OUTPUT_B)*%
X162810900Y-97562200D03*
%TO.P,IC9,2,RG_1*%
%TO.N,Net-(IC9-RG_1)*%
X162810900Y-98832200D03*
%TO.P,IC9,3,RG_2*%
%TO.N,Net-(IC9-RG_2)*%
X162810900Y-100102200D03*
%TO.P,IC9,4,+IN*%
%TO.N,Net-(IC6-OUTPUT_A)*%
X162810900Y-101372200D03*
%TO.P,IC9,5,-VS*%
%TO.N,GND*%
X157388900Y-101372200D03*
%TO.P,IC9,6,REF*%
%TO.N,/ADS1115/AIN0*%
X157388900Y-100102200D03*
%TO.P,IC9,7,OUT*%
%TO.N,/ADS1115/AIN2*%
X157388900Y-98832200D03*
%TO.P,IC9,8,+VS*%
%TO.N,+5V*%
X157388900Y-97562200D03*
%TD*%
%TO.P,IC8,1,-IN*%
%TO.N,Net-(IC4-OUTPUT_B)*%
X162840700Y-82794100D03*
%TO.P,IC8,2,RG_1*%
%TO.N,Net-(IC8-RG_1)*%
X162840700Y-84064100D03*
%TO.P,IC8,3,RG_2*%
%TO.N,Net-(IC8-RG_2)*%
X162840700Y-85334100D03*
%TO.P,IC8,4,+IN*%
%TO.N,Net-(IC4-OUTPUT_A)*%
X162840700Y-86604100D03*
%TO.P,IC8,5,-VS*%
%TO.N,GND*%
X157418700Y-86604100D03*
%TO.P,IC8,6,REF*%
%TO.N,/ADS1115/AIN0*%
X157418700Y-85334100D03*
%TO.P,IC8,7,OUT*%
%TO.N,/ADS1115/AIN1*%
X157418700Y-84064100D03*
%TO.P,IC8,8,+VS*%
%TO.N,+5V*%
X157418700Y-82794100D03*
%TD*%
D18*
%TO.P,IC3,1,ADDR*%
%TO.N,Net-(IC3-ADDR)*%
X151556800Y-91502700D03*
%TO.P,IC3,2,ALERT/RDY*%
%TO.N,/ADS1115/Alert{slash}Ready*%
X151556800Y-92002700D03*
%TO.P,IC3,3,GND*%
%TO.N,GND*%
X151556800Y-92502700D03*
%TO.P,IC3,4,AIN0*%
%TO.N,/ADS1115/AIN0*%
X151556800Y-93002700D03*
%TO.P,IC3,5,AIN1*%
%TO.N,/ADS1115/AIN1*%
X151556800Y-93502700D03*
%TO.P,IC3,6,AIN2*%
%TO.N,/ADS1115/AIN2*%
X147156800Y-93502700D03*
%TO.P,IC3,7,AIN3*%
%TO.N,/ADS1115/AIN3*%
X147156800Y-93002700D03*
%TO.P,IC3,8,VDD*%
%TO.N,+5V*%
X147156800Y-92502700D03*
%TO.P,IC3,9,SDA*%
%TO.N,/SDAB*%
X147156800Y-92002700D03*
%TO.P,IC3,10,SCL*%
%TO.N,/SCLB*%
X147156800Y-91502700D03*
%TD*%
D19*
%TO.P,IC2,1,VIN*%
%TO.N,+VDC*%
X123047500Y-80184900D03*
%TO.P,IC2,2,GND*%
%TO.N,GND*%
X123047500Y-81134900D03*
%TO.P,IC2,3,NC*%
%TO.N,unconnected-(IC2-NC-Pad3)*%
X123047500Y-82084900D03*
%TO.P,IC2,4,~{SHDN}*%
%TO.N,+VDC*%
X120547500Y-82084900D03*
%TO.P,IC2,5,VOUT*%
%TO.N,+10V*%
X120547500Y-80184900D03*
%TD*%
D20*
%TO.P,D1,1,CATHODE_1*%
%TO.N,CANBUS_H*%
X166260202Y-70579772D03*
%TO.P,D1,2,CATHODE_2*%
%TO.N,CANBUS_L*%
X166260202Y-69279772D03*
%TO.P,D1,3,COMMON_ANODE*%
%TO.N,GND*%
X168160202Y-69929772D03*
%TD*%
D21*
%TO.P,C11,1*%
%TO.N,+5V*%
X130974964Y-97474229D03*
%TO.P,C11,2*%
%TO.N,GND*%
X127849964Y-97474229D03*
%TD*%
D22*
%TO.P,C9,1*%
%TO.N,+10V*%
X117397143Y-80327871D03*
%TO.P,C9,2*%
%TO.N,GND*%
X117397143Y-77202871D03*
%TD*%
D21*
%TO.P,C8,1*%
%TO.N,+VDC*%
X123268036Y-77433007D03*
%TO.P,C8,2*%
%TO.N,GND*%
X120143036Y-77433007D03*
%TD*%
D23*
%TO.P,R7,1*%
%TO.N,Net-(J5-Pin_2)*%
X157377500Y-59141700D03*
D24*
%TO.P,R7,2*%
%TO.N,CANBUS_L*%
X159917500Y-59141700D03*
%TD*%
D25*
%TO.P,J1,1,Pin_1*%
%TO.N,Net-(J1-Pin_1)*%
X161878800Y-75088800D03*
D26*
%TO.P,J1,2,Pin_2*%
%TO.N,GND*%
X161878800Y-72548800D03*
%TO.P,J1,3,Pin_3*%
%TO.N,CANBUS_H*%
X161878800Y-70008800D03*
%TO.P,J1,4,Pin_4*%
%TO.N,CANBUS_L*%
X161878800Y-67468800D03*
%TD*%
D27*
%TO.P,IC6,1,VCC*%
%TO.N,+10V*%
X154212600Y-103245600D03*
D28*
%TO.P,IC6,2,OUTPUT_A*%
%TO.N,Net-(IC6-OUTPUT_A)*%
X154212600Y-100745600D03*
%TO.P,IC6,3,GROUND*%
%TO.N,GND*%
X154212600Y-98245600D03*
%TO.P,IC6,4,OUTPUT_B*%
%TO.N,Net-(IC6-OUTPUT_B)*%
X154212600Y-95745600D03*
%TD*%
D23*
%TO.P,NTC1,1*%
%TO.N,/BareMinAtmel328P/PC0-A0*%
X145636900Y-114199700D03*
D24*
%TO.P,NTC1,2*%
%TO.N,+5V*%
X145636900Y-116739700D03*
%TD*%
D29*
%TO.P,J3,1,Pin_1*%
%TO.N,GND*%
X146254600Y-120744200D03*
D30*
%TO.P,J3,2,Pin_2*%
%TO.N,unconnected-(J3-Pin_2-Pad2)*%
X143714600Y-120744200D03*
%TO.P,J3,3,Pin_3*%
%TO.N,+5V*%
X141174600Y-120744200D03*
%TO.P,J3,4,Pin_4*%
%TO.N,/BareMinAtmel328P/PD0-RX*%
X138634600Y-120744200D03*
%TO.P,J3,5,Pin_5*%
%TO.N,/BareMinAtmel328P/PD1-TX*%
X136094600Y-120744200D03*
%TO.P,J3,6,Pin_6*%
%TO.N,Net-(J3-Pin_6)*%
X133554600Y-120744200D03*
%TD*%
D27*
%TO.P,IC4,1,VCC*%
%TO.N,+10V*%
X154212600Y-88411000D03*
D28*
%TO.P,IC4,2,OUTPUT_A*%
%TO.N,Net-(IC4-OUTPUT_A)*%
X154212600Y-85911000D03*
%TO.P,IC4,3,GROUND*%
%TO.N,GND*%
X154212600Y-83411000D03*
%TO.P,IC4,4,OUTPUT_B*%
%TO.N,Net-(IC4-OUTPUT_B)*%
X154212600Y-80911000D03*
%TD*%
D23*
%TO.P,R6,1*%
%TO.N,Net-(U4-Rs)*%
X138245100Y-59523000D03*
D24*
%TO.P,R6,2*%
%TO.N,GND*%
X138245100Y-62063000D03*
%TD*%
D29*
%TO.P,Powerboard1,1,Pin_1*%
%TO.N,+VDC*%
X130976300Y-87552600D03*
D30*
%TO.P,Powerboard1,2,Pin_2*%
%TO.N,+5V*%
X130976300Y-90092600D03*
%TO.P,Powerboard1,3,Pin_3*%
%TO.N,GND*%
X130976300Y-92632600D03*
%TD*%
D31*
%TO.P,U2,1,~{RESET}/PC6*%
%TO.N,/BareMinAtmel328P/RESET*%
X134701200Y-78351400D03*
D24*
%TO.P,U2,2,PD0*%
%TO.N,/BareMinAtmel328P/PD0-RX*%
X134701200Y-80891400D03*
%TO.P,U2,3,PD1*%
%TO.N,/BareMinAtmel328P/PD1-TX*%
X134701200Y-83431400D03*
%TO.P,U2,4,PD2*%
%TO.N,/BareMinAtmel328P/PD2-D2*%
X134701200Y-85971400D03*
%TO.P,U2,5,PD3*%
%TO.N,/ADS1115/Alert{slash}Ready*%
X134701200Y-88511400D03*
%TO.P,U2,6,PD4*%
%TO.N,/BareMinAtmel328P/PD4-D4*%
X134701200Y-91051400D03*
%TO.P,U2,7,VCC*%
%TO.N,+5V*%
X134701200Y-93591400D03*
%TO.P,U2,8,GND*%
%TO.N,GND*%
X134701200Y-96131400D03*
%TO.P,U2,9,XTAL1/PB6*%
%TO.N,Net-(U2-XTAL1{slash}PB6)*%
X134701200Y-98671400D03*
%TO.P,U2,10,XTAL2/PB7*%
%TO.N,Net-(U2-XTAL2{slash}PB7)*%
X134701200Y-101211400D03*
%TO.P,U2,11,PD5*%
%TO.N,/BareMinAtmel328P/PD5-D5*%
X134701200Y-103751400D03*
%TO.P,U2,12,PD6*%
%TO.N,/BareMinAtmel328P/PD6-D6*%
X134701200Y-106291400D03*
%TO.P,U2,13,PD7*%
%TO.N,/BareMinAtmel328P/PD7-D7*%
X134701200Y-108831400D03*
%TO.P,U2,14,PB0*%
%TO.N,/BareMinAtmel328P/PB0-D8*%
X134701200Y-111371400D03*
%TO.P,U2,15,PB1*%
%TO.N,/BareMinAtmel328P/PB1-D9*%
X142321200Y-111371400D03*
%TO.P,U2,16,PB2*%
%TO.N,/BareMinAtmel328P/PB2-D10-SS*%
X142321200Y-108831400D03*
%TO.P,U2,17,PB3*%
%TO.N,/BareMinAtmel328P/PB3-D11-MOSI*%
X142321200Y-106291400D03*
%TO.P,U2,18,PB4*%
%TO.N,/BareMinAtmel328P/PB4-D12-MISO*%
X142321200Y-103751400D03*
%TO.P,U2,19,PB5*%
%TO.N,/BareMinAtmel328P/PB5-D13-SCK*%
X142321200Y-101211400D03*
%TO.P,U2,20,AVCC*%
%TO.N,+5V*%
X142321200Y-98671400D03*
%TO.P,U2,21,AREF*%
%TO.N,/BareMinAtmel328P/AREF*%
X142321200Y-96131400D03*
%TO.P,U2,22,GND*%
%TO.N,GND*%
X142321200Y-93591400D03*
%TO.P,U2,23,PC0*%
%TO.N,/BareMinAtmel328P/PC0-A0*%
X142321200Y-91051400D03*
%TO.P,U2,24,PC1*%
%TO.N,/BareMinAtmel328P/PC1-A1*%
X142321200Y-88511400D03*
%TO.P,U2,25,PC2*%
%TO.N,/BareMinAtmel328P/PC2-A2*%
X142321200Y-85971400D03*
%TO.P,U2,26,PC3*%
%TO.N,/BareMinAtmel328P/PC3-A3*%
X142321200Y-83431400D03*
%TO.P,U2,27,PC4*%
%TO.N,/SDAB*%
X142321200Y-80891400D03*
%TO.P,U2,28,PC5*%
%TO.N,/SCLB*%
X142321200Y-78351400D03*
%TD*%
D29*
%TO.P,J5,1,Pin_1*%
%TO.N,CANBUS_H*%
X157311000Y-62619500D03*
D30*
%TO.P,J5,2,Pin_2*%
%TO.N,Net-(J5-Pin_2)*%
X159851000Y-62619500D03*
%TD*%
D12*
%TO.P,Y2,1,1*%
%TO.N,Net-(U3-OSC1)*%
X153001300Y-110501200D03*
%TO.P,Y2,2,2*%
%TO.N,Net-(U3-OSC2)*%
X157881300Y-110501200D03*
%TD*%
%TO.P,Y1,1,1*%
%TO.N,Net-(U2-XTAL2{slash}PB7)*%
X152976400Y-119755600D03*
%TO.P,Y1,2,2*%
%TO.N,Net-(U2-XTAL1{slash}PB6)*%
X157856400Y-119755600D03*
%TD*%
D32*
%TO.P,U1,1,REF*%
%TO.N,+2V5*%
X169814800Y-111629200D03*
D33*
%TO.P,U1,2,A*%
%TO.N,GND*%
X168544800Y-111629200D03*
%TO.P,U1,3,K*%
%TO.N,+2V5*%
X167274800Y-111629200D03*
%TD*%
D34*
%TO.P,C2,1*%
%TO.N,Net-(U2-XTAL1{slash}PB6)*%
X151071100Y-115585900D03*
%TO.P,C2,2*%
%TO.N,GND*%
X154196100Y-115585900D03*
%TD*%
D35*
%TO.P,U4,1,TXD*%
%TO.N,/CANBUS-MCP2515/TXtoCANTC*%
X141995000Y-58462300D03*
%TO.P,U4,2,VSS*%
%TO.N,GND*%
X143265000Y-58462300D03*
%TO.P,U4,3,VDD*%
%TO.N,+5V*%
X144535000Y-58462300D03*
%TO.P,U4,4,RXD*%
%TO.N,/CANBUS-MCP2515/RXtoCANTC*%
X145805000Y-58462300D03*
%TO.P,U4,5,Vref*%
%TO.N,unconnected-(U4-Vref-Pad5)*%
X145805000Y-63412300D03*
%TO.P,U4,6,CANL*%
%TO.N,CANBUS_L*%
X144535000Y-63412300D03*
%TO.P,U4,7,CANH*%
%TO.N,CANBUS_H*%
X143265000Y-63412300D03*
%TO.P,U4,8,Rs*%
%TO.N,Net-(U4-Rs)*%
X141995000Y-63412300D03*
%TD*%
D36*
%TO.P,R1,1*%
%TO.N,Net-(Q1-Pad1)*%
X139114500Y-72473500D03*
%TO.P,R1,2*%
%TO.N,GND*%
X139114500Y-75573500D03*
%TD*%
%TO.P,R4,1*%
%TO.N,+5V*%
X126958000Y-109832000D03*
%TO.P,R4,2*%
%TO.N,/BareMinAtmel328P/RESET*%
X126958000Y-112932000D03*
%TD*%
D21*
%TO.P,C4,1*%
%TO.N,Net-(U3-OSC2)*%
X159573600Y-115561000D03*
%TO.P,C4,2*%
%TO.N,GND*%
X156448600Y-115561000D03*
%TD*%
D37*
%TO.P,U3,1,TXCAN*%
%TO.N,/CANBUS-MCP2515/TXtoCANTC*%
X156456400Y-68595700D03*
%TO.P,U3,2,RXCAN*%
%TO.N,/CANBUS-MCP2515/RXtoCANTC*%
X156456400Y-69865700D03*
%TO.P,U3,3,CLKOUT/SOF*%
%TO.N,unconnected-(U3-CLKOUT{slash}SOF-Pad3)*%
X156456400Y-71135700D03*
%TO.P,U3,4,~{TX0RTS}*%
%TO.N,unconnected-(U3-~{TX0RTS}-Pad4)*%
X156456400Y-72405700D03*
%TO.P,U3,5,~{TX1RTS}*%
%TO.N,unconnected-(U3-~{TX1RTS}-Pad5)*%
X156456400Y-73675700D03*
%TO.P,U3,6,~{TX2RTS}*%
%TO.N,unconnected-(U3-~{TX2RTS}-Pad6)*%
X156456400Y-74945700D03*
%TO.P,U3,7,OSC2*%
%TO.N,Net-(U3-OSC2)*%
X156456400Y-76215700D03*
%TO.P,U3,8,OSC1*%
%TO.N,Net-(U3-OSC1)*%
X156456400Y-77485700D03*
%TO.P,U3,9,VSS*%
%TO.N,GND*%
X156456400Y-78755700D03*
%TO.P,U3,10,~{RX1BF}*%
%TO.N,unconnected-(U3-~{RX1BF}-Pad10)*%
X147156400Y-78755700D03*
%TO.P,U3,11,~{RX0BF}*%
%TO.N,unconnected-(U3-~{RX0BF}-Pad11)*%
X147156400Y-77485700D03*
%TO.P,U3,12,~{INT}*%
%TO.N,/BareMinAtmel328P/PD2-D2*%
X147156400Y-76215700D03*
%TO.P,U3,13,SCK*%
%TO.N,/BareMinAtmel328P/PB5-D13-SCK*%
X147156400Y-74945700D03*
%TO.P,U3,14,SI*%
%TO.N,/BareMinAtmel328P/PB3-D11-MOSI*%
X147156400Y-73675700D03*
%TO.P,U3,15,SO*%
%TO.N,/BareMinAtmel328P/PB4-D12-MISO*%
X147156400Y-72405700D03*
%TO.P,U3,16,~{CS}*%
%TO.N,/BareMinAtmel328P/PB1-D9*%
X147156400Y-71135700D03*
%TO.P,U3,17,~{RESET}*%
%TO.N,Net-(U3-~{RESET})*%
X147156400Y-69865700D03*
%TO.P,U3,18,VDD*%
%TO.N,+5V*%
X147156400Y-68595700D03*
%TD*%
D36*
%TO.P,R3,1*%
%TO.N,GND*%
X145644300Y-108538900D03*
%TO.P,R3,2*%
%TO.N,/BareMinAtmel328P/PC0-A0*%
X145644300Y-111638900D03*
%TD*%
D21*
%TO.P,C1,1*%
%TO.N,Net-(J3-Pin_6)*%
X135877700Y-117497000D03*
%TO.P,C1,2*%
%TO.N,/BareMinAtmel328P/RESET*%
X132752700Y-117497000D03*
%TD*%
D38*
%TO.P,R13,1*%
%TO.N,+5V*%
X136988900Y-79844800D03*
%TO.P,R13,2*%
%TO.N,/SCLB*%
X140088900Y-79844800D03*
%TD*%
D36*
%TO.P,R2,1*%
%TO.N,/BareMinAtmel328P/AREF*%
X138549100Y-95855800D03*
%TO.P,R2,2*%
%TO.N,+5V*%
X138549100Y-98955800D03*
%TD*%
D21*
%TO.P,C10,1*%
%TO.N,+2V5*%
X171147100Y-108263700D03*
%TO.P,C10,2*%
%TO.N,GND*%
X168022100Y-108263700D03*
%TD*%
D14*
%TO.P,R8,1*%
%TO.N,GND*%
X158166800Y-92464600D03*
%TO.P,R8,2*%
%TO.N,Net-(IC3-ADDR)*%
X155066800Y-92464600D03*
%TD*%
D38*
%TO.P,R12,1*%
%TO.N,+5V*%
X137056100Y-83516600D03*
%TO.P,R12,2*%
%TO.N,/SDAB*%
X140156100Y-83516600D03*
%TD*%
D39*
%TO.P,C7,1*%
%TO.N,+5V*%
X152271300Y-60976900D03*
%TO.P,C7,2*%
%TO.N,GND*%
X152271300Y-64101900D03*
%TD*%
%TO.P,C6,1*%
%TO.N,+5V*%
X149801400Y-60980600D03*
%TO.P,C6,2*%
%TO.N,GND*%
X149801400Y-64105600D03*
%TD*%
D17*
%TO.P,IC1,1,OUT_A*%
%TO.N,/ADS1115/AIN3*%
X123989900Y-100817100D03*
%TO.P,IC1,2,-INA*%
X123989900Y-102087100D03*
%TO.P,IC1,3,+IN_A*%
%TO.N,Net-(IC1-+IN_A)*%
X123989900Y-103357100D03*
%TO.P,IC1,4,V-*%
%TO.N,GND*%
X123989900Y-104627100D03*
%TO.P,IC1,5,+INB*%
%TO.N,+2V5*%
X118567900Y-104627100D03*
%TO.P,IC1,6,-IN_B*%
%TO.N,/ADS1115/AIN0*%
X118567900Y-103357100D03*
%TO.P,IC1,7,OUTB*%
X118567900Y-102087100D03*
%TO.P,IC1,8,V+*%
%TO.N,+5V*%
X118567900Y-100817100D03*
%TD*%
D40*
%TO.N,Net-(IC6-OUTPUT_A)*%
X161213100Y-101189400D03*
%TO.N,Net-(IC6-OUTPUT_B)*%
X160513900Y-96831600D03*
%TO.N,Net-(IC4-OUTPUT_A)*%
X161447600Y-85911000D03*
%TO.N,Net-(IC4-OUTPUT_B)*%
X161775000Y-80911000D03*
%TO.N,/ADS1115/AIN2*%
X147586200Y-94242500D03*
X153143600Y-94705800D03*
%TO.N,/ADS1115/Alert{slash}Ready*%
X150641300Y-89839500D03*
%TO.N,Net-(IC1-+IN_A)*%
X125260600Y-103081700D03*
%TO.N,Net-(U3-~{RESET})*%
X144668200Y-69720800D03*
%TO.N,+2V5*%
X132131200Y-105169500D03*
%TO.N,+10V*%
X126647800Y-79481400D03*
%TO.N,/ADS1115/AIN0*%
X116866100Y-105230600D03*
%TO.N,/ADS1115/AIN3*%
X145575200Y-96856600D03*
X116799200Y-102045700D03*
%TO.N,/BareMinAtmel328P/PD1-TX*%
X133070600Y-89659900D03*
%TO.N,/BareMinAtmel328P/PB4-D12-MISO*%
X152428100Y-66517200D03*
%TO.N,/BareMinAtmel328P/PB3-D11-MOSI*%
X150424300Y-69869400D03*
%TO.N,/BareMinAtmel328P/PB5-D13-SCK*%
X145581000Y-74799700D03*
%TO.N,+5V*%
X156118300Y-97744900D03*
X153111200Y-72658300D03*
X149122600Y-66084300D03*
X148008700Y-61592000D03*
%TD*%
D41*
%TO.N,+VDC*%
X123268036Y-77227764D02*
X125079500Y-75416300D01*
X123268036Y-77433007D02*
X123268036Y-77227764D01*
X123268036Y-77433007D02*
X123268036Y-79964364D01*
X123268036Y-79964364D02*
X123047500Y-80184900D01*
%TO.N,GND*%
X115143330Y-79456684D02*
X117397143Y-77202871D01*
X117919328Y-82697300D02*
X117916424Y-82700204D01*
X117916424Y-82700204D02*
X115143330Y-82700204D01*
X122045800Y-82183700D02*
X121532200Y-82697300D01*
X122045800Y-81134900D02*
X122045800Y-82183700D01*
X121532200Y-82697300D02*
X117919328Y-82697300D01*
X123047500Y-81134900D02*
X122045800Y-81134900D01*
X115143330Y-82700204D02*
X115143330Y-79456684D01*
X119912900Y-77202871D02*
X120143036Y-77433007D01*
X117397143Y-77202871D02*
X119912900Y-77202871D01*
%TO.N,+10V*%
X117540114Y-80184900D02*
X117397143Y-80327871D01*
X120547500Y-80184900D02*
X117540114Y-80184900D01*
%TO.N,GND*%
X127849964Y-95758936D02*
X130976300Y-92632600D01*
X127849964Y-97474229D02*
X127849964Y-95758936D01*
%TO.N,+5V*%
X129834200Y-100190400D02*
X130974964Y-99049636D01*
X130974964Y-99049636D02*
X130974964Y-97474229D01*
X132151900Y-96530800D02*
X131918393Y-96530800D01*
X131918393Y-96530800D02*
X130974964Y-97474229D01*
%TO.N,+2V5*%
X131415603Y-106308576D02*
X128999876Y-106308576D01*
X132131200Y-105592979D02*
X131415603Y-106308576D01*
X132131200Y-105169500D02*
X132131200Y-105592979D01*
X128999876Y-106308576D02*
X127459200Y-104767900D01*
X126693400Y-104002100D02*
X127459200Y-104767900D01*
X118567900Y-104627100D02*
X119192900Y-104002100D01*
X119192900Y-104002100D02*
X126693400Y-104002100D01*
X171147100Y-110296900D02*
X169814800Y-111629200D01*
X171147100Y-108263700D02*
X171147100Y-110296900D01*
%TO.N,GND*%
X168544800Y-108786400D02*
X168544800Y-111629200D01*
X168022100Y-108263700D02*
X168544800Y-108786400D01*
X165541174Y-72548800D02*
X161878800Y-72548800D01*
X168160202Y-69929772D02*
X165541174Y-72548800D01*
%TO.N,CANBUS_H*%
X162449772Y-70579772D02*
X161878800Y-70008800D01*
X166260202Y-70579772D02*
X162449772Y-70579772D01*
%TO.N,CANBUS_L*%
X163689772Y-69279772D02*
X161878800Y-67468800D01*
X166260202Y-69279772D02*
X163689772Y-69279772D01*
%TO.N,/ADS1115/AIN0*%
X118417882Y-107234644D02*
X116866100Y-105682862D01*
X124240603Y-107234644D02*
X118417882Y-107234644D01*
X125125133Y-113489633D02*
X125125133Y-108119174D01*
X116866100Y-105682862D02*
X116866100Y-105230600D01*
X125125133Y-108119174D02*
X124240603Y-107234644D01*
X125781800Y-114146300D02*
X125125133Y-113489633D01*
%TO.N,/CANBUS-MCP2515/TXtoCANTC*%
X162104556Y-59144956D02*
X160134900Y-57175300D01*
X141995000Y-58073800D02*
X141995000Y-58462300D01*
X162104556Y-60874076D02*
X162104556Y-59144956D01*
X169935247Y-72187353D02*
X169935247Y-68704767D01*
X165230400Y-76892200D02*
X169935247Y-72187353D01*
X160484600Y-76892200D02*
X165230400Y-76892200D01*
X142893500Y-57175300D02*
X141995000Y-58073800D01*
X157500100Y-71770700D02*
X159065700Y-73336300D01*
X169935247Y-68704767D02*
X162104556Y-60874076D01*
X155106400Y-71575100D02*
X155302000Y-71770700D01*
X155302000Y-71770700D02*
X157500100Y-71770700D01*
X159065700Y-73336300D02*
X159065700Y-75473300D01*
X155106400Y-69489300D02*
X155106400Y-71575100D01*
X156000000Y-68595700D02*
X155106400Y-69489300D01*
X160134900Y-57175300D02*
X142893500Y-57175300D01*
X159065700Y-75473300D02*
X160484600Y-76892200D01*
X156456400Y-68595700D02*
X156000000Y-68595700D01*
%TO.N,/CANBUS-MCP2515/RXtoCANTC*%
X146666400Y-57600900D02*
X145805000Y-58462300D01*
X161698700Y-59307100D02*
X159992500Y-57600900D01*
X169535247Y-69080625D02*
X161698700Y-61244078D01*
X169535247Y-72019353D02*
X169535247Y-69080625D01*
X161698700Y-61244078D02*
X161698700Y-59307100D01*
X163103800Y-76490500D02*
X164404600Y-75189700D01*
X159992500Y-57600900D02*
X146666400Y-57600900D01*
X164404600Y-75189700D02*
X166364900Y-75189700D01*
X160650900Y-76490500D02*
X163103800Y-76490500D01*
X166364900Y-75189700D02*
X169535247Y-72019353D01*
X159508700Y-72470200D02*
X159508700Y-75348300D01*
X159508700Y-75348300D02*
X160650900Y-76490500D01*
X156904200Y-69865700D02*
X159508700Y-72470200D01*
X156456400Y-69865700D02*
X156904200Y-69865700D01*
%TO.N,Net-(IC9-RG_1)*%
X160112200Y-102333100D02*
X157647100Y-104798200D01*
X160112200Y-101257900D02*
X160112200Y-102333100D01*
X161745200Y-99624900D02*
X160112200Y-101257900D01*
X161745200Y-98832200D02*
X161745200Y-99624900D01*
X162810900Y-98832200D02*
X161745200Y-98832200D01*
%TO.N,Net-(IC9-RG_2)*%
X168451100Y-100102200D02*
X173147100Y-104798200D01*
X162810900Y-100102200D02*
X168451100Y-100102200D01*
%TO.N,Net-(IC8-RG_1)*%
X162840700Y-84064100D02*
X161775000Y-84064100D01*
X159993000Y-81707500D02*
X159993000Y-79369700D01*
X161775000Y-83489500D02*
X159993000Y-81707500D01*
X161775000Y-84064100D02*
X161775000Y-83489500D01*
%TO.N,Net-(IC8-RG_2)*%
X169528600Y-85334100D02*
X175493000Y-79369700D01*
X162840700Y-85334100D02*
X169528600Y-85334100D01*
%TO.N,Net-(IC6-OUTPUT_A)*%
X161562400Y-101189400D02*
X161745200Y-101372200D01*
X161213100Y-101189400D02*
X161562400Y-101189400D01*
X162810900Y-101372200D02*
X161745200Y-101372200D01*
%TO.N,Net-(IC6-OUTPUT_B)*%
X161014600Y-96831600D02*
X161745200Y-97562200D01*
X160513900Y-96831600D02*
X161014600Y-96831600D01*
X162810900Y-97562200D02*
X161745200Y-97562200D01*
%TO.N,Net-(IC4-OUTPUT_A)*%
X162840700Y-86604100D02*
X161775000Y-86604100D01*
X161447600Y-86276700D02*
X161447600Y-85911000D01*
X161775000Y-86604100D02*
X161447600Y-86276700D01*
%TO.N,Net-(IC4-OUTPUT_B)*%
X162840700Y-82794100D02*
X161775000Y-82794100D01*
X161775000Y-82794100D02*
X161775000Y-80911000D01*
%TO.N,Net-(IC3-ADDR)*%
X154104900Y-91502700D02*
X151556800Y-91502700D01*
X155066800Y-92464600D02*
X154104900Y-91502700D01*
%TO.N,/SDAB*%
X142321200Y-80891400D02*
X142321200Y-81442200D01*
X146078400Y-92002700D02*
X147156800Y-92002700D01*
X145189800Y-91114100D02*
X146078400Y-92002700D01*
X145189800Y-84310800D02*
X145189800Y-91114100D01*
X142321200Y-81442200D02*
X145189800Y-84310800D01*
X142230500Y-81442200D02*
X142321200Y-81442200D01*
X140156100Y-83516600D02*
X142230500Y-81442200D01*
%TO.N,/ADS1115/AIN2*%
X157388900Y-98832200D02*
X156323200Y-98832200D01*
X153143600Y-96074800D02*
X153143600Y-94705800D01*
X154064400Y-96995600D02*
X153143600Y-96074800D01*
X154486600Y-96995600D02*
X154064400Y-96995600D01*
X156323200Y-98832200D02*
X154486600Y-96995600D01*
X147586200Y-93932100D02*
X147586200Y-94242500D01*
X147156800Y-93502700D02*
X147586200Y-93932100D01*
%TO.N,/SCLB*%
X146155100Y-83149300D02*
X146155100Y-91502700D01*
X142458900Y-79453100D02*
X146155100Y-83149300D01*
X142321200Y-79453100D02*
X142458900Y-79453100D01*
X142321200Y-78351400D02*
X142321200Y-79453100D01*
X147156800Y-91502700D02*
X146155100Y-91502700D01*
X140480600Y-79453100D02*
X142321200Y-79453100D01*
X140088900Y-79844800D02*
X140480600Y-79453100D01*
%TO.N,/ADS1115/Alert{slash}Ready*%
X151556800Y-92002700D02*
X150555100Y-92002700D01*
X150555100Y-89925700D02*
X150641300Y-89839500D01*
X150555100Y-92002700D02*
X150555100Y-89925700D01*
%TO.N,/ADS1115/AIN1*%
X151556800Y-93502700D02*
X152558500Y-93502700D01*
X152943400Y-93502700D02*
X152558500Y-93502700D01*
X153894200Y-94453500D02*
X152943400Y-93502700D01*
X158554500Y-94453500D02*
X153894200Y-94453500D01*
X159521300Y-93486700D02*
X158554500Y-94453500D01*
X159521300Y-87928400D02*
X159521300Y-93486700D01*
X159121100Y-87528200D02*
X159521300Y-87928400D01*
X159121100Y-85468400D02*
X159121100Y-87528200D01*
X157716800Y-84064100D02*
X159121100Y-85468400D01*
X157418700Y-84064100D02*
X157716800Y-84064100D01*
%TO.N,Net-(IC1-+IN_A)*%
X125055600Y-103286700D02*
X125260600Y-103081700D01*
X125055600Y-103357100D02*
X125055600Y-103286700D01*
X123989900Y-103357100D02*
X125055600Y-103357100D01*
%TO.N,Net-(U4-Rs)*%
X138245100Y-59662400D02*
X138245100Y-59523000D01*
X141995000Y-63412300D02*
X138245100Y-59662400D01*
%TO.N,Net-(U3-~{RESET})*%
X147011500Y-69720800D02*
X147156400Y-69865700D01*
X144668200Y-69720800D02*
X147011500Y-69720800D01*
%TO.N,Net-(J5-Pin_2)*%
X159703600Y-61467800D02*
X157377500Y-59141700D01*
X159851000Y-61467800D02*
X159703600Y-61467800D01*
X159851000Y-62619500D02*
X159851000Y-61467800D01*
%TO.N,+2V5*%
X167274800Y-112680900D02*
X169814800Y-112680900D01*
X167274800Y-111629200D02*
X167274800Y-112680900D01*
X169814800Y-111629200D02*
X169814800Y-112680900D01*
%TO.N,+10V*%
X126647800Y-72849600D02*
X126647800Y-79481400D01*
X125684500Y-71886300D02*
X126647800Y-72849600D01*
X124462100Y-71886300D02*
X125684500Y-71886300D01*
X121289900Y-75058500D02*
X124462100Y-71886300D01*
X121289900Y-79442500D02*
X121289900Y-75058500D01*
X120547500Y-80184900D02*
X121289900Y-79442500D01*
%TO.N,Net-(U3-OSC1)*%
X156040400Y-77485700D02*
X156456400Y-77485700D01*
X150039500Y-83486600D02*
X156040400Y-77485700D01*
X150039500Y-107539400D02*
X150039500Y-83486600D01*
X153001300Y-110501200D02*
X150039500Y-107539400D01*
%TO.N,Net-(U3-OSC2)*%
X159573600Y-112193500D02*
X159573600Y-115561000D01*
X157881300Y-110501200D02*
X159573600Y-112193500D01*
X156715300Y-109335200D02*
X157881300Y-110501200D01*
X156715300Y-104452700D02*
X156715300Y-109335200D01*
X159510600Y-101657400D02*
X156715300Y-104452700D01*
X159510600Y-101091500D02*
X159510600Y-101657400D01*
X159912200Y-100689900D02*
X159510600Y-101091500D01*
X159912200Y-95977400D02*
X159912200Y-100689900D01*
X160726400Y-95163200D02*
X159912200Y-95977400D01*
X160726400Y-87229300D02*
X160726400Y-95163200D01*
X160467600Y-86970500D02*
X160726400Y-87229300D01*
X160467600Y-82750100D02*
X160467600Y-86970500D01*
X158333400Y-80615900D02*
X160467600Y-82750100D01*
X158333400Y-77697700D02*
X158333400Y-80615900D01*
X156851400Y-76215700D02*
X158333400Y-77697700D01*
X156456400Y-76215700D02*
X156851400Y-76215700D01*
%TO.N,Net-(U2-XTAL1{slash}PB6)*%
X156168800Y-118068000D02*
X157856400Y-119755600D01*
X151071100Y-118068000D02*
X156168800Y-118068000D01*
X151071100Y-115585900D02*
X151071100Y-118068000D01*
X134701200Y-98671400D02*
X134701200Y-99606800D01*
X136229500Y-101135100D02*
X134701200Y-99606800D01*
X136229500Y-108198600D02*
X136229500Y-101135100D01*
X139904600Y-111873700D02*
X136229500Y-108198600D01*
X139904600Y-121127900D02*
X139904600Y-111873700D01*
X140713200Y-121936500D02*
X139904600Y-121127900D01*
X147202600Y-121936500D02*
X140713200Y-121936500D01*
X151071100Y-118068000D02*
X147202600Y-121936500D01*
%TO.N,Net-(J3-Pin_6)*%
X133782200Y-119592500D02*
X133554600Y-119592500D01*
X135877700Y-117497000D02*
X133782200Y-119592500D01*
X133554600Y-120744200D02*
X133554600Y-119592500D01*
%TO.N,/BareMinAtmel328P/PD2-D2*%
X134929500Y-84869700D02*
X134701200Y-84869700D01*
X135853100Y-83946100D02*
X134929500Y-84869700D01*
X135853100Y-79138700D02*
X135853100Y-83946100D01*
X137530200Y-77461600D02*
X135853100Y-79138700D01*
X141046500Y-77461600D02*
X137530200Y-77461600D01*
X142292400Y-76215700D02*
X141046500Y-77461600D01*
X147156400Y-76215700D02*
X142292400Y-76215700D01*
X134701200Y-85971400D02*
X134701200Y-84869700D01*
%TO.N,/BareMinAtmel328P/PB1-D9*%
X142549500Y-110269700D02*
X142321200Y-110269700D01*
X143761000Y-109058200D02*
X142549500Y-110269700D01*
X143761000Y-107057200D02*
X143761000Y-109058200D01*
X149637800Y-101180400D02*
X143761000Y-107057200D01*
X149637800Y-81378700D02*
X149637800Y-101180400D01*
X151068700Y-79947800D02*
X149637800Y-81378700D01*
X151068700Y-69660200D02*
X151068700Y-79947800D01*
X150623400Y-69214900D02*
X151068700Y-69660200D01*
X150227700Y-69214900D02*
X150623400Y-69214900D01*
X148306900Y-71135700D02*
X150227700Y-69214900D01*
X147156400Y-71135700D02*
X148306900Y-71135700D01*
X142321200Y-111371400D02*
X142321200Y-110269700D01*
%TO.N,/BareMinAtmel328P/AREF*%
X140943900Y-95855800D02*
X141219500Y-96131400D01*
X138549100Y-95855800D02*
X140943900Y-95855800D01*
X142321200Y-96131400D02*
X141219500Y-96131400D01*
%TO.N,Net-(Q1-Pad1)*%
X139114500Y-72474000D02*
X139114000Y-72473500D01*
X139841000Y-73200500D02*
X139114500Y-72474000D01*
X142661000Y-73200500D02*
X139841000Y-73200500D01*
X139114500Y-72474000D02*
X139114500Y-72473500D01*
%TO.N,/BareMinAtmel328P/PC0-A0*%
X142321200Y-91051400D02*
X141219500Y-91051400D01*
X137350000Y-94920900D02*
X141219500Y-91051400D01*
X137350000Y-96482100D02*
X137350000Y-94920900D01*
X137705800Y-96837900D02*
X137350000Y-96482100D01*
X138272800Y-96837900D02*
X137705800Y-96837900D01*
X140994500Y-99559600D02*
X138272800Y-96837900D01*
X140994500Y-111619200D02*
X140994500Y-99559600D01*
X141859600Y-112484300D02*
X140994500Y-111619200D01*
X145636900Y-112484300D02*
X141859600Y-112484300D01*
X145636900Y-111646300D02*
X145636900Y-112484300D01*
X145644300Y-111638900D02*
X145636900Y-111646300D01*
X145636900Y-112484300D02*
X145636900Y-114199700D01*
%TO.N,/ADS1115/AIN0*%
X118567900Y-102087100D02*
X118035100Y-102087100D01*
X117502200Y-102620000D02*
X117502200Y-103357100D01*
X118035100Y-102087100D02*
X117502200Y-102620000D01*
X157388900Y-100102200D02*
X158454600Y-100102200D01*
X118567900Y-103357100D02*
X117502200Y-103357100D01*
X157418700Y-85334100D02*
X156353000Y-85334100D01*
X153117500Y-93002700D02*
X151556800Y-93002700D01*
X154165100Y-94050300D02*
X153117500Y-93002700D01*
X158387600Y-94050300D02*
X154165100Y-94050300D01*
X159119500Y-93318400D02*
X158387600Y-94050300D01*
X159119500Y-88094600D02*
X159119500Y-93318400D01*
X158719400Y-87694500D02*
X159119500Y-88094600D01*
X158719400Y-86389100D02*
X158719400Y-87694500D01*
X157664400Y-85334100D02*
X158719400Y-86389100D01*
X157418700Y-85334100D02*
X157664400Y-85334100D01*
X159510500Y-99046300D02*
X158454600Y-100102200D01*
X159510500Y-95245300D02*
X159510500Y-99046300D01*
X160324700Y-94431100D02*
X159510500Y-95245300D01*
X160324700Y-87595800D02*
X160324700Y-94431100D01*
X159924500Y-87195600D02*
X160324700Y-87595800D01*
X159924500Y-83776800D02*
X159924500Y-87195600D01*
X158290200Y-82142500D02*
X159924500Y-83776800D01*
X156548300Y-82142500D02*
X158290200Y-82142500D01*
X156353000Y-82337800D02*
X156548300Y-82142500D01*
X156353000Y-85334100D02*
X156353000Y-82337800D01*
X117502200Y-104594500D02*
X117502200Y-103357100D01*
X116866100Y-105230600D02*
X117502200Y-104594500D01*
X125781800Y-114696400D02*
X125781800Y-114146300D01*
X133466400Y-122381000D02*
X125781800Y-114696400D01*
X156751500Y-122381000D02*
X133466400Y-122381000D01*
X158956900Y-120175600D02*
X156751500Y-122381000D01*
X158956900Y-117707900D02*
X158956900Y-120175600D01*
X158011100Y-116762100D02*
X158956900Y-117707900D01*
X158011100Y-113617600D02*
X158011100Y-116762100D01*
X156282000Y-111888500D02*
X158011100Y-113617600D01*
X156282000Y-104002200D02*
X156282000Y-111888500D01*
X158454600Y-101829600D02*
X156282000Y-104002200D01*
X158454600Y-100102200D02*
X158454600Y-101829600D01*
%TO.N,/ADS1115/AIN3*%
X147156800Y-93002700D02*
X148158500Y-93002700D01*
X123989900Y-102087100D02*
X122924200Y-102087100D01*
X123989900Y-100817100D02*
X122924200Y-100817100D01*
X117384500Y-101460400D02*
X116799200Y-102045700D01*
X122924200Y-101460400D02*
X117384500Y-101460400D01*
X122924200Y-102087100D02*
X122924200Y-101460400D01*
X122924200Y-101460400D02*
X122924200Y-100817100D01*
X145861600Y-96856600D02*
X145575200Y-96856600D01*
X148193100Y-94525100D02*
X145861600Y-96856600D01*
X148193100Y-93037300D02*
X148193100Y-94525100D01*
X148158500Y-93002700D02*
X148193100Y-93037300D01*
%TO.N,+VDC*%
X123047500Y-80184900D02*
X122045800Y-80184900D01*
X125079500Y-73418000D02*
X125079500Y-75416300D01*
X121549200Y-80681500D02*
X122045800Y-80184900D01*
X121549200Y-82084900D02*
X121549200Y-80681500D01*
X120547500Y-82084900D02*
X121549200Y-82084900D01*
%TO.N,/BareMinAtmel328P/PD1-TX*%
X136094600Y-120744200D02*
X136094600Y-119592500D01*
X133134700Y-89724000D02*
X133070600Y-89659900D01*
X133134700Y-104069400D02*
X133134700Y-89724000D01*
X133536400Y-104471100D02*
X133134700Y-104069400D01*
X133536400Y-112339300D02*
X133536400Y-104471100D01*
X136870100Y-115673000D02*
X133536400Y-112339300D01*
X136870100Y-118817000D02*
X136870100Y-115673000D01*
X136094600Y-119592500D02*
X136870100Y-118817000D01*
%TO.N,/BareMinAtmel328P/PD0-RX*%
X138634600Y-114987700D02*
X138634600Y-120744200D01*
X135827800Y-112180900D02*
X138634600Y-114987700D01*
X135827800Y-103292200D02*
X135827800Y-112180900D01*
X135045700Y-102510100D02*
X135827800Y-103292200D01*
X134437200Y-102510100D02*
X135045700Y-102510100D01*
X133551500Y-101624400D02*
X134437200Y-102510100D01*
X133551500Y-90088700D02*
X133551500Y-101624400D01*
X133726300Y-89913900D02*
X133551500Y-90088700D01*
X133726300Y-89203900D02*
X133726300Y-89913900D01*
X133576700Y-89054300D02*
X133726300Y-89203900D01*
X133576700Y-82979900D02*
X133576700Y-89054300D01*
X134563500Y-81993100D02*
X133576700Y-82979900D01*
X134701200Y-81993100D02*
X134563500Y-81993100D01*
X134701200Y-80891400D02*
X134701200Y-81993100D01*
%TO.N,/BareMinAtmel328P/PB4-D12-MISO*%
X146716800Y-72405700D02*
X147156400Y-72405700D01*
X145769800Y-71458700D02*
X146716800Y-72405700D01*
X145769800Y-70827600D02*
X145769800Y-71458700D01*
X146064000Y-70533400D02*
X145769800Y-70827600D01*
X148170800Y-70533400D02*
X146064000Y-70533400D01*
X152187000Y-66517200D02*
X148170800Y-70533400D01*
X152428100Y-66517200D02*
X152187000Y-66517200D01*
%TO.N,/BareMinAtmel328P/PB3-D11-MOSI*%
X142321200Y-106291400D02*
X142321200Y-105189700D01*
X148038900Y-73675700D02*
X147156400Y-73675700D01*
X150424300Y-71290300D02*
X148038900Y-73675700D01*
X150424300Y-69869400D02*
X150424300Y-71290300D01*
X149010500Y-74647300D02*
X148038900Y-73675700D01*
X149010500Y-98638100D02*
X149010500Y-74647300D01*
X142458900Y-105189700D02*
X149010500Y-98638100D01*
X142321200Y-105189700D02*
X142458900Y-105189700D01*
%TO.N,/BareMinAtmel328P/PB5-D13-SCK*%
X145727000Y-74945700D02*
X147156400Y-74945700D01*
X145581000Y-74799700D02*
X145727000Y-74945700D01*
X143181000Y-100109700D02*
X142321200Y-100109700D01*
X148601800Y-94688900D02*
X143181000Y-100109700D01*
X148601800Y-75984100D02*
X148601800Y-94688900D01*
X147563400Y-74945700D02*
X148601800Y-75984100D01*
X147156400Y-74945700D02*
X147563400Y-74945700D01*
X142321200Y-101211400D02*
X142321200Y-100109700D01*
%TO.N,CANBUS_H*%
X159891100Y-68021100D02*
X161878800Y-70008800D01*
X159891100Y-66279300D02*
X159891100Y-68021100D01*
X157383000Y-63771200D02*
X159891100Y-66279300D01*
X157311000Y-63771200D02*
X157383000Y-63771200D01*
X157311000Y-62619500D02*
X157311000Y-63771200D01*
X155693700Y-63085100D02*
X156159300Y-62619500D01*
X148343500Y-63085100D02*
X155693700Y-63085100D01*
X146726800Y-64701800D02*
X148343500Y-63085100D01*
X144133700Y-64701800D02*
X146726800Y-64701800D01*
X143265000Y-63833100D02*
X144133700Y-64701800D01*
X143265000Y-63412300D02*
X143265000Y-63833100D01*
X157311000Y-62619500D02*
X156159300Y-62619500D01*
%TO.N,CANBUS_L*%
X159917500Y-59141700D02*
X159917500Y-60243400D01*
X161878800Y-62204700D02*
X159917500Y-60243400D01*
X161878800Y-67468800D02*
X161878800Y-62204700D01*
X158815800Y-58913400D02*
X158815800Y-59141700D01*
X157923700Y-58021300D02*
X158815800Y-58913400D01*
X156840400Y-58021300D02*
X157923700Y-58021300D01*
X155088600Y-59773100D02*
X156840400Y-58021300D01*
X155088600Y-60020500D02*
X155088600Y-59773100D01*
X152889800Y-62219300D02*
X155088600Y-60020500D01*
X147608300Y-62219300D02*
X152889800Y-62219300D01*
X147477200Y-62088200D02*
X147608300Y-62219300D01*
X145461100Y-62088200D02*
X147477200Y-62088200D01*
X144535000Y-63014300D02*
X145461100Y-62088200D01*
X144535000Y-63412300D02*
X144535000Y-63014300D01*
X159917500Y-59141700D02*
X158815800Y-59141700D01*
%TO.N,+5V*%
X134701200Y-93591400D02*
X134701200Y-94693100D01*
X134701200Y-93591400D02*
X134701200Y-92489700D01*
X152267600Y-60980600D02*
X152271300Y-60976900D01*
X149801400Y-60980600D02*
X152267600Y-60980600D01*
X147156800Y-92502700D02*
X146155100Y-92502700D01*
X142321200Y-98671400D02*
X142321200Y-97569700D01*
X157388900Y-97562200D02*
X156323200Y-97562200D01*
X156140500Y-97744900D02*
X156118300Y-97744900D01*
X156323200Y-97562200D02*
X156140500Y-97744900D01*
X157418700Y-82794100D02*
X157683000Y-82794100D01*
X157388900Y-97562200D02*
X158454600Y-97562200D01*
X146155100Y-92502700D02*
X145766300Y-92891500D01*
X142549500Y-97569700D02*
X142321200Y-97569700D01*
X145766300Y-94352900D02*
X142549500Y-97569700D01*
X145766300Y-92891600D02*
X145766300Y-94352900D01*
X145766300Y-92891500D02*
X145766300Y-92891600D01*
X130976300Y-90092600D02*
X130976300Y-91244300D01*
X137056100Y-90363100D02*
X137056100Y-89943600D01*
X134929500Y-92489700D02*
X137056100Y-90363100D01*
X134701200Y-92489700D02*
X134929500Y-92489700D01*
X142818300Y-89943600D02*
X145766300Y-92891500D01*
X137056100Y-89943600D02*
X142818300Y-89943600D01*
X118567900Y-100817100D02*
X119633600Y-100817100D01*
X120260300Y-100190400D02*
X129834200Y-100190400D01*
X119633600Y-100817100D02*
X120260300Y-100190400D01*
X138549100Y-98375500D02*
X138549100Y-98955800D01*
X134866700Y-94693100D02*
X138549100Y-98375500D01*
X134701200Y-94693100D02*
X134866700Y-94693100D01*
X144535200Y-115753100D02*
X144535200Y-116739700D01*
X138549100Y-109767000D02*
X144535200Y-115753100D01*
X138549100Y-98955800D02*
X138549100Y-109767000D01*
X145636900Y-116739700D02*
X144535200Y-116739700D01*
X141682400Y-119592500D02*
X144535200Y-116739700D01*
X141174600Y-119592500D02*
X141682400Y-119592500D01*
X141174600Y-120744200D02*
X141174600Y-119592500D01*
X132151900Y-91329100D02*
X132067100Y-91244300D01*
X132151900Y-96530800D02*
X132151900Y-91329100D01*
X132067100Y-91244300D02*
X130976300Y-91244300D01*
X132067100Y-89244500D02*
X132067100Y-91244300D01*
X132151900Y-89159700D02*
X132067100Y-89244500D01*
X132151900Y-78864400D02*
X132151900Y-89159700D01*
X134129400Y-76886900D02*
X132151900Y-78864400D01*
X140290600Y-76886900D02*
X134129400Y-76886900D01*
X141730100Y-75447400D02*
X140290600Y-76886900D01*
X142769000Y-75447400D02*
X141730100Y-75447400D01*
X143972900Y-74243500D02*
X142769000Y-75447400D01*
X143972900Y-69537400D02*
X143972900Y-74243500D01*
X144914600Y-68595700D02*
X143972900Y-69537400D01*
X147156400Y-68595700D02*
X144914600Y-68595700D01*
X137056100Y-89943600D02*
X137056100Y-83516600D01*
X136988900Y-83449400D02*
X136988900Y-79844800D01*
X137056100Y-83516600D02*
X136988900Y-83449400D01*
X158454600Y-95733100D02*
X158454600Y-97562200D01*
X159923000Y-94264700D02*
X158454600Y-95733100D01*
X159923000Y-87762100D02*
X159923000Y-94264700D01*
X159522800Y-87361900D02*
X159923000Y-87762100D01*
X159522800Y-84633900D02*
X159522800Y-87361900D01*
X157683000Y-82794100D02*
X159522800Y-84633900D01*
X149122600Y-66629500D02*
X149122600Y-66084300D01*
X147156400Y-68595700D02*
X149122600Y-66629500D01*
X153111200Y-66274000D02*
X153111200Y-72658300D01*
X152743200Y-65906000D02*
X153111200Y-66274000D01*
X149300900Y-65906000D02*
X152743200Y-65906000D01*
X149122600Y-66084300D02*
X149300900Y-65906000D01*
X147263700Y-61592000D02*
X148008700Y-61592000D01*
X144535100Y-58863400D02*
X147263700Y-61592000D01*
X144535100Y-58462300D02*
X144535100Y-58863400D01*
X144535000Y-58462300D02*
X144535100Y-58462300D01*
X149190000Y-61592000D02*
X149801400Y-60980600D01*
X148008700Y-61592000D02*
X149190000Y-61592000D01*
X127353900Y-110227900D02*
X126958000Y-109832000D01*
X130736200Y-110227900D02*
X127353900Y-110227900D01*
X132733000Y-108231100D02*
X130736200Y-110227900D01*
X132733000Y-104919800D02*
X132733000Y-108231100D01*
X132366500Y-104553300D02*
X132733000Y-104919800D01*
X129834200Y-104553300D02*
X132366500Y-104553300D01*
X129834200Y-100190400D02*
X129834200Y-104553300D01*
X129834200Y-104553300D02*
X129834200Y-104767900D01*
%TO.N,/BareMinAtmel328P/RESET*%
X130246900Y-114991200D02*
X130246900Y-113672200D01*
X132752700Y-117497000D02*
X130246900Y-114991200D01*
X128455000Y-112932000D02*
X129195200Y-113672200D01*
X126958000Y-112932000D02*
X128455000Y-112932000D01*
X130246900Y-113672200D02*
X129195200Y-113672200D01*
X134701200Y-78351400D02*
X134701200Y-79453100D01*
X130246900Y-113672200D02*
X130246900Y-112620500D01*
X134563500Y-79453100D02*
X134701200Y-79453100D01*
X132579000Y-81437600D02*
X134563500Y-79453100D01*
X132579000Y-89300600D02*
X132579000Y-81437600D01*
X132468800Y-89410800D02*
X132579000Y-89300600D01*
X132468800Y-90184000D02*
X132468800Y-89410800D01*
X132733000Y-90448200D02*
X132468800Y-90184000D01*
X132733000Y-104350100D02*
X132733000Y-90448200D01*
X133134700Y-104751800D02*
X132733000Y-104350100D01*
X133134700Y-109732700D02*
X133134700Y-104751800D01*
X130246900Y-112620500D02*
X133134700Y-109732700D01*
D42*
%TO.N,GND*%
X152271000Y-64101900D02*
X152271300Y-64101900D01*
X152268000Y-64105600D02*
X152271000Y-64101900D01*
X149801400Y-64105600D02*
X152268000Y-64105600D01*
D41*
X129600700Y-109172200D02*
X130246900Y-109172200D01*
X125055600Y-104627100D02*
X129600700Y-109172200D01*
X123989900Y-104627100D02*
X125055600Y-104627100D01*
D42*
X129448500Y-92632600D02*
X130976000Y-92632600D01*
D41*
X142630000Y-59097300D02*
X142630000Y-65892100D01*
X143265000Y-58462300D02*
X142630000Y-59097300D01*
D42*
X147968000Y-65892100D02*
X142630000Y-65892100D01*
X148829000Y-65031800D02*
X147968000Y-65892100D01*
X148875000Y-65031800D02*
X148829000Y-65031800D01*
X149801000Y-64105600D02*
X148875000Y-65031800D01*
X149801400Y-64105600D02*
X149801000Y-64105600D01*
D41*
X130976300Y-92632600D02*
X130976000Y-92632600D01*
X146254600Y-120744200D02*
X146254600Y-119592500D01*
X138245100Y-62063000D02*
X138245100Y-65892100D01*
D42*
X142630000Y-65892100D02*
X138245100Y-65892100D01*
X128960000Y-92632600D02*
X129448500Y-92632600D01*
X127661000Y-91333200D02*
X128960000Y-92632600D01*
X127661000Y-81134900D02*
X127661000Y-91333200D01*
D41*
X157388900Y-101372200D02*
X156323200Y-101372200D01*
X127661000Y-81134900D02*
X123047500Y-81134900D01*
X157418700Y-86604100D02*
X156885900Y-86604100D01*
X157984100Y-92464600D02*
X158166800Y-92464600D01*
X157435000Y-91915500D02*
X157984100Y-92464600D01*
X161878800Y-72548800D02*
X161878900Y-72548700D01*
D42*
X158842000Y-69512100D02*
X161878900Y-72548700D01*
X158842000Y-66299900D02*
X158842000Y-69512100D01*
X156313000Y-66299900D02*
X158842000Y-66299900D01*
X154115000Y-64101900D02*
X156313000Y-66299900D01*
X152271300Y-64101900D02*
X154115000Y-64101900D01*
X135182000Y-65892100D02*
X131258500Y-69815400D01*
X138245100Y-65892100D02*
X135182000Y-65892100D01*
X127661000Y-73412600D02*
X127661000Y-81134900D01*
X131258500Y-69815400D02*
X127661000Y-73412600D01*
D41*
X133161100Y-71718000D02*
X131258500Y-69815400D01*
X135431600Y-71718000D02*
X133161100Y-71718000D01*
X139114500Y-75400900D02*
X135431600Y-71718000D01*
X139114500Y-75573500D02*
X139114500Y-75400900D01*
X150555100Y-94588100D02*
X154212600Y-98245600D01*
X150555100Y-92502700D02*
X150555100Y-94588100D01*
X151556800Y-92502700D02*
X150555100Y-92502700D01*
X153289400Y-92502700D02*
X151556800Y-92502700D01*
X154433800Y-93647100D02*
X153289400Y-92502700D01*
X155703400Y-93647100D02*
X154433800Y-93647100D01*
X157435000Y-91915500D02*
X155703400Y-93647100D01*
X156323200Y-100356200D02*
X156323200Y-101372200D01*
X154212600Y-98245600D02*
X156323200Y-100356200D01*
X152976100Y-114365900D02*
X154196100Y-115585900D01*
X148942600Y-114365900D02*
X152976100Y-114365900D01*
X148942600Y-116904500D02*
X148942600Y-114365900D01*
X146254600Y-119592500D02*
X148942600Y-116904500D01*
X148942600Y-111837200D02*
X145644300Y-108538900D01*
X148942600Y-114365900D02*
X148942600Y-111837200D01*
X155028500Y-114753500D02*
X154196100Y-115585900D01*
X155641100Y-114753500D02*
X155028500Y-114753500D01*
X156448600Y-115561000D02*
X155641100Y-114753500D01*
X155641100Y-102054300D02*
X156323200Y-101372200D01*
X155641100Y-114753500D02*
X155641100Y-102054300D01*
X156885900Y-91366400D02*
X157435000Y-91915500D01*
X156885900Y-86604100D02*
X156885900Y-91366400D01*
X154212600Y-83930800D02*
X154212600Y-83411000D01*
X156885900Y-86604100D02*
X154212600Y-83930800D01*
X156456400Y-81167200D02*
X156456400Y-78755700D01*
X154212600Y-83411000D02*
X156456400Y-81167200D01*
%TD*%
M02*
