%TF.GenerationSoftware,KiCad,Pcbnew,8.0.1-rc1*%
%TF.CreationDate,2024-11-22T07:55:53-08:00*%
%TF.ProjectId,AMS - CANBus Sensor - Vacuum,414d5320-2d20-4434-914e-427573205365,rev?*%
%TF.SameCoordinates,Original*%
%TF.FileFunction,Paste,Bot*%
%TF.FilePolarity,Positive*%
%FSLAX46Y46*%
G04 Gerber Fmt 4.6, Leading zero omitted, Abs format (unit mm)*
G04 Created by KiCad (PCBNEW 8.0.1-rc1) date 2024-11-22 07:55:53*
%MOMM*%
%LPD*%
G01*
G04 APERTURE LIST*
G04 Aperture macros list*
%AMRoundRect*
0 Rectangle with rounded corners*
0 $1 Rounding radius*
0 $2 $3 $4 $5 $6 $7 $8 $9 X,Y pos of 4 corners*
0 Add a 4 corners polygon primitive as box body*
4,1,4,$2,$3,$4,$5,$6,$7,$8,$9,$2,$3,0*
0 Add four circle primitives for the rounded corners*
1,1,$1+$1,$2,$3*
1,1,$1+$1,$4,$5*
1,1,$1+$1,$6,$7*
1,1,$1+$1,$8,$9*
0 Add four rect primitives between the rounded corners*
20,1,$1+$1,$2,$3,$4,$5,0*
20,1,$1+$1,$4,$5,$6,$7,0*
20,1,$1+$1,$6,$7,$8,$9,0*
20,1,$1+$1,$8,$9,$2,$3,0*%
G04 Aperture macros list end*
%ADD10RoundRect,0.250000X0.400000X0.625000X-0.400000X0.625000X-0.400000X-0.625000X0.400000X-0.625000X0*%
%ADD11R,1.528000X0.650000*%
%ADD12R,1.400000X0.300000*%
%ADD13R,1.400000X0.600000*%
%ADD14R,1.000000X0.550000*%
%ADD15RoundRect,0.250000X0.412500X0.650000X-0.412500X0.650000X-0.412500X-0.650000X0.412500X-0.650000X0*%
%ADD16RoundRect,0.250000X0.650000X-0.412500X0.650000X0.412500X-0.650000X0.412500X-0.650000X-0.412500X0*%
%ADD17RoundRect,0.250000X-0.412500X-0.650000X0.412500X-0.650000X0.412500X0.650000X-0.412500X0.650000X0*%
%ADD18RoundRect,0.150000X-0.150000X0.825000X-0.150000X-0.825000X0.150000X-0.825000X0.150000X0.825000X0*%
%ADD19RoundRect,0.250000X-0.625000X0.400000X-0.625000X-0.400000X0.625000X-0.400000X0.625000X0.400000X0*%
%ADD20RoundRect,0.150000X0.875000X0.150000X-0.875000X0.150000X-0.875000X-0.150000X0.875000X-0.150000X0*%
%ADD21RoundRect,0.250000X-0.400000X-0.625000X0.400000X-0.625000X0.400000X0.625000X-0.400000X0.625000X0*%
%ADD22RoundRect,0.250000X-0.650000X0.412500X-0.650000X-0.412500X0.650000X-0.412500X0.650000X0.412500X0*%
G04 APERTURE END LIST*
D10*
%TO.C,R9*%
X130559200Y-104767900D03*
X127459200Y-104767900D03*
%TD*%
D11*
%TO.C,IC9*%
X162810900Y-97562200D03*
X162810900Y-98832200D03*
X162810900Y-100102200D03*
X162810900Y-101372200D03*
X157388900Y-101372200D03*
X157388900Y-100102200D03*
X157388900Y-98832200D03*
X157388900Y-97562200D03*
%TD*%
%TO.C,IC8*%
X162840700Y-82794100D03*
X162840700Y-84064100D03*
X162840700Y-85334100D03*
X162840700Y-86604100D03*
X157418700Y-86604100D03*
X157418700Y-85334100D03*
X157418700Y-84064100D03*
X157418700Y-82794100D03*
%TD*%
D12*
%TO.C,IC3*%
X151556800Y-91502700D03*
X151556800Y-92002700D03*
X151556800Y-92502700D03*
X151556800Y-93002700D03*
X151556800Y-93502700D03*
X147156800Y-93502700D03*
X147156800Y-93002700D03*
X147156800Y-92502700D03*
X147156800Y-92002700D03*
X147156800Y-91502700D03*
%TD*%
D13*
%TO.C,IC2*%
X123047500Y-80184900D03*
X123047500Y-81134900D03*
X123047500Y-82084900D03*
X120547500Y-82084900D03*
X120547500Y-80184900D03*
%TD*%
D14*
%TO.C,D1*%
X166260202Y-70579772D03*
X166260202Y-69279772D03*
X168160202Y-69929772D03*
%TD*%
D15*
%TO.C,C11*%
X130974964Y-97474229D03*
X127849964Y-97474229D03*
%TD*%
D16*
%TO.C,C9*%
X117397143Y-80327871D03*
X117397143Y-77202871D03*
%TD*%
D15*
%TO.C,C8*%
X123268036Y-77433007D03*
X120143036Y-77433007D03*
%TD*%
D17*
%TO.C,C2*%
X151071100Y-115585900D03*
X154196100Y-115585900D03*
%TD*%
D18*
%TO.C,U4*%
X141995000Y-58462300D03*
X143265000Y-58462300D03*
X144535000Y-58462300D03*
X145805000Y-58462300D03*
X145805000Y-63412300D03*
X144535000Y-63412300D03*
X143265000Y-63412300D03*
X141995000Y-63412300D03*
%TD*%
D19*
%TO.C,R1*%
X139114500Y-72473500D03*
X139114500Y-75573500D03*
%TD*%
%TO.C,R4*%
X126958000Y-109832000D03*
X126958000Y-112932000D03*
%TD*%
D15*
%TO.C,C4*%
X159573600Y-115561000D03*
X156448600Y-115561000D03*
%TD*%
D20*
%TO.C,U3*%
X156456400Y-68595700D03*
X156456400Y-69865700D03*
X156456400Y-71135700D03*
X156456400Y-72405700D03*
X156456400Y-73675700D03*
X156456400Y-74945700D03*
X156456400Y-76215700D03*
X156456400Y-77485700D03*
X156456400Y-78755700D03*
X147156400Y-78755700D03*
X147156400Y-77485700D03*
X147156400Y-76215700D03*
X147156400Y-74945700D03*
X147156400Y-73675700D03*
X147156400Y-72405700D03*
X147156400Y-71135700D03*
X147156400Y-69865700D03*
X147156400Y-68595700D03*
%TD*%
D19*
%TO.C,R3*%
X145644300Y-108538900D03*
X145644300Y-111638900D03*
%TD*%
D15*
%TO.C,C1*%
X135877700Y-117497000D03*
X132752700Y-117497000D03*
%TD*%
D21*
%TO.C,R13*%
X136988900Y-79844800D03*
X140088900Y-79844800D03*
%TD*%
D19*
%TO.C,R2*%
X138549100Y-95855800D03*
X138549100Y-98955800D03*
%TD*%
D15*
%TO.C,C10*%
X171147100Y-108263700D03*
X168022100Y-108263700D03*
%TD*%
D10*
%TO.C,R8*%
X158166800Y-92464600D03*
X155066800Y-92464600D03*
%TD*%
D21*
%TO.C,R12*%
X137056100Y-83516600D03*
X140156100Y-83516600D03*
%TD*%
D22*
%TO.C,C7*%
X152271300Y-60976900D03*
X152271300Y-64101900D03*
%TD*%
%TO.C,C6*%
X149801400Y-60980600D03*
X149801400Y-64105600D03*
%TD*%
D11*
%TO.C,IC1*%
X123989900Y-100817100D03*
X123989900Y-102087100D03*
X123989900Y-103357100D03*
X123989900Y-104627100D03*
X118567900Y-104627100D03*
X118567900Y-103357100D03*
X118567900Y-102087100D03*
X118567900Y-100817100D03*
%TD*%
M02*
