M48
INCH
T1C0.0118
T2C0.0295
T3C0.0315
T4C0.0331
T5C0.0394
T6C0.0433
T7C0.0504
T8C0.0630
%
G90
G05
T1
X4.5984Y-4.0175
X4.601Y-4.1429
X4.9315Y-4.0583
X4.9861Y-3.1292
X5.202Y-4.1405
X5.239Y-3.5299
X5.6956Y-2.7449
X5.7313Y-3.8133
X5.7315Y-2.9449
X5.8105Y-3.7103
X5.8271Y-2.4249
X5.871Y-2.6017
X5.9222Y-2.7508
X5.9308Y-3.537
X6.0011Y-2.6188
X6.028Y-2.8606
X6.0293Y-3.7286
X6.1464Y-3.8482
X6.3194Y-3.8123
X6.347Y-3.9838
X6.3562Y-3.3823
X6.3691Y-3.1855
T2
X6.5856Y-4.3949
X6.6356Y-4.3949
X6.6856Y-4.3949
T3
X5.3032Y-3.0847
X5.3032Y-3.1847
X5.3032Y-3.2847
X5.3032Y-3.3847
X5.3032Y-3.4847
X5.3032Y-3.5847
X5.3032Y-3.6847
X5.3032Y-3.7847
X5.3032Y-3.8847
X5.3032Y-3.9847
X5.3032Y-4.0847
X5.3032Y-4.1847
X5.3032Y-4.2847
X5.3032Y-4.3847
X5.4427Y-2.3434
X5.4427Y-2.4434
X5.6032Y-3.0847
X5.6032Y-3.1847
X5.6032Y-3.2847
X5.6032Y-3.3847
X5.6032Y-3.4847
X5.6032Y-3.5847
X5.6032Y-3.6847
X5.6032Y-3.7847
X5.6032Y-3.8847
X5.6032Y-3.9847
X5.6032Y-4.0847
X5.6032Y-4.1847
X5.6032Y-4.2847
X5.6032Y-4.3847
X5.7337Y-4.4961
X5.7337Y-4.5961
X6.0227Y-4.7148
X6.0237Y-4.3504
X6.196Y-2.3284
X6.2066Y-4.1259
X6.2148Y-4.7148
X6.2158Y-4.3504
X6.296Y-2.3284
X6.2989Y-3.1248
X6.8168Y-4.1259
X6.9092Y-3.1248
T4
X6.0714Y-3.1855
X6.0714Y-3.2839
X6.0714Y-3.3823
X6.0714Y-3.4807
X6.0714Y-3.7695
X6.0714Y-3.8679
X6.0714Y-3.9664
X6.0714Y-4.0648
T5
X4.8719Y-4.2981
X4.8719Y-4.4753
X5.1278Y-4.2981
X5.1278Y-4.4753
X5.1565Y-3.447
X5.1565Y-3.547
X5.1565Y-3.647
X5.2581Y-4.7537
X5.3581Y-4.7537
X5.4581Y-4.7537
X5.5581Y-4.7537
X5.6581Y-4.7537
X5.7581Y-4.7537
X6.1933Y-2.4653
X6.2933Y-2.4653
T6
X6.3732Y-2.6563
X6.3732Y-2.7563
X6.3732Y-2.8563
X6.3732Y-2.9563
T7
X5.6166Y-2.6819
X5.6166Y-2.7819
X5.6166Y-2.8819
T8
X4.9244Y-2.7566
X4.9244Y-2.8905
X5.3149Y-2.7566
X5.3149Y-2.8905
M30
