%TF.GenerationSoftware,KiCad,Pcbnew,8.0.1-rc1*%
%TF.CreationDate,2024-11-22T07:55:53-08:00*%
%TF.ProjectId,AMS - CANBus Sensor - Vacuum,414d5320-2d20-4434-914e-427573205365,rev?*%
%TF.SameCoordinates,Original*%
%TF.FileFunction,Legend,Bot*%
%TF.FilePolarity,Positive*%
%FSLAX46Y46*%
G04 Gerber Fmt 4.6, Leading zero omitted, Abs format (unit mm)*
G04 Created by KiCad (PCBNEW 8.0.1-rc1) date 2024-11-22 07:55:53*
%MOMM*%
%LPD*%
G01*
G04 APERTURE LIST*
G04 Aperture macros list*
%AMRoundRect*
0 Rectangle with rounded corners*
0 $1 Rounding radius*
0 $2 $3 $4 $5 $6 $7 $8 $9 X,Y pos of 4 corners*
0 Add a 4 corners polygon primitive as box body*
4,1,4,$2,$3,$4,$5,$6,$7,$8,$9,$2,$3,0*
0 Add four circle primitives for the rounded corners*
1,1,$1+$1,$2,$3*
1,1,$1+$1,$4,$5*
1,1,$1+$1,$6,$7*
1,1,$1+$1,$8,$9*
0 Add four rect primitives between the rounded corners*
20,1,$1+$1,$2,$3,$4,$5,0*
20,1,$1+$1,$4,$5,$6,$7,0*
20,1,$1+$1,$6,$7,$8,$9,0*
20,1,$1+$1,$8,$9,$2,$3,0*%
G04 Aperture macros list end*
%ADD10C,0.150000*%
%ADD11C,0.254000*%
%ADD12C,0.120000*%
%ADD13C,0.200000*%
%ADD14C,2.400000*%
%ADD15R,1.500000X1.500000*%
%ADD16C,1.500000*%
%ADD17C,1.200000*%
%ADD18RoundRect,0.250000X0.400000X0.625000X-0.400000X0.625000X-0.400000X-0.625000X0.400000X-0.625000X0*%
%ADD19R,1.920000X1.920000*%
%ADD20C,1.920000*%
%ADD21R,1.528000X0.650000*%
%ADD22R,1.400000X0.300000*%
%ADD23R,1.400000X0.600000*%
%ADD24R,1.000000X0.550000*%
%ADD25RoundRect,0.250000X0.412500X0.650000X-0.412500X0.650000X-0.412500X-0.650000X0.412500X-0.650000X0*%
%ADD26RoundRect,0.250000X0.650000X-0.412500X0.650000X0.412500X-0.650000X0.412500X-0.650000X-0.412500X0*%
%ADD27C,1.600000*%
%ADD28O,1.600000X1.600000*%
%ADD29R,2.200000X2.200000*%
%ADD30C,2.200000*%
%ADD31R,1.365000X1.365000*%
%ADD32C,1.365000*%
%ADD33R,1.700000X1.700000*%
%ADD34O,1.700000X1.700000*%
%ADD35R,1.600000X1.600000*%
%ADD36R,1.050000X1.500000*%
%ADD37O,1.050000X1.500000*%
%ADD38RoundRect,0.250000X-0.412500X-0.650000X0.412500X-0.650000X0.412500X0.650000X-0.412500X0.650000X0*%
%ADD39RoundRect,0.150000X-0.150000X0.825000X-0.150000X-0.825000X0.150000X-0.825000X0.150000X0.825000X0*%
%ADD40RoundRect,0.250000X-0.625000X0.400000X-0.625000X-0.400000X0.625000X-0.400000X0.625000X0.400000X0*%
%ADD41RoundRect,0.150000X0.875000X0.150000X-0.875000X0.150000X-0.875000X-0.150000X0.875000X-0.150000X0*%
%ADD42RoundRect,0.250000X-0.400000X-0.625000X0.400000X-0.625000X0.400000X0.625000X-0.400000X0.625000X0*%
%ADD43RoundRect,0.250000X-0.650000X0.412500X-0.650000X-0.412500X0.650000X-0.412500X0.650000X0.412500X0*%
G04 APERTURE END LIST*
D10*
X129175866Y-103402719D02*
X129509199Y-102926528D01*
X129747294Y-103402719D02*
X129747294Y-102402719D01*
X129747294Y-102402719D02*
X129366342Y-102402719D01*
X129366342Y-102402719D02*
X129271104Y-102450338D01*
X129271104Y-102450338D02*
X129223485Y-102497957D01*
X129223485Y-102497957D02*
X129175866Y-102593195D01*
X129175866Y-102593195D02*
X129175866Y-102736052D01*
X129175866Y-102736052D02*
X129223485Y-102831290D01*
X129223485Y-102831290D02*
X129271104Y-102878909D01*
X129271104Y-102878909D02*
X129366342Y-102926528D01*
X129366342Y-102926528D02*
X129747294Y-102926528D01*
X128699675Y-103402719D02*
X128509199Y-103402719D01*
X128509199Y-103402719D02*
X128413961Y-103355100D01*
X128413961Y-103355100D02*
X128366342Y-103307480D01*
X128366342Y-103307480D02*
X128271104Y-103164623D01*
X128271104Y-103164623D02*
X128223485Y-102974147D01*
X128223485Y-102974147D02*
X128223485Y-102593195D01*
X128223485Y-102593195D02*
X128271104Y-102497957D01*
X128271104Y-102497957D02*
X128318723Y-102450338D01*
X128318723Y-102450338D02*
X128413961Y-102402719D01*
X128413961Y-102402719D02*
X128604437Y-102402719D01*
X128604437Y-102402719D02*
X128699675Y-102450338D01*
X128699675Y-102450338D02*
X128747294Y-102497957D01*
X128747294Y-102497957D02*
X128794913Y-102593195D01*
X128794913Y-102593195D02*
X128794913Y-102831290D01*
X128794913Y-102831290D02*
X128747294Y-102926528D01*
X128747294Y-102926528D02*
X128699675Y-102974147D01*
X128699675Y-102974147D02*
X128604437Y-103021766D01*
X128604437Y-103021766D02*
X128413961Y-103021766D01*
X128413961Y-103021766D02*
X128318723Y-102974147D01*
X128318723Y-102974147D02*
X128271104Y-102926528D01*
X128271104Y-102926528D02*
X128223485Y-102831290D01*
D11*
X161373880Y-96326394D02*
X161373880Y-95056394D01*
X160043403Y-96205441D02*
X160103879Y-96265918D01*
X160103879Y-96265918D02*
X160285308Y-96326394D01*
X160285308Y-96326394D02*
X160406260Y-96326394D01*
X160406260Y-96326394D02*
X160587689Y-96265918D01*
X160587689Y-96265918D02*
X160708641Y-96144965D01*
X160708641Y-96144965D02*
X160769118Y-96024013D01*
X160769118Y-96024013D02*
X160829594Y-95782108D01*
X160829594Y-95782108D02*
X160829594Y-95600679D01*
X160829594Y-95600679D02*
X160769118Y-95358775D01*
X160769118Y-95358775D02*
X160708641Y-95237822D01*
X160708641Y-95237822D02*
X160587689Y-95116870D01*
X160587689Y-95116870D02*
X160406260Y-95056394D01*
X160406260Y-95056394D02*
X160285308Y-95056394D01*
X160285308Y-95056394D02*
X160103879Y-95116870D01*
X160103879Y-95116870D02*
X160043403Y-95177346D01*
X159438641Y-96326394D02*
X159196737Y-96326394D01*
X159196737Y-96326394D02*
X159075784Y-96265918D01*
X159075784Y-96265918D02*
X159015308Y-96205441D01*
X159015308Y-96205441D02*
X158894356Y-96024013D01*
X158894356Y-96024013D02*
X158833879Y-95782108D01*
X158833879Y-95782108D02*
X158833879Y-95298298D01*
X158833879Y-95298298D02*
X158894356Y-95177346D01*
X158894356Y-95177346D02*
X158954832Y-95116870D01*
X158954832Y-95116870D02*
X159075784Y-95056394D01*
X159075784Y-95056394D02*
X159317689Y-95056394D01*
X159317689Y-95056394D02*
X159438641Y-95116870D01*
X159438641Y-95116870D02*
X159499118Y-95177346D01*
X159499118Y-95177346D02*
X159559594Y-95298298D01*
X159559594Y-95298298D02*
X159559594Y-95600679D01*
X159559594Y-95600679D02*
X159499118Y-95721632D01*
X159499118Y-95721632D02*
X159438641Y-95782108D01*
X159438641Y-95782108D02*
X159317689Y-95842584D01*
X159317689Y-95842584D02*
X159075784Y-95842584D01*
X159075784Y-95842584D02*
X158954832Y-95782108D01*
X158954832Y-95782108D02*
X158894356Y-95721632D01*
X158894356Y-95721632D02*
X158833879Y-95600679D01*
X161331855Y-88859083D02*
X161331855Y-87589083D01*
X160001378Y-88738130D02*
X160061854Y-88798607D01*
X160061854Y-88798607D02*
X160243283Y-88859083D01*
X160243283Y-88859083D02*
X160364235Y-88859083D01*
X160364235Y-88859083D02*
X160545664Y-88798607D01*
X160545664Y-88798607D02*
X160666616Y-88677654D01*
X160666616Y-88677654D02*
X160727093Y-88556702D01*
X160727093Y-88556702D02*
X160787569Y-88314797D01*
X160787569Y-88314797D02*
X160787569Y-88133368D01*
X160787569Y-88133368D02*
X160727093Y-87891464D01*
X160727093Y-87891464D02*
X160666616Y-87770511D01*
X160666616Y-87770511D02*
X160545664Y-87649559D01*
X160545664Y-87649559D02*
X160364235Y-87589083D01*
X160364235Y-87589083D02*
X160243283Y-87589083D01*
X160243283Y-87589083D02*
X160061854Y-87649559D01*
X160061854Y-87649559D02*
X160001378Y-87710035D01*
X159275664Y-88133368D02*
X159396616Y-88072892D01*
X159396616Y-88072892D02*
X159457093Y-88012416D01*
X159457093Y-88012416D02*
X159517569Y-87891464D01*
X159517569Y-87891464D02*
X159517569Y-87830987D01*
X159517569Y-87830987D02*
X159457093Y-87710035D01*
X159457093Y-87710035D02*
X159396616Y-87649559D01*
X159396616Y-87649559D02*
X159275664Y-87589083D01*
X159275664Y-87589083D02*
X159033759Y-87589083D01*
X159033759Y-87589083D02*
X158912807Y-87649559D01*
X158912807Y-87649559D02*
X158852331Y-87710035D01*
X158852331Y-87710035D02*
X158791854Y-87830987D01*
X158791854Y-87830987D02*
X158791854Y-87891464D01*
X158791854Y-87891464D02*
X158852331Y-88012416D01*
X158852331Y-88012416D02*
X158912807Y-88072892D01*
X158912807Y-88072892D02*
X159033759Y-88133368D01*
X159033759Y-88133368D02*
X159275664Y-88133368D01*
X159275664Y-88133368D02*
X159396616Y-88193845D01*
X159396616Y-88193845D02*
X159457093Y-88254321D01*
X159457093Y-88254321D02*
X159517569Y-88375273D01*
X159517569Y-88375273D02*
X159517569Y-88617178D01*
X159517569Y-88617178D02*
X159457093Y-88738130D01*
X159457093Y-88738130D02*
X159396616Y-88798607D01*
X159396616Y-88798607D02*
X159275664Y-88859083D01*
X159275664Y-88859083D02*
X159033759Y-88859083D01*
X159033759Y-88859083D02*
X158912807Y-88798607D01*
X158912807Y-88798607D02*
X158852331Y-88738130D01*
X158852331Y-88738130D02*
X158791854Y-88617178D01*
X158791854Y-88617178D02*
X158791854Y-88375273D01*
X158791854Y-88375273D02*
X158852331Y-88254321D01*
X158852331Y-88254321D02*
X158912807Y-88193845D01*
X158912807Y-88193845D02*
X159033759Y-88133368D01*
X146212010Y-93198606D02*
X146212010Y-91928606D01*
X144881533Y-93077653D02*
X144942009Y-93138130D01*
X144942009Y-93138130D02*
X145123438Y-93198606D01*
X145123438Y-93198606D02*
X145244390Y-93198606D01*
X145244390Y-93198606D02*
X145425819Y-93138130D01*
X145425819Y-93138130D02*
X145546771Y-93017177D01*
X145546771Y-93017177D02*
X145607248Y-92896225D01*
X145607248Y-92896225D02*
X145667724Y-92654320D01*
X145667724Y-92654320D02*
X145667724Y-92472891D01*
X145667724Y-92472891D02*
X145607248Y-92230987D01*
X145607248Y-92230987D02*
X145546771Y-92110034D01*
X145546771Y-92110034D02*
X145425819Y-91989082D01*
X145425819Y-91989082D02*
X145244390Y-91928606D01*
X145244390Y-91928606D02*
X145123438Y-91928606D01*
X145123438Y-91928606D02*
X144942009Y-91989082D01*
X144942009Y-91989082D02*
X144881533Y-92049558D01*
X144458200Y-91928606D02*
X143672009Y-91928606D01*
X143672009Y-91928606D02*
X144095343Y-92412415D01*
X144095343Y-92412415D02*
X143913914Y-92412415D01*
X143913914Y-92412415D02*
X143792962Y-92472891D01*
X143792962Y-92472891D02*
X143732486Y-92533368D01*
X143732486Y-92533368D02*
X143672009Y-92654320D01*
X143672009Y-92654320D02*
X143672009Y-92956701D01*
X143672009Y-92956701D02*
X143732486Y-93077653D01*
X143732486Y-93077653D02*
X143792962Y-93138130D01*
X143792962Y-93138130D02*
X143913914Y-93198606D01*
X143913914Y-93198606D02*
X144276771Y-93198606D01*
X144276771Y-93198606D02*
X144397724Y-93138130D01*
X144397724Y-93138130D02*
X144458200Y-93077653D01*
X123133778Y-84405157D02*
X123133778Y-83135157D01*
X121803301Y-84284204D02*
X121863777Y-84344681D01*
X121863777Y-84344681D02*
X122045206Y-84405157D01*
X122045206Y-84405157D02*
X122166158Y-84405157D01*
X122166158Y-84405157D02*
X122347587Y-84344681D01*
X122347587Y-84344681D02*
X122468539Y-84223728D01*
X122468539Y-84223728D02*
X122529016Y-84102776D01*
X122529016Y-84102776D02*
X122589492Y-83860871D01*
X122589492Y-83860871D02*
X122589492Y-83679442D01*
X122589492Y-83679442D02*
X122529016Y-83437538D01*
X122529016Y-83437538D02*
X122468539Y-83316585D01*
X122468539Y-83316585D02*
X122347587Y-83195633D01*
X122347587Y-83195633D02*
X122166158Y-83135157D01*
X122166158Y-83135157D02*
X122045206Y-83135157D01*
X122045206Y-83135157D02*
X121863777Y-83195633D01*
X121863777Y-83195633D02*
X121803301Y-83256109D01*
X121319492Y-83256109D02*
X121259016Y-83195633D01*
X121259016Y-83195633D02*
X121138063Y-83135157D01*
X121138063Y-83135157D02*
X120835682Y-83135157D01*
X120835682Y-83135157D02*
X120714730Y-83195633D01*
X120714730Y-83195633D02*
X120654254Y-83256109D01*
X120654254Y-83256109D02*
X120593777Y-83377061D01*
X120593777Y-83377061D02*
X120593777Y-83498014D01*
X120593777Y-83498014D02*
X120654254Y-83679442D01*
X120654254Y-83679442D02*
X121379968Y-84405157D01*
X121379968Y-84405157D02*
X120593777Y-84405157D01*
X171031805Y-70538522D02*
X171031805Y-69268522D01*
X171031805Y-69268522D02*
X170729424Y-69268522D01*
X170729424Y-69268522D02*
X170547995Y-69328998D01*
X170547995Y-69328998D02*
X170427043Y-69449950D01*
X170427043Y-69449950D02*
X170366566Y-69570903D01*
X170366566Y-69570903D02*
X170306090Y-69812807D01*
X170306090Y-69812807D02*
X170306090Y-69994236D01*
X170306090Y-69994236D02*
X170366566Y-70236141D01*
X170366566Y-70236141D02*
X170427043Y-70357093D01*
X170427043Y-70357093D02*
X170547995Y-70478046D01*
X170547995Y-70478046D02*
X170729424Y-70538522D01*
X170729424Y-70538522D02*
X171031805Y-70538522D01*
X169096566Y-70538522D02*
X169822281Y-70538522D01*
X169459424Y-70538522D02*
X169459424Y-69268522D01*
X169459424Y-69268522D02*
X169580376Y-69449950D01*
X169580376Y-69449950D02*
X169701328Y-69570903D01*
X169701328Y-69570903D02*
X169822281Y-69631379D01*
D10*
X130055321Y-95983809D02*
X130102940Y-96031429D01*
X130102940Y-96031429D02*
X130245797Y-96079048D01*
X130245797Y-96079048D02*
X130341035Y-96079048D01*
X130341035Y-96079048D02*
X130483892Y-96031429D01*
X130483892Y-96031429D02*
X130579130Y-95936190D01*
X130579130Y-95936190D02*
X130626749Y-95840952D01*
X130626749Y-95840952D02*
X130674368Y-95650476D01*
X130674368Y-95650476D02*
X130674368Y-95507619D01*
X130674368Y-95507619D02*
X130626749Y-95317143D01*
X130626749Y-95317143D02*
X130579130Y-95221905D01*
X130579130Y-95221905D02*
X130483892Y-95126667D01*
X130483892Y-95126667D02*
X130341035Y-95079048D01*
X130341035Y-95079048D02*
X130245797Y-95079048D01*
X130245797Y-95079048D02*
X130102940Y-95126667D01*
X130102940Y-95126667D02*
X130055321Y-95174286D01*
X129102940Y-96079048D02*
X129674368Y-96079048D01*
X129388654Y-96079048D02*
X129388654Y-95079048D01*
X129388654Y-95079048D02*
X129483892Y-95221905D01*
X129483892Y-95221905D02*
X129579130Y-95317143D01*
X129579130Y-95317143D02*
X129674368Y-95364762D01*
X128150559Y-96079048D02*
X128721987Y-96079048D01*
X128436273Y-96079048D02*
X128436273Y-95079048D01*
X128436273Y-95079048D02*
X128531511Y-95221905D01*
X128531511Y-95221905D02*
X128626749Y-95317143D01*
X128626749Y-95317143D02*
X128721987Y-95364762D01*
X116089855Y-78583755D02*
X116137475Y-78536136D01*
X116137475Y-78536136D02*
X116185094Y-78393279D01*
X116185094Y-78393279D02*
X116185094Y-78298041D01*
X116185094Y-78298041D02*
X116137475Y-78155184D01*
X116137475Y-78155184D02*
X116042236Y-78059946D01*
X116042236Y-78059946D02*
X115946998Y-78012327D01*
X115946998Y-78012327D02*
X115756522Y-77964708D01*
X115756522Y-77964708D02*
X115613665Y-77964708D01*
X115613665Y-77964708D02*
X115423189Y-78012327D01*
X115423189Y-78012327D02*
X115327951Y-78059946D01*
X115327951Y-78059946D02*
X115232713Y-78155184D01*
X115232713Y-78155184D02*
X115185094Y-78298041D01*
X115185094Y-78298041D02*
X115185094Y-78393279D01*
X115185094Y-78393279D02*
X115232713Y-78536136D01*
X115232713Y-78536136D02*
X115280332Y-78583755D01*
X116185094Y-79059946D02*
X116185094Y-79250422D01*
X116185094Y-79250422D02*
X116137475Y-79345660D01*
X116137475Y-79345660D02*
X116089855Y-79393279D01*
X116089855Y-79393279D02*
X115946998Y-79488517D01*
X115946998Y-79488517D02*
X115756522Y-79536136D01*
X115756522Y-79536136D02*
X115375570Y-79536136D01*
X115375570Y-79536136D02*
X115280332Y-79488517D01*
X115280332Y-79488517D02*
X115232713Y-79440898D01*
X115232713Y-79440898D02*
X115185094Y-79345660D01*
X115185094Y-79345660D02*
X115185094Y-79155184D01*
X115185094Y-79155184D02*
X115232713Y-79059946D01*
X115232713Y-79059946D02*
X115280332Y-79012327D01*
X115280332Y-79012327D02*
X115375570Y-78964708D01*
X115375570Y-78964708D02*
X115613665Y-78964708D01*
X115613665Y-78964708D02*
X115708903Y-79012327D01*
X115708903Y-79012327D02*
X115756522Y-79059946D01*
X115756522Y-79059946D02*
X115804141Y-79155184D01*
X115804141Y-79155184D02*
X115804141Y-79345660D01*
X115804141Y-79345660D02*
X115756522Y-79440898D01*
X115756522Y-79440898D02*
X115708903Y-79488517D01*
X115708903Y-79488517D02*
X115613665Y-79536136D01*
X121872202Y-75942587D02*
X121919821Y-75990207D01*
X121919821Y-75990207D02*
X122062678Y-76037826D01*
X122062678Y-76037826D02*
X122157916Y-76037826D01*
X122157916Y-76037826D02*
X122300773Y-75990207D01*
X122300773Y-75990207D02*
X122396011Y-75894968D01*
X122396011Y-75894968D02*
X122443630Y-75799730D01*
X122443630Y-75799730D02*
X122491249Y-75609254D01*
X122491249Y-75609254D02*
X122491249Y-75466397D01*
X122491249Y-75466397D02*
X122443630Y-75275921D01*
X122443630Y-75275921D02*
X122396011Y-75180683D01*
X122396011Y-75180683D02*
X122300773Y-75085445D01*
X122300773Y-75085445D02*
X122157916Y-75037826D01*
X122157916Y-75037826D02*
X122062678Y-75037826D01*
X122062678Y-75037826D02*
X121919821Y-75085445D01*
X121919821Y-75085445D02*
X121872202Y-75133064D01*
X121300773Y-75466397D02*
X121396011Y-75418778D01*
X121396011Y-75418778D02*
X121443630Y-75371159D01*
X121443630Y-75371159D02*
X121491249Y-75275921D01*
X121491249Y-75275921D02*
X121491249Y-75228302D01*
X121491249Y-75228302D02*
X121443630Y-75133064D01*
X121443630Y-75133064D02*
X121396011Y-75085445D01*
X121396011Y-75085445D02*
X121300773Y-75037826D01*
X121300773Y-75037826D02*
X121110297Y-75037826D01*
X121110297Y-75037826D02*
X121015059Y-75085445D01*
X121015059Y-75085445D02*
X120967440Y-75133064D01*
X120967440Y-75133064D02*
X120919821Y-75228302D01*
X120919821Y-75228302D02*
X120919821Y-75275921D01*
X120919821Y-75275921D02*
X120967440Y-75371159D01*
X120967440Y-75371159D02*
X121015059Y-75418778D01*
X121015059Y-75418778D02*
X121110297Y-75466397D01*
X121110297Y-75466397D02*
X121300773Y-75466397D01*
X121300773Y-75466397D02*
X121396011Y-75514016D01*
X121396011Y-75514016D02*
X121443630Y-75561635D01*
X121443630Y-75561635D02*
X121491249Y-75656873D01*
X121491249Y-75656873D02*
X121491249Y-75847349D01*
X121491249Y-75847349D02*
X121443630Y-75942587D01*
X121443630Y-75942587D02*
X121396011Y-75990207D01*
X121396011Y-75990207D02*
X121300773Y-76037826D01*
X121300773Y-76037826D02*
X121110297Y-76037826D01*
X121110297Y-76037826D02*
X121015059Y-75990207D01*
X121015059Y-75990207D02*
X120967440Y-75942587D01*
X120967440Y-75942587D02*
X120919821Y-75847349D01*
X120919821Y-75847349D02*
X120919821Y-75656873D01*
X120919821Y-75656873D02*
X120967440Y-75561635D01*
X120967440Y-75561635D02*
X121015059Y-75514016D01*
X121015059Y-75514016D02*
X121110297Y-75466397D01*
X149294612Y-116006397D02*
X149342231Y-116054017D01*
X149342231Y-116054017D02*
X149485088Y-116101636D01*
X149485088Y-116101636D02*
X149580326Y-116101636D01*
X149580326Y-116101636D02*
X149723183Y-116054017D01*
X149723183Y-116054017D02*
X149818421Y-115958778D01*
X149818421Y-115958778D02*
X149866040Y-115863540D01*
X149866040Y-115863540D02*
X149913659Y-115673064D01*
X149913659Y-115673064D02*
X149913659Y-115530207D01*
X149913659Y-115530207D02*
X149866040Y-115339731D01*
X149866040Y-115339731D02*
X149818421Y-115244493D01*
X149818421Y-115244493D02*
X149723183Y-115149255D01*
X149723183Y-115149255D02*
X149580326Y-115101636D01*
X149580326Y-115101636D02*
X149485088Y-115101636D01*
X149485088Y-115101636D02*
X149342231Y-115149255D01*
X149342231Y-115149255D02*
X149294612Y-115196874D01*
X148913659Y-115196874D02*
X148866040Y-115149255D01*
X148866040Y-115149255D02*
X148770802Y-115101636D01*
X148770802Y-115101636D02*
X148532707Y-115101636D01*
X148532707Y-115101636D02*
X148437469Y-115149255D01*
X148437469Y-115149255D02*
X148389850Y-115196874D01*
X148389850Y-115196874D02*
X148342231Y-115292112D01*
X148342231Y-115292112D02*
X148342231Y-115387350D01*
X148342231Y-115387350D02*
X148389850Y-115530207D01*
X148389850Y-115530207D02*
X148961278Y-116101636D01*
X148961278Y-116101636D02*
X148342231Y-116101636D01*
X139954819Y-60175395D02*
X140764342Y-60175395D01*
X140764342Y-60175395D02*
X140859580Y-60223014D01*
X140859580Y-60223014D02*
X140907200Y-60270633D01*
X140907200Y-60270633D02*
X140954819Y-60365871D01*
X140954819Y-60365871D02*
X140954819Y-60556347D01*
X140954819Y-60556347D02*
X140907200Y-60651585D01*
X140907200Y-60651585D02*
X140859580Y-60699204D01*
X140859580Y-60699204D02*
X140764342Y-60746823D01*
X140764342Y-60746823D02*
X139954819Y-60746823D01*
X140288152Y-61651585D02*
X140954819Y-61651585D01*
X139907200Y-61413490D02*
X140621485Y-61175395D01*
X140621485Y-61175395D02*
X140621485Y-61794442D01*
X137749319Y-73856833D02*
X137273128Y-73523500D01*
X137749319Y-73285405D02*
X136749319Y-73285405D01*
X136749319Y-73285405D02*
X136749319Y-73666357D01*
X136749319Y-73666357D02*
X136796938Y-73761595D01*
X136796938Y-73761595D02*
X136844557Y-73809214D01*
X136844557Y-73809214D02*
X136939795Y-73856833D01*
X136939795Y-73856833D02*
X137082652Y-73856833D01*
X137082652Y-73856833D02*
X137177890Y-73809214D01*
X137177890Y-73809214D02*
X137225509Y-73761595D01*
X137225509Y-73761595D02*
X137273128Y-73666357D01*
X137273128Y-73666357D02*
X137273128Y-73285405D01*
X137749319Y-74809214D02*
X137749319Y-74237786D01*
X137749319Y-74523500D02*
X136749319Y-74523500D01*
X136749319Y-74523500D02*
X136892176Y-74428262D01*
X136892176Y-74428262D02*
X136987414Y-74333024D01*
X136987414Y-74333024D02*
X137035033Y-74237786D01*
X125592819Y-111215333D02*
X125116628Y-110882000D01*
X125592819Y-110643905D02*
X124592819Y-110643905D01*
X124592819Y-110643905D02*
X124592819Y-111024857D01*
X124592819Y-111024857D02*
X124640438Y-111120095D01*
X124640438Y-111120095D02*
X124688057Y-111167714D01*
X124688057Y-111167714D02*
X124783295Y-111215333D01*
X124783295Y-111215333D02*
X124926152Y-111215333D01*
X124926152Y-111215333D02*
X125021390Y-111167714D01*
X125021390Y-111167714D02*
X125069009Y-111120095D01*
X125069009Y-111120095D02*
X125116628Y-111024857D01*
X125116628Y-111024857D02*
X125116628Y-110643905D01*
X124926152Y-112072476D02*
X125592819Y-112072476D01*
X124545200Y-111834381D02*
X125259485Y-111596286D01*
X125259485Y-111596286D02*
X125259485Y-112215333D01*
X161772420Y-115924479D02*
X161820039Y-115972099D01*
X161820039Y-115972099D02*
X161962896Y-116019718D01*
X161962896Y-116019718D02*
X162058134Y-116019718D01*
X162058134Y-116019718D02*
X162200991Y-115972099D01*
X162200991Y-115972099D02*
X162296229Y-115876860D01*
X162296229Y-115876860D02*
X162343848Y-115781622D01*
X162343848Y-115781622D02*
X162391467Y-115591146D01*
X162391467Y-115591146D02*
X162391467Y-115448289D01*
X162391467Y-115448289D02*
X162343848Y-115257813D01*
X162343848Y-115257813D02*
X162296229Y-115162575D01*
X162296229Y-115162575D02*
X162200991Y-115067337D01*
X162200991Y-115067337D02*
X162058134Y-115019718D01*
X162058134Y-115019718D02*
X161962896Y-115019718D01*
X161962896Y-115019718D02*
X161820039Y-115067337D01*
X161820039Y-115067337D02*
X161772420Y-115114956D01*
X160915277Y-115353051D02*
X160915277Y-116019718D01*
X161153372Y-114972099D02*
X161391467Y-115686384D01*
X161391467Y-115686384D02*
X160772420Y-115686384D01*
X152568304Y-66410519D02*
X152568304Y-67220042D01*
X152568304Y-67220042D02*
X152520685Y-67315280D01*
X152520685Y-67315280D02*
X152473066Y-67362900D01*
X152473066Y-67362900D02*
X152377828Y-67410519D01*
X152377828Y-67410519D02*
X152187352Y-67410519D01*
X152187352Y-67410519D02*
X152092114Y-67362900D01*
X152092114Y-67362900D02*
X152044495Y-67315280D01*
X152044495Y-67315280D02*
X151996876Y-67220042D01*
X151996876Y-67220042D02*
X151996876Y-66410519D01*
X151615923Y-66410519D02*
X150996876Y-66410519D01*
X150996876Y-66410519D02*
X151330209Y-66791471D01*
X151330209Y-66791471D02*
X151187352Y-66791471D01*
X151187352Y-66791471D02*
X151092114Y-66839090D01*
X151092114Y-66839090D02*
X151044495Y-66886709D01*
X151044495Y-66886709D02*
X150996876Y-66981947D01*
X150996876Y-66981947D02*
X150996876Y-67220042D01*
X150996876Y-67220042D02*
X151044495Y-67315280D01*
X151044495Y-67315280D02*
X151092114Y-67362900D01*
X151092114Y-67362900D02*
X151187352Y-67410519D01*
X151187352Y-67410519D02*
X151473066Y-67410519D01*
X151473066Y-67410519D02*
X151568304Y-67362900D01*
X151568304Y-67362900D02*
X151615923Y-67315280D01*
X147847349Y-109833124D02*
X147371158Y-109499791D01*
X147847349Y-109261696D02*
X146847349Y-109261696D01*
X146847349Y-109261696D02*
X146847349Y-109642648D01*
X146847349Y-109642648D02*
X146894968Y-109737886D01*
X146894968Y-109737886D02*
X146942587Y-109785505D01*
X146942587Y-109785505D02*
X147037825Y-109833124D01*
X147037825Y-109833124D02*
X147180682Y-109833124D01*
X147180682Y-109833124D02*
X147275920Y-109785505D01*
X147275920Y-109785505D02*
X147323539Y-109737886D01*
X147323539Y-109737886D02*
X147371158Y-109642648D01*
X147371158Y-109642648D02*
X147371158Y-109261696D01*
X146847349Y-110166458D02*
X146847349Y-110785505D01*
X146847349Y-110785505D02*
X147228301Y-110452172D01*
X147228301Y-110452172D02*
X147228301Y-110595029D01*
X147228301Y-110595029D02*
X147275920Y-110690267D01*
X147275920Y-110690267D02*
X147323539Y-110737886D01*
X147323539Y-110737886D02*
X147418777Y-110785505D01*
X147418777Y-110785505D02*
X147656872Y-110785505D01*
X147656872Y-110785505D02*
X147752110Y-110737886D01*
X147752110Y-110737886D02*
X147799730Y-110690267D01*
X147799730Y-110690267D02*
X147847349Y-110595029D01*
X147847349Y-110595029D02*
X147847349Y-110309315D01*
X147847349Y-110309315D02*
X147799730Y-110214077D01*
X147799730Y-110214077D02*
X147752110Y-110166458D01*
X134514854Y-116168340D02*
X134562473Y-116215960D01*
X134562473Y-116215960D02*
X134705330Y-116263579D01*
X134705330Y-116263579D02*
X134800568Y-116263579D01*
X134800568Y-116263579D02*
X134943425Y-116215960D01*
X134943425Y-116215960D02*
X135038663Y-116120721D01*
X135038663Y-116120721D02*
X135086282Y-116025483D01*
X135086282Y-116025483D02*
X135133901Y-115835007D01*
X135133901Y-115835007D02*
X135133901Y-115692150D01*
X135133901Y-115692150D02*
X135086282Y-115501674D01*
X135086282Y-115501674D02*
X135038663Y-115406436D01*
X135038663Y-115406436D02*
X134943425Y-115311198D01*
X134943425Y-115311198D02*
X134800568Y-115263579D01*
X134800568Y-115263579D02*
X134705330Y-115263579D01*
X134705330Y-115263579D02*
X134562473Y-115311198D01*
X134562473Y-115311198D02*
X134514854Y-115358817D01*
X133562473Y-116263579D02*
X134133901Y-116263579D01*
X133848187Y-116263579D02*
X133848187Y-115263579D01*
X133848187Y-115263579D02*
X133943425Y-115406436D01*
X133943425Y-115406436D02*
X134038663Y-115501674D01*
X134038663Y-115501674D02*
X134133901Y-115549293D01*
X139181757Y-82119619D02*
X139515090Y-81643428D01*
X139753185Y-82119619D02*
X139753185Y-81119619D01*
X139753185Y-81119619D02*
X139372233Y-81119619D01*
X139372233Y-81119619D02*
X139276995Y-81167238D01*
X139276995Y-81167238D02*
X139229376Y-81214857D01*
X139229376Y-81214857D02*
X139181757Y-81310095D01*
X139181757Y-81310095D02*
X139181757Y-81452952D01*
X139181757Y-81452952D02*
X139229376Y-81548190D01*
X139229376Y-81548190D02*
X139276995Y-81595809D01*
X139276995Y-81595809D02*
X139372233Y-81643428D01*
X139372233Y-81643428D02*
X139753185Y-81643428D01*
X138229376Y-82119619D02*
X138800804Y-82119619D01*
X138515090Y-82119619D02*
X138515090Y-81119619D01*
X138515090Y-81119619D02*
X138610328Y-81262476D01*
X138610328Y-81262476D02*
X138705566Y-81357714D01*
X138705566Y-81357714D02*
X138800804Y-81405333D01*
X137896042Y-81119619D02*
X137276995Y-81119619D01*
X137276995Y-81119619D02*
X137610328Y-81500571D01*
X137610328Y-81500571D02*
X137467471Y-81500571D01*
X137467471Y-81500571D02*
X137372233Y-81548190D01*
X137372233Y-81548190D02*
X137324614Y-81595809D01*
X137324614Y-81595809D02*
X137276995Y-81691047D01*
X137276995Y-81691047D02*
X137276995Y-81929142D01*
X137276995Y-81929142D02*
X137324614Y-82024380D01*
X137324614Y-82024380D02*
X137372233Y-82072000D01*
X137372233Y-82072000D02*
X137467471Y-82119619D01*
X137467471Y-82119619D02*
X137753185Y-82119619D01*
X137753185Y-82119619D02*
X137848423Y-82072000D01*
X137848423Y-82072000D02*
X137896042Y-82024380D01*
X137183919Y-97239133D02*
X136707728Y-96905800D01*
X137183919Y-96667705D02*
X136183919Y-96667705D01*
X136183919Y-96667705D02*
X136183919Y-97048657D01*
X136183919Y-97048657D02*
X136231538Y-97143895D01*
X136231538Y-97143895D02*
X136279157Y-97191514D01*
X136279157Y-97191514D02*
X136374395Y-97239133D01*
X136374395Y-97239133D02*
X136517252Y-97239133D01*
X136517252Y-97239133D02*
X136612490Y-97191514D01*
X136612490Y-97191514D02*
X136660109Y-97143895D01*
X136660109Y-97143895D02*
X136707728Y-97048657D01*
X136707728Y-97048657D02*
X136707728Y-96667705D01*
X136279157Y-97620086D02*
X136231538Y-97667705D01*
X136231538Y-97667705D02*
X136183919Y-97762943D01*
X136183919Y-97762943D02*
X136183919Y-98001038D01*
X136183919Y-98001038D02*
X136231538Y-98096276D01*
X136231538Y-98096276D02*
X136279157Y-98143895D01*
X136279157Y-98143895D02*
X136374395Y-98191514D01*
X136374395Y-98191514D02*
X136469633Y-98191514D01*
X136469633Y-98191514D02*
X136612490Y-98143895D01*
X136612490Y-98143895D02*
X137183919Y-97572467D01*
X137183919Y-97572467D02*
X137183919Y-98191514D01*
X170227457Y-106773280D02*
X170275076Y-106820900D01*
X170275076Y-106820900D02*
X170417933Y-106868519D01*
X170417933Y-106868519D02*
X170513171Y-106868519D01*
X170513171Y-106868519D02*
X170656028Y-106820900D01*
X170656028Y-106820900D02*
X170751266Y-106725661D01*
X170751266Y-106725661D02*
X170798885Y-106630423D01*
X170798885Y-106630423D02*
X170846504Y-106439947D01*
X170846504Y-106439947D02*
X170846504Y-106297090D01*
X170846504Y-106297090D02*
X170798885Y-106106614D01*
X170798885Y-106106614D02*
X170751266Y-106011376D01*
X170751266Y-106011376D02*
X170656028Y-105916138D01*
X170656028Y-105916138D02*
X170513171Y-105868519D01*
X170513171Y-105868519D02*
X170417933Y-105868519D01*
X170417933Y-105868519D02*
X170275076Y-105916138D01*
X170275076Y-105916138D02*
X170227457Y-105963757D01*
X169275076Y-106868519D02*
X169846504Y-106868519D01*
X169560790Y-106868519D02*
X169560790Y-105868519D01*
X169560790Y-105868519D02*
X169656028Y-106011376D01*
X169656028Y-106011376D02*
X169751266Y-106106614D01*
X169751266Y-106106614D02*
X169846504Y-106154233D01*
X168656028Y-105868519D02*
X168560790Y-105868519D01*
X168560790Y-105868519D02*
X168465552Y-105916138D01*
X168465552Y-105916138D02*
X168417933Y-105963757D01*
X168417933Y-105963757D02*
X168370314Y-106058995D01*
X168370314Y-106058995D02*
X168322695Y-106249471D01*
X168322695Y-106249471D02*
X168322695Y-106487566D01*
X168322695Y-106487566D02*
X168370314Y-106678042D01*
X168370314Y-106678042D02*
X168417933Y-106773280D01*
X168417933Y-106773280D02*
X168465552Y-106820900D01*
X168465552Y-106820900D02*
X168560790Y-106868519D01*
X168560790Y-106868519D02*
X168656028Y-106868519D01*
X168656028Y-106868519D02*
X168751266Y-106820900D01*
X168751266Y-106820900D02*
X168798885Y-106773280D01*
X168798885Y-106773280D02*
X168846504Y-106678042D01*
X168846504Y-106678042D02*
X168894123Y-106487566D01*
X168894123Y-106487566D02*
X168894123Y-106249471D01*
X168894123Y-106249471D02*
X168846504Y-106058995D01*
X168846504Y-106058995D02*
X168798885Y-105963757D01*
X168798885Y-105963757D02*
X168751266Y-105916138D01*
X168751266Y-105916138D02*
X168656028Y-105868519D01*
X156783466Y-91099419D02*
X157116799Y-90623228D01*
X157354894Y-91099419D02*
X157354894Y-90099419D01*
X157354894Y-90099419D02*
X156973942Y-90099419D01*
X156973942Y-90099419D02*
X156878704Y-90147038D01*
X156878704Y-90147038D02*
X156831085Y-90194657D01*
X156831085Y-90194657D02*
X156783466Y-90289895D01*
X156783466Y-90289895D02*
X156783466Y-90432752D01*
X156783466Y-90432752D02*
X156831085Y-90527990D01*
X156831085Y-90527990D02*
X156878704Y-90575609D01*
X156878704Y-90575609D02*
X156973942Y-90623228D01*
X156973942Y-90623228D02*
X157354894Y-90623228D01*
X156212037Y-90527990D02*
X156307275Y-90480371D01*
X156307275Y-90480371D02*
X156354894Y-90432752D01*
X156354894Y-90432752D02*
X156402513Y-90337514D01*
X156402513Y-90337514D02*
X156402513Y-90289895D01*
X156402513Y-90289895D02*
X156354894Y-90194657D01*
X156354894Y-90194657D02*
X156307275Y-90147038D01*
X156307275Y-90147038D02*
X156212037Y-90099419D01*
X156212037Y-90099419D02*
X156021561Y-90099419D01*
X156021561Y-90099419D02*
X155926323Y-90147038D01*
X155926323Y-90147038D02*
X155878704Y-90194657D01*
X155878704Y-90194657D02*
X155831085Y-90289895D01*
X155831085Y-90289895D02*
X155831085Y-90337514D01*
X155831085Y-90337514D02*
X155878704Y-90432752D01*
X155878704Y-90432752D02*
X155926323Y-90480371D01*
X155926323Y-90480371D02*
X156021561Y-90527990D01*
X156021561Y-90527990D02*
X156212037Y-90527990D01*
X156212037Y-90527990D02*
X156307275Y-90575609D01*
X156307275Y-90575609D02*
X156354894Y-90623228D01*
X156354894Y-90623228D02*
X156402513Y-90718466D01*
X156402513Y-90718466D02*
X156402513Y-90908942D01*
X156402513Y-90908942D02*
X156354894Y-91004180D01*
X156354894Y-91004180D02*
X156307275Y-91051800D01*
X156307275Y-91051800D02*
X156212037Y-91099419D01*
X156212037Y-91099419D02*
X156021561Y-91099419D01*
X156021561Y-91099419D02*
X155926323Y-91051800D01*
X155926323Y-91051800D02*
X155878704Y-91004180D01*
X155878704Y-91004180D02*
X155831085Y-90908942D01*
X155831085Y-90908942D02*
X155831085Y-90718466D01*
X155831085Y-90718466D02*
X155878704Y-90623228D01*
X155878704Y-90623228D02*
X155926323Y-90575609D01*
X155926323Y-90575609D02*
X156021561Y-90527990D01*
X139248957Y-85791419D02*
X139582290Y-85315228D01*
X139820385Y-85791419D02*
X139820385Y-84791419D01*
X139820385Y-84791419D02*
X139439433Y-84791419D01*
X139439433Y-84791419D02*
X139344195Y-84839038D01*
X139344195Y-84839038D02*
X139296576Y-84886657D01*
X139296576Y-84886657D02*
X139248957Y-84981895D01*
X139248957Y-84981895D02*
X139248957Y-85124752D01*
X139248957Y-85124752D02*
X139296576Y-85219990D01*
X139296576Y-85219990D02*
X139344195Y-85267609D01*
X139344195Y-85267609D02*
X139439433Y-85315228D01*
X139439433Y-85315228D02*
X139820385Y-85315228D01*
X138296576Y-85791419D02*
X138868004Y-85791419D01*
X138582290Y-85791419D02*
X138582290Y-84791419D01*
X138582290Y-84791419D02*
X138677528Y-84934276D01*
X138677528Y-84934276D02*
X138772766Y-85029514D01*
X138772766Y-85029514D02*
X138868004Y-85077133D01*
X137915623Y-84886657D02*
X137868004Y-84839038D01*
X137868004Y-84839038D02*
X137772766Y-84791419D01*
X137772766Y-84791419D02*
X137534671Y-84791419D01*
X137534671Y-84791419D02*
X137439433Y-84839038D01*
X137439433Y-84839038D02*
X137391814Y-84886657D01*
X137391814Y-84886657D02*
X137344195Y-84981895D01*
X137344195Y-84981895D02*
X137344195Y-85077133D01*
X137344195Y-85077133D02*
X137391814Y-85219990D01*
X137391814Y-85219990D02*
X137963242Y-85791419D01*
X137963242Y-85791419D02*
X137344195Y-85791419D01*
X154330147Y-62506861D02*
X154377767Y-62459242D01*
X154377767Y-62459242D02*
X154425386Y-62316385D01*
X154425386Y-62316385D02*
X154425386Y-62221147D01*
X154425386Y-62221147D02*
X154377767Y-62078290D01*
X154377767Y-62078290D02*
X154282528Y-61983052D01*
X154282528Y-61983052D02*
X154187290Y-61935433D01*
X154187290Y-61935433D02*
X153996814Y-61887814D01*
X153996814Y-61887814D02*
X153853957Y-61887814D01*
X153853957Y-61887814D02*
X153663481Y-61935433D01*
X153663481Y-61935433D02*
X153568243Y-61983052D01*
X153568243Y-61983052D02*
X153473005Y-62078290D01*
X153473005Y-62078290D02*
X153425386Y-62221147D01*
X153425386Y-62221147D02*
X153425386Y-62316385D01*
X153425386Y-62316385D02*
X153473005Y-62459242D01*
X153473005Y-62459242D02*
X153520624Y-62506861D01*
X153425386Y-62840195D02*
X153425386Y-63506861D01*
X153425386Y-63506861D02*
X154425386Y-63078290D01*
X148310980Y-62376433D02*
X148358600Y-62328814D01*
X148358600Y-62328814D02*
X148406219Y-62185957D01*
X148406219Y-62185957D02*
X148406219Y-62090719D01*
X148406219Y-62090719D02*
X148358600Y-61947862D01*
X148358600Y-61947862D02*
X148263361Y-61852624D01*
X148263361Y-61852624D02*
X148168123Y-61805005D01*
X148168123Y-61805005D02*
X147977647Y-61757386D01*
X147977647Y-61757386D02*
X147834790Y-61757386D01*
X147834790Y-61757386D02*
X147644314Y-61805005D01*
X147644314Y-61805005D02*
X147549076Y-61852624D01*
X147549076Y-61852624D02*
X147453838Y-61947862D01*
X147453838Y-61947862D02*
X147406219Y-62090719D01*
X147406219Y-62090719D02*
X147406219Y-62185957D01*
X147406219Y-62185957D02*
X147453838Y-62328814D01*
X147453838Y-62328814D02*
X147501457Y-62376433D01*
X147406219Y-63233576D02*
X147406219Y-63043100D01*
X147406219Y-63043100D02*
X147453838Y-62947862D01*
X147453838Y-62947862D02*
X147501457Y-62900243D01*
X147501457Y-62900243D02*
X147644314Y-62805005D01*
X147644314Y-62805005D02*
X147834790Y-62757386D01*
X147834790Y-62757386D02*
X148215742Y-62757386D01*
X148215742Y-62757386D02*
X148310980Y-62805005D01*
X148310980Y-62805005D02*
X148358600Y-62852624D01*
X148358600Y-62852624D02*
X148406219Y-62947862D01*
X148406219Y-62947862D02*
X148406219Y-63138338D01*
X148406219Y-63138338D02*
X148358600Y-63233576D01*
X148358600Y-63233576D02*
X148310980Y-63281195D01*
X148310980Y-63281195D02*
X148215742Y-63328814D01*
X148215742Y-63328814D02*
X147977647Y-63328814D01*
X147977647Y-63328814D02*
X147882409Y-63281195D01*
X147882409Y-63281195D02*
X147834790Y-63233576D01*
X147834790Y-63233576D02*
X147787171Y-63138338D01*
X147787171Y-63138338D02*
X147787171Y-62947862D01*
X147787171Y-62947862D02*
X147834790Y-62852624D01*
X147834790Y-62852624D02*
X147882409Y-62805005D01*
X147882409Y-62805005D02*
X147977647Y-62757386D01*
D11*
X122474831Y-99821709D02*
X122474831Y-98551709D01*
X121144354Y-99700756D02*
X121204830Y-99761233D01*
X121204830Y-99761233D02*
X121386259Y-99821709D01*
X121386259Y-99821709D02*
X121507211Y-99821709D01*
X121507211Y-99821709D02*
X121688640Y-99761233D01*
X121688640Y-99761233D02*
X121809592Y-99640280D01*
X121809592Y-99640280D02*
X121870069Y-99519328D01*
X121870069Y-99519328D02*
X121930545Y-99277423D01*
X121930545Y-99277423D02*
X121930545Y-99095994D01*
X121930545Y-99095994D02*
X121870069Y-98854090D01*
X121870069Y-98854090D02*
X121809592Y-98733137D01*
X121809592Y-98733137D02*
X121688640Y-98612185D01*
X121688640Y-98612185D02*
X121507211Y-98551709D01*
X121507211Y-98551709D02*
X121386259Y-98551709D01*
X121386259Y-98551709D02*
X121204830Y-98612185D01*
X121204830Y-98612185D02*
X121144354Y-98672661D01*
X119934830Y-99821709D02*
X120660545Y-99821709D01*
X120297688Y-99821709D02*
X120297688Y-98551709D01*
X120297688Y-98551709D02*
X120418640Y-98733137D01*
X120418640Y-98733137D02*
X120539592Y-98854090D01*
X120539592Y-98854090D02*
X120660545Y-98914566D01*
D12*
%TO.C,R9*%
X128282136Y-103857900D02*
X129736264Y-103857900D01*
X128282136Y-105677900D02*
X129736264Y-105677900D01*
D13*
%TO.C,IC9*%
X158501900Y-97015200D02*
X161697900Y-97015200D01*
X158501900Y-101919200D02*
X158501900Y-97015200D01*
X161697900Y-101919200D02*
X158501900Y-101919200D01*
X161697900Y-97015200D02*
X161697900Y-101919200D01*
X162047900Y-96887200D02*
X163574900Y-96887200D01*
%TO.C,IC8*%
X158531700Y-82247100D02*
X161727700Y-82247100D01*
X158531700Y-87151100D02*
X158531700Y-82247100D01*
X161727700Y-87151100D02*
X158531700Y-87151100D01*
X161727700Y-82247100D02*
X161727700Y-87151100D01*
X162077700Y-82119100D02*
X163604700Y-82119100D01*
%TO.C,IC3*%
X148206800Y-91002700D02*
X150506800Y-91002700D01*
X148206800Y-94002700D02*
X148206800Y-91002700D01*
X150506800Y-94002700D02*
X148206800Y-94002700D01*
X150506800Y-91002700D02*
X150506800Y-94002700D01*
X150856800Y-91002700D02*
X152256800Y-91002700D01*
%TO.C,IC2*%
X121597500Y-79684900D02*
X121997500Y-79684900D01*
X121597500Y-82584900D02*
X121597500Y-79684900D01*
X121997500Y-82584900D02*
X121597500Y-82584900D01*
X121997500Y-79684900D02*
X121997500Y-82584900D01*
X122347500Y-79634900D02*
X123747500Y-79634900D01*
%TO.C,D1*%
X167310202Y-70929772D02*
X167110202Y-70929772D01*
X167310202Y-68929772D02*
X167310202Y-70929772D01*
X167110202Y-68929772D02*
X167310202Y-68929772D01*
X167110202Y-70929772D02*
X167110202Y-68929772D01*
X166760202Y-71104772D02*
X165760202Y-71104772D01*
D12*
%TO.C,C11*%
X128701212Y-96564229D02*
X130123716Y-96564229D01*
X128701212Y-98384229D02*
X130123716Y-98384229D01*
%TO.C,C9*%
X118307143Y-78054119D02*
X118307143Y-79476623D01*
X116487143Y-78054119D02*
X116487143Y-79476623D01*
%TO.C,C8*%
X120994284Y-76523007D02*
X122416788Y-76523007D01*
X120994284Y-78343007D02*
X122416788Y-78343007D01*
%TO.C,C2*%
X153344852Y-114675900D02*
X151922348Y-114675900D01*
X153344852Y-116495900D02*
X151922348Y-116495900D01*
%TO.C,U4*%
X141340000Y-58987300D02*
X141340000Y-60937300D01*
X141340000Y-62887300D02*
X141340000Y-60937300D01*
X146460000Y-58987300D02*
X146460000Y-60937300D01*
X146460000Y-62887300D02*
X146460000Y-60937300D01*
X141435000Y-58237300D02*
X141105000Y-58477300D01*
X141105000Y-57997300D01*
X141435000Y-58237300D01*
G36*
X141435000Y-58237300D02*
G01*
X141105000Y-58477300D01*
X141105000Y-57997300D01*
X141435000Y-58237300D01*
G37*
%TO.C,R1*%
X138204500Y-74750564D02*
X138204500Y-73296436D01*
X140024500Y-74750564D02*
X140024500Y-73296436D01*
%TO.C,R4*%
X126048000Y-112109064D02*
X126048000Y-110654936D01*
X127868000Y-112109064D02*
X127868000Y-110654936D01*
%TO.C,C4*%
X157299848Y-114651000D02*
X158722352Y-114651000D01*
X157299848Y-116471000D02*
X158722352Y-116471000D01*
%TO.C,U3*%
X147946400Y-67790700D02*
X151806400Y-67790700D01*
X147946400Y-68035700D02*
X147946400Y-67790700D01*
X147946400Y-79315700D02*
X147946400Y-79560700D01*
X147946400Y-79560700D02*
X151806400Y-79560700D01*
X155666400Y-67790700D02*
X151806400Y-67790700D01*
X155666400Y-68035700D02*
X155666400Y-67790700D01*
X155666400Y-79315700D02*
X155666400Y-79560700D01*
X155666400Y-79560700D02*
X151806400Y-79560700D01*
X156518900Y-68035700D02*
X156178900Y-67565700D01*
X156858900Y-67565700D01*
X156518900Y-68035700D01*
G36*
X156518900Y-68035700D02*
G01*
X156178900Y-67565700D01*
X156858900Y-67565700D01*
X156518900Y-68035700D01*
G37*
%TO.C,R3*%
X144734300Y-110815964D02*
X144734300Y-109361836D01*
X146554300Y-110815964D02*
X146554300Y-109361836D01*
%TO.C,C1*%
X133603948Y-116587000D02*
X135026452Y-116587000D01*
X133603948Y-118407000D02*
X135026452Y-118407000D01*
%TO.C,R13*%
X139265964Y-78934800D02*
X137811836Y-78934800D01*
X139265964Y-80754800D02*
X137811836Y-80754800D01*
%TO.C,R2*%
X137639100Y-98132864D02*
X137639100Y-96678736D01*
X139459100Y-98132864D02*
X139459100Y-96678736D01*
%TO.C,C10*%
X168873348Y-107353700D02*
X170295852Y-107353700D01*
X168873348Y-109173700D02*
X170295852Y-109173700D01*
%TO.C,R8*%
X155889736Y-91554600D02*
X157343864Y-91554600D01*
X155889736Y-93374600D02*
X157343864Y-93374600D01*
%TO.C,R12*%
X139333164Y-82606600D02*
X137879036Y-82606600D01*
X139333164Y-84426600D02*
X137879036Y-84426600D01*
%TO.C,C7*%
X151361300Y-63250652D02*
X151361300Y-61828148D01*
X153181300Y-63250652D02*
X153181300Y-61828148D01*
%TO.C,C6*%
X148891400Y-63254352D02*
X148891400Y-61831848D01*
X150711400Y-63254352D02*
X150711400Y-61831848D01*
D13*
%TO.C,IC1*%
X119680900Y-100270100D02*
X122876900Y-100270100D01*
X119680900Y-105174100D02*
X119680900Y-100270100D01*
X122876900Y-100270100D02*
X122876900Y-105174100D01*
X122876900Y-105174100D02*
X119680900Y-105174100D01*
X123226900Y-100142100D02*
X124753900Y-100142100D01*
%TD*%
%LPC*%
D14*
%TO.C,U5*%
X134999500Y-70018000D03*
X134999500Y-73418000D03*
X125079500Y-70018000D03*
X125079500Y-73418000D03*
%TD*%
D15*
%TO.C,Reset1*%
X130246900Y-113672200D03*
D16*
X123746900Y-113672200D03*
X130246900Y-109172200D03*
X123746900Y-109172200D03*
%TD*%
D17*
%TO.C,R15*%
X157647100Y-104798200D03*
X173147100Y-104798200D03*
%TD*%
%TO.C,R14*%
X159993000Y-79369700D03*
X175493000Y-79369700D03*
%TD*%
D18*
%TO.C,R9*%
X130559200Y-104767900D03*
X127459200Y-104767900D03*
%TD*%
D19*
%TO.C,Q1*%
X142661000Y-73200500D03*
D20*
X142661000Y-70660500D03*
X142661000Y-68120500D03*
%TD*%
D21*
%TO.C,IC9*%
X162810900Y-97562200D03*
X162810900Y-98832200D03*
X162810900Y-100102200D03*
X162810900Y-101372200D03*
X157388900Y-101372200D03*
X157388900Y-100102200D03*
X157388900Y-98832200D03*
X157388900Y-97562200D03*
%TD*%
%TO.C,IC8*%
X162840700Y-82794100D03*
X162840700Y-84064100D03*
X162840700Y-85334100D03*
X162840700Y-86604100D03*
X157418700Y-86604100D03*
X157418700Y-85334100D03*
X157418700Y-84064100D03*
X157418700Y-82794100D03*
%TD*%
D22*
%TO.C,IC3*%
X151556800Y-91502700D03*
X151556800Y-92002700D03*
X151556800Y-92502700D03*
X151556800Y-93002700D03*
X151556800Y-93502700D03*
X147156800Y-93502700D03*
X147156800Y-93002700D03*
X147156800Y-92502700D03*
X147156800Y-92002700D03*
X147156800Y-91502700D03*
%TD*%
D23*
%TO.C,IC2*%
X123047500Y-80184900D03*
X123047500Y-81134900D03*
X123047500Y-82084900D03*
X120547500Y-82084900D03*
X120547500Y-80184900D03*
%TD*%
D24*
%TO.C,D1*%
X166260202Y-70579772D03*
X166260202Y-69279772D03*
X168160202Y-69929772D03*
%TD*%
D25*
%TO.C,C11*%
X130974964Y-97474229D03*
X127849964Y-97474229D03*
%TD*%
D26*
%TO.C,C9*%
X117397143Y-80327871D03*
X117397143Y-77202871D03*
%TD*%
D25*
%TO.C,C8*%
X123268036Y-77433007D03*
X120143036Y-77433007D03*
%TD*%
D27*
%TO.C,R7*%
X157377500Y-59141700D03*
D28*
X159917500Y-59141700D03*
%TD*%
D29*
%TO.C,J1*%
X161878800Y-75088800D03*
D30*
X161878800Y-72548800D03*
X161878800Y-70008800D03*
X161878800Y-67468800D03*
%TD*%
D31*
%TO.C,IC6*%
X154212600Y-103245600D03*
D32*
X154212600Y-100745600D03*
X154212600Y-98245600D03*
X154212600Y-95745600D03*
%TD*%
D27*
%TO.C,NTC1*%
X145636900Y-114199700D03*
D28*
X145636900Y-116739700D03*
%TD*%
D33*
%TO.C,J3*%
X146254600Y-120744200D03*
D34*
X143714600Y-120744200D03*
X141174600Y-120744200D03*
X138634600Y-120744200D03*
X136094600Y-120744200D03*
X133554600Y-120744200D03*
%TD*%
D31*
%TO.C,IC4*%
X154212600Y-88411000D03*
D32*
X154212600Y-85911000D03*
X154212600Y-83411000D03*
X154212600Y-80911000D03*
%TD*%
D27*
%TO.C,R6*%
X138245100Y-59523000D03*
D28*
X138245100Y-62063000D03*
%TD*%
D33*
%TO.C,Powerboard1*%
X130976300Y-87552600D03*
D34*
X130976300Y-90092600D03*
X130976300Y-92632600D03*
%TD*%
D35*
%TO.C,U2*%
X134701200Y-78351400D03*
D28*
X134701200Y-80891400D03*
X134701200Y-83431400D03*
X134701200Y-85971400D03*
X134701200Y-88511400D03*
X134701200Y-91051400D03*
X134701200Y-93591400D03*
X134701200Y-96131400D03*
X134701200Y-98671400D03*
X134701200Y-101211400D03*
X134701200Y-103751400D03*
X134701200Y-106291400D03*
X134701200Y-108831400D03*
X134701200Y-111371400D03*
X142321200Y-111371400D03*
X142321200Y-108831400D03*
X142321200Y-106291400D03*
X142321200Y-103751400D03*
X142321200Y-101211400D03*
X142321200Y-98671400D03*
X142321200Y-96131400D03*
X142321200Y-93591400D03*
X142321200Y-91051400D03*
X142321200Y-88511400D03*
X142321200Y-85971400D03*
X142321200Y-83431400D03*
X142321200Y-80891400D03*
X142321200Y-78351400D03*
%TD*%
D33*
%TO.C,J5*%
X157311000Y-62619500D03*
D34*
X159851000Y-62619500D03*
%TD*%
D16*
%TO.C,Y2*%
X153001300Y-110501200D03*
X157881300Y-110501200D03*
%TD*%
%TO.C,Y1*%
X152976400Y-119755600D03*
X157856400Y-119755600D03*
%TD*%
D36*
%TO.C,U1*%
X169814800Y-111629200D03*
D37*
X168544800Y-111629200D03*
X167274800Y-111629200D03*
%TD*%
D38*
%TO.C,C2*%
X151071100Y-115585900D03*
X154196100Y-115585900D03*
%TD*%
D39*
%TO.C,U4*%
X141995000Y-58462300D03*
X143265000Y-58462300D03*
X144535000Y-58462300D03*
X145805000Y-58462300D03*
X145805000Y-63412300D03*
X144535000Y-63412300D03*
X143265000Y-63412300D03*
X141995000Y-63412300D03*
%TD*%
D40*
%TO.C,R1*%
X139114500Y-72473500D03*
X139114500Y-75573500D03*
%TD*%
%TO.C,R4*%
X126958000Y-109832000D03*
X126958000Y-112932000D03*
%TD*%
D25*
%TO.C,C4*%
X159573600Y-115561000D03*
X156448600Y-115561000D03*
%TD*%
D41*
%TO.C,U3*%
X156456400Y-68595700D03*
X156456400Y-69865700D03*
X156456400Y-71135700D03*
X156456400Y-72405700D03*
X156456400Y-73675700D03*
X156456400Y-74945700D03*
X156456400Y-76215700D03*
X156456400Y-77485700D03*
X156456400Y-78755700D03*
X147156400Y-78755700D03*
X147156400Y-77485700D03*
X147156400Y-76215700D03*
X147156400Y-74945700D03*
X147156400Y-73675700D03*
X147156400Y-72405700D03*
X147156400Y-71135700D03*
X147156400Y-69865700D03*
X147156400Y-68595700D03*
%TD*%
D40*
%TO.C,R3*%
X145644300Y-108538900D03*
X145644300Y-111638900D03*
%TD*%
D25*
%TO.C,C1*%
X135877700Y-117497000D03*
X132752700Y-117497000D03*
%TD*%
D42*
%TO.C,R13*%
X136988900Y-79844800D03*
X140088900Y-79844800D03*
%TD*%
D40*
%TO.C,R2*%
X138549100Y-95855800D03*
X138549100Y-98955800D03*
%TD*%
D25*
%TO.C,C10*%
X171147100Y-108263700D03*
X168022100Y-108263700D03*
%TD*%
D18*
%TO.C,R8*%
X158166800Y-92464600D03*
X155066800Y-92464600D03*
%TD*%
D42*
%TO.C,R12*%
X137056100Y-83516600D03*
X140156100Y-83516600D03*
%TD*%
D43*
%TO.C,C7*%
X152271300Y-60976900D03*
X152271300Y-64101900D03*
%TD*%
%TO.C,C6*%
X149801400Y-60980600D03*
X149801400Y-64105600D03*
%TD*%
D21*
%TO.C,IC1*%
X123989900Y-100817100D03*
X123989900Y-102087100D03*
X123989900Y-103357100D03*
X123989900Y-104627100D03*
X118567900Y-104627100D03*
X118567900Y-103357100D03*
X118567900Y-102087100D03*
X118567900Y-100817100D03*
%TD*%
%LPD*%
M02*
