%TF.GenerationSoftware,KiCad,Pcbnew,8.0.1-rc1*%
%TF.CreationDate,2024-11-22T07:55:53-08:00*%
%TF.ProjectId,AMS - CANBus Sensor - Vacuum,414d5320-2d20-4434-914e-427573205365,rev?*%
%TF.SameCoordinates,Original*%
%TF.FileFunction,Copper,L1,Top*%
%TF.FilePolarity,Positive*%
%FSLAX46Y46*%
G04 Gerber Fmt 4.6, Leading zero omitted, Abs format (unit mm)*
G04 Created by KiCad (PCBNEW 8.0.1-rc1) date 2024-11-22 07:55:53*
%MOMM*%
%LPD*%
G01*
G04 APERTURE LIST*
G04 Aperture macros list*
%AMRoundRect*
0 Rectangle with rounded corners*
0 $1 Rounding radius*
0 $2 $3 $4 $5 $6 $7 $8 $9 X,Y pos of 4 corners*
0 Add a 4 corners polygon primitive as box body*
4,1,4,$2,$3,$4,$5,$6,$7,$8,$9,$2,$3,0*
0 Add four circle primitives for the rounded corners*
1,1,$1+$1,$2,$3*
1,1,$1+$1,$4,$5*
1,1,$1+$1,$6,$7*
1,1,$1+$1,$8,$9*
0 Add four rect primitives between the rounded corners*
20,1,$1+$1,$2,$3,$4,$5,0*
20,1,$1+$1,$4,$5,$6,$7,0*
20,1,$1+$1,$6,$7,$8,$9,0*
20,1,$1+$1,$8,$9,$2,$3,0*%
G04 Aperture macros list end*
%TA.AperFunction,ComponentPad*%
%ADD10C,2.400000*%
%TD*%
%TA.AperFunction,ComponentPad*%
%ADD11R,1.500000X1.500000*%
%TD*%
%TA.AperFunction,ComponentPad*%
%ADD12C,1.500000*%
%TD*%
%TA.AperFunction,ComponentPad*%
%ADD13C,1.200000*%
%TD*%
%TA.AperFunction,ComponentPad*%
%ADD14R,1.920000X1.920000*%
%TD*%
%TA.AperFunction,ComponentPad*%
%ADD15C,1.920000*%
%TD*%
%TA.AperFunction,SMDPad,CuDef*%
%ADD16RoundRect,0.250000X-0.412500X-0.650000X0.412500X-0.650000X0.412500X0.650000X-0.412500X0.650000X0*%
%TD*%
%TA.AperFunction,SMDPad,CuDef*%
%ADD17RoundRect,0.250000X-0.400000X-0.625000X0.400000X-0.625000X0.400000X0.625000X-0.400000X0.625000X0*%
%TD*%
%TA.AperFunction,ComponentPad*%
%ADD18C,1.600000*%
%TD*%
%TA.AperFunction,ComponentPad*%
%ADD19O,1.600000X1.600000*%
%TD*%
%TA.AperFunction,ComponentPad*%
%ADD20R,2.200000X2.200000*%
%TD*%
%TA.AperFunction,ComponentPad*%
%ADD21C,2.200000*%
%TD*%
%TA.AperFunction,ComponentPad*%
%ADD22R,1.365000X1.365000*%
%TD*%
%TA.AperFunction,ComponentPad*%
%ADD23C,1.365000*%
%TD*%
%TA.AperFunction,ComponentPad*%
%ADD24R,1.700000X1.700000*%
%TD*%
%TA.AperFunction,ComponentPad*%
%ADD25O,1.700000X1.700000*%
%TD*%
%TA.AperFunction,SMDPad,CuDef*%
%ADD26R,1.000000X3.150000*%
%TD*%
%TA.AperFunction,ComponentPad*%
%ADD27R,1.600000X1.600000*%
%TD*%
%TA.AperFunction,SMDPad,CuDef*%
%ADD28RoundRect,0.250000X0.412500X0.650000X-0.412500X0.650000X-0.412500X-0.650000X0.412500X-0.650000X0*%
%TD*%
%TA.AperFunction,ComponentPad*%
%ADD29R,1.050000X1.500000*%
%TD*%
%TA.AperFunction,ComponentPad*%
%ADD30O,1.050000X1.500000*%
%TD*%
%TA.AperFunction,SMDPad,CuDef*%
%ADD31RoundRect,0.250000X0.625000X-0.400000X0.625000X0.400000X-0.625000X0.400000X-0.625000X-0.400000X0*%
%TD*%
%TA.AperFunction,ViaPad*%
%ADD32C,0.600000*%
%TD*%
%TA.AperFunction,Conductor*%
%ADD33C,0.200000*%
%TD*%
%TA.AperFunction,Conductor*%
%ADD34C,0.889000*%
%TD*%
G04 APERTURE END LIST*
D10*
%TO.P,U5,1,1*%
%TO.N,Net-(Q1-Pad3)*%
X134999500Y-70018000D03*
%TO.P,U5,2,2*%
X134999500Y-73418000D03*
%TO.P,U5,3,3*%
%TO.N,+VDC*%
X125079500Y-70018000D03*
%TO.P,U5,4,4*%
X125079500Y-73418000D03*
%TD*%
D11*
%TO.P,Reset1,1,NO_1*%
%TO.N,/BareMinAtmel328P/RESET*%
X130246900Y-113672200D03*
D12*
%TO.P,Reset1,2,NO_2*%
%TO.N,unconnected-(Reset1-NO_2-Pad2)*%
X123746900Y-113672200D03*
%TO.P,Reset1,3,COM_1*%
%TO.N,GND*%
X130246900Y-109172200D03*
%TO.P,Reset1,4,COM_2*%
%TO.N,unconnected-(Reset1-COM_2-Pad4)*%
X123746900Y-109172200D03*
%TD*%
D13*
%TO.P,R15,1*%
%TO.N,Net-(IC9-RG_1)*%
X157647100Y-104798200D03*
%TO.P,R15,2*%
%TO.N,Net-(IC9-RG_2)*%
X173147100Y-104798200D03*
%TD*%
%TO.P,R14,1*%
%TO.N,Net-(IC8-RG_1)*%
X159993000Y-79369700D03*
%TO.P,R14,2*%
%TO.N,Net-(IC8-RG_2)*%
X175493000Y-79369700D03*
%TD*%
D14*
%TO.P,Q1,1*%
%TO.N,Net-(Q1-Pad1)*%
X142661000Y-73200500D03*
D15*
%TO.P,Q1,2*%
%TO.N,Net-(J1-Pin_1)*%
X142661000Y-70660500D03*
%TO.P,Q1,3*%
%TO.N,Net-(Q1-Pad3)*%
X142661000Y-68120500D03*
%TD*%
D16*
%TO.P,C3,1*%
%TO.N,Net-(U2-XTAL2{slash}PB7)*%
X151058600Y-115592400D03*
%TO.P,C3,2*%
%TO.N,GND*%
X154183600Y-115592400D03*
%TD*%
D17*
%TO.P,R17,1*%
%TO.N,Net-(IC1-+IN_A)*%
X127568600Y-101447900D03*
%TO.P,R17,2*%
%TO.N,GND*%
X130668600Y-101447900D03*
%TD*%
D18*
%TO.P,R7,1*%
%TO.N,Net-(J5-Pin_2)*%
X157377500Y-59141700D03*
D19*
%TO.P,R7,2*%
%TO.N,CANBUS_L*%
X159917500Y-59141700D03*
%TD*%
D20*
%TO.P,J1,1,Pin_1*%
%TO.N,Net-(J1-Pin_1)*%
X161878800Y-75088800D03*
D21*
%TO.P,J1,2,Pin_2*%
%TO.N,GND*%
X161878800Y-72548800D03*
%TO.P,J1,3,Pin_3*%
%TO.N,CANBUS_H*%
X161878800Y-70008800D03*
%TO.P,J1,4,Pin_4*%
%TO.N,CANBUS_L*%
X161878800Y-67468800D03*
%TD*%
D22*
%TO.P,IC6,1,VCC*%
%TO.N,+10V*%
X154212600Y-103245600D03*
D23*
%TO.P,IC6,2,OUTPUT_A*%
%TO.N,Net-(IC6-OUTPUT_A)*%
X154212600Y-100745600D03*
%TO.P,IC6,3,GROUND*%
%TO.N,GND*%
X154212600Y-98245600D03*
%TO.P,IC6,4,OUTPUT_B*%
%TO.N,Net-(IC6-OUTPUT_B)*%
X154212600Y-95745600D03*
%TD*%
D18*
%TO.P,NTC1,1*%
%TO.N,/BareMinAtmel328P/PC0-A0*%
X145636900Y-114199700D03*
D19*
%TO.P,NTC1,2*%
%TO.N,+5V*%
X145636900Y-116739700D03*
%TD*%
D17*
%TO.P,R16,1*%
%TO.N,+VDC*%
X122436000Y-101475200D03*
%TO.P,R16,2*%
%TO.N,Net-(IC1-+IN_A)*%
X125536000Y-101475200D03*
%TD*%
D24*
%TO.P,J3,1,Pin_1*%
%TO.N,GND*%
X146254600Y-120744200D03*
D25*
%TO.P,J3,2,Pin_2*%
%TO.N,unconnected-(J3-Pin_2-Pad2)*%
X143714600Y-120744200D03*
%TO.P,J3,3,Pin_3*%
%TO.N,+5V*%
X141174600Y-120744200D03*
%TO.P,J3,4,Pin_4*%
%TO.N,/BareMinAtmel328P/PD0-RX*%
X138634600Y-120744200D03*
%TO.P,J3,5,Pin_5*%
%TO.N,/BareMinAtmel328P/PD1-TX*%
X136094600Y-120744200D03*
%TO.P,J3,6,Pin_6*%
%TO.N,Net-(J3-Pin_6)*%
X133554600Y-120744200D03*
%TD*%
D22*
%TO.P,IC4,1,VCC*%
%TO.N,+10V*%
X154212600Y-88411000D03*
D23*
%TO.P,IC4,2,OUTPUT_A*%
%TO.N,Net-(IC4-OUTPUT_A)*%
X154212600Y-85911000D03*
%TO.P,IC4,3,GROUND*%
%TO.N,GND*%
X154212600Y-83411000D03*
%TO.P,IC4,4,OUTPUT_B*%
%TO.N,Net-(IC4-OUTPUT_B)*%
X154212600Y-80911000D03*
%TD*%
D18*
%TO.P,R6,1*%
%TO.N,Net-(U4-Rs)*%
X138245100Y-59523000D03*
D19*
%TO.P,R6,2*%
%TO.N,GND*%
X138245100Y-62063000D03*
%TD*%
D24*
%TO.P,Powerboard1,1,Pin_1*%
%TO.N,+VDC*%
X130976300Y-87552600D03*
D25*
%TO.P,Powerboard1,2,Pin_2*%
%TO.N,+5V*%
X130976300Y-90092600D03*
%TO.P,Powerboard1,3,Pin_3*%
%TO.N,GND*%
X130976300Y-92632600D03*
%TD*%
D26*
%TO.P,J4,1,Pin_1*%
%TO.N,/BareMinAtmel328P/PB4-D12-MISO*%
X154355600Y-68596200D03*
%TO.P,J4,2,Pin_2*%
%TO.N,/BareMinAtmel328P/PB5-D13-SCK*%
X154355600Y-73646200D03*
%TO.P,J4,3,Pin_3*%
%TO.N,/BareMinAtmel328P/RESET*%
X151815600Y-68596200D03*
%TO.P,J4,4,Pin_4*%
%TO.N,+5V*%
X151815600Y-73646200D03*
%TO.P,J4,5,Pin_5*%
%TO.N,/BareMinAtmel328P/PB3-D11-MOSI*%
X149275600Y-68596200D03*
%TO.P,J4,6,Pin_6*%
%TO.N,GND*%
X149275600Y-73646200D03*
%TD*%
D27*
%TO.P,U2,1,~{RESET}/PC6*%
%TO.N,/BareMinAtmel328P/RESET*%
X134701200Y-78351400D03*
D19*
%TO.P,U2,2,PD0*%
%TO.N,/BareMinAtmel328P/PD0-RX*%
X134701200Y-80891400D03*
%TO.P,U2,3,PD1*%
%TO.N,/BareMinAtmel328P/PD1-TX*%
X134701200Y-83431400D03*
%TO.P,U2,4,PD2*%
%TO.N,/BareMinAtmel328P/PD2-D2*%
X134701200Y-85971400D03*
%TO.P,U2,5,PD3*%
%TO.N,/ADS1115/Alert{slash}Ready*%
X134701200Y-88511400D03*
%TO.P,U2,6,PD4*%
%TO.N,/BareMinAtmel328P/PD4-D4*%
X134701200Y-91051400D03*
%TO.P,U2,7,VCC*%
%TO.N,+5V*%
X134701200Y-93591400D03*
%TO.P,U2,8,GND*%
%TO.N,GND*%
X134701200Y-96131400D03*
%TO.P,U2,9,XTAL1/PB6*%
%TO.N,Net-(U2-XTAL1{slash}PB6)*%
X134701200Y-98671400D03*
%TO.P,U2,10,XTAL2/PB7*%
%TO.N,Net-(U2-XTAL2{slash}PB7)*%
X134701200Y-101211400D03*
%TO.P,U2,11,PD5*%
%TO.N,/BareMinAtmel328P/PD5-D5*%
X134701200Y-103751400D03*
%TO.P,U2,12,PD6*%
%TO.N,/BareMinAtmel328P/PD6-D6*%
X134701200Y-106291400D03*
%TO.P,U2,13,PD7*%
%TO.N,/BareMinAtmel328P/PD7-D7*%
X134701200Y-108831400D03*
%TO.P,U2,14,PB0*%
%TO.N,/BareMinAtmel328P/PB0-D8*%
X134701200Y-111371400D03*
%TO.P,U2,15,PB1*%
%TO.N,/BareMinAtmel328P/PB1-D9*%
X142321200Y-111371400D03*
%TO.P,U2,16,PB2*%
%TO.N,/BareMinAtmel328P/PB2-D10-SS*%
X142321200Y-108831400D03*
%TO.P,U2,17,PB3*%
%TO.N,/BareMinAtmel328P/PB3-D11-MOSI*%
X142321200Y-106291400D03*
%TO.P,U2,18,PB4*%
%TO.N,/BareMinAtmel328P/PB4-D12-MISO*%
X142321200Y-103751400D03*
%TO.P,U2,19,PB5*%
%TO.N,/BareMinAtmel328P/PB5-D13-SCK*%
X142321200Y-101211400D03*
%TO.P,U2,20,AVCC*%
%TO.N,+5V*%
X142321200Y-98671400D03*
%TO.P,U2,21,AREF*%
%TO.N,/BareMinAtmel328P/AREF*%
X142321200Y-96131400D03*
%TO.P,U2,22,GND*%
%TO.N,GND*%
X142321200Y-93591400D03*
%TO.P,U2,23,PC0*%
%TO.N,/BareMinAtmel328P/PC0-A0*%
X142321200Y-91051400D03*
%TO.P,U2,24,PC1*%
%TO.N,/BareMinAtmel328P/PC1-A1*%
X142321200Y-88511400D03*
%TO.P,U2,25,PC2*%
%TO.N,/BareMinAtmel328P/PC2-A2*%
X142321200Y-85971400D03*
%TO.P,U2,26,PC3*%
%TO.N,/BareMinAtmel328P/PC3-A3*%
X142321200Y-83431400D03*
%TO.P,U2,27,PC4*%
%TO.N,/SDAB*%
X142321200Y-80891400D03*
%TO.P,U2,28,PC5*%
%TO.N,/SCLB*%
X142321200Y-78351400D03*
%TD*%
D24*
%TO.P,J5,1,Pin_1*%
%TO.N,CANBUS_H*%
X157311000Y-62619500D03*
D25*
%TO.P,J5,2,Pin_2*%
%TO.N,Net-(J5-Pin_2)*%
X159851000Y-62619500D03*
%TD*%
D17*
%TO.P,R19,1*%
%TO.N,/ADS1115/AIN0*%
X115539900Y-105468100D03*
%TO.P,R19,2*%
%TO.N,GND*%
X118639900Y-105468100D03*
%TD*%
D12*
%TO.P,Y2,1,1*%
%TO.N,Net-(U3-OSC1)*%
X153001300Y-110501200D03*
%TO.P,Y2,2,2*%
%TO.N,Net-(U3-OSC2)*%
X157881300Y-110501200D03*
%TD*%
D28*
%TO.P,C5,1*%
%TO.N,Net-(U3-OSC1)*%
X159583600Y-115580100D03*
%TO.P,C5,2*%
%TO.N,GND*%
X156458600Y-115580100D03*
%TD*%
D12*
%TO.P,Y1,1,1*%
%TO.N,Net-(U2-XTAL2{slash}PB7)*%
X152976400Y-119755600D03*
%TO.P,Y1,2,2*%
%TO.N,Net-(U2-XTAL1{slash}PB6)*%
X157856400Y-119755600D03*
%TD*%
D29*
%TO.P,U1,1,REF*%
%TO.N,+2V5*%
X169814800Y-111629200D03*
D30*
%TO.P,U1,2,A*%
%TO.N,GND*%
X168544800Y-111629200D03*
%TO.P,U1,3,K*%
%TO.N,+2V5*%
X167274800Y-111629200D03*
%TD*%
D17*
%TO.P,R18,1*%
%TO.N,/ADS1115/AIN3*%
X115545200Y-101795800D03*
%TO.P,R18,2*%
%TO.N,GND*%
X118645200Y-101795800D03*
%TD*%
D31*
%TO.P,R5,1*%
%TO.N,Net-(U3-~{RESET})*%
X146060400Y-69117100D03*
%TO.P,R5,2*%
%TO.N,+5V*%
X146060400Y-66017100D03*
%TD*%
D32*
%TO.N,Net-(IC6-OUTPUT_A)*%
X161213100Y-101189400D03*
%TO.N,Net-(IC6-OUTPUT_B)*%
X160513900Y-96831600D03*
%TO.N,Net-(IC4-OUTPUT_A)*%
X161447600Y-85911000D03*
%TO.N,Net-(IC4-OUTPUT_B)*%
X161775000Y-80911000D03*
%TO.N,/ADS1115/AIN2*%
X147586200Y-94242500D03*
X153143600Y-94705800D03*
%TO.N,/ADS1115/Alert{slash}Ready*%
X150641300Y-89839500D03*
%TO.N,Net-(IC1-+IN_A)*%
X125260600Y-103081700D03*
%TO.N,Net-(U3-~{RESET})*%
X144668200Y-69720800D03*
%TO.N,+2V5*%
X132131200Y-105169500D03*
%TO.N,+10V*%
X126647800Y-79481400D03*
%TO.N,/ADS1115/AIN0*%
X116866100Y-105230600D03*
%TO.N,/ADS1115/AIN3*%
X145575200Y-96856600D03*
X116799200Y-102045700D03*
%TO.N,/BareMinAtmel328P/PD1-TX*%
X133070600Y-89659900D03*
%TO.N,/BareMinAtmel328P/PB4-D12-MISO*%
X152428100Y-66517200D03*
%TO.N,/BareMinAtmel328P/PB3-D11-MOSI*%
X150424300Y-69869400D03*
%TO.N,/BareMinAtmel328P/PB5-D13-SCK*%
X145581000Y-74799700D03*
%TO.N,+5V*%
X156118300Y-97744900D03*
X153111200Y-72658300D03*
X149122600Y-66084300D03*
X148008700Y-61592000D03*
%TD*%
D33*
%TO.N,Net-(IC6-OUTPUT_A)*%
X160769300Y-100745600D02*
X161213100Y-101189400D01*
X154212600Y-100745600D02*
X160769300Y-100745600D01*
%TO.N,Net-(IC6-OUTPUT_B)*%
X159427900Y-95745600D02*
X160513900Y-96831600D01*
X154212600Y-95745600D02*
X159427900Y-95745600D01*
%TO.N,Net-(IC4-OUTPUT_A)*%
X154212600Y-85911000D02*
X161447600Y-85911000D01*
%TO.N,Net-(IC4-OUTPUT_B)*%
X154212600Y-80911000D02*
X161775000Y-80911000D01*
%TO.N,/ADS1115/AIN2*%
X152680300Y-94242500D02*
X147586200Y-94242500D01*
X153143600Y-94705800D02*
X152680300Y-94242500D01*
%TO.N,/ADS1115/Alert{slash}Ready*%
X134701200Y-88511400D02*
X135802900Y-88511400D01*
X137131000Y-89839500D02*
X150641300Y-89839500D01*
X135802900Y-88511400D02*
X137131000Y-89839500D01*
%TO.N,Net-(IC1-+IN_A)*%
X127541300Y-101475200D02*
X127568600Y-101447900D01*
X125536000Y-101475200D02*
X127541300Y-101475200D01*
X125536000Y-102806300D02*
X125260600Y-103081700D01*
X125536000Y-101475200D02*
X125536000Y-102806300D01*
%TO.N,Net-(U3-~{RESET})*%
X145271900Y-69117100D02*
X144668200Y-69720800D01*
X146060400Y-69117100D02*
X145271900Y-69117100D01*
%TO.N,+2V5*%
X156743200Y-105169500D02*
X132131200Y-105169500D01*
X163202900Y-111629200D02*
X156743200Y-105169500D01*
X167274800Y-111629200D02*
X163202900Y-111629200D01*
%TO.N,+10V*%
X144298800Y-79481400D02*
X126647800Y-79481400D01*
X153228400Y-88411000D02*
X144298800Y-79481400D01*
X153720500Y-88411000D02*
X153228400Y-88411000D01*
X153720500Y-88411000D02*
X154212600Y-88411000D01*
X154212600Y-88411000D02*
X154212600Y-89395200D01*
X154212600Y-103245600D02*
X154212600Y-102261400D01*
X161136100Y-96318700D02*
X154212600Y-89395200D01*
X161136100Y-97061700D02*
X161136100Y-96318700D01*
X158497300Y-99700500D02*
X161136100Y-97061700D01*
X153804700Y-99700500D02*
X158497300Y-99700500D01*
X153228400Y-100276800D02*
X153804700Y-99700500D01*
X153228400Y-101277200D02*
X153228400Y-100276800D01*
X154212600Y-102261400D02*
X153228400Y-101277200D01*
%TO.N,Net-(J1-Pin_1)*%
X161878800Y-75088800D02*
X161878900Y-75088700D01*
D34*
X157606000Y-70815700D02*
X161878900Y-75088700D01*
X142816000Y-70815700D02*
X157606000Y-70815700D01*
X142661000Y-70660500D02*
X142816000Y-70815700D01*
X161878900Y-75088700D02*
X161879000Y-75088800D01*
D33*
%TO.N,Net-(U3-OSC1)*%
X154504700Y-110501200D02*
X153001300Y-110501200D01*
X159583600Y-115580100D02*
X154504700Y-110501200D01*
%TO.N,Net-(U2-XTAL2{slash}PB7)*%
X151058600Y-117837800D02*
X151058600Y-115592400D01*
X152976400Y-119755600D02*
X151058600Y-117837800D01*
X134701200Y-101211400D02*
X134701200Y-102313100D01*
X134085300Y-102313100D02*
X134701200Y-102313100D01*
X131529500Y-104868900D02*
X134085300Y-102313100D01*
X131529500Y-105473900D02*
X131529500Y-104868900D01*
X133617000Y-107561400D02*
X131529500Y-105473900D01*
X143027600Y-107561400D02*
X133617000Y-107561400D01*
X151058600Y-115592400D02*
X143027600Y-107561400D01*
D34*
%TO.N,Net-(Q1-Pad3)*%
X135000000Y-71718000D02*
X135000000Y-73418000D01*
D33*
X134999500Y-71718500D02*
X134999500Y-73418000D01*
X135000000Y-71718000D02*
X134999500Y-71718500D01*
X137882000Y-70018000D02*
X134999500Y-70018000D01*
D34*
X140764000Y-70018000D02*
X137882000Y-70018000D01*
X142661000Y-68120500D02*
X140764000Y-70018000D01*
X135000000Y-70018000D02*
X135000000Y-71718000D01*
X137882000Y-70018000D02*
X135000000Y-70018000D01*
D33*
%TO.N,/ADS1115/AIN0*%
X116866100Y-105230700D02*
X116866100Y-105230600D01*
X115777300Y-105230700D02*
X116866100Y-105230700D01*
X115539900Y-105468100D02*
X115777300Y-105230700D01*
%TO.N,/ADS1115/AIN3*%
X116549300Y-101795800D02*
X116799200Y-102045700D01*
X115545200Y-101795800D02*
X116549300Y-101795800D01*
X144862100Y-97569700D02*
X145575200Y-96856600D01*
X141864800Y-97569700D02*
X144862100Y-97569700D01*
X139493100Y-99941400D02*
X141864800Y-97569700D01*
X134340400Y-99941400D02*
X139493100Y-99941400D01*
X131077900Y-103203900D02*
X134340400Y-99941400D01*
X131077900Y-105593000D02*
X131077900Y-103203900D01*
X131329500Y-105844600D02*
X131077900Y-105593000D01*
X131329500Y-109598300D02*
X131329500Y-105844600D01*
X130703700Y-110224100D02*
X131329500Y-109598300D01*
X128782000Y-110224100D02*
X130703700Y-110224100D01*
X125802000Y-107244100D02*
X128782000Y-110224100D01*
X118535300Y-107244100D02*
X125802000Y-107244100D01*
X117517100Y-106225900D02*
X118535300Y-107244100D01*
X117517100Y-102763600D02*
X117517100Y-106225900D01*
X116799200Y-102045700D02*
X117517100Y-102763600D01*
%TO.N,+VDC*%
X125079500Y-72422300D02*
X125079500Y-73418000D01*
X125080000Y-72421800D02*
X125079500Y-72422300D01*
D34*
X125080000Y-70018000D02*
X125080000Y-71219900D01*
X125080000Y-71219900D02*
X125080000Y-72421800D01*
D33*
X125079500Y-71219400D02*
X125079500Y-70018000D01*
X125080000Y-71219900D02*
X125079500Y-71219400D01*
D34*
X125080000Y-81655800D02*
X130976000Y-87552600D01*
X125080000Y-72421800D02*
X125080000Y-81655800D01*
D33*
X130976300Y-87552600D02*
X130976000Y-87552600D01*
X122436000Y-96092600D02*
X130976000Y-87552600D01*
X122436000Y-101475200D02*
X122436000Y-96092600D01*
%TO.N,/BareMinAtmel328P/PD1-TX*%
X134701200Y-83431400D02*
X134701200Y-84533100D01*
X133070600Y-86026000D02*
X133070600Y-89659900D01*
X134563500Y-84533100D02*
X133070600Y-86026000D01*
X134701200Y-84533100D02*
X134563500Y-84533100D01*
%TO.N,/BareMinAtmel328P/PB4-D12-MISO*%
X154355600Y-68596200D02*
X154355600Y-66719500D01*
X142321200Y-103751400D02*
X143422900Y-103751400D01*
X152630400Y-66719500D02*
X152428100Y-66517200D01*
X154355600Y-66719500D02*
X152630400Y-66719500D01*
X155016300Y-66058800D02*
X154355600Y-66719500D01*
X162469000Y-66058800D02*
X155016300Y-66058800D01*
X163332400Y-66922200D02*
X162469000Y-66058800D01*
X163332400Y-99921000D02*
X163332400Y-66922200D01*
X161462300Y-101791100D02*
X163332400Y-99921000D01*
X159184100Y-101791100D02*
X161462300Y-101791100D01*
X156745400Y-104229800D02*
X159184100Y-101791100D01*
X143901300Y-104229800D02*
X156745400Y-104229800D01*
X143422900Y-103751400D02*
X143901300Y-104229800D01*
%TO.N,/BareMinAtmel328P/PB3-D11-MOSI*%
X149275600Y-68720700D02*
X150424300Y-69869400D01*
X149275600Y-68596200D02*
X149275600Y-68720700D01*
%TO.N,/BareMinAtmel328P/PB5-D13-SCK*%
X154355600Y-73646200D02*
X154355600Y-71769500D01*
X148611200Y-71769500D02*
X145581000Y-74799700D01*
X154355600Y-71769500D02*
X148611200Y-71769500D01*
%TO.N,+5V*%
X134525100Y-92489700D02*
X134701200Y-92489700D01*
X132128000Y-90092600D02*
X134525100Y-92489700D01*
X130976300Y-90092600D02*
X132128000Y-90092600D01*
X134701200Y-93591400D02*
X134701200Y-92489700D01*
X142321200Y-98671400D02*
X143422900Y-98671400D01*
X152803500Y-72658300D02*
X153111200Y-72658300D01*
X151815600Y-73646200D02*
X152803500Y-72658300D01*
X143989500Y-99238000D02*
X143422900Y-98671400D01*
X154625200Y-99238000D02*
X143989500Y-99238000D01*
X156118300Y-97744900D02*
X154625200Y-99238000D01*
X148008700Y-66017100D02*
X148008700Y-61592000D01*
X149055400Y-66017100D02*
X148008700Y-66017100D01*
X149122600Y-66084300D02*
X149055400Y-66017100D01*
X148008700Y-66017100D02*
X146060400Y-66017100D01*
%TO.N,/BareMinAtmel328P/RESET*%
X134701200Y-78351400D02*
X134701200Y-77249700D01*
X151815600Y-68596200D02*
X151815600Y-66719500D01*
X148159000Y-66719500D02*
X151815600Y-66719500D01*
X147875000Y-67003500D02*
X148159000Y-66719500D01*
X144805800Y-67003500D02*
X147875000Y-67003500D01*
X144630100Y-66827800D02*
X144805800Y-67003500D01*
X136040600Y-66827800D02*
X144630100Y-66827800D01*
X133464800Y-69403600D02*
X136040600Y-66827800D01*
X133464800Y-76013300D02*
X133464800Y-69403600D01*
X134701200Y-77249700D02*
X133464800Y-76013300D01*
%TO.N,GND*%
X146254600Y-120744200D02*
X147406300Y-120744200D01*
X142321200Y-93591400D02*
X143422900Y-93591400D01*
X148077100Y-98245600D02*
X143422900Y-93591400D01*
X154212600Y-98245600D02*
X148077100Y-98245600D01*
X134701200Y-96131400D02*
X134701200Y-97233100D01*
X134525100Y-95029700D02*
X134701200Y-95029700D01*
X132128000Y-92632600D02*
X134525100Y-95029700D01*
X130976300Y-92632600D02*
X132128000Y-92632600D01*
X134701200Y-96131400D02*
X134701200Y-95580500D01*
X134701200Y-95580500D02*
X134701200Y-95029700D01*
X139230400Y-95580500D02*
X141219500Y-93591400D01*
X134701200Y-95580500D02*
X139230400Y-95580500D01*
X142321200Y-93591400D02*
X141219500Y-93591400D01*
X149275600Y-78474000D02*
X149275600Y-73646200D01*
X154212600Y-83411000D02*
X149275600Y-78474000D01*
X147477400Y-120815300D02*
X147406300Y-120744200D01*
X153473000Y-120815300D02*
X147477400Y-120815300D01*
X154183600Y-120104700D02*
X153473000Y-120815300D01*
X154183600Y-115592400D02*
X154183600Y-120104700D01*
X130668600Y-101128000D02*
X130668600Y-101447900D01*
X134563500Y-97233100D02*
X130668600Y-101128000D01*
X134701200Y-97233100D02*
X134563500Y-97233100D01*
X130070900Y-102045600D02*
X130070900Y-105468100D01*
X130668600Y-101447900D02*
X130070900Y-102045600D01*
X130070900Y-108996200D02*
X130246900Y-109172200D01*
X130070900Y-105468100D02*
X130070900Y-108996200D01*
X156446300Y-115592400D02*
X156458600Y-115580100D01*
X154183600Y-115592400D02*
X156446300Y-115592400D01*
X168544800Y-111629200D02*
X168544800Y-112680900D01*
X164432500Y-116793200D02*
X168544800Y-112680900D01*
X157671700Y-116793200D02*
X164432500Y-116793200D01*
X156458600Y-115580100D02*
X157671700Y-116793200D01*
X118645200Y-105468100D02*
X118645200Y-101795800D01*
X130070900Y-105468100D02*
X118645200Y-105468100D01*
X118645200Y-105468100D02*
X118639900Y-105468100D01*
%TD*%
M02*
