%TF.GenerationSoftware,KiCad,Pcbnew,8.0.1-rc1*%
%TF.CreationDate,2024-11-22T07:55:53-08:00*%
%TF.ProjectId,AMS - CANBus Sensor - Vacuum,414d5320-2d20-4434-914e-427573205365,rev?*%
%TF.SameCoordinates,Original*%
%TF.FileFunction,Legend,Top*%
%TF.FilePolarity,Positive*%
%FSLAX46Y46*%
G04 Gerber Fmt 4.6, Leading zero omitted, Abs format (unit mm)*
G04 Created by KiCad (PCBNEW 8.0.1-rc1) date 2024-11-22 07:55:53*
%MOMM*%
%LPD*%
G01*
G04 APERTURE LIST*
G04 Aperture macros list*
%AMRoundRect*
0 Rectangle with rounded corners*
0 $1 Rounding radius*
0 $2 $3 $4 $5 $6 $7 $8 $9 X,Y pos of 4 corners*
0 Add a 4 corners polygon primitive as box body*
4,1,4,$2,$3,$4,$5,$6,$7,$8,$9,$2,$3,0*
0 Add four circle primitives for the rounded corners*
1,1,$1+$1,$2,$3*
1,1,$1+$1,$4,$5*
1,1,$1+$1,$6,$7*
1,1,$1+$1,$8,$9*
0 Add four rect primitives between the rounded corners*
20,1,$1+$1,$2,$3,$4,$5,0*
20,1,$1+$1,$4,$5,$6,$7,0*
20,1,$1+$1,$6,$7,$8,$9,0*
20,1,$1+$1,$8,$9,$2,$3,0*%
G04 Aperture macros list end*
%ADD10C,0.100000*%
%ADD11C,0.150000*%
%ADD12C,0.254000*%
%ADD13C,0.200000*%
%ADD14C,0.120000*%
%ADD15C,2.400000*%
%ADD16R,1.500000X1.500000*%
%ADD17C,1.500000*%
%ADD18C,1.200000*%
%ADD19R,1.920000X1.920000*%
%ADD20C,1.920000*%
%ADD21RoundRect,0.250000X-0.412500X-0.650000X0.412500X-0.650000X0.412500X0.650000X-0.412500X0.650000X0*%
%ADD22RoundRect,0.250000X-0.400000X-0.625000X0.400000X-0.625000X0.400000X0.625000X-0.400000X0.625000X0*%
%ADD23C,1.600000*%
%ADD24O,1.600000X1.600000*%
%ADD25R,2.200000X2.200000*%
%ADD26C,2.200000*%
%ADD27R,1.365000X1.365000*%
%ADD28C,1.365000*%
%ADD29R,1.700000X1.700000*%
%ADD30O,1.700000X1.700000*%
%ADD31R,1.000000X3.150000*%
%ADD32R,1.600000X1.600000*%
%ADD33RoundRect,0.250000X0.412500X0.650000X-0.412500X0.650000X-0.412500X-0.650000X0.412500X-0.650000X0*%
%ADD34R,1.050000X1.500000*%
%ADD35O,1.050000X1.500000*%
%ADD36RoundRect,0.250000X0.625000X-0.400000X0.625000X0.400000X-0.625000X0.400000X-0.625000X-0.400000X0*%
G04 APERTURE END LIST*
D10*
X132728538Y-75617463D02*
X132728538Y-108002463D01*
X113077021Y-75617463D02*
X113170283Y-108002464D01*
X132728538Y-108002463D02*
X113170538Y-108002463D01*
X132728538Y-75617463D02*
X113077021Y-75617463D01*
X147180994Y-76063643D02*
X147133375Y-76158881D01*
X147133375Y-76158881D02*
X147133375Y-76301738D01*
X147133375Y-76301738D02*
X147180994Y-76444595D01*
X147180994Y-76444595D02*
X147276232Y-76539833D01*
X147276232Y-76539833D02*
X147371470Y-76587452D01*
X147371470Y-76587452D02*
X147561946Y-76635071D01*
X147561946Y-76635071D02*
X147704803Y-76635071D01*
X147704803Y-76635071D02*
X147895279Y-76587452D01*
X147895279Y-76587452D02*
X147990517Y-76539833D01*
X147990517Y-76539833D02*
X148085756Y-76444595D01*
X148085756Y-76444595D02*
X148133375Y-76301738D01*
X148133375Y-76301738D02*
X148133375Y-76206500D01*
X148133375Y-76206500D02*
X148085756Y-76063643D01*
X148085756Y-76063643D02*
X148038136Y-76016024D01*
X148038136Y-76016024D02*
X147704803Y-76016024D01*
X147704803Y-76016024D02*
X147704803Y-76206500D01*
X148133375Y-75587452D02*
X147133375Y-75587452D01*
X147133375Y-75587452D02*
X148133375Y-75016024D01*
X148133375Y-75016024D02*
X147133375Y-75016024D01*
X148133375Y-74539833D02*
X147133375Y-74539833D01*
X147133375Y-74539833D02*
X147133375Y-74301738D01*
X147133375Y-74301738D02*
X147180994Y-74158881D01*
X147180994Y-74158881D02*
X147276232Y-74063643D01*
X147276232Y-74063643D02*
X147371470Y-74016024D01*
X147371470Y-74016024D02*
X147561946Y-73968405D01*
X147561946Y-73968405D02*
X147704803Y-73968405D01*
X147704803Y-73968405D02*
X147895279Y-74016024D01*
X147895279Y-74016024D02*
X147990517Y-74063643D01*
X147990517Y-74063643D02*
X148085756Y-74158881D01*
X148085756Y-74158881D02*
X148133375Y-74301738D01*
X148133375Y-74301738D02*
X148133375Y-74539833D01*
X162709605Y-63397734D02*
X162709605Y-63969162D01*
X162709605Y-63683448D02*
X161709605Y-63683448D01*
X161709605Y-63683448D02*
X161852462Y-63778686D01*
X161852462Y-63778686D02*
X161947700Y-63873924D01*
X161947700Y-63873924D02*
X161995319Y-63969162D01*
X161804843Y-63016781D02*
X161757224Y-62969162D01*
X161757224Y-62969162D02*
X161709605Y-62873924D01*
X161709605Y-62873924D02*
X161709605Y-62635829D01*
X161709605Y-62635829D02*
X161757224Y-62540591D01*
X161757224Y-62540591D02*
X161804843Y-62492972D01*
X161804843Y-62492972D02*
X161900081Y-62445353D01*
X161900081Y-62445353D02*
X161995319Y-62445353D01*
X161995319Y-62445353D02*
X162138176Y-62492972D01*
X162138176Y-62492972D02*
X162709605Y-63064400D01*
X162709605Y-63064400D02*
X162709605Y-62445353D01*
X161709605Y-61826305D02*
X161709605Y-61731067D01*
X161709605Y-61731067D02*
X161757224Y-61635829D01*
X161757224Y-61635829D02*
X161804843Y-61588210D01*
X161804843Y-61588210D02*
X161900081Y-61540591D01*
X161900081Y-61540591D02*
X162090557Y-61492972D01*
X162090557Y-61492972D02*
X162328652Y-61492972D01*
X162328652Y-61492972D02*
X162519128Y-61540591D01*
X162519128Y-61540591D02*
X162614366Y-61588210D01*
X162614366Y-61588210D02*
X162661986Y-61635829D01*
X162661986Y-61635829D02*
X162709605Y-61731067D01*
X162709605Y-61731067D02*
X162709605Y-61826305D01*
X162709605Y-61826305D02*
X162661986Y-61921543D01*
X162661986Y-61921543D02*
X162614366Y-61969162D01*
X162614366Y-61969162D02*
X162519128Y-62016781D01*
X162519128Y-62016781D02*
X162328652Y-62064400D01*
X162328652Y-62064400D02*
X162090557Y-62064400D01*
X162090557Y-62064400D02*
X161900081Y-62016781D01*
X161900081Y-62016781D02*
X161804843Y-61969162D01*
X161804843Y-61969162D02*
X161757224Y-61921543D01*
X161757224Y-61921543D02*
X161709605Y-61826305D01*
X161709605Y-60112019D02*
X161709605Y-59921543D01*
X161709605Y-59921543D02*
X161757224Y-59826305D01*
X161757224Y-59826305D02*
X161852462Y-59731067D01*
X161852462Y-59731067D02*
X162042938Y-59683448D01*
X162042938Y-59683448D02*
X162376271Y-59683448D01*
X162376271Y-59683448D02*
X162566747Y-59731067D01*
X162566747Y-59731067D02*
X162661986Y-59826305D01*
X162661986Y-59826305D02*
X162709605Y-59921543D01*
X162709605Y-59921543D02*
X162709605Y-60112019D01*
X162709605Y-60112019D02*
X162661986Y-60207257D01*
X162661986Y-60207257D02*
X162566747Y-60302495D01*
X162566747Y-60302495D02*
X162376271Y-60350114D01*
X162376271Y-60350114D02*
X162042938Y-60350114D01*
X162042938Y-60350114D02*
X161852462Y-60302495D01*
X161852462Y-60302495D02*
X161757224Y-60207257D01*
X161757224Y-60207257D02*
X161709605Y-60112019D01*
X162709605Y-59254876D02*
X161709605Y-59254876D01*
X162709605Y-58826305D02*
X162185795Y-58826305D01*
X162185795Y-58826305D02*
X162090557Y-58873924D01*
X162090557Y-58873924D02*
X162042938Y-58969162D01*
X162042938Y-58969162D02*
X162042938Y-59112019D01*
X162042938Y-59112019D02*
X162090557Y-59207257D01*
X162090557Y-59207257D02*
X162138176Y-59254876D01*
X162709605Y-58350114D02*
X162042938Y-58350114D01*
X162138176Y-58350114D02*
X162090557Y-58302495D01*
X162090557Y-58302495D02*
X162042938Y-58207257D01*
X162042938Y-58207257D02*
X162042938Y-58064400D01*
X162042938Y-58064400D02*
X162090557Y-57969162D01*
X162090557Y-57969162D02*
X162185795Y-57921543D01*
X162185795Y-57921543D02*
X162709605Y-57921543D01*
X162185795Y-57921543D02*
X162090557Y-57873924D01*
X162090557Y-57873924D02*
X162042938Y-57778686D01*
X162042938Y-57778686D02*
X162042938Y-57635829D01*
X162042938Y-57635829D02*
X162090557Y-57540590D01*
X162090557Y-57540590D02*
X162185795Y-57492971D01*
X162185795Y-57492971D02*
X162709605Y-57492971D01*
X164224310Y-63350115D02*
X164271930Y-63397734D01*
X164271930Y-63397734D02*
X164319549Y-63540591D01*
X164319549Y-63540591D02*
X164319549Y-63635829D01*
X164319549Y-63635829D02*
X164271930Y-63778686D01*
X164271930Y-63778686D02*
X164176691Y-63873924D01*
X164176691Y-63873924D02*
X164081453Y-63921543D01*
X164081453Y-63921543D02*
X163890977Y-63969162D01*
X163890977Y-63969162D02*
X163748120Y-63969162D01*
X163748120Y-63969162D02*
X163557644Y-63921543D01*
X163557644Y-63921543D02*
X163462406Y-63873924D01*
X163462406Y-63873924D02*
X163367168Y-63778686D01*
X163367168Y-63778686D02*
X163319549Y-63635829D01*
X163319549Y-63635829D02*
X163319549Y-63540591D01*
X163319549Y-63540591D02*
X163367168Y-63397734D01*
X163367168Y-63397734D02*
X163414787Y-63350115D01*
X164033834Y-62969162D02*
X164033834Y-62492972D01*
X164319549Y-63064400D02*
X163319549Y-62731067D01*
X163319549Y-62731067D02*
X164319549Y-62397734D01*
X164319549Y-62064400D02*
X163319549Y-62064400D01*
X163319549Y-62064400D02*
X164319549Y-61492972D01*
X164319549Y-61492972D02*
X163319549Y-61492972D01*
X163795739Y-59921543D02*
X163843358Y-59778686D01*
X163843358Y-59778686D02*
X163890977Y-59731067D01*
X163890977Y-59731067D02*
X163986215Y-59683448D01*
X163986215Y-59683448D02*
X164129072Y-59683448D01*
X164129072Y-59683448D02*
X164224310Y-59731067D01*
X164224310Y-59731067D02*
X164271930Y-59778686D01*
X164271930Y-59778686D02*
X164319549Y-59873924D01*
X164319549Y-59873924D02*
X164319549Y-60254876D01*
X164319549Y-60254876D02*
X163319549Y-60254876D01*
X163319549Y-60254876D02*
X163319549Y-59921543D01*
X163319549Y-59921543D02*
X163367168Y-59826305D01*
X163367168Y-59826305D02*
X163414787Y-59778686D01*
X163414787Y-59778686D02*
X163510025Y-59731067D01*
X163510025Y-59731067D02*
X163605263Y-59731067D01*
X163605263Y-59731067D02*
X163700501Y-59778686D01*
X163700501Y-59778686D02*
X163748120Y-59826305D01*
X163748120Y-59826305D02*
X163795739Y-59921543D01*
X163795739Y-59921543D02*
X163795739Y-60254876D01*
X163652882Y-58826305D02*
X164319549Y-58826305D01*
X163652882Y-59254876D02*
X164176691Y-59254876D01*
X164176691Y-59254876D02*
X164271930Y-59207257D01*
X164271930Y-59207257D02*
X164319549Y-59112019D01*
X164319549Y-59112019D02*
X164319549Y-58969162D01*
X164319549Y-58969162D02*
X164271930Y-58873924D01*
X164271930Y-58873924D02*
X164224310Y-58826305D01*
X164271930Y-58397733D02*
X164319549Y-58302495D01*
X164319549Y-58302495D02*
X164319549Y-58112019D01*
X164319549Y-58112019D02*
X164271930Y-58016781D01*
X164271930Y-58016781D02*
X164176691Y-57969162D01*
X164176691Y-57969162D02*
X164129072Y-57969162D01*
X164129072Y-57969162D02*
X164033834Y-58016781D01*
X164033834Y-58016781D02*
X163986215Y-58112019D01*
X163986215Y-58112019D02*
X163986215Y-58254876D01*
X163986215Y-58254876D02*
X163938596Y-58350114D01*
X163938596Y-58350114D02*
X163843358Y-58397733D01*
X163843358Y-58397733D02*
X163795739Y-58397733D01*
X163795739Y-58397733D02*
X163700501Y-58350114D01*
X163700501Y-58350114D02*
X163652882Y-58254876D01*
X163652882Y-58254876D02*
X163652882Y-58112019D01*
X163652882Y-58112019D02*
X163700501Y-58016781D01*
X165929493Y-63350115D02*
X165453302Y-63683448D01*
X165929493Y-63921543D02*
X164929493Y-63921543D01*
X164929493Y-63921543D02*
X164929493Y-63540591D01*
X164929493Y-63540591D02*
X164977112Y-63445353D01*
X164977112Y-63445353D02*
X165024731Y-63397734D01*
X165024731Y-63397734D02*
X165119969Y-63350115D01*
X165119969Y-63350115D02*
X165262826Y-63350115D01*
X165262826Y-63350115D02*
X165358064Y-63397734D01*
X165358064Y-63397734D02*
X165405683Y-63445353D01*
X165405683Y-63445353D02*
X165453302Y-63540591D01*
X165453302Y-63540591D02*
X165453302Y-63921543D01*
X165881874Y-62540591D02*
X165929493Y-62635829D01*
X165929493Y-62635829D02*
X165929493Y-62826305D01*
X165929493Y-62826305D02*
X165881874Y-62921543D01*
X165881874Y-62921543D02*
X165786635Y-62969162D01*
X165786635Y-62969162D02*
X165405683Y-62969162D01*
X165405683Y-62969162D02*
X165310445Y-62921543D01*
X165310445Y-62921543D02*
X165262826Y-62826305D01*
X165262826Y-62826305D02*
X165262826Y-62635829D01*
X165262826Y-62635829D02*
X165310445Y-62540591D01*
X165310445Y-62540591D02*
X165405683Y-62492972D01*
X165405683Y-62492972D02*
X165500921Y-62492972D01*
X165500921Y-62492972D02*
X165596159Y-62969162D01*
X165881874Y-62112019D02*
X165929493Y-62016781D01*
X165929493Y-62016781D02*
X165929493Y-61826305D01*
X165929493Y-61826305D02*
X165881874Y-61731067D01*
X165881874Y-61731067D02*
X165786635Y-61683448D01*
X165786635Y-61683448D02*
X165739016Y-61683448D01*
X165739016Y-61683448D02*
X165643778Y-61731067D01*
X165643778Y-61731067D02*
X165596159Y-61826305D01*
X165596159Y-61826305D02*
X165596159Y-61969162D01*
X165596159Y-61969162D02*
X165548540Y-62064400D01*
X165548540Y-62064400D02*
X165453302Y-62112019D01*
X165453302Y-62112019D02*
X165405683Y-62112019D01*
X165405683Y-62112019D02*
X165310445Y-62064400D01*
X165310445Y-62064400D02*
X165262826Y-61969162D01*
X165262826Y-61969162D02*
X165262826Y-61826305D01*
X165262826Y-61826305D02*
X165310445Y-61731067D01*
X165929493Y-61254876D02*
X165262826Y-61254876D01*
X164929493Y-61254876D02*
X164977112Y-61302495D01*
X164977112Y-61302495D02*
X165024731Y-61254876D01*
X165024731Y-61254876D02*
X164977112Y-61207257D01*
X164977112Y-61207257D02*
X164929493Y-61254876D01*
X164929493Y-61254876D02*
X165024731Y-61254876D01*
X165881874Y-60826305D02*
X165929493Y-60731067D01*
X165929493Y-60731067D02*
X165929493Y-60540591D01*
X165929493Y-60540591D02*
X165881874Y-60445353D01*
X165881874Y-60445353D02*
X165786635Y-60397734D01*
X165786635Y-60397734D02*
X165739016Y-60397734D01*
X165739016Y-60397734D02*
X165643778Y-60445353D01*
X165643778Y-60445353D02*
X165596159Y-60540591D01*
X165596159Y-60540591D02*
X165596159Y-60683448D01*
X165596159Y-60683448D02*
X165548540Y-60778686D01*
X165548540Y-60778686D02*
X165453302Y-60826305D01*
X165453302Y-60826305D02*
X165405683Y-60826305D01*
X165405683Y-60826305D02*
X165310445Y-60778686D01*
X165310445Y-60778686D02*
X165262826Y-60683448D01*
X165262826Y-60683448D02*
X165262826Y-60540591D01*
X165262826Y-60540591D02*
X165310445Y-60445353D01*
X165262826Y-60112019D02*
X165262826Y-59731067D01*
X164929493Y-59969162D02*
X165786635Y-59969162D01*
X165786635Y-59969162D02*
X165881874Y-59921543D01*
X165881874Y-59921543D02*
X165929493Y-59826305D01*
X165929493Y-59826305D02*
X165929493Y-59731067D01*
X165929493Y-59254876D02*
X165881874Y-59350114D01*
X165881874Y-59350114D02*
X165834254Y-59397733D01*
X165834254Y-59397733D02*
X165739016Y-59445352D01*
X165739016Y-59445352D02*
X165453302Y-59445352D01*
X165453302Y-59445352D02*
X165358064Y-59397733D01*
X165358064Y-59397733D02*
X165310445Y-59350114D01*
X165310445Y-59350114D02*
X165262826Y-59254876D01*
X165262826Y-59254876D02*
X165262826Y-59112019D01*
X165262826Y-59112019D02*
X165310445Y-59016781D01*
X165310445Y-59016781D02*
X165358064Y-58969162D01*
X165358064Y-58969162D02*
X165453302Y-58921543D01*
X165453302Y-58921543D02*
X165739016Y-58921543D01*
X165739016Y-58921543D02*
X165834254Y-58969162D01*
X165834254Y-58969162D02*
X165881874Y-59016781D01*
X165881874Y-59016781D02*
X165929493Y-59112019D01*
X165929493Y-59112019D02*
X165929493Y-59254876D01*
X165929493Y-58492971D02*
X165262826Y-58492971D01*
X165453302Y-58492971D02*
X165358064Y-58445352D01*
X165358064Y-58445352D02*
X165310445Y-58397733D01*
X165310445Y-58397733D02*
X165262826Y-58302495D01*
X165262826Y-58302495D02*
X165262826Y-58207257D01*
X172248480Y-99988457D02*
X172248480Y-98988457D01*
X172248480Y-98988457D02*
X172629432Y-98988457D01*
X172629432Y-98988457D02*
X172724670Y-99036076D01*
X172724670Y-99036076D02*
X172772289Y-99083695D01*
X172772289Y-99083695D02*
X172819908Y-99178933D01*
X172819908Y-99178933D02*
X172819908Y-99321790D01*
X172819908Y-99321790D02*
X172772289Y-99417028D01*
X172772289Y-99417028D02*
X172724670Y-99464647D01*
X172724670Y-99464647D02*
X172629432Y-99512266D01*
X172629432Y-99512266D02*
X172248480Y-99512266D01*
X173438956Y-98988457D02*
X173629432Y-98988457D01*
X173629432Y-98988457D02*
X173724670Y-99036076D01*
X173724670Y-99036076D02*
X173819908Y-99131314D01*
X173819908Y-99131314D02*
X173867527Y-99321790D01*
X173867527Y-99321790D02*
X173867527Y-99655123D01*
X173867527Y-99655123D02*
X173819908Y-99845599D01*
X173819908Y-99845599D02*
X173724670Y-99940838D01*
X173724670Y-99940838D02*
X173629432Y-99988457D01*
X173629432Y-99988457D02*
X173438956Y-99988457D01*
X173438956Y-99988457D02*
X173343718Y-99940838D01*
X173343718Y-99940838D02*
X173248480Y-99845599D01*
X173248480Y-99845599D02*
X173200861Y-99655123D01*
X173200861Y-99655123D02*
X173200861Y-99321790D01*
X173200861Y-99321790D02*
X173248480Y-99131314D01*
X173248480Y-99131314D02*
X173343718Y-99036076D01*
X173343718Y-99036076D02*
X173438956Y-98988457D01*
X174867527Y-99988457D02*
X174534194Y-99512266D01*
X174296099Y-99988457D02*
X174296099Y-98988457D01*
X174296099Y-98988457D02*
X174677051Y-98988457D01*
X174677051Y-98988457D02*
X174772289Y-99036076D01*
X174772289Y-99036076D02*
X174819908Y-99083695D01*
X174819908Y-99083695D02*
X174867527Y-99178933D01*
X174867527Y-99178933D02*
X174867527Y-99321790D01*
X174867527Y-99321790D02*
X174819908Y-99417028D01*
X174819908Y-99417028D02*
X174772289Y-99464647D01*
X174772289Y-99464647D02*
X174677051Y-99512266D01*
X174677051Y-99512266D02*
X174296099Y-99512266D01*
X175153242Y-98988457D02*
X175724670Y-98988457D01*
X175438956Y-99988457D02*
X175438956Y-98988457D01*
X176010385Y-99083695D02*
X176058004Y-99036076D01*
X176058004Y-99036076D02*
X176153242Y-98988457D01*
X176153242Y-98988457D02*
X176391337Y-98988457D01*
X176391337Y-98988457D02*
X176486575Y-99036076D01*
X176486575Y-99036076D02*
X176534194Y-99083695D01*
X176534194Y-99083695D02*
X176581813Y-99178933D01*
X176581813Y-99178933D02*
X176581813Y-99274171D01*
X176581813Y-99274171D02*
X176534194Y-99417028D01*
X176534194Y-99417028D02*
X175962766Y-99988457D01*
X175962766Y-99988457D02*
X176581813Y-99988457D01*
D11*
X166115973Y-70442211D02*
X166077877Y-70480307D01*
X166077877Y-70480307D02*
X165963592Y-70518402D01*
X165963592Y-70518402D02*
X165887401Y-70518402D01*
X165887401Y-70518402D02*
X165773115Y-70480307D01*
X165773115Y-70480307D02*
X165696925Y-70404116D01*
X165696925Y-70404116D02*
X165658830Y-70327926D01*
X165658830Y-70327926D02*
X165620734Y-70175545D01*
X165620734Y-70175545D02*
X165620734Y-70061259D01*
X165620734Y-70061259D02*
X165658830Y-69908878D01*
X165658830Y-69908878D02*
X165696925Y-69832687D01*
X165696925Y-69832687D02*
X165773115Y-69756497D01*
X165773115Y-69756497D02*
X165887401Y-69718402D01*
X165887401Y-69718402D02*
X165963592Y-69718402D01*
X165963592Y-69718402D02*
X166077877Y-69756497D01*
X166077877Y-69756497D02*
X166115973Y-69794592D01*
X166458830Y-70518402D02*
X166458830Y-69718402D01*
X166458830Y-70099354D02*
X166915973Y-70099354D01*
X166915973Y-70518402D02*
X166915973Y-69718402D01*
X166195714Y-67731006D02*
X166157618Y-67769102D01*
X166157618Y-67769102D02*
X166043333Y-67807197D01*
X166043333Y-67807197D02*
X165967142Y-67807197D01*
X165967142Y-67807197D02*
X165852856Y-67769102D01*
X165852856Y-67769102D02*
X165776666Y-67692911D01*
X165776666Y-67692911D02*
X165738571Y-67616721D01*
X165738571Y-67616721D02*
X165700475Y-67464340D01*
X165700475Y-67464340D02*
X165700475Y-67350054D01*
X165700475Y-67350054D02*
X165738571Y-67197673D01*
X165738571Y-67197673D02*
X165776666Y-67121482D01*
X165776666Y-67121482D02*
X165852856Y-67045292D01*
X165852856Y-67045292D02*
X165967142Y-67007197D01*
X165967142Y-67007197D02*
X166043333Y-67007197D01*
X166043333Y-67007197D02*
X166157618Y-67045292D01*
X166157618Y-67045292D02*
X166195714Y-67083387D01*
X166919523Y-67807197D02*
X166538571Y-67807197D01*
X166538571Y-67807197D02*
X166538571Y-67007197D01*
D10*
X156190340Y-76772238D02*
X156237959Y-76629381D01*
X156237959Y-76629381D02*
X156237959Y-76391286D01*
X156237959Y-76391286D02*
X156190340Y-76296048D01*
X156190340Y-76296048D02*
X156142720Y-76248429D01*
X156142720Y-76248429D02*
X156047482Y-76200810D01*
X156047482Y-76200810D02*
X155952244Y-76200810D01*
X155952244Y-76200810D02*
X155857006Y-76248429D01*
X155857006Y-76248429D02*
X155809387Y-76296048D01*
X155809387Y-76296048D02*
X155761768Y-76391286D01*
X155761768Y-76391286D02*
X155714149Y-76581762D01*
X155714149Y-76581762D02*
X155666530Y-76677000D01*
X155666530Y-76677000D02*
X155618911Y-76724619D01*
X155618911Y-76724619D02*
X155523673Y-76772238D01*
X155523673Y-76772238D02*
X155428435Y-76772238D01*
X155428435Y-76772238D02*
X155333197Y-76724619D01*
X155333197Y-76724619D02*
X155285578Y-76677000D01*
X155285578Y-76677000D02*
X155237959Y-76581762D01*
X155237959Y-76581762D02*
X155237959Y-76343667D01*
X155237959Y-76343667D02*
X155285578Y-76200810D01*
X156142720Y-75200810D02*
X156190340Y-75248429D01*
X156190340Y-75248429D02*
X156237959Y-75391286D01*
X156237959Y-75391286D02*
X156237959Y-75486524D01*
X156237959Y-75486524D02*
X156190340Y-75629381D01*
X156190340Y-75629381D02*
X156095101Y-75724619D01*
X156095101Y-75724619D02*
X155999863Y-75772238D01*
X155999863Y-75772238D02*
X155809387Y-75819857D01*
X155809387Y-75819857D02*
X155666530Y-75819857D01*
X155666530Y-75819857D02*
X155476054Y-75772238D01*
X155476054Y-75772238D02*
X155380816Y-75724619D01*
X155380816Y-75724619D02*
X155285578Y-75629381D01*
X155285578Y-75629381D02*
X155237959Y-75486524D01*
X155237959Y-75486524D02*
X155237959Y-75391286D01*
X155237959Y-75391286D02*
X155285578Y-75248429D01*
X155285578Y-75248429D02*
X155333197Y-75200810D01*
X156237959Y-74772238D02*
X155237959Y-74772238D01*
X156237959Y-74200810D02*
X155666530Y-74629381D01*
X155237959Y-74200810D02*
X155809387Y-74772238D01*
D11*
X145611056Y-122262439D02*
X145534866Y-122224344D01*
X145534866Y-122224344D02*
X145420580Y-122224344D01*
X145420580Y-122224344D02*
X145306294Y-122262439D01*
X145306294Y-122262439D02*
X145230104Y-122338629D01*
X145230104Y-122338629D02*
X145192009Y-122414820D01*
X145192009Y-122414820D02*
X145153913Y-122567201D01*
X145153913Y-122567201D02*
X145153913Y-122681487D01*
X145153913Y-122681487D02*
X145192009Y-122833868D01*
X145192009Y-122833868D02*
X145230104Y-122910058D01*
X145230104Y-122910058D02*
X145306294Y-122986249D01*
X145306294Y-122986249D02*
X145420580Y-123024344D01*
X145420580Y-123024344D02*
X145496771Y-123024344D01*
X145496771Y-123024344D02*
X145611056Y-122986249D01*
X145611056Y-122986249D02*
X145649152Y-122948153D01*
X145649152Y-122948153D02*
X145649152Y-122681487D01*
X145649152Y-122681487D02*
X145496771Y-122681487D01*
X145992009Y-123024344D02*
X145992009Y-122224344D01*
X145992009Y-122224344D02*
X146449152Y-123024344D01*
X146449152Y-123024344D02*
X146449152Y-122224344D01*
X146830104Y-123024344D02*
X146830104Y-122224344D01*
X146830104Y-122224344D02*
X147020580Y-122224344D01*
X147020580Y-122224344D02*
X147134866Y-122262439D01*
X147134866Y-122262439D02*
X147211056Y-122338629D01*
X147211056Y-122338629D02*
X147249151Y-122414820D01*
X147249151Y-122414820D02*
X147287247Y-122567201D01*
X147287247Y-122567201D02*
X147287247Y-122681487D01*
X147287247Y-122681487D02*
X147249151Y-122833868D01*
X147249151Y-122833868D02*
X147211056Y-122910058D01*
X147211056Y-122910058D02*
X147134866Y-122986249D01*
X147134866Y-122986249D02*
X147020580Y-123024344D01*
X147020580Y-123024344D02*
X146830104Y-123024344D01*
D10*
X172505429Y-85242404D02*
X172505429Y-84242404D01*
X172505429Y-84242404D02*
X172886381Y-84242404D01*
X172886381Y-84242404D02*
X172981619Y-84290023D01*
X172981619Y-84290023D02*
X173029238Y-84337642D01*
X173029238Y-84337642D02*
X173076857Y-84432880D01*
X173076857Y-84432880D02*
X173076857Y-84575737D01*
X173076857Y-84575737D02*
X173029238Y-84670975D01*
X173029238Y-84670975D02*
X172981619Y-84718594D01*
X172981619Y-84718594D02*
X172886381Y-84766213D01*
X172886381Y-84766213D02*
X172505429Y-84766213D01*
X173695905Y-84242404D02*
X173886381Y-84242404D01*
X173886381Y-84242404D02*
X173981619Y-84290023D01*
X173981619Y-84290023D02*
X174076857Y-84385261D01*
X174076857Y-84385261D02*
X174124476Y-84575737D01*
X174124476Y-84575737D02*
X174124476Y-84909070D01*
X174124476Y-84909070D02*
X174076857Y-85099546D01*
X174076857Y-85099546D02*
X173981619Y-85194785D01*
X173981619Y-85194785D02*
X173886381Y-85242404D01*
X173886381Y-85242404D02*
X173695905Y-85242404D01*
X173695905Y-85242404D02*
X173600667Y-85194785D01*
X173600667Y-85194785D02*
X173505429Y-85099546D01*
X173505429Y-85099546D02*
X173457810Y-84909070D01*
X173457810Y-84909070D02*
X173457810Y-84575737D01*
X173457810Y-84575737D02*
X173505429Y-84385261D01*
X173505429Y-84385261D02*
X173600667Y-84290023D01*
X173600667Y-84290023D02*
X173695905Y-84242404D01*
X175124476Y-85242404D02*
X174791143Y-84766213D01*
X174553048Y-85242404D02*
X174553048Y-84242404D01*
X174553048Y-84242404D02*
X174934000Y-84242404D01*
X174934000Y-84242404D02*
X175029238Y-84290023D01*
X175029238Y-84290023D02*
X175076857Y-84337642D01*
X175076857Y-84337642D02*
X175124476Y-84432880D01*
X175124476Y-84432880D02*
X175124476Y-84575737D01*
X175124476Y-84575737D02*
X175076857Y-84670975D01*
X175076857Y-84670975D02*
X175029238Y-84718594D01*
X175029238Y-84718594D02*
X174934000Y-84766213D01*
X174934000Y-84766213D02*
X174553048Y-84766213D01*
X175410191Y-84242404D02*
X175981619Y-84242404D01*
X175695905Y-85242404D02*
X175695905Y-84242404D01*
X176838762Y-85242404D02*
X176267334Y-85242404D01*
X176553048Y-85242404D02*
X176553048Y-84242404D01*
X176553048Y-84242404D02*
X176457810Y-84385261D01*
X176457810Y-84385261D02*
X176362572Y-84480499D01*
X176362572Y-84480499D02*
X176267334Y-84528118D01*
D11*
X133025328Y-123051094D02*
X132758661Y-122670141D01*
X132568185Y-123051094D02*
X132568185Y-122251094D01*
X132568185Y-122251094D02*
X132872947Y-122251094D01*
X132872947Y-122251094D02*
X132949137Y-122289189D01*
X132949137Y-122289189D02*
X132987232Y-122327284D01*
X132987232Y-122327284D02*
X133025328Y-122403475D01*
X133025328Y-122403475D02*
X133025328Y-122517760D01*
X133025328Y-122517760D02*
X132987232Y-122593951D01*
X132987232Y-122593951D02*
X132949137Y-122632046D01*
X132949137Y-122632046D02*
X132872947Y-122670141D01*
X132872947Y-122670141D02*
X132568185Y-122670141D01*
X133330089Y-123012999D02*
X133444375Y-123051094D01*
X133444375Y-123051094D02*
X133634851Y-123051094D01*
X133634851Y-123051094D02*
X133711042Y-123012999D01*
X133711042Y-123012999D02*
X133749137Y-122974903D01*
X133749137Y-122974903D02*
X133787232Y-122898713D01*
X133787232Y-122898713D02*
X133787232Y-122822522D01*
X133787232Y-122822522D02*
X133749137Y-122746332D01*
X133749137Y-122746332D02*
X133711042Y-122708237D01*
X133711042Y-122708237D02*
X133634851Y-122670141D01*
X133634851Y-122670141D02*
X133482470Y-122632046D01*
X133482470Y-122632046D02*
X133406280Y-122593951D01*
X133406280Y-122593951D02*
X133368185Y-122555856D01*
X133368185Y-122555856D02*
X133330089Y-122479665D01*
X133330089Y-122479665D02*
X133330089Y-122403475D01*
X133330089Y-122403475D02*
X133368185Y-122327284D01*
X133368185Y-122327284D02*
X133406280Y-122289189D01*
X133406280Y-122289189D02*
X133482470Y-122251094D01*
X133482470Y-122251094D02*
X133672947Y-122251094D01*
X133672947Y-122251094D02*
X133787232Y-122289189D01*
X134015804Y-122251094D02*
X134472947Y-122251094D01*
X134244375Y-123051094D02*
X134244375Y-122251094D01*
X141028495Y-122251094D02*
X140647543Y-122251094D01*
X140647543Y-122251094D02*
X140609447Y-122632046D01*
X140609447Y-122632046D02*
X140647543Y-122593951D01*
X140647543Y-122593951D02*
X140723733Y-122555856D01*
X140723733Y-122555856D02*
X140914209Y-122555856D01*
X140914209Y-122555856D02*
X140990400Y-122593951D01*
X140990400Y-122593951D02*
X141028495Y-122632046D01*
X141028495Y-122632046D02*
X141066590Y-122708237D01*
X141066590Y-122708237D02*
X141066590Y-122898713D01*
X141066590Y-122898713D02*
X141028495Y-122974903D01*
X141028495Y-122974903D02*
X140990400Y-123012999D01*
X140990400Y-123012999D02*
X140914209Y-123051094D01*
X140914209Y-123051094D02*
X140723733Y-123051094D01*
X140723733Y-123051094D02*
X140647543Y-123012999D01*
X140647543Y-123012999D02*
X140609447Y-122974903D01*
X141295162Y-122251094D02*
X141561829Y-123051094D01*
X141561829Y-123051094D02*
X141828495Y-122251094D01*
D10*
X150039281Y-66707847D02*
X149039281Y-66707847D01*
X149039281Y-66707847D02*
X149753566Y-66374514D01*
X149753566Y-66374514D02*
X149039281Y-66041181D01*
X149039281Y-66041181D02*
X150039281Y-66041181D01*
X149039281Y-65374514D02*
X149039281Y-65184038D01*
X149039281Y-65184038D02*
X149086900Y-65088800D01*
X149086900Y-65088800D02*
X149182138Y-64993562D01*
X149182138Y-64993562D02*
X149372614Y-64945943D01*
X149372614Y-64945943D02*
X149705947Y-64945943D01*
X149705947Y-64945943D02*
X149896423Y-64993562D01*
X149896423Y-64993562D02*
X149991662Y-65088800D01*
X149991662Y-65088800D02*
X150039281Y-65184038D01*
X150039281Y-65184038D02*
X150039281Y-65374514D01*
X150039281Y-65374514D02*
X149991662Y-65469752D01*
X149991662Y-65469752D02*
X149896423Y-65564990D01*
X149896423Y-65564990D02*
X149705947Y-65612609D01*
X149705947Y-65612609D02*
X149372614Y-65612609D01*
X149372614Y-65612609D02*
X149182138Y-65564990D01*
X149182138Y-65564990D02*
X149086900Y-65469752D01*
X149086900Y-65469752D02*
X149039281Y-65374514D01*
X149991662Y-64564990D02*
X150039281Y-64422133D01*
X150039281Y-64422133D02*
X150039281Y-64184038D01*
X150039281Y-64184038D02*
X149991662Y-64088800D01*
X149991662Y-64088800D02*
X149944042Y-64041181D01*
X149944042Y-64041181D02*
X149848804Y-63993562D01*
X149848804Y-63993562D02*
X149753566Y-63993562D01*
X149753566Y-63993562D02*
X149658328Y-64041181D01*
X149658328Y-64041181D02*
X149610709Y-64088800D01*
X149610709Y-64088800D02*
X149563090Y-64184038D01*
X149563090Y-64184038D02*
X149515471Y-64374514D01*
X149515471Y-64374514D02*
X149467852Y-64469752D01*
X149467852Y-64469752D02*
X149420233Y-64517371D01*
X149420233Y-64517371D02*
X149324995Y-64564990D01*
X149324995Y-64564990D02*
X149229757Y-64564990D01*
X149229757Y-64564990D02*
X149134519Y-64517371D01*
X149134519Y-64517371D02*
X149086900Y-64469752D01*
X149086900Y-64469752D02*
X149039281Y-64374514D01*
X149039281Y-64374514D02*
X149039281Y-64136419D01*
X149039281Y-64136419D02*
X149086900Y-63993562D01*
X150039281Y-63564990D02*
X149039281Y-63564990D01*
D11*
X165998136Y-72148737D02*
X165921946Y-72110642D01*
X165921946Y-72110642D02*
X165807660Y-72110642D01*
X165807660Y-72110642D02*
X165693374Y-72148737D01*
X165693374Y-72148737D02*
X165617184Y-72224927D01*
X165617184Y-72224927D02*
X165579089Y-72301118D01*
X165579089Y-72301118D02*
X165540993Y-72453499D01*
X165540993Y-72453499D02*
X165540993Y-72567785D01*
X165540993Y-72567785D02*
X165579089Y-72720166D01*
X165579089Y-72720166D02*
X165617184Y-72796356D01*
X165617184Y-72796356D02*
X165693374Y-72872547D01*
X165693374Y-72872547D02*
X165807660Y-72910642D01*
X165807660Y-72910642D02*
X165883851Y-72910642D01*
X165883851Y-72910642D02*
X165998136Y-72872547D01*
X165998136Y-72872547D02*
X166036232Y-72834451D01*
X166036232Y-72834451D02*
X166036232Y-72567785D01*
X166036232Y-72567785D02*
X165883851Y-72567785D01*
X166379089Y-72910642D02*
X166379089Y-72110642D01*
X166379089Y-72110642D02*
X166836232Y-72910642D01*
X166836232Y-72910642D02*
X166836232Y-72110642D01*
X167217184Y-72910642D02*
X167217184Y-72110642D01*
X167217184Y-72110642D02*
X167407660Y-72110642D01*
X167407660Y-72110642D02*
X167521946Y-72148737D01*
X167521946Y-72148737D02*
X167598136Y-72224927D01*
X167598136Y-72224927D02*
X167636231Y-72301118D01*
X167636231Y-72301118D02*
X167674327Y-72453499D01*
X167674327Y-72453499D02*
X167674327Y-72567785D01*
X167674327Y-72567785D02*
X167636231Y-72720166D01*
X167636231Y-72720166D02*
X167598136Y-72796356D01*
X167598136Y-72796356D02*
X167521946Y-72872547D01*
X167521946Y-72872547D02*
X167407660Y-72910642D01*
X167407660Y-72910642D02*
X167217184Y-72910642D01*
X138490776Y-123038588D02*
X138224109Y-122657635D01*
X138033633Y-123038588D02*
X138033633Y-122238588D01*
X138033633Y-122238588D02*
X138338395Y-122238588D01*
X138338395Y-122238588D02*
X138414585Y-122276683D01*
X138414585Y-122276683D02*
X138452680Y-122314778D01*
X138452680Y-122314778D02*
X138490776Y-122390969D01*
X138490776Y-122390969D02*
X138490776Y-122505254D01*
X138490776Y-122505254D02*
X138452680Y-122581445D01*
X138452680Y-122581445D02*
X138414585Y-122619540D01*
X138414585Y-122619540D02*
X138338395Y-122657635D01*
X138338395Y-122657635D02*
X138033633Y-122657635D01*
X138757442Y-122238588D02*
X139290776Y-123038588D01*
X139290776Y-122238588D02*
X138757442Y-123038588D01*
D10*
X127300373Y-92179920D02*
X127205135Y-92132301D01*
X127205135Y-92132301D02*
X127062278Y-92132301D01*
X127062278Y-92132301D02*
X126919421Y-92179920D01*
X126919421Y-92179920D02*
X126824183Y-92275158D01*
X126824183Y-92275158D02*
X126776564Y-92370396D01*
X126776564Y-92370396D02*
X126728945Y-92560872D01*
X126728945Y-92560872D02*
X126728945Y-92703729D01*
X126728945Y-92703729D02*
X126776564Y-92894205D01*
X126776564Y-92894205D02*
X126824183Y-92989443D01*
X126824183Y-92989443D02*
X126919421Y-93084682D01*
X126919421Y-93084682D02*
X127062278Y-93132301D01*
X127062278Y-93132301D02*
X127157516Y-93132301D01*
X127157516Y-93132301D02*
X127300373Y-93084682D01*
X127300373Y-93084682D02*
X127347992Y-93037062D01*
X127347992Y-93037062D02*
X127347992Y-92703729D01*
X127347992Y-92703729D02*
X127157516Y-92703729D01*
X127776564Y-93132301D02*
X127776564Y-92132301D01*
X127776564Y-92132301D02*
X128347992Y-93132301D01*
X128347992Y-93132301D02*
X128347992Y-92132301D01*
X128824183Y-93132301D02*
X128824183Y-92132301D01*
X128824183Y-92132301D02*
X129062278Y-92132301D01*
X129062278Y-92132301D02*
X129205135Y-92179920D01*
X129205135Y-92179920D02*
X129300373Y-92275158D01*
X129300373Y-92275158D02*
X129347992Y-92370396D01*
X129347992Y-92370396D02*
X129395611Y-92560872D01*
X129395611Y-92560872D02*
X129395611Y-92703729D01*
X129395611Y-92703729D02*
X129347992Y-92894205D01*
X129347992Y-92894205D02*
X129300373Y-92989443D01*
X129300373Y-92989443D02*
X129205135Y-93084682D01*
X129205135Y-93084682D02*
X129062278Y-93132301D01*
X129062278Y-93132301D02*
X128824183Y-93132301D01*
D11*
X135493039Y-122263601D02*
X135950182Y-122263601D01*
X135721610Y-123063601D02*
X135721610Y-122263601D01*
X136140658Y-122263601D02*
X136673992Y-123063601D01*
X136673992Y-122263601D02*
X136140658Y-123063601D01*
X165998136Y-75701589D02*
X165540993Y-75701589D01*
X165769565Y-75701589D02*
X165769565Y-74901589D01*
X165769565Y-74901589D02*
X165693374Y-75015874D01*
X165693374Y-75015874D02*
X165617184Y-75092065D01*
X165617184Y-75092065D02*
X165540993Y-75130160D01*
X166302898Y-74977779D02*
X166340994Y-74939684D01*
X166340994Y-74939684D02*
X166417184Y-74901589D01*
X166417184Y-74901589D02*
X166607660Y-74901589D01*
X166607660Y-74901589D02*
X166683851Y-74939684D01*
X166683851Y-74939684D02*
X166721946Y-74977779D01*
X166721946Y-74977779D02*
X166760041Y-75053970D01*
X166760041Y-75053970D02*
X166760041Y-75130160D01*
X166760041Y-75130160D02*
X166721946Y-75244446D01*
X166721946Y-75244446D02*
X166264803Y-75701589D01*
X166264803Y-75701589D02*
X166760041Y-75701589D01*
X166988613Y-74901589D02*
X167255280Y-75701589D01*
X167255280Y-75701589D02*
X167521946Y-74901589D01*
D10*
X150128648Y-123922997D02*
X150604838Y-123922997D01*
X150033410Y-124208712D02*
X150366743Y-123208712D01*
X150366743Y-123208712D02*
X150700076Y-124208712D01*
X151033410Y-124208712D02*
X151033410Y-123208712D01*
X151033410Y-123208712D02*
X151366743Y-123922997D01*
X151366743Y-123922997D02*
X151700076Y-123208712D01*
X151700076Y-123208712D02*
X151700076Y-124208712D01*
X152128648Y-124161093D02*
X152271505Y-124208712D01*
X152271505Y-124208712D02*
X152509600Y-124208712D01*
X152509600Y-124208712D02*
X152604838Y-124161093D01*
X152604838Y-124161093D02*
X152652457Y-124113473D01*
X152652457Y-124113473D02*
X152700076Y-124018235D01*
X152700076Y-124018235D02*
X152700076Y-123922997D01*
X152700076Y-123922997D02*
X152652457Y-123827759D01*
X152652457Y-123827759D02*
X152604838Y-123780140D01*
X152604838Y-123780140D02*
X152509600Y-123732521D01*
X152509600Y-123732521D02*
X152319124Y-123684902D01*
X152319124Y-123684902D02*
X152223886Y-123637283D01*
X152223886Y-123637283D02*
X152176267Y-123589664D01*
X152176267Y-123589664D02*
X152128648Y-123494426D01*
X152128648Y-123494426D02*
X152128648Y-123399188D01*
X152128648Y-123399188D02*
X152176267Y-123303950D01*
X152176267Y-123303950D02*
X152223886Y-123256331D01*
X152223886Y-123256331D02*
X152319124Y-123208712D01*
X152319124Y-123208712D02*
X152557219Y-123208712D01*
X152557219Y-123208712D02*
X152700076Y-123256331D01*
X154461981Y-124113473D02*
X154414362Y-124161093D01*
X154414362Y-124161093D02*
X154271505Y-124208712D01*
X154271505Y-124208712D02*
X154176267Y-124208712D01*
X154176267Y-124208712D02*
X154033410Y-124161093D01*
X154033410Y-124161093D02*
X153938172Y-124065854D01*
X153938172Y-124065854D02*
X153890553Y-123970616D01*
X153890553Y-123970616D02*
X153842934Y-123780140D01*
X153842934Y-123780140D02*
X153842934Y-123637283D01*
X153842934Y-123637283D02*
X153890553Y-123446807D01*
X153890553Y-123446807D02*
X153938172Y-123351569D01*
X153938172Y-123351569D02*
X154033410Y-123256331D01*
X154033410Y-123256331D02*
X154176267Y-123208712D01*
X154176267Y-123208712D02*
X154271505Y-123208712D01*
X154271505Y-123208712D02*
X154414362Y-123256331D01*
X154414362Y-123256331D02*
X154461981Y-123303950D01*
X154842934Y-123922997D02*
X155319124Y-123922997D01*
X154747696Y-124208712D02*
X155081029Y-123208712D01*
X155081029Y-123208712D02*
X155414362Y-124208712D01*
X155747696Y-124208712D02*
X155747696Y-123208712D01*
X155747696Y-123208712D02*
X156319124Y-124208712D01*
X156319124Y-124208712D02*
X156319124Y-123208712D01*
X157128648Y-123684902D02*
X157271505Y-123732521D01*
X157271505Y-123732521D02*
X157319124Y-123780140D01*
X157319124Y-123780140D02*
X157366743Y-123875378D01*
X157366743Y-123875378D02*
X157366743Y-124018235D01*
X157366743Y-124018235D02*
X157319124Y-124113473D01*
X157319124Y-124113473D02*
X157271505Y-124161093D01*
X157271505Y-124161093D02*
X157176267Y-124208712D01*
X157176267Y-124208712D02*
X156795315Y-124208712D01*
X156795315Y-124208712D02*
X156795315Y-123208712D01*
X156795315Y-123208712D02*
X157128648Y-123208712D01*
X157128648Y-123208712D02*
X157223886Y-123256331D01*
X157223886Y-123256331D02*
X157271505Y-123303950D01*
X157271505Y-123303950D02*
X157319124Y-123399188D01*
X157319124Y-123399188D02*
X157319124Y-123494426D01*
X157319124Y-123494426D02*
X157271505Y-123589664D01*
X157271505Y-123589664D02*
X157223886Y-123637283D01*
X157223886Y-123637283D02*
X157128648Y-123684902D01*
X157128648Y-123684902D02*
X156795315Y-123684902D01*
X158223886Y-123542045D02*
X158223886Y-124208712D01*
X157795315Y-123542045D02*
X157795315Y-124065854D01*
X157795315Y-124065854D02*
X157842934Y-124161093D01*
X157842934Y-124161093D02*
X157938172Y-124208712D01*
X157938172Y-124208712D02*
X158081029Y-124208712D01*
X158081029Y-124208712D02*
X158176267Y-124161093D01*
X158176267Y-124161093D02*
X158223886Y-124113473D01*
X158652458Y-124161093D02*
X158747696Y-124208712D01*
X158747696Y-124208712D02*
X158938172Y-124208712D01*
X158938172Y-124208712D02*
X159033410Y-124161093D01*
X159033410Y-124161093D02*
X159081029Y-124065854D01*
X159081029Y-124065854D02*
X159081029Y-124018235D01*
X159081029Y-124018235D02*
X159033410Y-123922997D01*
X159033410Y-123922997D02*
X158938172Y-123875378D01*
X158938172Y-123875378D02*
X158795315Y-123875378D01*
X158795315Y-123875378D02*
X158700077Y-123827759D01*
X158700077Y-123827759D02*
X158652458Y-123732521D01*
X158652458Y-123732521D02*
X158652458Y-123684902D01*
X158652458Y-123684902D02*
X158700077Y-123589664D01*
X158700077Y-123589664D02*
X158795315Y-123542045D01*
X158795315Y-123542045D02*
X158938172Y-123542045D01*
X158938172Y-123542045D02*
X159033410Y-123589664D01*
X150033410Y-124818656D02*
X150366743Y-125818656D01*
X150366743Y-125818656D02*
X150700076Y-124818656D01*
X151461981Y-125818656D02*
X151461981Y-125294846D01*
X151461981Y-125294846D02*
X151414362Y-125199608D01*
X151414362Y-125199608D02*
X151319124Y-125151989D01*
X151319124Y-125151989D02*
X151128648Y-125151989D01*
X151128648Y-125151989D02*
X151033410Y-125199608D01*
X151461981Y-125771037D02*
X151366743Y-125818656D01*
X151366743Y-125818656D02*
X151128648Y-125818656D01*
X151128648Y-125818656D02*
X151033410Y-125771037D01*
X151033410Y-125771037D02*
X150985791Y-125675798D01*
X150985791Y-125675798D02*
X150985791Y-125580560D01*
X150985791Y-125580560D02*
X151033410Y-125485322D01*
X151033410Y-125485322D02*
X151128648Y-125437703D01*
X151128648Y-125437703D02*
X151366743Y-125437703D01*
X151366743Y-125437703D02*
X151461981Y-125390084D01*
X152366743Y-125771037D02*
X152271505Y-125818656D01*
X152271505Y-125818656D02*
X152081029Y-125818656D01*
X152081029Y-125818656D02*
X151985791Y-125771037D01*
X151985791Y-125771037D02*
X151938172Y-125723417D01*
X151938172Y-125723417D02*
X151890553Y-125628179D01*
X151890553Y-125628179D02*
X151890553Y-125342465D01*
X151890553Y-125342465D02*
X151938172Y-125247227D01*
X151938172Y-125247227D02*
X151985791Y-125199608D01*
X151985791Y-125199608D02*
X152081029Y-125151989D01*
X152081029Y-125151989D02*
X152271505Y-125151989D01*
X152271505Y-125151989D02*
X152366743Y-125199608D01*
X153223886Y-125151989D02*
X153223886Y-125818656D01*
X152795315Y-125151989D02*
X152795315Y-125675798D01*
X152795315Y-125675798D02*
X152842934Y-125771037D01*
X152842934Y-125771037D02*
X152938172Y-125818656D01*
X152938172Y-125818656D02*
X153081029Y-125818656D01*
X153081029Y-125818656D02*
X153176267Y-125771037D01*
X153176267Y-125771037D02*
X153223886Y-125723417D01*
X154128648Y-125151989D02*
X154128648Y-125818656D01*
X153700077Y-125151989D02*
X153700077Y-125675798D01*
X153700077Y-125675798D02*
X153747696Y-125771037D01*
X153747696Y-125771037D02*
X153842934Y-125818656D01*
X153842934Y-125818656D02*
X153985791Y-125818656D01*
X153985791Y-125818656D02*
X154081029Y-125771037D01*
X154081029Y-125771037D02*
X154128648Y-125723417D01*
X154604839Y-125818656D02*
X154604839Y-125151989D01*
X154604839Y-125247227D02*
X154652458Y-125199608D01*
X154652458Y-125199608D02*
X154747696Y-125151989D01*
X154747696Y-125151989D02*
X154890553Y-125151989D01*
X154890553Y-125151989D02*
X154985791Y-125199608D01*
X154985791Y-125199608D02*
X155033410Y-125294846D01*
X155033410Y-125294846D02*
X155033410Y-125818656D01*
X155033410Y-125294846D02*
X155081029Y-125199608D01*
X155081029Y-125199608D02*
X155176267Y-125151989D01*
X155176267Y-125151989D02*
X155319124Y-125151989D01*
X155319124Y-125151989D02*
X155414363Y-125199608D01*
X155414363Y-125199608D02*
X155461982Y-125294846D01*
X155461982Y-125294846D02*
X155461982Y-125818656D01*
X156557220Y-124818656D02*
X156890553Y-125818656D01*
X156890553Y-125818656D02*
X157223886Y-124818656D01*
X158081029Y-125818656D02*
X157509601Y-125818656D01*
X157795315Y-125818656D02*
X157795315Y-124818656D01*
X157795315Y-124818656D02*
X157700077Y-124961513D01*
X157700077Y-124961513D02*
X157604839Y-125056751D01*
X157604839Y-125056751D02*
X157509601Y-125104370D01*
X158509601Y-125723417D02*
X158557220Y-125771037D01*
X158557220Y-125771037D02*
X158509601Y-125818656D01*
X158509601Y-125818656D02*
X158461982Y-125771037D01*
X158461982Y-125771037D02*
X158509601Y-125723417D01*
X158509601Y-125723417D02*
X158509601Y-125818656D01*
X159176267Y-124818656D02*
X159271505Y-124818656D01*
X159271505Y-124818656D02*
X159366743Y-124866275D01*
X159366743Y-124866275D02*
X159414362Y-124913894D01*
X159414362Y-124913894D02*
X159461981Y-125009132D01*
X159461981Y-125009132D02*
X159509600Y-125199608D01*
X159509600Y-125199608D02*
X159509600Y-125437703D01*
X159509600Y-125437703D02*
X159461981Y-125628179D01*
X159461981Y-125628179D02*
X159414362Y-125723417D01*
X159414362Y-125723417D02*
X159366743Y-125771037D01*
X159366743Y-125771037D02*
X159271505Y-125818656D01*
X159271505Y-125818656D02*
X159176267Y-125818656D01*
X159176267Y-125818656D02*
X159081029Y-125771037D01*
X159081029Y-125771037D02*
X159033410Y-125723417D01*
X159033410Y-125723417D02*
X158985791Y-125628179D01*
X158985791Y-125628179D02*
X158938172Y-125437703D01*
X158938172Y-125437703D02*
X158938172Y-125199608D01*
X158938172Y-125199608D02*
X158985791Y-125009132D01*
X158985791Y-125009132D02*
X159033410Y-124913894D01*
X159033410Y-124913894D02*
X159081029Y-124866275D01*
X159081029Y-124866275D02*
X159176267Y-124818656D01*
X161271505Y-125818656D02*
X160938172Y-125342465D01*
X160700077Y-125818656D02*
X160700077Y-124818656D01*
X160700077Y-124818656D02*
X161081029Y-124818656D01*
X161081029Y-124818656D02*
X161176267Y-124866275D01*
X161176267Y-124866275D02*
X161223886Y-124913894D01*
X161223886Y-124913894D02*
X161271505Y-125009132D01*
X161271505Y-125009132D02*
X161271505Y-125151989D01*
X161271505Y-125151989D02*
X161223886Y-125247227D01*
X161223886Y-125247227D02*
X161176267Y-125294846D01*
X161176267Y-125294846D02*
X161081029Y-125342465D01*
X161081029Y-125342465D02*
X160700077Y-125342465D01*
X162081029Y-125771037D02*
X161985791Y-125818656D01*
X161985791Y-125818656D02*
X161795315Y-125818656D01*
X161795315Y-125818656D02*
X161700077Y-125771037D01*
X161700077Y-125771037D02*
X161652458Y-125675798D01*
X161652458Y-125675798D02*
X161652458Y-125294846D01*
X161652458Y-125294846D02*
X161700077Y-125199608D01*
X161700077Y-125199608D02*
X161795315Y-125151989D01*
X161795315Y-125151989D02*
X161985791Y-125151989D01*
X161985791Y-125151989D02*
X162081029Y-125199608D01*
X162081029Y-125199608D02*
X162128648Y-125294846D01*
X162128648Y-125294846D02*
X162128648Y-125390084D01*
X162128648Y-125390084D02*
X161652458Y-125485322D01*
X162461982Y-125151989D02*
X162700077Y-125818656D01*
X162700077Y-125818656D02*
X162938172Y-125151989D01*
X164033411Y-125532941D02*
X164509601Y-125532941D01*
X163938173Y-125818656D02*
X164271506Y-124818656D01*
X164271506Y-124818656D02*
X164604839Y-125818656D01*
X127871801Y-89691196D02*
X127395611Y-89691196D01*
X127395611Y-89691196D02*
X127347992Y-90167386D01*
X127347992Y-90167386D02*
X127395611Y-90119767D01*
X127395611Y-90119767D02*
X127490849Y-90072148D01*
X127490849Y-90072148D02*
X127728944Y-90072148D01*
X127728944Y-90072148D02*
X127824182Y-90119767D01*
X127824182Y-90119767D02*
X127871801Y-90167386D01*
X127871801Y-90167386D02*
X127919420Y-90262624D01*
X127919420Y-90262624D02*
X127919420Y-90500719D01*
X127919420Y-90500719D02*
X127871801Y-90595957D01*
X127871801Y-90595957D02*
X127824182Y-90643577D01*
X127824182Y-90643577D02*
X127728944Y-90691196D01*
X127728944Y-90691196D02*
X127490849Y-90691196D01*
X127490849Y-90691196D02*
X127395611Y-90643577D01*
X127395611Y-90643577D02*
X127347992Y-90595957D01*
X128205135Y-89691196D02*
X128538468Y-90691196D01*
X128538468Y-90691196D02*
X128871801Y-89691196D01*
X132046412Y-66422703D02*
X132665459Y-66422703D01*
X132665459Y-66422703D02*
X132332126Y-66803655D01*
X132332126Y-66803655D02*
X132474983Y-66803655D01*
X132474983Y-66803655D02*
X132570221Y-66851274D01*
X132570221Y-66851274D02*
X132617840Y-66898893D01*
X132617840Y-66898893D02*
X132665459Y-66994131D01*
X132665459Y-66994131D02*
X132665459Y-67232226D01*
X132665459Y-67232226D02*
X132617840Y-67327464D01*
X132617840Y-67327464D02*
X132570221Y-67375084D01*
X132570221Y-67375084D02*
X132474983Y-67422703D01*
X132474983Y-67422703D02*
X132189269Y-67422703D01*
X132189269Y-67422703D02*
X132094031Y-67375084D01*
X132094031Y-67375084D02*
X132046412Y-67327464D01*
X133808317Y-67136988D02*
X134284507Y-67136988D01*
X133713079Y-67422703D02*
X134046412Y-66422703D01*
X134046412Y-66422703D02*
X134379745Y-67422703D01*
X134713079Y-67422703D02*
X134713079Y-66756036D01*
X134713079Y-66851274D02*
X134760698Y-66803655D01*
X134760698Y-66803655D02*
X134855936Y-66756036D01*
X134855936Y-66756036D02*
X134998793Y-66756036D01*
X134998793Y-66756036D02*
X135094031Y-66803655D01*
X135094031Y-66803655D02*
X135141650Y-66898893D01*
X135141650Y-66898893D02*
X135141650Y-67422703D01*
X135141650Y-66898893D02*
X135189269Y-66803655D01*
X135189269Y-66803655D02*
X135284507Y-66756036D01*
X135284507Y-66756036D02*
X135427364Y-66756036D01*
X135427364Y-66756036D02*
X135522603Y-66803655D01*
X135522603Y-66803655D02*
X135570222Y-66898893D01*
X135570222Y-66898893D02*
X135570222Y-67422703D01*
X136046412Y-66756036D02*
X136046412Y-67756036D01*
X136046412Y-66803655D02*
X136141650Y-66756036D01*
X136141650Y-66756036D02*
X136332126Y-66756036D01*
X136332126Y-66756036D02*
X136427364Y-66803655D01*
X136427364Y-66803655D02*
X136474983Y-66851274D01*
X136474983Y-66851274D02*
X136522602Y-66946512D01*
X136522602Y-66946512D02*
X136522602Y-67232226D01*
X136522602Y-67232226D02*
X136474983Y-67327464D01*
X136474983Y-67327464D02*
X136427364Y-67375084D01*
X136427364Y-67375084D02*
X136332126Y-67422703D01*
X136332126Y-67422703D02*
X136141650Y-67422703D01*
X136141650Y-67422703D02*
X136046412Y-67375084D01*
X126728945Y-87169074D02*
X127062278Y-88169074D01*
X127062278Y-88169074D02*
X127395611Y-87169074D01*
X127728945Y-88169074D02*
X127728945Y-87169074D01*
X127728945Y-87169074D02*
X127967040Y-87169074D01*
X127967040Y-87169074D02*
X128109897Y-87216693D01*
X128109897Y-87216693D02*
X128205135Y-87311931D01*
X128205135Y-87311931D02*
X128252754Y-87407169D01*
X128252754Y-87407169D02*
X128300373Y-87597645D01*
X128300373Y-87597645D02*
X128300373Y-87740502D01*
X128300373Y-87740502D02*
X128252754Y-87930978D01*
X128252754Y-87930978D02*
X128205135Y-88026216D01*
X128205135Y-88026216D02*
X128109897Y-88121455D01*
X128109897Y-88121455D02*
X127967040Y-88169074D01*
X127967040Y-88169074D02*
X127728945Y-88169074D01*
X129300373Y-88073835D02*
X129252754Y-88121455D01*
X129252754Y-88121455D02*
X129109897Y-88169074D01*
X129109897Y-88169074D02*
X129014659Y-88169074D01*
X129014659Y-88169074D02*
X128871802Y-88121455D01*
X128871802Y-88121455D02*
X128776564Y-88026216D01*
X128776564Y-88026216D02*
X128728945Y-87930978D01*
X128728945Y-87930978D02*
X128681326Y-87740502D01*
X128681326Y-87740502D02*
X128681326Y-87597645D01*
X128681326Y-87597645D02*
X128728945Y-87407169D01*
X128728945Y-87407169D02*
X128776564Y-87311931D01*
X128776564Y-87311931D02*
X128871802Y-87216693D01*
X128871802Y-87216693D02*
X129014659Y-87169074D01*
X129014659Y-87169074D02*
X129109897Y-87169074D01*
X129109897Y-87169074D02*
X129252754Y-87216693D01*
X129252754Y-87216693D02*
X129300373Y-87264312D01*
X154777569Y-66565322D02*
X153777569Y-66565322D01*
X153777569Y-66565322D02*
X154491854Y-66231989D01*
X154491854Y-66231989D02*
X153777569Y-65898656D01*
X153777569Y-65898656D02*
X154777569Y-65898656D01*
X154777569Y-65422465D02*
X153777569Y-65422465D01*
X154729950Y-64993894D02*
X154777569Y-64851037D01*
X154777569Y-64851037D02*
X154777569Y-64612942D01*
X154777569Y-64612942D02*
X154729950Y-64517704D01*
X154729950Y-64517704D02*
X154682330Y-64470085D01*
X154682330Y-64470085D02*
X154587092Y-64422466D01*
X154587092Y-64422466D02*
X154491854Y-64422466D01*
X154491854Y-64422466D02*
X154396616Y-64470085D01*
X154396616Y-64470085D02*
X154348997Y-64517704D01*
X154348997Y-64517704D02*
X154301378Y-64612942D01*
X154301378Y-64612942D02*
X154253759Y-64803418D01*
X154253759Y-64803418D02*
X154206140Y-64898656D01*
X154206140Y-64898656D02*
X154158521Y-64946275D01*
X154158521Y-64946275D02*
X154063283Y-64993894D01*
X154063283Y-64993894D02*
X153968045Y-64993894D01*
X153968045Y-64993894D02*
X153872807Y-64946275D01*
X153872807Y-64946275D02*
X153825188Y-64898656D01*
X153825188Y-64898656D02*
X153777569Y-64803418D01*
X153777569Y-64803418D02*
X153777569Y-64565323D01*
X153777569Y-64565323D02*
X153825188Y-64422466D01*
X153777569Y-63803418D02*
X153777569Y-63612942D01*
X153777569Y-63612942D02*
X153825188Y-63517704D01*
X153825188Y-63517704D02*
X153920426Y-63422466D01*
X153920426Y-63422466D02*
X154110902Y-63374847D01*
X154110902Y-63374847D02*
X154444235Y-63374847D01*
X154444235Y-63374847D02*
X154634711Y-63422466D01*
X154634711Y-63422466D02*
X154729950Y-63517704D01*
X154729950Y-63517704D02*
X154777569Y-63612942D01*
X154777569Y-63612942D02*
X154777569Y-63803418D01*
X154777569Y-63803418D02*
X154729950Y-63898656D01*
X154729950Y-63898656D02*
X154634711Y-63993894D01*
X154634711Y-63993894D02*
X154444235Y-64041513D01*
X154444235Y-64041513D02*
X154110902Y-64041513D01*
X154110902Y-64041513D02*
X153920426Y-63993894D01*
X153920426Y-63993894D02*
X153825188Y-63898656D01*
X153825188Y-63898656D02*
X153777569Y-63803418D01*
X152235812Y-66048360D02*
X151759621Y-66381693D01*
X152235812Y-66619788D02*
X151235812Y-66619788D01*
X151235812Y-66619788D02*
X151235812Y-66238836D01*
X151235812Y-66238836D02*
X151283431Y-66143598D01*
X151283431Y-66143598D02*
X151331050Y-66095979D01*
X151331050Y-66095979D02*
X151426288Y-66048360D01*
X151426288Y-66048360D02*
X151569145Y-66048360D01*
X151569145Y-66048360D02*
X151664383Y-66095979D01*
X151664383Y-66095979D02*
X151712002Y-66143598D01*
X151712002Y-66143598D02*
X151759621Y-66238836D01*
X151759621Y-66238836D02*
X151759621Y-66619788D01*
X151712002Y-65619788D02*
X151712002Y-65286455D01*
X152235812Y-65143598D02*
X152235812Y-65619788D01*
X152235812Y-65619788D02*
X151235812Y-65619788D01*
X151235812Y-65619788D02*
X151235812Y-65143598D01*
X152188193Y-64762645D02*
X152235812Y-64619788D01*
X152235812Y-64619788D02*
X152235812Y-64381693D01*
X152235812Y-64381693D02*
X152188193Y-64286455D01*
X152188193Y-64286455D02*
X152140573Y-64238836D01*
X152140573Y-64238836D02*
X152045335Y-64191217D01*
X152045335Y-64191217D02*
X151950097Y-64191217D01*
X151950097Y-64191217D02*
X151854859Y-64238836D01*
X151854859Y-64238836D02*
X151807240Y-64286455D01*
X151807240Y-64286455D02*
X151759621Y-64381693D01*
X151759621Y-64381693D02*
X151712002Y-64572169D01*
X151712002Y-64572169D02*
X151664383Y-64667407D01*
X151664383Y-64667407D02*
X151616764Y-64715026D01*
X151616764Y-64715026D02*
X151521526Y-64762645D01*
X151521526Y-64762645D02*
X151426288Y-64762645D01*
X151426288Y-64762645D02*
X151331050Y-64715026D01*
X151331050Y-64715026D02*
X151283431Y-64667407D01*
X151283431Y-64667407D02*
X151235812Y-64572169D01*
X151235812Y-64572169D02*
X151235812Y-64334074D01*
X151235812Y-64334074D02*
X151283431Y-64191217D01*
X151712002Y-63762645D02*
X151712002Y-63429312D01*
X152235812Y-63286455D02*
X152235812Y-63762645D01*
X152235812Y-63762645D02*
X151235812Y-63762645D01*
X151235812Y-63762645D02*
X151235812Y-63286455D01*
X151235812Y-63000740D02*
X151235812Y-62429312D01*
X152235812Y-62715026D02*
X151235812Y-62715026D01*
X150308765Y-76302895D02*
X150308765Y-76779085D01*
X150308765Y-76779085D02*
X150784955Y-76826704D01*
X150784955Y-76826704D02*
X150737336Y-76779085D01*
X150737336Y-76779085D02*
X150689717Y-76683847D01*
X150689717Y-76683847D02*
X150689717Y-76445752D01*
X150689717Y-76445752D02*
X150737336Y-76350514D01*
X150737336Y-76350514D02*
X150784955Y-76302895D01*
X150784955Y-76302895D02*
X150880193Y-76255276D01*
X150880193Y-76255276D02*
X151118288Y-76255276D01*
X151118288Y-76255276D02*
X151213526Y-76302895D01*
X151213526Y-76302895D02*
X151261146Y-76350514D01*
X151261146Y-76350514D02*
X151308765Y-76445752D01*
X151308765Y-76445752D02*
X151308765Y-76683847D01*
X151308765Y-76683847D02*
X151261146Y-76779085D01*
X151261146Y-76779085D02*
X151213526Y-76826704D01*
X150308765Y-75969561D02*
X151308765Y-75636228D01*
X151308765Y-75636228D02*
X150308765Y-75302895D01*
D12*
X129071880Y-71022318D02*
X129071880Y-72050413D01*
X129071880Y-72050413D02*
X129132357Y-72171365D01*
X129132357Y-72171365D02*
X129192833Y-72231842D01*
X129192833Y-72231842D02*
X129313785Y-72292318D01*
X129313785Y-72292318D02*
X129555690Y-72292318D01*
X129555690Y-72292318D02*
X129676642Y-72231842D01*
X129676642Y-72231842D02*
X129737119Y-72171365D01*
X129737119Y-72171365D02*
X129797595Y-72050413D01*
X129797595Y-72050413D02*
X129797595Y-71022318D01*
X131007118Y-71022318D02*
X130402356Y-71022318D01*
X130402356Y-71022318D02*
X130341880Y-71627080D01*
X130341880Y-71627080D02*
X130402356Y-71566603D01*
X130402356Y-71566603D02*
X130523309Y-71506127D01*
X130523309Y-71506127D02*
X130825690Y-71506127D01*
X130825690Y-71506127D02*
X130946642Y-71566603D01*
X130946642Y-71566603D02*
X131007118Y-71627080D01*
X131007118Y-71627080D02*
X131067595Y-71748032D01*
X131067595Y-71748032D02*
X131067595Y-72050413D01*
X131067595Y-72050413D02*
X131007118Y-72171365D01*
X131007118Y-72171365D02*
X130946642Y-72231842D01*
X130946642Y-72231842D02*
X130825690Y-72292318D01*
X130825690Y-72292318D02*
X130523309Y-72292318D01*
X130523309Y-72292318D02*
X130402356Y-72231842D01*
X130402356Y-72231842D02*
X130341880Y-72171365D01*
X125113067Y-116088599D02*
X124689733Y-115483837D01*
X124387352Y-116088599D02*
X124387352Y-114818599D01*
X124387352Y-114818599D02*
X124871162Y-114818599D01*
X124871162Y-114818599D02*
X124992114Y-114879075D01*
X124992114Y-114879075D02*
X125052591Y-114939551D01*
X125052591Y-114939551D02*
X125113067Y-115060503D01*
X125113067Y-115060503D02*
X125113067Y-115241932D01*
X125113067Y-115241932D02*
X125052591Y-115362884D01*
X125052591Y-115362884D02*
X124992114Y-115423361D01*
X124992114Y-115423361D02*
X124871162Y-115483837D01*
X124871162Y-115483837D02*
X124387352Y-115483837D01*
X126141162Y-116028123D02*
X126020210Y-116088599D01*
X126020210Y-116088599D02*
X125778305Y-116088599D01*
X125778305Y-116088599D02*
X125657352Y-116028123D01*
X125657352Y-116028123D02*
X125596876Y-115907170D01*
X125596876Y-115907170D02*
X125596876Y-115423361D01*
X125596876Y-115423361D02*
X125657352Y-115302408D01*
X125657352Y-115302408D02*
X125778305Y-115241932D01*
X125778305Y-115241932D02*
X126020210Y-115241932D01*
X126020210Y-115241932D02*
X126141162Y-115302408D01*
X126141162Y-115302408D02*
X126201638Y-115423361D01*
X126201638Y-115423361D02*
X126201638Y-115544313D01*
X126201638Y-115544313D02*
X125596876Y-115665265D01*
X126685447Y-116028123D02*
X126806400Y-116088599D01*
X126806400Y-116088599D02*
X127048304Y-116088599D01*
X127048304Y-116088599D02*
X127169257Y-116028123D01*
X127169257Y-116028123D02*
X127229733Y-115907170D01*
X127229733Y-115907170D02*
X127229733Y-115846694D01*
X127229733Y-115846694D02*
X127169257Y-115725742D01*
X127169257Y-115725742D02*
X127048304Y-115665265D01*
X127048304Y-115665265D02*
X126866876Y-115665265D01*
X126866876Y-115665265D02*
X126745923Y-115604789D01*
X126745923Y-115604789D02*
X126685447Y-115483837D01*
X126685447Y-115483837D02*
X126685447Y-115423361D01*
X126685447Y-115423361D02*
X126745923Y-115302408D01*
X126745923Y-115302408D02*
X126866876Y-115241932D01*
X126866876Y-115241932D02*
X127048304Y-115241932D01*
X127048304Y-115241932D02*
X127169257Y-115302408D01*
X128257828Y-116028123D02*
X128136876Y-116088599D01*
X128136876Y-116088599D02*
X127894971Y-116088599D01*
X127894971Y-116088599D02*
X127774018Y-116028123D01*
X127774018Y-116028123D02*
X127713542Y-115907170D01*
X127713542Y-115907170D02*
X127713542Y-115423361D01*
X127713542Y-115423361D02*
X127774018Y-115302408D01*
X127774018Y-115302408D02*
X127894971Y-115241932D01*
X127894971Y-115241932D02*
X128136876Y-115241932D01*
X128136876Y-115241932D02*
X128257828Y-115302408D01*
X128257828Y-115302408D02*
X128318304Y-115423361D01*
X128318304Y-115423361D02*
X128318304Y-115544313D01*
X128318304Y-115544313D02*
X127713542Y-115665265D01*
X128681161Y-115241932D02*
X129164970Y-115241932D01*
X128862589Y-114818599D02*
X128862589Y-115907170D01*
X128862589Y-115907170D02*
X128923066Y-116028123D01*
X128923066Y-116028123D02*
X129044018Y-116088599D01*
X129044018Y-116088599D02*
X129164970Y-116088599D01*
X130253542Y-116088599D02*
X129527827Y-116088599D01*
X129890684Y-116088599D02*
X129890684Y-114818599D01*
X129890684Y-114818599D02*
X129769732Y-115000027D01*
X129769732Y-115000027D02*
X129648780Y-115120980D01*
X129648780Y-115120980D02*
X129527827Y-115181456D01*
X169743713Y-104371264D02*
X169320379Y-103766502D01*
X169017998Y-104371264D02*
X169017998Y-103101264D01*
X169017998Y-103101264D02*
X169501808Y-103101264D01*
X169501808Y-103101264D02*
X169622760Y-103161740D01*
X169622760Y-103161740D02*
X169683237Y-103222216D01*
X169683237Y-103222216D02*
X169743713Y-103343168D01*
X169743713Y-103343168D02*
X169743713Y-103524597D01*
X169743713Y-103524597D02*
X169683237Y-103645549D01*
X169683237Y-103645549D02*
X169622760Y-103706026D01*
X169622760Y-103706026D02*
X169501808Y-103766502D01*
X169501808Y-103766502D02*
X169017998Y-103766502D01*
X170953237Y-104371264D02*
X170227522Y-104371264D01*
X170590379Y-104371264D02*
X170590379Y-103101264D01*
X170590379Y-103101264D02*
X170469427Y-103282692D01*
X170469427Y-103282692D02*
X170348475Y-103403645D01*
X170348475Y-103403645D02*
X170227522Y-103464121D01*
X172102284Y-103101264D02*
X171497522Y-103101264D01*
X171497522Y-103101264D02*
X171437046Y-103706026D01*
X171437046Y-103706026D02*
X171497522Y-103645549D01*
X171497522Y-103645549D02*
X171618475Y-103585073D01*
X171618475Y-103585073D02*
X171920856Y-103585073D01*
X171920856Y-103585073D02*
X172041808Y-103645549D01*
X172041808Y-103645549D02*
X172102284Y-103706026D01*
X172102284Y-103706026D02*
X172162761Y-103826978D01*
X172162761Y-103826978D02*
X172162761Y-104129359D01*
X172162761Y-104129359D02*
X172102284Y-104250311D01*
X172102284Y-104250311D02*
X172041808Y-104310788D01*
X172041808Y-104310788D02*
X171920856Y-104371264D01*
X171920856Y-104371264D02*
X171618475Y-104371264D01*
X171618475Y-104371264D02*
X171497522Y-104310788D01*
X171497522Y-104310788D02*
X171437046Y-104250311D01*
X172063871Y-78921314D02*
X171640537Y-78316552D01*
X171338156Y-78921314D02*
X171338156Y-77651314D01*
X171338156Y-77651314D02*
X171821966Y-77651314D01*
X171821966Y-77651314D02*
X171942918Y-77711790D01*
X171942918Y-77711790D02*
X172003395Y-77772266D01*
X172003395Y-77772266D02*
X172063871Y-77893218D01*
X172063871Y-77893218D02*
X172063871Y-78074647D01*
X172063871Y-78074647D02*
X172003395Y-78195599D01*
X172003395Y-78195599D02*
X171942918Y-78256076D01*
X171942918Y-78256076D02*
X171821966Y-78316552D01*
X171821966Y-78316552D02*
X171338156Y-78316552D01*
X173273395Y-78921314D02*
X172547680Y-78921314D01*
X172910537Y-78921314D02*
X172910537Y-77651314D01*
X172910537Y-77651314D02*
X172789585Y-77832742D01*
X172789585Y-77832742D02*
X172668633Y-77953695D01*
X172668633Y-77953695D02*
X172547680Y-78014171D01*
X174361966Y-78074647D02*
X174361966Y-78921314D01*
X174059585Y-77590838D02*
X173757204Y-78497980D01*
X173757204Y-78497980D02*
X174543395Y-78497980D01*
X145111458Y-76444011D02*
X145050982Y-76564963D01*
X145050982Y-76564963D02*
X144930030Y-76685916D01*
X144930030Y-76685916D02*
X144748601Y-76867344D01*
X144748601Y-76867344D02*
X144688125Y-76988297D01*
X144688125Y-76988297D02*
X144688125Y-77109249D01*
X144990506Y-77048773D02*
X144930030Y-77169725D01*
X144930030Y-77169725D02*
X144809077Y-77290678D01*
X144809077Y-77290678D02*
X144567172Y-77351154D01*
X144567172Y-77351154D02*
X144143839Y-77351154D01*
X144143839Y-77351154D02*
X143901934Y-77290678D01*
X143901934Y-77290678D02*
X143780982Y-77169725D01*
X143780982Y-77169725D02*
X143720506Y-77048773D01*
X143720506Y-77048773D02*
X143720506Y-76806868D01*
X143720506Y-76806868D02*
X143780982Y-76685916D01*
X143780982Y-76685916D02*
X143901934Y-76564963D01*
X143901934Y-76564963D02*
X144143839Y-76504487D01*
X144143839Y-76504487D02*
X144567172Y-76504487D01*
X144567172Y-76504487D02*
X144809077Y-76564963D01*
X144809077Y-76564963D02*
X144930030Y-76685916D01*
X144930030Y-76685916D02*
X144990506Y-76806868D01*
X144990506Y-76806868D02*
X144990506Y-77048773D01*
X144990506Y-75294963D02*
X144990506Y-76020678D01*
X144990506Y-75657821D02*
X143720506Y-75657821D01*
X143720506Y-75657821D02*
X143901934Y-75778773D01*
X143901934Y-75778773D02*
X144022887Y-75899725D01*
X144022887Y-75899725D02*
X144083363Y-76020678D01*
D11*
X148851976Y-116006389D02*
X148804357Y-116054009D01*
X148804357Y-116054009D02*
X148661500Y-116101628D01*
X148661500Y-116101628D02*
X148566262Y-116101628D01*
X148566262Y-116101628D02*
X148423405Y-116054009D01*
X148423405Y-116054009D02*
X148328167Y-115958770D01*
X148328167Y-115958770D02*
X148280548Y-115863532D01*
X148280548Y-115863532D02*
X148232929Y-115673056D01*
X148232929Y-115673056D02*
X148232929Y-115530199D01*
X148232929Y-115530199D02*
X148280548Y-115339723D01*
X148280548Y-115339723D02*
X148328167Y-115244485D01*
X148328167Y-115244485D02*
X148423405Y-115149247D01*
X148423405Y-115149247D02*
X148566262Y-115101628D01*
X148566262Y-115101628D02*
X148661500Y-115101628D01*
X148661500Y-115101628D02*
X148804357Y-115149247D01*
X148804357Y-115149247D02*
X148851976Y-115196866D01*
X149185310Y-115101628D02*
X149804357Y-115101628D01*
X149804357Y-115101628D02*
X149471024Y-115482580D01*
X149471024Y-115482580D02*
X149613881Y-115482580D01*
X149613881Y-115482580D02*
X149709119Y-115530199D01*
X149709119Y-115530199D02*
X149756738Y-115577818D01*
X149756738Y-115577818D02*
X149804357Y-115673056D01*
X149804357Y-115673056D02*
X149804357Y-115911151D01*
X149804357Y-115911151D02*
X149756738Y-116006389D01*
X149756738Y-116006389D02*
X149709119Y-116054009D01*
X149709119Y-116054009D02*
X149613881Y-116101628D01*
X149613881Y-116101628D02*
X149328167Y-116101628D01*
X149328167Y-116101628D02*
X149232929Y-116054009D01*
X149232929Y-116054009D02*
X149185310Y-116006389D01*
X128475742Y-100082719D02*
X128142409Y-99606528D01*
X127904314Y-100082719D02*
X127904314Y-99082719D01*
X127904314Y-99082719D02*
X128285266Y-99082719D01*
X128285266Y-99082719D02*
X128380504Y-99130338D01*
X128380504Y-99130338D02*
X128428123Y-99177957D01*
X128428123Y-99177957D02*
X128475742Y-99273195D01*
X128475742Y-99273195D02*
X128475742Y-99416052D01*
X128475742Y-99416052D02*
X128428123Y-99511290D01*
X128428123Y-99511290D02*
X128380504Y-99558909D01*
X128380504Y-99558909D02*
X128285266Y-99606528D01*
X128285266Y-99606528D02*
X127904314Y-99606528D01*
X129428123Y-100082719D02*
X128856695Y-100082719D01*
X129142409Y-100082719D02*
X129142409Y-99082719D01*
X129142409Y-99082719D02*
X129047171Y-99225576D01*
X129047171Y-99225576D02*
X128951933Y-99320814D01*
X128951933Y-99320814D02*
X128856695Y-99368433D01*
X129761457Y-99082719D02*
X130428123Y-99082719D01*
X130428123Y-99082719D02*
X129999552Y-100082719D01*
X154522471Y-59655688D02*
X154189138Y-59179497D01*
X153951043Y-59655688D02*
X153951043Y-58655688D01*
X153951043Y-58655688D02*
X154331995Y-58655688D01*
X154331995Y-58655688D02*
X154427233Y-58703307D01*
X154427233Y-58703307D02*
X154474852Y-58750926D01*
X154474852Y-58750926D02*
X154522471Y-58846164D01*
X154522471Y-58846164D02*
X154522471Y-58989021D01*
X154522471Y-58989021D02*
X154474852Y-59084259D01*
X154474852Y-59084259D02*
X154427233Y-59131878D01*
X154427233Y-59131878D02*
X154331995Y-59179497D01*
X154331995Y-59179497D02*
X153951043Y-59179497D01*
X154855805Y-58655688D02*
X155522471Y-58655688D01*
X155522471Y-58655688D02*
X155093900Y-59655688D01*
X157173619Y-71612133D02*
X157887904Y-71612133D01*
X157887904Y-71612133D02*
X158030761Y-71659752D01*
X158030761Y-71659752D02*
X158126000Y-71754990D01*
X158126000Y-71754990D02*
X158173619Y-71897847D01*
X158173619Y-71897847D02*
X158173619Y-71993085D01*
X158173619Y-70612133D02*
X158173619Y-71183561D01*
X158173619Y-70897847D02*
X157173619Y-70897847D01*
X157173619Y-70897847D02*
X157316476Y-70993085D01*
X157316476Y-70993085D02*
X157411714Y-71088323D01*
X157411714Y-71088323D02*
X157459333Y-71183561D01*
D12*
X151686918Y-100735362D02*
X150416918Y-100735362D01*
X151565965Y-99404885D02*
X151626442Y-99465361D01*
X151626442Y-99465361D02*
X151686918Y-99646790D01*
X151686918Y-99646790D02*
X151686918Y-99767742D01*
X151686918Y-99767742D02*
X151626442Y-99949171D01*
X151626442Y-99949171D02*
X151505489Y-100070123D01*
X151505489Y-100070123D02*
X151384537Y-100130600D01*
X151384537Y-100130600D02*
X151142632Y-100191076D01*
X151142632Y-100191076D02*
X150961203Y-100191076D01*
X150961203Y-100191076D02*
X150719299Y-100130600D01*
X150719299Y-100130600D02*
X150598346Y-100070123D01*
X150598346Y-100070123D02*
X150477394Y-99949171D01*
X150477394Y-99949171D02*
X150416918Y-99767742D01*
X150416918Y-99767742D02*
X150416918Y-99646790D01*
X150416918Y-99646790D02*
X150477394Y-99465361D01*
X150477394Y-99465361D02*
X150537870Y-99404885D01*
X150416918Y-98316314D02*
X150416918Y-98558219D01*
X150416918Y-98558219D02*
X150477394Y-98679171D01*
X150477394Y-98679171D02*
X150537870Y-98739647D01*
X150537870Y-98739647D02*
X150719299Y-98860600D01*
X150719299Y-98860600D02*
X150961203Y-98921076D01*
X150961203Y-98921076D02*
X151445013Y-98921076D01*
X151445013Y-98921076D02*
X151565965Y-98860600D01*
X151565965Y-98860600D02*
X151626442Y-98800123D01*
X151626442Y-98800123D02*
X151686918Y-98679171D01*
X151686918Y-98679171D02*
X151686918Y-98437266D01*
X151686918Y-98437266D02*
X151626442Y-98316314D01*
X151626442Y-98316314D02*
X151565965Y-98255838D01*
X151565965Y-98255838D02*
X151445013Y-98195361D01*
X151445013Y-98195361D02*
X151142632Y-98195361D01*
X151142632Y-98195361D02*
X151021680Y-98255838D01*
X151021680Y-98255838D02*
X150961203Y-98316314D01*
X150961203Y-98316314D02*
X150900727Y-98437266D01*
X150900727Y-98437266D02*
X150900727Y-98679171D01*
X150900727Y-98679171D02*
X150961203Y-98800123D01*
X150961203Y-98800123D02*
X151021680Y-98860600D01*
X151021680Y-98860600D02*
X151142632Y-98921076D01*
D11*
X143940129Y-116949255D02*
X142940129Y-116949255D01*
X142940129Y-116949255D02*
X143940129Y-116377827D01*
X143940129Y-116377827D02*
X142940129Y-116377827D01*
X142940129Y-116044493D02*
X142940129Y-115473065D01*
X143940129Y-115758779D02*
X142940129Y-115758779D01*
X143844890Y-114568303D02*
X143892510Y-114615922D01*
X143892510Y-114615922D02*
X143940129Y-114758779D01*
X143940129Y-114758779D02*
X143940129Y-114854017D01*
X143940129Y-114854017D02*
X143892510Y-114996874D01*
X143892510Y-114996874D02*
X143797271Y-115092112D01*
X143797271Y-115092112D02*
X143702033Y-115139731D01*
X143702033Y-115139731D02*
X143511557Y-115187350D01*
X143511557Y-115187350D02*
X143368700Y-115187350D01*
X143368700Y-115187350D02*
X143178224Y-115139731D01*
X143178224Y-115139731D02*
X143082986Y-115092112D01*
X143082986Y-115092112D02*
X142987748Y-114996874D01*
X142987748Y-114996874D02*
X142940129Y-114854017D01*
X142940129Y-114854017D02*
X142940129Y-114758779D01*
X142940129Y-114758779D02*
X142987748Y-114615922D01*
X142987748Y-114615922D02*
X143035367Y-114568303D01*
X143940129Y-113615922D02*
X143940129Y-114187350D01*
X143940129Y-113901636D02*
X142940129Y-113901636D01*
X142940129Y-113901636D02*
X143082986Y-113996874D01*
X143082986Y-113996874D02*
X143178224Y-114092112D01*
X143178224Y-114092112D02*
X143225843Y-114187350D01*
X123343142Y-100110019D02*
X123009809Y-99633828D01*
X122771714Y-100110019D02*
X122771714Y-99110019D01*
X122771714Y-99110019D02*
X123152666Y-99110019D01*
X123152666Y-99110019D02*
X123247904Y-99157638D01*
X123247904Y-99157638D02*
X123295523Y-99205257D01*
X123295523Y-99205257D02*
X123343142Y-99300495D01*
X123343142Y-99300495D02*
X123343142Y-99443352D01*
X123343142Y-99443352D02*
X123295523Y-99538590D01*
X123295523Y-99538590D02*
X123247904Y-99586209D01*
X123247904Y-99586209D02*
X123152666Y-99633828D01*
X123152666Y-99633828D02*
X122771714Y-99633828D01*
X124295523Y-100110019D02*
X123724095Y-100110019D01*
X124009809Y-100110019D02*
X124009809Y-99110019D01*
X124009809Y-99110019D02*
X123914571Y-99252876D01*
X123914571Y-99252876D02*
X123819333Y-99348114D01*
X123819333Y-99348114D02*
X123724095Y-99395733D01*
X125152666Y-99110019D02*
X124962190Y-99110019D01*
X124962190Y-99110019D02*
X124866952Y-99157638D01*
X124866952Y-99157638D02*
X124819333Y-99205257D01*
X124819333Y-99205257D02*
X124724095Y-99348114D01*
X124724095Y-99348114D02*
X124676476Y-99538590D01*
X124676476Y-99538590D02*
X124676476Y-99919542D01*
X124676476Y-99919542D02*
X124724095Y-100014780D01*
X124724095Y-100014780D02*
X124771714Y-100062400D01*
X124771714Y-100062400D02*
X124866952Y-100110019D01*
X124866952Y-100110019D02*
X125057428Y-100110019D01*
X125057428Y-100110019D02*
X125152666Y-100062400D01*
X125152666Y-100062400D02*
X125200285Y-100014780D01*
X125200285Y-100014780D02*
X125247904Y-99919542D01*
X125247904Y-99919542D02*
X125247904Y-99681447D01*
X125247904Y-99681447D02*
X125200285Y-99586209D01*
X125200285Y-99586209D02*
X125152666Y-99538590D01*
X125152666Y-99538590D02*
X125057428Y-99490971D01*
X125057428Y-99490971D02*
X124866952Y-99490971D01*
X124866952Y-99490971D02*
X124771714Y-99538590D01*
X124771714Y-99538590D02*
X124724095Y-99586209D01*
X124724095Y-99586209D02*
X124676476Y-99681447D01*
X148039419Y-121077533D02*
X148753704Y-121077533D01*
X148753704Y-121077533D02*
X148896561Y-121125152D01*
X148896561Y-121125152D02*
X148991800Y-121220390D01*
X148991800Y-121220390D02*
X149039419Y-121363247D01*
X149039419Y-121363247D02*
X149039419Y-121458485D01*
X148039419Y-120696580D02*
X148039419Y-120077533D01*
X148039419Y-120077533D02*
X148420371Y-120410866D01*
X148420371Y-120410866D02*
X148420371Y-120268009D01*
X148420371Y-120268009D02*
X148467990Y-120172771D01*
X148467990Y-120172771D02*
X148515609Y-120125152D01*
X148515609Y-120125152D02*
X148610847Y-120077533D01*
X148610847Y-120077533D02*
X148848942Y-120077533D01*
X148848942Y-120077533D02*
X148944180Y-120125152D01*
X148944180Y-120125152D02*
X148991800Y-120172771D01*
X148991800Y-120172771D02*
X149039419Y-120268009D01*
X149039419Y-120268009D02*
X149039419Y-120553723D01*
X149039419Y-120553723D02*
X148991800Y-120648961D01*
X148991800Y-120648961D02*
X148944180Y-120696580D01*
D12*
X151686918Y-85900762D02*
X150416918Y-85900762D01*
X151565965Y-84570285D02*
X151626442Y-84630761D01*
X151626442Y-84630761D02*
X151686918Y-84812190D01*
X151686918Y-84812190D02*
X151686918Y-84933142D01*
X151686918Y-84933142D02*
X151626442Y-85114571D01*
X151626442Y-85114571D02*
X151505489Y-85235523D01*
X151505489Y-85235523D02*
X151384537Y-85296000D01*
X151384537Y-85296000D02*
X151142632Y-85356476D01*
X151142632Y-85356476D02*
X150961203Y-85356476D01*
X150961203Y-85356476D02*
X150719299Y-85296000D01*
X150719299Y-85296000D02*
X150598346Y-85235523D01*
X150598346Y-85235523D02*
X150477394Y-85114571D01*
X150477394Y-85114571D02*
X150416918Y-84933142D01*
X150416918Y-84933142D02*
X150416918Y-84812190D01*
X150416918Y-84812190D02*
X150477394Y-84630761D01*
X150477394Y-84630761D02*
X150537870Y-84570285D01*
X150840251Y-83481714D02*
X151686918Y-83481714D01*
X150356442Y-83784095D02*
X151263584Y-84086476D01*
X151263584Y-84086476D02*
X151263584Y-83300285D01*
D11*
X138036572Y-64223632D02*
X137703239Y-63747441D01*
X137465144Y-64223632D02*
X137465144Y-63223632D01*
X137465144Y-63223632D02*
X137846096Y-63223632D01*
X137846096Y-63223632D02*
X137941334Y-63271251D01*
X137941334Y-63271251D02*
X137988953Y-63318870D01*
X137988953Y-63318870D02*
X138036572Y-63414108D01*
X138036572Y-63414108D02*
X138036572Y-63556965D01*
X138036572Y-63556965D02*
X137988953Y-63652203D01*
X137988953Y-63652203D02*
X137941334Y-63699822D01*
X137941334Y-63699822D02*
X137846096Y-63747441D01*
X137846096Y-63747441D02*
X137465144Y-63747441D01*
X138893715Y-63223632D02*
X138703239Y-63223632D01*
X138703239Y-63223632D02*
X138608001Y-63271251D01*
X138608001Y-63271251D02*
X138560382Y-63318870D01*
X138560382Y-63318870D02*
X138465144Y-63461727D01*
X138465144Y-63461727D02*
X138417525Y-63652203D01*
X138417525Y-63652203D02*
X138417525Y-64033155D01*
X138417525Y-64033155D02*
X138465144Y-64128393D01*
X138465144Y-64128393D02*
X138512763Y-64176013D01*
X138512763Y-64176013D02*
X138608001Y-64223632D01*
X138608001Y-64223632D02*
X138798477Y-64223632D01*
X138798477Y-64223632D02*
X138893715Y-64176013D01*
X138893715Y-64176013D02*
X138941334Y-64128393D01*
X138941334Y-64128393D02*
X138988953Y-64033155D01*
X138988953Y-64033155D02*
X138988953Y-63795060D01*
X138988953Y-63795060D02*
X138941334Y-63699822D01*
X138941334Y-63699822D02*
X138893715Y-63652203D01*
X138893715Y-63652203D02*
X138798477Y-63604584D01*
X138798477Y-63604584D02*
X138608001Y-63604584D01*
X138608001Y-63604584D02*
X138512763Y-63652203D01*
X138512763Y-63652203D02*
X138465144Y-63699822D01*
X138465144Y-63699822D02*
X138417525Y-63795060D01*
X123591806Y-94523666D02*
X122591806Y-94523666D01*
X122591806Y-94523666D02*
X122591806Y-94142714D01*
X122591806Y-94142714D02*
X122639425Y-94047476D01*
X122639425Y-94047476D02*
X122687044Y-93999857D01*
X122687044Y-93999857D02*
X122782282Y-93952238D01*
X122782282Y-93952238D02*
X122925139Y-93952238D01*
X122925139Y-93952238D02*
X123020377Y-93999857D01*
X123020377Y-93999857D02*
X123067996Y-94047476D01*
X123067996Y-94047476D02*
X123115615Y-94142714D01*
X123115615Y-94142714D02*
X123115615Y-94523666D01*
X123591806Y-93380809D02*
X123544187Y-93476047D01*
X123544187Y-93476047D02*
X123496567Y-93523666D01*
X123496567Y-93523666D02*
X123401329Y-93571285D01*
X123401329Y-93571285D02*
X123115615Y-93571285D01*
X123115615Y-93571285D02*
X123020377Y-93523666D01*
X123020377Y-93523666D02*
X122972758Y-93476047D01*
X122972758Y-93476047D02*
X122925139Y-93380809D01*
X122925139Y-93380809D02*
X122925139Y-93237952D01*
X122925139Y-93237952D02*
X122972758Y-93142714D01*
X122972758Y-93142714D02*
X123020377Y-93095095D01*
X123020377Y-93095095D02*
X123115615Y-93047476D01*
X123115615Y-93047476D02*
X123401329Y-93047476D01*
X123401329Y-93047476D02*
X123496567Y-93095095D01*
X123496567Y-93095095D02*
X123544187Y-93142714D01*
X123544187Y-93142714D02*
X123591806Y-93237952D01*
X123591806Y-93237952D02*
X123591806Y-93380809D01*
X122925139Y-92714142D02*
X123591806Y-92523666D01*
X123591806Y-92523666D02*
X123115615Y-92333190D01*
X123115615Y-92333190D02*
X123591806Y-92142714D01*
X123591806Y-92142714D02*
X122925139Y-91952238D01*
X123544187Y-91190333D02*
X123591806Y-91285571D01*
X123591806Y-91285571D02*
X123591806Y-91476047D01*
X123591806Y-91476047D02*
X123544187Y-91571285D01*
X123544187Y-91571285D02*
X123448948Y-91618904D01*
X123448948Y-91618904D02*
X123067996Y-91618904D01*
X123067996Y-91618904D02*
X122972758Y-91571285D01*
X122972758Y-91571285D02*
X122925139Y-91476047D01*
X122925139Y-91476047D02*
X122925139Y-91285571D01*
X122925139Y-91285571D02*
X122972758Y-91190333D01*
X122972758Y-91190333D02*
X123067996Y-91142714D01*
X123067996Y-91142714D02*
X123163234Y-91142714D01*
X123163234Y-91142714D02*
X123258472Y-91618904D01*
X123591806Y-90714142D02*
X122925139Y-90714142D01*
X123115615Y-90714142D02*
X123020377Y-90666523D01*
X123020377Y-90666523D02*
X122972758Y-90618904D01*
X122972758Y-90618904D02*
X122925139Y-90523666D01*
X122925139Y-90523666D02*
X122925139Y-90428428D01*
X123591806Y-90095094D02*
X122591806Y-90095094D01*
X122972758Y-90095094D02*
X122925139Y-89999856D01*
X122925139Y-89999856D02*
X122925139Y-89809380D01*
X122925139Y-89809380D02*
X122972758Y-89714142D01*
X122972758Y-89714142D02*
X123020377Y-89666523D01*
X123020377Y-89666523D02*
X123115615Y-89618904D01*
X123115615Y-89618904D02*
X123401329Y-89618904D01*
X123401329Y-89618904D02*
X123496567Y-89666523D01*
X123496567Y-89666523D02*
X123544187Y-89714142D01*
X123544187Y-89714142D02*
X123591806Y-89809380D01*
X123591806Y-89809380D02*
X123591806Y-89999856D01*
X123591806Y-89999856D02*
X123544187Y-90095094D01*
X123591806Y-89047475D02*
X123544187Y-89142713D01*
X123544187Y-89142713D02*
X123496567Y-89190332D01*
X123496567Y-89190332D02*
X123401329Y-89237951D01*
X123401329Y-89237951D02*
X123115615Y-89237951D01*
X123115615Y-89237951D02*
X123020377Y-89190332D01*
X123020377Y-89190332D02*
X122972758Y-89142713D01*
X122972758Y-89142713D02*
X122925139Y-89047475D01*
X122925139Y-89047475D02*
X122925139Y-88904618D01*
X122925139Y-88904618D02*
X122972758Y-88809380D01*
X122972758Y-88809380D02*
X123020377Y-88761761D01*
X123020377Y-88761761D02*
X123115615Y-88714142D01*
X123115615Y-88714142D02*
X123401329Y-88714142D01*
X123401329Y-88714142D02*
X123496567Y-88761761D01*
X123496567Y-88761761D02*
X123544187Y-88809380D01*
X123544187Y-88809380D02*
X123591806Y-88904618D01*
X123591806Y-88904618D02*
X123591806Y-89047475D01*
X123591806Y-87856999D02*
X123067996Y-87856999D01*
X123067996Y-87856999D02*
X122972758Y-87904618D01*
X122972758Y-87904618D02*
X122925139Y-87999856D01*
X122925139Y-87999856D02*
X122925139Y-88190332D01*
X122925139Y-88190332D02*
X122972758Y-88285570D01*
X123544187Y-87856999D02*
X123591806Y-87952237D01*
X123591806Y-87952237D02*
X123591806Y-88190332D01*
X123591806Y-88190332D02*
X123544187Y-88285570D01*
X123544187Y-88285570D02*
X123448948Y-88333189D01*
X123448948Y-88333189D02*
X123353710Y-88333189D01*
X123353710Y-88333189D02*
X123258472Y-88285570D01*
X123258472Y-88285570D02*
X123210853Y-88190332D01*
X123210853Y-88190332D02*
X123210853Y-87952237D01*
X123210853Y-87952237D02*
X123163234Y-87856999D01*
X123591806Y-87380808D02*
X122925139Y-87380808D01*
X123115615Y-87380808D02*
X123020377Y-87333189D01*
X123020377Y-87333189D02*
X122972758Y-87285570D01*
X122972758Y-87285570D02*
X122925139Y-87190332D01*
X122925139Y-87190332D02*
X122925139Y-87095094D01*
X123591806Y-86333189D02*
X122591806Y-86333189D01*
X123544187Y-86333189D02*
X123591806Y-86428427D01*
X123591806Y-86428427D02*
X123591806Y-86618903D01*
X123591806Y-86618903D02*
X123544187Y-86714141D01*
X123544187Y-86714141D02*
X123496567Y-86761760D01*
X123496567Y-86761760D02*
X123401329Y-86809379D01*
X123401329Y-86809379D02*
X123115615Y-86809379D01*
X123115615Y-86809379D02*
X123020377Y-86761760D01*
X123020377Y-86761760D02*
X122972758Y-86714141D01*
X122972758Y-86714141D02*
X122925139Y-86618903D01*
X122925139Y-86618903D02*
X122925139Y-86428427D01*
X122925139Y-86428427D02*
X122972758Y-86333189D01*
X123591806Y-85333189D02*
X123591806Y-85904617D01*
X123591806Y-85618903D02*
X122591806Y-85618903D01*
X122591806Y-85618903D02*
X122734663Y-85714141D01*
X122734663Y-85714141D02*
X122829901Y-85809379D01*
X122829901Y-85809379D02*
X122877520Y-85904617D01*
X155678667Y-68194060D02*
X156392952Y-68194060D01*
X156392952Y-68194060D02*
X156535809Y-68241679D01*
X156535809Y-68241679D02*
X156631048Y-68336917D01*
X156631048Y-68336917D02*
X156678667Y-68479774D01*
X156678667Y-68479774D02*
X156678667Y-68575012D01*
X156012000Y-67289298D02*
X156678667Y-67289298D01*
X155631048Y-67527393D02*
X156345333Y-67765488D01*
X156345333Y-67765488D02*
X156345333Y-67146441D01*
X137749295Y-75476219D02*
X137749295Y-76285742D01*
X137749295Y-76285742D02*
X137796914Y-76380980D01*
X137796914Y-76380980D02*
X137844533Y-76428600D01*
X137844533Y-76428600D02*
X137939771Y-76476219D01*
X137939771Y-76476219D02*
X138130247Y-76476219D01*
X138130247Y-76476219D02*
X138225485Y-76428600D01*
X138225485Y-76428600D02*
X138273104Y-76380980D01*
X138273104Y-76380980D02*
X138320723Y-76285742D01*
X138320723Y-76285742D02*
X138320723Y-75476219D01*
X138749295Y-75571457D02*
X138796914Y-75523838D01*
X138796914Y-75523838D02*
X138892152Y-75476219D01*
X138892152Y-75476219D02*
X139130247Y-75476219D01*
X139130247Y-75476219D02*
X139225485Y-75523838D01*
X139225485Y-75523838D02*
X139273104Y-75571457D01*
X139273104Y-75571457D02*
X139320723Y-75666695D01*
X139320723Y-75666695D02*
X139320723Y-75761933D01*
X139320723Y-75761933D02*
X139273104Y-75904790D01*
X139273104Y-75904790D02*
X138701676Y-76476219D01*
X138701676Y-76476219D02*
X139320723Y-76476219D01*
X154158545Y-61853977D02*
X154872830Y-61853977D01*
X154872830Y-61853977D02*
X155015687Y-61901596D01*
X155015687Y-61901596D02*
X155110926Y-61996834D01*
X155110926Y-61996834D02*
X155158545Y-62139691D01*
X155158545Y-62139691D02*
X155158545Y-62234929D01*
X154158545Y-60901596D02*
X154158545Y-61377786D01*
X154158545Y-61377786D02*
X154634735Y-61425405D01*
X154634735Y-61425405D02*
X154587116Y-61377786D01*
X154587116Y-61377786D02*
X154539497Y-61282548D01*
X154539497Y-61282548D02*
X154539497Y-61044453D01*
X154539497Y-61044453D02*
X154587116Y-60949215D01*
X154587116Y-60949215D02*
X154634735Y-60901596D01*
X154634735Y-60901596D02*
X154729973Y-60853977D01*
X154729973Y-60853977D02*
X154968068Y-60853977D01*
X154968068Y-60853977D02*
X155063306Y-60901596D01*
X155063306Y-60901596D02*
X155110926Y-60949215D01*
X155110926Y-60949215D02*
X155158545Y-61044453D01*
X155158545Y-61044453D02*
X155158545Y-61282548D01*
X155158545Y-61282548D02*
X155110926Y-61377786D01*
X155110926Y-61377786D02*
X155063306Y-61425405D01*
X116447042Y-104102919D02*
X116113709Y-103626728D01*
X115875614Y-104102919D02*
X115875614Y-103102919D01*
X115875614Y-103102919D02*
X116256566Y-103102919D01*
X116256566Y-103102919D02*
X116351804Y-103150538D01*
X116351804Y-103150538D02*
X116399423Y-103198157D01*
X116399423Y-103198157D02*
X116447042Y-103293395D01*
X116447042Y-103293395D02*
X116447042Y-103436252D01*
X116447042Y-103436252D02*
X116399423Y-103531490D01*
X116399423Y-103531490D02*
X116351804Y-103579109D01*
X116351804Y-103579109D02*
X116256566Y-103626728D01*
X116256566Y-103626728D02*
X115875614Y-103626728D01*
X117399423Y-104102919D02*
X116827995Y-104102919D01*
X117113709Y-104102919D02*
X117113709Y-103102919D01*
X117113709Y-103102919D02*
X117018471Y-103245776D01*
X117018471Y-103245776D02*
X116923233Y-103341014D01*
X116923233Y-103341014D02*
X116827995Y-103388633D01*
X117875614Y-104102919D02*
X118066090Y-104102919D01*
X118066090Y-104102919D02*
X118161328Y-104055300D01*
X118161328Y-104055300D02*
X118208947Y-104007680D01*
X118208947Y-104007680D02*
X118304185Y-103864823D01*
X118304185Y-103864823D02*
X118351804Y-103674347D01*
X118351804Y-103674347D02*
X118351804Y-103293395D01*
X118351804Y-103293395D02*
X118304185Y-103198157D01*
X118304185Y-103198157D02*
X118256566Y-103150538D01*
X118256566Y-103150538D02*
X118161328Y-103102919D01*
X118161328Y-103102919D02*
X117970852Y-103102919D01*
X117970852Y-103102919D02*
X117875614Y-103150538D01*
X117875614Y-103150538D02*
X117827995Y-103198157D01*
X117827995Y-103198157D02*
X117780376Y-103293395D01*
X117780376Y-103293395D02*
X117780376Y-103531490D01*
X117780376Y-103531490D02*
X117827995Y-103626728D01*
X117827995Y-103626728D02*
X117875614Y-103674347D01*
X117875614Y-103674347D02*
X117970852Y-103721966D01*
X117970852Y-103721966D02*
X118161328Y-103721966D01*
X118161328Y-103721966D02*
X118256566Y-103674347D01*
X118256566Y-103674347D02*
X118304185Y-103626728D01*
X118304185Y-103626728D02*
X118351804Y-103531490D01*
X154963444Y-107254599D02*
X154963444Y-107730790D01*
X154630111Y-106730790D02*
X154963444Y-107254599D01*
X154963444Y-107254599D02*
X155296777Y-106730790D01*
X155582492Y-106826028D02*
X155630111Y-106778409D01*
X155630111Y-106778409D02*
X155725349Y-106730790D01*
X155725349Y-106730790D02*
X155963444Y-106730790D01*
X155963444Y-106730790D02*
X156058682Y-106778409D01*
X156058682Y-106778409D02*
X156106301Y-106826028D01*
X156106301Y-106826028D02*
X156153920Y-106921266D01*
X156153920Y-106921266D02*
X156153920Y-107016504D01*
X156153920Y-107016504D02*
X156106301Y-107159361D01*
X156106301Y-107159361D02*
X155534873Y-107730790D01*
X155534873Y-107730790D02*
X156153920Y-107730790D01*
X161396781Y-115908823D02*
X161349162Y-115956443D01*
X161349162Y-115956443D02*
X161206305Y-116004062D01*
X161206305Y-116004062D02*
X161111067Y-116004062D01*
X161111067Y-116004062D02*
X160968210Y-115956443D01*
X160968210Y-115956443D02*
X160872972Y-115861204D01*
X160872972Y-115861204D02*
X160825353Y-115765966D01*
X160825353Y-115765966D02*
X160777734Y-115575490D01*
X160777734Y-115575490D02*
X160777734Y-115432633D01*
X160777734Y-115432633D02*
X160825353Y-115242157D01*
X160825353Y-115242157D02*
X160872972Y-115146919D01*
X160872972Y-115146919D02*
X160968210Y-115051681D01*
X160968210Y-115051681D02*
X161111067Y-115004062D01*
X161111067Y-115004062D02*
X161206305Y-115004062D01*
X161206305Y-115004062D02*
X161349162Y-115051681D01*
X161349162Y-115051681D02*
X161396781Y-115099300D01*
X162301543Y-115004062D02*
X161825353Y-115004062D01*
X161825353Y-115004062D02*
X161777734Y-115480252D01*
X161777734Y-115480252D02*
X161825353Y-115432633D01*
X161825353Y-115432633D02*
X161920591Y-115385014D01*
X161920591Y-115385014D02*
X162158686Y-115385014D01*
X162158686Y-115385014D02*
X162253924Y-115432633D01*
X162253924Y-115432633D02*
X162301543Y-115480252D01*
X162301543Y-115480252D02*
X162349162Y-115575490D01*
X162349162Y-115575490D02*
X162349162Y-115813585D01*
X162349162Y-115813585D02*
X162301543Y-115908823D01*
X162301543Y-115908823D02*
X162253924Y-115956443D01*
X162253924Y-115956443D02*
X162158686Y-116004062D01*
X162158686Y-116004062D02*
X161920591Y-116004062D01*
X161920591Y-116004062D02*
X161825353Y-115956443D01*
X161825353Y-115956443D02*
X161777734Y-115908823D01*
X154961460Y-119734228D02*
X154961460Y-120210419D01*
X154628127Y-119210419D02*
X154961460Y-119734228D01*
X154961460Y-119734228D02*
X155294793Y-119210419D01*
X156151936Y-120210419D02*
X155580508Y-120210419D01*
X155866222Y-120210419D02*
X155866222Y-119210419D01*
X155866222Y-119210419D02*
X155770984Y-119353276D01*
X155770984Y-119353276D02*
X155675746Y-119448514D01*
X155675746Y-119448514D02*
X155580508Y-119496133D01*
X167782895Y-114644019D02*
X167782895Y-115453542D01*
X167782895Y-115453542D02*
X167830514Y-115548780D01*
X167830514Y-115548780D02*
X167878133Y-115596400D01*
X167878133Y-115596400D02*
X167973371Y-115644019D01*
X167973371Y-115644019D02*
X168163847Y-115644019D01*
X168163847Y-115644019D02*
X168259085Y-115596400D01*
X168259085Y-115596400D02*
X168306704Y-115548780D01*
X168306704Y-115548780D02*
X168354323Y-115453542D01*
X168354323Y-115453542D02*
X168354323Y-114644019D01*
X169354323Y-115644019D02*
X168782895Y-115644019D01*
X169068609Y-115644019D02*
X169068609Y-114644019D01*
X169068609Y-114644019D02*
X168973371Y-114786876D01*
X168973371Y-114786876D02*
X168878133Y-114882114D01*
X168878133Y-114882114D02*
X168782895Y-114929733D01*
X116452342Y-100430619D02*
X116119009Y-99954428D01*
X115880914Y-100430619D02*
X115880914Y-99430619D01*
X115880914Y-99430619D02*
X116261866Y-99430619D01*
X116261866Y-99430619D02*
X116357104Y-99478238D01*
X116357104Y-99478238D02*
X116404723Y-99525857D01*
X116404723Y-99525857D02*
X116452342Y-99621095D01*
X116452342Y-99621095D02*
X116452342Y-99763952D01*
X116452342Y-99763952D02*
X116404723Y-99859190D01*
X116404723Y-99859190D02*
X116357104Y-99906809D01*
X116357104Y-99906809D02*
X116261866Y-99954428D01*
X116261866Y-99954428D02*
X115880914Y-99954428D01*
X117404723Y-100430619D02*
X116833295Y-100430619D01*
X117119009Y-100430619D02*
X117119009Y-99430619D01*
X117119009Y-99430619D02*
X117023771Y-99573476D01*
X117023771Y-99573476D02*
X116928533Y-99668714D01*
X116928533Y-99668714D02*
X116833295Y-99716333D01*
X117976152Y-99859190D02*
X117880914Y-99811571D01*
X117880914Y-99811571D02*
X117833295Y-99763952D01*
X117833295Y-99763952D02*
X117785676Y-99668714D01*
X117785676Y-99668714D02*
X117785676Y-99621095D01*
X117785676Y-99621095D02*
X117833295Y-99525857D01*
X117833295Y-99525857D02*
X117880914Y-99478238D01*
X117880914Y-99478238D02*
X117976152Y-99430619D01*
X117976152Y-99430619D02*
X118166628Y-99430619D01*
X118166628Y-99430619D02*
X118261866Y-99478238D01*
X118261866Y-99478238D02*
X118309485Y-99525857D01*
X118309485Y-99525857D02*
X118357104Y-99621095D01*
X118357104Y-99621095D02*
X118357104Y-99668714D01*
X118357104Y-99668714D02*
X118309485Y-99763952D01*
X118309485Y-99763952D02*
X118261866Y-99811571D01*
X118261866Y-99811571D02*
X118166628Y-99859190D01*
X118166628Y-99859190D02*
X117976152Y-99859190D01*
X117976152Y-99859190D02*
X117880914Y-99906809D01*
X117880914Y-99906809D02*
X117833295Y-99954428D01*
X117833295Y-99954428D02*
X117785676Y-100049666D01*
X117785676Y-100049666D02*
X117785676Y-100240142D01*
X117785676Y-100240142D02*
X117833295Y-100335380D01*
X117833295Y-100335380D02*
X117880914Y-100383000D01*
X117880914Y-100383000D02*
X117976152Y-100430619D01*
X117976152Y-100430619D02*
X118166628Y-100430619D01*
X118166628Y-100430619D02*
X118261866Y-100383000D01*
X118261866Y-100383000D02*
X118309485Y-100335380D01*
X118309485Y-100335380D02*
X118357104Y-100240142D01*
X118357104Y-100240142D02*
X118357104Y-100049666D01*
X118357104Y-100049666D02*
X118309485Y-99954428D01*
X118309485Y-99954428D02*
X118261866Y-99906809D01*
X118261866Y-99906809D02*
X118166628Y-99859190D01*
X146636526Y-71372966D02*
X146160335Y-71706299D01*
X146636526Y-71944394D02*
X145636526Y-71944394D01*
X145636526Y-71944394D02*
X145636526Y-71563442D01*
X145636526Y-71563442D02*
X145684145Y-71468204D01*
X145684145Y-71468204D02*
X145731764Y-71420585D01*
X145731764Y-71420585D02*
X145827002Y-71372966D01*
X145827002Y-71372966D02*
X145969859Y-71372966D01*
X145969859Y-71372966D02*
X146065097Y-71420585D01*
X146065097Y-71420585D02*
X146112716Y-71468204D01*
X146112716Y-71468204D02*
X146160335Y-71563442D01*
X146160335Y-71563442D02*
X146160335Y-71944394D01*
X145636526Y-70468204D02*
X145636526Y-70944394D01*
X145636526Y-70944394D02*
X146112716Y-70992013D01*
X146112716Y-70992013D02*
X146065097Y-70944394D01*
X146065097Y-70944394D02*
X146017478Y-70849156D01*
X146017478Y-70849156D02*
X146017478Y-70611061D01*
X146017478Y-70611061D02*
X146065097Y-70515823D01*
X146065097Y-70515823D02*
X146112716Y-70468204D01*
X146112716Y-70468204D02*
X146207954Y-70420585D01*
X146207954Y-70420585D02*
X146446049Y-70420585D01*
X146446049Y-70420585D02*
X146541287Y-70468204D01*
X146541287Y-70468204D02*
X146588907Y-70515823D01*
X146588907Y-70515823D02*
X146636526Y-70611061D01*
X146636526Y-70611061D02*
X146636526Y-70849156D01*
X146636526Y-70849156D02*
X146588907Y-70944394D01*
X146588907Y-70944394D02*
X146541287Y-70992013D01*
D10*
%TO.C,U5*%
X138039500Y-75083000D02*
X122039500Y-75083000D01*
X122039500Y-75083000D02*
X122039500Y-68353000D01*
X122039500Y-68353000D02*
X138039500Y-68353000D01*
X138039500Y-68353000D02*
X138039500Y-75083000D01*
D13*
%TO.C,Reset1*%
X129096900Y-114422200D02*
X124896900Y-114422200D01*
X129096900Y-108422200D02*
X124896900Y-108422200D01*
X123996900Y-110222200D02*
X123996900Y-112622200D01*
X129996900Y-110222200D02*
X129996900Y-112622200D01*
X131696900Y-113672200D02*
X131696900Y-113672200D01*
X131596900Y-113672200D02*
X131596900Y-113672200D01*
X131696900Y-113672200D02*
X131596900Y-113672200D01*
X131596900Y-113672200D02*
G75*
G02*
X131696900Y-113672200I50000J0D01*
G01*
X131696900Y-113672200D02*
G75*
G02*
X131596900Y-113672200I-50000J0D01*
G01*
%TO.C,R15*%
X162247100Y-103648200D02*
X168547100Y-103648200D01*
X168547100Y-103648200D02*
X168547100Y-105948200D01*
X168547100Y-105948200D02*
X162247100Y-105948200D01*
X162247100Y-105948200D02*
X162247100Y-103648200D01*
X158597100Y-104798200D02*
X162247100Y-104798200D01*
X168547100Y-104798200D02*
X172197100Y-104798200D01*
%TO.C,R14*%
X164593000Y-78219700D02*
X170893000Y-78219700D01*
X170893000Y-78219700D02*
X170893000Y-80519700D01*
X170893000Y-80519700D02*
X164593000Y-80519700D01*
X164593000Y-80519700D02*
X164593000Y-78219700D01*
X160943000Y-79369700D02*
X164593000Y-79369700D01*
X170893000Y-79369700D02*
X174543000Y-79369700D01*
%TO.C,Q1*%
X144156000Y-65390500D02*
X139466000Y-65390500D01*
X139466000Y-65390500D02*
X139466000Y-75930500D01*
X139466000Y-75930500D02*
X142661000Y-75930500D01*
D14*
%TO.C,C3*%
X151909848Y-114682400D02*
X153332352Y-114682400D01*
X151909848Y-116502400D02*
X153332352Y-116502400D01*
%TO.C,R17*%
X128391536Y-100537900D02*
X129845664Y-100537900D01*
X128391536Y-102357900D02*
X129845664Y-102357900D01*
%TO.C,R7*%
X158747500Y-59141700D02*
X158817500Y-59141700D01*
X158747500Y-59141700D02*
G75*
G02*
X156007500Y-59141700I-1370000J0D01*
G01*
X156007500Y-59141700D02*
G75*
G02*
X158747500Y-59141700I1370000J0D01*
G01*
%TO.C,J1*%
X158718800Y-65908800D02*
X165038800Y-65908800D01*
X158718800Y-76648800D02*
X158718800Y-65908800D01*
X158718800Y-76648800D02*
X165038800Y-76648800D01*
X159178800Y-76648800D02*
X159178800Y-65908800D01*
X164478800Y-76648800D02*
X164478800Y-65908800D01*
X164538800Y-76888800D02*
X165278800Y-76888800D01*
X165038800Y-76648800D02*
X165038800Y-65908800D01*
X165278800Y-76888800D02*
X165278800Y-76388800D01*
D13*
%TO.C,IC6*%
X133412600Y-96295600D02*
X133412600Y-102695600D01*
X133412600Y-102695600D02*
X146712600Y-102695600D01*
X146712600Y-93145600D02*
X146712600Y-105845600D01*
X146712600Y-96295600D02*
X133412600Y-96295600D01*
X146712600Y-105845600D02*
X155712600Y-105845600D01*
D10*
X154812600Y-106295600D02*
X154812600Y-106295600D01*
X154812600Y-106395600D02*
X154812600Y-106395600D01*
D13*
X155712600Y-93145600D02*
X146712600Y-93145600D01*
X155712600Y-96295600D02*
X168812600Y-96295600D01*
X155712600Y-105845600D02*
X155712600Y-93145600D01*
X168812600Y-96295600D02*
X168812600Y-102695600D01*
X168812600Y-102695600D02*
X155712600Y-102695600D01*
D10*
X154812600Y-106295600D02*
G75*
G02*
X154812600Y-106395600I0J-50000D01*
G01*
X154812600Y-106395600D02*
G75*
G02*
X154812600Y-106295600I0J50000D01*
G01*
D14*
%TO.C,NTC1*%
X145636900Y-115569700D02*
X145636900Y-115639700D01*
X147006900Y-114199700D02*
G75*
G02*
X144266900Y-114199700I-1370000J0D01*
G01*
X144266900Y-114199700D02*
G75*
G02*
X147006900Y-114199700I1370000J0D01*
G01*
%TO.C,R16*%
X123258936Y-100565200D02*
X124713064Y-100565200D01*
X123258936Y-102385200D02*
X124713064Y-102385200D01*
%TO.C,J3*%
X132224600Y-119414200D02*
X132224600Y-122074200D01*
X144984600Y-119414200D02*
X132224600Y-119414200D01*
X144984600Y-119414200D02*
X144984600Y-122074200D01*
X144984600Y-122074200D02*
X132224600Y-122074200D01*
X146254600Y-119414200D02*
X147584600Y-119414200D01*
X147584600Y-119414200D02*
X147584600Y-120744200D01*
D13*
%TO.C,IC4*%
X133412600Y-81461000D02*
X133412600Y-87861000D01*
X133412600Y-87861000D02*
X146712600Y-87861000D01*
X146712600Y-78311000D02*
X146712600Y-91011000D01*
X146712600Y-81461000D02*
X133412600Y-81461000D01*
X146712600Y-91011000D02*
X155712600Y-91011000D01*
D10*
X154812600Y-91461000D02*
X154812600Y-91461000D01*
X154812600Y-91561000D02*
X154812600Y-91561000D01*
D13*
X155712600Y-78311000D02*
X146712600Y-78311000D01*
X155712600Y-81461000D02*
X168812600Y-81461000D01*
X155712600Y-91011000D02*
X155712600Y-78311000D01*
X168812600Y-81461000D02*
X168812600Y-87861000D01*
X168812600Y-87861000D02*
X155712600Y-87861000D01*
D10*
X154812600Y-91461000D02*
G75*
G02*
X154812600Y-91561000I0J-50000D01*
G01*
X154812600Y-91561000D02*
G75*
G02*
X154812600Y-91461000I0J50000D01*
G01*
D14*
%TO.C,R6*%
X138245100Y-60893000D02*
X138245100Y-60963000D01*
X139615100Y-59523000D02*
G75*
G02*
X136875100Y-59523000I-1370000J0D01*
G01*
X136875100Y-59523000D02*
G75*
G02*
X139615100Y-59523000I1370000J0D01*
G01*
%TO.C,Powerboard1*%
X129646300Y-86222600D02*
X130976300Y-86222600D01*
X129646300Y-87552600D02*
X129646300Y-86222600D01*
X129646300Y-88822600D02*
X129646300Y-93962600D01*
X129646300Y-88822600D02*
X132306300Y-88822600D01*
X129646300Y-93962600D02*
X132306300Y-93962600D01*
X132306300Y-88822600D02*
X132306300Y-93962600D01*
%TO.C,J4*%
X147945600Y-68521200D02*
X147945600Y-73721200D01*
X148515600Y-68521200D02*
X147945600Y-68521200D01*
X148515600Y-73721200D02*
X147945600Y-73721200D01*
X151055600Y-68521200D02*
X150035600Y-68521200D01*
X151055600Y-73721200D02*
X150035600Y-73721200D01*
X153595600Y-68521200D02*
X152575600Y-68521200D01*
X153595600Y-73721200D02*
X152575600Y-73721200D01*
X155115600Y-67081200D02*
X155115600Y-68521200D01*
X155685600Y-68521200D02*
X155115600Y-68521200D01*
X155685600Y-68521200D02*
X155685600Y-73721200D01*
X155685600Y-73721200D02*
X155115600Y-73721200D01*
%TO.C,U2*%
X135861200Y-77021400D02*
X135861200Y-112701400D01*
X135861200Y-112701400D02*
X141161200Y-112701400D01*
X137511200Y-77021400D02*
X135861200Y-77021400D01*
X141161200Y-77021400D02*
X139511200Y-77021400D01*
X141161200Y-112701400D02*
X141161200Y-77021400D01*
X139511200Y-77021400D02*
G75*
G02*
X137511200Y-77021400I-1000000J0D01*
G01*
%TO.C,J5*%
X155981000Y-63949500D02*
X155981000Y-62619500D01*
X157311000Y-63949500D02*
X155981000Y-63949500D01*
X158581000Y-61289500D02*
X161181000Y-61289500D01*
X158581000Y-63949500D02*
X158581000Y-61289500D01*
X158581000Y-63949500D02*
X161181000Y-63949500D01*
X161181000Y-63949500D02*
X161181000Y-61289500D01*
%TO.C,R19*%
X116362836Y-104558100D02*
X117816964Y-104558100D01*
X116362836Y-106378100D02*
X117816964Y-106378100D01*
%TO.C,Y2*%
X152316300Y-107976200D02*
X158566300Y-107976200D01*
X152316300Y-113026200D02*
X158566300Y-113026200D01*
X152316300Y-113026200D02*
G75*
G02*
X152316300Y-107976200I0J2525000D01*
G01*
X158566300Y-107976200D02*
G75*
G02*
X158566300Y-113026200I0J-2525000D01*
G01*
%TO.C,C5*%
X158732352Y-114670100D02*
X157309848Y-114670100D01*
X158732352Y-116490100D02*
X157309848Y-116490100D01*
%TO.C,Y1*%
X152291400Y-117230600D02*
X158541400Y-117230600D01*
X152291400Y-122280600D02*
X158541400Y-122280600D01*
X152291400Y-122280600D02*
G75*
G02*
X152291400Y-117230600I0J2525000D01*
G01*
X158541400Y-117230600D02*
G75*
G02*
X158541400Y-122280600I0J-2525000D01*
G01*
%TO.C,U1*%
X170344800Y-109779200D02*
X166744800Y-109779200D01*
X168544800Y-114229200D02*
G75*
G02*
X166706322Y-109790722I0J2600000D01*
G01*
X170383278Y-109790722D02*
G75*
G02*
X168544800Y-114229200I-1838478J-1838478D01*
G01*
%TO.C,R18*%
X116368136Y-100885800D02*
X117822264Y-100885800D01*
X116368136Y-102705800D02*
X117822264Y-102705800D01*
%TO.C,R5*%
X146970400Y-68294164D02*
X146970400Y-66840036D01*
X145150400Y-68294164D02*
X145150400Y-66840036D01*
%TD*%
%LPC*%
D15*
%TO.C,U5*%
X134999500Y-70018000D03*
X134999500Y-73418000D03*
X125079500Y-70018000D03*
X125079500Y-73418000D03*
%TD*%
D16*
%TO.C,Reset1*%
X130246900Y-113672200D03*
D17*
X123746900Y-113672200D03*
X130246900Y-109172200D03*
X123746900Y-109172200D03*
%TD*%
D18*
%TO.C,R15*%
X157647100Y-104798200D03*
X173147100Y-104798200D03*
%TD*%
%TO.C,R14*%
X159993000Y-79369700D03*
X175493000Y-79369700D03*
%TD*%
D19*
%TO.C,Q1*%
X142661000Y-73200500D03*
D20*
X142661000Y-70660500D03*
X142661000Y-68120500D03*
%TD*%
D21*
%TO.C,C3*%
X151058600Y-115592400D03*
X154183600Y-115592400D03*
%TD*%
D22*
%TO.C,R17*%
X127568600Y-101447900D03*
X130668600Y-101447900D03*
%TD*%
D23*
%TO.C,R7*%
X157377500Y-59141700D03*
D24*
X159917500Y-59141700D03*
%TD*%
D25*
%TO.C,J1*%
X161878800Y-75088800D03*
D26*
X161878800Y-72548800D03*
X161878800Y-70008800D03*
X161878800Y-67468800D03*
%TD*%
D27*
%TO.C,IC6*%
X154212600Y-103245600D03*
D28*
X154212600Y-100745600D03*
X154212600Y-98245600D03*
X154212600Y-95745600D03*
%TD*%
D23*
%TO.C,NTC1*%
X145636900Y-114199700D03*
D24*
X145636900Y-116739700D03*
%TD*%
D22*
%TO.C,R16*%
X122436000Y-101475200D03*
X125536000Y-101475200D03*
%TD*%
D29*
%TO.C,J3*%
X146254600Y-120744200D03*
D30*
X143714600Y-120744200D03*
X141174600Y-120744200D03*
X138634600Y-120744200D03*
X136094600Y-120744200D03*
X133554600Y-120744200D03*
%TD*%
D27*
%TO.C,IC4*%
X154212600Y-88411000D03*
D28*
X154212600Y-85911000D03*
X154212600Y-83411000D03*
X154212600Y-80911000D03*
%TD*%
D23*
%TO.C,R6*%
X138245100Y-59523000D03*
D24*
X138245100Y-62063000D03*
%TD*%
D29*
%TO.C,Powerboard1*%
X130976300Y-87552600D03*
D30*
X130976300Y-90092600D03*
X130976300Y-92632600D03*
%TD*%
D31*
%TO.C,J4*%
X154355600Y-68596200D03*
X154355600Y-73646200D03*
X151815600Y-68596200D03*
X151815600Y-73646200D03*
X149275600Y-68596200D03*
X149275600Y-73646200D03*
%TD*%
D32*
%TO.C,U2*%
X134701200Y-78351400D03*
D24*
X134701200Y-80891400D03*
X134701200Y-83431400D03*
X134701200Y-85971400D03*
X134701200Y-88511400D03*
X134701200Y-91051400D03*
X134701200Y-93591400D03*
X134701200Y-96131400D03*
X134701200Y-98671400D03*
X134701200Y-101211400D03*
X134701200Y-103751400D03*
X134701200Y-106291400D03*
X134701200Y-108831400D03*
X134701200Y-111371400D03*
X142321200Y-111371400D03*
X142321200Y-108831400D03*
X142321200Y-106291400D03*
X142321200Y-103751400D03*
X142321200Y-101211400D03*
X142321200Y-98671400D03*
X142321200Y-96131400D03*
X142321200Y-93591400D03*
X142321200Y-91051400D03*
X142321200Y-88511400D03*
X142321200Y-85971400D03*
X142321200Y-83431400D03*
X142321200Y-80891400D03*
X142321200Y-78351400D03*
%TD*%
D29*
%TO.C,J5*%
X157311000Y-62619500D03*
D30*
X159851000Y-62619500D03*
%TD*%
D22*
%TO.C,R19*%
X115539900Y-105468100D03*
X118639900Y-105468100D03*
%TD*%
D17*
%TO.C,Y2*%
X153001300Y-110501200D03*
X157881300Y-110501200D03*
%TD*%
D33*
%TO.C,C5*%
X159583600Y-115580100D03*
X156458600Y-115580100D03*
%TD*%
D17*
%TO.C,Y1*%
X152976400Y-119755600D03*
X157856400Y-119755600D03*
%TD*%
D34*
%TO.C,U1*%
X169814800Y-111629200D03*
D35*
X168544800Y-111629200D03*
X167274800Y-111629200D03*
%TD*%
D22*
%TO.C,R18*%
X115545200Y-101795800D03*
X118645200Y-101795800D03*
%TD*%
D36*
%TO.C,R5*%
X146060400Y-69117100D03*
X146060400Y-66017100D03*
%TD*%
%LPD*%
M02*
