%TF.GenerationSoftware,KiCad,Pcbnew,8.0.1-rc1*%
%TF.CreationDate,2024-11-22T07:55:53-08:00*%
%TF.ProjectId,AMS - CANBus Sensor - Vacuum,414d5320-2d20-4434-914e-427573205365,rev?*%
%TF.SameCoordinates,Original*%
%TF.FileFunction,Soldermask,Top*%
%TF.FilePolarity,Negative*%
%FSLAX46Y46*%
G04 Gerber Fmt 4.6, Leading zero omitted, Abs format (unit mm)*
G04 Created by KiCad (PCBNEW 8.0.1-rc1) date 2024-11-22 07:55:53*
%MOMM*%
%LPD*%
G01*
G04 APERTURE LIST*
G04 Aperture macros list*
%AMRoundRect*
0 Rectangle with rounded corners*
0 $1 Rounding radius*
0 $2 $3 $4 $5 $6 $7 $8 $9 X,Y pos of 4 corners*
0 Add a 4 corners polygon primitive as box body*
4,1,4,$2,$3,$4,$5,$6,$7,$8,$9,$2,$3,0*
0 Add four circle primitives for the rounded corners*
1,1,$1+$1,$2,$3*
1,1,$1+$1,$4,$5*
1,1,$1+$1,$6,$7*
1,1,$1+$1,$8,$9*
0 Add four rect primitives between the rounded corners*
20,1,$1+$1,$2,$3,$4,$5,0*
20,1,$1+$1,$4,$5,$6,$7,0*
20,1,$1+$1,$6,$7,$8,$9,0*
20,1,$1+$1,$8,$9,$2,$3,0*%
G04 Aperture macros list end*
%ADD10C,2.400000*%
%ADD11R,1.500000X1.500000*%
%ADD12C,1.500000*%
%ADD13C,1.200000*%
%ADD14R,1.920000X1.920000*%
%ADD15C,1.920000*%
%ADD16RoundRect,0.250000X-0.412500X-0.650000X0.412500X-0.650000X0.412500X0.650000X-0.412500X0.650000X0*%
%ADD17RoundRect,0.250000X-0.400000X-0.625000X0.400000X-0.625000X0.400000X0.625000X-0.400000X0.625000X0*%
%ADD18C,1.600000*%
%ADD19O,1.600000X1.600000*%
%ADD20R,2.200000X2.200000*%
%ADD21C,2.200000*%
%ADD22R,1.365000X1.365000*%
%ADD23C,1.365000*%
%ADD24R,1.700000X1.700000*%
%ADD25O,1.700000X1.700000*%
%ADD26R,1.000000X3.150000*%
%ADD27R,1.600000X1.600000*%
%ADD28RoundRect,0.250000X0.412500X0.650000X-0.412500X0.650000X-0.412500X-0.650000X0.412500X-0.650000X0*%
%ADD29R,1.050000X1.500000*%
%ADD30O,1.050000X1.500000*%
%ADD31RoundRect,0.250000X0.625000X-0.400000X0.625000X0.400000X-0.625000X0.400000X-0.625000X-0.400000X0*%
G04 APERTURE END LIST*
D10*
%TO.C,U5*%
X134999500Y-70018000D03*
X134999500Y-73418000D03*
X125079500Y-70018000D03*
X125079500Y-73418000D03*
%TD*%
D11*
%TO.C,Reset1*%
X130246900Y-113672200D03*
D12*
X123746900Y-113672200D03*
X130246900Y-109172200D03*
X123746900Y-109172200D03*
%TD*%
D13*
%TO.C,R15*%
X157647100Y-104798200D03*
X173147100Y-104798200D03*
%TD*%
%TO.C,R14*%
X159993000Y-79369700D03*
X175493000Y-79369700D03*
%TD*%
D14*
%TO.C,Q1*%
X142661000Y-73200500D03*
D15*
X142661000Y-70660500D03*
X142661000Y-68120500D03*
%TD*%
D16*
%TO.C,C3*%
X151058600Y-115592400D03*
X154183600Y-115592400D03*
%TD*%
D17*
%TO.C,R17*%
X127568600Y-101447900D03*
X130668600Y-101447900D03*
%TD*%
D18*
%TO.C,R7*%
X157377500Y-59141700D03*
D19*
X159917500Y-59141700D03*
%TD*%
D20*
%TO.C,J1*%
X161878800Y-75088800D03*
D21*
X161878800Y-72548800D03*
X161878800Y-70008800D03*
X161878800Y-67468800D03*
%TD*%
D22*
%TO.C,IC6*%
X154212600Y-103245600D03*
D23*
X154212600Y-100745600D03*
X154212600Y-98245600D03*
X154212600Y-95745600D03*
%TD*%
D18*
%TO.C,NTC1*%
X145636900Y-114199700D03*
D19*
X145636900Y-116739700D03*
%TD*%
D17*
%TO.C,R16*%
X122436000Y-101475200D03*
X125536000Y-101475200D03*
%TD*%
D24*
%TO.C,J3*%
X146254600Y-120744200D03*
D25*
X143714600Y-120744200D03*
X141174600Y-120744200D03*
X138634600Y-120744200D03*
X136094600Y-120744200D03*
X133554600Y-120744200D03*
%TD*%
D22*
%TO.C,IC4*%
X154212600Y-88411000D03*
D23*
X154212600Y-85911000D03*
X154212600Y-83411000D03*
X154212600Y-80911000D03*
%TD*%
D18*
%TO.C,R6*%
X138245100Y-59523000D03*
D19*
X138245100Y-62063000D03*
%TD*%
D24*
%TO.C,Powerboard1*%
X130976300Y-87552600D03*
D25*
X130976300Y-90092600D03*
X130976300Y-92632600D03*
%TD*%
D26*
%TO.C,J4*%
X154355600Y-68596200D03*
X154355600Y-73646200D03*
X151815600Y-68596200D03*
X151815600Y-73646200D03*
X149275600Y-68596200D03*
X149275600Y-73646200D03*
%TD*%
D27*
%TO.C,U2*%
X134701200Y-78351400D03*
D19*
X134701200Y-80891400D03*
X134701200Y-83431400D03*
X134701200Y-85971400D03*
X134701200Y-88511400D03*
X134701200Y-91051400D03*
X134701200Y-93591400D03*
X134701200Y-96131400D03*
X134701200Y-98671400D03*
X134701200Y-101211400D03*
X134701200Y-103751400D03*
X134701200Y-106291400D03*
X134701200Y-108831400D03*
X134701200Y-111371400D03*
X142321200Y-111371400D03*
X142321200Y-108831400D03*
X142321200Y-106291400D03*
X142321200Y-103751400D03*
X142321200Y-101211400D03*
X142321200Y-98671400D03*
X142321200Y-96131400D03*
X142321200Y-93591400D03*
X142321200Y-91051400D03*
X142321200Y-88511400D03*
X142321200Y-85971400D03*
X142321200Y-83431400D03*
X142321200Y-80891400D03*
X142321200Y-78351400D03*
%TD*%
D24*
%TO.C,J5*%
X157311000Y-62619500D03*
D25*
X159851000Y-62619500D03*
%TD*%
D17*
%TO.C,R19*%
X115539900Y-105468100D03*
X118639900Y-105468100D03*
%TD*%
D12*
%TO.C,Y2*%
X153001300Y-110501200D03*
X157881300Y-110501200D03*
%TD*%
D28*
%TO.C,C5*%
X159583600Y-115580100D03*
X156458600Y-115580100D03*
%TD*%
D12*
%TO.C,Y1*%
X152976400Y-119755600D03*
X157856400Y-119755600D03*
%TD*%
D29*
%TO.C,U1*%
X169814800Y-111629200D03*
D30*
X168544800Y-111629200D03*
X167274800Y-111629200D03*
%TD*%
D17*
%TO.C,R18*%
X115545200Y-101795800D03*
X118645200Y-101795800D03*
%TD*%
D31*
%TO.C,R5*%
X146060400Y-69117100D03*
X146060400Y-66017100D03*
%TD*%
M02*
