%TF.GenerationSoftware,KiCad,Pcbnew,8.0.1-rc1*%
%TF.CreationDate,2024-06-16T18:46:35-07:00*%
%TF.ProjectId,AMS - CANBus - RGB - Pchannel,414d5320-2d20-4434-914e-427573202d20,rev?*%
%TF.SameCoordinates,Original*%
%TF.FileFunction,Soldermask,Top*%
%TF.FilePolarity,Negative*%
%FSLAX46Y46*%
G04 Gerber Fmt 4.6, Leading zero omitted, Abs format (unit mm)*
G04 Created by KiCad (PCBNEW 8.0.1-rc1) date 2024-06-16 18:46:35*
%MOMM*%
%LPD*%
G01*
G04 APERTURE LIST*
G04 Aperture macros list*
%AMRoundRect*
0 Rectangle with rounded corners*
0 $1 Rounding radius*
0 $2 $3 $4 $5 $6 $7 $8 $9 X,Y pos of 4 corners*
0 Add a 4 corners polygon primitive as box body*
4,1,4,$2,$3,$4,$5,$6,$7,$8,$9,$2,$3,0*
0 Add four circle primitives for the rounded corners*
1,1,$1+$1,$2,$3*
1,1,$1+$1,$4,$5*
1,1,$1+$1,$6,$7*
1,1,$1+$1,$8,$9*
0 Add four rect primitives between the rounded corners*
20,1,$1+$1,$2,$3,$4,$5,0*
20,1,$1+$1,$4,$5,$6,$7,0*
20,1,$1+$1,$6,$7,$8,$9,0*
20,1,$1+$1,$8,$9,$2,$3,0*%
G04 Aperture macros list end*
%ADD10RoundRect,0.250000X-0.412500X-0.650000X0.412500X-0.650000X0.412500X0.650000X-0.412500X0.650000X0*%
%ADD11R,2.085000X2.085000*%
%ADD12C,2.085000*%
%ADD13C,1.600000*%
%ADD14O,1.600000X1.600000*%
%ADD15R,2.200000X2.200000*%
%ADD16O,2.200000X2.200000*%
%ADD17C,2.200000*%
%ADD18R,2.600000X2.600000*%
%ADD19C,2.600000*%
%ADD20R,1.700000X1.700000*%
%ADD21O,1.700000X1.700000*%
%ADD22C,2.400000*%
%ADD23R,1.000000X3.150000*%
%ADD24R,1.600000X1.600000*%
%ADD25R,1.920000X1.920000*%
%ADD26C,1.920000*%
%ADD27C,1.500000*%
%ADD28R,1.500000X1.500000*%
%ADD29RoundRect,0.250000X0.412500X0.650000X-0.412500X0.650000X-0.412500X-0.650000X0.412500X-0.650000X0*%
G04 APERTURE END LIST*
D10*
%TO.C,C3*%
X151260700Y-117190800D03*
X154385700Y-117190800D03*
%TD*%
D11*
%TO.C,Q3*%
X155667500Y-86019300D03*
D12*
X158207500Y-86019300D03*
X160747500Y-86019300D03*
%TD*%
D11*
%TO.C,Q5*%
X155667500Y-77526300D03*
D12*
X158207500Y-77526300D03*
X160747500Y-77526300D03*
%TD*%
D13*
%TO.C,R7*%
X139116100Y-58260700D03*
D14*
X141656100Y-58260700D03*
%TD*%
D15*
%TO.C,D2*%
X177549500Y-76634500D03*
D16*
X167389500Y-76634500D03*
%TD*%
D15*
%TO.C,J1*%
X154748000Y-66384800D03*
D17*
X154748000Y-63844800D03*
X154748000Y-61304800D03*
X154748000Y-58764800D03*
%TD*%
D18*
%TO.C,J2*%
X171594600Y-102105600D03*
D19*
X171594600Y-97025600D03*
X171594600Y-91945600D03*
X171594600Y-86865600D03*
X171594600Y-81785600D03*
%TD*%
D13*
%TO.C,NTC1*%
X135965600Y-94809500D03*
D14*
X135965600Y-97349500D03*
%TD*%
D15*
%TO.C,D6*%
X163712200Y-80926100D03*
D16*
X153552200Y-80926100D03*
%TD*%
D15*
%TO.C,D3*%
X163712200Y-106759100D03*
D16*
X153552200Y-106759100D03*
%TD*%
D20*
%TO.C,J3*%
X146254600Y-120744200D03*
D21*
X143714600Y-120744200D03*
X141174600Y-120744200D03*
X138634600Y-120744200D03*
X136094600Y-120744200D03*
X133554600Y-120744200D03*
%TD*%
D22*
%TO.C,U5*%
X134999500Y-70018000D03*
X134999500Y-73418000D03*
X125079500Y-70018000D03*
X125079500Y-73418000D03*
%TD*%
D15*
%TO.C,D5*%
X163712200Y-89328000D03*
D16*
X153552200Y-89328000D03*
%TD*%
D13*
%TO.C,R6*%
X163265200Y-72479500D03*
D14*
X160725200Y-72479500D03*
%TD*%
D20*
%TO.C,Powerboard1*%
X130976300Y-92602600D03*
D21*
X130976300Y-90062600D03*
X130976300Y-87522600D03*
%TD*%
D23*
%TO.C,J4*%
X148585100Y-70282000D03*
X148585100Y-75332000D03*
X146045100Y-70282000D03*
X146045100Y-75332000D03*
X143505100Y-70282000D03*
X143505100Y-75332000D03*
%TD*%
D24*
%TO.C,U2*%
X140929500Y-81761800D03*
D14*
X140929500Y-84301800D03*
X140929500Y-86841800D03*
X140929500Y-89381800D03*
X140929500Y-91921800D03*
X140929500Y-94461800D03*
X140929500Y-97001800D03*
X140929500Y-99541800D03*
X140929500Y-102081800D03*
X140929500Y-104621800D03*
X140929500Y-107161800D03*
X140929500Y-109701800D03*
X140929500Y-112241800D03*
X140929500Y-114781800D03*
X148549500Y-114781800D03*
X148549500Y-112241800D03*
X148549500Y-109701800D03*
X148549500Y-107161800D03*
X148549500Y-104621800D03*
X148549500Y-102081800D03*
X148549500Y-99541800D03*
X148549500Y-97001800D03*
X148549500Y-94461800D03*
X148549500Y-91921800D03*
X148549500Y-89381800D03*
X148549500Y-86841800D03*
X148549500Y-84301800D03*
X148549500Y-81761800D03*
%TD*%
D20*
%TO.C,J5*%
X139049600Y-61738500D03*
D21*
X141589600Y-61738500D03*
%TD*%
D25*
%TO.C,Q1*%
X136586000Y-84423600D03*
D26*
X136586000Y-81883600D03*
X136586000Y-79343600D03*
%TD*%
D27*
%TO.C,Y2*%
X153203400Y-112099600D03*
X158083400Y-112099600D03*
%TD*%
D15*
%TO.C,D4*%
X163712200Y-98155100D03*
D16*
X153552200Y-98155100D03*
%TD*%
D28*
%TO.C,Reset1*%
X135385300Y-113752500D03*
D27*
X128885300Y-113752500D03*
X135385300Y-109252500D03*
X128885300Y-109252500D03*
%TD*%
D29*
%TO.C,C5*%
X159785700Y-117178500D03*
X156660700Y-117178500D03*
%TD*%
D27*
%TO.C,Y1*%
X153178500Y-121354000D03*
X158058500Y-121354000D03*
%TD*%
D11*
%TO.C,Q2*%
X155667500Y-103267000D03*
D12*
X158207500Y-103267000D03*
X160747500Y-103267000D03*
%TD*%
D11*
%TO.C,Q4*%
X155667500Y-94673500D03*
D12*
X158207500Y-94673500D03*
X160747500Y-94673500D03*
%TD*%
M02*
