M48
INCH
T1C0.0118
T2C0.0315
T3C0.0394
T4C0.0433
T5C0.0504
T6C0.0512
T7C0.0547
T8C0.0630
%
G90
G05
T1
X5.0464Y-3.4384
X5.2019Y-3.4834
X5.203Y-4.3269
X5.4213Y-3.9934
X5.4215Y-4.0906
X5.4454Y-3.6632
X5.484Y-3.876
X5.6161Y-3.7782
X5.6896Y-2.7723
X5.7085Y-4.0397
X5.7577Y-4.1626
X5.7811Y-2.846
X5.7818Y-2.8869
X5.9028Y-4.0106
X5.9159Y-3.6639
X5.9181Y-3.8671
X5.9327Y-3.6158
X5.963Y-4.176
X5.9642Y-4.1342
X6.038Y-2.9042
X6.0767Y-4.6162
X6.1565Y-2.617
X6.1802Y-2.6605
X6.3302Y-2.6605
X6.4393Y-2.9878
X6.5652Y-2.8255
X6.5663Y-2.7761
X6.7371Y-2.9395
X6.7531Y-3.0536
X7.2176Y-3.1805
X7.2176Y-3.0592
T2
X5.353Y-3.7327
X5.353Y-3.8327
X5.477Y-2.2937
X5.5484Y-3.219
X5.5484Y-3.319
X5.5484Y-3.419
X5.5484Y-3.519
X5.5484Y-3.619
X5.5484Y-3.719
X5.5484Y-3.819
X5.5484Y-3.919
X5.5484Y-4.019
X5.5484Y-4.119
X5.5484Y-4.219
X5.5484Y-4.319
X5.5484Y-4.419
X5.5484Y-4.519
X5.577Y-2.2937
X5.8484Y-3.219
X5.8484Y-3.319
X5.8484Y-3.419
X5.8484Y-3.519
X5.8484Y-3.619
X5.8484Y-3.719
X5.8484Y-3.819
X5.8484Y-3.919
X5.8484Y-4.019
X5.8484Y-4.119
X5.8484Y-4.219
X5.8484Y-4.319
X5.8484Y-4.419
X5.8484Y-4.519
X6.0306Y-4.7777
X6.0316Y-4.4134
X6.2228Y-4.7777
X6.2238Y-4.4134
X6.3278Y-2.8535
X6.4278Y-2.8535
T3
X5.0742Y-4.3013
X5.0742Y-4.4784
X5.1565Y-3.4458
X5.1565Y-3.5458
X5.1565Y-3.6458
X5.2581Y-4.7537
X5.3301Y-4.3013
X5.3301Y-4.4784
X5.3581Y-4.7537
X5.4581Y-4.7537
X5.4744Y-2.4306
X5.5581Y-4.7537
X5.5744Y-2.4306
X5.6581Y-4.7537
X5.7581Y-4.7537
T4
X6.0454Y-3.1861
X6.0454Y-3.5169
X6.0454Y-3.8644
X6.0454Y-4.2031
X6.0924Y-2.3136
X6.0924Y-2.4136
X6.0924Y-2.5136
X6.0924Y-2.6136
X6.4454Y-3.1861
X6.4454Y-3.5169
X6.4454Y-3.8644
X6.4454Y-4.2031
X6.5901Y-3.0171
X6.9901Y-3.0171
T5
X5.3774Y-3.1238
X5.3774Y-3.2238
X5.3774Y-3.3238
T6
X6.7557Y-3.2199
X6.7557Y-3.4199
X6.7557Y-3.6199
X6.7557Y-3.8199
X6.7557Y-4.0199
T7
X6.1286Y-3.0522
X6.1286Y-3.3866
X6.1286Y-3.7273
X6.1286Y-4.0656
X6.2286Y-3.0522
X6.2286Y-3.3866
X6.2286Y-3.7273
X6.2286Y-4.0656
X6.3286Y-3.0522
X6.3286Y-3.3866
X6.3286Y-3.7273
X6.3286Y-4.0656
T8
X4.9244Y-2.7566
X4.9244Y-2.8905
X5.3149Y-2.7566
X5.3149Y-2.8905
M30
