%TF.GenerationSoftware,KiCad,Pcbnew,8.0.1-rc1*%
%TF.CreationDate,2024-06-22T18:19:48-07:00*%
%TF.ProjectId,AMS - CANBus - RGB - Pchannel,414d5320-2d20-4434-914e-427573202d20,rev?*%
%TF.SameCoordinates,Original*%
%TF.FileFunction,Paste,Bot*%
%TF.FilePolarity,Positive*%
%FSLAX46Y46*%
G04 Gerber Fmt 4.6, Leading zero omitted, Abs format (unit mm)*
G04 Created by KiCad (PCBNEW 8.0.1-rc1) date 2024-06-22 18:19:48*
%MOMM*%
%LPD*%
G01*
G04 APERTURE LIST*
G04 Aperture macros list*
%AMRoundRect*
0 Rectangle with rounded corners*
0 $1 Rounding radius*
0 $2 $3 $4 $5 $6 $7 $8 $9 X,Y pos of 4 corners*
0 Add a 4 corners polygon primitive as box body*
4,1,4,$2,$3,$4,$5,$6,$7,$8,$9,$2,$3,0*
0 Add four circle primitives for the rounded corners*
1,1,$1+$1,$2,$3*
1,1,$1+$1,$4,$5*
1,1,$1+$1,$6,$7*
1,1,$1+$1,$8,$9*
0 Add four rect primitives between the rounded corners*
20,1,$1+$1,$2,$3,$4,$5,0*
20,1,$1+$1,$4,$5,$6,$7,0*
20,1,$1+$1,$6,$7,$8,$9,0*
20,1,$1+$1,$8,$9,$2,$3,0*%
G04 Aperture macros list end*
%ADD10RoundRect,0.250000X-0.400000X-0.625000X0.400000X-0.625000X0.400000X0.625000X-0.400000X0.625000X0*%
%ADD11RoundRect,0.250000X-0.412500X-0.650000X0.412500X-0.650000X0.412500X0.650000X-0.412500X0.650000X0*%
%ADD12RoundRect,0.150000X0.825000X0.150000X-0.825000X0.150000X-0.825000X-0.150000X0.825000X-0.150000X0*%
%ADD13RoundRect,0.250000X0.400000X0.625000X-0.400000X0.625000X-0.400000X-0.625000X0.400000X-0.625000X0*%
%ADD14RoundRect,0.250000X-0.625000X0.400000X-0.625000X-0.400000X0.625000X-0.400000X0.625000X0.400000X0*%
%ADD15RoundRect,0.250000X0.412500X0.650000X-0.412500X0.650000X-0.412500X-0.650000X0.412500X-0.650000X0*%
%ADD16RoundRect,0.150000X0.875000X0.150000X-0.875000X0.150000X-0.875000X-0.150000X0.875000X-0.150000X0*%
%ADD17RoundRect,0.250000X0.625000X-0.400000X0.625000X0.400000X-0.625000X0.400000X-0.625000X-0.400000X0*%
%ADD18RoundRect,0.150000X0.150000X-0.587500X0.150000X0.587500X-0.150000X0.587500X-0.150000X-0.587500X0*%
%ADD19R,1.000000X0.550000*%
G04 APERTURE END LIST*
D10*
%TO.C,R12*%
X150432000Y-94641200D03*
X153532000Y-94641200D03*
%TD*%
%TO.C,R14*%
X150286100Y-78257000D03*
X153386100Y-78257000D03*
%TD*%
D11*
%TO.C,C2*%
X151273200Y-117184300D03*
X154398200Y-117184300D03*
%TD*%
D12*
%TO.C,U4*%
X171716100Y-69250200D03*
X171716100Y-70520200D03*
X171716100Y-71790200D03*
X171716100Y-73060200D03*
X166766100Y-73060200D03*
X166766100Y-71790200D03*
X166766100Y-70520200D03*
X166766100Y-69250200D03*
%TD*%
D13*
%TO.C,R1*%
X131364300Y-81129300D03*
X128264300Y-81129300D03*
%TD*%
D14*
%TO.C,R4*%
X132096400Y-109912300D03*
X132096400Y-113012300D03*
%TD*%
D15*
%TO.C,C4*%
X159775700Y-117159400D03*
X156650700Y-117159400D03*
%TD*%
D16*
%TO.C,U3*%
X151455100Y-65127000D03*
X151455100Y-66397000D03*
X151455100Y-67667000D03*
X151455100Y-68937000D03*
X151455100Y-70207000D03*
X151455100Y-71477000D03*
X151455100Y-72747000D03*
X151455100Y-74017000D03*
X151455100Y-75287000D03*
X142155100Y-75287000D03*
X142155100Y-74017000D03*
X142155100Y-72747000D03*
X142155100Y-71477000D03*
X142155100Y-70207000D03*
X142155100Y-68937000D03*
X142155100Y-67667000D03*
X142155100Y-66397000D03*
X142155100Y-65127000D03*
%TD*%
D17*
%TO.C,R5*%
X144703000Y-87196800D03*
X144703000Y-84096800D03*
%TD*%
D14*
%TO.C,R3*%
X135973000Y-89148700D03*
X135973000Y-92248700D03*
%TD*%
D10*
%TO.C,R15*%
X155078400Y-74588600D03*
X158178400Y-74588600D03*
%TD*%
D15*
%TO.C,C1*%
X138717100Y-117199700D03*
X135592100Y-117199700D03*
%TD*%
D14*
%TO.C,R22*%
X164877800Y-75106900D03*
X164877800Y-78206900D03*
%TD*%
%TO.C,R2*%
X144995600Y-99509000D03*
X144995600Y-102609000D03*
%TD*%
D10*
%TO.C,R9*%
X150435600Y-103290900D03*
X153535600Y-103290900D03*
%TD*%
%TO.C,R8*%
X155140600Y-100938400D03*
X158240600Y-100938400D03*
%TD*%
%TO.C,R13*%
X155124400Y-92187700D03*
X158224400Y-92187700D03*
%TD*%
%TO.C,R10*%
X150425900Y-85967900D03*
X153525900Y-85967900D03*
%TD*%
%TO.C,R11*%
X155093900Y-83665700D03*
X158193900Y-83665700D03*
%TD*%
D14*
%TO.C,C8*%
X183352783Y-77705903D03*
X183352783Y-80805903D03*
%TD*%
D18*
%TO.C,Q10*%
X173419500Y-77572000D03*
X171519500Y-77572000D03*
X172469500Y-75697000D03*
%TD*%
D15*
%TO.C,C7*%
X137705500Y-103901700D03*
X134580500Y-103901700D03*
%TD*%
D19*
%TO.C,D1*%
X162831900Y-68594100D03*
X162831900Y-69894100D03*
X160931900Y-69244100D03*
%TD*%
D15*
%TO.C,C6*%
X137701800Y-101431800D03*
X134576800Y-101431800D03*
%TD*%
M02*
