%TF.GenerationSoftware,KiCad,Pcbnew,8.0.1-rc1*%
%TF.CreationDate,2024-06-22T18:19:48-07:00*%
%TF.ProjectId,AMS - CANBus - RGB - Pchannel,414d5320-2d20-4434-914e-427573202d20,rev?*%
%TF.SameCoordinates,Original*%
%TF.FileFunction,Soldermask,Bot*%
%TF.FilePolarity,Negative*%
%FSLAX46Y46*%
G04 Gerber Fmt 4.6, Leading zero omitted, Abs format (unit mm)*
G04 Created by KiCad (PCBNEW 8.0.1-rc1) date 2024-06-22 18:19:48*
%MOMM*%
%LPD*%
G01*
G04 APERTURE LIST*
G04 Aperture macros list*
%AMRoundRect*
0 Rectangle with rounded corners*
0 $1 Rounding radius*
0 $2 $3 $4 $5 $6 $7 $8 $9 X,Y pos of 4 corners*
0 Add a 4 corners polygon primitive as box body*
4,1,4,$2,$3,$4,$5,$6,$7,$8,$9,$2,$3,0*
0 Add four circle primitives for the rounded corners*
1,1,$1+$1,$2,$3*
1,1,$1+$1,$4,$5*
1,1,$1+$1,$6,$7*
1,1,$1+$1,$8,$9*
0 Add four rect primitives between the rounded corners*
20,1,$1+$1,$2,$3,$4,$5,0*
20,1,$1+$1,$4,$5,$6,$7,0*
20,1,$1+$1,$6,$7,$8,$9,0*
20,1,$1+$1,$8,$9,$2,$3,0*%
G04 Aperture macros list end*
%ADD10R,2.085000X2.085000*%
%ADD11C,2.085000*%
%ADD12C,1.600000*%
%ADD13O,1.600000X1.600000*%
%ADD14R,2.200000X2.200000*%
%ADD15O,2.200000X2.200000*%
%ADD16C,2.200000*%
%ADD17R,2.600000X2.600000*%
%ADD18C,2.600000*%
%ADD19R,1.700000X1.700000*%
%ADD20O,1.700000X1.700000*%
%ADD21C,2.400000*%
%ADD22R,1.600000X1.600000*%
%ADD23R,1.920000X1.920000*%
%ADD24C,1.920000*%
%ADD25C,1.500000*%
%ADD26R,1.500000X1.500000*%
%ADD27RoundRect,0.250000X-0.400000X-0.625000X0.400000X-0.625000X0.400000X0.625000X-0.400000X0.625000X0*%
%ADD28RoundRect,0.250000X-0.412500X-0.650000X0.412500X-0.650000X0.412500X0.650000X-0.412500X0.650000X0*%
%ADD29RoundRect,0.150000X0.825000X0.150000X-0.825000X0.150000X-0.825000X-0.150000X0.825000X-0.150000X0*%
%ADD30RoundRect,0.250000X0.400000X0.625000X-0.400000X0.625000X-0.400000X-0.625000X0.400000X-0.625000X0*%
%ADD31RoundRect,0.250000X-0.625000X0.400000X-0.625000X-0.400000X0.625000X-0.400000X0.625000X0.400000X0*%
%ADD32RoundRect,0.250000X0.412500X0.650000X-0.412500X0.650000X-0.412500X-0.650000X0.412500X-0.650000X0*%
%ADD33RoundRect,0.150000X0.875000X0.150000X-0.875000X0.150000X-0.875000X-0.150000X0.875000X-0.150000X0*%
%ADD34RoundRect,0.250000X0.625000X-0.400000X0.625000X0.400000X-0.625000X0.400000X-0.625000X-0.400000X0*%
%ADD35RoundRect,0.150000X0.150000X-0.587500X0.150000X0.587500X-0.150000X0.587500X-0.150000X-0.587500X0*%
%ADD36R,1.000000X0.550000*%
G04 APERTURE END LIST*
D10*
%TO.C,Q3*%
X155667500Y-86019300D03*
D11*
X158207500Y-86019300D03*
X160747500Y-86019300D03*
%TD*%
D10*
%TO.C,Q5*%
X155667500Y-77526300D03*
D11*
X158207500Y-77526300D03*
X160747500Y-77526300D03*
%TD*%
D12*
%TO.C,R7*%
X139116100Y-58260700D03*
D13*
X141656100Y-58260700D03*
%TD*%
D14*
%TO.C,D2*%
X177549500Y-76634500D03*
D15*
X167389500Y-76634500D03*
%TD*%
D14*
%TO.C,J1*%
X154748000Y-66384800D03*
D16*
X154748000Y-63844800D03*
X154748000Y-61304800D03*
X154748000Y-58764800D03*
%TD*%
D17*
%TO.C,J2*%
X171594600Y-102105600D03*
D18*
X171594600Y-97025600D03*
X171594600Y-91945600D03*
X171594600Y-86865600D03*
X171594600Y-81785600D03*
%TD*%
D12*
%TO.C,NTC1*%
X135965600Y-94809500D03*
D13*
X135965600Y-97349500D03*
%TD*%
D14*
%TO.C,D6*%
X163712200Y-80926100D03*
D15*
X153552200Y-80926100D03*
%TD*%
D14*
%TO.C,D3*%
X163712200Y-106759100D03*
D15*
X153552200Y-106759100D03*
%TD*%
D19*
%TO.C,J3*%
X146254600Y-120744200D03*
D20*
X143714600Y-120744200D03*
X141174600Y-120744200D03*
X138634600Y-120744200D03*
X136094600Y-120744200D03*
X133554600Y-120744200D03*
%TD*%
D21*
%TO.C,U5*%
X134999500Y-70018000D03*
X134999500Y-73418000D03*
X125079500Y-70018000D03*
X125079500Y-73418000D03*
%TD*%
D14*
%TO.C,D5*%
X163712200Y-89328000D03*
D15*
X153552200Y-89328000D03*
%TD*%
D12*
%TO.C,R6*%
X163265200Y-72479500D03*
D13*
X160725200Y-72479500D03*
%TD*%
D19*
%TO.C,Powerboard1*%
X130976300Y-92602600D03*
D20*
X130976300Y-90062600D03*
X130976300Y-87522600D03*
%TD*%
D22*
%TO.C,U2*%
X140929500Y-81761800D03*
D13*
X140929500Y-84301800D03*
X140929500Y-86841800D03*
X140929500Y-89381800D03*
X140929500Y-91921800D03*
X140929500Y-94461800D03*
X140929500Y-97001800D03*
X140929500Y-99541800D03*
X140929500Y-102081800D03*
X140929500Y-104621800D03*
X140929500Y-107161800D03*
X140929500Y-109701800D03*
X140929500Y-112241800D03*
X140929500Y-114781800D03*
X148549500Y-114781800D03*
X148549500Y-112241800D03*
X148549500Y-109701800D03*
X148549500Y-107161800D03*
X148549500Y-104621800D03*
X148549500Y-102081800D03*
X148549500Y-99541800D03*
X148549500Y-97001800D03*
X148549500Y-94461800D03*
X148549500Y-91921800D03*
X148549500Y-89381800D03*
X148549500Y-86841800D03*
X148549500Y-84301800D03*
X148549500Y-81761800D03*
%TD*%
D19*
%TO.C,J5*%
X139049600Y-61738500D03*
D20*
X141589600Y-61738500D03*
%TD*%
D23*
%TO.C,Q1*%
X136586000Y-84423600D03*
D24*
X136586000Y-81883600D03*
X136586000Y-79343600D03*
%TD*%
D25*
%TO.C,Y2*%
X153203400Y-112099600D03*
X158083400Y-112099600D03*
%TD*%
D14*
%TO.C,D4*%
X163712200Y-98155100D03*
D15*
X153552200Y-98155100D03*
%TD*%
D26*
%TO.C,Reset1*%
X135385300Y-113752500D03*
D25*
X128885300Y-113752500D03*
X135385300Y-109252500D03*
X128885300Y-109252500D03*
%TD*%
%TO.C,Y1*%
X153178500Y-121354000D03*
X158058500Y-121354000D03*
%TD*%
D10*
%TO.C,Q2*%
X155667500Y-103267000D03*
D11*
X158207500Y-103267000D03*
X160747500Y-103267000D03*
%TD*%
D10*
%TO.C,Q4*%
X155667500Y-94673500D03*
D11*
X158207500Y-94673500D03*
X160747500Y-94673500D03*
%TD*%
D27*
%TO.C,R12*%
X150432000Y-94641200D03*
X153532000Y-94641200D03*
%TD*%
%TO.C,R14*%
X150286100Y-78257000D03*
X153386100Y-78257000D03*
%TD*%
D28*
%TO.C,C2*%
X151273200Y-117184300D03*
X154398200Y-117184300D03*
%TD*%
D29*
%TO.C,U4*%
X171716100Y-69250200D03*
X171716100Y-70520200D03*
X171716100Y-71790200D03*
X171716100Y-73060200D03*
X166766100Y-73060200D03*
X166766100Y-71790200D03*
X166766100Y-70520200D03*
X166766100Y-69250200D03*
%TD*%
D30*
%TO.C,R1*%
X131364300Y-81129300D03*
X128264300Y-81129300D03*
%TD*%
D31*
%TO.C,R4*%
X132096400Y-109912300D03*
X132096400Y-113012300D03*
%TD*%
D32*
%TO.C,C4*%
X159775700Y-117159400D03*
X156650700Y-117159400D03*
%TD*%
D33*
%TO.C,U3*%
X151455100Y-65127000D03*
X151455100Y-66397000D03*
X151455100Y-67667000D03*
X151455100Y-68937000D03*
X151455100Y-70207000D03*
X151455100Y-71477000D03*
X151455100Y-72747000D03*
X151455100Y-74017000D03*
X151455100Y-75287000D03*
X142155100Y-75287000D03*
X142155100Y-74017000D03*
X142155100Y-72747000D03*
X142155100Y-71477000D03*
X142155100Y-70207000D03*
X142155100Y-68937000D03*
X142155100Y-67667000D03*
X142155100Y-66397000D03*
X142155100Y-65127000D03*
%TD*%
D34*
%TO.C,R5*%
X144703000Y-87196800D03*
X144703000Y-84096800D03*
%TD*%
D31*
%TO.C,R3*%
X135973000Y-89148700D03*
X135973000Y-92248700D03*
%TD*%
D27*
%TO.C,R15*%
X155078400Y-74588600D03*
X158178400Y-74588600D03*
%TD*%
D32*
%TO.C,C1*%
X138717100Y-117199700D03*
X135592100Y-117199700D03*
%TD*%
D31*
%TO.C,R22*%
X164877800Y-75106900D03*
X164877800Y-78206900D03*
%TD*%
%TO.C,R2*%
X144995600Y-99509000D03*
X144995600Y-102609000D03*
%TD*%
D27*
%TO.C,R9*%
X150435600Y-103290900D03*
X153535600Y-103290900D03*
%TD*%
%TO.C,R8*%
X155140600Y-100938400D03*
X158240600Y-100938400D03*
%TD*%
%TO.C,R13*%
X155124400Y-92187700D03*
X158224400Y-92187700D03*
%TD*%
%TO.C,R10*%
X150425900Y-85967900D03*
X153525900Y-85967900D03*
%TD*%
%TO.C,R11*%
X155093900Y-83665700D03*
X158193900Y-83665700D03*
%TD*%
D31*
%TO.C,C8*%
X183352783Y-77705903D03*
X183352783Y-80805903D03*
%TD*%
D35*
%TO.C,Q10*%
X173419500Y-77572000D03*
X171519500Y-77572000D03*
X172469500Y-75697000D03*
%TD*%
D32*
%TO.C,C7*%
X137705500Y-103901700D03*
X134580500Y-103901700D03*
%TD*%
D36*
%TO.C,D1*%
X162831900Y-68594100D03*
X162831900Y-69894100D03*
X160931900Y-69244100D03*
%TD*%
D32*
%TO.C,C6*%
X137701800Y-101431800D03*
X134576800Y-101431800D03*
%TD*%
M02*
