%TF.GenerationSoftware,KiCad,Pcbnew,8.0.1-rc1*%
%TF.CreationDate,2024-06-16T18:46:35-07:00*%
%TF.ProjectId,AMS - CANBus - RGB - Pchannel,414d5320-2d20-4434-914e-427573202d20,rev?*%
%TF.SameCoordinates,Original*%
%TF.FileFunction,Copper,L2,Bot*%
%TF.FilePolarity,Positive*%
%FSLAX46Y46*%
G04 Gerber Fmt 4.6, Leading zero omitted, Abs format (unit mm)*
G04 Created by KiCad (PCBNEW 8.0.1-rc1) date 2024-06-16 18:46:35*
%MOMM*%
%LPD*%
G01*
G04 APERTURE LIST*
G04 Aperture macros list*
%AMRoundRect*
0 Rectangle with rounded corners*
0 $1 Rounding radius*
0 $2 $3 $4 $5 $6 $7 $8 $9 X,Y pos of 4 corners*
0 Add a 4 corners polygon primitive as box body*
4,1,4,$2,$3,$4,$5,$6,$7,$8,$9,$2,$3,0*
0 Add four circle primitives for the rounded corners*
1,1,$1+$1,$2,$3*
1,1,$1+$1,$4,$5*
1,1,$1+$1,$6,$7*
1,1,$1+$1,$8,$9*
0 Add four rect primitives between the rounded corners*
20,1,$1+$1,$2,$3,$4,$5,0*
20,1,$1+$1,$4,$5,$6,$7,0*
20,1,$1+$1,$6,$7,$8,$9,0*
20,1,$1+$1,$8,$9,$2,$3,0*%
G04 Aperture macros list end*
%TA.AperFunction,ComponentPad*%
%ADD10R,2.085000X2.085000*%
%TD*%
%TA.AperFunction,ComponentPad*%
%ADD11C,2.085000*%
%TD*%
%TA.AperFunction,ComponentPad*%
%ADD12C,1.600000*%
%TD*%
%TA.AperFunction,ComponentPad*%
%ADD13O,1.600000X1.600000*%
%TD*%
%TA.AperFunction,ComponentPad*%
%ADD14R,2.200000X2.200000*%
%TD*%
%TA.AperFunction,ComponentPad*%
%ADD15O,2.200000X2.200000*%
%TD*%
%TA.AperFunction,ComponentPad*%
%ADD16C,2.200000*%
%TD*%
%TA.AperFunction,ComponentPad*%
%ADD17R,2.600000X2.600000*%
%TD*%
%TA.AperFunction,ComponentPad*%
%ADD18C,2.600000*%
%TD*%
%TA.AperFunction,ComponentPad*%
%ADD19R,1.700000X1.700000*%
%TD*%
%TA.AperFunction,ComponentPad*%
%ADD20O,1.700000X1.700000*%
%TD*%
%TA.AperFunction,ComponentPad*%
%ADD21C,2.400000*%
%TD*%
%TA.AperFunction,ComponentPad*%
%ADD22R,1.600000X1.600000*%
%TD*%
%TA.AperFunction,ComponentPad*%
%ADD23R,1.920000X1.920000*%
%TD*%
%TA.AperFunction,ComponentPad*%
%ADD24C,1.920000*%
%TD*%
%TA.AperFunction,ComponentPad*%
%ADD25C,1.500000*%
%TD*%
%TA.AperFunction,ComponentPad*%
%ADD26R,1.500000X1.500000*%
%TD*%
%TA.AperFunction,SMDPad,CuDef*%
%ADD27RoundRect,0.250000X-0.625000X0.400000X-0.625000X-0.400000X0.625000X-0.400000X0.625000X0.400000X0*%
%TD*%
%TA.AperFunction,SMDPad,CuDef*%
%ADD28RoundRect,0.250000X-0.400000X-0.625000X0.400000X-0.625000X0.400000X0.625000X-0.400000X0.625000X0*%
%TD*%
%TA.AperFunction,SMDPad,CuDef*%
%ADD29RoundRect,0.250000X-0.412500X-0.650000X0.412500X-0.650000X0.412500X0.650000X-0.412500X0.650000X0*%
%TD*%
%TA.AperFunction,SMDPad,CuDef*%
%ADD30RoundRect,0.150000X0.825000X0.150000X-0.825000X0.150000X-0.825000X-0.150000X0.825000X-0.150000X0*%
%TD*%
%TA.AperFunction,SMDPad,CuDef*%
%ADD31RoundRect,0.250000X0.400000X0.625000X-0.400000X0.625000X-0.400000X-0.625000X0.400000X-0.625000X0*%
%TD*%
%TA.AperFunction,SMDPad,CuDef*%
%ADD32RoundRect,0.250000X0.412500X0.650000X-0.412500X0.650000X-0.412500X-0.650000X0.412500X-0.650000X0*%
%TD*%
%TA.AperFunction,SMDPad,CuDef*%
%ADD33RoundRect,0.150000X0.875000X0.150000X-0.875000X0.150000X-0.875000X-0.150000X0.875000X-0.150000X0*%
%TD*%
%TA.AperFunction,SMDPad,CuDef*%
%ADD34RoundRect,0.250000X0.625000X-0.400000X0.625000X0.400000X-0.625000X0.400000X-0.625000X-0.400000X0*%
%TD*%
%TA.AperFunction,SMDPad,CuDef*%
%ADD35RoundRect,0.150000X0.150000X-0.587500X0.150000X0.587500X-0.150000X0.587500X-0.150000X-0.587500X0*%
%TD*%
%TA.AperFunction,SMDPad,CuDef*%
%ADD36R,1.000000X0.550000*%
%TD*%
%TA.AperFunction,ViaPad*%
%ADD37C,0.600000*%
%TD*%
%TA.AperFunction,Conductor*%
%ADD38C,0.381000*%
%TD*%
%TA.AperFunction,Conductor*%
%ADD39C,1.016000*%
%TD*%
%TA.AperFunction,Conductor*%
%ADD40C,0.889000*%
%TD*%
%TA.AperFunction,Conductor*%
%ADD41C,0.200000*%
%TD*%
%TA.AperFunction,Conductor*%
%ADD42C,0.508000*%
%TD*%
G04 APERTURE END LIST*
D10*
%TO.P,Q3,1*%
%TO.N,Net-(Q3-Pad1)*%
X155667500Y-86019300D03*
D11*
%TO.P,Q3,2*%
%TO.N,GND*%
X158207500Y-86019300D03*
%TO.P,Q3,3*%
%TO.N,/OutputGNDPChannel/OUT3*%
X160747500Y-86019300D03*
%TD*%
D10*
%TO.P,Q5,1*%
%TO.N,Net-(Q5-Pad1)*%
X155667500Y-77526300D03*
D11*
%TO.P,Q5,2*%
%TO.N,GND*%
X158207500Y-77526300D03*
%TO.P,Q5,3*%
%TO.N,/OutputGNDPChannel/OUT4*%
X160747500Y-77526300D03*
%TD*%
D12*
%TO.P,R7,1*%
%TO.N,Net-(J5-Pin_2)*%
X139116100Y-58260700D03*
D13*
%TO.P,R7,2*%
%TO.N,CANBUS_L*%
X141656100Y-58260700D03*
%TD*%
D14*
%TO.P,D2,1,K*%
%TO.N,Net-(D2-K)*%
X177549500Y-76634500D03*
D15*
%TO.P,D2,2,A*%
%TO.N,/BareMinAtmel328P/PD4-D4*%
X167389500Y-76634500D03*
%TD*%
D14*
%TO.P,J1,1,Pin_1*%
%TO.N,Net-(J1-Pin_1)*%
X154748000Y-66384800D03*
D16*
%TO.P,J1,2,Pin_2*%
%TO.N,GND*%
X154748000Y-63844800D03*
%TO.P,J1,3,Pin_3*%
%TO.N,CANBUS_H*%
X154748000Y-61304800D03*
%TO.P,J1,4,Pin_4*%
%TO.N,CANBUS_L*%
X154748000Y-58764800D03*
%TD*%
D17*
%TO.P,J2,1,Pin_1*%
%TO.N,/OutputGNDPChannel/OUT1*%
X171594600Y-102105600D03*
D18*
%TO.P,J2,2,Pin_2*%
%TO.N,/OutputGNDPChannel/OUT2*%
X171594600Y-97025600D03*
%TO.P,J2,3,Pin_3*%
%TO.N,/OutputGNDPChannel/OUT3*%
X171594600Y-91945600D03*
%TO.P,J2,4,Pin_4*%
%TO.N,/OutputGNDPChannel/OUT4*%
X171594600Y-86865600D03*
%TO.P,J2,5,Pin_5*%
%TO.N,Net-(J2-Pin_5)*%
X171594600Y-81785600D03*
%TD*%
D12*
%TO.P,NTC1,1*%
%TO.N,/BareMinAtmel328P/PC0-A0*%
X135965600Y-94809500D03*
D13*
%TO.P,NTC1,2*%
%TO.N,+5V*%
X135965600Y-97349500D03*
%TD*%
D14*
%TO.P,D6,1,K*%
%TO.N,/OutputGNDPChannel/OUT4*%
X163712200Y-80926100D03*
D15*
%TO.P,D6,2,A*%
%TO.N,GND*%
X153552200Y-80926100D03*
%TD*%
D14*
%TO.P,D3,1,K*%
%TO.N,/OutputGNDPChannel/OUT1*%
X163712200Y-106759100D03*
D15*
%TO.P,D3,2,A*%
%TO.N,GND*%
X153552200Y-106759100D03*
%TD*%
D19*
%TO.P,J3,1,Pin_1*%
%TO.N,GND*%
X146254600Y-120744200D03*
D20*
%TO.P,J3,2,Pin_2*%
%TO.N,unconnected-(J3-Pin_2-Pad2)*%
X143714600Y-120744200D03*
%TO.P,J3,3,Pin_3*%
%TO.N,+5V*%
X141174600Y-120744200D03*
%TO.P,J3,4,Pin_4*%
%TO.N,/BareMinAtmel328P/PD0-RX*%
X138634600Y-120744200D03*
%TO.P,J3,5,Pin_5*%
%TO.N,/BareMinAtmel328P/PD1-TX*%
X136094600Y-120744200D03*
%TO.P,J3,6,Pin_6*%
%TO.N,Net-(J3-Pin_6)*%
X133554600Y-120744200D03*
%TD*%
D21*
%TO.P,U5,1,1*%
%TO.N,Net-(Q1-Pad3)*%
X134999500Y-70018000D03*
%TO.P,U5,2,2*%
X134999500Y-73418000D03*
%TO.P,U5,3,3*%
%TO.N,+VDC*%
X125079500Y-70018000D03*
%TO.P,U5,4,4*%
X125079500Y-73418000D03*
%TD*%
D14*
%TO.P,D5,1,K*%
%TO.N,/OutputGNDPChannel/OUT3*%
X163712200Y-89328000D03*
D15*
%TO.P,D5,2,A*%
%TO.N,GND*%
X153552200Y-89328000D03*
%TD*%
D12*
%TO.P,R6,1*%
%TO.N,Net-(U4-Rs)*%
X163265200Y-72479500D03*
D13*
%TO.P,R6,2*%
%TO.N,GND*%
X160725200Y-72479500D03*
%TD*%
D19*
%TO.P,Powerboard1,1,Pin_1*%
%TO.N,+VDC*%
X130976300Y-92602600D03*
D20*
%TO.P,Powerboard1,2,Pin_2*%
%TO.N,+5V*%
X130976300Y-90062600D03*
%TO.P,Powerboard1,3,Pin_3*%
%TO.N,GND*%
X130976300Y-87522600D03*
%TD*%
D22*
%TO.P,U2,1,~{RESET}/PC6*%
%TO.N,/BareMinAtmel328P/RESET*%
X140929500Y-81761800D03*
D13*
%TO.P,U2,2,PD0*%
%TO.N,/BareMinAtmel328P/PD0-RX*%
X140929500Y-84301800D03*
%TO.P,U2,3,PD1*%
%TO.N,/BareMinAtmel328P/PD1-TX*%
X140929500Y-86841800D03*
%TO.P,U2,4,PD2*%
%TO.N,/BareMinAtmel328P/PD2-D2*%
X140929500Y-89381800D03*
%TO.P,U2,5,PD3*%
%TO.N,/BareMinAtmel328P/PD3-D3*%
X140929500Y-91921800D03*
%TO.P,U2,6,PD4*%
%TO.N,/BareMinAtmel328P/PD4-D4*%
X140929500Y-94461800D03*
%TO.P,U2,7,VCC*%
%TO.N,+5V*%
X140929500Y-97001800D03*
%TO.P,U2,8,GND*%
%TO.N,GND*%
X140929500Y-99541800D03*
%TO.P,U2,9,XTAL1/PB6*%
%TO.N,Net-(U2-XTAL1{slash}PB6)*%
X140929500Y-102081800D03*
%TO.P,U2,10,XTAL2/PB7*%
%TO.N,Net-(U2-XTAL2{slash}PB7)*%
X140929500Y-104621800D03*
%TO.P,U2,11,PD5*%
%TO.N,/BareMinAtmel328P/PD5-D5*%
X140929500Y-107161800D03*
%TO.P,U2,12,PD6*%
%TO.N,/BareMinAtmel328P/PD6-D6*%
X140929500Y-109701800D03*
%TO.P,U2,13,PD7*%
%TO.N,/BareMinAtmel328P/PD7-D7*%
X140929500Y-112241800D03*
%TO.P,U2,14,PB0*%
%TO.N,/BareMinAtmel328P/PB0-D8*%
X140929500Y-114781800D03*
%TO.P,U2,15,PB1*%
%TO.N,/BareMinAtmel328P/PB1-D9*%
X148549500Y-114781800D03*
%TO.P,U2,16,PB2*%
%TO.N,/BareMinAtmel328P/PB2-D10-SS*%
X148549500Y-112241800D03*
%TO.P,U2,17,PB3*%
%TO.N,/BareMinAtmel328P/PB3-D11-MOSI*%
X148549500Y-109701800D03*
%TO.P,U2,18,PB4*%
%TO.N,/BareMinAtmel328P/PB4-D12-MISO*%
X148549500Y-107161800D03*
%TO.P,U2,19,PB5*%
%TO.N,/BareMinAtmel328P/PB5-D13-SCK*%
X148549500Y-104621800D03*
%TO.P,U2,20,AVCC*%
%TO.N,+5V*%
X148549500Y-102081800D03*
%TO.P,U2,21,AREF*%
%TO.N,/BareMinAtmel328P/AREF*%
X148549500Y-99541800D03*
%TO.P,U2,22,GND*%
%TO.N,GND*%
X148549500Y-97001800D03*
%TO.P,U2,23,PC0*%
%TO.N,/BareMinAtmel328P/PC0-A0*%
X148549500Y-94461800D03*
%TO.P,U2,24,PC1*%
%TO.N,/BareMinAtmel328P/PC1-A1*%
X148549500Y-91921800D03*
%TO.P,U2,25,PC2*%
%TO.N,/BareMinAtmel328P/PC2-A2*%
X148549500Y-89381800D03*
%TO.P,U2,26,PC3*%
%TO.N,/BareMinAtmel328P/PC3-A3*%
X148549500Y-86841800D03*
%TO.P,U2,27,PC4*%
%TO.N,/BareMinAtmel328P/PC4-A4-SDA*%
X148549500Y-84301800D03*
%TO.P,U2,28,PC5*%
%TO.N,/BareMinAtmel328P/PC5-A5-SCL*%
X148549500Y-81761800D03*
%TD*%
D19*
%TO.P,J5,1,Pin_1*%
%TO.N,CANBUS_H*%
X139049600Y-61738500D03*
D20*
%TO.P,J5,2,Pin_2*%
%TO.N,Net-(J5-Pin_2)*%
X141589600Y-61738500D03*
%TD*%
D23*
%TO.P,Q1,1*%
%TO.N,Net-(Q1-Pad1)*%
X136586000Y-84423600D03*
D24*
%TO.P,Q1,2*%
%TO.N,Net-(J1-Pin_1)*%
X136586000Y-81883600D03*
%TO.P,Q1,3*%
%TO.N,Net-(Q1-Pad3)*%
X136586000Y-79343600D03*
%TD*%
D25*
%TO.P,Y2,1,1*%
%TO.N,Net-(U3-OSC1)*%
X153203400Y-112099600D03*
%TO.P,Y2,2,2*%
%TO.N,Net-(U3-OSC2)*%
X158083400Y-112099600D03*
%TD*%
D14*
%TO.P,D4,1,K*%
%TO.N,/OutputGNDPChannel/OUT2*%
X163712200Y-98155100D03*
D15*
%TO.P,D4,2,A*%
%TO.N,GND*%
X153552200Y-98155100D03*
%TD*%
D26*
%TO.P,Reset1,1,NO_1*%
%TO.N,/BareMinAtmel328P/RESET*%
X135385300Y-113752500D03*
D25*
%TO.P,Reset1,2,NO_2*%
%TO.N,unconnected-(Reset1-NO_2-Pad2)*%
X128885300Y-113752500D03*
%TO.P,Reset1,3,COM_1*%
%TO.N,GND*%
X135385300Y-109252500D03*
%TO.P,Reset1,4,COM_2*%
%TO.N,unconnected-(Reset1-COM_2-Pad4)*%
X128885300Y-109252500D03*
%TD*%
%TO.P,Y1,1,1*%
%TO.N,Net-(U2-XTAL2{slash}PB7)*%
X153178500Y-121354000D03*
%TO.P,Y1,2,2*%
%TO.N,Net-(U2-XTAL1{slash}PB6)*%
X158058500Y-121354000D03*
%TD*%
D10*
%TO.P,Q2,1*%
%TO.N,Net-(Q2-Pad1)*%
X155667500Y-103267000D03*
D11*
%TO.P,Q2,2*%
%TO.N,GND*%
X158207500Y-103267000D03*
%TO.P,Q2,3*%
%TO.N,/OutputGNDPChannel/OUT1*%
X160747500Y-103267000D03*
%TD*%
D10*
%TO.P,Q4,1*%
%TO.N,Net-(Q4-Pad1)*%
X155667500Y-94673500D03*
D11*
%TO.P,Q4,2*%
%TO.N,GND*%
X158207500Y-94673500D03*
%TO.P,Q4,3*%
%TO.N,/OutputGNDPChannel/OUT2*%
X160747500Y-94673500D03*
%TD*%
D27*
%TO.P,R20,1*%
%TO.N,Net-(J2-Pin_5)*%
X176344200Y-82386500D03*
%TO.P,R20,2*%
%TO.N,GND*%
X176344200Y-85486500D03*
%TD*%
D28*
%TO.P,R12,1*%
%TO.N,/BareMinAtmel328P/PD5-D5*%
X150432000Y-94641200D03*
%TO.P,R12,2*%
%TO.N,Net-(Q4-Pad1)*%
X153532000Y-94641200D03*
%TD*%
%TO.P,R14,1*%
%TO.N,/BareMinAtmel328P/PB2-D10-SS*%
X150286100Y-78257000D03*
%TO.P,R14,2*%
%TO.N,Net-(Q5-Pad1)*%
X153386100Y-78257000D03*
%TD*%
D29*
%TO.P,C2,1*%
%TO.N,Net-(U2-XTAL1{slash}PB6)*%
X151273200Y-117184300D03*
%TO.P,C2,2*%
%TO.N,GND*%
X154398200Y-117184300D03*
%TD*%
D30*
%TO.P,U4,1,TXD*%
%TO.N,/CANBUS-MCP2515/TXtoCANTC*%
X171716100Y-69250200D03*
%TO.P,U4,2,VSS*%
%TO.N,GND*%
X171716100Y-70520200D03*
%TO.P,U4,3,VDD*%
%TO.N,+5V*%
X171716100Y-71790200D03*
%TO.P,U4,4,RXD*%
%TO.N,/CANBUS-MCP2515/RXtoCANTC*%
X171716100Y-73060200D03*
%TO.P,U4,5,Vref*%
%TO.N,unconnected-(U4-Vref-Pad5)*%
X166766100Y-73060200D03*
%TO.P,U4,6,CANL*%
%TO.N,CANBUS_L*%
X166766100Y-71790200D03*
%TO.P,U4,7,CANH*%
%TO.N,CANBUS_H*%
X166766100Y-70520200D03*
%TO.P,U4,8,Rs*%
%TO.N,Net-(U4-Rs)*%
X166766100Y-69250200D03*
%TD*%
D31*
%TO.P,R1,1*%
%TO.N,Net-(Q1-Pad1)*%
X131364300Y-81129300D03*
%TO.P,R1,2*%
%TO.N,GND*%
X128264300Y-81129300D03*
%TD*%
D27*
%TO.P,R4,1*%
%TO.N,+5V*%
X132096400Y-109912300D03*
%TO.P,R4,2*%
%TO.N,/BareMinAtmel328P/RESET*%
X132096400Y-113012300D03*
%TD*%
D32*
%TO.P,C4,1*%
%TO.N,Net-(U3-OSC2)*%
X159775700Y-117159400D03*
%TO.P,C4,2*%
%TO.N,GND*%
X156650700Y-117159400D03*
%TD*%
D33*
%TO.P,U3,1,TXCAN*%
%TO.N,/CANBUS-MCP2515/TXtoCANTC*%
X151455100Y-65127000D03*
%TO.P,U3,2,RXCAN*%
%TO.N,/CANBUS-MCP2515/RXtoCANTC*%
X151455100Y-66397000D03*
%TO.P,U3,3,CLKOUT/SOF*%
%TO.N,unconnected-(U3-CLKOUT{slash}SOF-Pad3)*%
X151455100Y-67667000D03*
%TO.P,U3,4,~{TX0RTS}*%
%TO.N,unconnected-(U3-~{TX0RTS}-Pad4)*%
X151455100Y-68937000D03*
%TO.P,U3,5,~{TX1RTS}*%
%TO.N,unconnected-(U3-~{TX1RTS}-Pad5)*%
X151455100Y-70207000D03*
%TO.P,U3,6,~{TX2RTS}*%
%TO.N,unconnected-(U3-~{TX2RTS}-Pad6)*%
X151455100Y-71477000D03*
%TO.P,U3,7,OSC2*%
%TO.N,Net-(U3-OSC2)*%
X151455100Y-72747000D03*
%TO.P,U3,8,OSC1*%
%TO.N,Net-(U3-OSC1)*%
X151455100Y-74017000D03*
%TO.P,U3,9,VSS*%
%TO.N,GND*%
X151455100Y-75287000D03*
%TO.P,U3,10,~{RX1BF}*%
%TO.N,unconnected-(U3-~{RX1BF}-Pad10)*%
X142155100Y-75287000D03*
%TO.P,U3,11,~{RX0BF}*%
%TO.N,unconnected-(U3-~{RX0BF}-Pad11)*%
X142155100Y-74017000D03*
%TO.P,U3,12,~{INT}*%
%TO.N,/BareMinAtmel328P/PD2-D2*%
X142155100Y-72747000D03*
%TO.P,U3,13,SCK*%
%TO.N,/BareMinAtmel328P/PB5-D13-SCK*%
X142155100Y-71477000D03*
%TO.P,U3,14,SI*%
%TO.N,/BareMinAtmel328P/PB3-D11-MOSI*%
X142155100Y-70207000D03*
%TO.P,U3,15,SO*%
%TO.N,/BareMinAtmel328P/PB4-D12-MISO*%
X142155100Y-68937000D03*
%TO.P,U3,16,~{CS}*%
%TO.N,/BareMinAtmel328P/PB1-D9*%
X142155100Y-67667000D03*
%TO.P,U3,17,~{RESET}*%
%TO.N,Net-(U3-~{RESET})*%
X142155100Y-66397000D03*
%TO.P,U3,18,VDD*%
%TO.N,+5V*%
X142155100Y-65127000D03*
%TD*%
D34*
%TO.P,R5,1*%
%TO.N,Net-(U3-~{RESET})*%
X144703000Y-87196800D03*
%TO.P,R5,2*%
%TO.N,+5V*%
X144703000Y-84096800D03*
%TD*%
D27*
%TO.P,R3,1*%
%TO.N,GND*%
X135973000Y-89148700D03*
%TO.P,R3,2*%
%TO.N,/BareMinAtmel328P/PC0-A0*%
X135973000Y-92248700D03*
%TD*%
D28*
%TO.P,R15,1*%
%TO.N,Net-(Q5-Pad1)*%
X155078400Y-74588600D03*
%TO.P,R15,2*%
%TO.N,GND*%
X158178400Y-74588600D03*
%TD*%
D32*
%TO.P,C1,1*%
%TO.N,Net-(J3-Pin_6)*%
X138717100Y-117199700D03*
%TO.P,C1,2*%
%TO.N,/BareMinAtmel328P/RESET*%
X135592100Y-117199700D03*
%TD*%
D27*
%TO.P,R22,1*%
%TO.N,+5V*%
X164877800Y-75106900D03*
%TO.P,R22,2*%
%TO.N,/BareMinAtmel328P/PD4-D4*%
X164877800Y-78206900D03*
%TD*%
%TO.P,R2,1*%
%TO.N,/BareMinAtmel328P/AREF*%
X144995600Y-99509000D03*
%TO.P,R2,2*%
%TO.N,+5V*%
X144995600Y-102609000D03*
%TD*%
D28*
%TO.P,R9,1*%
%TO.N,/BareMinAtmel328P/PD3-D3*%
X150435600Y-103290900D03*
%TO.P,R9,2*%
%TO.N,Net-(Q2-Pad1)*%
X153535600Y-103290900D03*
%TD*%
%TO.P,R8,1*%
%TO.N,Net-(Q2-Pad1)*%
X155140600Y-100938400D03*
%TO.P,R8,2*%
%TO.N,GND*%
X158240600Y-100938400D03*
%TD*%
%TO.P,R13,1*%
%TO.N,Net-(Q4-Pad1)*%
X155124400Y-92187700D03*
%TO.P,R13,2*%
%TO.N,GND*%
X158224400Y-92187700D03*
%TD*%
%TO.P,R10,1*%
%TO.N,/BareMinAtmel328P/PD6-D6*%
X150425900Y-85967900D03*
%TO.P,R10,2*%
%TO.N,Net-(Q3-Pad1)*%
X153525900Y-85967900D03*
%TD*%
%TO.P,R11,1*%
%TO.N,Net-(Q3-Pad1)*%
X155093900Y-83665700D03*
%TO.P,R11,2*%
%TO.N,GND*%
X158193900Y-83665700D03*
%TD*%
D27*
%TO.P,C8,1*%
%TO.N,Net-(J2-Pin_5)*%
X179839400Y-82386500D03*
%TO.P,C8,2*%
%TO.N,GND*%
X179839400Y-85486500D03*
%TD*%
D35*
%TO.P,Q10,1,G*%
%TO.N,Net-(J2-Pin_5)*%
X173419500Y-77572000D03*
%TO.P,Q10,2,S*%
%TO.N,GND*%
X171519500Y-77572000D03*
%TO.P,Q10,3,D*%
%TO.N,Net-(D2-K)*%
X172469500Y-75697000D03*
%TD*%
D32*
%TO.P,C7,1*%
%TO.N,+5V*%
X137705500Y-103901700D03*
%TO.P,C7,2*%
%TO.N,GND*%
X134580500Y-103901700D03*
%TD*%
D36*
%TO.P,D1,1,CATHODE_1*%
%TO.N,CANBUS_H*%
X162831900Y-68594100D03*
%TO.P,D1,2,CATHODE_2*%
%TO.N,CANBUS_L*%
X162831900Y-69894100D03*
%TO.P,D1,3,COMMON_ANODE*%
%TO.N,GND*%
X160931900Y-69244100D03*
%TD*%
D32*
%TO.P,C6,1*%
%TO.N,+5V*%
X137701800Y-101431800D03*
%TO.P,C6,2*%
%TO.N,GND*%
X134576800Y-101431800D03*
%TD*%
D37*
%TO.N,GND*%
X154348000Y-117251000D03*
%TO.N,/BareMinAtmel328P/RESET*%
X139293800Y-98450600D03*
%TO.N,+5V*%
X137702000Y-101432000D03*
X144996000Y-102609000D03*
X137706000Y-103902000D03*
X132156000Y-109902000D03*
X163558900Y-75889600D03*
%TO.N,CANBUS_L*%
X166757000Y-71767400D03*
%TO.N,CANBUS_H*%
X166785000Y-70514000D03*
%TO.N,/BareMinAtmel328P/PB5-D13-SCK*%
X146858700Y-73327400D03*
%TO.N,/BareMinAtmel328P/PB3-D11-MOSI*%
X144516000Y-70415200D03*
%TO.N,/BareMinAtmel328P/PB4-D12-MISO*%
X146840600Y-72287700D03*
X151490900Y-105007700D03*
%TO.N,/BareMinAtmel328P/PD0-RX*%
X128179600Y-87334500D03*
%TO.N,/BareMinAtmel328P/PD1-TX*%
X132128000Y-88478700D03*
%TO.N,/BareMinAtmel328P/PB2-D10-SS*%
X153365600Y-73767800D03*
X151460500Y-106070300D03*
%TO.N,/BareMinAtmel328P/PD3-D3*%
X142648200Y-95966800D03*
X150320600Y-98224800D03*
%TO.N,/BareMinAtmel328P/PD5-D5*%
X146245400Y-105729300D03*
X149931000Y-101868700D03*
%TO.N,/BareMinAtmel328P/PC0-A0*%
X138312800Y-93044200D03*
%TO.N,/BareMinAtmel328P/PB1-D9*%
X150264400Y-93064100D03*
%TO.N,/CANBUS-MCP2515/RXtoCANTC*%
X171123600Y-74663400D03*
X156375800Y-66472700D03*
%TO.N,/CANBUS-MCP2515/TXtoCANTC*%
X156977500Y-67577300D03*
X160788300Y-67577300D03*
%TO.N,Net-(U3-OSC2)*%
X150689400Y-91840300D03*
%TD*%
D38*
%TO.N,GND*%
X167929000Y-81930900D02*
X167929000Y-81162500D01*
D39*
X158208000Y-104741000D02*
X158208000Y-103267000D01*
D40*
X136467000Y-99541800D02*
X134577000Y-101432000D01*
X179839000Y-85486500D02*
X176344200Y-85486500D01*
D39*
X156396000Y-80926100D02*
X158208000Y-82737800D01*
X158208000Y-86019300D02*
X158208000Y-83651600D01*
D38*
X135385000Y-110129000D02*
X135385000Y-109252000D01*
X160931900Y-69244100D02*
X158925000Y-69244100D01*
D39*
X158208000Y-69961800D02*
X158208000Y-69697600D01*
X158208000Y-77526300D02*
X158208000Y-74588600D01*
D38*
X135385000Y-111006000D02*
X135385000Y-110129000D01*
D40*
X140930000Y-99541800D02*
X143470000Y-97001800D01*
D39*
X158208000Y-103267000D02*
X158208000Y-100971000D01*
X153552200Y-98155100D02*
X155457000Y-98155100D01*
D38*
X146254900Y-120743900D02*
X141483000Y-115972000D01*
D40*
X128264000Y-84810600D02*
X130976000Y-87522600D01*
D39*
X158208000Y-83651600D02*
X158208000Y-82737800D01*
D40*
X154398000Y-117184000D02*
X156626000Y-117184000D01*
D41*
X152063800Y-79437800D02*
X152063800Y-75895700D01*
D39*
X158208000Y-74588600D02*
X158208000Y-69961800D01*
D40*
X128264000Y-81129300D02*
X128264000Y-84810600D01*
D41*
X162180200Y-67995900D02*
X168449200Y-67995900D01*
D39*
X158208000Y-94673500D02*
X158208000Y-92187700D01*
X160725000Y-72479500D02*
X158208000Y-69961800D01*
X156190000Y-106759000D02*
X158208000Y-104741000D01*
D41*
X152063800Y-75895700D02*
X151455100Y-75287000D01*
D40*
X135973000Y-89148700D02*
X138190000Y-86931200D01*
D39*
X153552200Y-89328000D02*
X157410000Y-89328000D01*
D40*
X134347000Y-87522600D02*
X135973000Y-89148700D01*
X154598000Y-107805000D02*
X154598000Y-116985000D01*
D38*
X172905000Y-85486500D02*
X172031000Y-84613100D01*
D39*
X153552000Y-106759000D02*
X156190000Y-106759000D01*
X158241000Y-100938000D02*
X158241000Y-94706600D01*
X158208000Y-65748700D02*
X156304000Y-63844800D01*
X156304000Y-63844800D02*
X154748000Y-63844800D01*
D41*
X135385000Y-110129000D02*
X135385300Y-110128700D01*
D40*
X140929500Y-99541800D02*
X136467000Y-99541800D01*
D39*
X158208000Y-82737800D02*
X158208000Y-77526300D01*
D38*
X141483000Y-115972000D02*
X140351000Y-115972000D01*
D41*
X171519500Y-77572000D02*
X171519500Y-75213000D01*
X171519500Y-75213000D02*
X173028900Y-73703600D01*
D38*
X167929000Y-81162500D02*
X171519000Y-77572000D01*
D40*
X138190000Y-66938900D02*
X141285000Y-63844800D01*
D38*
X170611000Y-84613100D02*
X167929000Y-81930900D01*
D41*
X168449200Y-67995900D02*
X170973500Y-70520200D01*
D38*
X176344000Y-85486500D02*
X172905000Y-85486500D01*
D39*
X158208000Y-92187700D02*
X158208000Y-90125300D01*
D40*
X143470000Y-97001800D02*
X148549500Y-97001800D01*
D41*
X173028900Y-71454500D02*
X172094600Y-70520200D01*
D39*
X153552200Y-80926100D02*
X156396000Y-80926100D01*
X158208000Y-69697600D02*
X158208000Y-65748700D01*
D38*
X158925000Y-69244100D02*
X158208000Y-69961800D01*
D40*
X130976300Y-87522600D02*
X134347000Y-87522600D01*
D38*
X140351000Y-115972000D02*
X135385000Y-111006000D01*
D40*
X134580000Y-103901700D02*
X134580000Y-101436000D01*
X134454000Y-101308000D02*
X134454000Y-90668200D01*
D41*
X135385300Y-110128700D02*
X135385300Y-109252500D01*
D38*
X135385000Y-109252000D02*
X134580000Y-108448000D01*
D40*
X134454000Y-90668200D02*
X135973000Y-89148700D01*
D39*
X155457000Y-98155100D02*
X158241000Y-100938000D01*
D41*
X173028900Y-73703600D02*
X173028900Y-71454500D01*
X160932000Y-69244100D02*
X162180200Y-67995900D01*
X153552100Y-80926100D02*
X152063800Y-79437800D01*
D39*
X158208000Y-90125300D02*
X158208000Y-86019300D01*
D40*
X153552200Y-106759200D02*
X154598000Y-107805000D01*
D38*
X134580000Y-108448000D02*
X134580000Y-103902000D01*
D39*
X157410000Y-89328000D02*
X158208000Y-90125300D01*
D38*
X172031000Y-84613100D02*
X170611000Y-84613100D01*
D40*
X138190000Y-86931200D02*
X138190000Y-66938900D01*
X141285000Y-63844800D02*
X154748000Y-63844800D01*
D38*
%TO.N,/BareMinAtmel328P/RESET*%
X134645000Y-113012000D02*
X135385000Y-113752000D01*
D41*
X140929500Y-82863500D02*
X140791800Y-82863500D01*
X135385000Y-115372500D02*
X135385300Y-115372200D01*
X135385300Y-115372200D02*
X135385300Y-113752500D01*
X139293800Y-84361500D02*
X139293800Y-98450600D01*
X140791800Y-82863500D02*
X139293800Y-84361500D01*
X140929500Y-81761800D02*
X140929500Y-82863500D01*
D38*
X135385000Y-113752000D02*
X135385000Y-115372500D01*
X132096700Y-113012000D02*
X134645000Y-113012000D01*
X135385000Y-115372500D02*
X135385000Y-116993000D01*
D41*
%TO.N,+5V*%
X140628500Y-85571800D02*
X139815400Y-86384900D01*
X142031200Y-84766600D02*
X141226000Y-85571800D01*
X141749500Y-65127000D02*
X140357700Y-66518800D01*
X140791800Y-95900100D02*
X139812700Y-94921000D01*
X140929500Y-95900100D02*
X140791800Y-95900100D01*
X142031200Y-80790000D02*
X142031200Y-84766600D01*
D38*
X164878000Y-75106900D02*
X167260000Y-75106900D01*
D41*
X141226000Y-85571800D02*
X140628500Y-85571800D01*
X139815400Y-86384900D02*
X139815400Y-89846300D01*
X140357700Y-79116500D02*
X142031200Y-80790000D01*
D38*
X170576000Y-71790200D02*
X171716000Y-71790200D01*
D41*
X142842100Y-85957700D02*
X144703000Y-84096800D01*
X141238500Y-90651800D02*
X142842100Y-89048200D01*
X142842100Y-89048200D02*
X142842100Y-85957700D01*
D38*
X167260000Y-75106900D02*
X170576000Y-71790200D01*
D41*
X140357700Y-66518800D02*
X140357700Y-79116500D01*
X139812700Y-91460000D02*
X140620900Y-90651800D01*
X139815400Y-89846300D02*
X140620900Y-90651800D01*
X164095100Y-75889600D02*
X164877800Y-75106900D01*
X139812700Y-94921000D02*
X139812700Y-91460000D01*
X140620900Y-90651800D02*
X141238500Y-90651800D01*
X163558900Y-75889600D02*
X164095100Y-75889600D01*
X140929500Y-97001800D02*
X140929500Y-95900100D01*
D38*
%TO.N,CANBUS_L*%
X163674700Y-70736800D02*
X164728000Y-71790200D01*
X164728000Y-71790200D02*
X166757000Y-71767400D01*
D41*
X163674700Y-70736800D02*
X163674600Y-70736800D01*
X162831900Y-69894100D02*
X162831900Y-70470800D01*
X163674600Y-70736800D02*
X163408600Y-70470800D01*
D38*
X162832000Y-69894100D02*
X163674700Y-70736800D01*
D41*
X163408600Y-70470800D02*
X162831900Y-70470800D01*
D38*
X141656100Y-58260700D02*
X154244000Y-58260700D01*
%TO.N,CANBUS_H*%
X166766000Y-70520200D02*
X164983000Y-70520200D01*
X164983000Y-70520200D02*
X163057000Y-68594100D01*
D41*
%TO.N,/BareMinAtmel328P/PB5-D13-SCK*%
X149685100Y-97441500D02*
X149685100Y-96578000D01*
X148411800Y-103520100D02*
X147433200Y-102541500D01*
X145008300Y-71477000D02*
X146858700Y-73327400D01*
X149317200Y-97809400D02*
X149685100Y-97441500D01*
X147433200Y-101598200D02*
X148219600Y-100811800D01*
X148845300Y-100811800D02*
X149685100Y-99972000D01*
X146554300Y-94055100D02*
X146554300Y-73631800D01*
X148549500Y-103520100D02*
X148411800Y-103520100D01*
X147433200Y-102541500D02*
X147433200Y-101598200D01*
X149685100Y-99972000D02*
X149685100Y-99008100D01*
X149317200Y-98640200D02*
X149317200Y-97809400D01*
X148219600Y-100811800D02*
X148845300Y-100811800D01*
X146554300Y-73631800D02*
X146858700Y-73327400D01*
X148231000Y-95731800D02*
X146554300Y-94055100D01*
X149685100Y-96578000D02*
X148838900Y-95731800D01*
X148549500Y-104621800D02*
X148549500Y-103520100D01*
X142155100Y-71477000D02*
X145008300Y-71477000D01*
X149685100Y-99008100D02*
X149317200Y-98640200D01*
X148838900Y-95731800D02*
X148231000Y-95731800D01*
%TO.N,/BareMinAtmel328P/PB3-D11-MOSI*%
X144307800Y-70207000D02*
X144516000Y-70415200D01*
X142155100Y-70207000D02*
X144307800Y-70207000D01*
%TO.N,/BareMinAtmel328P/PB4-D12-MISO*%
X146840600Y-72287700D02*
X146840600Y-71822400D01*
X146840600Y-71822400D02*
X143955200Y-68937000D01*
X148549500Y-107161800D02*
X149651200Y-107161800D01*
X149651200Y-106847400D02*
X149651200Y-107161800D01*
X151490900Y-105007700D02*
X149651200Y-106847400D01*
X143955200Y-68937000D02*
X142155100Y-68937000D01*
%TO.N,/BareMinAtmel328P/PD0-RX*%
X138634600Y-120744200D02*
X137482900Y-120744200D01*
X136148800Y-122346800D02*
X137482900Y-121012700D01*
X128179600Y-87334500D02*
X128179600Y-104396500D01*
X129955200Y-119357700D02*
X132944300Y-122346800D01*
X128179600Y-104396500D02*
X129955200Y-106172100D01*
X137482900Y-121012700D02*
X137482900Y-120744200D01*
X132944300Y-122346800D02*
X136148800Y-122346800D01*
X129955200Y-106172100D02*
X129955200Y-119357700D01*
%TO.N,/BareMinAtmel328P/PD1-TX*%
X130912800Y-103858400D02*
X132128000Y-102643200D01*
X136094600Y-120744200D02*
X134908300Y-121930500D01*
X134908300Y-121930500D02*
X133109000Y-121930500D01*
X133109000Y-121930500D02*
X130912800Y-119734300D01*
X130912800Y-119734300D02*
X130912800Y-103858400D01*
X132128000Y-102643200D02*
X132128000Y-88478700D01*
D38*
%TO.N,/BareMinAtmel328P/PD4-D4*%
X166450000Y-76634500D02*
X164878000Y-78206900D01*
X167389000Y-76634500D02*
X166450000Y-76634500D01*
D41*
%TO.N,/BareMinAtmel328P/PD6-D6*%
X150425900Y-85967900D02*
X151437700Y-86979700D01*
X151437700Y-104106400D02*
X149652300Y-105891800D01*
X149652300Y-105891800D02*
X147535000Y-105891800D01*
X147535000Y-105891800D02*
X143725000Y-109701800D01*
X151437700Y-86979700D02*
X151437700Y-104106400D01*
X143725000Y-109701800D02*
X140929500Y-109701800D01*
%TO.N,/BareMinAtmel328P/PB2-D10-SS*%
X150286100Y-78257000D02*
X149710200Y-77681100D01*
X152979800Y-73382000D02*
X153365600Y-73767800D01*
X150421200Y-73382000D02*
X152979800Y-73382000D01*
X148687200Y-111140100D02*
X151460500Y-108366800D01*
X149710200Y-74093000D02*
X150421200Y-73382000D01*
X148549500Y-112241800D02*
X148549500Y-111140100D01*
X149710200Y-77681100D02*
X149710200Y-74093000D01*
X148549500Y-111140100D02*
X148687200Y-111140100D01*
X151460500Y-108366800D02*
X151460500Y-106070300D01*
%TO.N,/BareMinAtmel328P/PD3-D3*%
X140929500Y-93023500D02*
X141067200Y-93023500D01*
X150579000Y-98483200D02*
X150320600Y-98224800D01*
X142648200Y-94604500D02*
X142648200Y-95966800D01*
X150579000Y-103147500D02*
X150579000Y-98483200D01*
X141067200Y-93023500D02*
X142648200Y-94604500D01*
X140929500Y-91921800D02*
X140929500Y-93023500D01*
%TO.N,/BareMinAtmel328P/PD5-D5*%
X149718900Y-97975700D02*
X149718900Y-98473900D01*
X142031200Y-107161800D02*
X143463700Y-105729300D01*
X150071600Y-97623100D02*
X150071500Y-97623100D01*
X150432000Y-94641200D02*
X150432000Y-97262700D01*
X150071500Y-97623100D02*
X149718900Y-97975700D01*
X150120700Y-98875600D02*
X150120700Y-101679000D01*
X140929500Y-107161800D02*
X142031200Y-107161800D01*
X149718900Y-98473900D02*
X150071500Y-98826500D01*
X150071500Y-98826500D02*
X150071600Y-98826500D01*
X150071600Y-98826500D02*
X150120700Y-98875600D01*
X143463700Y-105729300D02*
X146245400Y-105729300D01*
X150432000Y-97262700D02*
X150071600Y-97623100D01*
X150120700Y-101679000D02*
X149931000Y-101868700D01*
%TO.N,/BareMinAtmel328P/PC0-A0*%
X135965600Y-93051600D02*
X135973000Y-93044200D01*
X135973000Y-93044200D02*
X138312800Y-93044200D01*
X135965600Y-94809500D02*
X135965600Y-93051600D01*
X135973000Y-92248700D02*
X135973000Y-93044200D01*
D40*
%TO.N,Net-(Q1-Pad1)*%
X132776100Y-82541100D02*
X131364000Y-81129300D01*
X136586000Y-84423600D02*
X134659000Y-84423600D01*
D41*
X132776100Y-82541100D02*
X131364300Y-81129300D01*
D40*
X134659000Y-84423600D02*
X132776100Y-82541100D01*
%TO.N,/BareMinAtmel328P/AREF*%
X144996000Y-99509000D02*
X148517000Y-99509000D01*
D41*
%TO.N,/BareMinAtmel328P/PB1-D9*%
X147469000Y-71841300D02*
X143294700Y-67667000D01*
X143294700Y-67667000D02*
X142155100Y-67667000D01*
X146957500Y-77521800D02*
X147469000Y-77010300D01*
X147469000Y-77010300D02*
X147469000Y-71841300D01*
X146957500Y-91893900D02*
X146957500Y-77521800D01*
X148127700Y-93064100D02*
X146957500Y-91893900D01*
X150264400Y-93064100D02*
X148127700Y-93064100D01*
%TO.N,/BareMinAtmel328P/PD2-D2*%
X142636000Y-72747000D02*
X143526800Y-73637800D01*
X143526800Y-73637800D02*
X143526800Y-75887800D01*
X142235800Y-87202100D02*
X141157800Y-88280100D01*
X142441900Y-76972700D02*
X142441900Y-84923900D01*
X143526800Y-75887800D02*
X142441900Y-76972700D01*
X142441900Y-84923900D02*
X142235800Y-85130000D01*
X140929500Y-89381800D02*
X140929500Y-88280100D01*
X141157800Y-88280100D02*
X140929500Y-88280100D01*
X142235800Y-85130000D02*
X142235800Y-87202100D01*
%TO.N,/CANBUS-MCP2515/RXtoCANTC*%
X171123600Y-74663400D02*
X171716100Y-74070900D01*
X152133500Y-66397000D02*
X153523000Y-67786500D01*
X153523000Y-67786500D02*
X155987900Y-67786500D01*
X156375800Y-67398600D02*
X156375800Y-66472700D01*
X171716100Y-74070900D02*
X171716100Y-73060200D01*
X155987900Y-67786500D02*
X156375800Y-67398600D01*
%TO.N,/CANBUS-MCP2515/TXtoCANTC*%
X150088000Y-67990400D02*
X150399600Y-68302000D01*
X150088000Y-65982400D02*
X150088000Y-67990400D01*
X150399600Y-68302000D02*
X156252800Y-68302000D01*
X150943400Y-65127000D02*
X150088000Y-65982400D01*
X170043200Y-67577300D02*
X160788300Y-67577300D01*
X171716100Y-69250200D02*
X170043200Y-67577300D01*
X156252800Y-68302000D02*
X156977500Y-67577300D01*
%TO.N,Net-(J3-Pin_6)*%
X137982300Y-117199700D02*
X134706300Y-120475700D01*
X133554600Y-120744200D02*
X134706300Y-120744200D01*
X134706300Y-120475700D02*
X134706300Y-120744200D01*
X138717100Y-117199700D02*
X137982300Y-117199700D01*
%TO.N,Net-(U2-XTAL1{slash}PB6)*%
X140701200Y-103183500D02*
X140929500Y-103183500D01*
X140929500Y-102081800D02*
X140929500Y-103183500D01*
X153669700Y-122413300D02*
X151474500Y-122413300D01*
X139354700Y-112232700D02*
X139354700Y-104530000D01*
X152453800Y-118364800D02*
X152453700Y-118364800D01*
X155086000Y-120997000D02*
X153669700Y-122413300D01*
X152453700Y-118364800D02*
X151273200Y-117184300D01*
X140633800Y-113511800D02*
X139354700Y-112232700D01*
X139354700Y-104530000D02*
X140701200Y-103183500D01*
D40*
X158058500Y-121354000D02*
X155443000Y-121354000D01*
X155443000Y-121354000D02*
X155086000Y-120997000D01*
X155086000Y-120997000D02*
X152453800Y-118364800D01*
D41*
X142573000Y-113511800D02*
X140633800Y-113511800D01*
D40*
X152453800Y-118364800D02*
X151273000Y-117184000D01*
D41*
X151474500Y-122413300D02*
X142573000Y-113511800D01*
%TO.N,Net-(U2-XTAL2{slash}PB7)*%
X140929500Y-105723500D02*
X140791800Y-105723500D01*
X142375800Y-110971800D02*
X152758000Y-121354000D01*
X139781000Y-106734300D02*
X139781000Y-110138400D01*
X140614400Y-110971800D02*
X142375800Y-110971800D01*
X139781000Y-110138400D02*
X140614400Y-110971800D01*
X140929500Y-104621800D02*
X140929500Y-105723500D01*
X140791800Y-105723500D02*
X139781000Y-106734300D01*
%TO.N,Net-(U3-OSC2)*%
X150689400Y-89956900D02*
X150689400Y-91840300D01*
X149009200Y-79521600D02*
X147403500Y-81127300D01*
X147403500Y-87281300D02*
X148234000Y-88111800D01*
X158083000Y-113783500D02*
X158083400Y-113783100D01*
X150481800Y-72747000D02*
X149009200Y-74219600D01*
X151455100Y-72747000D02*
X150481800Y-72747000D01*
X158083400Y-113783100D02*
X158083400Y-112099600D01*
D40*
X158083000Y-112100000D02*
X158083000Y-113783500D01*
D41*
X158929500Y-116313000D02*
X159775700Y-117159200D01*
X148844300Y-88111800D02*
X150689400Y-89956900D01*
X148234000Y-88111800D02*
X148844300Y-88111800D01*
D40*
X158083000Y-115467000D02*
X158929500Y-116313000D01*
D41*
X149009200Y-74219600D02*
X149009200Y-79521600D01*
X147403500Y-81127300D02*
X147403500Y-87281300D01*
D40*
X158929500Y-116313000D02*
X159776000Y-117159000D01*
X158083000Y-113783500D02*
X158083000Y-115467000D01*
D41*
%TO.N,Net-(U3-OSC1)*%
X150121100Y-74851300D02*
X150955400Y-74017000D01*
X152116700Y-80087600D02*
X151455100Y-79426000D01*
X151455100Y-77481000D02*
X150121100Y-76147000D01*
X151455100Y-79426000D02*
X151455100Y-77481000D01*
X150121100Y-76147000D02*
X150121100Y-74851300D01*
X152116700Y-111012900D02*
X152116700Y-80087600D01*
X153203400Y-112099600D02*
X152116700Y-111012900D01*
D38*
%TO.N,Net-(J5-Pin_2)*%
X139116000Y-59265000D02*
X139116000Y-58710700D01*
X141589800Y-61738300D02*
X139116000Y-59265000D01*
D41*
%TO.N,Net-(U3-~{RESET})*%
X143190000Y-72112000D02*
X141122400Y-72112000D01*
X145934600Y-85965200D02*
X145934600Y-74856600D01*
X145934600Y-74856600D02*
X143190000Y-72112000D01*
X140793600Y-67325800D02*
X141722400Y-66397000D01*
X141122400Y-72112000D02*
X140793600Y-71783200D01*
X140793600Y-71783200D02*
X140793600Y-67325800D01*
X144703000Y-87196800D02*
X145934600Y-85965200D01*
%TO.N,Net-(U4-Rs)*%
X168104900Y-72112700D02*
X167792400Y-72425200D01*
X168104900Y-70237900D02*
X168104900Y-72112700D01*
X167792400Y-72425200D02*
X163319500Y-72425200D01*
X167117200Y-69250200D02*
X168104900Y-70237900D01*
D39*
%TO.N,/OutputGNDPChannel/OUT1*%
X163712000Y-106759000D02*
X162230000Y-105276500D01*
X170433000Y-103267000D02*
X171595000Y-102106000D01*
X160748000Y-103267000D02*
X170433000Y-103267000D01*
D41*
X162230000Y-105276500D02*
X162310900Y-105357400D01*
D39*
X162230000Y-105276500D02*
X160748000Y-103794000D01*
D41*
X163712200Y-106759100D02*
X163712200Y-105357400D01*
X162310900Y-105357400D02*
X163712200Y-105357400D01*
D39*
%TO.N,/OutputGNDPChannel/OUT2*%
X170465000Y-98155100D02*
X171594800Y-97025800D01*
X163712200Y-98155100D02*
X170465000Y-98155100D01*
X160748000Y-95190500D02*
X163712000Y-98155100D01*
D42*
%TO.N,Net-(Q3-Pad1)*%
X154014000Y-86041700D02*
X154036000Y-86019300D01*
X153526000Y-85967900D02*
X153940000Y-85967900D01*
X154036000Y-86019300D02*
X155667500Y-86019300D01*
X155668000Y-86019300D02*
X155668000Y-84239300D01*
X153940000Y-85967900D02*
X154014000Y-86041700D01*
X155668000Y-84239300D02*
X155381000Y-83952500D01*
%TO.N,Net-(Q5-Pad1)*%
X154937000Y-78257000D02*
X153386100Y-78257000D01*
X155078000Y-74588600D02*
X155078000Y-76937100D01*
D39*
%TO.N,/OutputGNDPChannel/OUT3*%
X160748000Y-86363300D02*
X163712000Y-89328000D01*
X166330000Y-91945600D02*
X171594600Y-91945600D01*
X163712100Y-89328100D02*
X166330000Y-91945600D01*
%TO.N,/OutputGNDPChannel/OUT4*%
X160748000Y-77961400D02*
X163712000Y-80926100D01*
X163712100Y-80926200D02*
X169652000Y-86865600D01*
X169652000Y-86865600D02*
X171594600Y-86865600D01*
D42*
%TO.N,Net-(Q2-Pad1)*%
X155141000Y-102740000D02*
X155141000Y-100938400D01*
X153536000Y-103291000D02*
X155644000Y-103291000D01*
%TO.N,Net-(Q4-Pad1)*%
X155668000Y-92730800D02*
X155124200Y-92187900D01*
X155668000Y-94673500D02*
X155668000Y-92730800D01*
X153532000Y-94641200D02*
X155635000Y-94641200D01*
D38*
%TO.N,Net-(J2-Pin_5)*%
X176344100Y-79452300D02*
X175300000Y-79452300D01*
D40*
X176344000Y-82386500D02*
X172196000Y-82386500D01*
D41*
X176344100Y-82386500D02*
X176344100Y-79452300D01*
D38*
X178101000Y-79452300D02*
X176344100Y-79452300D01*
X179839000Y-82386500D02*
X179839000Y-81190800D01*
X179839000Y-81190800D02*
X178101000Y-79452300D01*
X175300000Y-79452300D02*
X173419300Y-77572200D01*
%TO.N,Net-(D2-K)*%
X172469500Y-75697000D02*
X176612000Y-75697000D01*
X176612000Y-75697000D02*
X177549000Y-76634500D01*
%TD*%
M02*
