%TF.GenerationSoftware,KiCad,Pcbnew,8.0.1-rc1*%
%TF.CreationDate,2024-06-16T18:46:35-07:00*%
%TF.ProjectId,AMS - CANBus - RGB - Pchannel,414d5320-2d20-4434-914e-427573202d20,rev?*%
%TF.SameCoordinates,Original*%
%TF.FileFunction,Legend,Top*%
%TF.FilePolarity,Positive*%
%FSLAX46Y46*%
G04 Gerber Fmt 4.6, Leading zero omitted, Abs format (unit mm)*
G04 Created by KiCad (PCBNEW 8.0.1-rc1) date 2024-06-16 18:46:35*
%MOMM*%
%LPD*%
G01*
G04 APERTURE LIST*
G04 Aperture macros list*
%AMRoundRect*
0 Rectangle with rounded corners*
0 $1 Rounding radius*
0 $2 $3 $4 $5 $6 $7 $8 $9 X,Y pos of 4 corners*
0 Add a 4 corners polygon primitive as box body*
4,1,4,$2,$3,$4,$5,$6,$7,$8,$9,$2,$3,0*
0 Add four circle primitives for the rounded corners*
1,1,$1+$1,$2,$3*
1,1,$1+$1,$4,$5*
1,1,$1+$1,$6,$7*
1,1,$1+$1,$8,$9*
0 Add four rect primitives between the rounded corners*
20,1,$1+$1,$2,$3,$4,$5,0*
20,1,$1+$1,$4,$5,$6,$7,0*
20,1,$1+$1,$6,$7,$8,$9,0*
20,1,$1+$1,$8,$9,$2,$3,0*%
G04 Aperture macros list end*
%ADD10C,0.100000*%
%ADD11C,0.150000*%
%ADD12C,0.254000*%
%ADD13C,0.120000*%
%ADD14C,0.200000*%
%ADD15RoundRect,0.250000X-0.412500X-0.650000X0.412500X-0.650000X0.412500X0.650000X-0.412500X0.650000X0*%
%ADD16R,2.085000X2.085000*%
%ADD17C,2.085000*%
%ADD18C,1.600000*%
%ADD19O,1.600000X1.600000*%
%ADD20R,2.200000X2.200000*%
%ADD21O,2.200000X2.200000*%
%ADD22C,2.200000*%
%ADD23R,2.600000X2.600000*%
%ADD24C,2.600000*%
%ADD25R,1.700000X1.700000*%
%ADD26O,1.700000X1.700000*%
%ADD27C,2.400000*%
%ADD28R,1.000000X3.150000*%
%ADD29R,1.600000X1.600000*%
%ADD30R,1.920000X1.920000*%
%ADD31C,1.920000*%
%ADD32C,1.500000*%
%ADD33R,1.500000X1.500000*%
%ADD34RoundRect,0.250000X0.412500X0.650000X-0.412500X0.650000X-0.412500X-0.650000X0.412500X-0.650000X0*%
G04 APERTURE END LIST*
D10*
X141410522Y-77749485D02*
X141362903Y-77844723D01*
X141362903Y-77844723D02*
X141362903Y-77987580D01*
X141362903Y-77987580D02*
X141410522Y-78130437D01*
X141410522Y-78130437D02*
X141505760Y-78225675D01*
X141505760Y-78225675D02*
X141600998Y-78273294D01*
X141600998Y-78273294D02*
X141791474Y-78320913D01*
X141791474Y-78320913D02*
X141934331Y-78320913D01*
X141934331Y-78320913D02*
X142124807Y-78273294D01*
X142124807Y-78273294D02*
X142220045Y-78225675D01*
X142220045Y-78225675D02*
X142315284Y-78130437D01*
X142315284Y-78130437D02*
X142362903Y-77987580D01*
X142362903Y-77987580D02*
X142362903Y-77892342D01*
X142362903Y-77892342D02*
X142315284Y-77749485D01*
X142315284Y-77749485D02*
X142267664Y-77701866D01*
X142267664Y-77701866D02*
X141934331Y-77701866D01*
X141934331Y-77701866D02*
X141934331Y-77892342D01*
X142362903Y-77273294D02*
X141362903Y-77273294D01*
X141362903Y-77273294D02*
X142362903Y-76701866D01*
X142362903Y-76701866D02*
X141362903Y-76701866D01*
X142362903Y-76225675D02*
X141362903Y-76225675D01*
X141362903Y-76225675D02*
X141362903Y-75987580D01*
X141362903Y-75987580D02*
X141410522Y-75844723D01*
X141410522Y-75844723D02*
X141505760Y-75749485D01*
X141505760Y-75749485D02*
X141600998Y-75701866D01*
X141600998Y-75701866D02*
X141791474Y-75654247D01*
X141791474Y-75654247D02*
X141934331Y-75654247D01*
X141934331Y-75654247D02*
X142124807Y-75701866D01*
X142124807Y-75701866D02*
X142220045Y-75749485D01*
X142220045Y-75749485D02*
X142315284Y-75844723D01*
X142315284Y-75844723D02*
X142362903Y-75987580D01*
X142362903Y-75987580D02*
X142362903Y-76225675D01*
X144448247Y-62516753D02*
X144448247Y-63088181D01*
X144448247Y-62802467D02*
X143448247Y-62802467D01*
X143448247Y-62802467D02*
X143591104Y-62897705D01*
X143591104Y-62897705D02*
X143686342Y-62992943D01*
X143686342Y-62992943D02*
X143733961Y-63088181D01*
X143543485Y-62135800D02*
X143495866Y-62088181D01*
X143495866Y-62088181D02*
X143448247Y-61992943D01*
X143448247Y-61992943D02*
X143448247Y-61754848D01*
X143448247Y-61754848D02*
X143495866Y-61659610D01*
X143495866Y-61659610D02*
X143543485Y-61611991D01*
X143543485Y-61611991D02*
X143638723Y-61564372D01*
X143638723Y-61564372D02*
X143733961Y-61564372D01*
X143733961Y-61564372D02*
X143876818Y-61611991D01*
X143876818Y-61611991D02*
X144448247Y-62183419D01*
X144448247Y-62183419D02*
X144448247Y-61564372D01*
X143448247Y-60945324D02*
X143448247Y-60850086D01*
X143448247Y-60850086D02*
X143495866Y-60754848D01*
X143495866Y-60754848D02*
X143543485Y-60707229D01*
X143543485Y-60707229D02*
X143638723Y-60659610D01*
X143638723Y-60659610D02*
X143829199Y-60611991D01*
X143829199Y-60611991D02*
X144067294Y-60611991D01*
X144067294Y-60611991D02*
X144257770Y-60659610D01*
X144257770Y-60659610D02*
X144353008Y-60707229D01*
X144353008Y-60707229D02*
X144400628Y-60754848D01*
X144400628Y-60754848D02*
X144448247Y-60850086D01*
X144448247Y-60850086D02*
X144448247Y-60945324D01*
X144448247Y-60945324D02*
X144400628Y-61040562D01*
X144400628Y-61040562D02*
X144353008Y-61088181D01*
X144353008Y-61088181D02*
X144257770Y-61135800D01*
X144257770Y-61135800D02*
X144067294Y-61183419D01*
X144067294Y-61183419D02*
X143829199Y-61183419D01*
X143829199Y-61183419D02*
X143638723Y-61135800D01*
X143638723Y-61135800D02*
X143543485Y-61088181D01*
X143543485Y-61088181D02*
X143495866Y-61040562D01*
X143495866Y-61040562D02*
X143448247Y-60945324D01*
X143448247Y-59231038D02*
X143448247Y-59040562D01*
X143448247Y-59040562D02*
X143495866Y-58945324D01*
X143495866Y-58945324D02*
X143591104Y-58850086D01*
X143591104Y-58850086D02*
X143781580Y-58802467D01*
X143781580Y-58802467D02*
X144114913Y-58802467D01*
X144114913Y-58802467D02*
X144305389Y-58850086D01*
X144305389Y-58850086D02*
X144400628Y-58945324D01*
X144400628Y-58945324D02*
X144448247Y-59040562D01*
X144448247Y-59040562D02*
X144448247Y-59231038D01*
X144448247Y-59231038D02*
X144400628Y-59326276D01*
X144400628Y-59326276D02*
X144305389Y-59421514D01*
X144305389Y-59421514D02*
X144114913Y-59469133D01*
X144114913Y-59469133D02*
X143781580Y-59469133D01*
X143781580Y-59469133D02*
X143591104Y-59421514D01*
X143591104Y-59421514D02*
X143495866Y-59326276D01*
X143495866Y-59326276D02*
X143448247Y-59231038D01*
X144448247Y-58373895D02*
X143448247Y-58373895D01*
X144448247Y-57945324D02*
X143924437Y-57945324D01*
X143924437Y-57945324D02*
X143829199Y-57992943D01*
X143829199Y-57992943D02*
X143781580Y-58088181D01*
X143781580Y-58088181D02*
X143781580Y-58231038D01*
X143781580Y-58231038D02*
X143829199Y-58326276D01*
X143829199Y-58326276D02*
X143876818Y-58373895D01*
X144448247Y-57469133D02*
X143781580Y-57469133D01*
X143876818Y-57469133D02*
X143829199Y-57421514D01*
X143829199Y-57421514D02*
X143781580Y-57326276D01*
X143781580Y-57326276D02*
X143781580Y-57183419D01*
X143781580Y-57183419D02*
X143829199Y-57088181D01*
X143829199Y-57088181D02*
X143924437Y-57040562D01*
X143924437Y-57040562D02*
X144448247Y-57040562D01*
X143924437Y-57040562D02*
X143829199Y-56992943D01*
X143829199Y-56992943D02*
X143781580Y-56897705D01*
X143781580Y-56897705D02*
X143781580Y-56754848D01*
X143781580Y-56754848D02*
X143829199Y-56659609D01*
X143829199Y-56659609D02*
X143924437Y-56611990D01*
X143924437Y-56611990D02*
X144448247Y-56611990D01*
X145962952Y-62469134D02*
X146010572Y-62516753D01*
X146010572Y-62516753D02*
X146058191Y-62659610D01*
X146058191Y-62659610D02*
X146058191Y-62754848D01*
X146058191Y-62754848D02*
X146010572Y-62897705D01*
X146010572Y-62897705D02*
X145915333Y-62992943D01*
X145915333Y-62992943D02*
X145820095Y-63040562D01*
X145820095Y-63040562D02*
X145629619Y-63088181D01*
X145629619Y-63088181D02*
X145486762Y-63088181D01*
X145486762Y-63088181D02*
X145296286Y-63040562D01*
X145296286Y-63040562D02*
X145201048Y-62992943D01*
X145201048Y-62992943D02*
X145105810Y-62897705D01*
X145105810Y-62897705D02*
X145058191Y-62754848D01*
X145058191Y-62754848D02*
X145058191Y-62659610D01*
X145058191Y-62659610D02*
X145105810Y-62516753D01*
X145105810Y-62516753D02*
X145153429Y-62469134D01*
X145772476Y-62088181D02*
X145772476Y-61611991D01*
X146058191Y-62183419D02*
X145058191Y-61850086D01*
X145058191Y-61850086D02*
X146058191Y-61516753D01*
X146058191Y-61183419D02*
X145058191Y-61183419D01*
X145058191Y-61183419D02*
X146058191Y-60611991D01*
X146058191Y-60611991D02*
X145058191Y-60611991D01*
X145534381Y-59040562D02*
X145582000Y-58897705D01*
X145582000Y-58897705D02*
X145629619Y-58850086D01*
X145629619Y-58850086D02*
X145724857Y-58802467D01*
X145724857Y-58802467D02*
X145867714Y-58802467D01*
X145867714Y-58802467D02*
X145962952Y-58850086D01*
X145962952Y-58850086D02*
X146010572Y-58897705D01*
X146010572Y-58897705D02*
X146058191Y-58992943D01*
X146058191Y-58992943D02*
X146058191Y-59373895D01*
X146058191Y-59373895D02*
X145058191Y-59373895D01*
X145058191Y-59373895D02*
X145058191Y-59040562D01*
X145058191Y-59040562D02*
X145105810Y-58945324D01*
X145105810Y-58945324D02*
X145153429Y-58897705D01*
X145153429Y-58897705D02*
X145248667Y-58850086D01*
X145248667Y-58850086D02*
X145343905Y-58850086D01*
X145343905Y-58850086D02*
X145439143Y-58897705D01*
X145439143Y-58897705D02*
X145486762Y-58945324D01*
X145486762Y-58945324D02*
X145534381Y-59040562D01*
X145534381Y-59040562D02*
X145534381Y-59373895D01*
X145391524Y-57945324D02*
X146058191Y-57945324D01*
X145391524Y-58373895D02*
X145915333Y-58373895D01*
X145915333Y-58373895D02*
X146010572Y-58326276D01*
X146010572Y-58326276D02*
X146058191Y-58231038D01*
X146058191Y-58231038D02*
X146058191Y-58088181D01*
X146058191Y-58088181D02*
X146010572Y-57992943D01*
X146010572Y-57992943D02*
X145962952Y-57945324D01*
X146010572Y-57516752D02*
X146058191Y-57421514D01*
X146058191Y-57421514D02*
X146058191Y-57231038D01*
X146058191Y-57231038D02*
X146010572Y-57135800D01*
X146010572Y-57135800D02*
X145915333Y-57088181D01*
X145915333Y-57088181D02*
X145867714Y-57088181D01*
X145867714Y-57088181D02*
X145772476Y-57135800D01*
X145772476Y-57135800D02*
X145724857Y-57231038D01*
X145724857Y-57231038D02*
X145724857Y-57373895D01*
X145724857Y-57373895D02*
X145677238Y-57469133D01*
X145677238Y-57469133D02*
X145582000Y-57516752D01*
X145582000Y-57516752D02*
X145534381Y-57516752D01*
X145534381Y-57516752D02*
X145439143Y-57469133D01*
X145439143Y-57469133D02*
X145391524Y-57373895D01*
X145391524Y-57373895D02*
X145391524Y-57231038D01*
X145391524Y-57231038D02*
X145439143Y-57135800D01*
X147668135Y-62469134D02*
X147191944Y-62802467D01*
X147668135Y-63040562D02*
X146668135Y-63040562D01*
X146668135Y-63040562D02*
X146668135Y-62659610D01*
X146668135Y-62659610D02*
X146715754Y-62564372D01*
X146715754Y-62564372D02*
X146763373Y-62516753D01*
X146763373Y-62516753D02*
X146858611Y-62469134D01*
X146858611Y-62469134D02*
X147001468Y-62469134D01*
X147001468Y-62469134D02*
X147096706Y-62516753D01*
X147096706Y-62516753D02*
X147144325Y-62564372D01*
X147144325Y-62564372D02*
X147191944Y-62659610D01*
X147191944Y-62659610D02*
X147191944Y-63040562D01*
X147620516Y-61659610D02*
X147668135Y-61754848D01*
X147668135Y-61754848D02*
X147668135Y-61945324D01*
X147668135Y-61945324D02*
X147620516Y-62040562D01*
X147620516Y-62040562D02*
X147525277Y-62088181D01*
X147525277Y-62088181D02*
X147144325Y-62088181D01*
X147144325Y-62088181D02*
X147049087Y-62040562D01*
X147049087Y-62040562D02*
X147001468Y-61945324D01*
X147001468Y-61945324D02*
X147001468Y-61754848D01*
X147001468Y-61754848D02*
X147049087Y-61659610D01*
X147049087Y-61659610D02*
X147144325Y-61611991D01*
X147144325Y-61611991D02*
X147239563Y-61611991D01*
X147239563Y-61611991D02*
X147334801Y-62088181D01*
X147620516Y-61231038D02*
X147668135Y-61135800D01*
X147668135Y-61135800D02*
X147668135Y-60945324D01*
X147668135Y-60945324D02*
X147620516Y-60850086D01*
X147620516Y-60850086D02*
X147525277Y-60802467D01*
X147525277Y-60802467D02*
X147477658Y-60802467D01*
X147477658Y-60802467D02*
X147382420Y-60850086D01*
X147382420Y-60850086D02*
X147334801Y-60945324D01*
X147334801Y-60945324D02*
X147334801Y-61088181D01*
X147334801Y-61088181D02*
X147287182Y-61183419D01*
X147287182Y-61183419D02*
X147191944Y-61231038D01*
X147191944Y-61231038D02*
X147144325Y-61231038D01*
X147144325Y-61231038D02*
X147049087Y-61183419D01*
X147049087Y-61183419D02*
X147001468Y-61088181D01*
X147001468Y-61088181D02*
X147001468Y-60945324D01*
X147001468Y-60945324D02*
X147049087Y-60850086D01*
X147668135Y-60373895D02*
X147001468Y-60373895D01*
X146668135Y-60373895D02*
X146715754Y-60421514D01*
X146715754Y-60421514D02*
X146763373Y-60373895D01*
X146763373Y-60373895D02*
X146715754Y-60326276D01*
X146715754Y-60326276D02*
X146668135Y-60373895D01*
X146668135Y-60373895D02*
X146763373Y-60373895D01*
X147620516Y-59945324D02*
X147668135Y-59850086D01*
X147668135Y-59850086D02*
X147668135Y-59659610D01*
X147668135Y-59659610D02*
X147620516Y-59564372D01*
X147620516Y-59564372D02*
X147525277Y-59516753D01*
X147525277Y-59516753D02*
X147477658Y-59516753D01*
X147477658Y-59516753D02*
X147382420Y-59564372D01*
X147382420Y-59564372D02*
X147334801Y-59659610D01*
X147334801Y-59659610D02*
X147334801Y-59802467D01*
X147334801Y-59802467D02*
X147287182Y-59897705D01*
X147287182Y-59897705D02*
X147191944Y-59945324D01*
X147191944Y-59945324D02*
X147144325Y-59945324D01*
X147144325Y-59945324D02*
X147049087Y-59897705D01*
X147049087Y-59897705D02*
X147001468Y-59802467D01*
X147001468Y-59802467D02*
X147001468Y-59659610D01*
X147001468Y-59659610D02*
X147049087Y-59564372D01*
X147001468Y-59231038D02*
X147001468Y-58850086D01*
X146668135Y-59088181D02*
X147525277Y-59088181D01*
X147525277Y-59088181D02*
X147620516Y-59040562D01*
X147620516Y-59040562D02*
X147668135Y-58945324D01*
X147668135Y-58945324D02*
X147668135Y-58850086D01*
X147668135Y-58373895D02*
X147620516Y-58469133D01*
X147620516Y-58469133D02*
X147572896Y-58516752D01*
X147572896Y-58516752D02*
X147477658Y-58564371D01*
X147477658Y-58564371D02*
X147191944Y-58564371D01*
X147191944Y-58564371D02*
X147096706Y-58516752D01*
X147096706Y-58516752D02*
X147049087Y-58469133D01*
X147049087Y-58469133D02*
X147001468Y-58373895D01*
X147001468Y-58373895D02*
X147001468Y-58231038D01*
X147001468Y-58231038D02*
X147049087Y-58135800D01*
X147049087Y-58135800D02*
X147096706Y-58088181D01*
X147096706Y-58088181D02*
X147191944Y-58040562D01*
X147191944Y-58040562D02*
X147477658Y-58040562D01*
X147477658Y-58040562D02*
X147572896Y-58088181D01*
X147572896Y-58088181D02*
X147620516Y-58135800D01*
X147620516Y-58135800D02*
X147668135Y-58231038D01*
X147668135Y-58231038D02*
X147668135Y-58373895D01*
X147668135Y-57611990D02*
X147001468Y-57611990D01*
X147191944Y-57611990D02*
X147096706Y-57564371D01*
X147096706Y-57564371D02*
X147049087Y-57516752D01*
X147049087Y-57516752D02*
X147001468Y-57421514D01*
X147001468Y-57421514D02*
X147001468Y-57326276D01*
X177835781Y-96168395D02*
X178026257Y-96168395D01*
X178026257Y-96168395D02*
X178121495Y-96216014D01*
X178121495Y-96216014D02*
X178216733Y-96311252D01*
X178216733Y-96311252D02*
X178264352Y-96501728D01*
X178264352Y-96501728D02*
X178264352Y-96835061D01*
X178264352Y-96835061D02*
X178216733Y-97025537D01*
X178216733Y-97025537D02*
X178121495Y-97120776D01*
X178121495Y-97120776D02*
X178026257Y-97168395D01*
X178026257Y-97168395D02*
X177835781Y-97168395D01*
X177835781Y-97168395D02*
X177740543Y-97120776D01*
X177740543Y-97120776D02*
X177645305Y-97025537D01*
X177645305Y-97025537D02*
X177597686Y-96835061D01*
X177597686Y-96835061D02*
X177597686Y-96501728D01*
X177597686Y-96501728D02*
X177645305Y-96311252D01*
X177645305Y-96311252D02*
X177740543Y-96216014D01*
X177740543Y-96216014D02*
X177835781Y-96168395D01*
X179121495Y-96501728D02*
X179121495Y-97168395D01*
X178692924Y-96501728D02*
X178692924Y-97025537D01*
X178692924Y-97025537D02*
X178740543Y-97120776D01*
X178740543Y-97120776D02*
X178835781Y-97168395D01*
X178835781Y-97168395D02*
X178978638Y-97168395D01*
X178978638Y-97168395D02*
X179073876Y-97120776D01*
X179073876Y-97120776D02*
X179121495Y-97073156D01*
X179454829Y-96501728D02*
X179835781Y-96501728D01*
X179597686Y-96168395D02*
X179597686Y-97025537D01*
X179597686Y-97025537D02*
X179645305Y-97120776D01*
X179645305Y-97120776D02*
X179740543Y-97168395D01*
X179740543Y-97168395D02*
X179835781Y-97168395D01*
X180883401Y-96263633D02*
X180931020Y-96216014D01*
X180931020Y-96216014D02*
X181026258Y-96168395D01*
X181026258Y-96168395D02*
X181264353Y-96168395D01*
X181264353Y-96168395D02*
X181359591Y-96216014D01*
X181359591Y-96216014D02*
X181407210Y-96263633D01*
X181407210Y-96263633D02*
X181454829Y-96358871D01*
X181454829Y-96358871D02*
X181454829Y-96454109D01*
X181454829Y-96454109D02*
X181407210Y-96596966D01*
X181407210Y-96596966D02*
X180835782Y-97168395D01*
X180835782Y-97168395D02*
X181454829Y-97168395D01*
X177986653Y-101423794D02*
X178177129Y-101423794D01*
X178177129Y-101423794D02*
X178272367Y-101471413D01*
X178272367Y-101471413D02*
X178367605Y-101566651D01*
X178367605Y-101566651D02*
X178415224Y-101757127D01*
X178415224Y-101757127D02*
X178415224Y-102090460D01*
X178415224Y-102090460D02*
X178367605Y-102280936D01*
X178367605Y-102280936D02*
X178272367Y-102376175D01*
X178272367Y-102376175D02*
X178177129Y-102423794D01*
X178177129Y-102423794D02*
X177986653Y-102423794D01*
X177986653Y-102423794D02*
X177891415Y-102376175D01*
X177891415Y-102376175D02*
X177796177Y-102280936D01*
X177796177Y-102280936D02*
X177748558Y-102090460D01*
X177748558Y-102090460D02*
X177748558Y-101757127D01*
X177748558Y-101757127D02*
X177796177Y-101566651D01*
X177796177Y-101566651D02*
X177891415Y-101471413D01*
X177891415Y-101471413D02*
X177986653Y-101423794D01*
X179272367Y-101757127D02*
X179272367Y-102423794D01*
X178843796Y-101757127D02*
X178843796Y-102280936D01*
X178843796Y-102280936D02*
X178891415Y-102376175D01*
X178891415Y-102376175D02*
X178986653Y-102423794D01*
X178986653Y-102423794D02*
X179129510Y-102423794D01*
X179129510Y-102423794D02*
X179224748Y-102376175D01*
X179224748Y-102376175D02*
X179272367Y-102328555D01*
X179605701Y-101757127D02*
X179986653Y-101757127D01*
X179748558Y-101423794D02*
X179748558Y-102280936D01*
X179748558Y-102280936D02*
X179796177Y-102376175D01*
X179796177Y-102376175D02*
X179891415Y-102423794D01*
X179891415Y-102423794D02*
X179986653Y-102423794D01*
X181605701Y-102423794D02*
X181034273Y-102423794D01*
X181319987Y-102423794D02*
X181319987Y-101423794D01*
X181319987Y-101423794D02*
X181224749Y-101566651D01*
X181224749Y-101566651D02*
X181129511Y-101661889D01*
X181129511Y-101661889D02*
X181034273Y-101709508D01*
D11*
X158985177Y-61738192D02*
X158947081Y-61776288D01*
X158947081Y-61776288D02*
X158832796Y-61814383D01*
X158832796Y-61814383D02*
X158756605Y-61814383D01*
X158756605Y-61814383D02*
X158642319Y-61776288D01*
X158642319Y-61776288D02*
X158566129Y-61700097D01*
X158566129Y-61700097D02*
X158528034Y-61623907D01*
X158528034Y-61623907D02*
X158489938Y-61471526D01*
X158489938Y-61471526D02*
X158489938Y-61357240D01*
X158489938Y-61357240D02*
X158528034Y-61204859D01*
X158528034Y-61204859D02*
X158566129Y-61128668D01*
X158566129Y-61128668D02*
X158642319Y-61052478D01*
X158642319Y-61052478D02*
X158756605Y-61014383D01*
X158756605Y-61014383D02*
X158832796Y-61014383D01*
X158832796Y-61014383D02*
X158947081Y-61052478D01*
X158947081Y-61052478D02*
X158985177Y-61090573D01*
X159328034Y-61814383D02*
X159328034Y-61014383D01*
X159328034Y-61395335D02*
X159785177Y-61395335D01*
X159785177Y-61814383D02*
X159785177Y-61014383D01*
D10*
X177826354Y-91214744D02*
X178016830Y-91214744D01*
X178016830Y-91214744D02*
X178112068Y-91262363D01*
X178112068Y-91262363D02*
X178207306Y-91357601D01*
X178207306Y-91357601D02*
X178254925Y-91548077D01*
X178254925Y-91548077D02*
X178254925Y-91881410D01*
X178254925Y-91881410D02*
X178207306Y-92071886D01*
X178207306Y-92071886D02*
X178112068Y-92167125D01*
X178112068Y-92167125D02*
X178016830Y-92214744D01*
X178016830Y-92214744D02*
X177826354Y-92214744D01*
X177826354Y-92214744D02*
X177731116Y-92167125D01*
X177731116Y-92167125D02*
X177635878Y-92071886D01*
X177635878Y-92071886D02*
X177588259Y-91881410D01*
X177588259Y-91881410D02*
X177588259Y-91548077D01*
X177588259Y-91548077D02*
X177635878Y-91357601D01*
X177635878Y-91357601D02*
X177731116Y-91262363D01*
X177731116Y-91262363D02*
X177826354Y-91214744D01*
X179112068Y-91548077D02*
X179112068Y-92214744D01*
X178683497Y-91548077D02*
X178683497Y-92071886D01*
X178683497Y-92071886D02*
X178731116Y-92167125D01*
X178731116Y-92167125D02*
X178826354Y-92214744D01*
X178826354Y-92214744D02*
X178969211Y-92214744D01*
X178969211Y-92214744D02*
X179064449Y-92167125D01*
X179064449Y-92167125D02*
X179112068Y-92119505D01*
X179445402Y-91548077D02*
X179826354Y-91548077D01*
X179588259Y-91214744D02*
X179588259Y-92071886D01*
X179588259Y-92071886D02*
X179635878Y-92167125D01*
X179635878Y-92167125D02*
X179731116Y-92214744D01*
X179731116Y-92214744D02*
X179826354Y-92214744D01*
X180826355Y-91214744D02*
X181445402Y-91214744D01*
X181445402Y-91214744D02*
X181112069Y-91595696D01*
X181112069Y-91595696D02*
X181254926Y-91595696D01*
X181254926Y-91595696D02*
X181350164Y-91643315D01*
X181350164Y-91643315D02*
X181397783Y-91690934D01*
X181397783Y-91690934D02*
X181445402Y-91786172D01*
X181445402Y-91786172D02*
X181445402Y-92024267D01*
X181445402Y-92024267D02*
X181397783Y-92119505D01*
X181397783Y-92119505D02*
X181350164Y-92167125D01*
X181350164Y-92167125D02*
X181254926Y-92214744D01*
X181254926Y-92214744D02*
X180969212Y-92214744D01*
X180969212Y-92214744D02*
X180873974Y-92167125D01*
X180873974Y-92167125D02*
X180826355Y-92119505D01*
D11*
X159064918Y-59026987D02*
X159026822Y-59065083D01*
X159026822Y-59065083D02*
X158912537Y-59103178D01*
X158912537Y-59103178D02*
X158836346Y-59103178D01*
X158836346Y-59103178D02*
X158722060Y-59065083D01*
X158722060Y-59065083D02*
X158645870Y-58988892D01*
X158645870Y-58988892D02*
X158607775Y-58912702D01*
X158607775Y-58912702D02*
X158569679Y-58760321D01*
X158569679Y-58760321D02*
X158569679Y-58646035D01*
X158569679Y-58646035D02*
X158607775Y-58493654D01*
X158607775Y-58493654D02*
X158645870Y-58417463D01*
X158645870Y-58417463D02*
X158722060Y-58341273D01*
X158722060Y-58341273D02*
X158836346Y-58303178D01*
X158836346Y-58303178D02*
X158912537Y-58303178D01*
X158912537Y-58303178D02*
X159026822Y-58341273D01*
X159026822Y-58341273D02*
X159064918Y-58379368D01*
X159788727Y-59103178D02*
X159407775Y-59103178D01*
X159407775Y-59103178D02*
X159407775Y-58303178D01*
D10*
X150419868Y-78458080D02*
X150467487Y-78315223D01*
X150467487Y-78315223D02*
X150467487Y-78077128D01*
X150467487Y-78077128D02*
X150419868Y-77981890D01*
X150419868Y-77981890D02*
X150372248Y-77934271D01*
X150372248Y-77934271D02*
X150277010Y-77886652D01*
X150277010Y-77886652D02*
X150181772Y-77886652D01*
X150181772Y-77886652D02*
X150086534Y-77934271D01*
X150086534Y-77934271D02*
X150038915Y-77981890D01*
X150038915Y-77981890D02*
X149991296Y-78077128D01*
X149991296Y-78077128D02*
X149943677Y-78267604D01*
X149943677Y-78267604D02*
X149896058Y-78362842D01*
X149896058Y-78362842D02*
X149848439Y-78410461D01*
X149848439Y-78410461D02*
X149753201Y-78458080D01*
X149753201Y-78458080D02*
X149657963Y-78458080D01*
X149657963Y-78458080D02*
X149562725Y-78410461D01*
X149562725Y-78410461D02*
X149515106Y-78362842D01*
X149515106Y-78362842D02*
X149467487Y-78267604D01*
X149467487Y-78267604D02*
X149467487Y-78029509D01*
X149467487Y-78029509D02*
X149515106Y-77886652D01*
X150372248Y-76886652D02*
X150419868Y-76934271D01*
X150419868Y-76934271D02*
X150467487Y-77077128D01*
X150467487Y-77077128D02*
X150467487Y-77172366D01*
X150467487Y-77172366D02*
X150419868Y-77315223D01*
X150419868Y-77315223D02*
X150324629Y-77410461D01*
X150324629Y-77410461D02*
X150229391Y-77458080D01*
X150229391Y-77458080D02*
X150038915Y-77505699D01*
X150038915Y-77505699D02*
X149896058Y-77505699D01*
X149896058Y-77505699D02*
X149705582Y-77458080D01*
X149705582Y-77458080D02*
X149610344Y-77410461D01*
X149610344Y-77410461D02*
X149515106Y-77315223D01*
X149515106Y-77315223D02*
X149467487Y-77172366D01*
X149467487Y-77172366D02*
X149467487Y-77077128D01*
X149467487Y-77077128D02*
X149515106Y-76934271D01*
X149515106Y-76934271D02*
X149562725Y-76886652D01*
X150467487Y-76458080D02*
X149467487Y-76458080D01*
X150467487Y-75886652D02*
X149896058Y-76315223D01*
X149467487Y-75886652D02*
X150038915Y-76458080D01*
D11*
X145611056Y-122262439D02*
X145534866Y-122224344D01*
X145534866Y-122224344D02*
X145420580Y-122224344D01*
X145420580Y-122224344D02*
X145306294Y-122262439D01*
X145306294Y-122262439D02*
X145230104Y-122338629D01*
X145230104Y-122338629D02*
X145192009Y-122414820D01*
X145192009Y-122414820D02*
X145153913Y-122567201D01*
X145153913Y-122567201D02*
X145153913Y-122681487D01*
X145153913Y-122681487D02*
X145192009Y-122833868D01*
X145192009Y-122833868D02*
X145230104Y-122910058D01*
X145230104Y-122910058D02*
X145306294Y-122986249D01*
X145306294Y-122986249D02*
X145420580Y-123024344D01*
X145420580Y-123024344D02*
X145496771Y-123024344D01*
X145496771Y-123024344D02*
X145611056Y-122986249D01*
X145611056Y-122986249D02*
X145649152Y-122948153D01*
X145649152Y-122948153D02*
X145649152Y-122681487D01*
X145649152Y-122681487D02*
X145496771Y-122681487D01*
X145992009Y-123024344D02*
X145992009Y-122224344D01*
X145992009Y-122224344D02*
X146449152Y-123024344D01*
X146449152Y-123024344D02*
X146449152Y-122224344D01*
X146830104Y-123024344D02*
X146830104Y-122224344D01*
X146830104Y-122224344D02*
X147020580Y-122224344D01*
X147020580Y-122224344D02*
X147134866Y-122262439D01*
X147134866Y-122262439D02*
X147211056Y-122338629D01*
X147211056Y-122338629D02*
X147249151Y-122414820D01*
X147249151Y-122414820D02*
X147287247Y-122567201D01*
X147287247Y-122567201D02*
X147287247Y-122681487D01*
X147287247Y-122681487D02*
X147249151Y-122833868D01*
X147249151Y-122833868D02*
X147211056Y-122910058D01*
X147211056Y-122910058D02*
X147134866Y-122986249D01*
X147134866Y-122986249D02*
X147020580Y-123024344D01*
X147020580Y-123024344D02*
X146830104Y-123024344D01*
X133025328Y-123051094D02*
X132758661Y-122670141D01*
X132568185Y-123051094D02*
X132568185Y-122251094D01*
X132568185Y-122251094D02*
X132872947Y-122251094D01*
X132872947Y-122251094D02*
X132949137Y-122289189D01*
X132949137Y-122289189D02*
X132987232Y-122327284D01*
X132987232Y-122327284D02*
X133025328Y-122403475D01*
X133025328Y-122403475D02*
X133025328Y-122517760D01*
X133025328Y-122517760D02*
X132987232Y-122593951D01*
X132987232Y-122593951D02*
X132949137Y-122632046D01*
X132949137Y-122632046D02*
X132872947Y-122670141D01*
X132872947Y-122670141D02*
X132568185Y-122670141D01*
X133330089Y-123012999D02*
X133444375Y-123051094D01*
X133444375Y-123051094D02*
X133634851Y-123051094D01*
X133634851Y-123051094D02*
X133711042Y-123012999D01*
X133711042Y-123012999D02*
X133749137Y-122974903D01*
X133749137Y-122974903D02*
X133787232Y-122898713D01*
X133787232Y-122898713D02*
X133787232Y-122822522D01*
X133787232Y-122822522D02*
X133749137Y-122746332D01*
X133749137Y-122746332D02*
X133711042Y-122708237D01*
X133711042Y-122708237D02*
X133634851Y-122670141D01*
X133634851Y-122670141D02*
X133482470Y-122632046D01*
X133482470Y-122632046D02*
X133406280Y-122593951D01*
X133406280Y-122593951D02*
X133368185Y-122555856D01*
X133368185Y-122555856D02*
X133330089Y-122479665D01*
X133330089Y-122479665D02*
X133330089Y-122403475D01*
X133330089Y-122403475D02*
X133368185Y-122327284D01*
X133368185Y-122327284D02*
X133406280Y-122289189D01*
X133406280Y-122289189D02*
X133482470Y-122251094D01*
X133482470Y-122251094D02*
X133672947Y-122251094D01*
X133672947Y-122251094D02*
X133787232Y-122289189D01*
X134015804Y-122251094D02*
X134472947Y-122251094D01*
X134244375Y-123051094D02*
X134244375Y-122251094D01*
X141028495Y-122251094D02*
X140647543Y-122251094D01*
X140647543Y-122251094D02*
X140609447Y-122632046D01*
X140609447Y-122632046D02*
X140647543Y-122593951D01*
X140647543Y-122593951D02*
X140723733Y-122555856D01*
X140723733Y-122555856D02*
X140914209Y-122555856D01*
X140914209Y-122555856D02*
X140990400Y-122593951D01*
X140990400Y-122593951D02*
X141028495Y-122632046D01*
X141028495Y-122632046D02*
X141066590Y-122708237D01*
X141066590Y-122708237D02*
X141066590Y-122898713D01*
X141066590Y-122898713D02*
X141028495Y-122974903D01*
X141028495Y-122974903D02*
X140990400Y-123012999D01*
X140990400Y-123012999D02*
X140914209Y-123051094D01*
X140914209Y-123051094D02*
X140723733Y-123051094D01*
X140723733Y-123051094D02*
X140647543Y-123012999D01*
X140647543Y-123012999D02*
X140609447Y-122974903D01*
X141295162Y-122251094D02*
X141561829Y-123051094D01*
X141561829Y-123051094D02*
X141828495Y-122251094D01*
D10*
X177756017Y-82252955D02*
X177756017Y-81252955D01*
X178232207Y-81586288D02*
X178232207Y-82252955D01*
X178232207Y-81681526D02*
X178279826Y-81633907D01*
X178279826Y-81633907D02*
X178375064Y-81586288D01*
X178375064Y-81586288D02*
X178517921Y-81586288D01*
X178517921Y-81586288D02*
X178613159Y-81633907D01*
X178613159Y-81633907D02*
X178660778Y-81729145D01*
X178660778Y-81729145D02*
X178660778Y-82252955D01*
X180422683Y-82252955D02*
X179851255Y-82252955D01*
X180136969Y-82252955D02*
X180136969Y-81252955D01*
X180136969Y-81252955D02*
X180041731Y-81395812D01*
X180041731Y-81395812D02*
X179946493Y-81491050D01*
X179946493Y-81491050D02*
X179851255Y-81538669D01*
X144268809Y-68393689D02*
X143268809Y-68393689D01*
X143268809Y-68393689D02*
X143983094Y-68060356D01*
X143983094Y-68060356D02*
X143268809Y-67727023D01*
X143268809Y-67727023D02*
X144268809Y-67727023D01*
X143268809Y-67060356D02*
X143268809Y-66869880D01*
X143268809Y-66869880D02*
X143316428Y-66774642D01*
X143316428Y-66774642D02*
X143411666Y-66679404D01*
X143411666Y-66679404D02*
X143602142Y-66631785D01*
X143602142Y-66631785D02*
X143935475Y-66631785D01*
X143935475Y-66631785D02*
X144125951Y-66679404D01*
X144125951Y-66679404D02*
X144221190Y-66774642D01*
X144221190Y-66774642D02*
X144268809Y-66869880D01*
X144268809Y-66869880D02*
X144268809Y-67060356D01*
X144268809Y-67060356D02*
X144221190Y-67155594D01*
X144221190Y-67155594D02*
X144125951Y-67250832D01*
X144125951Y-67250832D02*
X143935475Y-67298451D01*
X143935475Y-67298451D02*
X143602142Y-67298451D01*
X143602142Y-67298451D02*
X143411666Y-67250832D01*
X143411666Y-67250832D02*
X143316428Y-67155594D01*
X143316428Y-67155594D02*
X143268809Y-67060356D01*
X144221190Y-66250832D02*
X144268809Y-66107975D01*
X144268809Y-66107975D02*
X144268809Y-65869880D01*
X144268809Y-65869880D02*
X144221190Y-65774642D01*
X144221190Y-65774642D02*
X144173570Y-65727023D01*
X144173570Y-65727023D02*
X144078332Y-65679404D01*
X144078332Y-65679404D02*
X143983094Y-65679404D01*
X143983094Y-65679404D02*
X143887856Y-65727023D01*
X143887856Y-65727023D02*
X143840237Y-65774642D01*
X143840237Y-65774642D02*
X143792618Y-65869880D01*
X143792618Y-65869880D02*
X143744999Y-66060356D01*
X143744999Y-66060356D02*
X143697380Y-66155594D01*
X143697380Y-66155594D02*
X143649761Y-66203213D01*
X143649761Y-66203213D02*
X143554523Y-66250832D01*
X143554523Y-66250832D02*
X143459285Y-66250832D01*
X143459285Y-66250832D02*
X143364047Y-66203213D01*
X143364047Y-66203213D02*
X143316428Y-66155594D01*
X143316428Y-66155594D02*
X143268809Y-66060356D01*
X143268809Y-66060356D02*
X143268809Y-65822261D01*
X143268809Y-65822261D02*
X143316428Y-65679404D01*
X144268809Y-65250832D02*
X143268809Y-65250832D01*
D11*
X158867340Y-63444718D02*
X158791150Y-63406623D01*
X158791150Y-63406623D02*
X158676864Y-63406623D01*
X158676864Y-63406623D02*
X158562578Y-63444718D01*
X158562578Y-63444718D02*
X158486388Y-63520908D01*
X158486388Y-63520908D02*
X158448293Y-63597099D01*
X158448293Y-63597099D02*
X158410197Y-63749480D01*
X158410197Y-63749480D02*
X158410197Y-63863766D01*
X158410197Y-63863766D02*
X158448293Y-64016147D01*
X158448293Y-64016147D02*
X158486388Y-64092337D01*
X158486388Y-64092337D02*
X158562578Y-64168528D01*
X158562578Y-64168528D02*
X158676864Y-64206623D01*
X158676864Y-64206623D02*
X158753055Y-64206623D01*
X158753055Y-64206623D02*
X158867340Y-64168528D01*
X158867340Y-64168528D02*
X158905436Y-64130432D01*
X158905436Y-64130432D02*
X158905436Y-63863766D01*
X158905436Y-63863766D02*
X158753055Y-63863766D01*
X159248293Y-64206623D02*
X159248293Y-63406623D01*
X159248293Y-63406623D02*
X159705436Y-64206623D01*
X159705436Y-64206623D02*
X159705436Y-63406623D01*
X160086388Y-64206623D02*
X160086388Y-63406623D01*
X160086388Y-63406623D02*
X160276864Y-63406623D01*
X160276864Y-63406623D02*
X160391150Y-63444718D01*
X160391150Y-63444718D02*
X160467340Y-63520908D01*
X160467340Y-63520908D02*
X160505435Y-63597099D01*
X160505435Y-63597099D02*
X160543531Y-63749480D01*
X160543531Y-63749480D02*
X160543531Y-63863766D01*
X160543531Y-63863766D02*
X160505435Y-64016147D01*
X160505435Y-64016147D02*
X160467340Y-64092337D01*
X160467340Y-64092337D02*
X160391150Y-64168528D01*
X160391150Y-64168528D02*
X160276864Y-64206623D01*
X160276864Y-64206623D02*
X160086388Y-64206623D01*
X138490776Y-123038588D02*
X138224109Y-122657635D01*
X138033633Y-123038588D02*
X138033633Y-122238588D01*
X138033633Y-122238588D02*
X138338395Y-122238588D01*
X138338395Y-122238588D02*
X138414585Y-122276683D01*
X138414585Y-122276683D02*
X138452680Y-122314778D01*
X138452680Y-122314778D02*
X138490776Y-122390969D01*
X138490776Y-122390969D02*
X138490776Y-122505254D01*
X138490776Y-122505254D02*
X138452680Y-122581445D01*
X138452680Y-122581445D02*
X138414585Y-122619540D01*
X138414585Y-122619540D02*
X138338395Y-122657635D01*
X138338395Y-122657635D02*
X138033633Y-122657635D01*
X138757442Y-122238588D02*
X139290776Y-123038588D01*
X139290776Y-122238588D02*
X138757442Y-123038588D01*
D10*
X127440402Y-87108479D02*
X127345164Y-87060860D01*
X127345164Y-87060860D02*
X127202307Y-87060860D01*
X127202307Y-87060860D02*
X127059450Y-87108479D01*
X127059450Y-87108479D02*
X126964212Y-87203717D01*
X126964212Y-87203717D02*
X126916593Y-87298955D01*
X126916593Y-87298955D02*
X126868974Y-87489431D01*
X126868974Y-87489431D02*
X126868974Y-87632288D01*
X126868974Y-87632288D02*
X126916593Y-87822764D01*
X126916593Y-87822764D02*
X126964212Y-87918002D01*
X126964212Y-87918002D02*
X127059450Y-88013241D01*
X127059450Y-88013241D02*
X127202307Y-88060860D01*
X127202307Y-88060860D02*
X127297545Y-88060860D01*
X127297545Y-88060860D02*
X127440402Y-88013241D01*
X127440402Y-88013241D02*
X127488021Y-87965621D01*
X127488021Y-87965621D02*
X127488021Y-87632288D01*
X127488021Y-87632288D02*
X127297545Y-87632288D01*
X127916593Y-88060860D02*
X127916593Y-87060860D01*
X127916593Y-87060860D02*
X128488021Y-88060860D01*
X128488021Y-88060860D02*
X128488021Y-87060860D01*
X128964212Y-88060860D02*
X128964212Y-87060860D01*
X128964212Y-87060860D02*
X129202307Y-87060860D01*
X129202307Y-87060860D02*
X129345164Y-87108479D01*
X129345164Y-87108479D02*
X129440402Y-87203717D01*
X129440402Y-87203717D02*
X129488021Y-87298955D01*
X129488021Y-87298955D02*
X129535640Y-87489431D01*
X129535640Y-87489431D02*
X129535640Y-87632288D01*
X129535640Y-87632288D02*
X129488021Y-87822764D01*
X129488021Y-87822764D02*
X129440402Y-87918002D01*
X129440402Y-87918002D02*
X129345164Y-88013241D01*
X129345164Y-88013241D02*
X129202307Y-88060860D01*
X129202307Y-88060860D02*
X128964212Y-88060860D01*
D11*
X135493039Y-122263601D02*
X135950182Y-122263601D01*
X135721610Y-123063601D02*
X135721610Y-122263601D01*
X136140658Y-122263601D02*
X136673992Y-123063601D01*
X136673992Y-122263601D02*
X136140658Y-123063601D01*
X158867340Y-66997570D02*
X158410197Y-66997570D01*
X158638769Y-66997570D02*
X158638769Y-66197570D01*
X158638769Y-66197570D02*
X158562578Y-66311855D01*
X158562578Y-66311855D02*
X158486388Y-66388046D01*
X158486388Y-66388046D02*
X158410197Y-66426141D01*
X159172102Y-66273760D02*
X159210198Y-66235665D01*
X159210198Y-66235665D02*
X159286388Y-66197570D01*
X159286388Y-66197570D02*
X159476864Y-66197570D01*
X159476864Y-66197570D02*
X159553055Y-66235665D01*
X159553055Y-66235665D02*
X159591150Y-66273760D01*
X159591150Y-66273760D02*
X159629245Y-66349951D01*
X159629245Y-66349951D02*
X159629245Y-66426141D01*
X159629245Y-66426141D02*
X159591150Y-66540427D01*
X159591150Y-66540427D02*
X159134007Y-66997570D01*
X159134007Y-66997570D02*
X159629245Y-66997570D01*
X159857817Y-66197570D02*
X160124484Y-66997570D01*
X160124484Y-66997570D02*
X160391150Y-66197570D01*
D10*
X144812029Y-124955436D02*
X145288219Y-124955436D01*
X144716791Y-125241151D02*
X145050124Y-124241151D01*
X145050124Y-124241151D02*
X145383457Y-125241151D01*
X145716791Y-125241151D02*
X145716791Y-124241151D01*
X145716791Y-124241151D02*
X146050124Y-124955436D01*
X146050124Y-124955436D02*
X146383457Y-124241151D01*
X146383457Y-124241151D02*
X146383457Y-125241151D01*
X146812029Y-125193532D02*
X146954886Y-125241151D01*
X146954886Y-125241151D02*
X147192981Y-125241151D01*
X147192981Y-125241151D02*
X147288219Y-125193532D01*
X147288219Y-125193532D02*
X147335838Y-125145912D01*
X147335838Y-125145912D02*
X147383457Y-125050674D01*
X147383457Y-125050674D02*
X147383457Y-124955436D01*
X147383457Y-124955436D02*
X147335838Y-124860198D01*
X147335838Y-124860198D02*
X147288219Y-124812579D01*
X147288219Y-124812579D02*
X147192981Y-124764960D01*
X147192981Y-124764960D02*
X147002505Y-124717341D01*
X147002505Y-124717341D02*
X146907267Y-124669722D01*
X146907267Y-124669722D02*
X146859648Y-124622103D01*
X146859648Y-124622103D02*
X146812029Y-124526865D01*
X146812029Y-124526865D02*
X146812029Y-124431627D01*
X146812029Y-124431627D02*
X146859648Y-124336389D01*
X146859648Y-124336389D02*
X146907267Y-124288770D01*
X146907267Y-124288770D02*
X147002505Y-124241151D01*
X147002505Y-124241151D02*
X147240600Y-124241151D01*
X147240600Y-124241151D02*
X147383457Y-124288770D01*
X149145362Y-125145912D02*
X149097743Y-125193532D01*
X149097743Y-125193532D02*
X148954886Y-125241151D01*
X148954886Y-125241151D02*
X148859648Y-125241151D01*
X148859648Y-125241151D02*
X148716791Y-125193532D01*
X148716791Y-125193532D02*
X148621553Y-125098293D01*
X148621553Y-125098293D02*
X148573934Y-125003055D01*
X148573934Y-125003055D02*
X148526315Y-124812579D01*
X148526315Y-124812579D02*
X148526315Y-124669722D01*
X148526315Y-124669722D02*
X148573934Y-124479246D01*
X148573934Y-124479246D02*
X148621553Y-124384008D01*
X148621553Y-124384008D02*
X148716791Y-124288770D01*
X148716791Y-124288770D02*
X148859648Y-124241151D01*
X148859648Y-124241151D02*
X148954886Y-124241151D01*
X148954886Y-124241151D02*
X149097743Y-124288770D01*
X149097743Y-124288770D02*
X149145362Y-124336389D01*
X149526315Y-124955436D02*
X150002505Y-124955436D01*
X149431077Y-125241151D02*
X149764410Y-124241151D01*
X149764410Y-124241151D02*
X150097743Y-125241151D01*
X150431077Y-125241151D02*
X150431077Y-124241151D01*
X150431077Y-124241151D02*
X151002505Y-125241151D01*
X151002505Y-125241151D02*
X151002505Y-124241151D01*
X151812029Y-124717341D02*
X151954886Y-124764960D01*
X151954886Y-124764960D02*
X152002505Y-124812579D01*
X152002505Y-124812579D02*
X152050124Y-124907817D01*
X152050124Y-124907817D02*
X152050124Y-125050674D01*
X152050124Y-125050674D02*
X152002505Y-125145912D01*
X152002505Y-125145912D02*
X151954886Y-125193532D01*
X151954886Y-125193532D02*
X151859648Y-125241151D01*
X151859648Y-125241151D02*
X151478696Y-125241151D01*
X151478696Y-125241151D02*
X151478696Y-124241151D01*
X151478696Y-124241151D02*
X151812029Y-124241151D01*
X151812029Y-124241151D02*
X151907267Y-124288770D01*
X151907267Y-124288770D02*
X151954886Y-124336389D01*
X151954886Y-124336389D02*
X152002505Y-124431627D01*
X152002505Y-124431627D02*
X152002505Y-124526865D01*
X152002505Y-124526865D02*
X151954886Y-124622103D01*
X151954886Y-124622103D02*
X151907267Y-124669722D01*
X151907267Y-124669722D02*
X151812029Y-124717341D01*
X151812029Y-124717341D02*
X151478696Y-124717341D01*
X152907267Y-124574484D02*
X152907267Y-125241151D01*
X152478696Y-124574484D02*
X152478696Y-125098293D01*
X152478696Y-125098293D02*
X152526315Y-125193532D01*
X152526315Y-125193532D02*
X152621553Y-125241151D01*
X152621553Y-125241151D02*
X152764410Y-125241151D01*
X152764410Y-125241151D02*
X152859648Y-125193532D01*
X152859648Y-125193532D02*
X152907267Y-125145912D01*
X153335839Y-125193532D02*
X153431077Y-125241151D01*
X153431077Y-125241151D02*
X153621553Y-125241151D01*
X153621553Y-125241151D02*
X153716791Y-125193532D01*
X153716791Y-125193532D02*
X153764410Y-125098293D01*
X153764410Y-125098293D02*
X153764410Y-125050674D01*
X153764410Y-125050674D02*
X153716791Y-124955436D01*
X153716791Y-124955436D02*
X153621553Y-124907817D01*
X153621553Y-124907817D02*
X153478696Y-124907817D01*
X153478696Y-124907817D02*
X153383458Y-124860198D01*
X153383458Y-124860198D02*
X153335839Y-124764960D01*
X153335839Y-124764960D02*
X153335839Y-124717341D01*
X153335839Y-124717341D02*
X153383458Y-124622103D01*
X153383458Y-124622103D02*
X153478696Y-124574484D01*
X153478696Y-124574484D02*
X153621553Y-124574484D01*
X153621553Y-124574484D02*
X153716791Y-124622103D01*
X145431076Y-126851095D02*
X145097743Y-126374904D01*
X144859648Y-126851095D02*
X144859648Y-125851095D01*
X144859648Y-125851095D02*
X145240600Y-125851095D01*
X145240600Y-125851095D02*
X145335838Y-125898714D01*
X145335838Y-125898714D02*
X145383457Y-125946333D01*
X145383457Y-125946333D02*
X145431076Y-126041571D01*
X145431076Y-126041571D02*
X145431076Y-126184428D01*
X145431076Y-126184428D02*
X145383457Y-126279666D01*
X145383457Y-126279666D02*
X145335838Y-126327285D01*
X145335838Y-126327285D02*
X145240600Y-126374904D01*
X145240600Y-126374904D02*
X144859648Y-126374904D01*
X146383457Y-125898714D02*
X146288219Y-125851095D01*
X146288219Y-125851095D02*
X146145362Y-125851095D01*
X146145362Y-125851095D02*
X146002505Y-125898714D01*
X146002505Y-125898714D02*
X145907267Y-125993952D01*
X145907267Y-125993952D02*
X145859648Y-126089190D01*
X145859648Y-126089190D02*
X145812029Y-126279666D01*
X145812029Y-126279666D02*
X145812029Y-126422523D01*
X145812029Y-126422523D02*
X145859648Y-126612999D01*
X145859648Y-126612999D02*
X145907267Y-126708237D01*
X145907267Y-126708237D02*
X146002505Y-126803476D01*
X146002505Y-126803476D02*
X146145362Y-126851095D01*
X146145362Y-126851095D02*
X146240600Y-126851095D01*
X146240600Y-126851095D02*
X146383457Y-126803476D01*
X146383457Y-126803476D02*
X146431076Y-126755856D01*
X146431076Y-126755856D02*
X146431076Y-126422523D01*
X146431076Y-126422523D02*
X146240600Y-126422523D01*
X147192981Y-126327285D02*
X147335838Y-126374904D01*
X147335838Y-126374904D02*
X147383457Y-126422523D01*
X147383457Y-126422523D02*
X147431076Y-126517761D01*
X147431076Y-126517761D02*
X147431076Y-126660618D01*
X147431076Y-126660618D02*
X147383457Y-126755856D01*
X147383457Y-126755856D02*
X147335838Y-126803476D01*
X147335838Y-126803476D02*
X147240600Y-126851095D01*
X147240600Y-126851095D02*
X146859648Y-126851095D01*
X146859648Y-126851095D02*
X146859648Y-125851095D01*
X146859648Y-125851095D02*
X147192981Y-125851095D01*
X147192981Y-125851095D02*
X147288219Y-125898714D01*
X147288219Y-125898714D02*
X147335838Y-125946333D01*
X147335838Y-125946333D02*
X147383457Y-126041571D01*
X147383457Y-126041571D02*
X147383457Y-126136809D01*
X147383457Y-126136809D02*
X147335838Y-126232047D01*
X147335838Y-126232047D02*
X147288219Y-126279666D01*
X147288219Y-126279666D02*
X147192981Y-126327285D01*
X147192981Y-126327285D02*
X146859648Y-126327285D01*
X148621553Y-126851095D02*
X148621553Y-125851095D01*
X148621553Y-125851095D02*
X149002505Y-125851095D01*
X149002505Y-125851095D02*
X149097743Y-125898714D01*
X149097743Y-125898714D02*
X149145362Y-125946333D01*
X149145362Y-125946333D02*
X149192981Y-126041571D01*
X149192981Y-126041571D02*
X149192981Y-126184428D01*
X149192981Y-126184428D02*
X149145362Y-126279666D01*
X149145362Y-126279666D02*
X149097743Y-126327285D01*
X149097743Y-126327285D02*
X149002505Y-126374904D01*
X149002505Y-126374904D02*
X148621553Y-126374904D01*
X150192981Y-126755856D02*
X150145362Y-126803476D01*
X150145362Y-126803476D02*
X150002505Y-126851095D01*
X150002505Y-126851095D02*
X149907267Y-126851095D01*
X149907267Y-126851095D02*
X149764410Y-126803476D01*
X149764410Y-126803476D02*
X149669172Y-126708237D01*
X149669172Y-126708237D02*
X149621553Y-126612999D01*
X149621553Y-126612999D02*
X149573934Y-126422523D01*
X149573934Y-126422523D02*
X149573934Y-126279666D01*
X149573934Y-126279666D02*
X149621553Y-126089190D01*
X149621553Y-126089190D02*
X149669172Y-125993952D01*
X149669172Y-125993952D02*
X149764410Y-125898714D01*
X149764410Y-125898714D02*
X149907267Y-125851095D01*
X149907267Y-125851095D02*
X150002505Y-125851095D01*
X150002505Y-125851095D02*
X150145362Y-125898714D01*
X150145362Y-125898714D02*
X150192981Y-125946333D01*
X150621553Y-126851095D02*
X150621553Y-125851095D01*
X150621553Y-126327285D02*
X151192981Y-126327285D01*
X151192981Y-126851095D02*
X151192981Y-125851095D01*
X152097743Y-126851095D02*
X152097743Y-126327285D01*
X152097743Y-126327285D02*
X152050124Y-126232047D01*
X152050124Y-126232047D02*
X151954886Y-126184428D01*
X151954886Y-126184428D02*
X151764410Y-126184428D01*
X151764410Y-126184428D02*
X151669172Y-126232047D01*
X152097743Y-126803476D02*
X152002505Y-126851095D01*
X152002505Y-126851095D02*
X151764410Y-126851095D01*
X151764410Y-126851095D02*
X151669172Y-126803476D01*
X151669172Y-126803476D02*
X151621553Y-126708237D01*
X151621553Y-126708237D02*
X151621553Y-126612999D01*
X151621553Y-126612999D02*
X151669172Y-126517761D01*
X151669172Y-126517761D02*
X151764410Y-126470142D01*
X151764410Y-126470142D02*
X152002505Y-126470142D01*
X152002505Y-126470142D02*
X152097743Y-126422523D01*
X152573934Y-126184428D02*
X152573934Y-126851095D01*
X152573934Y-126279666D02*
X152621553Y-126232047D01*
X152621553Y-126232047D02*
X152716791Y-126184428D01*
X152716791Y-126184428D02*
X152859648Y-126184428D01*
X152859648Y-126184428D02*
X152954886Y-126232047D01*
X152954886Y-126232047D02*
X153002505Y-126327285D01*
X153002505Y-126327285D02*
X153002505Y-126851095D01*
X153478696Y-126184428D02*
X153478696Y-126851095D01*
X153478696Y-126279666D02*
X153526315Y-126232047D01*
X153526315Y-126232047D02*
X153621553Y-126184428D01*
X153621553Y-126184428D02*
X153764410Y-126184428D01*
X153764410Y-126184428D02*
X153859648Y-126232047D01*
X153859648Y-126232047D02*
X153907267Y-126327285D01*
X153907267Y-126327285D02*
X153907267Y-126851095D01*
X154764410Y-126803476D02*
X154669172Y-126851095D01*
X154669172Y-126851095D02*
X154478696Y-126851095D01*
X154478696Y-126851095D02*
X154383458Y-126803476D01*
X154383458Y-126803476D02*
X154335839Y-126708237D01*
X154335839Y-126708237D02*
X154335839Y-126327285D01*
X154335839Y-126327285D02*
X154383458Y-126232047D01*
X154383458Y-126232047D02*
X154478696Y-126184428D01*
X154478696Y-126184428D02*
X154669172Y-126184428D01*
X154669172Y-126184428D02*
X154764410Y-126232047D01*
X154764410Y-126232047D02*
X154812029Y-126327285D01*
X154812029Y-126327285D02*
X154812029Y-126422523D01*
X154812029Y-126422523D02*
X154335839Y-126517761D01*
X155383458Y-126851095D02*
X155288220Y-126803476D01*
X155288220Y-126803476D02*
X155240601Y-126708237D01*
X155240601Y-126708237D02*
X155240601Y-125851095D01*
X156383459Y-125851095D02*
X156716792Y-126851095D01*
X156716792Y-126851095D02*
X157050125Y-125851095D01*
X157907268Y-126851095D02*
X157335840Y-126851095D01*
X157621554Y-126851095D02*
X157621554Y-125851095D01*
X157621554Y-125851095D02*
X157526316Y-125993952D01*
X157526316Y-125993952D02*
X157431078Y-126089190D01*
X157431078Y-126089190D02*
X157335840Y-126136809D01*
X158335840Y-126755856D02*
X158383459Y-126803476D01*
X158383459Y-126803476D02*
X158335840Y-126851095D01*
X158335840Y-126851095D02*
X158288221Y-126803476D01*
X158288221Y-126803476D02*
X158335840Y-126755856D01*
X158335840Y-126755856D02*
X158335840Y-126851095D01*
X159002506Y-125851095D02*
X159097744Y-125851095D01*
X159097744Y-125851095D02*
X159192982Y-125898714D01*
X159192982Y-125898714D02*
X159240601Y-125946333D01*
X159240601Y-125946333D02*
X159288220Y-126041571D01*
X159288220Y-126041571D02*
X159335839Y-126232047D01*
X159335839Y-126232047D02*
X159335839Y-126470142D01*
X159335839Y-126470142D02*
X159288220Y-126660618D01*
X159288220Y-126660618D02*
X159240601Y-126755856D01*
X159240601Y-126755856D02*
X159192982Y-126803476D01*
X159192982Y-126803476D02*
X159097744Y-126851095D01*
X159097744Y-126851095D02*
X159002506Y-126851095D01*
X159002506Y-126851095D02*
X158907268Y-126803476D01*
X158907268Y-126803476D02*
X158859649Y-126755856D01*
X158859649Y-126755856D02*
X158812030Y-126660618D01*
X158812030Y-126660618D02*
X158764411Y-126470142D01*
X158764411Y-126470142D02*
X158764411Y-126232047D01*
X158764411Y-126232047D02*
X158812030Y-126041571D01*
X158812030Y-126041571D02*
X158859649Y-125946333D01*
X158859649Y-125946333D02*
X158907268Y-125898714D01*
X158907268Y-125898714D02*
X159002506Y-125851095D01*
X161097744Y-126851095D02*
X160764411Y-126374904D01*
X160526316Y-126851095D02*
X160526316Y-125851095D01*
X160526316Y-125851095D02*
X160907268Y-125851095D01*
X160907268Y-125851095D02*
X161002506Y-125898714D01*
X161002506Y-125898714D02*
X161050125Y-125946333D01*
X161050125Y-125946333D02*
X161097744Y-126041571D01*
X161097744Y-126041571D02*
X161097744Y-126184428D01*
X161097744Y-126184428D02*
X161050125Y-126279666D01*
X161050125Y-126279666D02*
X161002506Y-126327285D01*
X161002506Y-126327285D02*
X160907268Y-126374904D01*
X160907268Y-126374904D02*
X160526316Y-126374904D01*
X161907268Y-126803476D02*
X161812030Y-126851095D01*
X161812030Y-126851095D02*
X161621554Y-126851095D01*
X161621554Y-126851095D02*
X161526316Y-126803476D01*
X161526316Y-126803476D02*
X161478697Y-126708237D01*
X161478697Y-126708237D02*
X161478697Y-126327285D01*
X161478697Y-126327285D02*
X161526316Y-126232047D01*
X161526316Y-126232047D02*
X161621554Y-126184428D01*
X161621554Y-126184428D02*
X161812030Y-126184428D01*
X161812030Y-126184428D02*
X161907268Y-126232047D01*
X161907268Y-126232047D02*
X161954887Y-126327285D01*
X161954887Y-126327285D02*
X161954887Y-126422523D01*
X161954887Y-126422523D02*
X161478697Y-126517761D01*
X162288221Y-126184428D02*
X162526316Y-126851095D01*
X162526316Y-126851095D02*
X162764411Y-126184428D01*
X163859650Y-126565380D02*
X164335840Y-126565380D01*
X163764412Y-126851095D02*
X164097745Y-125851095D01*
X164097745Y-125851095D02*
X164431078Y-126851095D01*
X127871801Y-89691196D02*
X127395611Y-89691196D01*
X127395611Y-89691196D02*
X127347992Y-90167386D01*
X127347992Y-90167386D02*
X127395611Y-90119767D01*
X127395611Y-90119767D02*
X127490849Y-90072148D01*
X127490849Y-90072148D02*
X127728944Y-90072148D01*
X127728944Y-90072148D02*
X127824182Y-90119767D01*
X127824182Y-90119767D02*
X127871801Y-90167386D01*
X127871801Y-90167386D02*
X127919420Y-90262624D01*
X127919420Y-90262624D02*
X127919420Y-90500719D01*
X127919420Y-90500719D02*
X127871801Y-90595957D01*
X127871801Y-90595957D02*
X127824182Y-90643577D01*
X127824182Y-90643577D02*
X127728944Y-90691196D01*
X127728944Y-90691196D02*
X127490849Y-90691196D01*
X127490849Y-90691196D02*
X127395611Y-90643577D01*
X127395611Y-90643577D02*
X127347992Y-90595957D01*
X128205135Y-89691196D02*
X128538468Y-90691196D01*
X128538468Y-90691196D02*
X128871801Y-89691196D01*
X138702322Y-74346403D02*
X138702322Y-73727356D01*
X138702322Y-73727356D02*
X139083274Y-74060689D01*
X139083274Y-74060689D02*
X139083274Y-73917832D01*
X139083274Y-73917832D02*
X139130893Y-73822594D01*
X139130893Y-73822594D02*
X139178512Y-73774975D01*
X139178512Y-73774975D02*
X139273750Y-73727356D01*
X139273750Y-73727356D02*
X139511845Y-73727356D01*
X139511845Y-73727356D02*
X139607083Y-73774975D01*
X139607083Y-73774975D02*
X139654703Y-73822594D01*
X139654703Y-73822594D02*
X139702322Y-73917832D01*
X139702322Y-73917832D02*
X139702322Y-74203546D01*
X139702322Y-74203546D02*
X139654703Y-74298784D01*
X139654703Y-74298784D02*
X139607083Y-74346403D01*
X139416607Y-72584498D02*
X139416607Y-72108308D01*
X139702322Y-72679736D02*
X138702322Y-72346403D01*
X138702322Y-72346403D02*
X139702322Y-72013070D01*
X139702322Y-71679736D02*
X139035655Y-71679736D01*
X139130893Y-71679736D02*
X139083274Y-71632117D01*
X139083274Y-71632117D02*
X139035655Y-71536879D01*
X139035655Y-71536879D02*
X139035655Y-71394022D01*
X139035655Y-71394022D02*
X139083274Y-71298784D01*
X139083274Y-71298784D02*
X139178512Y-71251165D01*
X139178512Y-71251165D02*
X139702322Y-71251165D01*
X139178512Y-71251165D02*
X139083274Y-71203546D01*
X139083274Y-71203546D02*
X139035655Y-71108308D01*
X139035655Y-71108308D02*
X139035655Y-70965451D01*
X139035655Y-70965451D02*
X139083274Y-70870212D01*
X139083274Y-70870212D02*
X139178512Y-70822593D01*
X139178512Y-70822593D02*
X139702322Y-70822593D01*
X139035655Y-70346403D02*
X140035655Y-70346403D01*
X139083274Y-70346403D02*
X139035655Y-70251165D01*
X139035655Y-70251165D02*
X139035655Y-70060689D01*
X139035655Y-70060689D02*
X139083274Y-69965451D01*
X139083274Y-69965451D02*
X139130893Y-69917832D01*
X139130893Y-69917832D02*
X139226131Y-69870213D01*
X139226131Y-69870213D02*
X139511845Y-69870213D01*
X139511845Y-69870213D02*
X139607083Y-69917832D01*
X139607083Y-69917832D02*
X139654703Y-69965451D01*
X139654703Y-69965451D02*
X139702322Y-70060689D01*
X139702322Y-70060689D02*
X139702322Y-70251165D01*
X139702322Y-70251165D02*
X139654703Y-70346403D01*
X177826354Y-86160509D02*
X178016830Y-86160509D01*
X178016830Y-86160509D02*
X178112068Y-86208128D01*
X178112068Y-86208128D02*
X178207306Y-86303366D01*
X178207306Y-86303366D02*
X178254925Y-86493842D01*
X178254925Y-86493842D02*
X178254925Y-86827175D01*
X178254925Y-86827175D02*
X178207306Y-87017651D01*
X178207306Y-87017651D02*
X178112068Y-87112890D01*
X178112068Y-87112890D02*
X178016830Y-87160509D01*
X178016830Y-87160509D02*
X177826354Y-87160509D01*
X177826354Y-87160509D02*
X177731116Y-87112890D01*
X177731116Y-87112890D02*
X177635878Y-87017651D01*
X177635878Y-87017651D02*
X177588259Y-86827175D01*
X177588259Y-86827175D02*
X177588259Y-86493842D01*
X177588259Y-86493842D02*
X177635878Y-86303366D01*
X177635878Y-86303366D02*
X177731116Y-86208128D01*
X177731116Y-86208128D02*
X177826354Y-86160509D01*
X179112068Y-86493842D02*
X179112068Y-87160509D01*
X178683497Y-86493842D02*
X178683497Y-87017651D01*
X178683497Y-87017651D02*
X178731116Y-87112890D01*
X178731116Y-87112890D02*
X178826354Y-87160509D01*
X178826354Y-87160509D02*
X178969211Y-87160509D01*
X178969211Y-87160509D02*
X179064449Y-87112890D01*
X179064449Y-87112890D02*
X179112068Y-87065270D01*
X179445402Y-86493842D02*
X179826354Y-86493842D01*
X179588259Y-86160509D02*
X179588259Y-87017651D01*
X179588259Y-87017651D02*
X179635878Y-87112890D01*
X179635878Y-87112890D02*
X179731116Y-87160509D01*
X179731116Y-87160509D02*
X179826354Y-87160509D01*
X181350164Y-86493842D02*
X181350164Y-87160509D01*
X181112069Y-86112890D02*
X180873974Y-86827175D01*
X180873974Y-86827175D02*
X181493021Y-86827175D01*
X126891081Y-92056423D02*
X127224414Y-93056423D01*
X127224414Y-93056423D02*
X127557747Y-92056423D01*
X127891081Y-93056423D02*
X127891081Y-92056423D01*
X127891081Y-92056423D02*
X128129176Y-92056423D01*
X128129176Y-92056423D02*
X128272033Y-92104042D01*
X128272033Y-92104042D02*
X128367271Y-92199280D01*
X128367271Y-92199280D02*
X128414890Y-92294518D01*
X128414890Y-92294518D02*
X128462509Y-92484994D01*
X128462509Y-92484994D02*
X128462509Y-92627851D01*
X128462509Y-92627851D02*
X128414890Y-92818327D01*
X128414890Y-92818327D02*
X128367271Y-92913565D01*
X128367271Y-92913565D02*
X128272033Y-93008804D01*
X128272033Y-93008804D02*
X128129176Y-93056423D01*
X128129176Y-93056423D02*
X127891081Y-93056423D01*
X129462509Y-92961184D02*
X129414890Y-93008804D01*
X129414890Y-93008804D02*
X129272033Y-93056423D01*
X129272033Y-93056423D02*
X129176795Y-93056423D01*
X129176795Y-93056423D02*
X129033938Y-93008804D01*
X129033938Y-93008804D02*
X128938700Y-92913565D01*
X128938700Y-92913565D02*
X128891081Y-92818327D01*
X128891081Y-92818327D02*
X128843462Y-92627851D01*
X128843462Y-92627851D02*
X128843462Y-92484994D01*
X128843462Y-92484994D02*
X128891081Y-92294518D01*
X128891081Y-92294518D02*
X128938700Y-92199280D01*
X128938700Y-92199280D02*
X129033938Y-92104042D01*
X129033938Y-92104042D02*
X129176795Y-92056423D01*
X129176795Y-92056423D02*
X129272033Y-92056423D01*
X129272033Y-92056423D02*
X129414890Y-92104042D01*
X129414890Y-92104042D02*
X129462509Y-92151661D01*
X149007097Y-68251164D02*
X148007097Y-68251164D01*
X148007097Y-68251164D02*
X148721382Y-67917831D01*
X148721382Y-67917831D02*
X148007097Y-67584498D01*
X148007097Y-67584498D02*
X149007097Y-67584498D01*
X149007097Y-67108307D02*
X148007097Y-67108307D01*
X148959478Y-66679736D02*
X149007097Y-66536879D01*
X149007097Y-66536879D02*
X149007097Y-66298784D01*
X149007097Y-66298784D02*
X148959478Y-66203546D01*
X148959478Y-66203546D02*
X148911858Y-66155927D01*
X148911858Y-66155927D02*
X148816620Y-66108308D01*
X148816620Y-66108308D02*
X148721382Y-66108308D01*
X148721382Y-66108308D02*
X148626144Y-66155927D01*
X148626144Y-66155927D02*
X148578525Y-66203546D01*
X148578525Y-66203546D02*
X148530906Y-66298784D01*
X148530906Y-66298784D02*
X148483287Y-66489260D01*
X148483287Y-66489260D02*
X148435668Y-66584498D01*
X148435668Y-66584498D02*
X148388049Y-66632117D01*
X148388049Y-66632117D02*
X148292811Y-66679736D01*
X148292811Y-66679736D02*
X148197573Y-66679736D01*
X148197573Y-66679736D02*
X148102335Y-66632117D01*
X148102335Y-66632117D02*
X148054716Y-66584498D01*
X148054716Y-66584498D02*
X148007097Y-66489260D01*
X148007097Y-66489260D02*
X148007097Y-66251165D01*
X148007097Y-66251165D02*
X148054716Y-66108308D01*
X148007097Y-65489260D02*
X148007097Y-65298784D01*
X148007097Y-65298784D02*
X148054716Y-65203546D01*
X148054716Y-65203546D02*
X148149954Y-65108308D01*
X148149954Y-65108308D02*
X148340430Y-65060689D01*
X148340430Y-65060689D02*
X148673763Y-65060689D01*
X148673763Y-65060689D02*
X148864239Y-65108308D01*
X148864239Y-65108308D02*
X148959478Y-65203546D01*
X148959478Y-65203546D02*
X149007097Y-65298784D01*
X149007097Y-65298784D02*
X149007097Y-65489260D01*
X149007097Y-65489260D02*
X148959478Y-65584498D01*
X148959478Y-65584498D02*
X148864239Y-65679736D01*
X148864239Y-65679736D02*
X148673763Y-65727355D01*
X148673763Y-65727355D02*
X148340430Y-65727355D01*
X148340430Y-65727355D02*
X148149954Y-65679736D01*
X148149954Y-65679736D02*
X148054716Y-65584498D01*
X148054716Y-65584498D02*
X148007097Y-65489260D01*
X146465340Y-67734202D02*
X145989149Y-68067535D01*
X146465340Y-68305630D02*
X145465340Y-68305630D01*
X145465340Y-68305630D02*
X145465340Y-67924678D01*
X145465340Y-67924678D02*
X145512959Y-67829440D01*
X145512959Y-67829440D02*
X145560578Y-67781821D01*
X145560578Y-67781821D02*
X145655816Y-67734202D01*
X145655816Y-67734202D02*
X145798673Y-67734202D01*
X145798673Y-67734202D02*
X145893911Y-67781821D01*
X145893911Y-67781821D02*
X145941530Y-67829440D01*
X145941530Y-67829440D02*
X145989149Y-67924678D01*
X145989149Y-67924678D02*
X145989149Y-68305630D01*
X145941530Y-67305630D02*
X145941530Y-66972297D01*
X146465340Y-66829440D02*
X146465340Y-67305630D01*
X146465340Y-67305630D02*
X145465340Y-67305630D01*
X145465340Y-67305630D02*
X145465340Y-66829440D01*
X146417721Y-66448487D02*
X146465340Y-66305630D01*
X146465340Y-66305630D02*
X146465340Y-66067535D01*
X146465340Y-66067535D02*
X146417721Y-65972297D01*
X146417721Y-65972297D02*
X146370101Y-65924678D01*
X146370101Y-65924678D02*
X146274863Y-65877059D01*
X146274863Y-65877059D02*
X146179625Y-65877059D01*
X146179625Y-65877059D02*
X146084387Y-65924678D01*
X146084387Y-65924678D02*
X146036768Y-65972297D01*
X146036768Y-65972297D02*
X145989149Y-66067535D01*
X145989149Y-66067535D02*
X145941530Y-66258011D01*
X145941530Y-66258011D02*
X145893911Y-66353249D01*
X145893911Y-66353249D02*
X145846292Y-66400868D01*
X145846292Y-66400868D02*
X145751054Y-66448487D01*
X145751054Y-66448487D02*
X145655816Y-66448487D01*
X145655816Y-66448487D02*
X145560578Y-66400868D01*
X145560578Y-66400868D02*
X145512959Y-66353249D01*
X145512959Y-66353249D02*
X145465340Y-66258011D01*
X145465340Y-66258011D02*
X145465340Y-66019916D01*
X145465340Y-66019916D02*
X145512959Y-65877059D01*
X145941530Y-65448487D02*
X145941530Y-65115154D01*
X146465340Y-64972297D02*
X146465340Y-65448487D01*
X146465340Y-65448487D02*
X145465340Y-65448487D01*
X145465340Y-65448487D02*
X145465340Y-64972297D01*
X145465340Y-64686582D02*
X145465340Y-64115154D01*
X146465340Y-64400868D02*
X145465340Y-64400868D01*
X144538293Y-77988737D02*
X144538293Y-78464927D01*
X144538293Y-78464927D02*
X145014483Y-78512546D01*
X145014483Y-78512546D02*
X144966864Y-78464927D01*
X144966864Y-78464927D02*
X144919245Y-78369689D01*
X144919245Y-78369689D02*
X144919245Y-78131594D01*
X144919245Y-78131594D02*
X144966864Y-78036356D01*
X144966864Y-78036356D02*
X145014483Y-77988737D01*
X145014483Y-77988737D02*
X145109721Y-77941118D01*
X145109721Y-77941118D02*
X145347816Y-77941118D01*
X145347816Y-77941118D02*
X145443054Y-77988737D01*
X145443054Y-77988737D02*
X145490674Y-78036356D01*
X145490674Y-78036356D02*
X145538293Y-78131594D01*
X145538293Y-78131594D02*
X145538293Y-78369689D01*
X145538293Y-78369689D02*
X145490674Y-78464927D01*
X145490674Y-78464927D02*
X145443054Y-78512546D01*
X144538293Y-77655403D02*
X145538293Y-77322070D01*
X145538293Y-77322070D02*
X144538293Y-76988737D01*
D11*
X149054076Y-117604789D02*
X149006457Y-117652409D01*
X149006457Y-117652409D02*
X148863600Y-117700028D01*
X148863600Y-117700028D02*
X148768362Y-117700028D01*
X148768362Y-117700028D02*
X148625505Y-117652409D01*
X148625505Y-117652409D02*
X148530267Y-117557170D01*
X148530267Y-117557170D02*
X148482648Y-117461932D01*
X148482648Y-117461932D02*
X148435029Y-117271456D01*
X148435029Y-117271456D02*
X148435029Y-117128599D01*
X148435029Y-117128599D02*
X148482648Y-116938123D01*
X148482648Y-116938123D02*
X148530267Y-116842885D01*
X148530267Y-116842885D02*
X148625505Y-116747647D01*
X148625505Y-116747647D02*
X148768362Y-116700028D01*
X148768362Y-116700028D02*
X148863600Y-116700028D01*
X148863600Y-116700028D02*
X149006457Y-116747647D01*
X149006457Y-116747647D02*
X149054076Y-116795266D01*
X149387410Y-116700028D02*
X150006457Y-116700028D01*
X150006457Y-116700028D02*
X149673124Y-117080980D01*
X149673124Y-117080980D02*
X149815981Y-117080980D01*
X149815981Y-117080980D02*
X149911219Y-117128599D01*
X149911219Y-117128599D02*
X149958838Y-117176218D01*
X149958838Y-117176218D02*
X150006457Y-117271456D01*
X150006457Y-117271456D02*
X150006457Y-117509551D01*
X150006457Y-117509551D02*
X149958838Y-117604789D01*
X149958838Y-117604789D02*
X149911219Y-117652409D01*
X149911219Y-117652409D02*
X149815981Y-117700028D01*
X149815981Y-117700028D02*
X149530267Y-117700028D01*
X149530267Y-117700028D02*
X149435029Y-117652409D01*
X149435029Y-117652409D02*
X149387410Y-117604789D01*
D12*
X151214621Y-86761373D02*
X151093669Y-86700897D01*
X151093669Y-86700897D02*
X150972716Y-86579945D01*
X150972716Y-86579945D02*
X150791288Y-86398516D01*
X150791288Y-86398516D02*
X150670335Y-86338040D01*
X150670335Y-86338040D02*
X150549383Y-86338040D01*
X150609859Y-86640421D02*
X150488907Y-86579945D01*
X150488907Y-86579945D02*
X150367954Y-86458992D01*
X150367954Y-86458992D02*
X150307478Y-86217087D01*
X150307478Y-86217087D02*
X150307478Y-85793754D01*
X150307478Y-85793754D02*
X150367954Y-85551849D01*
X150367954Y-85551849D02*
X150488907Y-85430897D01*
X150488907Y-85430897D02*
X150609859Y-85370421D01*
X150609859Y-85370421D02*
X150851764Y-85370421D01*
X150851764Y-85370421D02*
X150972716Y-85430897D01*
X150972716Y-85430897D02*
X151093669Y-85551849D01*
X151093669Y-85551849D02*
X151154145Y-85793754D01*
X151154145Y-85793754D02*
X151154145Y-86217087D01*
X151154145Y-86217087D02*
X151093669Y-86458992D01*
X151093669Y-86458992D02*
X150972716Y-86579945D01*
X150972716Y-86579945D02*
X150851764Y-86640421D01*
X150851764Y-86640421D02*
X150609859Y-86640421D01*
X151577478Y-85370421D02*
X152363669Y-85370421D01*
X152363669Y-85370421D02*
X151940335Y-85854230D01*
X151940335Y-85854230D02*
X152121764Y-85854230D01*
X152121764Y-85854230D02*
X152242716Y-85914706D01*
X152242716Y-85914706D02*
X152303192Y-85975183D01*
X152303192Y-85975183D02*
X152363669Y-86096135D01*
X152363669Y-86096135D02*
X152363669Y-86398516D01*
X152363669Y-86398516D02*
X152303192Y-86519468D01*
X152303192Y-86519468D02*
X152242716Y-86579945D01*
X152242716Y-86579945D02*
X152121764Y-86640421D01*
X152121764Y-86640421D02*
X151758907Y-86640421D01*
X151758907Y-86640421D02*
X151637954Y-86579945D01*
X151637954Y-86579945D02*
X151577478Y-86519468D01*
X154063739Y-73938045D02*
X153942787Y-73877569D01*
X153942787Y-73877569D02*
X153821834Y-73756617D01*
X153821834Y-73756617D02*
X153640406Y-73575188D01*
X153640406Y-73575188D02*
X153519453Y-73514712D01*
X153519453Y-73514712D02*
X153398501Y-73514712D01*
X153458977Y-73817093D02*
X153338025Y-73756617D01*
X153338025Y-73756617D02*
X153217072Y-73635664D01*
X153217072Y-73635664D02*
X153156596Y-73393759D01*
X153156596Y-73393759D02*
X153156596Y-72970426D01*
X153156596Y-72970426D02*
X153217072Y-72728521D01*
X153217072Y-72728521D02*
X153338025Y-72607569D01*
X153338025Y-72607569D02*
X153458977Y-72547093D01*
X153458977Y-72547093D02*
X153700882Y-72547093D01*
X153700882Y-72547093D02*
X153821834Y-72607569D01*
X153821834Y-72607569D02*
X153942787Y-72728521D01*
X153942787Y-72728521D02*
X154003263Y-72970426D01*
X154003263Y-72970426D02*
X154003263Y-73393759D01*
X154003263Y-73393759D02*
X153942787Y-73635664D01*
X153942787Y-73635664D02*
X153821834Y-73756617D01*
X153821834Y-73756617D02*
X153700882Y-73817093D01*
X153700882Y-73817093D02*
X153458977Y-73817093D01*
X155152310Y-72547093D02*
X154547548Y-72547093D01*
X154547548Y-72547093D02*
X154487072Y-73151855D01*
X154487072Y-73151855D02*
X154547548Y-73091378D01*
X154547548Y-73091378D02*
X154668501Y-73030902D01*
X154668501Y-73030902D02*
X154970882Y-73030902D01*
X154970882Y-73030902D02*
X155091834Y-73091378D01*
X155091834Y-73091378D02*
X155152310Y-73151855D01*
X155152310Y-73151855D02*
X155212787Y-73272807D01*
X155212787Y-73272807D02*
X155212787Y-73575188D01*
X155212787Y-73575188D02*
X155152310Y-73696140D01*
X155152310Y-73696140D02*
X155091834Y-73756617D01*
X155091834Y-73756617D02*
X154970882Y-73817093D01*
X154970882Y-73817093D02*
X154668501Y-73817093D01*
X154668501Y-73817093D02*
X154547548Y-73756617D01*
X154547548Y-73756617D02*
X154487072Y-73696140D01*
D11*
X136261071Y-58774688D02*
X135927738Y-58298497D01*
X135689643Y-58774688D02*
X135689643Y-57774688D01*
X135689643Y-57774688D02*
X136070595Y-57774688D01*
X136070595Y-57774688D02*
X136165833Y-57822307D01*
X136165833Y-57822307D02*
X136213452Y-57869926D01*
X136213452Y-57869926D02*
X136261071Y-57965164D01*
X136261071Y-57965164D02*
X136261071Y-58108021D01*
X136261071Y-58108021D02*
X136213452Y-58203259D01*
X136213452Y-58203259D02*
X136165833Y-58250878D01*
X136165833Y-58250878D02*
X136070595Y-58298497D01*
X136070595Y-58298497D02*
X135689643Y-58298497D01*
X136594405Y-57774688D02*
X137261071Y-57774688D01*
X137261071Y-57774688D02*
X136832500Y-58774688D01*
X179127949Y-77187715D02*
X179127949Y-76187715D01*
X179127949Y-76187715D02*
X179366044Y-76187715D01*
X179366044Y-76187715D02*
X179508901Y-76235334D01*
X179508901Y-76235334D02*
X179604139Y-76330572D01*
X179604139Y-76330572D02*
X179651758Y-76425810D01*
X179651758Y-76425810D02*
X179699377Y-76616286D01*
X179699377Y-76616286D02*
X179699377Y-76759143D01*
X179699377Y-76759143D02*
X179651758Y-76949619D01*
X179651758Y-76949619D02*
X179604139Y-77044857D01*
X179604139Y-77044857D02*
X179508901Y-77140096D01*
X179508901Y-77140096D02*
X179366044Y-77187715D01*
X179366044Y-77187715D02*
X179127949Y-77187715D01*
X180080330Y-76282953D02*
X180127949Y-76235334D01*
X180127949Y-76235334D02*
X180223187Y-76187715D01*
X180223187Y-76187715D02*
X180461282Y-76187715D01*
X180461282Y-76187715D02*
X180556520Y-76235334D01*
X180556520Y-76235334D02*
X180604139Y-76282953D01*
X180604139Y-76282953D02*
X180651758Y-76378191D01*
X180651758Y-76378191D02*
X180651758Y-76473429D01*
X180651758Y-76473429D02*
X180604139Y-76616286D01*
X180604139Y-76616286D02*
X180032711Y-77187715D01*
X180032711Y-77187715D02*
X180651758Y-77187715D01*
X177287595Y-79189319D02*
X177287595Y-78189319D01*
X177859023Y-79189319D02*
X177430452Y-78617890D01*
X177859023Y-78189319D02*
X177287595Y-78760747D01*
X150042819Y-62908133D02*
X150757104Y-62908133D01*
X150757104Y-62908133D02*
X150899961Y-62955752D01*
X150899961Y-62955752D02*
X150995200Y-63050990D01*
X150995200Y-63050990D02*
X151042819Y-63193847D01*
X151042819Y-63193847D02*
X151042819Y-63289085D01*
X151042819Y-61908133D02*
X151042819Y-62479561D01*
X151042819Y-62193847D02*
X150042819Y-62193847D01*
X150042819Y-62193847D02*
X150185676Y-62289085D01*
X150185676Y-62289085D02*
X150280914Y-62384323D01*
X150280914Y-62384323D02*
X150328533Y-62479561D01*
X170905917Y-106192447D02*
X171620202Y-106192447D01*
X171620202Y-106192447D02*
X171763059Y-106240066D01*
X171763059Y-106240066D02*
X171858298Y-106335304D01*
X171858298Y-106335304D02*
X171905917Y-106478161D01*
X171905917Y-106478161D02*
X171905917Y-106573399D01*
X171001155Y-105763875D02*
X170953536Y-105716256D01*
X170953536Y-105716256D02*
X170905917Y-105621018D01*
X170905917Y-105621018D02*
X170905917Y-105382923D01*
X170905917Y-105382923D02*
X170953536Y-105287685D01*
X170953536Y-105287685D02*
X171001155Y-105240066D01*
X171001155Y-105240066D02*
X171096393Y-105192447D01*
X171096393Y-105192447D02*
X171191631Y-105192447D01*
X171191631Y-105192447D02*
X171334488Y-105240066D01*
X171334488Y-105240066D02*
X171905917Y-105811494D01*
X171905917Y-105811494D02*
X171905917Y-105192447D01*
X138790419Y-97722356D02*
X137790419Y-97722356D01*
X137790419Y-97722356D02*
X138790419Y-97150928D01*
X138790419Y-97150928D02*
X137790419Y-97150928D01*
X137790419Y-96817594D02*
X137790419Y-96246166D01*
X138790419Y-96531880D02*
X137790419Y-96531880D01*
X138695180Y-95341404D02*
X138742800Y-95389023D01*
X138742800Y-95389023D02*
X138790419Y-95531880D01*
X138790419Y-95531880D02*
X138790419Y-95627118D01*
X138790419Y-95627118D02*
X138742800Y-95769975D01*
X138742800Y-95769975D02*
X138647561Y-95865213D01*
X138647561Y-95865213D02*
X138552323Y-95912832D01*
X138552323Y-95912832D02*
X138361847Y-95960451D01*
X138361847Y-95960451D02*
X138218990Y-95960451D01*
X138218990Y-95960451D02*
X138028514Y-95912832D01*
X138028514Y-95912832D02*
X137933276Y-95865213D01*
X137933276Y-95865213D02*
X137838038Y-95769975D01*
X137838038Y-95769975D02*
X137790419Y-95627118D01*
X137790419Y-95627118D02*
X137790419Y-95531880D01*
X137790419Y-95531880D02*
X137838038Y-95389023D01*
X137838038Y-95389023D02*
X137885657Y-95341404D01*
X138790419Y-94389023D02*
X138790419Y-94960451D01*
X138790419Y-94674737D02*
X137790419Y-94674737D01*
X137790419Y-94674737D02*
X137933276Y-94769975D01*
X137933276Y-94769975D02*
X138028514Y-94865213D01*
X138028514Y-94865213D02*
X138076133Y-94960451D01*
X150453537Y-81429900D02*
X150453537Y-80429900D01*
X150453537Y-80429900D02*
X150691632Y-80429900D01*
X150691632Y-80429900D02*
X150834489Y-80477519D01*
X150834489Y-80477519D02*
X150929727Y-80572757D01*
X150929727Y-80572757D02*
X150977346Y-80667995D01*
X150977346Y-80667995D02*
X151024965Y-80858471D01*
X151024965Y-80858471D02*
X151024965Y-81001328D01*
X151024965Y-81001328D02*
X150977346Y-81191804D01*
X150977346Y-81191804D02*
X150929727Y-81287042D01*
X150929727Y-81287042D02*
X150834489Y-81382281D01*
X150834489Y-81382281D02*
X150691632Y-81429900D01*
X150691632Y-81429900D02*
X150453537Y-81429900D01*
X151882108Y-80429900D02*
X151691632Y-80429900D01*
X151691632Y-80429900D02*
X151596394Y-80477519D01*
X151596394Y-80477519D02*
X151548775Y-80525138D01*
X151548775Y-80525138D02*
X151453537Y-80667995D01*
X151453537Y-80667995D02*
X151405918Y-80858471D01*
X151405918Y-80858471D02*
X151405918Y-81239423D01*
X151405918Y-81239423D02*
X151453537Y-81334661D01*
X151453537Y-81334661D02*
X151501156Y-81382281D01*
X151501156Y-81382281D02*
X151596394Y-81429900D01*
X151596394Y-81429900D02*
X151786870Y-81429900D01*
X151786870Y-81429900D02*
X151882108Y-81382281D01*
X151882108Y-81382281D02*
X151929727Y-81334661D01*
X151929727Y-81334661D02*
X151977346Y-81239423D01*
X151977346Y-81239423D02*
X151977346Y-81001328D01*
X151977346Y-81001328D02*
X151929727Y-80906090D01*
X151929727Y-80906090D02*
X151882108Y-80858471D01*
X151882108Y-80858471D02*
X151786870Y-80810852D01*
X151786870Y-80810852D02*
X151596394Y-80810852D01*
X151596394Y-80810852D02*
X151501156Y-80858471D01*
X151501156Y-80858471D02*
X151453537Y-80906090D01*
X151453537Y-80906090D02*
X151405918Y-81001328D01*
X164251632Y-83453885D02*
X164251632Y-82453885D01*
X164823060Y-83453885D02*
X164394489Y-82882456D01*
X164823060Y-82453885D02*
X164251632Y-83025313D01*
X150365528Y-107219681D02*
X150365528Y-106219681D01*
X150365528Y-106219681D02*
X150603623Y-106219681D01*
X150603623Y-106219681D02*
X150746480Y-106267300D01*
X150746480Y-106267300D02*
X150841718Y-106362538D01*
X150841718Y-106362538D02*
X150889337Y-106457776D01*
X150889337Y-106457776D02*
X150936956Y-106648252D01*
X150936956Y-106648252D02*
X150936956Y-106791109D01*
X150936956Y-106791109D02*
X150889337Y-106981585D01*
X150889337Y-106981585D02*
X150841718Y-107076823D01*
X150841718Y-107076823D02*
X150746480Y-107172062D01*
X150746480Y-107172062D02*
X150603623Y-107219681D01*
X150603623Y-107219681D02*
X150365528Y-107219681D01*
X151270290Y-106219681D02*
X151889337Y-106219681D01*
X151889337Y-106219681D02*
X151556004Y-106600633D01*
X151556004Y-106600633D02*
X151698861Y-106600633D01*
X151698861Y-106600633D02*
X151794099Y-106648252D01*
X151794099Y-106648252D02*
X151841718Y-106695871D01*
X151841718Y-106695871D02*
X151889337Y-106791109D01*
X151889337Y-106791109D02*
X151889337Y-107029204D01*
X151889337Y-107029204D02*
X151841718Y-107124442D01*
X151841718Y-107124442D02*
X151794099Y-107172062D01*
X151794099Y-107172062D02*
X151698861Y-107219681D01*
X151698861Y-107219681D02*
X151413147Y-107219681D01*
X151413147Y-107219681D02*
X151317909Y-107172062D01*
X151317909Y-107172062D02*
X151270290Y-107124442D01*
X163450295Y-109313919D02*
X163450295Y-108313919D01*
X164021723Y-109313919D02*
X163593152Y-108742490D01*
X164021723Y-108313919D02*
X163450295Y-108885347D01*
X148039419Y-121077533D02*
X148753704Y-121077533D01*
X148753704Y-121077533D02*
X148896561Y-121125152D01*
X148896561Y-121125152D02*
X148991800Y-121220390D01*
X148991800Y-121220390D02*
X149039419Y-121363247D01*
X149039419Y-121363247D02*
X149039419Y-121458485D01*
X148039419Y-120696580D02*
X148039419Y-120077533D01*
X148039419Y-120077533D02*
X148420371Y-120410866D01*
X148420371Y-120410866D02*
X148420371Y-120268009D01*
X148420371Y-120268009D02*
X148467990Y-120172771D01*
X148467990Y-120172771D02*
X148515609Y-120125152D01*
X148515609Y-120125152D02*
X148610847Y-120077533D01*
X148610847Y-120077533D02*
X148848942Y-120077533D01*
X148848942Y-120077533D02*
X148944180Y-120125152D01*
X148944180Y-120125152D02*
X148991800Y-120172771D01*
X148991800Y-120172771D02*
X149039419Y-120268009D01*
X149039419Y-120268009D02*
X149039419Y-120553723D01*
X149039419Y-120553723D02*
X148991800Y-120648961D01*
X148991800Y-120648961D02*
X148944180Y-120696580D01*
D12*
X129071880Y-71022318D02*
X129071880Y-72050413D01*
X129071880Y-72050413D02*
X129132357Y-72171365D01*
X129132357Y-72171365D02*
X129192833Y-72231842D01*
X129192833Y-72231842D02*
X129313785Y-72292318D01*
X129313785Y-72292318D02*
X129555690Y-72292318D01*
X129555690Y-72292318D02*
X129676642Y-72231842D01*
X129676642Y-72231842D02*
X129737119Y-72171365D01*
X129737119Y-72171365D02*
X129797595Y-72050413D01*
X129797595Y-72050413D02*
X129797595Y-71022318D01*
X131007118Y-71022318D02*
X130402356Y-71022318D01*
X130402356Y-71022318D02*
X130341880Y-71627080D01*
X130341880Y-71627080D02*
X130402356Y-71566603D01*
X130402356Y-71566603D02*
X130523309Y-71506127D01*
X130523309Y-71506127D02*
X130825690Y-71506127D01*
X130825690Y-71506127D02*
X130946642Y-71566603D01*
X130946642Y-71566603D02*
X131007118Y-71627080D01*
X131007118Y-71627080D02*
X131067595Y-71748032D01*
X131067595Y-71748032D02*
X131067595Y-72050413D01*
X131067595Y-72050413D02*
X131007118Y-72171365D01*
X131007118Y-72171365D02*
X130946642Y-72231842D01*
X130946642Y-72231842D02*
X130825690Y-72292318D01*
X130825690Y-72292318D02*
X130523309Y-72292318D01*
X130523309Y-72292318D02*
X130402356Y-72231842D01*
X130402356Y-72231842D02*
X130341880Y-72171365D01*
D11*
X150489294Y-89718907D02*
X150489294Y-88718907D01*
X150489294Y-88718907D02*
X150727389Y-88718907D01*
X150727389Y-88718907D02*
X150870246Y-88766526D01*
X150870246Y-88766526D02*
X150965484Y-88861764D01*
X150965484Y-88861764D02*
X151013103Y-88957002D01*
X151013103Y-88957002D02*
X151060722Y-89147478D01*
X151060722Y-89147478D02*
X151060722Y-89290335D01*
X151060722Y-89290335D02*
X151013103Y-89480811D01*
X151013103Y-89480811D02*
X150965484Y-89576049D01*
X150965484Y-89576049D02*
X150870246Y-89671288D01*
X150870246Y-89671288D02*
X150727389Y-89718907D01*
X150727389Y-89718907D02*
X150489294Y-89718907D01*
X151965484Y-88718907D02*
X151489294Y-88718907D01*
X151489294Y-88718907D02*
X151441675Y-89195097D01*
X151441675Y-89195097D02*
X151489294Y-89147478D01*
X151489294Y-89147478D02*
X151584532Y-89099859D01*
X151584532Y-89099859D02*
X151822627Y-89099859D01*
X151822627Y-89099859D02*
X151917865Y-89147478D01*
X151917865Y-89147478D02*
X151965484Y-89195097D01*
X151965484Y-89195097D02*
X152013103Y-89290335D01*
X152013103Y-89290335D02*
X152013103Y-89528430D01*
X152013103Y-89528430D02*
X151965484Y-89623668D01*
X151965484Y-89623668D02*
X151917865Y-89671288D01*
X151917865Y-89671288D02*
X151822627Y-89718907D01*
X151822627Y-89718907D02*
X151584532Y-89718907D01*
X151584532Y-89718907D02*
X151489294Y-89671288D01*
X151489294Y-89671288D02*
X151441675Y-89623668D01*
X164085269Y-91895663D02*
X164085269Y-90895663D01*
X164656697Y-91895663D02*
X164228126Y-91324234D01*
X164656697Y-90895663D02*
X164085269Y-91467091D01*
X159474206Y-72604305D02*
X158998015Y-72937638D01*
X159474206Y-73175733D02*
X158474206Y-73175733D01*
X158474206Y-73175733D02*
X158474206Y-72794781D01*
X158474206Y-72794781D02*
X158521825Y-72699543D01*
X158521825Y-72699543D02*
X158569444Y-72651924D01*
X158569444Y-72651924D02*
X158664682Y-72604305D01*
X158664682Y-72604305D02*
X158807539Y-72604305D01*
X158807539Y-72604305D02*
X158902777Y-72651924D01*
X158902777Y-72651924D02*
X158950396Y-72699543D01*
X158950396Y-72699543D02*
X158998015Y-72794781D01*
X158998015Y-72794781D02*
X158998015Y-73175733D01*
X158474206Y-71747162D02*
X158474206Y-71937638D01*
X158474206Y-71937638D02*
X158521825Y-72032876D01*
X158521825Y-72032876D02*
X158569444Y-72080495D01*
X158569444Y-72080495D02*
X158712301Y-72175733D01*
X158712301Y-72175733D02*
X158902777Y-72223352D01*
X158902777Y-72223352D02*
X159283729Y-72223352D01*
X159283729Y-72223352D02*
X159378967Y-72175733D01*
X159378967Y-72175733D02*
X159426587Y-72128114D01*
X159426587Y-72128114D02*
X159474206Y-72032876D01*
X159474206Y-72032876D02*
X159474206Y-71842400D01*
X159474206Y-71842400D02*
X159426587Y-71747162D01*
X159426587Y-71747162D02*
X159378967Y-71699543D01*
X159378967Y-71699543D02*
X159283729Y-71651924D01*
X159283729Y-71651924D02*
X159045634Y-71651924D01*
X159045634Y-71651924D02*
X158950396Y-71699543D01*
X158950396Y-71699543D02*
X158902777Y-71747162D01*
X158902777Y-71747162D02*
X158855158Y-71842400D01*
X158855158Y-71842400D02*
X158855158Y-72032876D01*
X158855158Y-72032876D02*
X158902777Y-72128114D01*
X158902777Y-72128114D02*
X158950396Y-72175733D01*
X158950396Y-72175733D02*
X159045634Y-72223352D01*
X126532930Y-97668136D02*
X125532930Y-97668136D01*
X125532930Y-97668136D02*
X125532930Y-97287184D01*
X125532930Y-97287184D02*
X125580549Y-97191946D01*
X125580549Y-97191946D02*
X125628168Y-97144327D01*
X125628168Y-97144327D02*
X125723406Y-97096708D01*
X125723406Y-97096708D02*
X125866263Y-97096708D01*
X125866263Y-97096708D02*
X125961501Y-97144327D01*
X125961501Y-97144327D02*
X126009120Y-97191946D01*
X126009120Y-97191946D02*
X126056739Y-97287184D01*
X126056739Y-97287184D02*
X126056739Y-97668136D01*
X126532930Y-96525279D02*
X126485311Y-96620517D01*
X126485311Y-96620517D02*
X126437691Y-96668136D01*
X126437691Y-96668136D02*
X126342453Y-96715755D01*
X126342453Y-96715755D02*
X126056739Y-96715755D01*
X126056739Y-96715755D02*
X125961501Y-96668136D01*
X125961501Y-96668136D02*
X125913882Y-96620517D01*
X125913882Y-96620517D02*
X125866263Y-96525279D01*
X125866263Y-96525279D02*
X125866263Y-96382422D01*
X125866263Y-96382422D02*
X125913882Y-96287184D01*
X125913882Y-96287184D02*
X125961501Y-96239565D01*
X125961501Y-96239565D02*
X126056739Y-96191946D01*
X126056739Y-96191946D02*
X126342453Y-96191946D01*
X126342453Y-96191946D02*
X126437691Y-96239565D01*
X126437691Y-96239565D02*
X126485311Y-96287184D01*
X126485311Y-96287184D02*
X126532930Y-96382422D01*
X126532930Y-96382422D02*
X126532930Y-96525279D01*
X125866263Y-95858612D02*
X126532930Y-95668136D01*
X126532930Y-95668136D02*
X126056739Y-95477660D01*
X126056739Y-95477660D02*
X126532930Y-95287184D01*
X126532930Y-95287184D02*
X125866263Y-95096708D01*
X126485311Y-94334803D02*
X126532930Y-94430041D01*
X126532930Y-94430041D02*
X126532930Y-94620517D01*
X126532930Y-94620517D02*
X126485311Y-94715755D01*
X126485311Y-94715755D02*
X126390072Y-94763374D01*
X126390072Y-94763374D02*
X126009120Y-94763374D01*
X126009120Y-94763374D02*
X125913882Y-94715755D01*
X125913882Y-94715755D02*
X125866263Y-94620517D01*
X125866263Y-94620517D02*
X125866263Y-94430041D01*
X125866263Y-94430041D02*
X125913882Y-94334803D01*
X125913882Y-94334803D02*
X126009120Y-94287184D01*
X126009120Y-94287184D02*
X126104358Y-94287184D01*
X126104358Y-94287184D02*
X126199596Y-94763374D01*
X126532930Y-93858612D02*
X125866263Y-93858612D01*
X126056739Y-93858612D02*
X125961501Y-93810993D01*
X125961501Y-93810993D02*
X125913882Y-93763374D01*
X125913882Y-93763374D02*
X125866263Y-93668136D01*
X125866263Y-93668136D02*
X125866263Y-93572898D01*
X126532930Y-93239564D02*
X125532930Y-93239564D01*
X125913882Y-93239564D02*
X125866263Y-93144326D01*
X125866263Y-93144326D02*
X125866263Y-92953850D01*
X125866263Y-92953850D02*
X125913882Y-92858612D01*
X125913882Y-92858612D02*
X125961501Y-92810993D01*
X125961501Y-92810993D02*
X126056739Y-92763374D01*
X126056739Y-92763374D02*
X126342453Y-92763374D01*
X126342453Y-92763374D02*
X126437691Y-92810993D01*
X126437691Y-92810993D02*
X126485311Y-92858612D01*
X126485311Y-92858612D02*
X126532930Y-92953850D01*
X126532930Y-92953850D02*
X126532930Y-93144326D01*
X126532930Y-93144326D02*
X126485311Y-93239564D01*
X126532930Y-92191945D02*
X126485311Y-92287183D01*
X126485311Y-92287183D02*
X126437691Y-92334802D01*
X126437691Y-92334802D02*
X126342453Y-92382421D01*
X126342453Y-92382421D02*
X126056739Y-92382421D01*
X126056739Y-92382421D02*
X125961501Y-92334802D01*
X125961501Y-92334802D02*
X125913882Y-92287183D01*
X125913882Y-92287183D02*
X125866263Y-92191945D01*
X125866263Y-92191945D02*
X125866263Y-92049088D01*
X125866263Y-92049088D02*
X125913882Y-91953850D01*
X125913882Y-91953850D02*
X125961501Y-91906231D01*
X125961501Y-91906231D02*
X126056739Y-91858612D01*
X126056739Y-91858612D02*
X126342453Y-91858612D01*
X126342453Y-91858612D02*
X126437691Y-91906231D01*
X126437691Y-91906231D02*
X126485311Y-91953850D01*
X126485311Y-91953850D02*
X126532930Y-92049088D01*
X126532930Y-92049088D02*
X126532930Y-92191945D01*
X126532930Y-91001469D02*
X126009120Y-91001469D01*
X126009120Y-91001469D02*
X125913882Y-91049088D01*
X125913882Y-91049088D02*
X125866263Y-91144326D01*
X125866263Y-91144326D02*
X125866263Y-91334802D01*
X125866263Y-91334802D02*
X125913882Y-91430040D01*
X126485311Y-91001469D02*
X126532930Y-91096707D01*
X126532930Y-91096707D02*
X126532930Y-91334802D01*
X126532930Y-91334802D02*
X126485311Y-91430040D01*
X126485311Y-91430040D02*
X126390072Y-91477659D01*
X126390072Y-91477659D02*
X126294834Y-91477659D01*
X126294834Y-91477659D02*
X126199596Y-91430040D01*
X126199596Y-91430040D02*
X126151977Y-91334802D01*
X126151977Y-91334802D02*
X126151977Y-91096707D01*
X126151977Y-91096707D02*
X126104358Y-91001469D01*
X126532930Y-90525278D02*
X125866263Y-90525278D01*
X126056739Y-90525278D02*
X125961501Y-90477659D01*
X125961501Y-90477659D02*
X125913882Y-90430040D01*
X125913882Y-90430040D02*
X125866263Y-90334802D01*
X125866263Y-90334802D02*
X125866263Y-90239564D01*
X126532930Y-89477659D02*
X125532930Y-89477659D01*
X126485311Y-89477659D02*
X126532930Y-89572897D01*
X126532930Y-89572897D02*
X126532930Y-89763373D01*
X126532930Y-89763373D02*
X126485311Y-89858611D01*
X126485311Y-89858611D02*
X126437691Y-89906230D01*
X126437691Y-89906230D02*
X126342453Y-89953849D01*
X126342453Y-89953849D02*
X126056739Y-89953849D01*
X126056739Y-89953849D02*
X125961501Y-89906230D01*
X125961501Y-89906230D02*
X125913882Y-89858611D01*
X125913882Y-89858611D02*
X125866263Y-89763373D01*
X125866263Y-89763373D02*
X125866263Y-89572897D01*
X125866263Y-89572897D02*
X125913882Y-89477659D01*
X126532930Y-88477659D02*
X126532930Y-89049087D01*
X126532930Y-88763373D02*
X125532930Y-88763373D01*
X125532930Y-88763373D02*
X125675787Y-88858611D01*
X125675787Y-88858611D02*
X125771025Y-88953849D01*
X125771025Y-88953849D02*
X125818644Y-89049087D01*
X150369919Y-73140333D02*
X151084204Y-73140333D01*
X151084204Y-73140333D02*
X151227061Y-73187952D01*
X151227061Y-73187952D02*
X151322300Y-73283190D01*
X151322300Y-73283190D02*
X151369919Y-73426047D01*
X151369919Y-73426047D02*
X151369919Y-73521285D01*
X150703252Y-72235571D02*
X151369919Y-72235571D01*
X150322300Y-72473666D02*
X151036585Y-72711761D01*
X151036585Y-72711761D02*
X151036585Y-72092714D01*
X143977595Y-78886619D02*
X143977595Y-79696142D01*
X143977595Y-79696142D02*
X144025214Y-79791380D01*
X144025214Y-79791380D02*
X144072833Y-79839000D01*
X144072833Y-79839000D02*
X144168071Y-79886619D01*
X144168071Y-79886619D02*
X144358547Y-79886619D01*
X144358547Y-79886619D02*
X144453785Y-79839000D01*
X144453785Y-79839000D02*
X144501404Y-79791380D01*
X144501404Y-79791380D02*
X144549023Y-79696142D01*
X144549023Y-79696142D02*
X144549023Y-78886619D01*
X144977595Y-78981857D02*
X145025214Y-78934238D01*
X145025214Y-78934238D02*
X145120452Y-78886619D01*
X145120452Y-78886619D02*
X145358547Y-78886619D01*
X145358547Y-78886619D02*
X145453785Y-78934238D01*
X145453785Y-78934238D02*
X145501404Y-78981857D01*
X145501404Y-78981857D02*
X145549023Y-79077095D01*
X145549023Y-79077095D02*
X145549023Y-79172333D01*
X145549023Y-79172333D02*
X145501404Y-79315190D01*
X145501404Y-79315190D02*
X144929976Y-79886619D01*
X144929976Y-79886619D02*
X145549023Y-79886619D01*
X136174419Y-62071833D02*
X136888704Y-62071833D01*
X136888704Y-62071833D02*
X137031561Y-62119452D01*
X137031561Y-62119452D02*
X137126800Y-62214690D01*
X137126800Y-62214690D02*
X137174419Y-62357547D01*
X137174419Y-62357547D02*
X137174419Y-62452785D01*
X136174419Y-61119452D02*
X136174419Y-61595642D01*
X136174419Y-61595642D02*
X136650609Y-61643261D01*
X136650609Y-61643261D02*
X136602990Y-61595642D01*
X136602990Y-61595642D02*
X136555371Y-61500404D01*
X136555371Y-61500404D02*
X136555371Y-61262309D01*
X136555371Y-61262309D02*
X136602990Y-61167071D01*
X136602990Y-61167071D02*
X136650609Y-61119452D01*
X136650609Y-61119452D02*
X136745847Y-61071833D01*
X136745847Y-61071833D02*
X136983942Y-61071833D01*
X136983942Y-61071833D02*
X137079180Y-61119452D01*
X137079180Y-61119452D02*
X137126800Y-61167071D01*
X137126800Y-61167071D02*
X137174419Y-61262309D01*
X137174419Y-61262309D02*
X137174419Y-61500404D01*
X137174419Y-61500404D02*
X137126800Y-61595642D01*
X137126800Y-61595642D02*
X137079180Y-61643261D01*
D12*
X139736077Y-85813875D02*
X139675601Y-85934827D01*
X139675601Y-85934827D02*
X139554649Y-86055780D01*
X139554649Y-86055780D02*
X139373220Y-86237208D01*
X139373220Y-86237208D02*
X139312744Y-86358161D01*
X139312744Y-86358161D02*
X139312744Y-86479113D01*
X139615125Y-86418637D02*
X139554649Y-86539589D01*
X139554649Y-86539589D02*
X139433696Y-86660542D01*
X139433696Y-86660542D02*
X139191791Y-86721018D01*
X139191791Y-86721018D02*
X138768458Y-86721018D01*
X138768458Y-86721018D02*
X138526553Y-86660542D01*
X138526553Y-86660542D02*
X138405601Y-86539589D01*
X138405601Y-86539589D02*
X138345125Y-86418637D01*
X138345125Y-86418637D02*
X138345125Y-86176732D01*
X138345125Y-86176732D02*
X138405601Y-86055780D01*
X138405601Y-86055780D02*
X138526553Y-85934827D01*
X138526553Y-85934827D02*
X138768458Y-85874351D01*
X138768458Y-85874351D02*
X139191791Y-85874351D01*
X139191791Y-85874351D02*
X139433696Y-85934827D01*
X139433696Y-85934827D02*
X139554649Y-86055780D01*
X139554649Y-86055780D02*
X139615125Y-86176732D01*
X139615125Y-86176732D02*
X139615125Y-86418637D01*
X139615125Y-84664827D02*
X139615125Y-85390542D01*
X139615125Y-85027685D02*
X138345125Y-85027685D01*
X138345125Y-85027685D02*
X138526553Y-85148637D01*
X138526553Y-85148637D02*
X138647506Y-85269589D01*
X138647506Y-85269589D02*
X138707982Y-85390542D01*
D11*
X155177209Y-112078228D02*
X155177209Y-112554419D01*
X154843876Y-111554419D02*
X155177209Y-112078228D01*
X155177209Y-112078228D02*
X155510542Y-111554419D01*
X155796257Y-111649657D02*
X155843876Y-111602038D01*
X155843876Y-111602038D02*
X155939114Y-111554419D01*
X155939114Y-111554419D02*
X156177209Y-111554419D01*
X156177209Y-111554419D02*
X156272447Y-111602038D01*
X156272447Y-111602038D02*
X156320066Y-111649657D01*
X156320066Y-111649657D02*
X156367685Y-111744895D01*
X156367685Y-111744895D02*
X156367685Y-111840133D01*
X156367685Y-111840133D02*
X156320066Y-111982990D01*
X156320066Y-111982990D02*
X155748638Y-112554419D01*
X155748638Y-112554419D02*
X156367685Y-112554419D01*
X150290745Y-98595245D02*
X150290745Y-97595245D01*
X150290745Y-97595245D02*
X150528840Y-97595245D01*
X150528840Y-97595245D02*
X150671697Y-97642864D01*
X150671697Y-97642864D02*
X150766935Y-97738102D01*
X150766935Y-97738102D02*
X150814554Y-97833340D01*
X150814554Y-97833340D02*
X150862173Y-98023816D01*
X150862173Y-98023816D02*
X150862173Y-98166673D01*
X150862173Y-98166673D02*
X150814554Y-98357149D01*
X150814554Y-98357149D02*
X150766935Y-98452387D01*
X150766935Y-98452387D02*
X150671697Y-98547626D01*
X150671697Y-98547626D02*
X150528840Y-98595245D01*
X150528840Y-98595245D02*
X150290745Y-98595245D01*
X151719316Y-97928578D02*
X151719316Y-98595245D01*
X151481221Y-97547626D02*
X151243126Y-98261911D01*
X151243126Y-98261911D02*
X151862173Y-98261911D01*
X164276778Y-100644052D02*
X164276778Y-99644052D01*
X164848206Y-100644052D02*
X164419635Y-100072623D01*
X164848206Y-99644052D02*
X164276778Y-100215480D01*
D12*
X123588235Y-112158626D02*
X123164901Y-111553864D01*
X122862520Y-112158626D02*
X122862520Y-110888626D01*
X122862520Y-110888626D02*
X123346330Y-110888626D01*
X123346330Y-110888626D02*
X123467282Y-110949102D01*
X123467282Y-110949102D02*
X123527759Y-111009578D01*
X123527759Y-111009578D02*
X123588235Y-111130530D01*
X123588235Y-111130530D02*
X123588235Y-111311959D01*
X123588235Y-111311959D02*
X123527759Y-111432911D01*
X123527759Y-111432911D02*
X123467282Y-111493388D01*
X123467282Y-111493388D02*
X123346330Y-111553864D01*
X123346330Y-111553864D02*
X122862520Y-111553864D01*
X124616330Y-112098150D02*
X124495378Y-112158626D01*
X124495378Y-112158626D02*
X124253473Y-112158626D01*
X124253473Y-112158626D02*
X124132520Y-112098150D01*
X124132520Y-112098150D02*
X124072044Y-111977197D01*
X124072044Y-111977197D02*
X124072044Y-111493388D01*
X124072044Y-111493388D02*
X124132520Y-111372435D01*
X124132520Y-111372435D02*
X124253473Y-111311959D01*
X124253473Y-111311959D02*
X124495378Y-111311959D01*
X124495378Y-111311959D02*
X124616330Y-111372435D01*
X124616330Y-111372435D02*
X124676806Y-111493388D01*
X124676806Y-111493388D02*
X124676806Y-111614340D01*
X124676806Y-111614340D02*
X124072044Y-111735292D01*
X125160615Y-112098150D02*
X125281568Y-112158626D01*
X125281568Y-112158626D02*
X125523472Y-112158626D01*
X125523472Y-112158626D02*
X125644425Y-112098150D01*
X125644425Y-112098150D02*
X125704901Y-111977197D01*
X125704901Y-111977197D02*
X125704901Y-111916721D01*
X125704901Y-111916721D02*
X125644425Y-111795769D01*
X125644425Y-111795769D02*
X125523472Y-111735292D01*
X125523472Y-111735292D02*
X125342044Y-111735292D01*
X125342044Y-111735292D02*
X125221091Y-111674816D01*
X125221091Y-111674816D02*
X125160615Y-111553864D01*
X125160615Y-111553864D02*
X125160615Y-111493388D01*
X125160615Y-111493388D02*
X125221091Y-111372435D01*
X125221091Y-111372435D02*
X125342044Y-111311959D01*
X125342044Y-111311959D02*
X125523472Y-111311959D01*
X125523472Y-111311959D02*
X125644425Y-111372435D01*
X126732996Y-112098150D02*
X126612044Y-112158626D01*
X126612044Y-112158626D02*
X126370139Y-112158626D01*
X126370139Y-112158626D02*
X126249186Y-112098150D01*
X126249186Y-112098150D02*
X126188710Y-111977197D01*
X126188710Y-111977197D02*
X126188710Y-111493388D01*
X126188710Y-111493388D02*
X126249186Y-111372435D01*
X126249186Y-111372435D02*
X126370139Y-111311959D01*
X126370139Y-111311959D02*
X126612044Y-111311959D01*
X126612044Y-111311959D02*
X126732996Y-111372435D01*
X126732996Y-111372435D02*
X126793472Y-111493388D01*
X126793472Y-111493388D02*
X126793472Y-111614340D01*
X126793472Y-111614340D02*
X126188710Y-111735292D01*
X127156329Y-111311959D02*
X127640138Y-111311959D01*
X127337757Y-110888626D02*
X127337757Y-111977197D01*
X127337757Y-111977197D02*
X127398234Y-112098150D01*
X127398234Y-112098150D02*
X127519186Y-112158626D01*
X127519186Y-112158626D02*
X127640138Y-112158626D01*
X128728710Y-112158626D02*
X128002995Y-112158626D01*
X128365852Y-112158626D02*
X128365852Y-110888626D01*
X128365852Y-110888626D02*
X128244900Y-111070054D01*
X128244900Y-111070054D02*
X128123948Y-111191007D01*
X128123948Y-111191007D02*
X128002995Y-111251483D01*
D11*
X161598881Y-117507223D02*
X161551262Y-117554843D01*
X161551262Y-117554843D02*
X161408405Y-117602462D01*
X161408405Y-117602462D02*
X161313167Y-117602462D01*
X161313167Y-117602462D02*
X161170310Y-117554843D01*
X161170310Y-117554843D02*
X161075072Y-117459604D01*
X161075072Y-117459604D02*
X161027453Y-117364366D01*
X161027453Y-117364366D02*
X160979834Y-117173890D01*
X160979834Y-117173890D02*
X160979834Y-117031033D01*
X160979834Y-117031033D02*
X161027453Y-116840557D01*
X161027453Y-116840557D02*
X161075072Y-116745319D01*
X161075072Y-116745319D02*
X161170310Y-116650081D01*
X161170310Y-116650081D02*
X161313167Y-116602462D01*
X161313167Y-116602462D02*
X161408405Y-116602462D01*
X161408405Y-116602462D02*
X161551262Y-116650081D01*
X161551262Y-116650081D02*
X161598881Y-116697700D01*
X162503643Y-116602462D02*
X162027453Y-116602462D01*
X162027453Y-116602462D02*
X161979834Y-117078652D01*
X161979834Y-117078652D02*
X162027453Y-117031033D01*
X162027453Y-117031033D02*
X162122691Y-116983414D01*
X162122691Y-116983414D02*
X162360786Y-116983414D01*
X162360786Y-116983414D02*
X162456024Y-117031033D01*
X162456024Y-117031033D02*
X162503643Y-117078652D01*
X162503643Y-117078652D02*
X162551262Y-117173890D01*
X162551262Y-117173890D02*
X162551262Y-117411985D01*
X162551262Y-117411985D02*
X162503643Y-117507223D01*
X162503643Y-117507223D02*
X162456024Y-117554843D01*
X162456024Y-117554843D02*
X162360786Y-117602462D01*
X162360786Y-117602462D02*
X162122691Y-117602462D01*
X162122691Y-117602462D02*
X162027453Y-117554843D01*
X162027453Y-117554843D02*
X161979834Y-117507223D01*
X155163560Y-121332628D02*
X155163560Y-121808819D01*
X154830227Y-120808819D02*
X155163560Y-121332628D01*
X155163560Y-121332628D02*
X155496893Y-120808819D01*
X156354036Y-121808819D02*
X155782608Y-121808819D01*
X156068322Y-121808819D02*
X156068322Y-120808819D01*
X156068322Y-120808819D02*
X155973084Y-120951676D01*
X155973084Y-120951676D02*
X155877846Y-121046914D01*
X155877846Y-121046914D02*
X155782608Y-121094533D01*
D12*
X151271431Y-103910347D02*
X151150479Y-103849871D01*
X151150479Y-103849871D02*
X151029526Y-103728919D01*
X151029526Y-103728919D02*
X150848098Y-103547490D01*
X150848098Y-103547490D02*
X150727145Y-103487014D01*
X150727145Y-103487014D02*
X150606193Y-103487014D01*
X150666669Y-103789395D02*
X150545717Y-103728919D01*
X150545717Y-103728919D02*
X150424764Y-103607966D01*
X150424764Y-103607966D02*
X150364288Y-103366061D01*
X150364288Y-103366061D02*
X150364288Y-102942728D01*
X150364288Y-102942728D02*
X150424764Y-102700823D01*
X150424764Y-102700823D02*
X150545717Y-102579871D01*
X150545717Y-102579871D02*
X150666669Y-102519395D01*
X150666669Y-102519395D02*
X150908574Y-102519395D01*
X150908574Y-102519395D02*
X151029526Y-102579871D01*
X151029526Y-102579871D02*
X151150479Y-102700823D01*
X151150479Y-102700823D02*
X151210955Y-102942728D01*
X151210955Y-102942728D02*
X151210955Y-103366061D01*
X151210955Y-103366061D02*
X151150479Y-103607966D01*
X151150479Y-103607966D02*
X151029526Y-103728919D01*
X151029526Y-103728919D02*
X150908574Y-103789395D01*
X150908574Y-103789395D02*
X150666669Y-103789395D01*
X151694764Y-102640347D02*
X151755240Y-102579871D01*
X151755240Y-102579871D02*
X151876193Y-102519395D01*
X151876193Y-102519395D02*
X152178574Y-102519395D01*
X152178574Y-102519395D02*
X152299526Y-102579871D01*
X152299526Y-102579871D02*
X152360002Y-102640347D01*
X152360002Y-102640347D02*
X152420479Y-102761299D01*
X152420479Y-102761299D02*
X152420479Y-102882252D01*
X152420479Y-102882252D02*
X152360002Y-103063680D01*
X152360002Y-103063680D02*
X151634288Y-103789395D01*
X151634288Y-103789395D02*
X152420479Y-103789395D01*
X151347566Y-95251424D02*
X151226614Y-95190948D01*
X151226614Y-95190948D02*
X151105661Y-95069996D01*
X151105661Y-95069996D02*
X150924233Y-94888567D01*
X150924233Y-94888567D02*
X150803280Y-94828091D01*
X150803280Y-94828091D02*
X150682328Y-94828091D01*
X150742804Y-95130472D02*
X150621852Y-95069996D01*
X150621852Y-95069996D02*
X150500899Y-94949043D01*
X150500899Y-94949043D02*
X150440423Y-94707138D01*
X150440423Y-94707138D02*
X150440423Y-94283805D01*
X150440423Y-94283805D02*
X150500899Y-94041900D01*
X150500899Y-94041900D02*
X150621852Y-93920948D01*
X150621852Y-93920948D02*
X150742804Y-93860472D01*
X150742804Y-93860472D02*
X150984709Y-93860472D01*
X150984709Y-93860472D02*
X151105661Y-93920948D01*
X151105661Y-93920948D02*
X151226614Y-94041900D01*
X151226614Y-94041900D02*
X151287090Y-94283805D01*
X151287090Y-94283805D02*
X151287090Y-94707138D01*
X151287090Y-94707138D02*
X151226614Y-94949043D01*
X151226614Y-94949043D02*
X151105661Y-95069996D01*
X151105661Y-95069996D02*
X150984709Y-95130472D01*
X150984709Y-95130472D02*
X150742804Y-95130472D01*
X152375661Y-94283805D02*
X152375661Y-95130472D01*
X152073280Y-93799996D02*
X151770899Y-94707138D01*
X151770899Y-94707138D02*
X152557090Y-94707138D01*
D13*
%TO.C,C3*%
X152111948Y-116280800D02*
X153534452Y-116280800D01*
X152111948Y-118100800D02*
X153534452Y-118100800D01*
D14*
%TO.C,Q3*%
X152947500Y-82794300D02*
X152947500Y-86019300D01*
X163467500Y-82794300D02*
X152947500Y-82794300D01*
X163467500Y-87444300D02*
X163467500Y-82794300D01*
%TO.C,Q5*%
X152947500Y-74301300D02*
X152947500Y-77526300D01*
X163467500Y-74301300D02*
X152947500Y-74301300D01*
X163467500Y-78951300D02*
X163467500Y-74301300D01*
D13*
%TO.C,R7*%
X140486100Y-58260700D02*
X140556100Y-58260700D01*
X140486100Y-58260700D02*
G75*
G02*
X137746100Y-58260700I-1370000J0D01*
G01*
X137746100Y-58260700D02*
G75*
G02*
X140486100Y-58260700I1370000J0D01*
G01*
%TO.C,D2*%
X168729500Y-76634500D02*
X169749500Y-76634500D01*
X169749500Y-75164500D02*
X169749500Y-78104500D01*
X169749500Y-78104500D02*
X175189500Y-78104500D01*
X174169500Y-78104500D02*
X174169500Y-75164500D01*
X174289500Y-78104500D02*
X174289500Y-75164500D01*
X174409500Y-78104500D02*
X174409500Y-75164500D01*
X175189500Y-75164500D02*
X169749500Y-75164500D01*
X175189500Y-78104500D02*
X175189500Y-75164500D01*
X176209500Y-76634500D02*
X175189500Y-76634500D01*
%TO.C,J1*%
X151588000Y-57204800D02*
X157908000Y-57204800D01*
X151588000Y-67944800D02*
X151588000Y-57204800D01*
X151588000Y-67944800D02*
X157908000Y-67944800D01*
X152048000Y-67944800D02*
X152048000Y-57204800D01*
X157348000Y-67944800D02*
X157348000Y-57204800D01*
X157408000Y-68184800D02*
X158148000Y-68184800D01*
X157908000Y-67944800D02*
X157908000Y-57204800D01*
X158148000Y-68184800D02*
X158148000Y-67684800D01*
%TO.C,J2*%
X165634600Y-79185600D02*
X176954600Y-79185600D01*
X165634600Y-104705600D02*
X165634600Y-79185600D01*
X165634600Y-104705600D02*
X176954600Y-104705600D01*
X167694600Y-104705600D02*
X167694600Y-79185600D01*
X169940600Y-80397600D02*
X170320600Y-80777600D01*
X169940600Y-85477600D02*
X170320600Y-85857600D01*
X169940600Y-90557600D02*
X170320600Y-90937600D01*
X169940600Y-95637600D02*
X170320600Y-96017600D01*
X169940600Y-100717600D02*
X170047600Y-100824600D01*
X170206600Y-80131600D02*
X170602600Y-80526600D01*
X170206600Y-85211600D02*
X170602600Y-85606600D01*
X170206600Y-90291600D02*
X170602600Y-90686600D01*
X170206600Y-95371600D02*
X170602600Y-95766600D01*
X170206600Y-100451600D02*
X170313600Y-100558600D01*
X172586600Y-83043600D02*
X172982600Y-83438600D01*
X172586600Y-88123600D02*
X172982600Y-88518600D01*
X172586600Y-93203600D02*
X172982600Y-93598600D01*
X172586600Y-98283600D02*
X172982600Y-98678600D01*
X172868600Y-82792600D02*
X173248600Y-83172600D01*
X172868600Y-87872600D02*
X173248600Y-88252600D01*
X172868600Y-92952600D02*
X173248600Y-93332600D01*
X172868600Y-98032600D02*
X173248600Y-98412600D01*
X172875600Y-103653600D02*
X172982600Y-103759600D01*
X173141600Y-103387600D02*
X173248600Y-103493600D01*
X173894600Y-104705600D02*
X173894600Y-79185600D01*
X176394600Y-104705600D02*
X176394600Y-79185600D01*
X176454600Y-104945600D02*
X177194600Y-104945600D01*
X176954600Y-104705600D02*
X176954600Y-79185600D01*
X177194600Y-104945600D02*
X177194600Y-104445600D01*
X173774600Y-81785600D02*
G75*
G02*
X169414600Y-81785600I-2180000J0D01*
G01*
X169414600Y-81785600D02*
G75*
G02*
X173774600Y-81785600I2180000J0D01*
G01*
X173774600Y-86865600D02*
G75*
G02*
X169414600Y-86865600I-2180000J0D01*
G01*
X169414600Y-86865600D02*
G75*
G02*
X173774600Y-86865600I2180000J0D01*
G01*
X173774600Y-91945600D02*
G75*
G02*
X169414600Y-91945600I-2180000J0D01*
G01*
X169414600Y-91945600D02*
G75*
G02*
X173774600Y-91945600I2180000J0D01*
G01*
X173774600Y-97025600D02*
G75*
G02*
X169414600Y-97025600I-2180000J0D01*
G01*
X169414600Y-97025600D02*
G75*
G02*
X173774600Y-97025600I2180000J0D01*
G01*
X173774600Y-102105600D02*
G75*
G02*
X169414600Y-102105600I-2180000J0D01*
G01*
X169414600Y-102105600D02*
G75*
G02*
X173774600Y-102105600I2180000J0D01*
G01*
%TO.C,NTC1*%
X135965600Y-96179500D02*
X135965600Y-96249500D01*
X137335600Y-94809500D02*
G75*
G02*
X134595600Y-94809500I-1370000J0D01*
G01*
X134595600Y-94809500D02*
G75*
G02*
X137335600Y-94809500I1370000J0D01*
G01*
%TO.C,D6*%
X154892200Y-80926100D02*
X155912200Y-80926100D01*
X155912200Y-79456100D02*
X155912200Y-82396100D01*
X155912200Y-82396100D02*
X161352200Y-82396100D01*
X160332200Y-82396100D02*
X160332200Y-79456100D01*
X160452200Y-82396100D02*
X160452200Y-79456100D01*
X160572200Y-82396100D02*
X160572200Y-79456100D01*
X161352200Y-79456100D02*
X155912200Y-79456100D01*
X161352200Y-82396100D02*
X161352200Y-79456100D01*
X162372200Y-80926100D02*
X161352200Y-80926100D01*
%TO.C,D3*%
X154892200Y-106759100D02*
X155912200Y-106759100D01*
X155912200Y-105289100D02*
X155912200Y-108229100D01*
X155912200Y-108229100D02*
X161352200Y-108229100D01*
X160332200Y-108229100D02*
X160332200Y-105289100D01*
X160452200Y-108229100D02*
X160452200Y-105289100D01*
X160572200Y-108229100D02*
X160572200Y-105289100D01*
X161352200Y-105289100D02*
X155912200Y-105289100D01*
X161352200Y-108229100D02*
X161352200Y-105289100D01*
X162372200Y-106759100D02*
X161352200Y-106759100D01*
%TO.C,J3*%
X132224600Y-119414200D02*
X132224600Y-122074200D01*
X144984600Y-119414200D02*
X132224600Y-119414200D01*
X144984600Y-119414200D02*
X144984600Y-122074200D01*
X144984600Y-122074200D02*
X132224600Y-122074200D01*
X146254600Y-119414200D02*
X147584600Y-119414200D01*
X147584600Y-119414200D02*
X147584600Y-120744200D01*
D10*
%TO.C,U5*%
X122039500Y-68353000D02*
X138039500Y-68353000D01*
X122039500Y-75083000D02*
X122039500Y-68353000D01*
X138039500Y-68353000D02*
X138039500Y-75083000D01*
X138039500Y-75083000D02*
X122039500Y-75083000D01*
D13*
%TO.C,D5*%
X154892200Y-89328000D02*
X155912200Y-89328000D01*
X155912200Y-87858000D02*
X155912200Y-90798000D01*
X155912200Y-90798000D02*
X161352200Y-90798000D01*
X160332200Y-90798000D02*
X160332200Y-87858000D01*
X160452200Y-90798000D02*
X160452200Y-87858000D01*
X160572200Y-90798000D02*
X160572200Y-87858000D01*
X161352200Y-87858000D02*
X155912200Y-87858000D01*
X161352200Y-90798000D02*
X161352200Y-87858000D01*
X162372200Y-89328000D02*
X161352200Y-89328000D01*
%TO.C,R6*%
X161895200Y-72479500D02*
X161825200Y-72479500D01*
X164635200Y-72479500D02*
G75*
G02*
X161895200Y-72479500I-1370000J0D01*
G01*
X161895200Y-72479500D02*
G75*
G02*
X164635200Y-72479500I1370000J0D01*
G01*
%TO.C,Powerboard1*%
X129646300Y-91332600D02*
X129646300Y-86192600D01*
X132306300Y-86192600D02*
X129646300Y-86192600D01*
X132306300Y-91332600D02*
X129646300Y-91332600D01*
X132306300Y-91332600D02*
X132306300Y-86192600D01*
X132306300Y-92602600D02*
X132306300Y-93932600D01*
X132306300Y-93932600D02*
X130976300Y-93932600D01*
%TO.C,J4*%
X142175100Y-70207000D02*
X142175100Y-75407000D01*
X142745100Y-70207000D02*
X142175100Y-70207000D01*
X142745100Y-75407000D02*
X142175100Y-75407000D01*
X145285100Y-70207000D02*
X144265100Y-70207000D01*
X145285100Y-75407000D02*
X144265100Y-75407000D01*
X147825100Y-70207000D02*
X146805100Y-70207000D01*
X147825100Y-75407000D02*
X146805100Y-75407000D01*
X149345100Y-68767000D02*
X149345100Y-70207000D01*
X149915100Y-70207000D02*
X149345100Y-70207000D01*
X149915100Y-70207000D02*
X149915100Y-75407000D01*
X149915100Y-75407000D02*
X149345100Y-75407000D01*
%TO.C,U2*%
X142089500Y-80431800D02*
X142089500Y-116111800D01*
X142089500Y-116111800D02*
X147389500Y-116111800D01*
X143739500Y-80431800D02*
X142089500Y-80431800D01*
X147389500Y-80431800D02*
X145739500Y-80431800D01*
X147389500Y-116111800D02*
X147389500Y-80431800D01*
X145739500Y-80431800D02*
G75*
G02*
X143739500Y-80431800I-1000000J0D01*
G01*
%TO.C,J5*%
X137719600Y-63068500D02*
X137719600Y-61738500D01*
X139049600Y-63068500D02*
X137719600Y-63068500D01*
X140319600Y-60408500D02*
X142919600Y-60408500D01*
X140319600Y-63068500D02*
X140319600Y-60408500D01*
X140319600Y-63068500D02*
X142919600Y-63068500D01*
X142919600Y-63068500D02*
X142919600Y-60408500D01*
D14*
%TO.C,Q1*%
X133391000Y-76613600D02*
X133391000Y-87153600D01*
X133391000Y-87153600D02*
X136586000Y-87153600D01*
X138081000Y-76613600D02*
X133391000Y-76613600D01*
D13*
%TO.C,Y2*%
X152518400Y-109574600D02*
X158768400Y-109574600D01*
X152518400Y-114624600D02*
X158768400Y-114624600D01*
X152518400Y-114624600D02*
G75*
G02*
X152518400Y-109574600I0J2525000D01*
G01*
X158768400Y-109574600D02*
G75*
G02*
X158768400Y-114624600I0J-2525000D01*
G01*
%TO.C,D4*%
X154892200Y-98155100D02*
X155912200Y-98155100D01*
X155912200Y-96685100D02*
X155912200Y-99625100D01*
X155912200Y-99625100D02*
X161352200Y-99625100D01*
X160332200Y-99625100D02*
X160332200Y-96685100D01*
X160452200Y-99625100D02*
X160452200Y-96685100D01*
X160572200Y-99625100D02*
X160572200Y-96685100D01*
X161352200Y-96685100D02*
X155912200Y-96685100D01*
X161352200Y-99625100D02*
X161352200Y-96685100D01*
X162372200Y-98155100D02*
X161352200Y-98155100D01*
D14*
%TO.C,Reset1*%
X129135300Y-110302500D02*
X129135300Y-112702500D01*
X134235300Y-108502500D02*
X130035300Y-108502500D01*
X134235300Y-114502500D02*
X130035300Y-114502500D01*
X135135300Y-110302500D02*
X135135300Y-112702500D01*
X136735300Y-113752500D02*
X136735300Y-113752500D01*
X136835300Y-113752500D02*
X136735300Y-113752500D01*
X136835300Y-113752500D02*
X136835300Y-113752500D01*
X136735300Y-113752500D02*
G75*
G02*
X136835300Y-113752500I50000J0D01*
G01*
X136835300Y-113752500D02*
G75*
G02*
X136735300Y-113752500I-50000J0D01*
G01*
D13*
%TO.C,C5*%
X158934452Y-116268500D02*
X157511948Y-116268500D01*
X158934452Y-118088500D02*
X157511948Y-118088500D01*
%TO.C,Y1*%
X152493500Y-118829000D02*
X158743500Y-118829000D01*
X152493500Y-123879000D02*
X158743500Y-123879000D01*
X152493500Y-123879000D02*
G75*
G02*
X152493500Y-118829000I0J2525000D01*
G01*
X158743500Y-118829000D02*
G75*
G02*
X158743500Y-123879000I0J-2525000D01*
G01*
D14*
%TO.C,Q2*%
X152947500Y-100042000D02*
X152947500Y-103267000D01*
X163467500Y-100042000D02*
X152947500Y-100042000D01*
X163467500Y-104692000D02*
X163467500Y-100042000D01*
%TO.C,Q4*%
X152947500Y-91448500D02*
X152947500Y-94673500D01*
X163467500Y-91448500D02*
X152947500Y-91448500D01*
X163467500Y-96098500D02*
X163467500Y-91448500D01*
%TD*%
%LPC*%
D15*
%TO.C,C3*%
X151260700Y-117190800D03*
X154385700Y-117190800D03*
%TD*%
D16*
%TO.C,Q3*%
X155667500Y-86019300D03*
D17*
X158207500Y-86019300D03*
X160747500Y-86019300D03*
%TD*%
D16*
%TO.C,Q5*%
X155667500Y-77526300D03*
D17*
X158207500Y-77526300D03*
X160747500Y-77526300D03*
%TD*%
D18*
%TO.C,R7*%
X139116100Y-58260700D03*
D19*
X141656100Y-58260700D03*
%TD*%
D20*
%TO.C,D2*%
X177549500Y-76634500D03*
D21*
X167389500Y-76634500D03*
%TD*%
D20*
%TO.C,J1*%
X154748000Y-66384800D03*
D22*
X154748000Y-63844800D03*
X154748000Y-61304800D03*
X154748000Y-58764800D03*
%TD*%
D23*
%TO.C,J2*%
X171594600Y-102105600D03*
D24*
X171594600Y-97025600D03*
X171594600Y-91945600D03*
X171594600Y-86865600D03*
X171594600Y-81785600D03*
%TD*%
D18*
%TO.C,NTC1*%
X135965600Y-94809500D03*
D19*
X135965600Y-97349500D03*
%TD*%
D20*
%TO.C,D6*%
X163712200Y-80926100D03*
D21*
X153552200Y-80926100D03*
%TD*%
D20*
%TO.C,D3*%
X163712200Y-106759100D03*
D21*
X153552200Y-106759100D03*
%TD*%
D25*
%TO.C,J3*%
X146254600Y-120744200D03*
D26*
X143714600Y-120744200D03*
X141174600Y-120744200D03*
X138634600Y-120744200D03*
X136094600Y-120744200D03*
X133554600Y-120744200D03*
%TD*%
D27*
%TO.C,U5*%
X134999500Y-70018000D03*
X134999500Y-73418000D03*
X125079500Y-70018000D03*
X125079500Y-73418000D03*
%TD*%
D20*
%TO.C,D5*%
X163712200Y-89328000D03*
D21*
X153552200Y-89328000D03*
%TD*%
D18*
%TO.C,R6*%
X163265200Y-72479500D03*
D19*
X160725200Y-72479500D03*
%TD*%
D25*
%TO.C,Powerboard1*%
X130976300Y-92602600D03*
D26*
X130976300Y-90062600D03*
X130976300Y-87522600D03*
%TD*%
D28*
%TO.C,J4*%
X148585100Y-70282000D03*
X148585100Y-75332000D03*
X146045100Y-70282000D03*
X146045100Y-75332000D03*
X143505100Y-70282000D03*
X143505100Y-75332000D03*
%TD*%
D29*
%TO.C,U2*%
X140929500Y-81761800D03*
D19*
X140929500Y-84301800D03*
X140929500Y-86841800D03*
X140929500Y-89381800D03*
X140929500Y-91921800D03*
X140929500Y-94461800D03*
X140929500Y-97001800D03*
X140929500Y-99541800D03*
X140929500Y-102081800D03*
X140929500Y-104621800D03*
X140929500Y-107161800D03*
X140929500Y-109701800D03*
X140929500Y-112241800D03*
X140929500Y-114781800D03*
X148549500Y-114781800D03*
X148549500Y-112241800D03*
X148549500Y-109701800D03*
X148549500Y-107161800D03*
X148549500Y-104621800D03*
X148549500Y-102081800D03*
X148549500Y-99541800D03*
X148549500Y-97001800D03*
X148549500Y-94461800D03*
X148549500Y-91921800D03*
X148549500Y-89381800D03*
X148549500Y-86841800D03*
X148549500Y-84301800D03*
X148549500Y-81761800D03*
%TD*%
D25*
%TO.C,J5*%
X139049600Y-61738500D03*
D26*
X141589600Y-61738500D03*
%TD*%
D30*
%TO.C,Q1*%
X136586000Y-84423600D03*
D31*
X136586000Y-81883600D03*
X136586000Y-79343600D03*
%TD*%
D32*
%TO.C,Y2*%
X153203400Y-112099600D03*
X158083400Y-112099600D03*
%TD*%
D20*
%TO.C,D4*%
X163712200Y-98155100D03*
D21*
X153552200Y-98155100D03*
%TD*%
D33*
%TO.C,Reset1*%
X135385300Y-113752500D03*
D32*
X128885300Y-113752500D03*
X135385300Y-109252500D03*
X128885300Y-109252500D03*
%TD*%
D34*
%TO.C,C5*%
X159785700Y-117178500D03*
X156660700Y-117178500D03*
%TD*%
D32*
%TO.C,Y1*%
X153178500Y-121354000D03*
X158058500Y-121354000D03*
%TD*%
D16*
%TO.C,Q2*%
X155667500Y-103267000D03*
D17*
X158207500Y-103267000D03*
X160747500Y-103267000D03*
%TD*%
D16*
%TO.C,Q4*%
X155667500Y-94673500D03*
D17*
X158207500Y-94673500D03*
X160747500Y-94673500D03*
%TD*%
%LPD*%
M02*
