%TF.GenerationSoftware,KiCad,Pcbnew,8.0.1-rc1*%
%TF.CreationDate,2024-06-22T18:23:22-07:00*%
%TF.ProjectId,AMS - CANBus Sensor - Pressure,414d5320-2d20-4434-914e-427573205365,rev?*%
%TF.SameCoordinates,Original*%
%TF.FileFunction,Copper,L1,Top*%
%TF.FilePolarity,Positive*%
%FSLAX46Y46*%
G04 Gerber Fmt 4.6, Leading zero omitted, Abs format (unit mm)*
G04 Created by KiCad (PCBNEW 8.0.1-rc1) date 2024-06-22 18:23:22*
%MOMM*%
%LPD*%
G01*
G04 APERTURE LIST*
G04 Aperture macros list*
%AMRoundRect*
0 Rectangle with rounded corners*
0 $1 Rounding radius*
0 $2 $3 $4 $5 $6 $7 $8 $9 X,Y pos of 4 corners*
0 Add a 4 corners polygon primitive as box body*
4,1,4,$2,$3,$4,$5,$6,$7,$8,$9,$2,$3,0*
0 Add four circle primitives for the rounded corners*
1,1,$1+$1,$2,$3*
1,1,$1+$1,$4,$5*
1,1,$1+$1,$6,$7*
1,1,$1+$1,$8,$9*
0 Add four rect primitives between the rounded corners*
20,1,$1+$1,$2,$3,$4,$5,0*
20,1,$1+$1,$4,$5,$6,$7,0*
20,1,$1+$1,$6,$7,$8,$9,0*
20,1,$1+$1,$8,$9,$2,$3,0*%
G04 Aperture macros list end*
%TA.AperFunction,SMDPad,CuDef*%
%ADD10RoundRect,0.250000X-0.400000X-0.625000X0.400000X-0.625000X0.400000X0.625000X-0.400000X0.625000X0*%
%TD*%
%TA.AperFunction,SMDPad,CuDef*%
%ADD11RoundRect,0.250000X-0.412500X-0.650000X0.412500X-0.650000X0.412500X0.650000X-0.412500X0.650000X0*%
%TD*%
%TA.AperFunction,ComponentPad*%
%ADD12C,1.440000*%
%TD*%
%TA.AperFunction,ComponentPad*%
%ADD13R,2.200000X2.200000*%
%TD*%
%TA.AperFunction,ComponentPad*%
%ADD14C,2.200000*%
%TD*%
%TA.AperFunction,ComponentPad*%
%ADD15C,1.600000*%
%TD*%
%TA.AperFunction,ComponentPad*%
%ADD16O,1.600000X1.600000*%
%TD*%
%TA.AperFunction,SMDPad,CuDef*%
%ADD17RoundRect,0.250000X0.400000X0.625000X-0.400000X0.625000X-0.400000X-0.625000X0.400000X-0.625000X0*%
%TD*%
%TA.AperFunction,ComponentPad*%
%ADD18R,1.700000X1.700000*%
%TD*%
%TA.AperFunction,ComponentPad*%
%ADD19O,1.700000X1.700000*%
%TD*%
%TA.AperFunction,ComponentPad*%
%ADD20C,2.400000*%
%TD*%
%TA.AperFunction,SMDPad,CuDef*%
%ADD21R,1.000000X3.150000*%
%TD*%
%TA.AperFunction,ComponentPad*%
%ADD22R,1.600000X1.600000*%
%TD*%
%TA.AperFunction,ComponentPad*%
%ADD23R,1.920000X1.920000*%
%TD*%
%TA.AperFunction,ComponentPad*%
%ADD24C,1.920000*%
%TD*%
%TA.AperFunction,ComponentPad*%
%ADD25C,1.500000*%
%TD*%
%TA.AperFunction,ComponentPad*%
%ADD26R,1.500000X1.500000*%
%TD*%
%TA.AperFunction,SMDPad,CuDef*%
%ADD27RoundRect,0.250000X0.412500X0.650000X-0.412500X0.650000X-0.412500X-0.650000X0.412500X-0.650000X0*%
%TD*%
%TA.AperFunction,ViaPad*%
%ADD28C,0.600000*%
%TD*%
%TA.AperFunction,Conductor*%
%ADD29C,0.200000*%
%TD*%
%TA.AperFunction,Conductor*%
%ADD30C,0.508000*%
%TD*%
%TA.AperFunction,Conductor*%
%ADD31C,0.635000*%
%TD*%
G04 APERTURE END LIST*
D10*
%TO.P,R10,1*%
%TO.N,GND*%
X120710400Y-78872500D03*
%TO.P,R10,2*%
%TO.N,/BareMinAtmel328P/PC1-A1*%
X123810400Y-78872500D03*
%TD*%
D11*
%TO.P,C3,1*%
%TO.N,Net-(U2-XTAL2{slash}PB7)*%
X154187000Y-114014800D03*
%TO.P,C3,2*%
%TO.N,GND*%
X157312000Y-114014800D03*
%TD*%
D12*
%TO.P,RV2,1,1*%
%TO.N,Net-(J2-Pin_2)*%
X154274400Y-95885200D03*
%TO.P,RV2,2,2*%
%TO.N,/BufferedADC/ADCIN2*%
X156814400Y-95885200D03*
%TO.P,RV2,3,3*%
%TO.N,GND*%
X159354400Y-95885200D03*
%TD*%
D13*
%TO.P,J6,1,Pin_1*%
%TO.N,Net-(J6-Pin_1)*%
X170718000Y-84022300D03*
D14*
%TO.P,J6,2,Pin_2*%
%TO.N,Net-(J6-Pin_2)*%
X170718000Y-81482300D03*
%TD*%
D12*
%TO.P,RV3,1,1*%
%TO.N,Net-(J2-Pin_3)*%
X154274400Y-89435200D03*
%TO.P,RV3,2,2*%
%TO.N,/BufferedADC/ADCIN3*%
X156814400Y-89435200D03*
%TO.P,RV3,3,3*%
%TO.N,GND*%
X159354400Y-89435200D03*
%TD*%
D15*
%TO.P,R7,1*%
%TO.N,Net-(J5-Pin_2)*%
X139116100Y-58260700D03*
D16*
%TO.P,R7,2*%
%TO.N,CANBUS_L*%
X141656100Y-58260700D03*
%TD*%
D13*
%TO.P,J1,1,Pin_1*%
%TO.N,Net-(J1-Pin_1)*%
X157148000Y-71872800D03*
D14*
%TO.P,J1,2,Pin_2*%
%TO.N,GND*%
X157148000Y-69332800D03*
%TO.P,J1,3,Pin_3*%
%TO.N,CANBUS_H*%
X157148000Y-66792800D03*
%TO.P,J1,4,Pin_4*%
%TO.N,CANBUS_L*%
X157148000Y-64252800D03*
%TD*%
D17*
%TO.P,R13,1*%
%TO.N,GND*%
X118580700Y-78928700D03*
%TO.P,R13,2*%
%TO.N,/BareMinAtmel328P/PC3-A3*%
X115480700Y-78928700D03*
%TD*%
D15*
%TO.P,NTC1,1*%
%TO.N,/BareMinAtmel328P/PC0-A0*%
X135965600Y-94809500D03*
D16*
%TO.P,NTC1,2*%
%TO.N,+5V*%
X135965600Y-97349500D03*
%TD*%
D18*
%TO.P,J3,1,Pin_1*%
%TO.N,GND*%
X146254600Y-120744200D03*
D19*
%TO.P,J3,2,Pin_2*%
%TO.N,unconnected-(J3-Pin_2-Pad2)*%
X143714600Y-120744200D03*
%TO.P,J3,3,Pin_3*%
%TO.N,+5V*%
X141174600Y-120744200D03*
%TO.P,J3,4,Pin_4*%
%TO.N,/BareMinAtmel328P/PD0-RX*%
X138634600Y-120744200D03*
%TO.P,J3,5,Pin_5*%
%TO.N,/BareMinAtmel328P/PD1-TX*%
X136094600Y-120744200D03*
%TO.P,J3,6,Pin_6*%
%TO.N,Net-(J3-Pin_6)*%
X133554600Y-120744200D03*
%TD*%
D12*
%TO.P,RV1,1,1*%
%TO.N,Net-(J2-Pin_1)*%
X154274400Y-102335200D03*
%TO.P,RV1,2,2*%
%TO.N,/BufferedADC/ADCIN1*%
X156814400Y-102335200D03*
%TO.P,RV1,3,3*%
%TO.N,GND*%
X159354400Y-102335200D03*
%TD*%
D20*
%TO.P,U5,1,1*%
%TO.N,Net-(Q1-Pad3)*%
X134999500Y-70018000D03*
%TO.P,U5,2,2*%
X134999500Y-73418000D03*
%TO.P,U5,3,3*%
%TO.N,+VDC*%
X125079500Y-70018000D03*
%TO.P,U5,4,4*%
X125079500Y-73418000D03*
%TD*%
D15*
%TO.P,R6,1*%
%TO.N,Net-(U4-Rs)*%
X166799100Y-76611000D03*
D16*
%TO.P,R6,2*%
%TO.N,GND*%
X164259100Y-76611000D03*
%TD*%
D17*
%TO.P,R12,1*%
%TO.N,GND*%
X118744200Y-82579600D03*
%TO.P,R12,2*%
%TO.N,/BareMinAtmel328P/PC4-A4-SDA*%
X115644200Y-82579600D03*
%TD*%
D10*
%TO.P,R11,1*%
%TO.N,GND*%
X120808500Y-82593100D03*
%TO.P,R11,2*%
%TO.N,/BareMinAtmel328P/PC2-A2*%
X123908500Y-82593100D03*
%TD*%
D18*
%TO.P,Powerboard1,1,Pin_1*%
%TO.N,+VDC*%
X130976300Y-92602600D03*
D19*
%TO.P,Powerboard1,2,Pin_2*%
%TO.N,+5V*%
X130976300Y-90062600D03*
%TO.P,Powerboard1,3,Pin_3*%
%TO.N,GND*%
X130976300Y-87522600D03*
%TD*%
D21*
%TO.P,J4,1,Pin_1*%
%TO.N,/BareMinAtmel328P/PB4-D12-MISO*%
X148585100Y-70282000D03*
%TO.P,J4,2,Pin_2*%
%TO.N,/BareMinAtmel328P/PB5-D13-SCK*%
X148585100Y-75332000D03*
%TO.P,J4,3,Pin_3*%
%TO.N,/BareMinAtmel328P/RESET*%
X146045100Y-70282000D03*
%TO.P,J4,4,Pin_4*%
%TO.N,+5V*%
X146045100Y-75332000D03*
%TO.P,J4,5,Pin_5*%
%TO.N,/BareMinAtmel328P/PB3-D11-MOSI*%
X143505100Y-70282000D03*
%TO.P,J4,6,Pin_6*%
%TO.N,GND*%
X143505100Y-75332000D03*
%TD*%
D22*
%TO.P,U2,1,~{RESET}/PC6*%
%TO.N,/BareMinAtmel328P/RESET*%
X140929500Y-81761800D03*
D16*
%TO.P,U2,2,PD0*%
%TO.N,/BareMinAtmel328P/PD0-RX*%
X140929500Y-84301800D03*
%TO.P,U2,3,PD1*%
%TO.N,/BareMinAtmel328P/PD1-TX*%
X140929500Y-86841800D03*
%TO.P,U2,4,PD2*%
%TO.N,/BareMinAtmel328P/PD2-D2*%
X140929500Y-89381800D03*
%TO.P,U2,5,PD3*%
%TO.N,/BareMinAtmel328P/PD3-D3*%
X140929500Y-91921800D03*
%TO.P,U2,6,PD4*%
%TO.N,/BareMinAtmel328P/PD4-D4*%
X140929500Y-94461800D03*
%TO.P,U2,7,VCC*%
%TO.N,+5V*%
X140929500Y-97001800D03*
%TO.P,U2,8,GND*%
%TO.N,GND*%
X140929500Y-99541800D03*
%TO.P,U2,9,XTAL1/PB6*%
%TO.N,Net-(U2-XTAL1{slash}PB6)*%
X140929500Y-102081800D03*
%TO.P,U2,10,XTAL2/PB7*%
%TO.N,Net-(U2-XTAL2{slash}PB7)*%
X140929500Y-104621800D03*
%TO.P,U2,11,PD5*%
%TO.N,/BareMinAtmel328P/PD5-D5*%
X140929500Y-107161800D03*
%TO.P,U2,12,PD6*%
%TO.N,/BareMinAtmel328P/PD6-D6*%
X140929500Y-109701800D03*
%TO.P,U2,13,PD7*%
%TO.N,/BareMinAtmel328P/PD7-D7*%
X140929500Y-112241800D03*
%TO.P,U2,14,PB0*%
%TO.N,/BareMinAtmel328P/PB0-D8*%
X140929500Y-114781800D03*
%TO.P,U2,15,PB1*%
%TO.N,/BareMinAtmel328P/PB1-D9*%
X148549500Y-114781800D03*
%TO.P,U2,16,PB2*%
%TO.N,/BareMinAtmel328P/PB2-D10-SS*%
X148549500Y-112241800D03*
%TO.P,U2,17,PB3*%
%TO.N,/BareMinAtmel328P/PB3-D11-MOSI*%
X148549500Y-109701800D03*
%TO.P,U2,18,PB4*%
%TO.N,/BareMinAtmel328P/PB4-D12-MISO*%
X148549500Y-107161800D03*
%TO.P,U2,19,PB5*%
%TO.N,/BareMinAtmel328P/PB5-D13-SCK*%
X148549500Y-104621800D03*
%TO.P,U2,20,AVCC*%
%TO.N,+5V*%
X148549500Y-102081800D03*
%TO.P,U2,21,AREF*%
%TO.N,/BareMinAtmel328P/AREF*%
X148549500Y-99541800D03*
%TO.P,U2,22,GND*%
%TO.N,GND*%
X148549500Y-97001800D03*
%TO.P,U2,23,PC0*%
%TO.N,/BareMinAtmel328P/PC0-A0*%
X148549500Y-94461800D03*
%TO.P,U2,24,PC1*%
%TO.N,/BareMinAtmel328P/PC1-A1*%
X148549500Y-91921800D03*
%TO.P,U2,25,PC2*%
%TO.N,/BareMinAtmel328P/PC2-A2*%
X148549500Y-89381800D03*
%TO.P,U2,26,PC3*%
%TO.N,/BareMinAtmel328P/PC3-A3*%
X148549500Y-86841800D03*
%TO.P,U2,27,PC4*%
%TO.N,/BareMinAtmel328P/PC4-A4-SDA*%
X148549500Y-84301800D03*
%TO.P,U2,28,PC5*%
%TO.N,/BareMinAtmel328P/PC5-A5-SCL*%
X148549500Y-81761800D03*
%TD*%
D18*
%TO.P,J5,1,Pin_1*%
%TO.N,CANBUS_H*%
X139049600Y-61738500D03*
D19*
%TO.P,J5,2,Pin_2*%
%TO.N,Net-(J5-Pin_2)*%
X141589600Y-61738500D03*
%TD*%
D23*
%TO.P,Q1,1*%
%TO.N,Net-(Q1-Pad1)*%
X136586000Y-84423600D03*
D24*
%TO.P,Q1,2*%
%TO.N,Net-(J1-Pin_1)*%
X136586000Y-81883600D03*
%TO.P,Q1,3*%
%TO.N,Net-(Q1-Pad3)*%
X136586000Y-79343600D03*
%TD*%
D13*
%TO.P,J2,1,Pin_1*%
%TO.N,Net-(J2-Pin_1)*%
X170699000Y-96212100D03*
D14*
%TO.P,J2,2,Pin_2*%
%TO.N,Net-(J2-Pin_2)*%
X170699000Y-93672100D03*
%TO.P,J2,3,Pin_3*%
%TO.N,Net-(J2-Pin_3)*%
X170699000Y-91132100D03*
%TO.P,J2,4,Pin_4*%
%TO.N,Net-(J2-Pin_4)*%
X170699000Y-88592100D03*
%TD*%
D12*
%TO.P,RV4,1,1*%
%TO.N,Net-(J2-Pin_4)*%
X154274400Y-82985200D03*
%TO.P,RV4,2,2*%
%TO.N,/BufferedADC/ADCIN4*%
X156814400Y-82985200D03*
%TO.P,RV4,3,3*%
%TO.N,GND*%
X159354400Y-82985200D03*
%TD*%
D25*
%TO.P,Y2,1,1*%
%TO.N,Net-(U3-OSC1)*%
X156129700Y-108923600D03*
%TO.P,Y2,2,2*%
%TO.N,Net-(U3-OSC2)*%
X161009700Y-108923600D03*
%TD*%
D26*
%TO.P,Reset1,1,NO_1*%
%TO.N,/BareMinAtmel328P/RESET*%
X135385300Y-113752500D03*
D25*
%TO.P,Reset1,2,NO_2*%
%TO.N,unconnected-(Reset1-NO_2-Pad2)*%
X128885300Y-113752500D03*
%TO.P,Reset1,3,COM_1*%
%TO.N,GND*%
X135385300Y-109252500D03*
%TO.P,Reset1,4,COM_2*%
%TO.N,unconnected-(Reset1-COM_2-Pad4)*%
X128885300Y-109252500D03*
%TD*%
D27*
%TO.P,C5,1*%
%TO.N,Net-(U3-OSC1)*%
X162712000Y-114002500D03*
%TO.P,C5,2*%
%TO.N,GND*%
X159587000Y-114002500D03*
%TD*%
D25*
%TO.P,Y1,1,1*%
%TO.N,Net-(U2-XTAL2{slash}PB7)*%
X156104800Y-118178000D03*
%TO.P,Y1,2,2*%
%TO.N,Net-(U2-XTAL1{slash}PB6)*%
X160984800Y-118178000D03*
%TD*%
D20*
%TO.P,U1,1,1*%
%TO.N,Net-(J6-Pin_2)*%
X179270500Y-101766200D03*
%TO.P,U1,2,2*%
%TO.N,Net-(J6-Pin_1)*%
X179270500Y-105166200D03*
%TO.P,U1,3,3*%
%TO.N,+5V*%
X169350500Y-101766200D03*
%TO.P,U1,4,4*%
X169350500Y-105166200D03*
%TD*%
D28*
%TO.N,GND*%
X142731000Y-77345500D03*
X169353400Y-72279100D03*
X128264300Y-81129300D03*
%TO.N,/BareMinAtmel328P/RESET*%
X137680800Y-112109500D03*
X139412900Y-90090200D03*
%TO.N,+5V*%
X146363000Y-77411600D03*
%TO.N,CANBUS_H*%
X161751100Y-71076900D03*
%TO.N,/BareMinAtmel328P/PB5-D13-SCK*%
X143662900Y-90187300D03*
X145655000Y-73007800D03*
%TO.N,/BareMinAtmel328P/PB3-D11-MOSI*%
X140841600Y-69572800D03*
%TO.N,/BareMinAtmel328P/PB4-D12-MISO*%
X155286500Y-72793000D03*
X147573100Y-69572800D03*
%TO.N,/BareMinAtmel328P/PD1-TX*%
X139003500Y-87413600D03*
%TO.N,+VDC*%
X126045474Y-87511756D03*
%TO.N,/BareMinAtmel328P/PC2-A2*%
X132141600Y-95989900D03*
%TO.N,/BareMinAtmel328P/PC4-A4-SDA*%
X127193900Y-98603800D03*
X139621500Y-93677800D03*
%TO.N,/BareMinAtmel328P/PC1-A1*%
X125084400Y-80536500D03*
X124449400Y-88316000D03*
%TO.N,/BareMinAtmel328P/PC3-A3*%
X131858400Y-104059800D03*
X149825400Y-103291200D03*
%TO.N,/BareMinAtmel328P/PD2-D2*%
X136310900Y-87602100D03*
%TO.N,/BufferedADC/ADCIN1*%
X127951700Y-99482800D03*
%TO.N,/BufferedADC/ADCIN4*%
X138191700Y-84428000D03*
%TO.N,/BufferedADC/ADCIN2*%
X136258300Y-98791500D03*
%TO.N,/BufferedADC/ADCIN3*%
X116596100Y-107943200D03*
X143080800Y-108286200D03*
X131227600Y-108236900D03*
%TO.N,Net-(U3-~{RESET})*%
X144151400Y-85701100D03*
X138264400Y-82791700D03*
%TD*%
D29*
%TO.N,GND*%
X120808500Y-82579600D02*
X122131600Y-81256500D01*
X148549500Y-97001800D02*
X149651200Y-97001800D01*
X128429900Y-92193600D02*
X129996100Y-93759800D01*
X131989600Y-93759800D02*
X132177800Y-93571600D01*
X146254600Y-119592500D02*
X146809200Y-119037900D01*
X120710400Y-78928700D02*
X118580700Y-78928700D01*
X159587000Y-114002500D02*
X157324300Y-114002500D01*
X141371600Y-113600300D02*
X140022500Y-113600300D01*
X130976300Y-87522600D02*
X130976300Y-88674300D01*
X120808500Y-82579600D02*
X118744200Y-82579600D01*
X125050300Y-81256500D02*
X125050300Y-88003100D01*
X125050300Y-88003100D02*
X128429900Y-91382700D01*
X128137100Y-81256500D02*
X128264300Y-81129300D01*
X143505100Y-75332000D02*
X143505100Y-77208700D01*
X146809200Y-119037900D02*
X141371600Y-113600300D01*
X156574000Y-119257400D02*
X147028700Y-119257400D01*
X157312000Y-114014800D02*
X157312000Y-118519400D01*
X147028700Y-119257400D02*
X146809200Y-119037900D01*
X122131600Y-80349900D02*
X120710400Y-78928700D01*
X146254600Y-120744200D02*
X146254600Y-119592500D01*
X159354400Y-95885200D02*
X157910200Y-97329400D01*
X132177800Y-89607300D02*
X131244800Y-88674300D01*
X164259100Y-77712700D02*
X159354400Y-82617400D01*
X140022500Y-113600300D02*
X135674700Y-109252500D01*
X122131600Y-81256500D02*
X128137100Y-81256500D01*
X164259100Y-75510000D02*
X167490000Y-72279100D01*
X143505100Y-77208700D02*
X142867800Y-77208700D01*
X157312000Y-118519400D02*
X156574000Y-119257400D01*
X122131600Y-81256500D02*
X122131600Y-80349900D01*
X128429900Y-91382700D02*
X128429900Y-92193600D01*
X157910200Y-97329400D02*
X159354400Y-98773600D01*
X149978800Y-97329400D02*
X149651200Y-97001800D01*
X131244800Y-88674300D02*
X130976300Y-88674300D01*
X164259100Y-75610100D02*
X164259100Y-75510800D01*
X167490000Y-72279100D02*
X169353400Y-72279100D01*
X158081900Y-69332800D02*
X164259100Y-75510000D01*
X129996100Y-93759800D02*
X131989600Y-93759800D01*
X159354400Y-98773600D02*
X159354400Y-102335200D01*
X164259100Y-76611000D02*
X164259100Y-77712700D01*
X157910200Y-97329400D02*
X149978800Y-97329400D01*
X164259100Y-76611000D02*
X164259100Y-75610100D01*
X164259100Y-75510800D02*
X164259100Y-75510000D01*
X142867800Y-77208700D02*
X142731000Y-77345500D01*
X132177800Y-93571600D02*
X132177800Y-89607300D01*
%TO.N,/BareMinAtmel328P/RESET*%
X133051900Y-69174000D02*
X133051900Y-85249400D01*
X137460800Y-68103200D02*
X134122700Y-68103200D01*
X134122700Y-68103200D02*
X133051900Y-69174000D01*
X133051900Y-85249400D02*
X137892700Y-90090200D01*
X146045100Y-72158700D02*
X141516300Y-72158700D01*
X146045100Y-70282000D02*
X146045100Y-72158700D01*
X137892700Y-90090200D02*
X139412900Y-90090200D01*
X136437000Y-113752500D02*
X136437000Y-113353300D01*
X135385300Y-113752500D02*
X136437000Y-113752500D01*
X141516300Y-72158700D02*
X137460800Y-68103200D01*
X136437000Y-113353300D02*
X137680800Y-112109500D01*
%TO.N,+5V*%
X146045100Y-75332000D02*
X146045100Y-77208700D01*
X169350500Y-105166200D02*
X152735600Y-105166200D01*
X146045100Y-77208700D02*
X146160100Y-77208700D01*
X152735600Y-105166200D02*
X149651200Y-102081800D01*
X137415000Y-97001800D02*
X137067300Y-97349500D01*
X135965600Y-97349500D02*
X137067300Y-97349500D01*
X148549500Y-102081800D02*
X149651200Y-102081800D01*
X146160100Y-77208700D02*
X146363000Y-77411600D01*
X140929500Y-97001800D02*
X137415000Y-97001800D01*
%TO.N,CANBUS_L*%
X157148000Y-64252800D02*
X148749900Y-64252800D01*
X148749900Y-64252800D02*
X142757800Y-58260700D01*
X141656100Y-58260700D02*
X142757800Y-58260700D01*
%TO.N,CANBUS_H*%
X140201300Y-62008400D02*
X144985700Y-66792800D01*
X144985700Y-66792800D02*
X157148000Y-66792800D01*
X157148000Y-66792800D02*
X161432100Y-71076900D01*
X140201300Y-61738500D02*
X140201300Y-62008400D01*
X161432100Y-71076900D02*
X161751100Y-71076900D01*
X139049600Y-61738500D02*
X140201300Y-61738500D01*
%TO.N,/BareMinAtmel328P/PB5-D13-SCK*%
X148585100Y-73455300D02*
X148137600Y-73007800D01*
X148585100Y-75332000D02*
X148585100Y-73455300D01*
X136658200Y-68510600D02*
X134334300Y-68510600D01*
X141155400Y-73007800D02*
X136658200Y-68510600D01*
X134334300Y-68510600D02*
X133476500Y-69368400D01*
X145655000Y-73007800D02*
X141155400Y-73007800D01*
X133476500Y-69368400D02*
X133476500Y-83668700D01*
X148137600Y-73007800D02*
X145655000Y-73007800D01*
X137919600Y-88111800D02*
X141587400Y-88111800D01*
X141587400Y-88111800D02*
X143662900Y-90187300D01*
X133476500Y-83668700D02*
X137919600Y-88111800D01*
%TO.N,/BareMinAtmel328P/PB3-D11-MOSI*%
X142009100Y-68405300D02*
X140841600Y-69572800D01*
X143505100Y-70282000D02*
X143505100Y-68405300D01*
X132936800Y-106023100D02*
X141668600Y-106023100D01*
X140841600Y-69572800D02*
X138968800Y-67700000D01*
X141668600Y-106023100D02*
X145347300Y-109701800D01*
X122235400Y-76496700D02*
X116093900Y-76496700D01*
X114247500Y-78343100D02*
X114247500Y-87333800D01*
X114247500Y-87333800D02*
X132936800Y-106023100D01*
X145347300Y-109701800D02*
X148549500Y-109701800D01*
X116093900Y-76496700D02*
X114247500Y-78343100D01*
X143505100Y-68405300D02*
X142009100Y-68405300D01*
X122235400Y-70693200D02*
X122235400Y-76496700D01*
X125228600Y-67700000D02*
X122235400Y-70693200D01*
X138968800Y-67700000D02*
X125228600Y-67700000D01*
%TO.N,/BareMinAtmel328P/PB4-D12-MISO*%
X152658200Y-70164700D02*
X155286500Y-72793000D01*
X148585100Y-70164700D02*
X152658200Y-70164700D01*
X148110500Y-69572800D02*
X148585100Y-70047400D01*
X147573100Y-69572800D02*
X148110500Y-69572800D01*
%TO.N,/BareMinAtmel328P/PD1-TX*%
X140929500Y-86841800D02*
X139827800Y-86841800D01*
X139256000Y-87413600D02*
X139003500Y-87413600D01*
X139827800Y-86841800D02*
X139256000Y-87413600D01*
%TO.N,+VDC*%
X125079500Y-71125400D02*
X125079500Y-70018000D01*
X125079500Y-72234300D02*
X125079500Y-73418000D01*
D30*
X128146325Y-87478305D02*
X126020718Y-87478305D01*
D29*
X130976300Y-91450900D02*
X130688400Y-91450900D01*
D30*
X125079500Y-73418000D02*
X130894800Y-79233300D01*
X130894800Y-84729830D02*
X128146325Y-87478305D01*
D31*
X125079000Y-70018000D02*
X125079000Y-70904300D01*
D29*
X130976300Y-92602600D02*
X130976300Y-91450900D01*
X125079000Y-72233800D02*
X125079500Y-72234300D01*
X128146000Y-88908500D02*
X128146000Y-87478300D01*
D31*
X125079000Y-70904300D02*
X125079000Y-72233800D01*
D30*
X130894800Y-79233300D02*
X130894800Y-84729830D01*
D29*
X130688400Y-91450900D02*
X128146000Y-88908500D01*
D31*
X125079000Y-72233800D02*
X125079000Y-73563300D01*
D29*
%TO.N,/BareMinAtmel328P/PC2-A2*%
X149078000Y-93040300D02*
X135091200Y-93040300D01*
X148687200Y-90483500D02*
X149713200Y-91509500D01*
X135091200Y-93040300D02*
X132141600Y-95989900D01*
X132141600Y-95989900D02*
X131001200Y-95989900D01*
X123819300Y-88808000D02*
X123819300Y-82682300D01*
X148549500Y-89381800D02*
X148549500Y-90483500D01*
X149713200Y-91509500D02*
X149713200Y-92405100D01*
X148549500Y-90483500D02*
X148687200Y-90483500D01*
X149713200Y-92405100D02*
X149078000Y-93040300D01*
X131001200Y-95989900D02*
X123819300Y-88808000D01*
%TO.N,/BareMinAtmel328P/PC4-A4-SDA*%
X135525500Y-93677800D02*
X139621500Y-93677800D01*
X128260200Y-96599600D02*
X132603700Y-96599600D01*
X127193900Y-98603800D02*
X128260200Y-97537500D01*
X115644200Y-83983600D02*
X128260200Y-96599600D01*
X115644200Y-82579600D02*
X115644200Y-83983600D01*
X128260200Y-97537500D02*
X128260200Y-96599600D01*
X132603700Y-96599600D02*
X135525500Y-93677800D01*
%TO.N,/BareMinAtmel328P/PC1-A1*%
X136477600Y-90799900D02*
X133116000Y-94161500D01*
X129766500Y-94161500D02*
X124449400Y-88844400D01*
X124449400Y-88844400D02*
X124449400Y-88316000D01*
X133116000Y-94161500D02*
X129766500Y-94161500D01*
X148549500Y-91921800D02*
X147447800Y-91921800D01*
X147447800Y-91921800D02*
X146325900Y-90799900D01*
X146325900Y-90799900D02*
X136477600Y-90799900D01*
X123810400Y-79262500D02*
X125084400Y-80536500D01*
%TO.N,/BareMinAtmel328P/PC3-A3*%
X115480700Y-78928700D02*
X114670400Y-79739000D01*
X132627000Y-103291200D02*
X149825400Y-103291200D01*
X114670400Y-87052300D02*
X131677900Y-104059800D01*
X114670400Y-79739000D02*
X114670400Y-87052300D01*
X131677900Y-104059800D02*
X131858400Y-104059800D01*
X131858400Y-104059800D02*
X132627000Y-103291200D01*
%TO.N,/BareMinAtmel328P/PC0-A0*%
X147447800Y-94461800D02*
X146319300Y-95590300D01*
X148549500Y-94461800D02*
X147447800Y-94461800D01*
X136746400Y-95590300D02*
X135965600Y-94809500D01*
X146319300Y-95590300D02*
X136746400Y-95590300D01*
%TO.N,Net-(Q1-Pad3)*%
X134999500Y-71505000D02*
X134999500Y-70018000D01*
D31*
X136586000Y-79343600D02*
X136586000Y-75004600D01*
X134999000Y-73418000D02*
X134999000Y-70868000D01*
X136586000Y-75004600D02*
X135792500Y-74211300D01*
X135792500Y-74211300D02*
X134999000Y-73418000D01*
D29*
X135792500Y-74211300D02*
X134999500Y-73418300D01*
%TO.N,/BareMinAtmel328P/PD2-D2*%
X140929500Y-89381800D02*
X138090600Y-89381800D01*
X138090600Y-89381800D02*
X136310900Y-87602100D01*
%TO.N,Net-(U2-XTAL2{slash}PB7)*%
X154187000Y-116260200D02*
X154187000Y-114014800D01*
X140929500Y-104621800D02*
X142031200Y-104621800D01*
X156104800Y-118178000D02*
X154187000Y-116260200D01*
X148862400Y-108431800D02*
X145841200Y-108431800D01*
X145841200Y-108431800D02*
X142031200Y-104621800D01*
X154187000Y-113756400D02*
X148862400Y-108431800D01*
%TO.N,Net-(U3-OSC1)*%
X157633100Y-108923600D02*
X156129700Y-108923600D01*
X162712000Y-114002500D02*
X157633100Y-108923600D01*
%TO.N,/BufferedADC/ADCIN1*%
X129445500Y-100976600D02*
X127951700Y-99482800D01*
X156814400Y-102335200D02*
X155455800Y-100976600D01*
X155455800Y-100976600D02*
X129445500Y-100976600D01*
%TO.N,/BufferedADC/ADCIN4*%
X145786100Y-86310100D02*
X146382900Y-85713300D01*
X139335500Y-85571800D02*
X142029900Y-85571800D01*
X138191700Y-84428000D02*
X139335500Y-85571800D01*
X152576600Y-81963500D02*
X155792700Y-81963500D01*
X148826800Y-85713300D02*
X152576600Y-81963500D01*
X146382900Y-85713300D02*
X148826800Y-85713300D01*
X142768200Y-86310100D02*
X145786100Y-86310100D01*
X142029900Y-85571800D02*
X142768200Y-86310100D01*
X155792700Y-81963500D02*
X156814400Y-82985200D01*
%TO.N,/BufferedADC/ADCIN2*%
X152298600Y-95868000D02*
X147883300Y-95868000D01*
X145479500Y-98271800D02*
X136778000Y-98271800D01*
X156814400Y-95885200D02*
X155771900Y-96927700D01*
X153358300Y-96927700D02*
X152298600Y-95868000D01*
X136778000Y-98271800D02*
X136258300Y-98791500D01*
X155771900Y-96927700D02*
X153358300Y-96927700D01*
X147883300Y-95868000D02*
X145479500Y-98271800D01*
%TO.N,/BufferedADC/ADCIN3*%
X136981600Y-108171300D02*
X131227600Y-108171300D01*
X143080800Y-108286200D02*
X137096500Y-108286200D01*
X131227600Y-108171300D02*
X131227600Y-108236900D01*
X131227600Y-108171300D02*
X116824200Y-108171300D01*
X116824200Y-108171300D02*
X116596100Y-107943200D01*
X137096500Y-108286200D02*
X136981600Y-108171300D01*
D31*
%TO.N,Net-(J1-Pin_1)*%
X157148000Y-72977000D02*
X157148000Y-71872800D01*
X138915000Y-79554700D02*
X150570000Y-79554700D01*
X136586000Y-81883600D02*
X138915000Y-79554700D01*
X150570000Y-79554700D02*
X157148000Y-72977000D01*
D29*
%TO.N,Net-(J2-Pin_2)*%
X156487500Y-93672100D02*
X154274400Y-95885200D01*
X170699000Y-93672100D02*
X156487500Y-93672100D01*
%TO.N,Net-(J2-Pin_3)*%
X170699000Y-91132100D02*
X155971300Y-91132100D01*
X155971300Y-91132100D02*
X154274400Y-89435200D01*
%TO.N,Net-(J2-Pin_4)*%
X166797300Y-84690400D02*
X155979600Y-84690400D01*
X170699000Y-88592100D02*
X166797300Y-84690400D01*
X155979600Y-84690400D02*
X154274400Y-82985200D01*
%TO.N,Net-(J2-Pin_1)*%
X155318800Y-103379600D02*
X154274400Y-102335200D01*
X169297300Y-96212100D02*
X162129800Y-103379600D01*
X170699000Y-96212100D02*
X169297300Y-96212100D01*
X162129800Y-103379600D02*
X155318800Y-103379600D01*
%TO.N,Net-(U3-~{RESET})*%
X138672800Y-83200100D02*
X141650400Y-83200100D01*
X141650400Y-83200100D02*
X144151400Y-85701100D01*
X138264400Y-82791700D02*
X138672800Y-83200100D01*
%TD*%
M02*
