%TF.GenerationSoftware,KiCad,Pcbnew,8.0.1-rc1*%
%TF.CreationDate,2024-06-08T14:56:59-07:00*%
%TF.ProjectId,AMS - CANBus Sensor - Pressure,414d5320-2d20-4434-914e-427573205365,rev?*%
%TF.SameCoordinates,Original*%
%TF.FileFunction,Legend,Bot*%
%TF.FilePolarity,Positive*%
%FSLAX46Y46*%
G04 Gerber Fmt 4.6, Leading zero omitted, Abs format (unit mm)*
G04 Created by KiCad (PCBNEW 8.0.1-rc1) date 2024-06-08 14:56:59*
%MOMM*%
%LPD*%
G01*
G04 APERTURE LIST*
G04 Aperture macros list*
%AMRoundRect*
0 Rectangle with rounded corners*
0 $1 Rounding radius*
0 $2 $3 $4 $5 $6 $7 $8 $9 X,Y pos of 4 corners*
0 Add a 4 corners polygon primitive as box body*
4,1,4,$2,$3,$4,$5,$6,$7,$8,$9,$2,$3,0*
0 Add four circle primitives for the rounded corners*
1,1,$1+$1,$2,$3*
1,1,$1+$1,$4,$5*
1,1,$1+$1,$6,$7*
1,1,$1+$1,$8,$9*
0 Add four rect primitives between the rounded corners*
20,1,$1+$1,$2,$3,$4,$5,0*
20,1,$1+$1,$4,$5,$6,$7,0*
20,1,$1+$1,$6,$7,$8,$9,0*
20,1,$1+$1,$8,$9,$2,$3,0*%
G04 Aperture macros list end*
%ADD10C,0.150000*%
%ADD11C,0.254000*%
%ADD12C,0.120000*%
%ADD13C,0.200000*%
%ADD14C,1.440000*%
%ADD15C,1.100000*%
%ADD16R,2.200000X2.200000*%
%ADD17C,2.200000*%
%ADD18C,1.600000*%
%ADD19O,1.600000X1.600000*%
%ADD20R,1.700000X1.700000*%
%ADD21O,1.700000X1.700000*%
%ADD22C,2.400000*%
%ADD23R,1.600000X1.600000*%
%ADD24R,1.920000X1.920000*%
%ADD25C,1.920000*%
%ADD26C,1.500000*%
%ADD27R,1.500000X1.500000*%
%ADD28RoundRect,0.250000X0.400000X0.625000X-0.400000X0.625000X-0.400000X-0.625000X0.400000X-0.625000X0*%
%ADD29RoundRect,0.250000X-0.412500X-0.650000X0.412500X-0.650000X0.412500X0.650000X-0.412500X0.650000X0*%
%ADD30RoundRect,0.150000X0.825000X0.150000X-0.825000X0.150000X-0.825000X-0.150000X0.825000X-0.150000X0*%
%ADD31RoundRect,0.250000X-0.625000X0.400000X-0.625000X-0.400000X0.625000X-0.400000X0.625000X0.400000X0*%
%ADD32RoundRect,0.250000X0.412500X0.650000X-0.412500X0.650000X-0.412500X-0.650000X0.412500X-0.650000X0*%
%ADD33RoundRect,0.150000X0.875000X0.150000X-0.875000X0.150000X-0.875000X-0.150000X0.875000X-0.150000X0*%
%ADD34R,1.525000X0.650000*%
%ADD35RoundRect,0.250000X0.625000X-0.400000X0.625000X0.400000X-0.625000X0.400000X-0.625000X-0.400000X0*%
%ADD36R,1.000000X0.550000*%
G04 APERTURE END LIST*
D10*
X129175866Y-100112719D02*
X129509199Y-99636528D01*
X129747294Y-100112719D02*
X129747294Y-99112719D01*
X129747294Y-99112719D02*
X129366342Y-99112719D01*
X129366342Y-99112719D02*
X129271104Y-99160338D01*
X129271104Y-99160338D02*
X129223485Y-99207957D01*
X129223485Y-99207957D02*
X129175866Y-99303195D01*
X129175866Y-99303195D02*
X129175866Y-99446052D01*
X129175866Y-99446052D02*
X129223485Y-99541290D01*
X129223485Y-99541290D02*
X129271104Y-99588909D01*
X129271104Y-99588909D02*
X129366342Y-99636528D01*
X129366342Y-99636528D02*
X129747294Y-99636528D01*
X128604437Y-99541290D02*
X128699675Y-99493671D01*
X128699675Y-99493671D02*
X128747294Y-99446052D01*
X128747294Y-99446052D02*
X128794913Y-99350814D01*
X128794913Y-99350814D02*
X128794913Y-99303195D01*
X128794913Y-99303195D02*
X128747294Y-99207957D01*
X128747294Y-99207957D02*
X128699675Y-99160338D01*
X128699675Y-99160338D02*
X128604437Y-99112719D01*
X128604437Y-99112719D02*
X128413961Y-99112719D01*
X128413961Y-99112719D02*
X128318723Y-99160338D01*
X128318723Y-99160338D02*
X128271104Y-99207957D01*
X128271104Y-99207957D02*
X128223485Y-99303195D01*
X128223485Y-99303195D02*
X128223485Y-99350814D01*
X128223485Y-99350814D02*
X128271104Y-99446052D01*
X128271104Y-99446052D02*
X128318723Y-99493671D01*
X128318723Y-99493671D02*
X128413961Y-99541290D01*
X128413961Y-99541290D02*
X128604437Y-99541290D01*
X128604437Y-99541290D02*
X128699675Y-99588909D01*
X128699675Y-99588909D02*
X128747294Y-99636528D01*
X128747294Y-99636528D02*
X128794913Y-99731766D01*
X128794913Y-99731766D02*
X128794913Y-99922242D01*
X128794913Y-99922242D02*
X128747294Y-100017480D01*
X128747294Y-100017480D02*
X128699675Y-100065100D01*
X128699675Y-100065100D02*
X128604437Y-100112719D01*
X128604437Y-100112719D02*
X128413961Y-100112719D01*
X128413961Y-100112719D02*
X128318723Y-100065100D01*
X128318723Y-100065100D02*
X128271104Y-100017480D01*
X128271104Y-100017480D02*
X128223485Y-99922242D01*
X128223485Y-99922242D02*
X128223485Y-99731766D01*
X128223485Y-99731766D02*
X128271104Y-99636528D01*
X128271104Y-99636528D02*
X128318723Y-99588909D01*
X128318723Y-99588909D02*
X128413961Y-99541290D01*
X152423012Y-114428797D02*
X152470631Y-114476417D01*
X152470631Y-114476417D02*
X152613488Y-114524036D01*
X152613488Y-114524036D02*
X152708726Y-114524036D01*
X152708726Y-114524036D02*
X152851583Y-114476417D01*
X152851583Y-114476417D02*
X152946821Y-114381178D01*
X152946821Y-114381178D02*
X152994440Y-114285940D01*
X152994440Y-114285940D02*
X153042059Y-114095464D01*
X153042059Y-114095464D02*
X153042059Y-113952607D01*
X153042059Y-113952607D02*
X152994440Y-113762131D01*
X152994440Y-113762131D02*
X152946821Y-113666893D01*
X152946821Y-113666893D02*
X152851583Y-113571655D01*
X152851583Y-113571655D02*
X152708726Y-113524036D01*
X152708726Y-113524036D02*
X152613488Y-113524036D01*
X152613488Y-113524036D02*
X152470631Y-113571655D01*
X152470631Y-113571655D02*
X152423012Y-113619274D01*
X152042059Y-113619274D02*
X151994440Y-113571655D01*
X151994440Y-113571655D02*
X151899202Y-113524036D01*
X151899202Y-113524036D02*
X151661107Y-113524036D01*
X151661107Y-113524036D02*
X151565869Y-113571655D01*
X151565869Y-113571655D02*
X151518250Y-113619274D01*
X151518250Y-113619274D02*
X151470631Y-113714512D01*
X151470631Y-113714512D02*
X151470631Y-113809750D01*
X151470631Y-113809750D02*
X151518250Y-113952607D01*
X151518250Y-113952607D02*
X152089678Y-114524036D01*
X152089678Y-114524036D02*
X151470631Y-114524036D01*
X166355704Y-68320819D02*
X166355704Y-69130342D01*
X166355704Y-69130342D02*
X166308085Y-69225580D01*
X166308085Y-69225580D02*
X166260466Y-69273200D01*
X166260466Y-69273200D02*
X166165228Y-69320819D01*
X166165228Y-69320819D02*
X165974752Y-69320819D01*
X165974752Y-69320819D02*
X165879514Y-69273200D01*
X165879514Y-69273200D02*
X165831895Y-69225580D01*
X165831895Y-69225580D02*
X165784276Y-69130342D01*
X165784276Y-69130342D02*
X165784276Y-68320819D01*
X164879514Y-68654152D02*
X164879514Y-69320819D01*
X165117609Y-68273200D02*
X165355704Y-68987485D01*
X165355704Y-68987485D02*
X164736657Y-68987485D01*
X117437457Y-100883819D02*
X117770790Y-100407628D01*
X118008885Y-100883819D02*
X118008885Y-99883819D01*
X118008885Y-99883819D02*
X117627933Y-99883819D01*
X117627933Y-99883819D02*
X117532695Y-99931438D01*
X117532695Y-99931438D02*
X117485076Y-99979057D01*
X117485076Y-99979057D02*
X117437457Y-100074295D01*
X117437457Y-100074295D02*
X117437457Y-100217152D01*
X117437457Y-100217152D02*
X117485076Y-100312390D01*
X117485076Y-100312390D02*
X117532695Y-100360009D01*
X117532695Y-100360009D02*
X117627933Y-100407628D01*
X117627933Y-100407628D02*
X118008885Y-100407628D01*
X116485076Y-100883819D02*
X117056504Y-100883819D01*
X116770790Y-100883819D02*
X116770790Y-99883819D01*
X116770790Y-99883819D02*
X116866028Y-100026676D01*
X116866028Y-100026676D02*
X116961266Y-100121914D01*
X116961266Y-100121914D02*
X117056504Y-100169533D01*
X115627933Y-100217152D02*
X115627933Y-100883819D01*
X115866028Y-99836200D02*
X116104123Y-100550485D01*
X116104123Y-100550485D02*
X115485076Y-100550485D01*
X129980966Y-79764119D02*
X130314299Y-79287928D01*
X130552394Y-79764119D02*
X130552394Y-78764119D01*
X130552394Y-78764119D02*
X130171442Y-78764119D01*
X130171442Y-78764119D02*
X130076204Y-78811738D01*
X130076204Y-78811738D02*
X130028585Y-78859357D01*
X130028585Y-78859357D02*
X129980966Y-78954595D01*
X129980966Y-78954595D02*
X129980966Y-79097452D01*
X129980966Y-79097452D02*
X130028585Y-79192690D01*
X130028585Y-79192690D02*
X130076204Y-79240309D01*
X130076204Y-79240309D02*
X130171442Y-79287928D01*
X130171442Y-79287928D02*
X130552394Y-79287928D01*
X129028585Y-79764119D02*
X129600013Y-79764119D01*
X129314299Y-79764119D02*
X129314299Y-78764119D01*
X129314299Y-78764119D02*
X129409537Y-78906976D01*
X129409537Y-78906976D02*
X129504775Y-79002214D01*
X129504775Y-79002214D02*
X129600013Y-79049833D01*
X130731219Y-111295633D02*
X130255028Y-110962300D01*
X130731219Y-110724205D02*
X129731219Y-110724205D01*
X129731219Y-110724205D02*
X129731219Y-111105157D01*
X129731219Y-111105157D02*
X129778838Y-111200395D01*
X129778838Y-111200395D02*
X129826457Y-111248014D01*
X129826457Y-111248014D02*
X129921695Y-111295633D01*
X129921695Y-111295633D02*
X130064552Y-111295633D01*
X130064552Y-111295633D02*
X130159790Y-111248014D01*
X130159790Y-111248014D02*
X130207409Y-111200395D01*
X130207409Y-111200395D02*
X130255028Y-111105157D01*
X130255028Y-111105157D02*
X130255028Y-110724205D01*
X130064552Y-112152776D02*
X130731219Y-112152776D01*
X129683600Y-111914681D02*
X130397885Y-111676586D01*
X130397885Y-111676586D02*
X130397885Y-112295633D01*
X164900820Y-114346879D02*
X164948439Y-114394499D01*
X164948439Y-114394499D02*
X165091296Y-114442118D01*
X165091296Y-114442118D02*
X165186534Y-114442118D01*
X165186534Y-114442118D02*
X165329391Y-114394499D01*
X165329391Y-114394499D02*
X165424629Y-114299260D01*
X165424629Y-114299260D02*
X165472248Y-114204022D01*
X165472248Y-114204022D02*
X165519867Y-114013546D01*
X165519867Y-114013546D02*
X165519867Y-113870689D01*
X165519867Y-113870689D02*
X165472248Y-113680213D01*
X165472248Y-113680213D02*
X165424629Y-113584975D01*
X165424629Y-113584975D02*
X165329391Y-113489737D01*
X165329391Y-113489737D02*
X165186534Y-113442118D01*
X165186534Y-113442118D02*
X165091296Y-113442118D01*
X165091296Y-113442118D02*
X164948439Y-113489737D01*
X164948439Y-113489737D02*
X164900820Y-113537356D01*
X164043677Y-113775451D02*
X164043677Y-114442118D01*
X164281772Y-113394499D02*
X164519867Y-114108784D01*
X164519867Y-114108784D02*
X163900820Y-114108784D01*
X147567004Y-62941819D02*
X147567004Y-63751342D01*
X147567004Y-63751342D02*
X147519385Y-63846580D01*
X147519385Y-63846580D02*
X147471766Y-63894200D01*
X147471766Y-63894200D02*
X147376528Y-63941819D01*
X147376528Y-63941819D02*
X147186052Y-63941819D01*
X147186052Y-63941819D02*
X147090814Y-63894200D01*
X147090814Y-63894200D02*
X147043195Y-63846580D01*
X147043195Y-63846580D02*
X146995576Y-63751342D01*
X146995576Y-63751342D02*
X146995576Y-62941819D01*
X146614623Y-62941819D02*
X145995576Y-62941819D01*
X145995576Y-62941819D02*
X146328909Y-63322771D01*
X146328909Y-63322771D02*
X146186052Y-63322771D01*
X146186052Y-63322771D02*
X146090814Y-63370390D01*
X146090814Y-63370390D02*
X146043195Y-63418009D01*
X146043195Y-63418009D02*
X145995576Y-63513247D01*
X145995576Y-63513247D02*
X145995576Y-63751342D01*
X145995576Y-63751342D02*
X146043195Y-63846580D01*
X146043195Y-63846580D02*
X146090814Y-63894200D01*
X146090814Y-63894200D02*
X146186052Y-63941819D01*
X146186052Y-63941819D02*
X146471766Y-63941819D01*
X146471766Y-63941819D02*
X146567004Y-63894200D01*
X146567004Y-63894200D02*
X146614623Y-63846580D01*
D11*
X121766562Y-94854918D02*
X121766562Y-93584918D01*
X120436085Y-94733965D02*
X120496561Y-94794442D01*
X120496561Y-94794442D02*
X120677990Y-94854918D01*
X120677990Y-94854918D02*
X120798942Y-94854918D01*
X120798942Y-94854918D02*
X120980371Y-94794442D01*
X120980371Y-94794442D02*
X121101323Y-94673489D01*
X121101323Y-94673489D02*
X121161800Y-94552537D01*
X121161800Y-94552537D02*
X121222276Y-94310632D01*
X121222276Y-94310632D02*
X121222276Y-94129203D01*
X121222276Y-94129203D02*
X121161800Y-93887299D01*
X121161800Y-93887299D02*
X121101323Y-93766346D01*
X121101323Y-93766346D02*
X120980371Y-93645394D01*
X120980371Y-93645394D02*
X120798942Y-93584918D01*
X120798942Y-93584918D02*
X120677990Y-93584918D01*
X120677990Y-93584918D02*
X120496561Y-93645394D01*
X120496561Y-93645394D02*
X120436085Y-93705870D01*
X119952276Y-93705870D02*
X119891800Y-93645394D01*
X119891800Y-93645394D02*
X119770847Y-93584918D01*
X119770847Y-93584918D02*
X119468466Y-93584918D01*
X119468466Y-93584918D02*
X119347514Y-93645394D01*
X119347514Y-93645394D02*
X119287038Y-93705870D01*
X119287038Y-93705870D02*
X119226561Y-93826822D01*
X119226561Y-93826822D02*
X119226561Y-93947775D01*
X119226561Y-93947775D02*
X119287038Y-94129203D01*
X119287038Y-94129203D02*
X120012752Y-94854918D01*
X120012752Y-94854918D02*
X119226561Y-94854918D01*
D10*
X146977819Y-85480133D02*
X146501628Y-85146800D01*
X146977819Y-84908705D02*
X145977819Y-84908705D01*
X145977819Y-84908705D02*
X145977819Y-85289657D01*
X145977819Y-85289657D02*
X146025438Y-85384895D01*
X146025438Y-85384895D02*
X146073057Y-85432514D01*
X146073057Y-85432514D02*
X146168295Y-85480133D01*
X146168295Y-85480133D02*
X146311152Y-85480133D01*
X146311152Y-85480133D02*
X146406390Y-85432514D01*
X146406390Y-85432514D02*
X146454009Y-85384895D01*
X146454009Y-85384895D02*
X146501628Y-85289657D01*
X146501628Y-85289657D02*
X146501628Y-84908705D01*
X145977819Y-86384895D02*
X145977819Y-85908705D01*
X145977819Y-85908705D02*
X146454009Y-85861086D01*
X146454009Y-85861086D02*
X146406390Y-85908705D01*
X146406390Y-85908705D02*
X146358771Y-86003943D01*
X146358771Y-86003943D02*
X146358771Y-86242038D01*
X146358771Y-86242038D02*
X146406390Y-86337276D01*
X146406390Y-86337276D02*
X146454009Y-86384895D01*
X146454009Y-86384895D02*
X146549247Y-86432514D01*
X146549247Y-86432514D02*
X146787342Y-86432514D01*
X146787342Y-86432514D02*
X146882580Y-86384895D01*
X146882580Y-86384895D02*
X146930200Y-86337276D01*
X146930200Y-86337276D02*
X146977819Y-86242038D01*
X146977819Y-86242038D02*
X146977819Y-86003943D01*
X146977819Y-86003943D02*
X146930200Y-85908705D01*
X146930200Y-85908705D02*
X146882580Y-85861086D01*
X134607819Y-90532033D02*
X134131628Y-90198700D01*
X134607819Y-89960605D02*
X133607819Y-89960605D01*
X133607819Y-89960605D02*
X133607819Y-90341557D01*
X133607819Y-90341557D02*
X133655438Y-90436795D01*
X133655438Y-90436795D02*
X133703057Y-90484414D01*
X133703057Y-90484414D02*
X133798295Y-90532033D01*
X133798295Y-90532033D02*
X133941152Y-90532033D01*
X133941152Y-90532033D02*
X134036390Y-90484414D01*
X134036390Y-90484414D02*
X134084009Y-90436795D01*
X134084009Y-90436795D02*
X134131628Y-90341557D01*
X134131628Y-90341557D02*
X134131628Y-89960605D01*
X133607819Y-90865367D02*
X133607819Y-91484414D01*
X133607819Y-91484414D02*
X133988771Y-91151081D01*
X133988771Y-91151081D02*
X133988771Y-91293938D01*
X133988771Y-91293938D02*
X134036390Y-91389176D01*
X134036390Y-91389176D02*
X134084009Y-91436795D01*
X134084009Y-91436795D02*
X134179247Y-91484414D01*
X134179247Y-91484414D02*
X134417342Y-91484414D01*
X134417342Y-91484414D02*
X134512580Y-91436795D01*
X134512580Y-91436795D02*
X134560200Y-91389176D01*
X134560200Y-91389176D02*
X134607819Y-91293938D01*
X134607819Y-91293938D02*
X134607819Y-91008224D01*
X134607819Y-91008224D02*
X134560200Y-90912986D01*
X134560200Y-90912986D02*
X134512580Y-90865367D01*
X137354254Y-115871040D02*
X137401873Y-115918660D01*
X137401873Y-115918660D02*
X137544730Y-115966279D01*
X137544730Y-115966279D02*
X137639968Y-115966279D01*
X137639968Y-115966279D02*
X137782825Y-115918660D01*
X137782825Y-115918660D02*
X137878063Y-115823421D01*
X137878063Y-115823421D02*
X137925682Y-115728183D01*
X137925682Y-115728183D02*
X137973301Y-115537707D01*
X137973301Y-115537707D02*
X137973301Y-115394850D01*
X137973301Y-115394850D02*
X137925682Y-115204374D01*
X137925682Y-115204374D02*
X137878063Y-115109136D01*
X137878063Y-115109136D02*
X137782825Y-115013898D01*
X137782825Y-115013898D02*
X137639968Y-114966279D01*
X137639968Y-114966279D02*
X137544730Y-114966279D01*
X137544730Y-114966279D02*
X137401873Y-115013898D01*
X137401873Y-115013898D02*
X137354254Y-115061517D01*
X136401873Y-115966279D02*
X136973301Y-115966279D01*
X136687587Y-115966279D02*
X136687587Y-114966279D01*
X136687587Y-114966279D02*
X136782825Y-115109136D01*
X136782825Y-115109136D02*
X136878063Y-115204374D01*
X136878063Y-115204374D02*
X136973301Y-115251993D01*
X143630419Y-100892333D02*
X143154228Y-100559000D01*
X143630419Y-100320905D02*
X142630419Y-100320905D01*
X142630419Y-100320905D02*
X142630419Y-100701857D01*
X142630419Y-100701857D02*
X142678038Y-100797095D01*
X142678038Y-100797095D02*
X142725657Y-100844714D01*
X142725657Y-100844714D02*
X142820895Y-100892333D01*
X142820895Y-100892333D02*
X142963752Y-100892333D01*
X142963752Y-100892333D02*
X143058990Y-100844714D01*
X143058990Y-100844714D02*
X143106609Y-100797095D01*
X143106609Y-100797095D02*
X143154228Y-100701857D01*
X143154228Y-100701857D02*
X143154228Y-100320905D01*
X142725657Y-101273286D02*
X142678038Y-101320905D01*
X142678038Y-101320905D02*
X142630419Y-101416143D01*
X142630419Y-101416143D02*
X142630419Y-101654238D01*
X142630419Y-101654238D02*
X142678038Y-101749476D01*
X142678038Y-101749476D02*
X142725657Y-101797095D01*
X142725657Y-101797095D02*
X142820895Y-101844714D01*
X142820895Y-101844714D02*
X142916133Y-101844714D01*
X142916133Y-101844714D02*
X143058990Y-101797095D01*
X143058990Y-101797095D02*
X143630419Y-101225667D01*
X143630419Y-101225667D02*
X143630419Y-101844714D01*
X129176262Y-103646511D02*
X129509595Y-103170320D01*
X129747690Y-103646511D02*
X129747690Y-102646511D01*
X129747690Y-102646511D02*
X129366738Y-102646511D01*
X129366738Y-102646511D02*
X129271500Y-102694130D01*
X129271500Y-102694130D02*
X129223881Y-102741749D01*
X129223881Y-102741749D02*
X129176262Y-102836987D01*
X129176262Y-102836987D02*
X129176262Y-102979844D01*
X129176262Y-102979844D02*
X129223881Y-103075082D01*
X129223881Y-103075082D02*
X129271500Y-103122701D01*
X129271500Y-103122701D02*
X129366738Y-103170320D01*
X129366738Y-103170320D02*
X129747690Y-103170320D01*
X128700071Y-103646511D02*
X128509595Y-103646511D01*
X128509595Y-103646511D02*
X128414357Y-103598892D01*
X128414357Y-103598892D02*
X128366738Y-103551272D01*
X128366738Y-103551272D02*
X128271500Y-103408415D01*
X128271500Y-103408415D02*
X128223881Y-103217939D01*
X128223881Y-103217939D02*
X128223881Y-102836987D01*
X128223881Y-102836987D02*
X128271500Y-102741749D01*
X128271500Y-102741749D02*
X128319119Y-102694130D01*
X128319119Y-102694130D02*
X128414357Y-102646511D01*
X128414357Y-102646511D02*
X128604833Y-102646511D01*
X128604833Y-102646511D02*
X128700071Y-102694130D01*
X128700071Y-102694130D02*
X128747690Y-102741749D01*
X128747690Y-102741749D02*
X128795309Y-102836987D01*
X128795309Y-102836987D02*
X128795309Y-103075082D01*
X128795309Y-103075082D02*
X128747690Y-103170320D01*
X128747690Y-103170320D02*
X128700071Y-103217939D01*
X128700071Y-103217939D02*
X128604833Y-103265558D01*
X128604833Y-103265558D02*
X128414357Y-103265558D01*
X128414357Y-103265558D02*
X128319119Y-103217939D01*
X128319119Y-103217939D02*
X128271500Y-103170320D01*
X128271500Y-103170320D02*
X128223881Y-103075082D01*
X136175538Y-105960547D02*
X136223157Y-106008167D01*
X136223157Y-106008167D02*
X136366014Y-106055786D01*
X136366014Y-106055786D02*
X136461252Y-106055786D01*
X136461252Y-106055786D02*
X136604109Y-106008167D01*
X136604109Y-106008167D02*
X136699347Y-105912928D01*
X136699347Y-105912928D02*
X136746966Y-105817690D01*
X136746966Y-105817690D02*
X136794585Y-105627214D01*
X136794585Y-105627214D02*
X136794585Y-105484357D01*
X136794585Y-105484357D02*
X136746966Y-105293881D01*
X136746966Y-105293881D02*
X136699347Y-105198643D01*
X136699347Y-105198643D02*
X136604109Y-105103405D01*
X136604109Y-105103405D02*
X136461252Y-105055786D01*
X136461252Y-105055786D02*
X136366014Y-105055786D01*
X136366014Y-105055786D02*
X136223157Y-105103405D01*
X136223157Y-105103405D02*
X136175538Y-105151024D01*
X135842204Y-105055786D02*
X135175538Y-105055786D01*
X135175538Y-105055786D02*
X135604109Y-106055786D01*
D11*
X157455189Y-78431159D02*
X157455189Y-77161159D01*
X157455189Y-77161159D02*
X157152808Y-77161159D01*
X157152808Y-77161159D02*
X156971379Y-77221635D01*
X156971379Y-77221635D02*
X156850427Y-77342587D01*
X156850427Y-77342587D02*
X156789950Y-77463540D01*
X156789950Y-77463540D02*
X156729474Y-77705444D01*
X156729474Y-77705444D02*
X156729474Y-77886873D01*
X156729474Y-77886873D02*
X156789950Y-78128778D01*
X156789950Y-78128778D02*
X156850427Y-78249730D01*
X156850427Y-78249730D02*
X156971379Y-78370683D01*
X156971379Y-78370683D02*
X157152808Y-78431159D01*
X157152808Y-78431159D02*
X157455189Y-78431159D01*
X155519950Y-78431159D02*
X156245665Y-78431159D01*
X155882808Y-78431159D02*
X155882808Y-77161159D01*
X155882808Y-77161159D02*
X156003760Y-77342587D01*
X156003760Y-77342587D02*
X156124712Y-77463540D01*
X156124712Y-77463540D02*
X156245665Y-77524016D01*
D10*
X117443906Y-104394917D02*
X117777239Y-103918726D01*
X118015334Y-104394917D02*
X118015334Y-103394917D01*
X118015334Y-103394917D02*
X117634382Y-103394917D01*
X117634382Y-103394917D02*
X117539144Y-103442536D01*
X117539144Y-103442536D02*
X117491525Y-103490155D01*
X117491525Y-103490155D02*
X117443906Y-103585393D01*
X117443906Y-103585393D02*
X117443906Y-103728250D01*
X117443906Y-103728250D02*
X117491525Y-103823488D01*
X117491525Y-103823488D02*
X117539144Y-103871107D01*
X117539144Y-103871107D02*
X117634382Y-103918726D01*
X117634382Y-103918726D02*
X118015334Y-103918726D01*
X116491525Y-104394917D02*
X117062953Y-104394917D01*
X116777239Y-104394917D02*
X116777239Y-103394917D01*
X116777239Y-103394917D02*
X116872477Y-103537774D01*
X116872477Y-103537774D02*
X116967715Y-103633012D01*
X116967715Y-103633012D02*
X117062953Y-103680631D01*
X115586763Y-103394917D02*
X116062953Y-103394917D01*
X116062953Y-103394917D02*
X116110572Y-103871107D01*
X116110572Y-103871107D02*
X116062953Y-103823488D01*
X116062953Y-103823488D02*
X115967715Y-103775869D01*
X115967715Y-103775869D02*
X115729620Y-103775869D01*
X115729620Y-103775869D02*
X115634382Y-103823488D01*
X115634382Y-103823488D02*
X115586763Y-103871107D01*
X115586763Y-103871107D02*
X115539144Y-103966345D01*
X115539144Y-103966345D02*
X115539144Y-104204440D01*
X115539144Y-104204440D02*
X115586763Y-104299678D01*
X115586763Y-104299678D02*
X115634382Y-104347298D01*
X115634382Y-104347298D02*
X115729620Y-104394917D01*
X115729620Y-104394917D02*
X115967715Y-104394917D01*
X115967715Y-104394917D02*
X116062953Y-104347298D01*
X116062953Y-104347298D02*
X116110572Y-104299678D01*
X136305966Y-99941380D02*
X136353585Y-99989000D01*
X136353585Y-99989000D02*
X136496442Y-100036619D01*
X136496442Y-100036619D02*
X136591680Y-100036619D01*
X136591680Y-100036619D02*
X136734537Y-99989000D01*
X136734537Y-99989000D02*
X136829775Y-99893761D01*
X136829775Y-99893761D02*
X136877394Y-99798523D01*
X136877394Y-99798523D02*
X136925013Y-99608047D01*
X136925013Y-99608047D02*
X136925013Y-99465190D01*
X136925013Y-99465190D02*
X136877394Y-99274714D01*
X136877394Y-99274714D02*
X136829775Y-99179476D01*
X136829775Y-99179476D02*
X136734537Y-99084238D01*
X136734537Y-99084238D02*
X136591680Y-99036619D01*
X136591680Y-99036619D02*
X136496442Y-99036619D01*
X136496442Y-99036619D02*
X136353585Y-99084238D01*
X136353585Y-99084238D02*
X136305966Y-99131857D01*
X135448823Y-99036619D02*
X135639299Y-99036619D01*
X135639299Y-99036619D02*
X135734537Y-99084238D01*
X135734537Y-99084238D02*
X135782156Y-99131857D01*
X135782156Y-99131857D02*
X135877394Y-99274714D01*
X135877394Y-99274714D02*
X135925013Y-99465190D01*
X135925013Y-99465190D02*
X135925013Y-99846142D01*
X135925013Y-99846142D02*
X135877394Y-99941380D01*
X135877394Y-99941380D02*
X135829775Y-99989000D01*
X135829775Y-99989000D02*
X135734537Y-100036619D01*
X135734537Y-100036619D02*
X135544061Y-100036619D01*
X135544061Y-100036619D02*
X135448823Y-99989000D01*
X135448823Y-99989000D02*
X135401204Y-99941380D01*
X135401204Y-99941380D02*
X135353585Y-99846142D01*
X135353585Y-99846142D02*
X135353585Y-99608047D01*
X135353585Y-99608047D02*
X135401204Y-99512809D01*
X135401204Y-99512809D02*
X135448823Y-99465190D01*
X135448823Y-99465190D02*
X135544061Y-99417571D01*
X135544061Y-99417571D02*
X135734537Y-99417571D01*
X135734537Y-99417571D02*
X135829775Y-99465190D01*
X135829775Y-99465190D02*
X135877394Y-99512809D01*
X135877394Y-99512809D02*
X135925013Y-99608047D01*
D12*
%TO.C,R8*%
X128282136Y-100567900D02*
X129736264Y-100567900D01*
X128282136Y-102387900D02*
X129736264Y-102387900D01*
%TO.C,C2*%
X156473252Y-113098300D02*
X155050748Y-113098300D01*
X156473252Y-114918300D02*
X155050748Y-114918300D01*
%TO.C,U4*%
X163643800Y-69706000D02*
X165593800Y-69706000D01*
X163643800Y-74826000D02*
X165593800Y-74826000D01*
X167543800Y-69706000D02*
X165593800Y-69706000D01*
X167543800Y-74826000D02*
X165593800Y-74826000D01*
X168293800Y-69801000D02*
X168053800Y-69471000D01*
X168533800Y-69471000D01*
X168293800Y-69801000D01*
G36*
X168293800Y-69801000D02*
G01*
X168053800Y-69471000D01*
X168533800Y-69471000D01*
X168293800Y-69801000D01*
G37*
%TO.C,R14*%
X116067536Y-101339000D02*
X117521664Y-101339000D01*
X116067536Y-103159000D02*
X117521664Y-103159000D01*
%TO.C,R1*%
X129087236Y-80219300D02*
X130541364Y-80219300D01*
X129087236Y-82039300D02*
X130541364Y-82039300D01*
%TO.C,R4*%
X131186400Y-112189364D02*
X131186400Y-110735236D01*
X133006400Y-112189364D02*
X133006400Y-110735236D01*
%TO.C,C4*%
X160428248Y-113073400D02*
X161850752Y-113073400D01*
X160428248Y-114893400D02*
X161850752Y-114893400D01*
%TO.C,U3*%
X142945100Y-64322000D02*
X146805100Y-64322000D01*
X142945100Y-64567000D02*
X142945100Y-64322000D01*
X142945100Y-75847000D02*
X142945100Y-76092000D01*
X142945100Y-76092000D02*
X146805100Y-76092000D01*
X150665100Y-64322000D02*
X146805100Y-64322000D01*
X150665100Y-64567000D02*
X150665100Y-64322000D01*
X150665100Y-75847000D02*
X150665100Y-76092000D01*
X150665100Y-76092000D02*
X146805100Y-76092000D01*
X151517600Y-64567000D02*
X151177600Y-64097000D01*
X151857600Y-64097000D01*
X151517600Y-64567000D01*
G36*
X151517600Y-64567000D02*
G01*
X151177600Y-64097000D01*
X151857600Y-64097000D01*
X151517600Y-64567000D01*
G37*
D13*
%TO.C,IC2*%
X118926800Y-89955600D02*
X122126800Y-89955600D01*
X118926800Y-98605600D02*
X118926800Y-89955600D01*
X122126800Y-89955600D02*
X122126800Y-98605600D01*
X122126800Y-98605600D02*
X118926800Y-98605600D01*
X122476800Y-89795600D02*
X124001800Y-89795600D01*
D12*
%TO.C,R5*%
X143793000Y-84919736D02*
X143793000Y-86373864D01*
X145613000Y-84919736D02*
X145613000Y-86373864D01*
%TO.C,R3*%
X135063000Y-91425764D02*
X135063000Y-89971636D01*
X136883000Y-91425764D02*
X136883000Y-89971636D01*
%TO.C,C1*%
X136443348Y-116289700D02*
X137865852Y-116289700D01*
X136443348Y-118109700D02*
X137865852Y-118109700D01*
%TO.C,R2*%
X144085600Y-101786064D02*
X144085600Y-100331936D01*
X145905600Y-101786064D02*
X145905600Y-100331936D01*
%TO.C,R9*%
X128282136Y-103857900D02*
X129736264Y-103857900D01*
X128282136Y-105677900D02*
X129736264Y-105677900D01*
%TO.C,C7*%
X135431748Y-102991700D02*
X136854252Y-102991700D01*
X135431748Y-104811700D02*
X136854252Y-104811700D01*
D13*
%TO.C,D1*%
X156231400Y-74823600D02*
X156431400Y-74823600D01*
X156231400Y-76823600D02*
X156231400Y-74823600D01*
X156431400Y-74823600D02*
X156431400Y-76823600D01*
X156431400Y-76823600D02*
X156231400Y-76823600D01*
X156781400Y-74648600D02*
X157781400Y-74648600D01*
D12*
%TO.C,R15*%
X116067536Y-104629000D02*
X117521664Y-104629000D01*
X116067536Y-106449000D02*
X117521664Y-106449000D01*
%TO.C,C6*%
X135428048Y-100521800D02*
X136850552Y-100521800D01*
X135428048Y-102341800D02*
X136850552Y-102341800D01*
%TD*%
%LPC*%
D14*
%TO.C,RV2*%
X154274400Y-95885200D03*
X156814400Y-95885200D03*
X159354400Y-95885200D03*
%TD*%
D15*
%TO.C,J6*%
X173258000Y-84022300D03*
X173258000Y-81482300D03*
D16*
X170718000Y-84022300D03*
D17*
X170718000Y-81482300D03*
%TD*%
D14*
%TO.C,RV3*%
X154274400Y-89435200D03*
X156814400Y-89435200D03*
X159354400Y-89435200D03*
%TD*%
D18*
%TO.C,R7*%
X139116100Y-58260700D03*
D19*
X141656100Y-58260700D03*
%TD*%
D16*
%TO.C,J1*%
X157148000Y-71872800D03*
D17*
X157148000Y-69332800D03*
X157148000Y-66792800D03*
X157148000Y-64252800D03*
%TD*%
D18*
%TO.C,NTC1*%
X135965600Y-94809500D03*
D19*
X135965600Y-97349500D03*
%TD*%
D20*
%TO.C,J3*%
X146254600Y-120744200D03*
D21*
X143714600Y-120744200D03*
X141174600Y-120744200D03*
X138634600Y-120744200D03*
X136094600Y-120744200D03*
X133554600Y-120744200D03*
%TD*%
D14*
%TO.C,RV1*%
X154274400Y-102335200D03*
X156814400Y-102335200D03*
X159354400Y-102335200D03*
%TD*%
D22*
%TO.C,U5*%
X134999500Y-70018000D03*
X134999500Y-73418000D03*
X125079500Y-70018000D03*
X125079500Y-73418000D03*
%TD*%
D18*
%TO.C,R6*%
X166799100Y-76611000D03*
D19*
X164259100Y-76611000D03*
%TD*%
D20*
%TO.C,Powerboard1*%
X130976300Y-92602600D03*
D21*
X130976300Y-90062600D03*
X130976300Y-87522600D03*
%TD*%
D23*
%TO.C,U2*%
X140929500Y-81761800D03*
D19*
X140929500Y-84301800D03*
X140929500Y-86841800D03*
X140929500Y-89381800D03*
X140929500Y-91921800D03*
X140929500Y-94461800D03*
X140929500Y-97001800D03*
X140929500Y-99541800D03*
X140929500Y-102081800D03*
X140929500Y-104621800D03*
X140929500Y-107161800D03*
X140929500Y-109701800D03*
X140929500Y-112241800D03*
X140929500Y-114781800D03*
X148549500Y-114781800D03*
X148549500Y-112241800D03*
X148549500Y-109701800D03*
X148549500Y-107161800D03*
X148549500Y-104621800D03*
X148549500Y-102081800D03*
X148549500Y-99541800D03*
X148549500Y-97001800D03*
X148549500Y-94461800D03*
X148549500Y-91921800D03*
X148549500Y-89381800D03*
X148549500Y-86841800D03*
X148549500Y-84301800D03*
X148549500Y-81761800D03*
%TD*%
D20*
%TO.C,J5*%
X139049600Y-61738500D03*
D21*
X141589600Y-61738500D03*
%TD*%
D24*
%TO.C,Q1*%
X136586000Y-84423600D03*
D25*
X136586000Y-81883600D03*
X136586000Y-79343600D03*
%TD*%
D16*
%TO.C,J2*%
X170699000Y-96212100D03*
D17*
X170699000Y-93672100D03*
X170699000Y-91132100D03*
X170699000Y-88592100D03*
%TD*%
D14*
%TO.C,RV4*%
X154274400Y-82985200D03*
X156814400Y-82985200D03*
X159354400Y-82985200D03*
%TD*%
D26*
%TO.C,Y2*%
X156129700Y-108923600D03*
X161009700Y-108923600D03*
%TD*%
D27*
%TO.C,Reset1*%
X135385300Y-113752500D03*
D26*
X128885300Y-113752500D03*
X135385300Y-109252500D03*
X128885300Y-109252500D03*
%TD*%
%TO.C,Y1*%
X156104800Y-118178000D03*
X160984800Y-118178000D03*
%TD*%
D22*
%TO.C,U1*%
X179270500Y-101766200D03*
X179270500Y-105166200D03*
X169350500Y-101766200D03*
X169350500Y-105166200D03*
%TD*%
D28*
%TO.C,R8*%
X130559200Y-101477900D03*
X127459200Y-101477900D03*
%TD*%
D29*
%TO.C,C2*%
X154199500Y-114008300D03*
X157324500Y-114008300D03*
%TD*%
D30*
%TO.C,U4*%
X168068800Y-70361000D03*
X168068800Y-71631000D03*
X168068800Y-72901000D03*
X168068800Y-74171000D03*
X163118800Y-74171000D03*
X163118800Y-72901000D03*
X163118800Y-71631000D03*
X163118800Y-70361000D03*
%TD*%
D28*
%TO.C,R14*%
X118344600Y-102249000D03*
X115244600Y-102249000D03*
%TD*%
%TO.C,R1*%
X131364300Y-81129300D03*
X128264300Y-81129300D03*
%TD*%
D31*
%TO.C,R4*%
X132096400Y-109912300D03*
X132096400Y-113012300D03*
%TD*%
D32*
%TO.C,C4*%
X162702000Y-113983400D03*
X159577000Y-113983400D03*
%TD*%
D33*
%TO.C,U3*%
X151455100Y-65127000D03*
X151455100Y-66397000D03*
X151455100Y-67667000D03*
X151455100Y-68937000D03*
X151455100Y-70207000D03*
X151455100Y-71477000D03*
X151455100Y-72747000D03*
X151455100Y-74017000D03*
X151455100Y-75287000D03*
X142155100Y-75287000D03*
X142155100Y-74017000D03*
X142155100Y-72747000D03*
X142155100Y-71477000D03*
X142155100Y-70207000D03*
X142155100Y-68937000D03*
X142155100Y-67667000D03*
X142155100Y-66397000D03*
X142155100Y-65127000D03*
%TD*%
D34*
%TO.C,IC2*%
X123238800Y-90470600D03*
X123238800Y-91740600D03*
X123238800Y-93010600D03*
X123238800Y-94280600D03*
X123238800Y-95550600D03*
X123238800Y-96820600D03*
X123238800Y-98090600D03*
X117814800Y-98090600D03*
X117814800Y-96820600D03*
X117814800Y-95550600D03*
X117814800Y-94280600D03*
X117814800Y-93010600D03*
X117814800Y-91740600D03*
X117814800Y-90470600D03*
%TD*%
D35*
%TO.C,R5*%
X144703000Y-87196800D03*
X144703000Y-84096800D03*
%TD*%
D31*
%TO.C,R3*%
X135973000Y-89148700D03*
X135973000Y-92248700D03*
%TD*%
D32*
%TO.C,C1*%
X138717100Y-117199700D03*
X135592100Y-117199700D03*
%TD*%
D31*
%TO.C,R2*%
X144995600Y-99509000D03*
X144995600Y-102609000D03*
%TD*%
D28*
%TO.C,R9*%
X130559200Y-104767900D03*
X127459200Y-104767900D03*
%TD*%
D32*
%TO.C,C7*%
X137705500Y-103901700D03*
X134580500Y-103901700D03*
%TD*%
D36*
%TO.C,D1*%
X157281400Y-75173600D03*
X157281400Y-76473600D03*
X155381400Y-75823600D03*
%TD*%
D28*
%TO.C,R15*%
X118344600Y-105539000D03*
X115244600Y-105539000D03*
%TD*%
D32*
%TO.C,C6*%
X137701800Y-101431800D03*
X134576800Y-101431800D03*
%TD*%
%LPD*%
M02*
