M48
INCH
T1C0.0118
T2C0.0315
T3C0.0394
T4C0.0433
T5C0.0504
T6C0.0630
%
G90
G05
T1
X4.6605Y-3.5243
X4.6993Y-3.7424
X4.6997Y-3.8024
X4.802Y-3.4364
X4.8519Y-3.1604
X4.9018Y-3.7081
X4.9614Y-3.444
X5.0487Y-4.072
X5.0498Y-3.1941
X5.064Y-3.967
X5.1237Y-3.3226
X5.2158Y-3.5533
X5.2739Y-3.4728
X5.3463Y-3.4157
X5.3595Y-3.449
X5.3891Y-4.3883
X5.4452Y-3.2753
X5.4541Y-2.7854
X5.4653Y-3.5163
X5.4742Y-4.5023
X5.5046Y-2.7402
X5.5449Y-2.7391
X5.6193Y-3.0451
X5.6363Y-4.2319
X5.6497Y-3.2756
X5.7108Y-2.8919
X5.7333Y-4.2662
X5.7445Y-3.204
X5.7623Y-3.0477
X5.797Y-2.7782
X5.8339Y-2.4736
X5.9535Y-4.072
X6.1136Y-2.8659
X6.1939Y-4.4885
X6.333Y-2.7694
T2
X5.353Y-3.7327
X5.353Y-3.8327
X5.477Y-2.2937
X5.5484Y-3.219
X5.5484Y-3.319
X5.5484Y-3.419
X5.5484Y-3.519
X5.5484Y-3.619
X5.5484Y-3.719
X5.5484Y-3.819
X5.5484Y-3.919
X5.5484Y-4.019
X5.5484Y-4.119
X5.5484Y-4.219
X5.5484Y-4.319
X5.5484Y-4.419
X5.5484Y-4.519
X5.577Y-2.2937
X5.8484Y-3.219
X5.8484Y-3.319
X5.8484Y-3.419
X5.8484Y-3.519
X5.8484Y-3.619
X5.8484Y-3.719
X5.8484Y-3.819
X5.8484Y-3.919
X5.8484Y-4.019
X5.8484Y-4.119
X5.8484Y-4.219
X5.8484Y-4.319
X5.8484Y-4.419
X5.8484Y-4.519
X6.0738Y-3.2671
X6.0738Y-3.5211
X6.0738Y-3.775
X6.0738Y-4.0289
X6.1459Y-4.6527
X6.1468Y-4.2883
X6.1738Y-3.2671
X6.1738Y-3.5211
X6.1738Y-3.775
X6.1738Y-4.0289
X6.2738Y-3.2671
X6.2738Y-3.5211
X6.2738Y-3.775
X6.2738Y-4.0289
X6.338Y-4.6527
X6.339Y-4.2883
X6.4669Y-3.0162
X6.5669Y-3.0162
T3
X5.0742Y-4.3013
X5.0742Y-4.4784
X5.1565Y-3.4458
X5.1565Y-3.5458
X5.1565Y-3.6458
X5.2581Y-4.7537
X5.3301Y-4.3013
X5.3301Y-4.4784
X5.3581Y-4.7537
X5.4581Y-4.7537
X5.4744Y-2.4306
X5.5581Y-4.7537
X5.5744Y-2.4306
X5.6581Y-4.7537
X5.7581Y-4.7537
T4
X6.1869Y-2.5296
X6.1869Y-2.6296
X6.1869Y-2.7296
X6.1869Y-2.8296
X6.7204Y-3.4879
X6.7204Y-3.5879
X6.7204Y-3.6879
X6.7204Y-3.7879
X6.7212Y-3.208
X6.7212Y-3.308
T5
X5.3774Y-3.1238
X5.3774Y-3.2238
X5.3774Y-3.3238
T6
X4.9244Y-2.7566
X4.9244Y-2.8905
X5.3149Y-2.7566
X5.3149Y-2.8905
X6.6673Y-4.0065
X6.6673Y-4.1404
X7.0579Y-4.0065
X7.0579Y-4.1404
M30
