%TF.GenerationSoftware,KiCad,Pcbnew,8.0.1-rc1*%
%TF.CreationDate,2024-05-25T10:35:02-07:00*%
%TF.ProjectId,AMS - CANBus Sensor - Pressure,414d5320-2d20-4434-914e-427573205365,rev?*%
%TF.SameCoordinates,Original*%
%TF.FileFunction,Soldermask,Top*%
%TF.FilePolarity,Negative*%
%FSLAX46Y46*%
G04 Gerber Fmt 4.6, Leading zero omitted, Abs format (unit mm)*
G04 Created by KiCad (PCBNEW 8.0.1-rc1) date 2024-05-25 10:35:02*
%MOMM*%
%LPD*%
G01*
G04 APERTURE LIST*
G04 Aperture macros list*
%AMRoundRect*
0 Rectangle with rounded corners*
0 $1 Rounding radius*
0 $2 $3 $4 $5 $6 $7 $8 $9 X,Y pos of 4 corners*
0 Add a 4 corners polygon primitive as box body*
4,1,4,$2,$3,$4,$5,$6,$7,$8,$9,$2,$3,0*
0 Add four circle primitives for the rounded corners*
1,1,$1+$1,$2,$3*
1,1,$1+$1,$4,$5*
1,1,$1+$1,$6,$7*
1,1,$1+$1,$8,$9*
0 Add four rect primitives between the rounded corners*
20,1,$1+$1,$2,$3,$4,$5,0*
20,1,$1+$1,$4,$5,$6,$7,0*
20,1,$1+$1,$6,$7,$8,$9,0*
20,1,$1+$1,$8,$9,$2,$3,0*%
G04 Aperture macros list end*
%ADD10RoundRect,0.250000X-0.400000X-0.625000X0.400000X-0.625000X0.400000X0.625000X-0.400000X0.625000X0*%
%ADD11RoundRect,0.250000X-0.412500X-0.650000X0.412500X-0.650000X0.412500X0.650000X-0.412500X0.650000X0*%
%ADD12C,1.440000*%
%ADD13C,1.100000*%
%ADD14R,2.200000X2.200000*%
%ADD15C,2.200000*%
%ADD16C,1.600000*%
%ADD17O,1.600000X1.600000*%
%ADD18RoundRect,0.250000X0.400000X0.625000X-0.400000X0.625000X-0.400000X-0.625000X0.400000X-0.625000X0*%
%ADD19R,1.700000X1.700000*%
%ADD20O,1.700000X1.700000*%
%ADD21C,2.400000*%
%ADD22R,1.000000X3.150000*%
%ADD23R,1.600000X1.600000*%
%ADD24R,1.920000X1.920000*%
%ADD25C,1.920000*%
%ADD26C,1.500000*%
%ADD27R,1.500000X1.500000*%
%ADD28RoundRect,0.250000X0.412500X0.650000X-0.412500X0.650000X-0.412500X-0.650000X0.412500X-0.650000X0*%
G04 APERTURE END LIST*
D10*
%TO.C,R10*%
X120710400Y-78872500D03*
X123810400Y-78872500D03*
%TD*%
D11*
%TO.C,C3*%
X154187000Y-114014800D03*
X157312000Y-114014800D03*
%TD*%
D12*
%TO.C,RV2*%
X154274400Y-95885200D03*
X156814400Y-95885200D03*
X159354400Y-95885200D03*
%TD*%
D13*
%TO.C,J6*%
X173258000Y-84022300D03*
X173258000Y-81482300D03*
D14*
X170718000Y-84022300D03*
D15*
X170718000Y-81482300D03*
%TD*%
D12*
%TO.C,RV3*%
X154274400Y-89435200D03*
X156814400Y-89435200D03*
X159354400Y-89435200D03*
%TD*%
D16*
%TO.C,R7*%
X139116100Y-58260700D03*
D17*
X141656100Y-58260700D03*
%TD*%
D14*
%TO.C,J1*%
X157148000Y-71872800D03*
D15*
X157148000Y-69332800D03*
X157148000Y-66792800D03*
X157148000Y-64252800D03*
%TD*%
D18*
%TO.C,R13*%
X118580700Y-78928700D03*
X115480700Y-78928700D03*
%TD*%
D16*
%TO.C,NTC1*%
X135965600Y-94809500D03*
D17*
X135965600Y-97349500D03*
%TD*%
D19*
%TO.C,J3*%
X146254600Y-120744200D03*
D20*
X143714600Y-120744200D03*
X141174600Y-120744200D03*
X138634600Y-120744200D03*
X136094600Y-120744200D03*
X133554600Y-120744200D03*
%TD*%
D12*
%TO.C,RV1*%
X154274400Y-102335200D03*
X156814400Y-102335200D03*
X159354400Y-102335200D03*
%TD*%
D21*
%TO.C,U5*%
X134999500Y-70018000D03*
X134999500Y-73418000D03*
X125079500Y-70018000D03*
X125079500Y-73418000D03*
%TD*%
D16*
%TO.C,R6*%
X166799100Y-76611000D03*
D17*
X164259100Y-76611000D03*
%TD*%
D18*
%TO.C,R12*%
X118744200Y-82579600D03*
X115644200Y-82579600D03*
%TD*%
D10*
%TO.C,R11*%
X120808500Y-82593100D03*
X123908500Y-82593100D03*
%TD*%
D19*
%TO.C,Powerboard1*%
X130976300Y-87552600D03*
D20*
X130976300Y-90092600D03*
X130976300Y-92632600D03*
%TD*%
D22*
%TO.C,J4*%
X148585100Y-70282000D03*
X148585100Y-75332000D03*
X146045100Y-70282000D03*
X146045100Y-75332000D03*
X143505100Y-70282000D03*
X143505100Y-75332000D03*
%TD*%
D23*
%TO.C,U2*%
X140929500Y-81761800D03*
D17*
X140929500Y-84301800D03*
X140929500Y-86841800D03*
X140929500Y-89381800D03*
X140929500Y-91921800D03*
X140929500Y-94461800D03*
X140929500Y-97001800D03*
X140929500Y-99541800D03*
X140929500Y-102081800D03*
X140929500Y-104621800D03*
X140929500Y-107161800D03*
X140929500Y-109701800D03*
X140929500Y-112241800D03*
X140929500Y-114781800D03*
X148549500Y-114781800D03*
X148549500Y-112241800D03*
X148549500Y-109701800D03*
X148549500Y-107161800D03*
X148549500Y-104621800D03*
X148549500Y-102081800D03*
X148549500Y-99541800D03*
X148549500Y-97001800D03*
X148549500Y-94461800D03*
X148549500Y-91921800D03*
X148549500Y-89381800D03*
X148549500Y-86841800D03*
X148549500Y-84301800D03*
X148549500Y-81761800D03*
%TD*%
D19*
%TO.C,J5*%
X139049600Y-61738500D03*
D20*
X141589600Y-61738500D03*
%TD*%
D24*
%TO.C,Q1*%
X136586000Y-84423600D03*
D25*
X136586000Y-81883600D03*
X136586000Y-79343600D03*
%TD*%
D14*
%TO.C,J2*%
X170699000Y-96212100D03*
D15*
X170699000Y-93672100D03*
X170699000Y-91132100D03*
X170699000Y-88592100D03*
%TD*%
D12*
%TO.C,RV4*%
X154274400Y-82985200D03*
X156814400Y-82985200D03*
X159354400Y-82985200D03*
%TD*%
D26*
%TO.C,Y2*%
X156129700Y-108923600D03*
X161009700Y-108923600D03*
%TD*%
D27*
%TO.C,Reset1*%
X135385300Y-113752500D03*
D26*
X128885300Y-113752500D03*
X135385300Y-109252500D03*
X128885300Y-109252500D03*
%TD*%
D28*
%TO.C,C5*%
X162712000Y-114002500D03*
X159587000Y-114002500D03*
%TD*%
D26*
%TO.C,Y1*%
X156104800Y-118178000D03*
X160984800Y-118178000D03*
%TD*%
D21*
%TO.C,U1*%
X179270500Y-101766200D03*
X179270500Y-105166200D03*
X169350500Y-101766200D03*
X169350500Y-105166200D03*
%TD*%
M02*
