%TF.GenerationSoftware,KiCad,Pcbnew,8.0.1-rc1*%
%TF.CreationDate,2024-07-27T18:45:49-07:00*%
%TF.ProjectId,AMS - CANBus Sensor - Pressure,414d5320-2d20-4434-914e-427573205365,rev?*%
%TF.SameCoordinates,Original*%
%TF.FileFunction,Copper,L2,Bot*%
%TF.FilePolarity,Positive*%
%FSLAX46Y46*%
G04 Gerber Fmt 4.6, Leading zero omitted, Abs format (unit mm)*
G04 Created by KiCad (PCBNEW 8.0.1-rc1) date 2024-07-27 18:45:49*
%MOMM*%
%LPD*%
G01*
G04 APERTURE LIST*
G04 Aperture macros list*
%AMRoundRect*
0 Rectangle with rounded corners*
0 $1 Rounding radius*
0 $2 $3 $4 $5 $6 $7 $8 $9 X,Y pos of 4 corners*
0 Add a 4 corners polygon primitive as box body*
4,1,4,$2,$3,$4,$5,$6,$7,$8,$9,$2,$3,0*
0 Add four circle primitives for the rounded corners*
1,1,$1+$1,$2,$3*
1,1,$1+$1,$4,$5*
1,1,$1+$1,$6,$7*
1,1,$1+$1,$8,$9*
0 Add four rect primitives between the rounded corners*
20,1,$1+$1,$2,$3,$4,$5,0*
20,1,$1+$1,$4,$5,$6,$7,0*
20,1,$1+$1,$6,$7,$8,$9,0*
20,1,$1+$1,$8,$9,$2,$3,0*%
G04 Aperture macros list end*
%TA.AperFunction,ComponentPad*%
%ADD10C,1.440000*%
%TD*%
%TA.AperFunction,ComponentPad*%
%ADD11R,2.100000X2.100000*%
%TD*%
%TA.AperFunction,ComponentPad*%
%ADD12C,2.100000*%
%TD*%
%TA.AperFunction,ComponentPad*%
%ADD13C,1.600000*%
%TD*%
%TA.AperFunction,ComponentPad*%
%ADD14O,1.600000X1.600000*%
%TD*%
%TA.AperFunction,ComponentPad*%
%ADD15R,2.200000X2.200000*%
%TD*%
%TA.AperFunction,ComponentPad*%
%ADD16C,2.200000*%
%TD*%
%TA.AperFunction,ComponentPad*%
%ADD17R,1.700000X1.700000*%
%TD*%
%TA.AperFunction,ComponentPad*%
%ADD18O,1.700000X1.700000*%
%TD*%
%TA.AperFunction,ComponentPad*%
%ADD19C,2.400000*%
%TD*%
%TA.AperFunction,ComponentPad*%
%ADD20R,1.600000X1.600000*%
%TD*%
%TA.AperFunction,ComponentPad*%
%ADD21R,1.920000X1.920000*%
%TD*%
%TA.AperFunction,ComponentPad*%
%ADD22C,1.920000*%
%TD*%
%TA.AperFunction,ComponentPad*%
%ADD23C,1.500000*%
%TD*%
%TA.AperFunction,ComponentPad*%
%ADD24R,1.500000X1.500000*%
%TD*%
%TA.AperFunction,SMDPad,CuDef*%
%ADD25RoundRect,0.250000X-0.412500X-0.650000X0.412500X-0.650000X0.412500X0.650000X-0.412500X0.650000X0*%
%TD*%
%TA.AperFunction,SMDPad,CuDef*%
%ADD26RoundRect,0.150000X0.825000X0.150000X-0.825000X0.150000X-0.825000X-0.150000X0.825000X-0.150000X0*%
%TD*%
%TA.AperFunction,SMDPad,CuDef*%
%ADD27RoundRect,0.250000X-0.400000X-0.625000X0.400000X-0.625000X0.400000X0.625000X-0.400000X0.625000X0*%
%TD*%
%TA.AperFunction,SMDPad,CuDef*%
%ADD28RoundRect,0.250000X0.400000X0.625000X-0.400000X0.625000X-0.400000X-0.625000X0.400000X-0.625000X0*%
%TD*%
%TA.AperFunction,SMDPad,CuDef*%
%ADD29RoundRect,0.250000X-0.625000X0.400000X-0.625000X-0.400000X0.625000X-0.400000X0.625000X0.400000X0*%
%TD*%
%TA.AperFunction,SMDPad,CuDef*%
%ADD30RoundRect,0.250000X0.412500X0.650000X-0.412500X0.650000X-0.412500X-0.650000X0.412500X-0.650000X0*%
%TD*%
%TA.AperFunction,SMDPad,CuDef*%
%ADD31RoundRect,0.150000X0.875000X0.150000X-0.875000X0.150000X-0.875000X-0.150000X0.875000X-0.150000X0*%
%TD*%
%TA.AperFunction,SMDPad,CuDef*%
%ADD32R,0.650000X1.525000*%
%TD*%
%TA.AperFunction,SMDPad,CuDef*%
%ADD33RoundRect,0.250000X0.625000X-0.400000X0.625000X0.400000X-0.625000X0.400000X-0.625000X-0.400000X0*%
%TD*%
%TA.AperFunction,SMDPad,CuDef*%
%ADD34R,1.000000X0.550000*%
%TD*%
%TA.AperFunction,ViaPad*%
%ADD35C,0.600000*%
%TD*%
%TA.AperFunction,Conductor*%
%ADD36C,0.635000*%
%TD*%
%TA.AperFunction,Conductor*%
%ADD37C,0.200000*%
%TD*%
%TA.AperFunction,Conductor*%
%ADD38C,0.508000*%
%TD*%
G04 APERTURE END LIST*
D10*
%TO.P,RV2,1,1*%
%TO.N,Net-(J2-Pin_2)*%
X154274400Y-95885200D03*
%TO.P,RV2,2,2*%
%TO.N,/BufferedADC/ADCIN2*%
X156814400Y-95885200D03*
%TO.P,RV2,3,3*%
%TO.N,Net-(R9-Pad1)*%
X159354400Y-95885200D03*
%TD*%
D11*
%TO.P,J6,1,Pin_1*%
%TO.N,Net-(J6-Pin_1)*%
X170718000Y-84022300D03*
D12*
%TO.P,J6,2,Pin_2*%
%TO.N,Net-(J6-Pin_2)*%
X170718000Y-81482300D03*
%TD*%
D10*
%TO.P,RV3,1,1*%
%TO.N,Net-(J2-Pin_3)*%
X154274400Y-89435200D03*
%TO.P,RV3,2,2*%
%TO.N,/BufferedADC/ADCIN3*%
X156814400Y-89435200D03*
%TO.P,RV3,3,3*%
%TO.N,Net-(R8-Pad1)*%
X159354400Y-89435200D03*
%TD*%
D13*
%TO.P,R7,1*%
%TO.N,Net-(J5-Pin_2)*%
X139116100Y-58260700D03*
D14*
%TO.P,R7,2*%
%TO.N,CANBUS_L*%
X141656100Y-58260700D03*
%TD*%
D15*
%TO.P,J1,1,Pin_1*%
%TO.N,Net-(J1-Pin_1)*%
X157148000Y-71872800D03*
D16*
%TO.P,J1,2,Pin_2*%
%TO.N,GND*%
X157148000Y-69332800D03*
%TO.P,J1,3,Pin_3*%
%TO.N,CANBUS_H*%
X157148000Y-66792800D03*
%TO.P,J1,4,Pin_4*%
%TO.N,CANBUS_L*%
X157148000Y-64252800D03*
%TD*%
D13*
%TO.P,NTC1,1*%
%TO.N,/BareMinAtmel328P/PC0-A0*%
X135965600Y-94809500D03*
D14*
%TO.P,NTC1,2*%
%TO.N,+5V*%
X135965600Y-97349500D03*
%TD*%
D17*
%TO.P,J3,1,Pin_1*%
%TO.N,GND*%
X146254600Y-120744200D03*
D18*
%TO.P,J3,2,Pin_2*%
%TO.N,unconnected-(J3-Pin_2-Pad2)*%
X143714600Y-120744200D03*
%TO.P,J3,3,Pin_3*%
%TO.N,+5V*%
X141174600Y-120744200D03*
%TO.P,J3,4,Pin_4*%
%TO.N,/BareMinAtmel328P/PD0-RX*%
X138634600Y-120744200D03*
%TO.P,J3,5,Pin_5*%
%TO.N,/BareMinAtmel328P/PD1-TX*%
X136094600Y-120744200D03*
%TO.P,J3,6,Pin_6*%
%TO.N,Net-(J3-Pin_6)*%
X133554600Y-120744200D03*
%TD*%
D10*
%TO.P,RV1,1,1*%
%TO.N,Net-(J2-Pin_1)*%
X154274400Y-102335200D03*
%TO.P,RV1,2,2*%
%TO.N,/BufferedADC/ADCIN1*%
X156814400Y-102335200D03*
%TO.P,RV1,3,3*%
%TO.N,Net-(R14-Pad1)*%
X159354400Y-102335200D03*
%TD*%
D19*
%TO.P,U5,1,1*%
%TO.N,Net-(Q1-Pad3)*%
X134999500Y-70018000D03*
%TO.P,U5,2,2*%
X134999500Y-73418000D03*
%TO.P,U5,3,3*%
%TO.N,+VDC*%
X125079500Y-70018000D03*
%TO.P,U5,4,4*%
X125079500Y-73418000D03*
%TD*%
D13*
%TO.P,R6,1*%
%TO.N,Net-(U4-Rs)*%
X166799100Y-76611000D03*
D14*
%TO.P,R6,2*%
%TO.N,GND*%
X164259100Y-76611000D03*
%TD*%
D17*
%TO.P,Powerboard1,1,Pin_1*%
%TO.N,+VDC*%
X130976300Y-92602600D03*
D18*
%TO.P,Powerboard1,2,Pin_2*%
%TO.N,+5V*%
X130976300Y-90062600D03*
%TO.P,Powerboard1,3,Pin_3*%
%TO.N,GND*%
X130976300Y-87522600D03*
%TD*%
D20*
%TO.P,U2,1,~{RESET}/PC6*%
%TO.N,/BareMinAtmel328P/RESET*%
X140929500Y-81761800D03*
D14*
%TO.P,U2,2,PD0*%
%TO.N,/BareMinAtmel328P/PD0-RX*%
X140929500Y-84301800D03*
%TO.P,U2,3,PD1*%
%TO.N,/BareMinAtmel328P/PD1-TX*%
X140929500Y-86841800D03*
%TO.P,U2,4,PD2*%
%TO.N,/BareMinAtmel328P/PD2-D2*%
X140929500Y-89381800D03*
%TO.P,U2,5,PD3*%
%TO.N,/BareMinAtmel328P/PD3-D3*%
X140929500Y-91921800D03*
%TO.P,U2,6,PD4*%
%TO.N,/BareMinAtmel328P/PD4-D4*%
X140929500Y-94461800D03*
%TO.P,U2,7,VCC*%
%TO.N,+5V*%
X140929500Y-97001800D03*
%TO.P,U2,8,GND*%
%TO.N,GND*%
X140929500Y-99541800D03*
%TO.P,U2,9,XTAL1/PB6*%
%TO.N,Net-(U2-XTAL1{slash}PB6)*%
X140929500Y-102081800D03*
%TO.P,U2,10,XTAL2/PB7*%
%TO.N,Net-(U2-XTAL2{slash}PB7)*%
X140929500Y-104621800D03*
%TO.P,U2,11,PD5*%
%TO.N,/BareMinAtmel328P/PD5-D5*%
X140929500Y-107161800D03*
%TO.P,U2,12,PD6*%
%TO.N,/BareMinAtmel328P/PD6-D6*%
X140929500Y-109701800D03*
%TO.P,U2,13,PD7*%
%TO.N,/BareMinAtmel328P/PD7-D7*%
X140929500Y-112241800D03*
%TO.P,U2,14,PB0*%
%TO.N,/BareMinAtmel328P/PB0-D8*%
X140929500Y-114781800D03*
%TO.P,U2,15,PB1*%
%TO.N,/BareMinAtmel328P/PB1-D9*%
X148549500Y-114781800D03*
%TO.P,U2,16,PB2*%
%TO.N,/BareMinAtmel328P/PB2-D10-SS*%
X148549500Y-112241800D03*
%TO.P,U2,17,PB3*%
%TO.N,/BareMinAtmel328P/PB3-D11-MOSI*%
X148549500Y-109701800D03*
%TO.P,U2,18,PB4*%
%TO.N,/BareMinAtmel328P/PB4-D12-MISO*%
X148549500Y-107161800D03*
%TO.P,U2,19,PB5*%
%TO.N,/BareMinAtmel328P/PB5-D13-SCK*%
X148549500Y-104621800D03*
%TO.P,U2,20,AVCC*%
%TO.N,+5V*%
X148549500Y-102081800D03*
%TO.P,U2,21,AREF*%
%TO.N,/BareMinAtmel328P/AREF*%
X148549500Y-99541800D03*
%TO.P,U2,22,GND*%
%TO.N,GND*%
X148549500Y-97001800D03*
%TO.P,U2,23,PC0*%
%TO.N,/BareMinAtmel328P/PC0-A0*%
X148549500Y-94461800D03*
%TO.P,U2,24,PC1*%
%TO.N,/BareMinAtmel328P/PC1-A1*%
X148549500Y-91921800D03*
%TO.P,U2,25,PC2*%
%TO.N,/BareMinAtmel328P/PC2-A2*%
X148549500Y-89381800D03*
%TO.P,U2,26,PC3*%
%TO.N,/BareMinAtmel328P/PC3-A3*%
X148549500Y-86841800D03*
%TO.P,U2,27,PC4*%
%TO.N,/BareMinAtmel328P/PC4-A4-SDA*%
X148549500Y-84301800D03*
%TO.P,U2,28,PC5*%
%TO.N,/BareMinAtmel328P/PC5-A5-SCL*%
X148549500Y-81761800D03*
%TD*%
D17*
%TO.P,J5,1,Pin_1*%
%TO.N,CANBUS_H*%
X139049600Y-61738500D03*
D18*
%TO.P,J5,2,Pin_2*%
%TO.N,Net-(J5-Pin_2)*%
X141589600Y-61738500D03*
%TD*%
D21*
%TO.P,Q1,1*%
%TO.N,Net-(Q1-Pad1)*%
X136586000Y-84423600D03*
D22*
%TO.P,Q1,2*%
%TO.N,Net-(J1-Pin_1)*%
X136586000Y-81883600D03*
%TO.P,Q1,3*%
%TO.N,Net-(Q1-Pad3)*%
X136586000Y-79343600D03*
%TD*%
D15*
%TO.P,J2,1,Pin_1*%
%TO.N,Net-(J2-Pin_1)*%
X170699000Y-96212100D03*
D16*
%TO.P,J2,2,Pin_2*%
%TO.N,Net-(J2-Pin_2)*%
X170699000Y-93672100D03*
%TO.P,J2,3,Pin_3*%
%TO.N,Net-(J2-Pin_3)*%
X170699000Y-91132100D03*
%TO.P,J2,4,Pin_4*%
%TO.N,Net-(J2-Pin_4)*%
X170699000Y-88592100D03*
%TD*%
D10*
%TO.P,RV4,1,1*%
%TO.N,Net-(J2-Pin_4)*%
X154274400Y-82985200D03*
%TO.P,RV4,2,2*%
%TO.N,/BufferedADC/ADCIN4*%
X156814400Y-82985200D03*
%TO.P,RV4,3,3*%
%TO.N,Net-(R15-Pad1)*%
X159354400Y-82985200D03*
%TD*%
D23*
%TO.P,Y2,1,1*%
%TO.N,Net-(U3-OSC1)*%
X156129700Y-108923600D03*
%TO.P,Y2,2,2*%
%TO.N,Net-(U3-OSC2)*%
X161009700Y-108923600D03*
%TD*%
D24*
%TO.P,Reset1,1,NO_1*%
%TO.N,/BareMinAtmel328P/RESET*%
X135385300Y-113752500D03*
D23*
%TO.P,Reset1,2,NO_2*%
%TO.N,unconnected-(Reset1-NO_2-Pad2)*%
X128885300Y-113752500D03*
%TO.P,Reset1,3,COM_1*%
%TO.N,GND*%
X135385300Y-109252500D03*
%TO.P,Reset1,4,COM_2*%
%TO.N,unconnected-(Reset1-COM_2-Pad4)*%
X128885300Y-109252500D03*
%TD*%
%TO.P,Y1,1,1*%
%TO.N,Net-(U2-XTAL2{slash}PB7)*%
X156104800Y-118178000D03*
%TO.P,Y1,2,2*%
%TO.N,Net-(U2-XTAL1{slash}PB6)*%
X160984800Y-118178000D03*
%TD*%
D19*
%TO.P,U1,1,1*%
%TO.N,Net-(J6-Pin_2)*%
X179270500Y-101766200D03*
%TO.P,U1,2,2*%
%TO.N,Net-(J6-Pin_1)*%
X179270500Y-105166200D03*
%TO.P,U1,3,3*%
%TO.N,+5V*%
X169350500Y-101766200D03*
%TO.P,U1,4,4*%
X169350500Y-105166200D03*
%TD*%
D25*
%TO.P,C2,1*%
%TO.N,Net-(U2-XTAL1{slash}PB6)*%
X154199500Y-114008300D03*
%TO.P,C2,2*%
%TO.N,GND*%
X157324500Y-114008300D03*
%TD*%
D26*
%TO.P,U4,1,TXD*%
%TO.N,/CANBUS-MCP2515/TXtoCANTC*%
X168068800Y-70361000D03*
%TO.P,U4,2,VSS*%
%TO.N,GND*%
X168068800Y-71631000D03*
%TO.P,U4,3,VDD*%
%TO.N,+5V*%
X168068800Y-72901000D03*
%TO.P,U4,4,RXD*%
%TO.N,/CANBUS-MCP2515/RXtoCANTC*%
X168068800Y-74171000D03*
%TO.P,U4,5,Vref*%
%TO.N,unconnected-(U4-Vref-Pad5)*%
X163118800Y-74171000D03*
%TO.P,U4,6,CANL*%
%TO.N,CANBUS_L*%
X163118800Y-72901000D03*
%TO.P,U4,7,CANH*%
%TO.N,CANBUS_H*%
X163118800Y-71631000D03*
%TO.P,U4,8,Rs*%
%TO.N,Net-(U4-Rs)*%
X163118800Y-70361000D03*
%TD*%
D27*
%TO.P,R8,1*%
%TO.N,Net-(R8-Pad1)*%
X162938988Y-87547934D03*
%TO.P,R8,2*%
%TO.N,GND*%
X166038988Y-87547934D03*
%TD*%
D28*
%TO.P,R1,1*%
%TO.N,Net-(Q1-Pad1)*%
X131364300Y-81129300D03*
%TO.P,R1,2*%
%TO.N,GND*%
X128264300Y-81129300D03*
%TD*%
D29*
%TO.P,R4,1*%
%TO.N,+5V*%
X132096400Y-109912300D03*
%TO.P,R4,2*%
%TO.N,/BareMinAtmel328P/RESET*%
X132096400Y-113012300D03*
%TD*%
D27*
%TO.P,R15,1*%
%TO.N,Net-(R15-Pad1)*%
X162833854Y-82820428D03*
%TO.P,R15,2*%
%TO.N,GND*%
X165933854Y-82820428D03*
%TD*%
D30*
%TO.P,C4,1*%
%TO.N,Net-(U3-OSC2)*%
X162702000Y-113983400D03*
%TO.P,C4,2*%
%TO.N,GND*%
X159577000Y-113983400D03*
%TD*%
D31*
%TO.P,U3,1,TXCAN*%
%TO.N,/CANBUS-MCP2515/TXtoCANTC*%
X151455100Y-65127000D03*
%TO.P,U3,2,RXCAN*%
%TO.N,/CANBUS-MCP2515/RXtoCANTC*%
X151455100Y-66397000D03*
%TO.P,U3,3,CLKOUT/SOF*%
%TO.N,unconnected-(U3-CLKOUT{slash}SOF-Pad3)*%
X151455100Y-67667000D03*
%TO.P,U3,4,~{TX0RTS}*%
%TO.N,unconnected-(U3-~{TX0RTS}-Pad4)*%
X151455100Y-68937000D03*
%TO.P,U3,5,~{TX1RTS}*%
%TO.N,unconnected-(U3-~{TX1RTS}-Pad5)*%
X151455100Y-70207000D03*
%TO.P,U3,6,~{TX2RTS}*%
%TO.N,unconnected-(U3-~{TX2RTS}-Pad6)*%
X151455100Y-71477000D03*
%TO.P,U3,7,OSC2*%
%TO.N,Net-(U3-OSC2)*%
X151455100Y-72747000D03*
%TO.P,U3,8,OSC1*%
%TO.N,Net-(U3-OSC1)*%
X151455100Y-74017000D03*
%TO.P,U3,9,VSS*%
%TO.N,GND*%
X151455100Y-75287000D03*
%TO.P,U3,10,~{RX1BF}*%
%TO.N,unconnected-(U3-~{RX1BF}-Pad10)*%
X142155100Y-75287000D03*
%TO.P,U3,11,~{RX0BF}*%
%TO.N,unconnected-(U3-~{RX0BF}-Pad11)*%
X142155100Y-74017000D03*
%TO.P,U3,12,~{INT}*%
%TO.N,/BareMinAtmel328P/PD2-D2*%
X142155100Y-72747000D03*
%TO.P,U3,13,SCK*%
%TO.N,/BareMinAtmel328P/PB5-D13-SCK*%
X142155100Y-71477000D03*
%TO.P,U3,14,SI*%
%TO.N,/BareMinAtmel328P/PB3-D11-MOSI*%
X142155100Y-70207000D03*
%TO.P,U3,15,SO*%
%TO.N,/BareMinAtmel328P/PB4-D12-MISO*%
X142155100Y-68937000D03*
%TO.P,U3,16,~{CS}*%
%TO.N,/BareMinAtmel328P/PB1-D9*%
X142155100Y-67667000D03*
%TO.P,U3,17,~{RESET}*%
%TO.N,Net-(U3-~{RESET})*%
X142155100Y-66397000D03*
%TO.P,U3,18,VDD*%
%TO.N,+5V*%
X142155100Y-65127000D03*
%TD*%
D32*
%TO.P,IC2,1,OUT_A*%
%TO.N,/BareMinAtmel328P/PC1-A1*%
X125213300Y-101541300D03*
%TO.P,IC2,2,-IN_A*%
X126483300Y-101541300D03*
%TO.P,IC2,3,+IN_A*%
%TO.N,/BufferedADC/ADCIN1*%
X127753300Y-101541300D03*
%TO.P,IC2,4,V+*%
%TO.N,+5V*%
X129023300Y-101541300D03*
%TO.P,IC2,5,+IN_B*%
%TO.N,/BufferedADC/ADCIN2*%
X130293300Y-101541300D03*
%TO.P,IC2,6,-IN_B*%
%TO.N,/BareMinAtmel328P/PC2-A2*%
X131563300Y-101541300D03*
%TO.P,IC2,7,OUT_B*%
X132833300Y-101541300D03*
%TO.P,IC2,8,OUT_C*%
%TO.N,/BareMinAtmel328P/PC3-A3*%
X132833300Y-106965300D03*
%TO.P,IC2,9,-IN_C*%
X131563300Y-106965300D03*
%TO.P,IC2,10,+IN_C*%
%TO.N,/BufferedADC/ADCIN3*%
X130293300Y-106965300D03*
%TO.P,IC2,11,V-*%
%TO.N,GND*%
X129023300Y-106965300D03*
%TO.P,IC2,12,+IN_D*%
%TO.N,/BufferedADC/ADCIN4*%
X127753300Y-106965300D03*
%TO.P,IC2,13,-IN_D*%
%TO.N,/BareMinAtmel328P/PC4-A4-SDA*%
X126483300Y-106965300D03*
%TO.P,IC2,14,OUT_D*%
X125213300Y-106965300D03*
%TD*%
D33*
%TO.P,R5,1*%
%TO.N,Net-(U3-~{RESET})*%
X144703000Y-87196800D03*
%TO.P,R5,2*%
%TO.N,+5V*%
X144703000Y-84096800D03*
%TD*%
D29*
%TO.P,R3,1*%
%TO.N,GND*%
X135973000Y-89148700D03*
%TO.P,R3,2*%
%TO.N,/BareMinAtmel328P/PC0-A0*%
X135973000Y-92248700D03*
%TD*%
D30*
%TO.P,C1,1*%
%TO.N,Net-(J3-Pin_6)*%
X138717100Y-117199700D03*
%TO.P,C1,2*%
%TO.N,/BareMinAtmel328P/RESET*%
X135592100Y-117199700D03*
%TD*%
D27*
%TO.P,R14,1*%
%TO.N,Net-(R14-Pad1)*%
X161571669Y-100494307D03*
%TO.P,R14,2*%
%TO.N,GND*%
X164671669Y-100494307D03*
%TD*%
%TO.P,R9,1*%
%TO.N,Net-(R9-Pad1)*%
X162578429Y-95803791D03*
%TO.P,R9,2*%
%TO.N,GND*%
X165678429Y-95803791D03*
%TD*%
D29*
%TO.P,R2,1*%
%TO.N,/BareMinAtmel328P/AREF*%
X144995600Y-99509000D03*
%TO.P,R2,2*%
%TO.N,+5V*%
X144995600Y-102609000D03*
%TD*%
D30*
%TO.P,C7,1*%
%TO.N,+5V*%
X138719800Y-104115600D03*
%TO.P,C7,2*%
%TO.N,GND*%
X135594800Y-104115600D03*
%TD*%
D34*
%TO.P,D1,1,CATHODE_1*%
%TO.N,CANBUS_H*%
X157281400Y-75173600D03*
%TO.P,D1,2,CATHODE_2*%
%TO.N,CANBUS_L*%
X157281400Y-76473600D03*
%TO.P,D1,3,COMMON_ANODE*%
%TO.N,GND*%
X155381400Y-75823600D03*
%TD*%
D30*
%TO.P,C6,1*%
%TO.N,+5V*%
X138716100Y-101645700D03*
%TO.P,C6,2*%
%TO.N,GND*%
X135591100Y-101645700D03*
%TD*%
D35*
%TO.N,GND*%
X142731000Y-77345500D03*
X159518385Y-113990557D03*
X157333210Y-114086083D03*
X169353400Y-72279100D03*
X165696705Y-95807912D03*
X128264300Y-81129300D03*
%TO.N,/BareMinAtmel328P/RESET*%
X137680800Y-112109500D03*
X139412900Y-90090200D03*
%TO.N,+5V*%
X146363000Y-77411600D03*
%TO.N,CANBUS_H*%
X161751100Y-71076900D03*
%TO.N,/BareMinAtmel328P/PB5-D13-SCK*%
X143662900Y-90187300D03*
X145655000Y-73007800D03*
%TO.N,/BareMinAtmel328P/PB3-D11-MOSI*%
X140841600Y-69572800D03*
%TO.N,/BareMinAtmel328P/PB4-D12-MISO*%
X155286500Y-72793000D03*
X147573100Y-69572800D03*
%TO.N,/BareMinAtmel328P/PD1-TX*%
X139003500Y-87413600D03*
%TO.N,+VDC*%
X126045474Y-87511756D03*
%TO.N,/BareMinAtmel328P/PC2-A2*%
X132141600Y-95989900D03*
%TO.N,/BareMinAtmel328P/PC4-A4-SDA*%
X127193900Y-98603800D03*
X139621500Y-93677800D03*
%TO.N,/BareMinAtmel328P/PC1-A1*%
X125084400Y-80536500D03*
X124449400Y-88316000D03*
%TO.N,/BareMinAtmel328P/PC3-A3*%
X131858400Y-104059800D03*
X149825400Y-103291200D03*
%TO.N,/BareMinAtmel328P/PD2-D2*%
X136310900Y-87602100D03*
%TO.N,/BufferedADC/ADCIN1*%
X127951700Y-99482800D03*
%TO.N,/BufferedADC/ADCIN4*%
X138191700Y-84428000D03*
%TO.N,/BufferedADC/ADCIN2*%
X136258300Y-98791500D03*
%TO.N,/BufferedADC/ADCIN3*%
X143080800Y-108286200D03*
X131227600Y-108236900D03*
%TO.N,Net-(U3-~{RESET})*%
X144151400Y-85701100D03*
X138264400Y-82791700D03*
%TD*%
D36*
%TO.N,GND*%
X151245000Y-79789200D02*
X154187000Y-76848000D01*
D37*
X164671669Y-96810551D02*
X165674308Y-95807912D01*
X166038988Y-87547934D02*
X166038988Y-95443232D01*
X168705300Y-71631000D02*
X169353400Y-72279100D01*
X165933854Y-82820428D02*
X165933854Y-87442800D01*
X165674308Y-95807912D02*
X165696705Y-95807912D01*
X152004700Y-75836600D02*
X151455100Y-75287000D01*
X128264300Y-84810600D02*
X130976300Y-87522600D01*
D36*
X139612000Y-85509700D02*
X139612000Y-80444300D01*
X139612000Y-80444300D02*
X140267000Y-79789200D01*
D37*
X137555300Y-98347300D02*
X135591100Y-100311500D01*
X164259100Y-81145674D02*
X165933854Y-82820428D01*
D36*
X154187000Y-76848000D02*
X154187000Y-75836600D01*
D37*
X164259100Y-76611000D02*
X164259100Y-81145674D01*
D36*
X132602400Y-89148700D02*
X130976300Y-87522600D01*
D37*
X159354400Y-113760800D02*
X159518385Y-113990557D01*
X131184300Y-110865800D02*
X133772000Y-110865800D01*
X144571200Y-97001800D02*
X142031200Y-99541800D01*
D36*
X135973000Y-89148700D02*
X139612000Y-85509700D01*
D37*
X129023300Y-108029500D02*
X129202500Y-108029500D01*
X140929500Y-99541800D02*
X142031200Y-99541800D01*
X151729900Y-75561800D02*
X151455100Y-75287000D01*
X130478300Y-110159800D02*
X131184300Y-110865800D01*
D36*
X155592000Y-69332800D02*
X157148000Y-69332800D01*
D37*
X129202500Y-108029500D02*
X130478300Y-109305300D01*
D36*
X140267000Y-79789200D02*
X141773900Y-79789200D01*
D37*
X128264300Y-81160478D02*
X128264300Y-84810600D01*
D36*
X154187000Y-75836600D02*
X154187000Y-74825200D01*
D37*
X154959700Y-74825200D02*
X155381400Y-75246900D01*
X130478300Y-109305300D02*
X130478300Y-110159800D01*
X148549500Y-97001800D02*
X144571200Y-97001800D01*
X154187000Y-75836600D02*
X152004700Y-75836600D01*
X165696705Y-95807912D02*
X165696705Y-95785515D01*
X142731000Y-78832100D02*
X142731000Y-77345500D01*
X133772000Y-110865800D02*
X135385300Y-109252500D01*
X135485000Y-89148700D02*
X137555300Y-91219000D01*
D36*
X135973000Y-89148700D02*
X132602400Y-89148700D01*
D37*
X151730000Y-75561800D02*
X151729900Y-75561800D01*
X141773900Y-79789200D02*
X142731000Y-78832100D01*
D36*
X154187000Y-74825200D02*
X154187000Y-70738600D01*
D37*
X137555300Y-91219000D02*
X137555300Y-98347300D01*
X165696705Y-95785515D02*
X165678429Y-95803791D01*
X154187000Y-74825200D02*
X154959700Y-74825200D01*
X129023300Y-107477400D02*
X129023300Y-108029500D01*
D36*
X154187000Y-70738600D02*
X155592000Y-69332800D01*
D37*
X135594800Y-104115600D02*
X135594800Y-109043000D01*
X128264300Y-81129300D02*
X128264300Y-81139082D01*
X135591100Y-100311500D02*
X135591100Y-101645700D01*
D36*
X141773900Y-79789200D02*
X151245000Y-79789200D01*
D37*
X164671669Y-100494307D02*
X164671669Y-96810551D01*
X135594800Y-101649400D02*
X135594800Y-104115600D01*
X155381400Y-75823600D02*
X155381400Y-75246900D01*
%TO.N,/BareMinAtmel328P/RESET*%
X141067200Y-82863500D02*
X142051200Y-83847500D01*
X142051200Y-83847500D02*
X142051200Y-87336600D01*
X135385300Y-113752500D02*
X134333600Y-113752500D01*
X140929500Y-82863500D02*
X141067200Y-82863500D01*
X139006500Y-98741500D02*
X137680800Y-100067200D01*
X141107700Y-88280100D02*
X140473100Y-88280100D01*
X142051200Y-87336600D02*
X141107700Y-88280100D01*
X135385300Y-116992900D02*
X135385300Y-113752500D01*
X139412900Y-90090200D02*
X139006500Y-90496600D01*
X139412900Y-89340300D02*
X139412900Y-90090200D01*
X133593400Y-113012300D02*
X134333600Y-113752500D01*
X139006500Y-90496600D02*
X139006500Y-98741500D01*
X132096400Y-113012300D02*
X133593400Y-113012300D01*
X140473100Y-88280100D02*
X139412900Y-89340300D01*
X137680800Y-100067200D02*
X137680800Y-112109500D01*
X140929500Y-81761800D02*
X140929500Y-82863500D01*
%TO.N,+5V*%
X139796400Y-100811800D02*
X139553700Y-100811800D01*
X129650000Y-103232200D02*
X129650000Y-107855800D01*
X129023300Y-101009200D02*
X129023300Y-100477100D01*
X169369500Y-79072700D02*
X168891900Y-79550300D01*
X132069800Y-95210900D02*
X131018500Y-96262200D01*
X168891900Y-79550300D02*
X168891900Y-101307600D01*
X158287000Y-61643500D02*
X166771400Y-70127900D01*
X143032800Y-94025100D02*
X143032800Y-85767000D01*
X148549500Y-102081800D02*
X147447800Y-102081800D01*
X132131400Y-95210900D02*
X132069800Y-95210900D01*
X139788000Y-118205900D02*
X139788000Y-105183800D01*
X131790800Y-91214300D02*
X132131400Y-91554900D01*
X139796400Y-99056800D02*
X139796400Y-100811800D01*
X141174600Y-120744200D02*
X141174600Y-119592500D01*
X147539800Y-65127000D02*
X148174800Y-65762000D01*
X129023300Y-102605500D02*
X129650000Y-103232200D01*
X143198400Y-100811800D02*
X139796400Y-100811800D01*
X152974400Y-65316900D02*
X152974400Y-64690400D01*
X132131400Y-91554900D02*
X132131400Y-95210900D01*
X135965600Y-97349500D02*
X134863900Y-97349500D01*
X141174600Y-119592500D02*
X139788000Y-118205900D01*
X152974400Y-64690400D02*
X156021300Y-61643500D01*
X169369500Y-73849700D02*
X169369500Y-79072700D01*
X130976300Y-91214300D02*
X131790800Y-91214300D01*
X129650000Y-107855800D02*
X131706500Y-109912300D01*
X143032800Y-85767000D02*
X144703000Y-84096800D01*
X166771400Y-70127900D02*
X166771400Y-71977200D01*
X140929500Y-97001800D02*
X140929500Y-98103500D01*
X140749700Y-98103500D02*
X139796400Y-99056800D01*
X168420800Y-72901000D02*
X169369500Y-73849700D01*
X130976300Y-90062600D02*
X130976300Y-91214300D01*
X144995600Y-102609000D02*
X143198400Y-100811800D01*
X131018500Y-98481900D02*
X129023300Y-100477100D01*
X140929500Y-95900100D02*
X141157800Y-95900100D01*
X134863900Y-97349500D02*
X132725300Y-95210900D01*
X139788000Y-105183800D02*
X138719800Y-104115600D01*
X140929500Y-98103500D02*
X140749700Y-98103500D01*
X141157800Y-95900100D02*
X143032800Y-94025100D01*
X148174800Y-65762000D02*
X148174800Y-75599800D01*
X129023300Y-101541300D02*
X129023300Y-102605500D01*
X140929500Y-96450900D02*
X140929500Y-95900100D01*
X152529300Y-65762000D02*
X152974400Y-65316900D01*
X132725300Y-95210900D02*
X132131400Y-95210900D01*
X146920600Y-102609000D02*
X144995600Y-102609000D01*
X139553700Y-100811800D02*
X138719800Y-101645700D01*
X142155100Y-65127000D02*
X147539800Y-65127000D01*
X138719800Y-101645700D02*
X138719800Y-104115600D01*
X166771400Y-71977200D02*
X167695200Y-72901000D01*
X131018500Y-96262200D02*
X131018500Y-98481900D01*
X147447800Y-102081800D02*
X146920600Y-102609000D01*
X156021300Y-61643500D02*
X158287000Y-61643500D01*
X169350500Y-105166200D02*
X169350500Y-101766200D01*
X148174800Y-65762000D02*
X152529300Y-65762000D01*
X148174800Y-75599800D02*
X146363000Y-77411600D01*
%TO.N,CANBUS_L*%
X163118800Y-72901000D02*
X160854000Y-72901000D01*
X157281400Y-75896900D02*
X157786000Y-75896900D01*
X157281400Y-76473600D02*
X157281400Y-75896900D01*
X158701900Y-65830000D02*
X158701900Y-67556900D01*
X159012000Y-71059000D02*
X160818000Y-72864900D01*
X159012000Y-67867000D02*
X159012000Y-71059000D01*
X158701900Y-67556900D02*
X159012000Y-67867000D01*
X160854000Y-72901000D02*
X160818000Y-72864900D01*
X158500200Y-65605000D02*
X158500200Y-65628300D01*
X158500200Y-65628300D02*
X158701900Y-65830000D01*
X157786000Y-75896900D02*
X160818000Y-72864900D01*
X157148000Y-64252800D02*
X158500200Y-65605000D01*
%TO.N,CANBUS_H*%
X162564700Y-71076900D02*
X161751100Y-71076900D01*
X157281400Y-75173600D02*
X157281400Y-74596900D01*
X158549700Y-73328600D02*
X157281400Y-74596900D01*
X163118800Y-71631000D02*
X162564700Y-71076900D01*
X157148000Y-66792800D02*
X158549700Y-68194500D01*
X158549700Y-68194500D02*
X158549700Y-73328600D01*
%TO.N,/BareMinAtmel328P/PB5-D13-SCK*%
X148909400Y-95731800D02*
X148228700Y-95731800D01*
X143662900Y-91166000D02*
X143662900Y-90187300D01*
X149684600Y-96507000D02*
X148909400Y-95731800D01*
X148549500Y-103520100D02*
X148697700Y-103520100D01*
X142155100Y-71477000D02*
X144124200Y-71477000D01*
X144124200Y-71477000D02*
X145655000Y-73007800D01*
X148228700Y-95731800D02*
X143662900Y-91166000D01*
X148697700Y-103520100D02*
X149684600Y-102533200D01*
X148549500Y-104621800D02*
X148549500Y-103520100D01*
X149684600Y-102533200D02*
X149684600Y-96507000D01*
%TO.N,/BareMinAtmel328P/PB3-D11-MOSI*%
X142155100Y-70207000D02*
X141520900Y-69572800D01*
X141520900Y-69572800D02*
X140841600Y-69572800D01*
%TO.N,/BareMinAtmel328P/PB4-D12-MISO*%
X148683200Y-106060100D02*
X148549500Y-106060100D01*
X148549500Y-107161800D02*
X148549500Y-106060100D01*
X150568900Y-88664800D02*
X150568900Y-104174400D01*
X155286500Y-72793000D02*
X156183100Y-73689600D01*
X142155100Y-68937000D02*
X146937300Y-68937000D01*
X155516800Y-82629800D02*
X155516800Y-83716900D01*
X156183100Y-73689600D02*
X156183100Y-81963500D01*
X150568900Y-104174400D02*
X148683200Y-106060100D01*
X156183100Y-81963500D02*
X155516800Y-82629800D01*
X155516800Y-83716900D02*
X150568900Y-88664800D01*
X146937300Y-68937000D02*
X147573100Y-69572800D01*
%TO.N,/BareMinAtmel328P/PD0-RX*%
X138634600Y-120744200D02*
X138634600Y-119592500D01*
X138597400Y-89271300D02*
X138597400Y-98441300D01*
X139605200Y-88263500D02*
X138597400Y-89271300D01*
X137043400Y-118001300D02*
X138634600Y-119592500D01*
X137043400Y-99995300D02*
X137043400Y-118001300D01*
X140929500Y-84301800D02*
X140929500Y-85403500D01*
X140929500Y-85403500D02*
X140764200Y-85403500D01*
X138597400Y-98441300D02*
X137043400Y-99995300D01*
X140764200Y-85403500D02*
X139605200Y-86562500D01*
X139605200Y-86562500D02*
X139605200Y-88263500D01*
%TO.N,/BareMinAtmel328P/PD1-TX*%
X138195700Y-88221400D02*
X138195700Y-98274900D01*
X136094600Y-120744200D02*
X136094600Y-119592500D01*
X136641700Y-99828900D02*
X136641700Y-119045400D01*
X139003500Y-87413600D02*
X138195700Y-88221400D01*
X138195700Y-98274900D02*
X136641700Y-99828900D01*
X136641700Y-119045400D02*
X136094600Y-119592500D01*
D38*
%TO.N,+VDC*%
X130976300Y-92602600D02*
X129618300Y-92602600D01*
X126020718Y-87855170D02*
X126020718Y-87478305D01*
X126020718Y-89005018D02*
X126020718Y-87855170D01*
X129618300Y-92602600D02*
X126020718Y-89005018D01*
X126020718Y-87508750D02*
X126020718Y-87478305D01*
D37*
%TO.N,/BareMinAtmel328P/PC2-A2*%
X132833300Y-101541300D02*
X132833300Y-100477100D01*
X132140300Y-95991200D02*
X132141600Y-95989900D01*
X132140300Y-99900100D02*
X132140300Y-95991200D01*
X131563300Y-100477100D02*
X132140300Y-99900100D01*
X132140300Y-99900100D02*
X132717300Y-100477100D01*
X132717300Y-100477100D02*
X132833300Y-100477100D01*
X131563300Y-101541300D02*
X131563300Y-100477100D01*
%TO.N,/BareMinAtmel328P/PC4-A4-SDA*%
X142472800Y-91954400D02*
X141197400Y-93229800D01*
X148549500Y-84301800D02*
X147447800Y-84301800D01*
X146283000Y-83137000D02*
X143835400Y-83137000D01*
X141197400Y-93229800D02*
X140069500Y-93229800D01*
X147447800Y-84301800D02*
X146283000Y-83137000D01*
X127110000Y-105274400D02*
X127110000Y-98687700D01*
X142472800Y-84499600D02*
X142472800Y-91954400D01*
X127110000Y-98687700D02*
X127193900Y-98603800D01*
X126483300Y-106965300D02*
X125213300Y-106965300D01*
X140069500Y-93229800D02*
X139621500Y-93677800D01*
X143835400Y-83137000D02*
X142472800Y-84499600D01*
X126483300Y-106965300D02*
X126483300Y-105901100D01*
X126483300Y-105901100D02*
X127110000Y-105274400D01*
%TO.N,/BareMinAtmel328P/PC1-A1*%
X124449400Y-88316000D02*
X124449400Y-81171500D01*
X125745400Y-100477100D02*
X126483300Y-100477100D01*
X124449400Y-81171500D02*
X125084400Y-80536500D01*
X125745400Y-100477100D02*
X124449400Y-99181100D01*
X126483300Y-101541300D02*
X126483300Y-100477100D01*
X125213300Y-101009200D02*
X125745400Y-100477100D01*
X124449400Y-99181100D02*
X124449400Y-88316000D01*
%TO.N,/BareMinAtmel328P/PC3-A3*%
X132833300Y-106433200D02*
X132354400Y-105954300D01*
X150121100Y-102995500D02*
X150121100Y-89377400D01*
X131563300Y-106965300D02*
X131563300Y-106122100D01*
X148549500Y-86841800D02*
X148549500Y-87943500D01*
X150121100Y-89377400D02*
X148687200Y-87943500D01*
X131731100Y-105954300D02*
X131563300Y-106122100D01*
X131858400Y-105954300D02*
X131731100Y-105954300D01*
X132354400Y-105954300D02*
X131858400Y-105954300D01*
X148687200Y-87943500D02*
X148549500Y-87943500D01*
X131858400Y-105954300D02*
X131858400Y-104059800D01*
X149825400Y-103291200D02*
X150121100Y-102995500D01*
%TO.N,/BareMinAtmel328P/PC0-A0*%
X135965600Y-92256100D02*
X135965600Y-94809500D01*
%TO.N,Net-(Q1-Pad1)*%
X134658600Y-84423600D02*
X131364300Y-81129300D01*
X134658600Y-84423600D02*
X136586000Y-84423600D01*
%TO.N,/BareMinAtmel328P/AREF*%
X147415000Y-99509000D02*
X147447800Y-99541800D01*
X144995600Y-99509000D02*
X147415000Y-99509000D01*
X148549500Y-99541800D02*
X147447800Y-99541800D01*
%TO.N,/BareMinAtmel328P/PB1-D9*%
X141092700Y-65729300D02*
X143173400Y-65729300D01*
X143485800Y-66764700D02*
X142583500Y-67667000D01*
X169962200Y-79613900D02*
X169962200Y-70608300D01*
X148549500Y-114781800D02*
X149651200Y-114781800D01*
X144783300Y-60834100D02*
X140827800Y-64789600D01*
X140827800Y-65464400D02*
X141092700Y-65729300D01*
X170881800Y-101173700D02*
X169297300Y-99589200D01*
X154114800Y-119245400D02*
X161466000Y-119245400D01*
X170881800Y-109829600D02*
X170881800Y-101173700D01*
X161466000Y-119245400D02*
X170881800Y-109829600D01*
X143485800Y-66041700D02*
X143485800Y-66764700D01*
X169962200Y-70608300D02*
X160188000Y-60834100D01*
X169297300Y-80278800D02*
X169962200Y-79613900D01*
X160188000Y-60834100D02*
X144783300Y-60834100D01*
X169297300Y-99589200D02*
X169297300Y-80278800D01*
X149651200Y-114781800D02*
X154114800Y-119245400D01*
X143173400Y-65729300D02*
X143485800Y-66041700D01*
X140827800Y-64789600D02*
X140827800Y-65464400D01*
%TO.N,/BareMinAtmel328P/PD2-D2*%
X136310900Y-87602100D02*
X138866100Y-85046900D01*
X138866100Y-85046900D02*
X138866100Y-75566100D01*
X138866100Y-75566100D02*
X141685200Y-72747000D01*
%TO.N,/CANBUS-MCP2515/RXtoCANTC*%
X156187600Y-62045200D02*
X158118600Y-62045200D01*
X151455100Y-66397000D02*
X152479900Y-66397000D01*
X154743100Y-64133800D02*
X154743100Y-63489700D01*
X166285700Y-72757400D02*
X167699300Y-74171000D01*
X154743100Y-63489700D02*
X156187600Y-62045200D01*
X166285700Y-70212300D02*
X166285700Y-72757400D01*
X158118600Y-62045200D02*
X166285700Y-70212300D01*
X152479900Y-66397000D02*
X154743100Y-64133800D01*
%TO.N,/CANBUS-MCP2515/TXtoCANTC*%
X155343300Y-61238800D02*
X158946600Y-61238800D01*
X158946600Y-61238800D02*
X168068800Y-70361000D01*
X151455100Y-65127000D02*
X155343300Y-61238800D01*
%TO.N,Net-(J3-Pin_6)*%
X134706300Y-121012700D02*
X134706300Y-120744200D01*
X133554600Y-120744200D02*
X134706300Y-120744200D01*
X138717100Y-118926700D02*
X139830400Y-120040000D01*
X135606100Y-121912500D02*
X134706300Y-121012700D01*
X138717100Y-117199700D02*
X138717100Y-118926700D01*
X139830400Y-121241700D02*
X139159600Y-121912500D01*
X139830400Y-120040000D02*
X139830400Y-121241700D01*
X139159600Y-121912500D02*
X135606100Y-121912500D01*
%TO.N,Net-(U2-XTAL1{slash}PB6)*%
X140929500Y-103183500D02*
X141067300Y-103183500D01*
X140929500Y-102081800D02*
X140929500Y-103183500D01*
X142031200Y-104147400D02*
X142031200Y-108145700D01*
X142031200Y-108145700D02*
X147506700Y-113621200D01*
X147506700Y-113621200D02*
X153812400Y-113621200D01*
X160984800Y-118178000D02*
X158369200Y-118178000D01*
X141067300Y-103183500D02*
X142031200Y-104147400D01*
X158369200Y-118178000D02*
X154199500Y-114008300D01*
%TO.N,Net-(U3-OSC2)*%
X167930500Y-99722500D02*
X161009700Y-106643300D01*
X161009700Y-108923600D02*
X162702000Y-110615900D01*
X162702000Y-110615900D02*
X162702000Y-113983400D01*
X152792100Y-68099400D02*
X155186100Y-65705400D01*
X152792100Y-71896000D02*
X152792100Y-68099400D01*
X165521100Y-73503700D02*
X167930500Y-75913100D01*
X161501000Y-66970600D02*
X165521100Y-70990700D01*
X157952300Y-62446900D02*
X161501000Y-65995600D01*
X155186100Y-65705400D02*
X155186100Y-63614700D01*
X161009700Y-106643300D02*
X161009700Y-108923600D01*
X161501000Y-65995600D02*
X161501000Y-66970600D01*
X155186100Y-63614700D02*
X156353900Y-62446900D01*
X156353900Y-62446900D02*
X157952300Y-62446900D01*
X167930500Y-75913100D02*
X167930500Y-99722500D01*
X151941100Y-72747000D02*
X152792100Y-71896000D01*
X165521100Y-70990700D02*
X165521100Y-73503700D01*
%TO.N,Net-(U3-OSC1)*%
X164437500Y-74522000D02*
X158084500Y-80875000D01*
X153316700Y-72602500D02*
X153316700Y-69189000D01*
X160649100Y-65755500D02*
X160649100Y-70837700D01*
X162077400Y-72266000D02*
X164122800Y-72266000D01*
X160649100Y-70837700D02*
X162077400Y-72266000D01*
X151902200Y-74017000D02*
X153316700Y-72602500D01*
X158084500Y-80875000D02*
X158084500Y-106968800D01*
X153316700Y-69189000D02*
X155720500Y-66785200D01*
X164122800Y-72266000D02*
X164437500Y-72580700D01*
X155720500Y-63684000D02*
X156553400Y-62851100D01*
X156553400Y-62851100D02*
X157744700Y-62851100D01*
X155720500Y-66785200D02*
X155720500Y-63684000D01*
X164437500Y-72580700D02*
X164437500Y-74522000D01*
X158084500Y-106968800D02*
X156129700Y-108923600D01*
X157744700Y-62851100D02*
X160649100Y-65755500D01*
%TO.N,/BufferedADC/ADCIN1*%
X127753300Y-100477100D02*
X127810400Y-100420000D01*
X127810400Y-100420000D02*
X127810400Y-99482800D01*
X127951700Y-99482800D02*
X127810400Y-99482800D01*
X127753300Y-101541300D02*
X127753300Y-100477100D01*
%TO.N,/BufferedADC/ADCIN4*%
X117267900Y-101684100D02*
X123613300Y-108029500D01*
X135270800Y-83145300D02*
X137740100Y-83145300D01*
X138191700Y-83596900D02*
X138191700Y-84428000D01*
X124780500Y-79934800D02*
X132060300Y-79934800D01*
X132060300Y-79934800D02*
X135270800Y-83145300D01*
X127753300Y-106965300D02*
X127753300Y-108029500D01*
X117267900Y-87447400D02*
X124780500Y-79934800D01*
X137740100Y-83145300D02*
X138191700Y-83596900D01*
X117267900Y-101684100D02*
X117267900Y-87447400D01*
X123613300Y-108029500D02*
X127753300Y-108029500D01*
%TO.N,/BufferedADC/ADCIN2*%
X130293300Y-101541300D02*
X130293300Y-102605500D01*
X133336000Y-102605500D02*
X134150500Y-101791000D01*
X134150500Y-100899300D02*
X136258300Y-98791500D01*
X130293300Y-102605500D02*
X133336000Y-102605500D01*
X134150500Y-101791000D02*
X134150500Y-100899300D01*
%TO.N,/BufferedADC/ADCIN3*%
X156814400Y-89435200D02*
X151231700Y-95017900D01*
X149003100Y-108286200D02*
X143080800Y-108286200D01*
X130293300Y-107302600D02*
X131227600Y-108236900D01*
X151231700Y-106057600D02*
X149003100Y-108286200D01*
X151231700Y-95017900D02*
X151231700Y-106057600D01*
%TO.N,Net-(J5-Pin_2)*%
X141589600Y-60586800D02*
X141442200Y-60586800D01*
X141589600Y-61738500D02*
X141589600Y-60586800D01*
X141442200Y-60586800D02*
X139116100Y-58260700D01*
%TO.N,Net-(U3-~{RESET})*%
X138264400Y-82791700D02*
X138264400Y-69833300D01*
X138264400Y-69833300D02*
X141700700Y-66397000D01*
X144151400Y-86645200D02*
X144151400Y-85701100D01*
%TO.N,Net-(U4-Rs)*%
X165119400Y-71966500D02*
X165119400Y-74931300D01*
X163513900Y-70361000D02*
X165119400Y-71966500D01*
X165119400Y-74931300D02*
X166799100Y-76611000D01*
%TO.N,Net-(J6-Pin_2)*%
X172119700Y-85550000D02*
X179270500Y-92700800D01*
X170805500Y-81482300D02*
X172119700Y-82796500D01*
X179270500Y-92700800D02*
X179270500Y-101766200D01*
X172119700Y-82796500D02*
X172119700Y-85550000D01*
%TO.N,Net-(J6-Pin_1)*%
X179270500Y-105166200D02*
X172119700Y-98015400D01*
X172119700Y-98015400D02*
X172119700Y-86825700D01*
X172119700Y-86825700D02*
X170718000Y-85424000D01*
X170718000Y-84022300D02*
X170718000Y-85424000D01*
%TO.N,Net-(R8-Pad1)*%
X159354400Y-89435200D02*
X161051722Y-89435200D01*
X161051722Y-89435200D02*
X162938988Y-87547934D01*
%TO.N,Net-(R9-Pad1)*%
X159354400Y-95885200D02*
X162497020Y-95885200D01*
%TO.N,Net-(R14-Pad1)*%
X159354400Y-102335200D02*
X161195293Y-100494307D01*
%TO.N,Net-(R15-Pad1)*%
X159354400Y-82985200D02*
X162669082Y-82985200D01*
%TD*%
M02*
