%TF.GenerationSoftware,KiCad,Pcbnew,8.0.1-rc1*%
%TF.CreationDate,2024-06-08T14:56:59-07:00*%
%TF.ProjectId,AMS - CANBus Sensor - Pressure,414d5320-2d20-4434-914e-427573205365,rev?*%
%TF.SameCoordinates,Original*%
%TF.FileFunction,Copper,L2,Bot*%
%TF.FilePolarity,Positive*%
%FSLAX46Y46*%
G04 Gerber Fmt 4.6, Leading zero omitted, Abs format (unit mm)*
G04 Created by KiCad (PCBNEW 8.0.1-rc1) date 2024-06-08 14:56:59*
%MOMM*%
%LPD*%
G01*
G04 APERTURE LIST*
G04 Aperture macros list*
%AMRoundRect*
0 Rectangle with rounded corners*
0 $1 Rounding radius*
0 $2 $3 $4 $5 $6 $7 $8 $9 X,Y pos of 4 corners*
0 Add a 4 corners polygon primitive as box body*
4,1,4,$2,$3,$4,$5,$6,$7,$8,$9,$2,$3,0*
0 Add four circle primitives for the rounded corners*
1,1,$1+$1,$2,$3*
1,1,$1+$1,$4,$5*
1,1,$1+$1,$6,$7*
1,1,$1+$1,$8,$9*
0 Add four rect primitives between the rounded corners*
20,1,$1+$1,$2,$3,$4,$5,0*
20,1,$1+$1,$4,$5,$6,$7,0*
20,1,$1+$1,$6,$7,$8,$9,0*
20,1,$1+$1,$8,$9,$2,$3,0*%
G04 Aperture macros list end*
%TA.AperFunction,ComponentPad*%
%ADD10C,1.440000*%
%TD*%
%TA.AperFunction,ComponentPad*%
%ADD11R,2.200000X2.200000*%
%TD*%
%TA.AperFunction,ComponentPad*%
%ADD12C,2.200000*%
%TD*%
%TA.AperFunction,ComponentPad*%
%ADD13C,1.600000*%
%TD*%
%TA.AperFunction,ComponentPad*%
%ADD14O,1.600000X1.600000*%
%TD*%
%TA.AperFunction,ComponentPad*%
%ADD15R,1.700000X1.700000*%
%TD*%
%TA.AperFunction,ComponentPad*%
%ADD16O,1.700000X1.700000*%
%TD*%
%TA.AperFunction,ComponentPad*%
%ADD17C,2.400000*%
%TD*%
%TA.AperFunction,ComponentPad*%
%ADD18R,1.600000X1.600000*%
%TD*%
%TA.AperFunction,ComponentPad*%
%ADD19R,1.920000X1.920000*%
%TD*%
%TA.AperFunction,ComponentPad*%
%ADD20C,1.920000*%
%TD*%
%TA.AperFunction,ComponentPad*%
%ADD21C,1.500000*%
%TD*%
%TA.AperFunction,ComponentPad*%
%ADD22R,1.500000X1.500000*%
%TD*%
%TA.AperFunction,SMDPad,CuDef*%
%ADD23RoundRect,0.250000X0.400000X0.625000X-0.400000X0.625000X-0.400000X-0.625000X0.400000X-0.625000X0*%
%TD*%
%TA.AperFunction,SMDPad,CuDef*%
%ADD24RoundRect,0.250000X-0.412500X-0.650000X0.412500X-0.650000X0.412500X0.650000X-0.412500X0.650000X0*%
%TD*%
%TA.AperFunction,SMDPad,CuDef*%
%ADD25RoundRect,0.150000X0.825000X0.150000X-0.825000X0.150000X-0.825000X-0.150000X0.825000X-0.150000X0*%
%TD*%
%TA.AperFunction,SMDPad,CuDef*%
%ADD26RoundRect,0.250000X-0.625000X0.400000X-0.625000X-0.400000X0.625000X-0.400000X0.625000X0.400000X0*%
%TD*%
%TA.AperFunction,SMDPad,CuDef*%
%ADD27RoundRect,0.250000X0.412500X0.650000X-0.412500X0.650000X-0.412500X-0.650000X0.412500X-0.650000X0*%
%TD*%
%TA.AperFunction,SMDPad,CuDef*%
%ADD28RoundRect,0.150000X0.875000X0.150000X-0.875000X0.150000X-0.875000X-0.150000X0.875000X-0.150000X0*%
%TD*%
%TA.AperFunction,SMDPad,CuDef*%
%ADD29R,1.525000X0.650000*%
%TD*%
%TA.AperFunction,SMDPad,CuDef*%
%ADD30RoundRect,0.250000X0.625000X-0.400000X0.625000X0.400000X-0.625000X0.400000X-0.625000X-0.400000X0*%
%TD*%
%TA.AperFunction,SMDPad,CuDef*%
%ADD31R,1.000000X0.550000*%
%TD*%
%TA.AperFunction,ViaPad*%
%ADD32C,0.600000*%
%TD*%
%TA.AperFunction,Conductor*%
%ADD33C,0.200000*%
%TD*%
%TA.AperFunction,Conductor*%
%ADD34C,0.508000*%
%TD*%
%TA.AperFunction,Conductor*%
%ADD35C,0.635000*%
%TD*%
G04 APERTURE END LIST*
D10*
%TO.P,RV2,1,1*%
%TO.N,Net-(J2-Pin_2)*%
X154274400Y-95885200D03*
%TO.P,RV2,2,2*%
%TO.N,/BufferedADC/ADCIN2*%
X156814400Y-95885200D03*
%TO.P,RV2,3,3*%
%TO.N,GND*%
X159354400Y-95885200D03*
%TD*%
D11*
%TO.P,J6,1,Pin_1*%
%TO.N,Net-(J6-Pin_1)*%
X170718000Y-84022300D03*
D12*
%TO.P,J6,2,Pin_2*%
%TO.N,Net-(J6-Pin_2)*%
X170718000Y-81482300D03*
%TD*%
D10*
%TO.P,RV3,1,1*%
%TO.N,Net-(J2-Pin_3)*%
X154274400Y-89435200D03*
%TO.P,RV3,2,2*%
%TO.N,/BufferedADC/ADCIN3*%
X156814400Y-89435200D03*
%TO.P,RV3,3,3*%
%TO.N,GND*%
X159354400Y-89435200D03*
%TD*%
D13*
%TO.P,R7,1*%
%TO.N,Net-(J5-Pin_2)*%
X139116100Y-58260700D03*
D14*
%TO.P,R7,2*%
%TO.N,CANBUS_L*%
X141656100Y-58260700D03*
%TD*%
D11*
%TO.P,J1,1,Pin_1*%
%TO.N,Net-(J1-Pin_1)*%
X157148000Y-71872800D03*
D12*
%TO.P,J1,2,Pin_2*%
%TO.N,GND*%
X157148000Y-69332800D03*
%TO.P,J1,3,Pin_3*%
%TO.N,CANBUS_H*%
X157148000Y-66792800D03*
%TO.P,J1,4,Pin_4*%
%TO.N,CANBUS_L*%
X157148000Y-64252800D03*
%TD*%
D13*
%TO.P,NTC1,1*%
%TO.N,/BareMinAtmel328P/PC0-A0*%
X135965600Y-94809500D03*
D14*
%TO.P,NTC1,2*%
%TO.N,+5V*%
X135965600Y-97349500D03*
%TD*%
D15*
%TO.P,J3,1,Pin_1*%
%TO.N,GND*%
X146254600Y-120744200D03*
D16*
%TO.P,J3,2,Pin_2*%
%TO.N,unconnected-(J3-Pin_2-Pad2)*%
X143714600Y-120744200D03*
%TO.P,J3,3,Pin_3*%
%TO.N,+5V*%
X141174600Y-120744200D03*
%TO.P,J3,4,Pin_4*%
%TO.N,/BareMinAtmel328P/PD0-RX*%
X138634600Y-120744200D03*
%TO.P,J3,5,Pin_5*%
%TO.N,/BareMinAtmel328P/PD1-TX*%
X136094600Y-120744200D03*
%TO.P,J3,6,Pin_6*%
%TO.N,Net-(J3-Pin_6)*%
X133554600Y-120744200D03*
%TD*%
D10*
%TO.P,RV1,1,1*%
%TO.N,Net-(J2-Pin_1)*%
X154274400Y-102335200D03*
%TO.P,RV1,2,2*%
%TO.N,/BufferedADC/ADCIN1*%
X156814400Y-102335200D03*
%TO.P,RV1,3,3*%
%TO.N,GND*%
X159354400Y-102335200D03*
%TD*%
D17*
%TO.P,U5,1,1*%
%TO.N,Net-(Q1-Pad3)*%
X134999500Y-70018000D03*
%TO.P,U5,2,2*%
X134999500Y-73418000D03*
%TO.P,U5,3,3*%
%TO.N,+VDC*%
X125079500Y-70018000D03*
%TO.P,U5,4,4*%
X125079500Y-73418000D03*
%TD*%
D13*
%TO.P,R6,1*%
%TO.N,Net-(U4-Rs)*%
X166799100Y-76611000D03*
D14*
%TO.P,R6,2*%
%TO.N,GND*%
X164259100Y-76611000D03*
%TD*%
D15*
%TO.P,Powerboard1,1,Pin_1*%
%TO.N,+VDC*%
X130976300Y-92602600D03*
D16*
%TO.P,Powerboard1,2,Pin_2*%
%TO.N,+5V*%
X130976300Y-90062600D03*
%TO.P,Powerboard1,3,Pin_3*%
%TO.N,GND*%
X130976300Y-87522600D03*
%TD*%
D18*
%TO.P,U2,1,~{RESET}/PC6*%
%TO.N,/BareMinAtmel328P/RESET*%
X140929500Y-81761800D03*
D14*
%TO.P,U2,2,PD0*%
%TO.N,/BareMinAtmel328P/PD0-RX*%
X140929500Y-84301800D03*
%TO.P,U2,3,PD1*%
%TO.N,/BareMinAtmel328P/PD1-TX*%
X140929500Y-86841800D03*
%TO.P,U2,4,PD2*%
%TO.N,/BareMinAtmel328P/PD2-D2*%
X140929500Y-89381800D03*
%TO.P,U2,5,PD3*%
%TO.N,/BareMinAtmel328P/PD3-D3*%
X140929500Y-91921800D03*
%TO.P,U2,6,PD4*%
%TO.N,/BareMinAtmel328P/PD4-D4*%
X140929500Y-94461800D03*
%TO.P,U2,7,VCC*%
%TO.N,+5V*%
X140929500Y-97001800D03*
%TO.P,U2,8,GND*%
%TO.N,GND*%
X140929500Y-99541800D03*
%TO.P,U2,9,XTAL1/PB6*%
%TO.N,Net-(U2-XTAL1{slash}PB6)*%
X140929500Y-102081800D03*
%TO.P,U2,10,XTAL2/PB7*%
%TO.N,Net-(U2-XTAL2{slash}PB7)*%
X140929500Y-104621800D03*
%TO.P,U2,11,PD5*%
%TO.N,/BareMinAtmel328P/PD5-D5*%
X140929500Y-107161800D03*
%TO.P,U2,12,PD6*%
%TO.N,/BareMinAtmel328P/PD6-D6*%
X140929500Y-109701800D03*
%TO.P,U2,13,PD7*%
%TO.N,/BareMinAtmel328P/PD7-D7*%
X140929500Y-112241800D03*
%TO.P,U2,14,PB0*%
%TO.N,/BareMinAtmel328P/PB0-D8*%
X140929500Y-114781800D03*
%TO.P,U2,15,PB1*%
%TO.N,/BareMinAtmel328P/PB1-D9*%
X148549500Y-114781800D03*
%TO.P,U2,16,PB2*%
%TO.N,/BareMinAtmel328P/PB2-D10-SS*%
X148549500Y-112241800D03*
%TO.P,U2,17,PB3*%
%TO.N,/BareMinAtmel328P/PB3-D11-MOSI*%
X148549500Y-109701800D03*
%TO.P,U2,18,PB4*%
%TO.N,/BareMinAtmel328P/PB4-D12-MISO*%
X148549500Y-107161800D03*
%TO.P,U2,19,PB5*%
%TO.N,/BareMinAtmel328P/PB5-D13-SCK*%
X148549500Y-104621800D03*
%TO.P,U2,20,AVCC*%
%TO.N,+5V*%
X148549500Y-102081800D03*
%TO.P,U2,21,AREF*%
%TO.N,/BareMinAtmel328P/AREF*%
X148549500Y-99541800D03*
%TO.P,U2,22,GND*%
%TO.N,GND*%
X148549500Y-97001800D03*
%TO.P,U2,23,PC0*%
%TO.N,/BareMinAtmel328P/PC0-A0*%
X148549500Y-94461800D03*
%TO.P,U2,24,PC1*%
%TO.N,/BareMinAtmel328P/PC1-A1*%
X148549500Y-91921800D03*
%TO.P,U2,25,PC2*%
%TO.N,/BareMinAtmel328P/PC2-A2*%
X148549500Y-89381800D03*
%TO.P,U2,26,PC3*%
%TO.N,/BareMinAtmel328P/PC3-A3*%
X148549500Y-86841800D03*
%TO.P,U2,27,PC4*%
%TO.N,/BareMinAtmel328P/PC4-A4-SDA*%
X148549500Y-84301800D03*
%TO.P,U2,28,PC5*%
%TO.N,/BareMinAtmel328P/PC5-A5-SCL*%
X148549500Y-81761800D03*
%TD*%
D15*
%TO.P,J5,1,Pin_1*%
%TO.N,CANBUS_H*%
X139049600Y-61738500D03*
D16*
%TO.P,J5,2,Pin_2*%
%TO.N,Net-(J5-Pin_2)*%
X141589600Y-61738500D03*
%TD*%
D19*
%TO.P,Q1,1*%
%TO.N,Net-(Q1-Pad1)*%
X136586000Y-84423600D03*
D20*
%TO.P,Q1,2*%
%TO.N,Net-(J1-Pin_1)*%
X136586000Y-81883600D03*
%TO.P,Q1,3*%
%TO.N,Net-(Q1-Pad3)*%
X136586000Y-79343600D03*
%TD*%
D11*
%TO.P,J2,1,Pin_1*%
%TO.N,Net-(J2-Pin_1)*%
X170699000Y-96212100D03*
D12*
%TO.P,J2,2,Pin_2*%
%TO.N,Net-(J2-Pin_2)*%
X170699000Y-93672100D03*
%TO.P,J2,3,Pin_3*%
%TO.N,Net-(J2-Pin_3)*%
X170699000Y-91132100D03*
%TO.P,J2,4,Pin_4*%
%TO.N,Net-(J2-Pin_4)*%
X170699000Y-88592100D03*
%TD*%
D10*
%TO.P,RV4,1,1*%
%TO.N,Net-(J2-Pin_4)*%
X154274400Y-82985200D03*
%TO.P,RV4,2,2*%
%TO.N,/BufferedADC/ADCIN4*%
X156814400Y-82985200D03*
%TO.P,RV4,3,3*%
%TO.N,GND*%
X159354400Y-82985200D03*
%TD*%
D21*
%TO.P,Y2,1,1*%
%TO.N,Net-(U3-OSC1)*%
X156129700Y-108923600D03*
%TO.P,Y2,2,2*%
%TO.N,Net-(U3-OSC2)*%
X161009700Y-108923600D03*
%TD*%
D22*
%TO.P,Reset1,1,NO_1*%
%TO.N,/BareMinAtmel328P/RESET*%
X135385300Y-113752500D03*
D21*
%TO.P,Reset1,2,NO_2*%
%TO.N,unconnected-(Reset1-NO_2-Pad2)*%
X128885300Y-113752500D03*
%TO.P,Reset1,3,COM_1*%
%TO.N,GND*%
X135385300Y-109252500D03*
%TO.P,Reset1,4,COM_2*%
%TO.N,unconnected-(Reset1-COM_2-Pad4)*%
X128885300Y-109252500D03*
%TD*%
%TO.P,Y1,1,1*%
%TO.N,Net-(U2-XTAL2{slash}PB7)*%
X156104800Y-118178000D03*
%TO.P,Y1,2,2*%
%TO.N,Net-(U2-XTAL1{slash}PB6)*%
X160984800Y-118178000D03*
%TD*%
D17*
%TO.P,U1,1,1*%
%TO.N,Net-(J6-Pin_2)*%
X179270500Y-101766200D03*
%TO.P,U1,2,2*%
%TO.N,Net-(J6-Pin_1)*%
X179270500Y-105166200D03*
%TO.P,U1,3,3*%
%TO.N,+5V*%
X169350500Y-101766200D03*
%TO.P,U1,4,4*%
X169350500Y-105166200D03*
%TD*%
D23*
%TO.P,R8,1*%
%TO.N,GND*%
X130559200Y-101477900D03*
%TO.P,R8,2*%
%TO.N,/BufferedADC/ADCIN1*%
X127459200Y-101477900D03*
%TD*%
D24*
%TO.P,C2,1*%
%TO.N,Net-(U2-XTAL1{slash}PB6)*%
X154199500Y-114008300D03*
%TO.P,C2,2*%
%TO.N,GND*%
X157324500Y-114008300D03*
%TD*%
D25*
%TO.P,U4,1,TXD*%
%TO.N,/CANBUS-MCP2515/TXtoCANTC*%
X168068800Y-70361000D03*
%TO.P,U4,2,VSS*%
%TO.N,GND*%
X168068800Y-71631000D03*
%TO.P,U4,3,VDD*%
%TO.N,+5V*%
X168068800Y-72901000D03*
%TO.P,U4,4,RXD*%
%TO.N,/CANBUS-MCP2515/RXtoCANTC*%
X168068800Y-74171000D03*
%TO.P,U4,5,Vref*%
%TO.N,unconnected-(U4-Vref-Pad5)*%
X163118800Y-74171000D03*
%TO.P,U4,6,CANL*%
%TO.N,CANBUS_L*%
X163118800Y-72901000D03*
%TO.P,U4,7,CANH*%
%TO.N,CANBUS_H*%
X163118800Y-71631000D03*
%TO.P,U4,8,Rs*%
%TO.N,Net-(U4-Rs)*%
X163118800Y-70361000D03*
%TD*%
D23*
%TO.P,R14,1*%
%TO.N,GND*%
X118344600Y-102249000D03*
%TO.P,R14,2*%
%TO.N,/BufferedADC/ADCIN4*%
X115244600Y-102249000D03*
%TD*%
%TO.P,R1,1*%
%TO.N,Net-(Q1-Pad1)*%
X131364300Y-81129300D03*
%TO.P,R1,2*%
%TO.N,GND*%
X128264300Y-81129300D03*
%TD*%
D26*
%TO.P,R4,1*%
%TO.N,+5V*%
X132096400Y-109912300D03*
%TO.P,R4,2*%
%TO.N,/BareMinAtmel328P/RESET*%
X132096400Y-113012300D03*
%TD*%
D27*
%TO.P,C4,1*%
%TO.N,Net-(U3-OSC2)*%
X162702000Y-113983400D03*
%TO.P,C4,2*%
%TO.N,GND*%
X159577000Y-113983400D03*
%TD*%
D28*
%TO.P,U3,1,TXCAN*%
%TO.N,/CANBUS-MCP2515/TXtoCANTC*%
X151455100Y-65127000D03*
%TO.P,U3,2,RXCAN*%
%TO.N,/CANBUS-MCP2515/RXtoCANTC*%
X151455100Y-66397000D03*
%TO.P,U3,3,CLKOUT/SOF*%
%TO.N,unconnected-(U3-CLKOUT{slash}SOF-Pad3)*%
X151455100Y-67667000D03*
%TO.P,U3,4,~{TX0RTS}*%
%TO.N,unconnected-(U3-~{TX0RTS}-Pad4)*%
X151455100Y-68937000D03*
%TO.P,U3,5,~{TX1RTS}*%
%TO.N,unconnected-(U3-~{TX1RTS}-Pad5)*%
X151455100Y-70207000D03*
%TO.P,U3,6,~{TX2RTS}*%
%TO.N,unconnected-(U3-~{TX2RTS}-Pad6)*%
X151455100Y-71477000D03*
%TO.P,U3,7,OSC2*%
%TO.N,Net-(U3-OSC2)*%
X151455100Y-72747000D03*
%TO.P,U3,8,OSC1*%
%TO.N,Net-(U3-OSC1)*%
X151455100Y-74017000D03*
%TO.P,U3,9,VSS*%
%TO.N,GND*%
X151455100Y-75287000D03*
%TO.P,U3,10,~{RX1BF}*%
%TO.N,unconnected-(U3-~{RX1BF}-Pad10)*%
X142155100Y-75287000D03*
%TO.P,U3,11,~{RX0BF}*%
%TO.N,unconnected-(U3-~{RX0BF}-Pad11)*%
X142155100Y-74017000D03*
%TO.P,U3,12,~{INT}*%
%TO.N,/BareMinAtmel328P/PD2-D2*%
X142155100Y-72747000D03*
%TO.P,U3,13,SCK*%
%TO.N,/BareMinAtmel328P/PB5-D13-SCK*%
X142155100Y-71477000D03*
%TO.P,U3,14,SI*%
%TO.N,/BareMinAtmel328P/PB3-D11-MOSI*%
X142155100Y-70207000D03*
%TO.P,U3,15,SO*%
%TO.N,/BareMinAtmel328P/PB4-D12-MISO*%
X142155100Y-68937000D03*
%TO.P,U3,16,~{CS}*%
%TO.N,/BareMinAtmel328P/PB1-D9*%
X142155100Y-67667000D03*
%TO.P,U3,17,~{RESET}*%
%TO.N,Net-(U3-~{RESET})*%
X142155100Y-66397000D03*
%TO.P,U3,18,VDD*%
%TO.N,+5V*%
X142155100Y-65127000D03*
%TD*%
D29*
%TO.P,IC2,1,OUT_A*%
%TO.N,/BareMinAtmel328P/PC1-A1*%
X123238800Y-90470600D03*
%TO.P,IC2,2,-IN_A*%
X123238800Y-91740600D03*
%TO.P,IC2,3,+IN_A*%
%TO.N,/BufferedADC/ADCIN1*%
X123238800Y-93010600D03*
%TO.P,IC2,4,V+*%
%TO.N,+5V*%
X123238800Y-94280600D03*
%TO.P,IC2,5,+IN_B*%
%TO.N,/BufferedADC/ADCIN2*%
X123238800Y-95550600D03*
%TO.P,IC2,6,-IN_B*%
%TO.N,/BareMinAtmel328P/PC2-A2*%
X123238800Y-96820600D03*
%TO.P,IC2,7,OUT_B*%
X123238800Y-98090600D03*
%TO.P,IC2,8,OUT_C*%
%TO.N,/BareMinAtmel328P/PC3-A3*%
X117814800Y-98090600D03*
%TO.P,IC2,9,-IN_C*%
X117814800Y-96820600D03*
%TO.P,IC2,10,+IN_C*%
%TO.N,/BufferedADC/ADCIN3*%
X117814800Y-95550600D03*
%TO.P,IC2,11,V-*%
%TO.N,GND*%
X117814800Y-94280600D03*
%TO.P,IC2,12,+IN_D*%
%TO.N,/BufferedADC/ADCIN4*%
X117814800Y-93010600D03*
%TO.P,IC2,13,-IN_D*%
%TO.N,/BareMinAtmel328P/PC4-A4-SDA*%
X117814800Y-91740600D03*
%TO.P,IC2,14,OUT_D*%
X117814800Y-90470600D03*
%TD*%
D30*
%TO.P,R5,1*%
%TO.N,Net-(U3-~{RESET})*%
X144703000Y-87196800D03*
%TO.P,R5,2*%
%TO.N,+5V*%
X144703000Y-84096800D03*
%TD*%
D26*
%TO.P,R3,1*%
%TO.N,GND*%
X135973000Y-89148700D03*
%TO.P,R3,2*%
%TO.N,/BareMinAtmel328P/PC0-A0*%
X135973000Y-92248700D03*
%TD*%
D27*
%TO.P,C1,1*%
%TO.N,Net-(J3-Pin_6)*%
X138717100Y-117199700D03*
%TO.P,C1,2*%
%TO.N,/BareMinAtmel328P/RESET*%
X135592100Y-117199700D03*
%TD*%
D26*
%TO.P,R2,1*%
%TO.N,/BareMinAtmel328P/AREF*%
X144995600Y-99509000D03*
%TO.P,R2,2*%
%TO.N,+5V*%
X144995600Y-102609000D03*
%TD*%
D23*
%TO.P,R9,1*%
%TO.N,GND*%
X130559200Y-104767900D03*
%TO.P,R9,2*%
%TO.N,/BufferedADC/ADCIN2*%
X127459200Y-104767900D03*
%TD*%
D27*
%TO.P,C7,1*%
%TO.N,+5V*%
X137705500Y-103901700D03*
%TO.P,C7,2*%
%TO.N,GND*%
X134580500Y-103901700D03*
%TD*%
D31*
%TO.P,D1,1,CATHODE_1*%
%TO.N,CANBUS_H*%
X157281400Y-75173600D03*
%TO.P,D1,2,CATHODE_2*%
%TO.N,CANBUS_L*%
X157281400Y-76473600D03*
%TO.P,D1,3,COMMON_ANODE*%
%TO.N,GND*%
X155381400Y-75823600D03*
%TD*%
D23*
%TO.P,R15,1*%
%TO.N,GND*%
X118344600Y-105539000D03*
%TO.P,R15,2*%
%TO.N,/BufferedADC/ADCIN3*%
X115244600Y-105539000D03*
%TD*%
D27*
%TO.P,C6,1*%
%TO.N,+5V*%
X137701800Y-101431800D03*
%TO.P,C6,2*%
%TO.N,GND*%
X134576800Y-101431800D03*
%TD*%
D32*
%TO.N,GND*%
X157324500Y-114008300D03*
%TO.N,+VDC*%
X126020718Y-87478305D03*
%TO.N,GND*%
X128264300Y-81129300D03*
X142731000Y-77345500D03*
%TO.N,/BareMinAtmel328P/RESET*%
X138819400Y-89314200D03*
X138535100Y-70748000D03*
X136883200Y-111462500D03*
X135795900Y-86759200D03*
%TO.N,+5V*%
X124506300Y-94186700D03*
X146363000Y-77411600D03*
%TO.N,CANBUS_H*%
X160858100Y-70342900D03*
%TO.N,/BareMinAtmel328P/PB5-D13-SCK*%
X145054800Y-73455300D03*
X145910600Y-81382700D03*
%TO.N,/BareMinAtmel328P/PB3-D11-MOSI*%
X140841600Y-69572800D03*
%TO.N,/BareMinAtmel328P/PB4-D12-MISO*%
X155286500Y-72793000D03*
X147243800Y-70565100D03*
%TO.N,/BareMinAtmel328P/PD0-RX*%
X139043500Y-114357600D03*
%TO.N,/BareMinAtmel328P/PC2-A2*%
X130140800Y-84393100D03*
X133957200Y-88209500D03*
X121969900Y-87285100D03*
%TO.N,/BareMinAtmel328P/PC4-A4-SDA*%
X118377200Y-89517200D03*
%TO.N,/BareMinAtmel328P/PC1-A1*%
X132480800Y-90252800D03*
X123238800Y-80273800D03*
%TO.N,/BareMinAtmel328P/PC3-A3*%
X145626200Y-108361100D03*
X119371700Y-96581200D03*
%TO.N,/BareMinAtmel328P/PB1-D9*%
X139816200Y-69602300D03*
X143162100Y-107490100D03*
%TO.N,/BareMinAtmel328P/PD2-D2*%
X136130400Y-87605200D03*
%TO.N,/BufferedADC/ADCIN1*%
X128625600Y-100762400D03*
%TO.N,/BufferedADC/ADCIN4*%
X148181600Y-62830400D03*
%TO.N,/BufferedADC/ADCIN2*%
X151218400Y-103428100D03*
X128236200Y-103428100D03*
%TO.N,/BufferedADC/ADCIN3*%
X119361100Y-95057100D03*
%TO.N,Net-(U3-~{RESET})*%
X143503600Y-83200100D03*
X138308300Y-83192400D03*
%TD*%
D33*
%TO.N,GND*%
X128264300Y-81129300D02*
X128264300Y-84810600D01*
X128264300Y-84810600D02*
X130976300Y-87522600D01*
%TO.N,+5V*%
X130976300Y-88940900D02*
X130976300Y-90092600D01*
X126524165Y-85280565D02*
X130184500Y-88940900D01*
X126524165Y-79769635D02*
X126524165Y-85280565D01*
X135262700Y-71916300D02*
X134377500Y-71916300D01*
X134377500Y-71916300D02*
X126524165Y-79769635D01*
X130184500Y-88940900D02*
X130976300Y-88940900D01*
X136501200Y-70305500D02*
X136501200Y-70677800D01*
X141679700Y-65127000D02*
X136501200Y-70305500D01*
X136501200Y-70677800D02*
X135262700Y-71916300D01*
%TO.N,/BareMinAtmel328P/PC1-A1*%
X130524200Y-91293200D02*
X131440400Y-91293200D01*
X129039600Y-88737409D02*
X129039600Y-89808600D01*
X129039600Y-89808600D02*
X130524200Y-91293200D01*
X131440400Y-91293200D02*
X132480800Y-90252800D01*
X126091104Y-85788913D02*
X129039600Y-88737409D01*
X126091104Y-82849759D02*
X126091104Y-85788913D01*
X123238800Y-80273800D02*
X123515145Y-80273800D01*
X123515145Y-80273800D02*
X126091104Y-82849759D01*
D34*
%TO.N,+VDC*%
X126020718Y-89005018D02*
X126020718Y-87478305D01*
X130976300Y-92602600D02*
X129618300Y-92602600D01*
X129618300Y-92602600D02*
X126020718Y-89005018D01*
D35*
%TO.N,GND*%
X135973000Y-89148700D02*
X132602400Y-89148700D01*
X132602400Y-89148700D02*
X130976300Y-87522600D01*
D33*
X153665400Y-61202100D02*
X150116100Y-64751400D01*
X119975600Y-94820700D02*
X119435500Y-94280600D01*
D35*
X151245000Y-79789200D02*
X154187000Y-76848000D01*
D33*
X130559200Y-104767900D02*
X130559200Y-101477900D01*
X133710600Y-107577800D02*
X135385300Y-109252500D01*
X150116100Y-74356500D02*
X151046600Y-75287000D01*
X159354400Y-89435200D02*
X159354400Y-95885200D01*
X168506000Y-71631000D02*
X169368600Y-70768400D01*
X152004700Y-75836600D02*
X151455100Y-75287000D01*
D35*
X139612000Y-85509700D02*
X139612000Y-80444300D01*
D33*
X160586500Y-61202100D02*
X153665400Y-61202100D01*
X159354400Y-82985200D02*
X159354400Y-89435200D01*
D35*
X139612000Y-80444300D02*
X140267000Y-79789200D01*
D33*
X134576800Y-103901700D02*
X134576800Y-101431800D01*
D35*
X154187000Y-76848000D02*
X154187000Y-75836600D01*
D33*
X118344600Y-102249000D02*
X119975600Y-100618000D01*
X117814800Y-94280600D02*
X119435500Y-94280600D01*
D35*
X135973000Y-89148700D02*
X139612000Y-85509700D01*
D33*
X119975600Y-100618000D02*
X119975600Y-94820700D01*
X133710600Y-104767900D02*
X133710600Y-107577800D01*
X133710600Y-104767900D02*
X134576800Y-103901700D01*
X169368600Y-70768400D02*
X169368600Y-69984200D01*
D35*
X155592000Y-69332800D02*
X157148000Y-69332800D01*
X140267000Y-79789200D02*
X141773900Y-79789200D01*
X154187000Y-75836600D02*
X154187000Y-74825200D01*
D33*
X150116100Y-64751400D02*
X150116100Y-74356500D01*
X154959700Y-74825200D02*
X155381400Y-75246900D01*
X154187000Y-75836600D02*
X152004700Y-75836600D01*
X129347800Y-105979300D02*
X118784900Y-105979300D01*
X142731000Y-78832100D02*
X142731000Y-77345500D01*
X130559200Y-104767900D02*
X133710600Y-104767900D01*
X141773900Y-79789200D02*
X142731000Y-78832100D01*
D35*
X154187000Y-74825200D02*
X154187000Y-70738600D01*
D33*
X118344600Y-102249000D02*
X118344600Y-105539000D01*
X154187000Y-74825200D02*
X154959700Y-74825200D01*
D35*
X154187000Y-70738600D02*
X155592000Y-69332800D01*
D33*
X130559200Y-104767900D02*
X129347800Y-105979300D01*
X169368600Y-69984200D02*
X160586500Y-61202100D01*
D35*
X141773900Y-79789200D02*
X151245000Y-79789200D01*
D33*
X159354400Y-113760800D02*
X157572000Y-113760800D01*
X159354400Y-102335200D02*
X159354400Y-113760800D01*
X155381400Y-75823600D02*
X155381400Y-75246900D01*
%TO.N,/BareMinAtmel328P/RESET*%
X136883200Y-111462500D02*
X138819400Y-109526300D01*
X138819400Y-109526300D02*
X138819400Y-89314200D01*
X135385300Y-113752500D02*
X134333600Y-113752500D01*
X130379700Y-81958700D02*
X130379700Y-80236100D01*
X135795900Y-86759200D02*
X135180200Y-86759200D01*
X130379700Y-80236100D02*
X137263300Y-73352500D01*
X135180200Y-86759200D02*
X130379700Y-81958700D01*
X132096400Y-113012300D02*
X133593400Y-113012300D01*
X137263300Y-73352500D02*
X137263300Y-72019800D01*
X133593400Y-113012300D02*
X134333600Y-113752500D01*
X135385300Y-116992900D02*
X135385300Y-113752500D01*
X137263300Y-72019800D02*
X138535100Y-70748000D01*
%TO.N,+5V*%
X169350500Y-105166200D02*
X169350500Y-101766200D01*
X135945300Y-112232400D02*
X137098000Y-113385100D01*
X137701800Y-100187400D02*
X137701800Y-101431800D01*
X142696700Y-65127000D02*
X147870500Y-70300800D01*
X140697400Y-117302600D02*
X140697400Y-119115300D01*
X135965600Y-97349500D02*
X135965600Y-98451200D01*
X124396900Y-94186700D02*
X124303000Y-94280600D01*
X169371200Y-73770100D02*
X169371200Y-77638800D01*
X137098000Y-113385100D02*
X137098000Y-113703200D01*
X141174600Y-120744200D02*
X141174600Y-119592500D01*
X123238800Y-94280600D02*
X124303000Y-94280600D01*
X169297300Y-77712700D02*
X169297300Y-101713000D01*
X137098000Y-113703200D02*
X140697400Y-117302600D01*
X140929500Y-97001800D02*
X142031200Y-97001800D01*
X137705500Y-101435500D02*
X137705500Y-103901700D01*
X144995600Y-102081800D02*
X148549500Y-102081800D01*
X140697400Y-119115300D02*
X141174600Y-119592500D01*
X135945300Y-110304200D02*
X135945300Y-112232400D01*
X135945300Y-110304200D02*
X132488300Y-110304200D01*
X137705500Y-103901700D02*
X137705500Y-108544000D01*
X147870500Y-75904100D02*
X146363000Y-77411600D01*
X142031200Y-97001800D02*
X142031200Y-86768600D01*
X142031200Y-99117400D02*
X142031200Y-97001800D01*
X169371200Y-77638800D02*
X169297300Y-77712700D01*
X147870500Y-70300800D02*
X147870500Y-75904100D01*
X135965600Y-98451200D02*
X137701800Y-100187400D01*
X168502100Y-72901000D02*
X169371200Y-73770100D01*
X144995600Y-102081800D02*
X142031200Y-99117400D01*
X124506300Y-94186700D02*
X124396900Y-94186700D01*
X137705500Y-108544000D02*
X135945300Y-110304200D01*
X142031200Y-86768600D02*
X144703000Y-84096800D01*
%TO.N,CANBUS_L*%
X159403100Y-72901000D02*
X159403100Y-66507900D01*
X157281400Y-75896900D02*
X157786000Y-75896900D01*
X157281400Y-76473600D02*
X157281400Y-75896900D01*
X159403100Y-72901000D02*
X163118800Y-72901000D01*
X159403100Y-74279800D02*
X159403100Y-72901000D01*
X159403100Y-66507900D02*
X157148000Y-64252800D01*
X157786000Y-75896900D02*
X159403100Y-74279800D01*
%TO.N,CANBUS_H*%
X157148000Y-66792800D02*
X158549700Y-68194500D01*
X158549700Y-73328600D02*
X157281400Y-74596900D01*
X157281400Y-75173600D02*
X157281400Y-74596900D01*
X163118800Y-71631000D02*
X162146200Y-71631000D01*
X162146200Y-71631000D02*
X160858100Y-70342900D01*
X158549700Y-68194500D02*
X158549700Y-73328600D01*
%TO.N,/BareMinAtmel328P/PB5-D13-SCK*%
X147313800Y-84624400D02*
X148261200Y-85571800D01*
X148858800Y-85571800D02*
X150109100Y-86822100D01*
X150109100Y-102894600D02*
X148549500Y-104454200D01*
X148261200Y-85571800D02*
X148858800Y-85571800D01*
X145910600Y-81382700D02*
X147313800Y-82785900D01*
X150109100Y-86822100D02*
X150109100Y-102894600D01*
X147313800Y-82785900D02*
X147313800Y-84624400D01*
X145054800Y-73455300D02*
X143076500Y-71477000D01*
%TO.N,/BareMinAtmel328P/PB3-D11-MOSI*%
X142155100Y-70207000D02*
X141520900Y-69572800D01*
X141520900Y-69572800D02*
X140841600Y-69572800D01*
%TO.N,/BareMinAtmel328P/PB4-D12-MISO*%
X155544400Y-98070900D02*
X150454700Y-103160600D01*
X150454700Y-104383200D02*
X148777800Y-106060100D01*
X148549500Y-107161800D02*
X148549500Y-106060100D01*
X145615700Y-68937000D02*
X147243800Y-70565100D01*
X150454700Y-103160600D02*
X150454700Y-104383200D01*
X142155100Y-68937000D02*
X145615700Y-68937000D01*
X156183100Y-73689600D02*
X156183100Y-80200000D01*
X156183100Y-80200000D02*
X155544400Y-80838700D01*
X148777800Y-106060100D02*
X148549500Y-106060100D01*
X155544400Y-80838700D02*
X155544400Y-98070900D01*
X155286500Y-72793000D02*
X156183100Y-73689600D01*
%TO.N,/BareMinAtmel328P/PD0-RX*%
X139421100Y-113980000D02*
X139421100Y-86746600D01*
X140764200Y-85403500D02*
X140929500Y-85403500D01*
X140929500Y-84301800D02*
X140929500Y-85403500D01*
X139043500Y-114357600D02*
X139421100Y-113980000D01*
X139421100Y-86746600D02*
X140764200Y-85403500D01*
%TO.N,/BareMinAtmel328P/PD1-TX*%
X137246300Y-120744200D02*
X137246300Y-121012700D01*
X139822800Y-115233200D02*
X139822800Y-88912500D01*
X142371500Y-121240600D02*
X142371500Y-117781900D01*
X140791800Y-87943500D02*
X140929500Y-87943500D01*
X138146100Y-121912500D02*
X141699600Y-121912500D01*
X141699600Y-121912500D02*
X142371500Y-121240600D01*
X139822800Y-88912500D02*
X140791800Y-87943500D01*
X142371500Y-117781900D02*
X139822800Y-115233200D01*
X136094600Y-120744200D02*
X137246300Y-120744200D01*
X137246300Y-121012700D02*
X138146100Y-121912500D01*
X140929500Y-86841800D02*
X140929500Y-87943500D01*
%TO.N,/BareMinAtmel328P/PC2-A2*%
X122174600Y-98090600D02*
X122174600Y-96820600D01*
X121969900Y-87285100D02*
X121969900Y-96615900D01*
X123238800Y-98090600D02*
X122174600Y-98090600D01*
X123238800Y-96820600D02*
X122174600Y-96820600D01*
X121969900Y-96615900D02*
X122174600Y-96820600D01*
X133957200Y-88209500D02*
X130140800Y-84393100D01*
%TO.N,/BareMinAtmel328P/PC4-A4-SDA*%
X117452800Y-90470600D02*
X116750600Y-91172800D01*
X116750600Y-91172800D02*
X116750600Y-91740600D01*
X118377200Y-89858800D02*
X118377200Y-89517200D01*
X117765400Y-90470600D02*
X118377200Y-89858800D01*
X117814800Y-91740600D02*
X116750600Y-91740600D01*
%TO.N,/BareMinAtmel328P/PC1-A1*%
X123238800Y-91740600D02*
X123238800Y-90470600D01*
X123238800Y-90470600D02*
X123238800Y-80273800D01*
%TO.N,/BareMinAtmel328P/PC3-A3*%
X148549500Y-86841800D02*
X148549500Y-87943500D01*
X148549500Y-87943500D02*
X148777800Y-87943500D01*
X149005900Y-103183500D02*
X148390400Y-103183500D01*
X149682000Y-88847700D02*
X149682000Y-102507400D01*
X145626200Y-105947700D02*
X145626200Y-108361100D01*
X149682000Y-102507400D02*
X149005900Y-103183500D01*
X148390400Y-103183500D02*
X145626200Y-105947700D01*
X117814800Y-96820600D02*
X117814800Y-98090600D01*
X148777800Y-87943500D02*
X149682000Y-88847700D01*
X117814800Y-96820600D02*
X119132300Y-96820600D01*
X119132300Y-96820600D02*
X119371700Y-96581200D01*
%TO.N,/BareMinAtmel328P/PC0-A0*%
X135965600Y-92256100D02*
X135965600Y-94809500D01*
%TO.N,Net-(Q1-Pad1)*%
X131364300Y-81129300D02*
X132030000Y-81129300D01*
X136586000Y-84423600D02*
X135324300Y-84423600D01*
X132030000Y-81129300D02*
X135324300Y-84423600D01*
%TO.N,/BareMinAtmel328P/AREF*%
X147415000Y-99509000D02*
X147447800Y-99541800D01*
X148549500Y-99541800D02*
X147447800Y-99541800D01*
X144995600Y-99509000D02*
X147415000Y-99509000D01*
%TO.N,/BareMinAtmel328P/PB1-D9*%
X143162100Y-107490100D02*
X143162100Y-108521000D01*
X143162100Y-108521000D02*
X148321200Y-113680100D01*
X148321200Y-113680100D02*
X148549500Y-113680100D01*
X141751500Y-67667000D02*
X139816200Y-69602300D01*
X148549500Y-114781800D02*
X148549500Y-113680100D01*
%TO.N,/BareMinAtmel328P/PD2-D2*%
X138928400Y-84807200D02*
X136130400Y-87605200D01*
X138928400Y-75559400D02*
X138928400Y-84807200D01*
X141740800Y-72747000D02*
X138928400Y-75559400D01*
%TO.N,/CANBUS-MCP2515/RXtoCANTC*%
X156255900Y-62022200D02*
X158085500Y-62022200D01*
X166791200Y-73301800D02*
X167660400Y-74171000D01*
X158085500Y-62022200D02*
X166791200Y-70727900D01*
X151881100Y-66397000D02*
X156255900Y-62022200D01*
X166791200Y-70727900D02*
X166791200Y-73301800D01*
%TO.N,/CANBUS-MCP2515/TXtoCANTC*%
X159319900Y-61612100D02*
X168068800Y-70361000D01*
X151455100Y-65127000D02*
X154970000Y-61612100D01*
X154970000Y-61612100D02*
X159319900Y-61612100D01*
%TO.N,Net-(J3-Pin_6)*%
X133554600Y-120744200D02*
X134706300Y-120744200D01*
X138717100Y-117199700D02*
X137982300Y-117199700D01*
X137982300Y-117199700D02*
X134706300Y-120475700D01*
X134706300Y-120475700D02*
X134706300Y-120744200D01*
%TO.N,Net-(U2-XTAL1{slash}PB6)*%
X144943400Y-108565600D02*
X147517900Y-111140100D01*
X147517900Y-111140100D02*
X151331300Y-111140100D01*
X158369200Y-118178000D02*
X154199500Y-114008300D01*
X160984800Y-118178000D02*
X158369200Y-118178000D01*
X151331300Y-111140100D02*
X154199500Y-114008300D01*
X141067200Y-103183500D02*
X144943400Y-107059700D01*
X140929500Y-102081800D02*
X140929500Y-103183500D01*
X144943400Y-107059700D02*
X144943400Y-108565600D01*
X140929500Y-103183500D02*
X141067200Y-103183500D01*
%TO.N,Net-(U3-OSC2)*%
X156425800Y-62423900D02*
X157909400Y-62423900D01*
X165033100Y-71926700D02*
X165033100Y-72160100D01*
X151941100Y-72747000D02*
X152816000Y-71872100D01*
X152816000Y-71872100D02*
X152816000Y-66033700D01*
X165392800Y-104540500D02*
X161009700Y-108923600D01*
X161616700Y-66131200D02*
X161616700Y-70497400D01*
X161616700Y-70497400D02*
X162082600Y-70963300D01*
X165392800Y-72519800D02*
X165392800Y-104540500D01*
X165033100Y-72160100D02*
X165392800Y-72519800D01*
X162702000Y-110615900D02*
X162702000Y-113983400D01*
X162082600Y-70963300D02*
X164069700Y-70963300D01*
X152816000Y-66033700D02*
X156425800Y-62423900D01*
X161009700Y-108923600D02*
X162702000Y-110615900D01*
X157909400Y-62423900D02*
X161616700Y-66131200D01*
X164069700Y-70963300D02*
X165033100Y-71926700D01*
%TO.N,Net-(U3-OSC1)*%
X164150000Y-72266000D02*
X164467200Y-72583200D01*
X161930400Y-72266000D02*
X164150000Y-72266000D01*
X160256400Y-70592000D02*
X161930400Y-72266000D01*
X153316700Y-72602500D02*
X153316700Y-66101100D01*
X153316700Y-66101100D02*
X156592200Y-62825600D01*
X160256400Y-65355000D02*
X160256400Y-70592000D01*
X156592200Y-62825600D02*
X157727000Y-62825600D01*
X164467200Y-74437300D02*
X158250700Y-80653800D01*
X158250700Y-80653800D02*
X158250700Y-106802600D01*
X164467200Y-72583200D02*
X164467200Y-74437300D01*
X157727000Y-62825600D02*
X160256400Y-65355000D01*
X158250700Y-106802600D02*
X156129700Y-108923600D01*
X151902200Y-74017000D02*
X153316700Y-72602500D01*
%TO.N,/BufferedADC/ADCIN1*%
X127459200Y-100762400D02*
X128625600Y-100762400D01*
X124303000Y-93010600D02*
X127459200Y-96166800D01*
X127459200Y-96166800D02*
X127459200Y-100762400D01*
X123238800Y-93010600D02*
X124303000Y-93010600D01*
%TO.N,/BufferedADC/ADCIN4*%
X117282700Y-93010600D02*
X116750600Y-93010600D01*
X117814800Y-93010600D02*
X118879000Y-93010600D01*
X118978900Y-83629100D02*
X139544400Y-63063600D01*
X147948400Y-63063600D02*
X148181600Y-62830400D01*
X115244600Y-94516600D02*
X115244600Y-102249000D01*
X116750600Y-93010600D02*
X115244600Y-94516600D01*
X118978900Y-92910700D02*
X118978900Y-83629100D01*
X118879000Y-93010600D02*
X118978900Y-92910700D01*
X139544400Y-63063600D02*
X147948400Y-63063600D01*
%TO.N,/BufferedADC/ADCIN2*%
X156814400Y-97832100D02*
X156814400Y-95885200D01*
X124303000Y-100271900D02*
X127459200Y-103428100D01*
X123238800Y-95550600D02*
X124303000Y-95550600D01*
X127459200Y-103428100D02*
X128236200Y-103428100D01*
X151218400Y-103428100D02*
X156814400Y-97832100D01*
X124303000Y-95550600D02*
X124303000Y-100271900D01*
X127459200Y-103428100D02*
X127459200Y-104767900D01*
%TO.N,/BufferedADC/ADCIN3*%
X116750600Y-104033000D02*
X115244600Y-105539000D01*
X117282700Y-95550600D02*
X116750600Y-95550600D01*
X117814800Y-95550600D02*
X118879000Y-95550600D01*
X118879000Y-95550600D02*
X118879000Y-95539200D01*
X116750600Y-95550600D02*
X116750600Y-104033000D01*
X118879000Y-95539200D02*
X119361100Y-95057100D01*
%TO.N,Net-(J5-Pin_2)*%
X141589600Y-61738500D02*
X141589600Y-60586800D01*
X141442200Y-60586800D02*
X139116100Y-58260700D01*
X141589600Y-60586800D02*
X141442200Y-60586800D01*
%TO.N,Net-(U3-~{RESET})*%
X138308300Y-83192400D02*
X138308300Y-71825700D01*
X145911200Y-83490400D02*
X145552600Y-83131800D01*
X145552600Y-83131800D02*
X143571900Y-83131800D01*
X143571900Y-83131800D02*
X143503600Y-83200100D01*
X139136800Y-70997200D02*
X139136800Y-69005000D01*
X138308300Y-71825700D02*
X139136800Y-70997200D01*
X144703000Y-87196800D02*
X145911200Y-85988600D01*
X145911200Y-85988600D02*
X145911200Y-83490400D01*
X139136800Y-69005000D02*
X141744800Y-66397000D01*
%TO.N,Net-(U4-Rs)*%
X165847100Y-72172700D02*
X165847100Y-75659000D01*
X164035400Y-70361000D02*
X165847100Y-72172700D01*
X165847100Y-75659000D02*
X166799100Y-76611000D01*
X163118800Y-70361000D02*
X164035400Y-70361000D01*
%TO.N,Net-(J6-Pin_2)*%
X179270500Y-86222008D02*
X173630792Y-80582300D01*
X171618000Y-80582300D02*
X170718000Y-81482300D01*
X173630792Y-80582300D02*
X171618000Y-80582300D01*
X179270500Y-101766200D02*
X179270500Y-86222008D01*
%TO.N,Net-(J6-Pin_1)*%
X179270500Y-105166200D02*
X177770500Y-103666200D01*
X177770500Y-103666200D02*
X177770500Y-91074800D01*
X177770500Y-91074800D02*
X170718000Y-84022300D01*
%TD*%
M02*
