%TF.GenerationSoftware,KiCad,Pcbnew,8.0.1-rc1*%
%TF.CreationDate,2024-05-25T10:35:02-07:00*%
%TF.ProjectId,AMS - CANBus Sensor - Pressure,414d5320-2d20-4434-914e-427573205365,rev?*%
%TF.SameCoordinates,Original*%
%TF.FileFunction,Copper,L1,Top*%
%TF.FilePolarity,Positive*%
%FSLAX46Y46*%
G04 Gerber Fmt 4.6, Leading zero omitted, Abs format (unit mm)*
G04 Created by KiCad (PCBNEW 8.0.1-rc1) date 2024-05-25 10:35:02*
%MOMM*%
%LPD*%
G01*
G04 APERTURE LIST*
G04 Aperture macros list*
%AMRoundRect*
0 Rectangle with rounded corners*
0 $1 Rounding radius*
0 $2 $3 $4 $5 $6 $7 $8 $9 X,Y pos of 4 corners*
0 Add a 4 corners polygon primitive as box body*
4,1,4,$2,$3,$4,$5,$6,$7,$8,$9,$2,$3,0*
0 Add four circle primitives for the rounded corners*
1,1,$1+$1,$2,$3*
1,1,$1+$1,$4,$5*
1,1,$1+$1,$6,$7*
1,1,$1+$1,$8,$9*
0 Add four rect primitives between the rounded corners*
20,1,$1+$1,$2,$3,$4,$5,0*
20,1,$1+$1,$4,$5,$6,$7,0*
20,1,$1+$1,$6,$7,$8,$9,0*
20,1,$1+$1,$8,$9,$2,$3,0*%
G04 Aperture macros list end*
%TA.AperFunction,SMDPad,CuDef*%
%ADD10RoundRect,0.250000X-0.400000X-0.625000X0.400000X-0.625000X0.400000X0.625000X-0.400000X0.625000X0*%
%TD*%
%TA.AperFunction,SMDPad,CuDef*%
%ADD11RoundRect,0.250000X-0.412500X-0.650000X0.412500X-0.650000X0.412500X0.650000X-0.412500X0.650000X0*%
%TD*%
%TA.AperFunction,ComponentPad*%
%ADD12C,1.440000*%
%TD*%
%TA.AperFunction,ComponentPad*%
%ADD13R,2.200000X2.200000*%
%TD*%
%TA.AperFunction,ComponentPad*%
%ADD14C,2.200000*%
%TD*%
%TA.AperFunction,ComponentPad*%
%ADD15C,1.600000*%
%TD*%
%TA.AperFunction,ComponentPad*%
%ADD16O,1.600000X1.600000*%
%TD*%
%TA.AperFunction,SMDPad,CuDef*%
%ADD17RoundRect,0.250000X0.400000X0.625000X-0.400000X0.625000X-0.400000X-0.625000X0.400000X-0.625000X0*%
%TD*%
%TA.AperFunction,ComponentPad*%
%ADD18R,1.700000X1.700000*%
%TD*%
%TA.AperFunction,ComponentPad*%
%ADD19O,1.700000X1.700000*%
%TD*%
%TA.AperFunction,ComponentPad*%
%ADD20C,2.400000*%
%TD*%
%TA.AperFunction,SMDPad,CuDef*%
%ADD21R,1.000000X3.150000*%
%TD*%
%TA.AperFunction,ComponentPad*%
%ADD22R,1.600000X1.600000*%
%TD*%
%TA.AperFunction,ComponentPad*%
%ADD23R,1.920000X1.920000*%
%TD*%
%TA.AperFunction,ComponentPad*%
%ADD24C,1.920000*%
%TD*%
%TA.AperFunction,ComponentPad*%
%ADD25C,1.500000*%
%TD*%
%TA.AperFunction,ComponentPad*%
%ADD26R,1.500000X1.500000*%
%TD*%
%TA.AperFunction,SMDPad,CuDef*%
%ADD27RoundRect,0.250000X0.412500X0.650000X-0.412500X0.650000X-0.412500X-0.650000X0.412500X-0.650000X0*%
%TD*%
%TA.AperFunction,ViaPad*%
%ADD28C,0.600000*%
%TD*%
%TA.AperFunction,Conductor*%
%ADD29C,0.200000*%
%TD*%
%TA.AperFunction,Conductor*%
%ADD30C,0.635000*%
%TD*%
G04 APERTURE END LIST*
D10*
%TO.P,R10,1*%
%TO.N,GND*%
X120710400Y-78872500D03*
%TO.P,R10,2*%
%TO.N,/BareMinAtmel328P/PC1-A1*%
X123810400Y-78872500D03*
%TD*%
D11*
%TO.P,C3,1*%
%TO.N,Net-(U2-XTAL2{slash}PB7)*%
X154187000Y-114014800D03*
%TO.P,C3,2*%
%TO.N,GND*%
X157312000Y-114014800D03*
%TD*%
D12*
%TO.P,RV2,1,1*%
%TO.N,Net-(J2-Pin_2)*%
X154274400Y-95885200D03*
%TO.P,RV2,2,2*%
%TO.N,/BufferedADC/ADCIN2*%
X156814400Y-95885200D03*
%TO.P,RV2,3,3*%
%TO.N,GND*%
X159354400Y-95885200D03*
%TD*%
D13*
%TO.P,J6,1,Pin_1*%
%TO.N,Net-(J6-Pin_1)*%
X170718000Y-84022300D03*
D14*
%TO.P,J6,2,Pin_2*%
%TO.N,Net-(J6-Pin_2)*%
X170718000Y-81482300D03*
%TD*%
D12*
%TO.P,RV3,1,1*%
%TO.N,Net-(J2-Pin_3)*%
X154274400Y-89435200D03*
%TO.P,RV3,2,2*%
%TO.N,/BufferedADC/ADCIN3*%
X156814400Y-89435200D03*
%TO.P,RV3,3,3*%
%TO.N,GND*%
X159354400Y-89435200D03*
%TD*%
D15*
%TO.P,R7,1*%
%TO.N,Net-(J5-Pin_2)*%
X139116100Y-58260700D03*
D16*
%TO.P,R7,2*%
%TO.N,CANBUS_L*%
X141656100Y-58260700D03*
%TD*%
D13*
%TO.P,J1,1,Pin_1*%
%TO.N,Net-(J1-Pin_1)*%
X157148000Y-71872800D03*
D14*
%TO.P,J1,2,Pin_2*%
%TO.N,GND*%
X157148000Y-69332800D03*
%TO.P,J1,3,Pin_3*%
%TO.N,CANBUS_H*%
X157148000Y-66792800D03*
%TO.P,J1,4,Pin_4*%
%TO.N,CANBUS_L*%
X157148000Y-64252800D03*
%TD*%
D17*
%TO.P,R13,1*%
%TO.N,GND*%
X118580700Y-78928700D03*
%TO.P,R13,2*%
%TO.N,/BareMinAtmel328P/PC3-A3*%
X115480700Y-78928700D03*
%TD*%
D15*
%TO.P,NTC1,1*%
%TO.N,/BareMinAtmel328P/PC0-A0*%
X135965600Y-94809500D03*
D16*
%TO.P,NTC1,2*%
%TO.N,+5V*%
X135965600Y-97349500D03*
%TD*%
D18*
%TO.P,J3,1,Pin_1*%
%TO.N,GND*%
X146254600Y-120744200D03*
D19*
%TO.P,J3,2,Pin_2*%
%TO.N,unconnected-(J3-Pin_2-Pad2)*%
X143714600Y-120744200D03*
%TO.P,J3,3,Pin_3*%
%TO.N,+5V*%
X141174600Y-120744200D03*
%TO.P,J3,4,Pin_4*%
%TO.N,/BareMinAtmel328P/PD0-RX*%
X138634600Y-120744200D03*
%TO.P,J3,5,Pin_5*%
%TO.N,/BareMinAtmel328P/PD1-TX*%
X136094600Y-120744200D03*
%TO.P,J3,6,Pin_6*%
%TO.N,Net-(J3-Pin_6)*%
X133554600Y-120744200D03*
%TD*%
D12*
%TO.P,RV1,1,1*%
%TO.N,Net-(J2-Pin_1)*%
X154274400Y-102335200D03*
%TO.P,RV1,2,2*%
%TO.N,/BufferedADC/ADCIN1*%
X156814400Y-102335200D03*
%TO.P,RV1,3,3*%
%TO.N,GND*%
X159354400Y-102335200D03*
%TD*%
D20*
%TO.P,U5,1,1*%
%TO.N,Net-(Q1-Pad3)*%
X134999500Y-70018000D03*
%TO.P,U5,2,2*%
X134999500Y-73418000D03*
%TO.P,U5,3,3*%
%TO.N,+VDC*%
X125079500Y-70018000D03*
%TO.P,U5,4,4*%
X125079500Y-73418000D03*
%TD*%
D15*
%TO.P,R6,1*%
%TO.N,Net-(U4-Rs)*%
X166799100Y-76611000D03*
D16*
%TO.P,R6,2*%
%TO.N,GND*%
X164259100Y-76611000D03*
%TD*%
D17*
%TO.P,R12,1*%
%TO.N,GND*%
X118744200Y-82579600D03*
%TO.P,R12,2*%
%TO.N,/BareMinAtmel328P/PC4-A4-SDA*%
X115644200Y-82579600D03*
%TD*%
D10*
%TO.P,R11,1*%
%TO.N,GND*%
X120808500Y-82593100D03*
%TO.P,R11,2*%
%TO.N,/BareMinAtmel328P/PC2-A2*%
X123908500Y-82593100D03*
%TD*%
D18*
%TO.P,Powerboard1,1,Pin_1*%
%TO.N,+VDC*%
X130976300Y-87552600D03*
D19*
%TO.P,Powerboard1,2,Pin_2*%
%TO.N,+5V*%
X130976300Y-90092600D03*
%TO.P,Powerboard1,3,Pin_3*%
%TO.N,GND*%
X130976300Y-92632600D03*
%TD*%
D21*
%TO.P,J4,1,Pin_1*%
%TO.N,/BareMinAtmel328P/PB4-D12-MISO*%
X148585100Y-70282000D03*
%TO.P,J4,2,Pin_2*%
%TO.N,/BareMinAtmel328P/PB5-D13-SCK*%
X148585100Y-75332000D03*
%TO.P,J4,3,Pin_3*%
%TO.N,/BareMinAtmel328P/RESET*%
X146045100Y-70282000D03*
%TO.P,J4,4,Pin_4*%
%TO.N,+5V*%
X146045100Y-75332000D03*
%TO.P,J4,5,Pin_5*%
%TO.N,/BareMinAtmel328P/PB3-D11-MOSI*%
X143505100Y-70282000D03*
%TO.P,J4,6,Pin_6*%
%TO.N,GND*%
X143505100Y-75332000D03*
%TD*%
D22*
%TO.P,U2,1,~{RESET}/PC6*%
%TO.N,/BareMinAtmel328P/RESET*%
X140929500Y-81761800D03*
D16*
%TO.P,U2,2,PD0*%
%TO.N,/BareMinAtmel328P/PD0-RX*%
X140929500Y-84301800D03*
%TO.P,U2,3,PD1*%
%TO.N,/BareMinAtmel328P/PD1-TX*%
X140929500Y-86841800D03*
%TO.P,U2,4,PD2*%
%TO.N,/BareMinAtmel328P/PD2-D2*%
X140929500Y-89381800D03*
%TO.P,U2,5,PD3*%
%TO.N,/BareMinAtmel328P/PD3-D3*%
X140929500Y-91921800D03*
%TO.P,U2,6,PD4*%
%TO.N,/BareMinAtmel328P/PD4-D4*%
X140929500Y-94461800D03*
%TO.P,U2,7,VCC*%
%TO.N,+5V*%
X140929500Y-97001800D03*
%TO.P,U2,8,GND*%
%TO.N,GND*%
X140929500Y-99541800D03*
%TO.P,U2,9,XTAL1/PB6*%
%TO.N,Net-(U2-XTAL1{slash}PB6)*%
X140929500Y-102081800D03*
%TO.P,U2,10,XTAL2/PB7*%
%TO.N,Net-(U2-XTAL2{slash}PB7)*%
X140929500Y-104621800D03*
%TO.P,U2,11,PD5*%
%TO.N,/BareMinAtmel328P/PD5-D5*%
X140929500Y-107161800D03*
%TO.P,U2,12,PD6*%
%TO.N,/BareMinAtmel328P/PD6-D6*%
X140929500Y-109701800D03*
%TO.P,U2,13,PD7*%
%TO.N,/BareMinAtmel328P/PD7-D7*%
X140929500Y-112241800D03*
%TO.P,U2,14,PB0*%
%TO.N,/BareMinAtmel328P/PB0-D8*%
X140929500Y-114781800D03*
%TO.P,U2,15,PB1*%
%TO.N,/BareMinAtmel328P/PB1-D9*%
X148549500Y-114781800D03*
%TO.P,U2,16,PB2*%
%TO.N,/BareMinAtmel328P/PB2-D10-SS*%
X148549500Y-112241800D03*
%TO.P,U2,17,PB3*%
%TO.N,/BareMinAtmel328P/PB3-D11-MOSI*%
X148549500Y-109701800D03*
%TO.P,U2,18,PB4*%
%TO.N,/BareMinAtmel328P/PB4-D12-MISO*%
X148549500Y-107161800D03*
%TO.P,U2,19,PB5*%
%TO.N,/BareMinAtmel328P/PB5-D13-SCK*%
X148549500Y-104621800D03*
%TO.P,U2,20,AVCC*%
%TO.N,+5V*%
X148549500Y-102081800D03*
%TO.P,U2,21,AREF*%
%TO.N,/BareMinAtmel328P/AREF*%
X148549500Y-99541800D03*
%TO.P,U2,22,GND*%
%TO.N,GND*%
X148549500Y-97001800D03*
%TO.P,U2,23,PC0*%
%TO.N,/BareMinAtmel328P/PC0-A0*%
X148549500Y-94461800D03*
%TO.P,U2,24,PC1*%
%TO.N,/BareMinAtmel328P/PC1-A1*%
X148549500Y-91921800D03*
%TO.P,U2,25,PC2*%
%TO.N,/BareMinAtmel328P/PC2-A2*%
X148549500Y-89381800D03*
%TO.P,U2,26,PC3*%
%TO.N,/BareMinAtmel328P/PC3-A3*%
X148549500Y-86841800D03*
%TO.P,U2,27,PC4*%
%TO.N,/BareMinAtmel328P/PC4-A4-SDA*%
X148549500Y-84301800D03*
%TO.P,U2,28,PC5*%
%TO.N,/BareMinAtmel328P/PC5-A5-SCL*%
X148549500Y-81761800D03*
%TD*%
D18*
%TO.P,J5,1,Pin_1*%
%TO.N,CANBUS_H*%
X139049600Y-61738500D03*
D19*
%TO.P,J5,2,Pin_2*%
%TO.N,Net-(J5-Pin_2)*%
X141589600Y-61738500D03*
%TD*%
D23*
%TO.P,Q1,1*%
%TO.N,Net-(Q1-Pad1)*%
X136586000Y-84423600D03*
D24*
%TO.P,Q1,2*%
%TO.N,Net-(J1-Pin_1)*%
X136586000Y-81883600D03*
%TO.P,Q1,3*%
%TO.N,Net-(Q1-Pad3)*%
X136586000Y-79343600D03*
%TD*%
D13*
%TO.P,J2,1,Pin_1*%
%TO.N,Net-(J2-Pin_1)*%
X170699000Y-96212100D03*
D14*
%TO.P,J2,2,Pin_2*%
%TO.N,Net-(J2-Pin_2)*%
X170699000Y-93672100D03*
%TO.P,J2,3,Pin_3*%
%TO.N,Net-(J2-Pin_3)*%
X170699000Y-91132100D03*
%TO.P,J2,4,Pin_4*%
%TO.N,Net-(J2-Pin_4)*%
X170699000Y-88592100D03*
%TD*%
D12*
%TO.P,RV4,1,1*%
%TO.N,Net-(J2-Pin_4)*%
X154274400Y-82985200D03*
%TO.P,RV4,2,2*%
%TO.N,/BufferedADC/ADCIN4*%
X156814400Y-82985200D03*
%TO.P,RV4,3,3*%
%TO.N,GND*%
X159354400Y-82985200D03*
%TD*%
D25*
%TO.P,Y2,1,1*%
%TO.N,Net-(U3-OSC1)*%
X156129700Y-108923600D03*
%TO.P,Y2,2,2*%
%TO.N,Net-(U3-OSC2)*%
X161009700Y-108923600D03*
%TD*%
D26*
%TO.P,Reset1,1,NO_1*%
%TO.N,/BareMinAtmel328P/RESET*%
X135385300Y-113752500D03*
D25*
%TO.P,Reset1,2,NO_2*%
%TO.N,unconnected-(Reset1-NO_2-Pad2)*%
X128885300Y-113752500D03*
%TO.P,Reset1,3,COM_1*%
%TO.N,GND*%
X135385300Y-109252500D03*
%TO.P,Reset1,4,COM_2*%
%TO.N,unconnected-(Reset1-COM_2-Pad4)*%
X128885300Y-109252500D03*
%TD*%
D27*
%TO.P,C5,1*%
%TO.N,Net-(U3-OSC1)*%
X162712000Y-114002500D03*
%TO.P,C5,2*%
%TO.N,GND*%
X159587000Y-114002500D03*
%TD*%
D25*
%TO.P,Y1,1,1*%
%TO.N,Net-(U2-XTAL2{slash}PB7)*%
X156104800Y-118178000D03*
%TO.P,Y1,2,2*%
%TO.N,Net-(U2-XTAL1{slash}PB6)*%
X160984800Y-118178000D03*
%TD*%
D20*
%TO.P,U1,1,1*%
%TO.N,Net-(J6-Pin_2)*%
X179270500Y-101766200D03*
%TO.P,U1,2,2*%
%TO.N,Net-(J6-Pin_1)*%
X179270500Y-105166200D03*
%TO.P,U1,3,3*%
%TO.N,+5V*%
X169350500Y-101766200D03*
%TO.P,U1,4,4*%
X169350500Y-105166200D03*
%TD*%
D28*
%TO.N,GND*%
X127100600Y-81256500D03*
X142731000Y-77345500D03*
%TO.N,/BareMinAtmel328P/RESET*%
X138819400Y-89314200D03*
X138535100Y-70748000D03*
X136883200Y-111462500D03*
X135795900Y-86759200D03*
%TO.N,+5V*%
X124506300Y-94186700D03*
X146363000Y-77411600D03*
%TO.N,CANBUS_H*%
X160858100Y-70342900D03*
%TO.N,/BareMinAtmel328P/PB5-D13-SCK*%
X145054800Y-73455300D03*
X145910600Y-81382700D03*
%TO.N,/BareMinAtmel328P/PB3-D11-MOSI*%
X140841600Y-69572800D03*
%TO.N,/BareMinAtmel328P/PB4-D12-MISO*%
X155286500Y-72793000D03*
X147243800Y-70565100D03*
%TO.N,/BareMinAtmel328P/PD0-RX*%
X139043500Y-114357600D03*
%TO.N,/BareMinAtmel328P/PC2-A2*%
X130140800Y-84393100D03*
X133957200Y-88209500D03*
X121969900Y-87285100D03*
%TO.N,/BareMinAtmel328P/PC4-A4-SDA*%
X118377200Y-89517200D03*
%TO.N,/BareMinAtmel328P/PC1-A1*%
X132480800Y-90252800D03*
X123238800Y-80273800D03*
%TO.N,/BareMinAtmel328P/PC3-A3*%
X145626200Y-108361100D03*
X119371700Y-96581200D03*
%TO.N,/BareMinAtmel328P/PB1-D9*%
X139816200Y-69602300D03*
X143162100Y-107490100D03*
%TO.N,/BareMinAtmel328P/PD2-D2*%
X136130400Y-87605200D03*
%TO.N,/BufferedADC/ADCIN1*%
X128625600Y-100762400D03*
%TO.N,/BufferedADC/ADCIN4*%
X148181600Y-62830400D03*
%TO.N,/BufferedADC/ADCIN2*%
X151218400Y-103428100D03*
X128236200Y-103428100D03*
%TO.N,/BufferedADC/ADCIN3*%
X119361100Y-95057100D03*
%TO.N,Net-(U3-~{RESET})*%
X143503600Y-83200100D03*
X138308300Y-83192400D03*
%TD*%
D29*
%TO.N,GND*%
X120808500Y-82579600D02*
X122131600Y-81256500D01*
X164259100Y-76611000D02*
X164259100Y-75509300D01*
X157312000Y-118519400D02*
X156574000Y-119257400D01*
X159354400Y-82617400D02*
X159354400Y-82985200D01*
X157324300Y-114002500D02*
X157312000Y-114014800D01*
X120710400Y-78928700D02*
X118580700Y-78928700D01*
X147028700Y-119257400D02*
X146809200Y-119037900D01*
X120808500Y-82579600D02*
X118744200Y-82579600D01*
X146254600Y-120744200D02*
X146254600Y-119592500D01*
X146809200Y-119037900D02*
X141371600Y-113600300D01*
X135524100Y-109252500D02*
X135385300Y-109252500D01*
X120808500Y-82593100D02*
X120808500Y-82579600D01*
X143505100Y-75332000D02*
X143505100Y-77208700D01*
X157312000Y-114014800D02*
X157312000Y-118519400D01*
X148549500Y-97001800D02*
X147447800Y-97001800D01*
X146254600Y-119592500D02*
X146809200Y-119037900D01*
X159354400Y-98118400D02*
X159354400Y-102335200D01*
X158237800Y-97001800D02*
X159354400Y-98118400D01*
X122131600Y-80349900D02*
X120710400Y-78928700D01*
X122131600Y-81256500D02*
X127100600Y-81256500D01*
X158237800Y-97001800D02*
X148549500Y-97001800D01*
X158082600Y-69332800D02*
X164259100Y-75509300D01*
X159587000Y-114002500D02*
X157324300Y-114002500D01*
X164259100Y-76611000D02*
X164259100Y-77712700D01*
X120710400Y-78928700D02*
X120710400Y-78872500D01*
X147447800Y-97001800D02*
X144907800Y-99541800D01*
X143505100Y-77208700D02*
X142867800Y-77208700D01*
X164259100Y-77712700D02*
X159354400Y-82617400D01*
X144907800Y-99541800D02*
X140929500Y-99541800D01*
X122131600Y-81256500D02*
X122131600Y-80349900D01*
X159354400Y-95885200D02*
X158237800Y-97001800D01*
X139871900Y-113600300D02*
X135524100Y-109252500D01*
X157148000Y-69332800D02*
X158082600Y-69332800D01*
X156574000Y-119257400D02*
X147028700Y-119257400D01*
X142867800Y-77208700D02*
X142731000Y-77345500D01*
X141371600Y-113600300D02*
X139871900Y-113600300D01*
%TO.N,/BareMinAtmel328P/RESET*%
X135385300Y-113752500D02*
X135385300Y-112700800D01*
X144472300Y-81761800D02*
X140929500Y-81761800D01*
X138819400Y-89314200D02*
X140021800Y-88111800D01*
X146045100Y-70282000D02*
X146045100Y-72158700D01*
X135644900Y-112700800D02*
X136883200Y-111462500D01*
X149656100Y-83816100D02*
X148840400Y-83000400D01*
X136264400Y-86759200D02*
X135795900Y-86759200D01*
X145710900Y-83000400D02*
X144472300Y-81761800D01*
X149656100Y-84757200D02*
X149656100Y-83816100D01*
X138819400Y-89314200D02*
X136264400Y-86759200D01*
X139945800Y-72158700D02*
X146045100Y-72158700D01*
X140021800Y-88111800D02*
X145421500Y-88111800D01*
X145421500Y-88111800D02*
X147849700Y-85683600D01*
X138535100Y-70748000D02*
X139945800Y-72158700D01*
X148729700Y-85683600D02*
X149656100Y-84757200D01*
X147849700Y-85683600D02*
X148729700Y-85683600D01*
X135385300Y-112700800D02*
X135644900Y-112700800D01*
X148840400Y-83000400D02*
X145710900Y-83000400D01*
%TO.N,+5V*%
X140929500Y-97001800D02*
X137415000Y-97001800D01*
X148549500Y-102081800D02*
X149651200Y-102081800D01*
X150723000Y-102081800D02*
X149651200Y-102081800D01*
X135965600Y-96247800D02*
X135811400Y-96247800D01*
X169350500Y-105166200D02*
X153807400Y-105166200D01*
X127471100Y-91221900D02*
X124506300Y-94186700D01*
X135965600Y-97349500D02*
X137067300Y-97349500D01*
X132128100Y-92564500D02*
X132128100Y-92108000D01*
X146160100Y-77208700D02*
X146363000Y-77411600D01*
X130976300Y-91221900D02*
X127471100Y-91221900D01*
X131242000Y-91221900D02*
X130976300Y-91221900D01*
X135965600Y-97349500D02*
X135965600Y-96247800D01*
X130976300Y-90092600D02*
X130976300Y-91221900D01*
X146045100Y-75332000D02*
X146045100Y-77208700D01*
X137415000Y-97001800D02*
X137067300Y-97349500D01*
X135811400Y-96247800D02*
X132128100Y-92564500D01*
X132128100Y-92108000D02*
X131242000Y-91221900D01*
X153807400Y-105166200D02*
X150723000Y-102081800D01*
X146045100Y-77208700D02*
X146160100Y-77208700D01*
%TO.N,CANBUS_L*%
X148749900Y-64252800D02*
X157148000Y-64252800D01*
X142757800Y-58260700D02*
X148749900Y-64252800D01*
X141656100Y-58260700D02*
X142757800Y-58260700D01*
%TO.N,CANBUS_H*%
X144967700Y-66792800D02*
X157148000Y-66792800D01*
X139049600Y-61738500D02*
X140201300Y-61738500D01*
X157148000Y-66792800D02*
X160698100Y-70342900D01*
X140201300Y-62026400D02*
X144967700Y-66792800D01*
X140201300Y-61738500D02*
X140201300Y-62026400D01*
X160698100Y-70342900D02*
X160858100Y-70342900D01*
%TO.N,/BareMinAtmel328P/PB5-D13-SCK*%
X134319600Y-68509000D02*
X135662300Y-68509000D01*
X141854500Y-80660100D02*
X139599200Y-80660100D01*
X142256300Y-81062000D02*
X142256300Y-81061900D01*
X137097400Y-83161900D02*
X136076800Y-83161900D01*
X148585100Y-75332000D02*
X148585100Y-73455300D01*
X135662300Y-68509000D02*
X137933400Y-70780100D01*
X137933400Y-70780100D02*
X137933400Y-70997100D01*
X139599200Y-80660100D02*
X137097400Y-83161900D01*
X133489300Y-80574400D02*
X133489300Y-69339300D01*
X140391600Y-73455300D02*
X145054800Y-73455300D01*
X136076800Y-83161900D02*
X133489300Y-80574400D01*
X145589900Y-81062000D02*
X142256300Y-81062000D01*
X142256300Y-81061900D02*
X141854500Y-80660100D01*
X133489300Y-69339300D02*
X134319600Y-68509000D01*
X148585100Y-73455300D02*
X145054800Y-73455300D01*
X137933400Y-70997100D02*
X140391600Y-73455300D01*
X145910600Y-81382700D02*
X145589900Y-81062000D01*
%TO.N,/BareMinAtmel328P/PB3-D11-MOSI*%
X136109800Y-107586000D02*
X129525700Y-107586000D01*
X124726700Y-67633400D02*
X138902200Y-67633400D01*
X121354487Y-76684635D02*
X122925300Y-75113822D01*
X122925300Y-69434800D02*
X124726700Y-67633400D01*
X122925300Y-75113822D02*
X122925300Y-69434800D01*
X118581265Y-76684635D02*
X121354487Y-76684635D01*
X138902200Y-67633400D02*
X140841600Y-69572800D01*
X118216700Y-77049200D02*
X118581265Y-76684635D01*
X139336800Y-110813000D02*
X136109800Y-107586000D01*
X143505100Y-68405300D02*
X142009100Y-68405300D01*
X148549500Y-109701800D02*
X147447800Y-109701800D01*
X113886200Y-78698100D02*
X115535100Y-77049200D01*
X113886200Y-91946500D02*
X113886200Y-78698100D01*
X147447800Y-109701800D02*
X146336600Y-110813000D01*
X146336600Y-110813000D02*
X139336800Y-110813000D01*
X115535100Y-77049200D02*
X118216700Y-77049200D01*
X143505100Y-70282000D02*
X143505100Y-68405300D01*
X129525700Y-107586000D02*
X113886200Y-91946500D01*
X142009100Y-68405300D02*
X140841600Y-69572800D01*
%TO.N,/BareMinAtmel328P/PB4-D12-MISO*%
X147929900Y-70565100D02*
X148585100Y-71220300D01*
X148585100Y-70282000D02*
X148585100Y-71220300D01*
X148585100Y-71220300D02*
X150157800Y-72793000D01*
X150157800Y-72793000D02*
X155286500Y-72793000D01*
X147243800Y-70565100D02*
X147929900Y-70565100D01*
%TO.N,/BareMinAtmel328P/PD0-RX*%
X138634600Y-114766500D02*
X139043500Y-114357600D01*
X138634600Y-120744200D02*
X138634600Y-114766500D01*
%TO.N,+VDC*%
X125079500Y-72234300D02*
X125079500Y-73418000D01*
X125079500Y-70903800D02*
X125079500Y-70018000D01*
X125079000Y-70904300D02*
X125079500Y-70903800D01*
D30*
X125079000Y-73563300D02*
X130976000Y-79460100D01*
D29*
X130976000Y-86924200D02*
X130976300Y-86924500D01*
D30*
X125079000Y-70018000D02*
X125079000Y-70904300D01*
D29*
X125079000Y-72233800D02*
X125079500Y-72234300D01*
D30*
X125079000Y-70904300D02*
X125079000Y-72233800D01*
X130976000Y-79460100D02*
X130976000Y-86924200D01*
D29*
X130976300Y-86924500D02*
X130976300Y-87552600D01*
D30*
X130976000Y-86924200D02*
X130976000Y-87552600D01*
X125079000Y-72233800D02*
X125079000Y-73563300D01*
D29*
%TO.N,/BareMinAtmel328P/PC2-A2*%
X124861900Y-84393100D02*
X130140800Y-84393100D01*
X148549500Y-89381800D02*
X147447800Y-89381800D01*
X136249400Y-90501700D02*
X133957200Y-88209500D01*
X147447800Y-89381800D02*
X146327900Y-90501700D01*
X124861900Y-84393100D02*
X121969900Y-87285100D01*
X146327900Y-90501700D02*
X136249400Y-90501700D01*
X123908500Y-82593100D02*
X124861900Y-83546500D01*
X124861900Y-83546500D02*
X124861900Y-84393100D01*
%TO.N,/BareMinAtmel328P/PC4-A4-SDA*%
X146346100Y-85403500D02*
X140109600Y-85403500D01*
X118377200Y-89354400D02*
X118978500Y-88753100D01*
X132093500Y-88753100D02*
X118978500Y-88753100D01*
X134732800Y-86113800D02*
X132093500Y-88753100D01*
X115644200Y-85418800D02*
X115644200Y-82579600D01*
X148549500Y-84301800D02*
X147447800Y-84301800D01*
X140109600Y-85403500D02*
X139399300Y-86113800D01*
X147447800Y-84301800D02*
X146346100Y-85403500D01*
X139399300Y-86113800D02*
X134732800Y-86113800D01*
X118377200Y-89517200D02*
X118377200Y-89354400D01*
X118978500Y-88753100D02*
X115644200Y-85418800D01*
%TO.N,/BareMinAtmel328P/PC1-A1*%
X135261000Y-93033000D02*
X132480800Y-90252800D01*
X146336600Y-93033000D02*
X135261000Y-93033000D01*
X123810400Y-78872500D02*
X123810400Y-79702200D01*
X148549500Y-91921800D02*
X147447800Y-91921800D01*
X147447800Y-91921800D02*
X146336600Y-93033000D01*
X123810400Y-79702200D02*
X123238800Y-80273800D01*
%TO.N,/BareMinAtmel328P/PC3-A3*%
X137112700Y-106662100D02*
X138811700Y-108361100D01*
X119373900Y-96579000D02*
X129457000Y-106662100D01*
X114287900Y-80121500D02*
X115480700Y-78928700D01*
X114287900Y-91493000D02*
X114287900Y-80121500D01*
X119373900Y-96579000D02*
X119371700Y-96581200D01*
X119373900Y-96579000D02*
X114287900Y-91493000D01*
X138811700Y-108361100D02*
X145626200Y-108361100D01*
X129457000Y-106662100D02*
X137112700Y-106662100D01*
%TO.N,/BareMinAtmel328P/PC0-A0*%
X148549500Y-94461800D02*
X147447800Y-94461800D01*
X146343500Y-95566100D02*
X136722200Y-95566100D01*
X136722200Y-95566100D02*
X135965600Y-94809500D01*
X147447800Y-94461800D02*
X146343500Y-95566100D01*
%TO.N,Net-(Q1-Pad3)*%
X134999500Y-73418300D02*
X134999500Y-73418000D01*
D30*
X134999000Y-70868000D02*
X134999000Y-70018000D01*
D29*
X134999000Y-70868000D02*
X134999500Y-70867500D01*
D30*
X136586000Y-79343600D02*
X136586000Y-75004600D01*
X134999000Y-73418000D02*
X134999000Y-70868000D01*
X136586000Y-75004600D02*
X135792500Y-74211300D01*
X135792500Y-74211300D02*
X134999000Y-73418000D01*
D29*
X134999500Y-70867500D02*
X134999500Y-70018000D01*
X135792500Y-74211300D02*
X134999500Y-73418300D01*
%TO.N,/BareMinAtmel328P/PB1-D9*%
X139816200Y-69602300D02*
X138296000Y-68082100D01*
X120755359Y-77447162D02*
X120751621Y-77450900D01*
X117030700Y-78648200D02*
X117030700Y-79386600D01*
X117030700Y-79386600D02*
X114690600Y-81726700D01*
X129438700Y-105750200D02*
X141422200Y-105750200D01*
X120751621Y-77450900D02*
X118228000Y-77450900D01*
X141422200Y-105750200D02*
X143162100Y-107490100D01*
X138296000Y-68082100D02*
X124869900Y-68082100D01*
X118228000Y-77450900D02*
X117030700Y-78648200D01*
X119130400Y-95677600D02*
X119366100Y-95677600D01*
X119366100Y-95677600D02*
X129438700Y-105750200D01*
X123515900Y-75376526D02*
X121445264Y-77447162D01*
X121445264Y-77447162D02*
X120755359Y-77447162D01*
X124869900Y-68082100D02*
X123515900Y-69436100D01*
X123515900Y-69436100D02*
X123515900Y-75376526D01*
X114690600Y-81726700D02*
X114690600Y-91237800D01*
X114690600Y-91237800D02*
X119130400Y-95677600D01*
%TO.N,/BareMinAtmel328P/PD2-D2*%
X138441100Y-89915900D02*
X136130400Y-87605200D01*
X140929500Y-89381800D02*
X139827800Y-89381800D01*
X139293700Y-89915900D02*
X138441100Y-89915900D01*
X139827800Y-89381800D02*
X139293700Y-89915900D01*
%TO.N,Net-(U2-XTAL2{slash}PB7)*%
X148865400Y-108431800D02*
X146547800Y-108431800D01*
X146547800Y-108431800D02*
X142737800Y-104621800D01*
X154187000Y-113753400D02*
X148865400Y-108431800D01*
X140929500Y-104621800D02*
X142031200Y-104621800D01*
X142737800Y-104621800D02*
X142031200Y-104621800D01*
X156104800Y-118178000D02*
X154187000Y-116260200D01*
X154187000Y-116260200D02*
X154187000Y-114014800D01*
X154187000Y-114014800D02*
X154187000Y-113753400D01*
%TO.N,Net-(U3-OSC1)*%
X156129700Y-108923600D02*
X157633100Y-108923600D01*
X157633100Y-108923600D02*
X162712000Y-114002500D01*
%TO.N,/BufferedADC/ADCIN1*%
X155241600Y-100762400D02*
X128625600Y-100762400D01*
X156814400Y-102335200D02*
X155241600Y-100762400D01*
%TO.N,/BufferedADC/ADCIN4*%
X165380600Y-70454100D02*
X165380600Y-78423500D01*
X157756900Y-62830400D02*
X165380600Y-70454100D01*
X157846100Y-84016900D02*
X156814400Y-82985200D01*
X148181600Y-62830400D02*
X157756900Y-62830400D01*
X165380600Y-78423500D02*
X159787200Y-84016900D01*
X159787200Y-84016900D02*
X157846100Y-84016900D01*
%TO.N,/BufferedADC/ADCIN2*%
X151218400Y-103428100D02*
X128236200Y-103428100D01*
%TO.N,/BufferedADC/ADCIN3*%
X144812300Y-98222900D02*
X138470000Y-98222900D01*
X153190300Y-89058900D02*
X153190300Y-91389000D01*
X153190300Y-91389000D02*
X148847500Y-95731800D01*
X147303400Y-95731800D02*
X144812300Y-98222900D01*
X138200200Y-98492700D02*
X122796700Y-98492700D01*
X155792700Y-88413500D02*
X153835700Y-88413500D01*
X156814400Y-89435200D02*
X155792700Y-88413500D01*
X122796700Y-98492700D02*
X119361100Y-95057100D01*
X148847500Y-95731800D02*
X147303400Y-95731800D01*
X138470000Y-98222900D02*
X138200200Y-98492700D01*
X153835700Y-88413500D02*
X153190300Y-89058900D01*
D30*
%TO.N,Net-(J1-Pin_1)*%
X157148000Y-72977000D02*
X157148000Y-71872800D01*
X138915000Y-79554700D02*
X150570000Y-79554700D01*
X136586000Y-81883600D02*
X138915000Y-79554700D01*
X150570000Y-79554700D02*
X157148000Y-72977000D01*
D29*
%TO.N,Net-(J2-Pin_2)*%
X156487500Y-93672100D02*
X154274400Y-95885200D01*
X170699000Y-93672100D02*
X156487500Y-93672100D01*
%TO.N,Net-(J2-Pin_3)*%
X155971300Y-91132100D02*
X154274400Y-89435200D01*
X170699000Y-91132100D02*
X155971300Y-91132100D01*
%TO.N,Net-(J2-Pin_4)*%
X173078192Y-80029700D02*
X174359700Y-81311208D01*
X169047700Y-80029700D02*
X173078192Y-80029700D01*
X154274400Y-82985200D02*
X155744100Y-84454900D01*
X155744100Y-84454900D02*
X164622500Y-84454900D01*
X174359700Y-84931400D02*
X170699000Y-88592100D01*
X164622500Y-84454900D02*
X169047700Y-80029700D01*
X174359700Y-81311208D02*
X174359700Y-84931400D01*
%TO.N,Net-(J2-Pin_1)*%
X155318800Y-103379600D02*
X154274400Y-102335200D01*
X170699000Y-96212100D02*
X169297300Y-96212100D01*
X169297300Y-96212100D02*
X162129800Y-103379600D01*
X162129800Y-103379600D02*
X155318800Y-103379600D01*
%TO.N,Net-(U3-~{RESET})*%
X138316000Y-83200100D02*
X138308300Y-83192400D01*
X143503600Y-83200100D02*
X138316000Y-83200100D01*
%TD*%
M02*
