%TF.GenerationSoftware,KiCad,Pcbnew,8.0.1-rc1*%
%TF.CreationDate,2024-06-22T18:23:22-07:00*%
%TF.ProjectId,AMS - CANBus Sensor - Pressure,414d5320-2d20-4434-914e-427573205365,rev?*%
%TF.SameCoordinates,Original*%
%TF.FileFunction,Legend,Bot*%
%TF.FilePolarity,Positive*%
%FSLAX46Y46*%
G04 Gerber Fmt 4.6, Leading zero omitted, Abs format (unit mm)*
G04 Created by KiCad (PCBNEW 8.0.1-rc1) date 2024-06-22 18:23:22*
%MOMM*%
%LPD*%
G01*
G04 APERTURE LIST*
G04 Aperture macros list*
%AMRoundRect*
0 Rectangle with rounded corners*
0 $1 Rounding radius*
0 $2 $3 $4 $5 $6 $7 $8 $9 X,Y pos of 4 corners*
0 Add a 4 corners polygon primitive as box body*
4,1,4,$2,$3,$4,$5,$6,$7,$8,$9,$2,$3,0*
0 Add four circle primitives for the rounded corners*
1,1,$1+$1,$2,$3*
1,1,$1+$1,$4,$5*
1,1,$1+$1,$6,$7*
1,1,$1+$1,$8,$9*
0 Add four rect primitives between the rounded corners*
20,1,$1+$1,$2,$3,$4,$5,0*
20,1,$1+$1,$4,$5,$6,$7,0*
20,1,$1+$1,$6,$7,$8,$9,0*
20,1,$1+$1,$8,$9,$2,$3,0*%
G04 Aperture macros list end*
%ADD10C,0.150000*%
%ADD11C,0.254000*%
%ADD12C,0.120000*%
%ADD13C,0.200000*%
%ADD14C,1.440000*%
%ADD15C,1.100000*%
%ADD16R,2.200000X2.200000*%
%ADD17C,2.200000*%
%ADD18C,1.600000*%
%ADD19O,1.600000X1.600000*%
%ADD20R,1.700000X1.700000*%
%ADD21O,1.700000X1.700000*%
%ADD22C,2.400000*%
%ADD23R,1.600000X1.600000*%
%ADD24R,1.920000X1.920000*%
%ADD25C,1.920000*%
%ADD26C,1.500000*%
%ADD27R,1.500000X1.500000*%
%ADD28RoundRect,0.250000X0.400000X0.625000X-0.400000X0.625000X-0.400000X-0.625000X0.400000X-0.625000X0*%
%ADD29RoundRect,0.250000X-0.412500X-0.650000X0.412500X-0.650000X0.412500X0.650000X-0.412500X0.650000X0*%
%ADD30RoundRect,0.150000X0.825000X0.150000X-0.825000X0.150000X-0.825000X-0.150000X0.825000X-0.150000X0*%
%ADD31RoundRect,0.250000X-0.625000X0.400000X-0.625000X-0.400000X0.625000X-0.400000X0.625000X0.400000X0*%
%ADD32RoundRect,0.250000X0.412500X0.650000X-0.412500X0.650000X-0.412500X-0.650000X0.412500X-0.650000X0*%
%ADD33RoundRect,0.150000X0.875000X0.150000X-0.875000X0.150000X-0.875000X-0.150000X0.875000X-0.150000X0*%
%ADD34R,0.650000X1.525000*%
%ADD35RoundRect,0.250000X0.625000X-0.400000X0.625000X0.400000X-0.625000X0.400000X-0.625000X-0.400000X0*%
%ADD36R,1.000000X0.550000*%
G04 APERTURE END LIST*
D10*
X127551166Y-93323519D02*
X127884499Y-92847328D01*
X128122594Y-93323519D02*
X128122594Y-92323519D01*
X128122594Y-92323519D02*
X127741642Y-92323519D01*
X127741642Y-92323519D02*
X127646404Y-92371138D01*
X127646404Y-92371138D02*
X127598785Y-92418757D01*
X127598785Y-92418757D02*
X127551166Y-92513995D01*
X127551166Y-92513995D02*
X127551166Y-92656852D01*
X127551166Y-92656852D02*
X127598785Y-92752090D01*
X127598785Y-92752090D02*
X127646404Y-92799709D01*
X127646404Y-92799709D02*
X127741642Y-92847328D01*
X127741642Y-92847328D02*
X128122594Y-92847328D01*
X126979737Y-92752090D02*
X127074975Y-92704471D01*
X127074975Y-92704471D02*
X127122594Y-92656852D01*
X127122594Y-92656852D02*
X127170213Y-92561614D01*
X127170213Y-92561614D02*
X127170213Y-92513995D01*
X127170213Y-92513995D02*
X127122594Y-92418757D01*
X127122594Y-92418757D02*
X127074975Y-92371138D01*
X127074975Y-92371138D02*
X126979737Y-92323519D01*
X126979737Y-92323519D02*
X126789261Y-92323519D01*
X126789261Y-92323519D02*
X126694023Y-92371138D01*
X126694023Y-92371138D02*
X126646404Y-92418757D01*
X126646404Y-92418757D02*
X126598785Y-92513995D01*
X126598785Y-92513995D02*
X126598785Y-92561614D01*
X126598785Y-92561614D02*
X126646404Y-92656852D01*
X126646404Y-92656852D02*
X126694023Y-92704471D01*
X126694023Y-92704471D02*
X126789261Y-92752090D01*
X126789261Y-92752090D02*
X126979737Y-92752090D01*
X126979737Y-92752090D02*
X127074975Y-92799709D01*
X127074975Y-92799709D02*
X127122594Y-92847328D01*
X127122594Y-92847328D02*
X127170213Y-92942566D01*
X127170213Y-92942566D02*
X127170213Y-93133042D01*
X127170213Y-93133042D02*
X127122594Y-93228280D01*
X127122594Y-93228280D02*
X127074975Y-93275900D01*
X127074975Y-93275900D02*
X126979737Y-93323519D01*
X126979737Y-93323519D02*
X126789261Y-93323519D01*
X126789261Y-93323519D02*
X126694023Y-93275900D01*
X126694023Y-93275900D02*
X126646404Y-93228280D01*
X126646404Y-93228280D02*
X126598785Y-93133042D01*
X126598785Y-93133042D02*
X126598785Y-92942566D01*
X126598785Y-92942566D02*
X126646404Y-92847328D01*
X126646404Y-92847328D02*
X126694023Y-92799709D01*
X126694023Y-92799709D02*
X126789261Y-92752090D01*
X152423012Y-114428797D02*
X152470631Y-114476417D01*
X152470631Y-114476417D02*
X152613488Y-114524036D01*
X152613488Y-114524036D02*
X152708726Y-114524036D01*
X152708726Y-114524036D02*
X152851583Y-114476417D01*
X152851583Y-114476417D02*
X152946821Y-114381178D01*
X152946821Y-114381178D02*
X152994440Y-114285940D01*
X152994440Y-114285940D02*
X153042059Y-114095464D01*
X153042059Y-114095464D02*
X153042059Y-113952607D01*
X153042059Y-113952607D02*
X152994440Y-113762131D01*
X152994440Y-113762131D02*
X152946821Y-113666893D01*
X152946821Y-113666893D02*
X152851583Y-113571655D01*
X152851583Y-113571655D02*
X152708726Y-113524036D01*
X152708726Y-113524036D02*
X152613488Y-113524036D01*
X152613488Y-113524036D02*
X152470631Y-113571655D01*
X152470631Y-113571655D02*
X152423012Y-113619274D01*
X152042059Y-113619274D02*
X151994440Y-113571655D01*
X151994440Y-113571655D02*
X151899202Y-113524036D01*
X151899202Y-113524036D02*
X151661107Y-113524036D01*
X151661107Y-113524036D02*
X151565869Y-113571655D01*
X151565869Y-113571655D02*
X151518250Y-113619274D01*
X151518250Y-113619274D02*
X151470631Y-113714512D01*
X151470631Y-113714512D02*
X151470631Y-113809750D01*
X151470631Y-113809750D02*
X151518250Y-113952607D01*
X151518250Y-113952607D02*
X152089678Y-114524036D01*
X152089678Y-114524036D02*
X151470631Y-114524036D01*
X166355704Y-68320819D02*
X166355704Y-69130342D01*
X166355704Y-69130342D02*
X166308085Y-69225580D01*
X166308085Y-69225580D02*
X166260466Y-69273200D01*
X166260466Y-69273200D02*
X166165228Y-69320819D01*
X166165228Y-69320819D02*
X165974752Y-69320819D01*
X165974752Y-69320819D02*
X165879514Y-69273200D01*
X165879514Y-69273200D02*
X165831895Y-69225580D01*
X165831895Y-69225580D02*
X165784276Y-69130342D01*
X165784276Y-69130342D02*
X165784276Y-68320819D01*
X164879514Y-68654152D02*
X164879514Y-69320819D01*
X165117609Y-68273200D02*
X165355704Y-68987485D01*
X165355704Y-68987485D02*
X164736657Y-68987485D01*
X115678657Y-101524619D02*
X116011990Y-101048428D01*
X116250085Y-101524619D02*
X116250085Y-100524619D01*
X116250085Y-100524619D02*
X115869133Y-100524619D01*
X115869133Y-100524619D02*
X115773895Y-100572238D01*
X115773895Y-100572238D02*
X115726276Y-100619857D01*
X115726276Y-100619857D02*
X115678657Y-100715095D01*
X115678657Y-100715095D02*
X115678657Y-100857952D01*
X115678657Y-100857952D02*
X115726276Y-100953190D01*
X115726276Y-100953190D02*
X115773895Y-101000809D01*
X115773895Y-101000809D02*
X115869133Y-101048428D01*
X115869133Y-101048428D02*
X116250085Y-101048428D01*
X114726276Y-101524619D02*
X115297704Y-101524619D01*
X115011990Y-101524619D02*
X115011990Y-100524619D01*
X115011990Y-100524619D02*
X115107228Y-100667476D01*
X115107228Y-100667476D02*
X115202466Y-100762714D01*
X115202466Y-100762714D02*
X115297704Y-100810333D01*
X113869133Y-100857952D02*
X113869133Y-101524619D01*
X114107228Y-100477000D02*
X114345323Y-101191285D01*
X114345323Y-101191285D02*
X113726276Y-101191285D01*
X129980966Y-79764119D02*
X130314299Y-79287928D01*
X130552394Y-79764119D02*
X130552394Y-78764119D01*
X130552394Y-78764119D02*
X130171442Y-78764119D01*
X130171442Y-78764119D02*
X130076204Y-78811738D01*
X130076204Y-78811738D02*
X130028585Y-78859357D01*
X130028585Y-78859357D02*
X129980966Y-78954595D01*
X129980966Y-78954595D02*
X129980966Y-79097452D01*
X129980966Y-79097452D02*
X130028585Y-79192690D01*
X130028585Y-79192690D02*
X130076204Y-79240309D01*
X130076204Y-79240309D02*
X130171442Y-79287928D01*
X130171442Y-79287928D02*
X130552394Y-79287928D01*
X129028585Y-79764119D02*
X129600013Y-79764119D01*
X129314299Y-79764119D02*
X129314299Y-78764119D01*
X129314299Y-78764119D02*
X129409537Y-78906976D01*
X129409537Y-78906976D02*
X129504775Y-79002214D01*
X129504775Y-79002214D02*
X129600013Y-79049833D01*
X130731219Y-111295633D02*
X130255028Y-110962300D01*
X130731219Y-110724205D02*
X129731219Y-110724205D01*
X129731219Y-110724205D02*
X129731219Y-111105157D01*
X129731219Y-111105157D02*
X129778838Y-111200395D01*
X129778838Y-111200395D02*
X129826457Y-111248014D01*
X129826457Y-111248014D02*
X129921695Y-111295633D01*
X129921695Y-111295633D02*
X130064552Y-111295633D01*
X130064552Y-111295633D02*
X130159790Y-111248014D01*
X130159790Y-111248014D02*
X130207409Y-111200395D01*
X130207409Y-111200395D02*
X130255028Y-111105157D01*
X130255028Y-111105157D02*
X130255028Y-110724205D01*
X130064552Y-112152776D02*
X130731219Y-112152776D01*
X129683600Y-111914681D02*
X130397885Y-111676586D01*
X130397885Y-111676586D02*
X130397885Y-112295633D01*
X164900820Y-114346879D02*
X164948439Y-114394499D01*
X164948439Y-114394499D02*
X165091296Y-114442118D01*
X165091296Y-114442118D02*
X165186534Y-114442118D01*
X165186534Y-114442118D02*
X165329391Y-114394499D01*
X165329391Y-114394499D02*
X165424629Y-114299260D01*
X165424629Y-114299260D02*
X165472248Y-114204022D01*
X165472248Y-114204022D02*
X165519867Y-114013546D01*
X165519867Y-114013546D02*
X165519867Y-113870689D01*
X165519867Y-113870689D02*
X165472248Y-113680213D01*
X165472248Y-113680213D02*
X165424629Y-113584975D01*
X165424629Y-113584975D02*
X165329391Y-113489737D01*
X165329391Y-113489737D02*
X165186534Y-113442118D01*
X165186534Y-113442118D02*
X165091296Y-113442118D01*
X165091296Y-113442118D02*
X164948439Y-113489737D01*
X164948439Y-113489737D02*
X164900820Y-113537356D01*
X164043677Y-113775451D02*
X164043677Y-114442118D01*
X164281772Y-113394499D02*
X164519867Y-114108784D01*
X164519867Y-114108784D02*
X163900820Y-114108784D01*
X147567004Y-62941819D02*
X147567004Y-63751342D01*
X147567004Y-63751342D02*
X147519385Y-63846580D01*
X147519385Y-63846580D02*
X147471766Y-63894200D01*
X147471766Y-63894200D02*
X147376528Y-63941819D01*
X147376528Y-63941819D02*
X147186052Y-63941819D01*
X147186052Y-63941819D02*
X147090814Y-63894200D01*
X147090814Y-63894200D02*
X147043195Y-63846580D01*
X147043195Y-63846580D02*
X146995576Y-63751342D01*
X146995576Y-63751342D02*
X146995576Y-62941819D01*
X146614623Y-62941819D02*
X145995576Y-62941819D01*
X145995576Y-62941819D02*
X146328909Y-63322771D01*
X146328909Y-63322771D02*
X146186052Y-63322771D01*
X146186052Y-63322771D02*
X146090814Y-63370390D01*
X146090814Y-63370390D02*
X146043195Y-63418009D01*
X146043195Y-63418009D02*
X145995576Y-63513247D01*
X145995576Y-63513247D02*
X145995576Y-63751342D01*
X145995576Y-63751342D02*
X146043195Y-63846580D01*
X146043195Y-63846580D02*
X146090814Y-63894200D01*
X146090814Y-63894200D02*
X146186052Y-63941819D01*
X146186052Y-63941819D02*
X146471766Y-63941819D01*
X146471766Y-63941819D02*
X146567004Y-63894200D01*
X146567004Y-63894200D02*
X146614623Y-63846580D01*
D11*
X129597618Y-103013537D02*
X128327618Y-103013537D01*
X129476665Y-104344014D02*
X129537142Y-104283538D01*
X129537142Y-104283538D02*
X129597618Y-104102109D01*
X129597618Y-104102109D02*
X129597618Y-103981157D01*
X129597618Y-103981157D02*
X129537142Y-103799728D01*
X129537142Y-103799728D02*
X129416189Y-103678776D01*
X129416189Y-103678776D02*
X129295237Y-103618299D01*
X129295237Y-103618299D02*
X129053332Y-103557823D01*
X129053332Y-103557823D02*
X128871903Y-103557823D01*
X128871903Y-103557823D02*
X128629999Y-103618299D01*
X128629999Y-103618299D02*
X128509046Y-103678776D01*
X128509046Y-103678776D02*
X128388094Y-103799728D01*
X128388094Y-103799728D02*
X128327618Y-103981157D01*
X128327618Y-103981157D02*
X128327618Y-104102109D01*
X128327618Y-104102109D02*
X128388094Y-104283538D01*
X128388094Y-104283538D02*
X128448570Y-104344014D01*
X128448570Y-104827823D02*
X128388094Y-104888299D01*
X128388094Y-104888299D02*
X128327618Y-105009252D01*
X128327618Y-105009252D02*
X128327618Y-105311633D01*
X128327618Y-105311633D02*
X128388094Y-105432585D01*
X128388094Y-105432585D02*
X128448570Y-105493061D01*
X128448570Y-105493061D02*
X128569522Y-105553538D01*
X128569522Y-105553538D02*
X128690475Y-105553538D01*
X128690475Y-105553538D02*
X128871903Y-105493061D01*
X128871903Y-105493061D02*
X129597618Y-104767347D01*
X129597618Y-104767347D02*
X129597618Y-105553538D01*
D10*
X146977819Y-85480133D02*
X146501628Y-85146800D01*
X146977819Y-84908705D02*
X145977819Y-84908705D01*
X145977819Y-84908705D02*
X145977819Y-85289657D01*
X145977819Y-85289657D02*
X146025438Y-85384895D01*
X146025438Y-85384895D02*
X146073057Y-85432514D01*
X146073057Y-85432514D02*
X146168295Y-85480133D01*
X146168295Y-85480133D02*
X146311152Y-85480133D01*
X146311152Y-85480133D02*
X146406390Y-85432514D01*
X146406390Y-85432514D02*
X146454009Y-85384895D01*
X146454009Y-85384895D02*
X146501628Y-85289657D01*
X146501628Y-85289657D02*
X146501628Y-84908705D01*
X145977819Y-86384895D02*
X145977819Y-85908705D01*
X145977819Y-85908705D02*
X146454009Y-85861086D01*
X146454009Y-85861086D02*
X146406390Y-85908705D01*
X146406390Y-85908705D02*
X146358771Y-86003943D01*
X146358771Y-86003943D02*
X146358771Y-86242038D01*
X146358771Y-86242038D02*
X146406390Y-86337276D01*
X146406390Y-86337276D02*
X146454009Y-86384895D01*
X146454009Y-86384895D02*
X146549247Y-86432514D01*
X146549247Y-86432514D02*
X146787342Y-86432514D01*
X146787342Y-86432514D02*
X146882580Y-86384895D01*
X146882580Y-86384895D02*
X146930200Y-86337276D01*
X146930200Y-86337276D02*
X146977819Y-86242038D01*
X146977819Y-86242038D02*
X146977819Y-86003943D01*
X146977819Y-86003943D02*
X146930200Y-85908705D01*
X146930200Y-85908705D02*
X146882580Y-85861086D01*
X134607819Y-90532033D02*
X134131628Y-90198700D01*
X134607819Y-89960605D02*
X133607819Y-89960605D01*
X133607819Y-89960605D02*
X133607819Y-90341557D01*
X133607819Y-90341557D02*
X133655438Y-90436795D01*
X133655438Y-90436795D02*
X133703057Y-90484414D01*
X133703057Y-90484414D02*
X133798295Y-90532033D01*
X133798295Y-90532033D02*
X133941152Y-90532033D01*
X133941152Y-90532033D02*
X134036390Y-90484414D01*
X134036390Y-90484414D02*
X134084009Y-90436795D01*
X134084009Y-90436795D02*
X134131628Y-90341557D01*
X134131628Y-90341557D02*
X134131628Y-89960605D01*
X133607819Y-90865367D02*
X133607819Y-91484414D01*
X133607819Y-91484414D02*
X133988771Y-91151081D01*
X133988771Y-91151081D02*
X133988771Y-91293938D01*
X133988771Y-91293938D02*
X134036390Y-91389176D01*
X134036390Y-91389176D02*
X134084009Y-91436795D01*
X134084009Y-91436795D02*
X134179247Y-91484414D01*
X134179247Y-91484414D02*
X134417342Y-91484414D01*
X134417342Y-91484414D02*
X134512580Y-91436795D01*
X134512580Y-91436795D02*
X134560200Y-91389176D01*
X134560200Y-91389176D02*
X134607819Y-91293938D01*
X134607819Y-91293938D02*
X134607819Y-91008224D01*
X134607819Y-91008224D02*
X134560200Y-90912986D01*
X134560200Y-90912986D02*
X134512580Y-90865367D01*
X137354254Y-115871040D02*
X137401873Y-115918660D01*
X137401873Y-115918660D02*
X137544730Y-115966279D01*
X137544730Y-115966279D02*
X137639968Y-115966279D01*
X137639968Y-115966279D02*
X137782825Y-115918660D01*
X137782825Y-115918660D02*
X137878063Y-115823421D01*
X137878063Y-115823421D02*
X137925682Y-115728183D01*
X137925682Y-115728183D02*
X137973301Y-115537707D01*
X137973301Y-115537707D02*
X137973301Y-115394850D01*
X137973301Y-115394850D02*
X137925682Y-115204374D01*
X137925682Y-115204374D02*
X137878063Y-115109136D01*
X137878063Y-115109136D02*
X137782825Y-115013898D01*
X137782825Y-115013898D02*
X137639968Y-114966279D01*
X137639968Y-114966279D02*
X137544730Y-114966279D01*
X137544730Y-114966279D02*
X137401873Y-115013898D01*
X137401873Y-115013898D02*
X137354254Y-115061517D01*
X136401873Y-115966279D02*
X136973301Y-115966279D01*
X136687587Y-115966279D02*
X136687587Y-114966279D01*
X136687587Y-114966279D02*
X136782825Y-115109136D01*
X136782825Y-115109136D02*
X136878063Y-115204374D01*
X136878063Y-115204374D02*
X136973301Y-115251993D01*
X143630419Y-100892333D02*
X143154228Y-100559000D01*
X143630419Y-100320905D02*
X142630419Y-100320905D01*
X142630419Y-100320905D02*
X142630419Y-100701857D01*
X142630419Y-100701857D02*
X142678038Y-100797095D01*
X142678038Y-100797095D02*
X142725657Y-100844714D01*
X142725657Y-100844714D02*
X142820895Y-100892333D01*
X142820895Y-100892333D02*
X142963752Y-100892333D01*
X142963752Y-100892333D02*
X143058990Y-100844714D01*
X143058990Y-100844714D02*
X143106609Y-100797095D01*
X143106609Y-100797095D02*
X143154228Y-100701857D01*
X143154228Y-100701857D02*
X143154228Y-100320905D01*
X142725657Y-101273286D02*
X142678038Y-101320905D01*
X142678038Y-101320905D02*
X142630419Y-101416143D01*
X142630419Y-101416143D02*
X142630419Y-101654238D01*
X142630419Y-101654238D02*
X142678038Y-101749476D01*
X142678038Y-101749476D02*
X142725657Y-101797095D01*
X142725657Y-101797095D02*
X142820895Y-101844714D01*
X142820895Y-101844714D02*
X142916133Y-101844714D01*
X142916133Y-101844714D02*
X143058990Y-101797095D01*
X143058990Y-101797095D02*
X143630419Y-101225667D01*
X143630419Y-101225667D02*
X143630419Y-101844714D01*
X127551562Y-96857311D02*
X127884895Y-96381120D01*
X128122990Y-96857311D02*
X128122990Y-95857311D01*
X128122990Y-95857311D02*
X127742038Y-95857311D01*
X127742038Y-95857311D02*
X127646800Y-95904930D01*
X127646800Y-95904930D02*
X127599181Y-95952549D01*
X127599181Y-95952549D02*
X127551562Y-96047787D01*
X127551562Y-96047787D02*
X127551562Y-96190644D01*
X127551562Y-96190644D02*
X127599181Y-96285882D01*
X127599181Y-96285882D02*
X127646800Y-96333501D01*
X127646800Y-96333501D02*
X127742038Y-96381120D01*
X127742038Y-96381120D02*
X128122990Y-96381120D01*
X127075371Y-96857311D02*
X126884895Y-96857311D01*
X126884895Y-96857311D02*
X126789657Y-96809692D01*
X126789657Y-96809692D02*
X126742038Y-96762072D01*
X126742038Y-96762072D02*
X126646800Y-96619215D01*
X126646800Y-96619215D02*
X126599181Y-96428739D01*
X126599181Y-96428739D02*
X126599181Y-96047787D01*
X126599181Y-96047787D02*
X126646800Y-95952549D01*
X126646800Y-95952549D02*
X126694419Y-95904930D01*
X126694419Y-95904930D02*
X126789657Y-95857311D01*
X126789657Y-95857311D02*
X126980133Y-95857311D01*
X126980133Y-95857311D02*
X127075371Y-95904930D01*
X127075371Y-95904930D02*
X127122990Y-95952549D01*
X127122990Y-95952549D02*
X127170609Y-96047787D01*
X127170609Y-96047787D02*
X127170609Y-96285882D01*
X127170609Y-96285882D02*
X127122990Y-96381120D01*
X127122990Y-96381120D02*
X127075371Y-96428739D01*
X127075371Y-96428739D02*
X126980133Y-96476358D01*
X126980133Y-96476358D02*
X126789657Y-96476358D01*
X126789657Y-96476358D02*
X126694419Y-96428739D01*
X126694419Y-96428739D02*
X126646800Y-96381120D01*
X126646800Y-96381120D02*
X126599181Y-96285882D01*
X137189838Y-106174447D02*
X137237457Y-106222067D01*
X137237457Y-106222067D02*
X137380314Y-106269686D01*
X137380314Y-106269686D02*
X137475552Y-106269686D01*
X137475552Y-106269686D02*
X137618409Y-106222067D01*
X137618409Y-106222067D02*
X137713647Y-106126828D01*
X137713647Y-106126828D02*
X137761266Y-106031590D01*
X137761266Y-106031590D02*
X137808885Y-105841114D01*
X137808885Y-105841114D02*
X137808885Y-105698257D01*
X137808885Y-105698257D02*
X137761266Y-105507781D01*
X137761266Y-105507781D02*
X137713647Y-105412543D01*
X137713647Y-105412543D02*
X137618409Y-105317305D01*
X137618409Y-105317305D02*
X137475552Y-105269686D01*
X137475552Y-105269686D02*
X137380314Y-105269686D01*
X137380314Y-105269686D02*
X137237457Y-105317305D01*
X137237457Y-105317305D02*
X137189838Y-105364924D01*
X136856504Y-105269686D02*
X136189838Y-105269686D01*
X136189838Y-105269686D02*
X136618409Y-106269686D01*
D11*
X157455189Y-78431159D02*
X157455189Y-77161159D01*
X157455189Y-77161159D02*
X157152808Y-77161159D01*
X157152808Y-77161159D02*
X156971379Y-77221635D01*
X156971379Y-77221635D02*
X156850427Y-77342587D01*
X156850427Y-77342587D02*
X156789950Y-77463540D01*
X156789950Y-77463540D02*
X156729474Y-77705444D01*
X156729474Y-77705444D02*
X156729474Y-77886873D01*
X156729474Y-77886873D02*
X156789950Y-78128778D01*
X156789950Y-78128778D02*
X156850427Y-78249730D01*
X156850427Y-78249730D02*
X156971379Y-78370683D01*
X156971379Y-78370683D02*
X157152808Y-78431159D01*
X157152808Y-78431159D02*
X157455189Y-78431159D01*
X155519950Y-78431159D02*
X156245665Y-78431159D01*
X155882808Y-78431159D02*
X155882808Y-77161159D01*
X155882808Y-77161159D02*
X156003760Y-77342587D01*
X156003760Y-77342587D02*
X156124712Y-77463540D01*
X156124712Y-77463540D02*
X156245665Y-77524016D01*
D10*
X115685106Y-105035717D02*
X116018439Y-104559526D01*
X116256534Y-105035717D02*
X116256534Y-104035717D01*
X116256534Y-104035717D02*
X115875582Y-104035717D01*
X115875582Y-104035717D02*
X115780344Y-104083336D01*
X115780344Y-104083336D02*
X115732725Y-104130955D01*
X115732725Y-104130955D02*
X115685106Y-104226193D01*
X115685106Y-104226193D02*
X115685106Y-104369050D01*
X115685106Y-104369050D02*
X115732725Y-104464288D01*
X115732725Y-104464288D02*
X115780344Y-104511907D01*
X115780344Y-104511907D02*
X115875582Y-104559526D01*
X115875582Y-104559526D02*
X116256534Y-104559526D01*
X114732725Y-105035717D02*
X115304153Y-105035717D01*
X115018439Y-105035717D02*
X115018439Y-104035717D01*
X115018439Y-104035717D02*
X115113677Y-104178574D01*
X115113677Y-104178574D02*
X115208915Y-104273812D01*
X115208915Y-104273812D02*
X115304153Y-104321431D01*
X113827963Y-104035717D02*
X114304153Y-104035717D01*
X114304153Y-104035717D02*
X114351772Y-104511907D01*
X114351772Y-104511907D02*
X114304153Y-104464288D01*
X114304153Y-104464288D02*
X114208915Y-104416669D01*
X114208915Y-104416669D02*
X113970820Y-104416669D01*
X113970820Y-104416669D02*
X113875582Y-104464288D01*
X113875582Y-104464288D02*
X113827963Y-104511907D01*
X113827963Y-104511907D02*
X113780344Y-104607145D01*
X113780344Y-104607145D02*
X113780344Y-104845240D01*
X113780344Y-104845240D02*
X113827963Y-104940478D01*
X113827963Y-104940478D02*
X113875582Y-104988098D01*
X113875582Y-104988098D02*
X113970820Y-105035717D01*
X113970820Y-105035717D02*
X114208915Y-105035717D01*
X114208915Y-105035717D02*
X114304153Y-104988098D01*
X114304153Y-104988098D02*
X114351772Y-104940478D01*
X137320266Y-100155280D02*
X137367885Y-100202900D01*
X137367885Y-100202900D02*
X137510742Y-100250519D01*
X137510742Y-100250519D02*
X137605980Y-100250519D01*
X137605980Y-100250519D02*
X137748837Y-100202900D01*
X137748837Y-100202900D02*
X137844075Y-100107661D01*
X137844075Y-100107661D02*
X137891694Y-100012423D01*
X137891694Y-100012423D02*
X137939313Y-99821947D01*
X137939313Y-99821947D02*
X137939313Y-99679090D01*
X137939313Y-99679090D02*
X137891694Y-99488614D01*
X137891694Y-99488614D02*
X137844075Y-99393376D01*
X137844075Y-99393376D02*
X137748837Y-99298138D01*
X137748837Y-99298138D02*
X137605980Y-99250519D01*
X137605980Y-99250519D02*
X137510742Y-99250519D01*
X137510742Y-99250519D02*
X137367885Y-99298138D01*
X137367885Y-99298138D02*
X137320266Y-99345757D01*
X136463123Y-99250519D02*
X136653599Y-99250519D01*
X136653599Y-99250519D02*
X136748837Y-99298138D01*
X136748837Y-99298138D02*
X136796456Y-99345757D01*
X136796456Y-99345757D02*
X136891694Y-99488614D01*
X136891694Y-99488614D02*
X136939313Y-99679090D01*
X136939313Y-99679090D02*
X136939313Y-100060042D01*
X136939313Y-100060042D02*
X136891694Y-100155280D01*
X136891694Y-100155280D02*
X136844075Y-100202900D01*
X136844075Y-100202900D02*
X136748837Y-100250519D01*
X136748837Y-100250519D02*
X136558361Y-100250519D01*
X136558361Y-100250519D02*
X136463123Y-100202900D01*
X136463123Y-100202900D02*
X136415504Y-100155280D01*
X136415504Y-100155280D02*
X136367885Y-100060042D01*
X136367885Y-100060042D02*
X136367885Y-99821947D01*
X136367885Y-99821947D02*
X136415504Y-99726709D01*
X136415504Y-99726709D02*
X136463123Y-99679090D01*
X136463123Y-99679090D02*
X136558361Y-99631471D01*
X136558361Y-99631471D02*
X136748837Y-99631471D01*
X136748837Y-99631471D02*
X136844075Y-99679090D01*
X136844075Y-99679090D02*
X136891694Y-99726709D01*
X136891694Y-99726709D02*
X136939313Y-99821947D01*
D12*
%TO.C,R8*%
X126657436Y-93778700D02*
X128111564Y-93778700D01*
X126657436Y-95598700D02*
X128111564Y-95598700D01*
%TO.C,C2*%
X156473252Y-113098300D02*
X155050748Y-113098300D01*
X156473252Y-114918300D02*
X155050748Y-114918300D01*
%TO.C,U4*%
X163643800Y-69706000D02*
X165593800Y-69706000D01*
X163643800Y-74826000D02*
X165593800Y-74826000D01*
X167543800Y-69706000D02*
X165593800Y-69706000D01*
X167543800Y-74826000D02*
X165593800Y-74826000D01*
X168293800Y-69801000D02*
X168053800Y-69471000D01*
X168533800Y-69471000D01*
X168293800Y-69801000D01*
G36*
X168293800Y-69801000D02*
G01*
X168053800Y-69471000D01*
X168533800Y-69471000D01*
X168293800Y-69801000D01*
G37*
%TO.C,R14*%
X114308736Y-101979800D02*
X115762864Y-101979800D01*
X114308736Y-103799800D02*
X115762864Y-103799800D01*
%TO.C,R1*%
X129087236Y-80219300D02*
X130541364Y-80219300D01*
X129087236Y-82039300D02*
X130541364Y-82039300D01*
%TO.C,R4*%
X131186400Y-112189364D02*
X131186400Y-110735236D01*
X133006400Y-112189364D02*
X133006400Y-110735236D01*
%TO.C,C4*%
X160428248Y-113073400D02*
X161850752Y-113073400D01*
X160428248Y-114893400D02*
X161850752Y-114893400D01*
%TO.C,U3*%
X142945100Y-64322000D02*
X146805100Y-64322000D01*
X142945100Y-64567000D02*
X142945100Y-64322000D01*
X142945100Y-75847000D02*
X142945100Y-76092000D01*
X142945100Y-76092000D02*
X146805100Y-76092000D01*
X150665100Y-64322000D02*
X146805100Y-64322000D01*
X150665100Y-64567000D02*
X150665100Y-64322000D01*
X150665100Y-75847000D02*
X150665100Y-76092000D01*
X150665100Y-76092000D02*
X146805100Y-76092000D01*
X151517600Y-64567000D02*
X151177600Y-64097000D01*
X151857600Y-64097000D01*
X151517600Y-64567000D01*
G36*
X151517600Y-64567000D02*
G01*
X151177600Y-64097000D01*
X151857600Y-64097000D01*
X151517600Y-64567000D01*
G37*
D13*
%TO.C,IC2*%
X124538300Y-102303300D02*
X124538300Y-100778300D01*
X124698300Y-102653300D02*
X133348300Y-102653300D01*
X124698300Y-105853300D02*
X124698300Y-102653300D01*
X133348300Y-102653300D02*
X133348300Y-105853300D01*
X133348300Y-105853300D02*
X124698300Y-105853300D01*
D12*
%TO.C,R5*%
X143793000Y-84919736D02*
X143793000Y-86373864D01*
X145613000Y-84919736D02*
X145613000Y-86373864D01*
%TO.C,R3*%
X135063000Y-91425764D02*
X135063000Y-89971636D01*
X136883000Y-91425764D02*
X136883000Y-89971636D01*
%TO.C,C1*%
X136443348Y-116289700D02*
X137865852Y-116289700D01*
X136443348Y-118109700D02*
X137865852Y-118109700D01*
%TO.C,R2*%
X144085600Y-101786064D02*
X144085600Y-100331936D01*
X145905600Y-101786064D02*
X145905600Y-100331936D01*
%TO.C,R9*%
X126657436Y-97068700D02*
X128111564Y-97068700D01*
X126657436Y-98888700D02*
X128111564Y-98888700D01*
%TO.C,C7*%
X136446048Y-103205600D02*
X137868552Y-103205600D01*
X136446048Y-105025600D02*
X137868552Y-105025600D01*
D13*
%TO.C,D1*%
X156231400Y-74823600D02*
X156431400Y-74823600D01*
X156231400Y-76823600D02*
X156231400Y-74823600D01*
X156431400Y-74823600D02*
X156431400Y-76823600D01*
X156431400Y-76823600D02*
X156231400Y-76823600D01*
X156781400Y-74648600D02*
X157781400Y-74648600D01*
D12*
%TO.C,R15*%
X114308736Y-105269800D02*
X115762864Y-105269800D01*
X114308736Y-107089800D02*
X115762864Y-107089800D01*
%TO.C,C6*%
X136442348Y-100735700D02*
X137864852Y-100735700D01*
X136442348Y-102555700D02*
X137864852Y-102555700D01*
%TD*%
%LPC*%
D14*
%TO.C,RV2*%
X154274400Y-95885200D03*
X156814400Y-95885200D03*
X159354400Y-95885200D03*
%TD*%
D15*
%TO.C,J6*%
X173258000Y-84022300D03*
X173258000Y-81482300D03*
D16*
X170718000Y-84022300D03*
D17*
X170718000Y-81482300D03*
%TD*%
D14*
%TO.C,RV3*%
X154274400Y-89435200D03*
X156814400Y-89435200D03*
X159354400Y-89435200D03*
%TD*%
D18*
%TO.C,R7*%
X139116100Y-58260700D03*
D19*
X141656100Y-58260700D03*
%TD*%
D16*
%TO.C,J1*%
X157148000Y-71872800D03*
D17*
X157148000Y-69332800D03*
X157148000Y-66792800D03*
X157148000Y-64252800D03*
%TD*%
D18*
%TO.C,NTC1*%
X135965600Y-94809500D03*
D19*
X135965600Y-97349500D03*
%TD*%
D20*
%TO.C,J3*%
X146254600Y-120744200D03*
D21*
X143714600Y-120744200D03*
X141174600Y-120744200D03*
X138634600Y-120744200D03*
X136094600Y-120744200D03*
X133554600Y-120744200D03*
%TD*%
D14*
%TO.C,RV1*%
X154274400Y-102335200D03*
X156814400Y-102335200D03*
X159354400Y-102335200D03*
%TD*%
D22*
%TO.C,U5*%
X134999500Y-70018000D03*
X134999500Y-73418000D03*
X125079500Y-70018000D03*
X125079500Y-73418000D03*
%TD*%
D18*
%TO.C,R6*%
X166799100Y-76611000D03*
D19*
X164259100Y-76611000D03*
%TD*%
D20*
%TO.C,Powerboard1*%
X130976300Y-92602600D03*
D21*
X130976300Y-90062600D03*
X130976300Y-87522600D03*
%TD*%
D23*
%TO.C,U2*%
X140929500Y-81761800D03*
D19*
X140929500Y-84301800D03*
X140929500Y-86841800D03*
X140929500Y-89381800D03*
X140929500Y-91921800D03*
X140929500Y-94461800D03*
X140929500Y-97001800D03*
X140929500Y-99541800D03*
X140929500Y-102081800D03*
X140929500Y-104621800D03*
X140929500Y-107161800D03*
X140929500Y-109701800D03*
X140929500Y-112241800D03*
X140929500Y-114781800D03*
X148549500Y-114781800D03*
X148549500Y-112241800D03*
X148549500Y-109701800D03*
X148549500Y-107161800D03*
X148549500Y-104621800D03*
X148549500Y-102081800D03*
X148549500Y-99541800D03*
X148549500Y-97001800D03*
X148549500Y-94461800D03*
X148549500Y-91921800D03*
X148549500Y-89381800D03*
X148549500Y-86841800D03*
X148549500Y-84301800D03*
X148549500Y-81761800D03*
%TD*%
D20*
%TO.C,J5*%
X139049600Y-61738500D03*
D21*
X141589600Y-61738500D03*
%TD*%
D24*
%TO.C,Q1*%
X136586000Y-84423600D03*
D25*
X136586000Y-81883600D03*
X136586000Y-79343600D03*
%TD*%
D16*
%TO.C,J2*%
X170699000Y-96212100D03*
D17*
X170699000Y-93672100D03*
X170699000Y-91132100D03*
X170699000Y-88592100D03*
%TD*%
D14*
%TO.C,RV4*%
X154274400Y-82985200D03*
X156814400Y-82985200D03*
X159354400Y-82985200D03*
%TD*%
D26*
%TO.C,Y2*%
X156129700Y-108923600D03*
X161009700Y-108923600D03*
%TD*%
D27*
%TO.C,Reset1*%
X135385300Y-113752500D03*
D26*
X128885300Y-113752500D03*
X135385300Y-109252500D03*
X128885300Y-109252500D03*
%TD*%
%TO.C,Y1*%
X156104800Y-118178000D03*
X160984800Y-118178000D03*
%TD*%
D22*
%TO.C,U1*%
X179270500Y-101766200D03*
X179270500Y-105166200D03*
X169350500Y-101766200D03*
X169350500Y-105166200D03*
%TD*%
D28*
%TO.C,R8*%
X128934500Y-94688700D03*
X125834500Y-94688700D03*
%TD*%
D29*
%TO.C,C2*%
X154199500Y-114008300D03*
X157324500Y-114008300D03*
%TD*%
D30*
%TO.C,U4*%
X168068800Y-70361000D03*
X168068800Y-71631000D03*
X168068800Y-72901000D03*
X168068800Y-74171000D03*
X163118800Y-74171000D03*
X163118800Y-72901000D03*
X163118800Y-71631000D03*
X163118800Y-70361000D03*
%TD*%
D28*
%TO.C,R14*%
X116585800Y-102889800D03*
X113485800Y-102889800D03*
%TD*%
%TO.C,R1*%
X131364300Y-81129300D03*
X128264300Y-81129300D03*
%TD*%
D31*
%TO.C,R4*%
X132096400Y-109912300D03*
X132096400Y-113012300D03*
%TD*%
D32*
%TO.C,C4*%
X162702000Y-113983400D03*
X159577000Y-113983400D03*
%TD*%
D33*
%TO.C,U3*%
X151455100Y-65127000D03*
X151455100Y-66397000D03*
X151455100Y-67667000D03*
X151455100Y-68937000D03*
X151455100Y-70207000D03*
X151455100Y-71477000D03*
X151455100Y-72747000D03*
X151455100Y-74017000D03*
X151455100Y-75287000D03*
X142155100Y-75287000D03*
X142155100Y-74017000D03*
X142155100Y-72747000D03*
X142155100Y-71477000D03*
X142155100Y-70207000D03*
X142155100Y-68937000D03*
X142155100Y-67667000D03*
X142155100Y-66397000D03*
X142155100Y-65127000D03*
%TD*%
D34*
%TO.C,IC2*%
X125213300Y-101541300D03*
X126483300Y-101541300D03*
X127753300Y-101541300D03*
X129023300Y-101541300D03*
X130293300Y-101541300D03*
X131563300Y-101541300D03*
X132833300Y-101541300D03*
X132833300Y-106965300D03*
X131563300Y-106965300D03*
X130293300Y-106965300D03*
X129023300Y-106965300D03*
X127753300Y-106965300D03*
X126483300Y-106965300D03*
X125213300Y-106965300D03*
%TD*%
D35*
%TO.C,R5*%
X144703000Y-87196800D03*
X144703000Y-84096800D03*
%TD*%
D31*
%TO.C,R3*%
X135973000Y-89148700D03*
X135973000Y-92248700D03*
%TD*%
D32*
%TO.C,C1*%
X138717100Y-117199700D03*
X135592100Y-117199700D03*
%TD*%
D31*
%TO.C,R2*%
X144995600Y-99509000D03*
X144995600Y-102609000D03*
%TD*%
D28*
%TO.C,R9*%
X128934500Y-97978700D03*
X125834500Y-97978700D03*
%TD*%
D32*
%TO.C,C7*%
X138719800Y-104115600D03*
X135594800Y-104115600D03*
%TD*%
D36*
%TO.C,D1*%
X157281400Y-75173600D03*
X157281400Y-76473600D03*
X155381400Y-75823600D03*
%TD*%
D28*
%TO.C,R15*%
X116585800Y-106179800D03*
X113485800Y-106179800D03*
%TD*%
D32*
%TO.C,C6*%
X138716100Y-101645700D03*
X135591100Y-101645700D03*
%TD*%
%LPD*%
M02*
