%TF.GenerationSoftware,KiCad,Pcbnew,8.0.1-rc1*%
%TF.CreationDate,2024-06-22T18:23:22-07:00*%
%TF.ProjectId,AMS - CANBus Sensor - Pressure,414d5320-2d20-4434-914e-427573205365,rev?*%
%TF.SameCoordinates,Original*%
%TF.FileFunction,Soldermask,Bot*%
%TF.FilePolarity,Negative*%
%FSLAX46Y46*%
G04 Gerber Fmt 4.6, Leading zero omitted, Abs format (unit mm)*
G04 Created by KiCad (PCBNEW 8.0.1-rc1) date 2024-06-22 18:23:22*
%MOMM*%
%LPD*%
G01*
G04 APERTURE LIST*
G04 Aperture macros list*
%AMRoundRect*
0 Rectangle with rounded corners*
0 $1 Rounding radius*
0 $2 $3 $4 $5 $6 $7 $8 $9 X,Y pos of 4 corners*
0 Add a 4 corners polygon primitive as box body*
4,1,4,$2,$3,$4,$5,$6,$7,$8,$9,$2,$3,0*
0 Add four circle primitives for the rounded corners*
1,1,$1+$1,$2,$3*
1,1,$1+$1,$4,$5*
1,1,$1+$1,$6,$7*
1,1,$1+$1,$8,$9*
0 Add four rect primitives between the rounded corners*
20,1,$1+$1,$2,$3,$4,$5,0*
20,1,$1+$1,$4,$5,$6,$7,0*
20,1,$1+$1,$6,$7,$8,$9,0*
20,1,$1+$1,$8,$9,$2,$3,0*%
G04 Aperture macros list end*
%ADD10C,1.440000*%
%ADD11C,1.100000*%
%ADD12R,2.200000X2.200000*%
%ADD13C,2.200000*%
%ADD14C,1.600000*%
%ADD15O,1.600000X1.600000*%
%ADD16R,1.700000X1.700000*%
%ADD17O,1.700000X1.700000*%
%ADD18C,2.400000*%
%ADD19R,1.600000X1.600000*%
%ADD20R,1.920000X1.920000*%
%ADD21C,1.920000*%
%ADD22C,1.500000*%
%ADD23R,1.500000X1.500000*%
%ADD24RoundRect,0.250000X0.400000X0.625000X-0.400000X0.625000X-0.400000X-0.625000X0.400000X-0.625000X0*%
%ADD25RoundRect,0.250000X-0.412500X-0.650000X0.412500X-0.650000X0.412500X0.650000X-0.412500X0.650000X0*%
%ADD26RoundRect,0.150000X0.825000X0.150000X-0.825000X0.150000X-0.825000X-0.150000X0.825000X-0.150000X0*%
%ADD27RoundRect,0.250000X-0.625000X0.400000X-0.625000X-0.400000X0.625000X-0.400000X0.625000X0.400000X0*%
%ADD28RoundRect,0.250000X0.412500X0.650000X-0.412500X0.650000X-0.412500X-0.650000X0.412500X-0.650000X0*%
%ADD29RoundRect,0.150000X0.875000X0.150000X-0.875000X0.150000X-0.875000X-0.150000X0.875000X-0.150000X0*%
%ADD30R,0.650000X1.525000*%
%ADD31RoundRect,0.250000X0.625000X-0.400000X0.625000X0.400000X-0.625000X0.400000X-0.625000X-0.400000X0*%
%ADD32R,1.000000X0.550000*%
G04 APERTURE END LIST*
D10*
%TO.C,RV2*%
X154274400Y-95885200D03*
X156814400Y-95885200D03*
X159354400Y-95885200D03*
%TD*%
D11*
%TO.C,J6*%
X173258000Y-84022300D03*
X173258000Y-81482300D03*
D12*
X170718000Y-84022300D03*
D13*
X170718000Y-81482300D03*
%TD*%
D10*
%TO.C,RV3*%
X154274400Y-89435200D03*
X156814400Y-89435200D03*
X159354400Y-89435200D03*
%TD*%
D14*
%TO.C,R7*%
X139116100Y-58260700D03*
D15*
X141656100Y-58260700D03*
%TD*%
D12*
%TO.C,J1*%
X157148000Y-71872800D03*
D13*
X157148000Y-69332800D03*
X157148000Y-66792800D03*
X157148000Y-64252800D03*
%TD*%
D14*
%TO.C,NTC1*%
X135965600Y-94809500D03*
D15*
X135965600Y-97349500D03*
%TD*%
D16*
%TO.C,J3*%
X146254600Y-120744200D03*
D17*
X143714600Y-120744200D03*
X141174600Y-120744200D03*
X138634600Y-120744200D03*
X136094600Y-120744200D03*
X133554600Y-120744200D03*
%TD*%
D10*
%TO.C,RV1*%
X154274400Y-102335200D03*
X156814400Y-102335200D03*
X159354400Y-102335200D03*
%TD*%
D18*
%TO.C,U5*%
X134999500Y-70018000D03*
X134999500Y-73418000D03*
X125079500Y-70018000D03*
X125079500Y-73418000D03*
%TD*%
D14*
%TO.C,R6*%
X166799100Y-76611000D03*
D15*
X164259100Y-76611000D03*
%TD*%
D16*
%TO.C,Powerboard1*%
X130976300Y-92602600D03*
D17*
X130976300Y-90062600D03*
X130976300Y-87522600D03*
%TD*%
D19*
%TO.C,U2*%
X140929500Y-81761800D03*
D15*
X140929500Y-84301800D03*
X140929500Y-86841800D03*
X140929500Y-89381800D03*
X140929500Y-91921800D03*
X140929500Y-94461800D03*
X140929500Y-97001800D03*
X140929500Y-99541800D03*
X140929500Y-102081800D03*
X140929500Y-104621800D03*
X140929500Y-107161800D03*
X140929500Y-109701800D03*
X140929500Y-112241800D03*
X140929500Y-114781800D03*
X148549500Y-114781800D03*
X148549500Y-112241800D03*
X148549500Y-109701800D03*
X148549500Y-107161800D03*
X148549500Y-104621800D03*
X148549500Y-102081800D03*
X148549500Y-99541800D03*
X148549500Y-97001800D03*
X148549500Y-94461800D03*
X148549500Y-91921800D03*
X148549500Y-89381800D03*
X148549500Y-86841800D03*
X148549500Y-84301800D03*
X148549500Y-81761800D03*
%TD*%
D16*
%TO.C,J5*%
X139049600Y-61738500D03*
D17*
X141589600Y-61738500D03*
%TD*%
D20*
%TO.C,Q1*%
X136586000Y-84423600D03*
D21*
X136586000Y-81883600D03*
X136586000Y-79343600D03*
%TD*%
D12*
%TO.C,J2*%
X170699000Y-96212100D03*
D13*
X170699000Y-93672100D03*
X170699000Y-91132100D03*
X170699000Y-88592100D03*
%TD*%
D10*
%TO.C,RV4*%
X154274400Y-82985200D03*
X156814400Y-82985200D03*
X159354400Y-82985200D03*
%TD*%
D22*
%TO.C,Y2*%
X156129700Y-108923600D03*
X161009700Y-108923600D03*
%TD*%
D23*
%TO.C,Reset1*%
X135385300Y-113752500D03*
D22*
X128885300Y-113752500D03*
X135385300Y-109252500D03*
X128885300Y-109252500D03*
%TD*%
%TO.C,Y1*%
X156104800Y-118178000D03*
X160984800Y-118178000D03*
%TD*%
D18*
%TO.C,U1*%
X179270500Y-101766200D03*
X179270500Y-105166200D03*
X169350500Y-101766200D03*
X169350500Y-105166200D03*
%TD*%
D24*
%TO.C,R8*%
X128934500Y-94688700D03*
X125834500Y-94688700D03*
%TD*%
D25*
%TO.C,C2*%
X154199500Y-114008300D03*
X157324500Y-114008300D03*
%TD*%
D26*
%TO.C,U4*%
X168068800Y-70361000D03*
X168068800Y-71631000D03*
X168068800Y-72901000D03*
X168068800Y-74171000D03*
X163118800Y-74171000D03*
X163118800Y-72901000D03*
X163118800Y-71631000D03*
X163118800Y-70361000D03*
%TD*%
D24*
%TO.C,R14*%
X116585800Y-102889800D03*
X113485800Y-102889800D03*
%TD*%
%TO.C,R1*%
X131364300Y-81129300D03*
X128264300Y-81129300D03*
%TD*%
D27*
%TO.C,R4*%
X132096400Y-109912300D03*
X132096400Y-113012300D03*
%TD*%
D28*
%TO.C,C4*%
X162702000Y-113983400D03*
X159577000Y-113983400D03*
%TD*%
D29*
%TO.C,U3*%
X151455100Y-65127000D03*
X151455100Y-66397000D03*
X151455100Y-67667000D03*
X151455100Y-68937000D03*
X151455100Y-70207000D03*
X151455100Y-71477000D03*
X151455100Y-72747000D03*
X151455100Y-74017000D03*
X151455100Y-75287000D03*
X142155100Y-75287000D03*
X142155100Y-74017000D03*
X142155100Y-72747000D03*
X142155100Y-71477000D03*
X142155100Y-70207000D03*
X142155100Y-68937000D03*
X142155100Y-67667000D03*
X142155100Y-66397000D03*
X142155100Y-65127000D03*
%TD*%
D30*
%TO.C,IC2*%
X125213300Y-101541300D03*
X126483300Y-101541300D03*
X127753300Y-101541300D03*
X129023300Y-101541300D03*
X130293300Y-101541300D03*
X131563300Y-101541300D03*
X132833300Y-101541300D03*
X132833300Y-106965300D03*
X131563300Y-106965300D03*
X130293300Y-106965300D03*
X129023300Y-106965300D03*
X127753300Y-106965300D03*
X126483300Y-106965300D03*
X125213300Y-106965300D03*
%TD*%
D31*
%TO.C,R5*%
X144703000Y-87196800D03*
X144703000Y-84096800D03*
%TD*%
D27*
%TO.C,R3*%
X135973000Y-89148700D03*
X135973000Y-92248700D03*
%TD*%
D28*
%TO.C,C1*%
X138717100Y-117199700D03*
X135592100Y-117199700D03*
%TD*%
D27*
%TO.C,R2*%
X144995600Y-99509000D03*
X144995600Y-102609000D03*
%TD*%
D24*
%TO.C,R9*%
X128934500Y-97978700D03*
X125834500Y-97978700D03*
%TD*%
D28*
%TO.C,C7*%
X138719800Y-104115600D03*
X135594800Y-104115600D03*
%TD*%
D32*
%TO.C,D1*%
X157281400Y-75173600D03*
X157281400Y-76473600D03*
X155381400Y-75823600D03*
%TD*%
D24*
%TO.C,R15*%
X116585800Y-106179800D03*
X113485800Y-106179800D03*
%TD*%
D28*
%TO.C,C6*%
X138716100Y-101645700D03*
X135591100Y-101645700D03*
%TD*%
M02*
