M48
INCH
T1C0.0118
T2C0.0315
T3C0.0394
T4C0.0433
T5C0.0504
T6C0.0630
%
G90
G05
T1
X4.5904Y-4.2497
X4.8996Y-3.477
X4.9246Y-3.1707
X4.9624Y-3.4453
X5.0076Y-3.882
X5.0375Y-3.9166
X5.0498Y-3.1941
X5.1664Y-4.2613
X5.1913Y-4.0968
X5.2024Y-3.7791
X5.3645Y-3.8894
X5.3666Y-3.4489
X5.4205Y-4.4138
X5.4406Y-3.3239
X5.4435Y-3.2595
X5.4726Y-3.4415
X5.4887Y-3.5469
X5.4969Y-3.6881
X5.5449Y-2.7391
X5.6193Y-3.0451
X5.6331Y-4.2632
X5.656Y-3.5507
X5.6753Y-3.3741
X5.7344Y-2.8743
X5.7623Y-3.0477
X5.81Y-2.7391
X5.8986Y-4.0666
X6.1136Y-2.8659
X6.3682Y-2.7983
X6.6675Y-2.8456
T2
X5.353Y-3.7327
X5.353Y-3.8327
X5.477Y-2.2937
X5.5484Y-3.219
X5.5484Y-3.319
X5.5484Y-3.419
X5.5484Y-3.519
X5.5484Y-3.619
X5.5484Y-3.719
X5.5484Y-3.819
X5.5484Y-3.919
X5.5484Y-4.019
X5.5484Y-4.119
X5.5484Y-4.219
X5.5484Y-4.319
X5.5484Y-4.419
X5.5484Y-4.519
X5.577Y-2.2937
X5.8484Y-3.219
X5.8484Y-3.319
X5.8484Y-3.419
X5.8484Y-3.519
X5.8484Y-3.619
X5.8484Y-3.719
X5.8484Y-3.819
X5.8484Y-3.919
X5.8484Y-4.019
X5.8484Y-4.119
X5.8484Y-4.219
X5.8484Y-4.319
X5.8484Y-4.419
X5.8484Y-4.519
X6.0738Y-3.2671
X6.0738Y-3.5211
X6.0738Y-3.775
X6.0738Y-4.0289
X6.1459Y-4.6527
X6.1468Y-4.2883
X6.1738Y-3.2671
X6.1738Y-3.5211
X6.1738Y-3.775
X6.1738Y-4.0289
X6.2738Y-3.2671
X6.2738Y-3.5211
X6.2738Y-3.775
X6.2738Y-4.0289
X6.338Y-4.6527
X6.339Y-4.2883
X6.4669Y-3.0162
X6.5669Y-3.0162
T3
X5.0742Y-4.3013
X5.0742Y-4.4784
X5.1565Y-3.4458
X5.1565Y-3.5458
X5.1565Y-3.6458
X5.2581Y-4.7537
X5.3301Y-4.3013
X5.3301Y-4.4784
X5.3581Y-4.7537
X5.4581Y-4.7537
X5.4744Y-2.4306
X5.5581Y-4.7537
X5.5744Y-2.4306
X5.6581Y-4.7537
X5.7581Y-4.7537
T4
X6.1869Y-2.5296
X6.1869Y-2.6296
X6.1869Y-2.7296
X6.1869Y-2.8296
X6.7204Y-3.4879
X6.7204Y-3.5879
X6.7204Y-3.6879
X6.7204Y-3.7879
X6.7212Y-3.208
X6.7212Y-3.308
T5
X5.3774Y-3.1238
X5.3774Y-3.2238
X5.3774Y-3.3238
T6
X4.9244Y-2.7566
X4.9244Y-2.8905
X5.3149Y-2.7566
X5.3149Y-2.8905
X6.6673Y-4.0065
X6.6673Y-4.1404
X7.0579Y-4.0065
X7.0579Y-4.1404
M30
