%TF.GenerationSoftware,KiCad,Pcbnew,8.0.1-rc1*%
%TF.CreationDate,2024-06-22T18:23:22-07:00*%
%TF.ProjectId,AMS - CANBus Sensor - Pressure,414d5320-2d20-4434-914e-427573205365,rev?*%
%TF.SameCoordinates,Original*%
%TF.FileFunction,Paste,Bot*%
%TF.FilePolarity,Positive*%
%FSLAX46Y46*%
G04 Gerber Fmt 4.6, Leading zero omitted, Abs format (unit mm)*
G04 Created by KiCad (PCBNEW 8.0.1-rc1) date 2024-06-22 18:23:22*
%MOMM*%
%LPD*%
G01*
G04 APERTURE LIST*
G04 Aperture macros list*
%AMRoundRect*
0 Rectangle with rounded corners*
0 $1 Rounding radius*
0 $2 $3 $4 $5 $6 $7 $8 $9 X,Y pos of 4 corners*
0 Add a 4 corners polygon primitive as box body*
4,1,4,$2,$3,$4,$5,$6,$7,$8,$9,$2,$3,0*
0 Add four circle primitives for the rounded corners*
1,1,$1+$1,$2,$3*
1,1,$1+$1,$4,$5*
1,1,$1+$1,$6,$7*
1,1,$1+$1,$8,$9*
0 Add four rect primitives between the rounded corners*
20,1,$1+$1,$2,$3,$4,$5,0*
20,1,$1+$1,$4,$5,$6,$7,0*
20,1,$1+$1,$6,$7,$8,$9,0*
20,1,$1+$1,$8,$9,$2,$3,0*%
G04 Aperture macros list end*
%ADD10RoundRect,0.250000X0.400000X0.625000X-0.400000X0.625000X-0.400000X-0.625000X0.400000X-0.625000X0*%
%ADD11RoundRect,0.250000X-0.412500X-0.650000X0.412500X-0.650000X0.412500X0.650000X-0.412500X0.650000X0*%
%ADD12RoundRect,0.150000X0.825000X0.150000X-0.825000X0.150000X-0.825000X-0.150000X0.825000X-0.150000X0*%
%ADD13RoundRect,0.250000X-0.625000X0.400000X-0.625000X-0.400000X0.625000X-0.400000X0.625000X0.400000X0*%
%ADD14RoundRect,0.250000X0.412500X0.650000X-0.412500X0.650000X-0.412500X-0.650000X0.412500X-0.650000X0*%
%ADD15RoundRect,0.150000X0.875000X0.150000X-0.875000X0.150000X-0.875000X-0.150000X0.875000X-0.150000X0*%
%ADD16R,0.650000X1.525000*%
%ADD17RoundRect,0.250000X0.625000X-0.400000X0.625000X0.400000X-0.625000X0.400000X-0.625000X-0.400000X0*%
%ADD18R,1.000000X0.550000*%
G04 APERTURE END LIST*
D10*
%TO.C,R8*%
X128934500Y-94688700D03*
X125834500Y-94688700D03*
%TD*%
D11*
%TO.C,C2*%
X154199500Y-114008300D03*
X157324500Y-114008300D03*
%TD*%
D12*
%TO.C,U4*%
X168068800Y-70361000D03*
X168068800Y-71631000D03*
X168068800Y-72901000D03*
X168068800Y-74171000D03*
X163118800Y-74171000D03*
X163118800Y-72901000D03*
X163118800Y-71631000D03*
X163118800Y-70361000D03*
%TD*%
D10*
%TO.C,R14*%
X116585800Y-102889800D03*
X113485800Y-102889800D03*
%TD*%
%TO.C,R1*%
X131364300Y-81129300D03*
X128264300Y-81129300D03*
%TD*%
D13*
%TO.C,R4*%
X132096400Y-109912300D03*
X132096400Y-113012300D03*
%TD*%
D14*
%TO.C,C4*%
X162702000Y-113983400D03*
X159577000Y-113983400D03*
%TD*%
D15*
%TO.C,U3*%
X151455100Y-65127000D03*
X151455100Y-66397000D03*
X151455100Y-67667000D03*
X151455100Y-68937000D03*
X151455100Y-70207000D03*
X151455100Y-71477000D03*
X151455100Y-72747000D03*
X151455100Y-74017000D03*
X151455100Y-75287000D03*
X142155100Y-75287000D03*
X142155100Y-74017000D03*
X142155100Y-72747000D03*
X142155100Y-71477000D03*
X142155100Y-70207000D03*
X142155100Y-68937000D03*
X142155100Y-67667000D03*
X142155100Y-66397000D03*
X142155100Y-65127000D03*
%TD*%
D16*
%TO.C,IC2*%
X125213300Y-101541300D03*
X126483300Y-101541300D03*
X127753300Y-101541300D03*
X129023300Y-101541300D03*
X130293300Y-101541300D03*
X131563300Y-101541300D03*
X132833300Y-101541300D03*
X132833300Y-106965300D03*
X131563300Y-106965300D03*
X130293300Y-106965300D03*
X129023300Y-106965300D03*
X127753300Y-106965300D03*
X126483300Y-106965300D03*
X125213300Y-106965300D03*
%TD*%
D17*
%TO.C,R5*%
X144703000Y-87196800D03*
X144703000Y-84096800D03*
%TD*%
D13*
%TO.C,R3*%
X135973000Y-89148700D03*
X135973000Y-92248700D03*
%TD*%
D14*
%TO.C,C1*%
X138717100Y-117199700D03*
X135592100Y-117199700D03*
%TD*%
D13*
%TO.C,R2*%
X144995600Y-99509000D03*
X144995600Y-102609000D03*
%TD*%
D10*
%TO.C,R9*%
X128934500Y-97978700D03*
X125834500Y-97978700D03*
%TD*%
D14*
%TO.C,C7*%
X138719800Y-104115600D03*
X135594800Y-104115600D03*
%TD*%
D18*
%TO.C,D1*%
X157281400Y-75173600D03*
X157281400Y-76473600D03*
X155381400Y-75823600D03*
%TD*%
D10*
%TO.C,R15*%
X116585800Y-106179800D03*
X113485800Y-106179800D03*
%TD*%
D14*
%TO.C,C6*%
X138716100Y-101645700D03*
X135591100Y-101645700D03*
%TD*%
M02*
