%TF.GenerationSoftware,KiCad,Pcbnew,8.0.1-rc1*%
%TF.CreationDate,2024-06-02T11:35:05-07:00*%
%TF.ProjectId,AMS - CANBus Sensor - Temperature,414d5320-2d20-4434-914e-427573205365,rev?*%
%TF.SameCoordinates,Original*%
%TF.FileFunction,Legend,Top*%
%TF.FilePolarity,Positive*%
%FSLAX46Y46*%
G04 Gerber Fmt 4.6, Leading zero omitted, Abs format (unit mm)*
G04 Created by KiCad (PCBNEW 8.0.1-rc1) date 2024-06-02 11:35:05*
%MOMM*%
%LPD*%
G01*
G04 APERTURE LIST*
G04 Aperture macros list*
%AMRoundRect*
0 Rectangle with rounded corners*
0 $1 Rounding radius*
0 $2 $3 $4 $5 $6 $7 $8 $9 X,Y pos of 4 corners*
0 Add a 4 corners polygon primitive as box body*
4,1,4,$2,$3,$4,$5,$6,$7,$8,$9,$2,$3,0*
0 Add four circle primitives for the rounded corners*
1,1,$1+$1,$2,$3*
1,1,$1+$1,$4,$5*
1,1,$1+$1,$6,$7*
1,1,$1+$1,$8,$9*
0 Add four rect primitives between the rounded corners*
20,1,$1+$1,$2,$3,$4,$5,0*
20,1,$1+$1,$4,$5,$6,$7,0*
20,1,$1+$1,$6,$7,$8,$9,0*
20,1,$1+$1,$8,$9,$2,$3,0*%
G04 Aperture macros list end*
%ADD10C,0.100000*%
%ADD11C,0.150000*%
%ADD12C,0.254000*%
%ADD13C,0.120000*%
%ADD14C,0.200000*%
%ADD15R,1.700000X1.700000*%
%ADD16O,1.700000X1.700000*%
%ADD17RoundRect,0.250000X-0.650000X0.412500X-0.650000X-0.412500X0.650000X-0.412500X0.650000X0.412500X0*%
%ADD18RoundRect,0.250000X-0.625000X0.400000X-0.625000X-0.400000X0.625000X-0.400000X0.625000X0.400000X0*%
%ADD19C,1.600000*%
%ADD20O,1.600000X1.600000*%
%ADD21R,2.200000X2.200000*%
%ADD22C,2.200000*%
%ADD23C,2.400000*%
%ADD24R,1.000000X3.150000*%
%ADD25R,1.600000X1.600000*%
%ADD26R,1.920000X1.920000*%
%ADD27C,1.920000*%
%ADD28RoundRect,0.250000X-0.400000X-0.625000X0.400000X-0.625000X0.400000X0.625000X-0.400000X0.625000X0*%
%ADD29C,1.500000*%
%ADD30R,1.500000X1.500000*%
%ADD31RoundRect,0.250000X0.412500X0.650000X-0.412500X0.650000X-0.412500X-0.650000X0.412500X-0.650000X0*%
G04 APERTURE END LIST*
D10*
X155749714Y-100377371D02*
X150642036Y-100377371D01*
X166617600Y-99298800D02*
X161702271Y-99302071D01*
X150017978Y-89374742D02*
X160694177Y-89374742D01*
X161702271Y-99302071D02*
X155749714Y-100377371D01*
X160694177Y-89374742D02*
X166580800Y-87577900D01*
X141410522Y-77749485D02*
X141362903Y-77844723D01*
X141362903Y-77844723D02*
X141362903Y-77987580D01*
X141362903Y-77987580D02*
X141410522Y-78130437D01*
X141410522Y-78130437D02*
X141505760Y-78225675D01*
X141505760Y-78225675D02*
X141600998Y-78273294D01*
X141600998Y-78273294D02*
X141791474Y-78320913D01*
X141791474Y-78320913D02*
X141934331Y-78320913D01*
X141934331Y-78320913D02*
X142124807Y-78273294D01*
X142124807Y-78273294D02*
X142220045Y-78225675D01*
X142220045Y-78225675D02*
X142315284Y-78130437D01*
X142315284Y-78130437D02*
X142362903Y-77987580D01*
X142362903Y-77987580D02*
X142362903Y-77892342D01*
X142362903Y-77892342D02*
X142315284Y-77749485D01*
X142315284Y-77749485D02*
X142267664Y-77701866D01*
X142267664Y-77701866D02*
X141934331Y-77701866D01*
X141934331Y-77701866D02*
X141934331Y-77892342D01*
X142362903Y-77273294D02*
X141362903Y-77273294D01*
X141362903Y-77273294D02*
X142362903Y-76701866D01*
X142362903Y-76701866D02*
X141362903Y-76701866D01*
X142362903Y-76225675D02*
X141362903Y-76225675D01*
X141362903Y-76225675D02*
X141362903Y-75987580D01*
X141362903Y-75987580D02*
X141410522Y-75844723D01*
X141410522Y-75844723D02*
X141505760Y-75749485D01*
X141505760Y-75749485D02*
X141600998Y-75701866D01*
X141600998Y-75701866D02*
X141791474Y-75654247D01*
X141791474Y-75654247D02*
X141934331Y-75654247D01*
X141934331Y-75654247D02*
X142124807Y-75701866D01*
X142124807Y-75701866D02*
X142220045Y-75749485D01*
X142220045Y-75749485D02*
X142315284Y-75844723D01*
X142315284Y-75844723D02*
X142362903Y-75987580D01*
X142362903Y-75987580D02*
X142362903Y-76225675D01*
X144448247Y-62516753D02*
X144448247Y-63088181D01*
X144448247Y-62802467D02*
X143448247Y-62802467D01*
X143448247Y-62802467D02*
X143591104Y-62897705D01*
X143591104Y-62897705D02*
X143686342Y-62992943D01*
X143686342Y-62992943D02*
X143733961Y-63088181D01*
X143543485Y-62135800D02*
X143495866Y-62088181D01*
X143495866Y-62088181D02*
X143448247Y-61992943D01*
X143448247Y-61992943D02*
X143448247Y-61754848D01*
X143448247Y-61754848D02*
X143495866Y-61659610D01*
X143495866Y-61659610D02*
X143543485Y-61611991D01*
X143543485Y-61611991D02*
X143638723Y-61564372D01*
X143638723Y-61564372D02*
X143733961Y-61564372D01*
X143733961Y-61564372D02*
X143876818Y-61611991D01*
X143876818Y-61611991D02*
X144448247Y-62183419D01*
X144448247Y-62183419D02*
X144448247Y-61564372D01*
X143448247Y-60945324D02*
X143448247Y-60850086D01*
X143448247Y-60850086D02*
X143495866Y-60754848D01*
X143495866Y-60754848D02*
X143543485Y-60707229D01*
X143543485Y-60707229D02*
X143638723Y-60659610D01*
X143638723Y-60659610D02*
X143829199Y-60611991D01*
X143829199Y-60611991D02*
X144067294Y-60611991D01*
X144067294Y-60611991D02*
X144257770Y-60659610D01*
X144257770Y-60659610D02*
X144353008Y-60707229D01*
X144353008Y-60707229D02*
X144400628Y-60754848D01*
X144400628Y-60754848D02*
X144448247Y-60850086D01*
X144448247Y-60850086D02*
X144448247Y-60945324D01*
X144448247Y-60945324D02*
X144400628Y-61040562D01*
X144400628Y-61040562D02*
X144353008Y-61088181D01*
X144353008Y-61088181D02*
X144257770Y-61135800D01*
X144257770Y-61135800D02*
X144067294Y-61183419D01*
X144067294Y-61183419D02*
X143829199Y-61183419D01*
X143829199Y-61183419D02*
X143638723Y-61135800D01*
X143638723Y-61135800D02*
X143543485Y-61088181D01*
X143543485Y-61088181D02*
X143495866Y-61040562D01*
X143495866Y-61040562D02*
X143448247Y-60945324D01*
X143448247Y-59231038D02*
X143448247Y-59040562D01*
X143448247Y-59040562D02*
X143495866Y-58945324D01*
X143495866Y-58945324D02*
X143591104Y-58850086D01*
X143591104Y-58850086D02*
X143781580Y-58802467D01*
X143781580Y-58802467D02*
X144114913Y-58802467D01*
X144114913Y-58802467D02*
X144305389Y-58850086D01*
X144305389Y-58850086D02*
X144400628Y-58945324D01*
X144400628Y-58945324D02*
X144448247Y-59040562D01*
X144448247Y-59040562D02*
X144448247Y-59231038D01*
X144448247Y-59231038D02*
X144400628Y-59326276D01*
X144400628Y-59326276D02*
X144305389Y-59421514D01*
X144305389Y-59421514D02*
X144114913Y-59469133D01*
X144114913Y-59469133D02*
X143781580Y-59469133D01*
X143781580Y-59469133D02*
X143591104Y-59421514D01*
X143591104Y-59421514D02*
X143495866Y-59326276D01*
X143495866Y-59326276D02*
X143448247Y-59231038D01*
X144448247Y-58373895D02*
X143448247Y-58373895D01*
X144448247Y-57945324D02*
X143924437Y-57945324D01*
X143924437Y-57945324D02*
X143829199Y-57992943D01*
X143829199Y-57992943D02*
X143781580Y-58088181D01*
X143781580Y-58088181D02*
X143781580Y-58231038D01*
X143781580Y-58231038D02*
X143829199Y-58326276D01*
X143829199Y-58326276D02*
X143876818Y-58373895D01*
X144448247Y-57469133D02*
X143781580Y-57469133D01*
X143876818Y-57469133D02*
X143829199Y-57421514D01*
X143829199Y-57421514D02*
X143781580Y-57326276D01*
X143781580Y-57326276D02*
X143781580Y-57183419D01*
X143781580Y-57183419D02*
X143829199Y-57088181D01*
X143829199Y-57088181D02*
X143924437Y-57040562D01*
X143924437Y-57040562D02*
X144448247Y-57040562D01*
X143924437Y-57040562D02*
X143829199Y-56992943D01*
X143829199Y-56992943D02*
X143781580Y-56897705D01*
X143781580Y-56897705D02*
X143781580Y-56754848D01*
X143781580Y-56754848D02*
X143829199Y-56659609D01*
X143829199Y-56659609D02*
X143924437Y-56611990D01*
X143924437Y-56611990D02*
X144448247Y-56611990D01*
X145962952Y-62469134D02*
X146010572Y-62516753D01*
X146010572Y-62516753D02*
X146058191Y-62659610D01*
X146058191Y-62659610D02*
X146058191Y-62754848D01*
X146058191Y-62754848D02*
X146010572Y-62897705D01*
X146010572Y-62897705D02*
X145915333Y-62992943D01*
X145915333Y-62992943D02*
X145820095Y-63040562D01*
X145820095Y-63040562D02*
X145629619Y-63088181D01*
X145629619Y-63088181D02*
X145486762Y-63088181D01*
X145486762Y-63088181D02*
X145296286Y-63040562D01*
X145296286Y-63040562D02*
X145201048Y-62992943D01*
X145201048Y-62992943D02*
X145105810Y-62897705D01*
X145105810Y-62897705D02*
X145058191Y-62754848D01*
X145058191Y-62754848D02*
X145058191Y-62659610D01*
X145058191Y-62659610D02*
X145105810Y-62516753D01*
X145105810Y-62516753D02*
X145153429Y-62469134D01*
X145772476Y-62088181D02*
X145772476Y-61611991D01*
X146058191Y-62183419D02*
X145058191Y-61850086D01*
X145058191Y-61850086D02*
X146058191Y-61516753D01*
X146058191Y-61183419D02*
X145058191Y-61183419D01*
X145058191Y-61183419D02*
X146058191Y-60611991D01*
X146058191Y-60611991D02*
X145058191Y-60611991D01*
X145534381Y-59040562D02*
X145582000Y-58897705D01*
X145582000Y-58897705D02*
X145629619Y-58850086D01*
X145629619Y-58850086D02*
X145724857Y-58802467D01*
X145724857Y-58802467D02*
X145867714Y-58802467D01*
X145867714Y-58802467D02*
X145962952Y-58850086D01*
X145962952Y-58850086D02*
X146010572Y-58897705D01*
X146010572Y-58897705D02*
X146058191Y-58992943D01*
X146058191Y-58992943D02*
X146058191Y-59373895D01*
X146058191Y-59373895D02*
X145058191Y-59373895D01*
X145058191Y-59373895D02*
X145058191Y-59040562D01*
X145058191Y-59040562D02*
X145105810Y-58945324D01*
X145105810Y-58945324D02*
X145153429Y-58897705D01*
X145153429Y-58897705D02*
X145248667Y-58850086D01*
X145248667Y-58850086D02*
X145343905Y-58850086D01*
X145343905Y-58850086D02*
X145439143Y-58897705D01*
X145439143Y-58897705D02*
X145486762Y-58945324D01*
X145486762Y-58945324D02*
X145534381Y-59040562D01*
X145534381Y-59040562D02*
X145534381Y-59373895D01*
X145391524Y-57945324D02*
X146058191Y-57945324D01*
X145391524Y-58373895D02*
X145915333Y-58373895D01*
X145915333Y-58373895D02*
X146010572Y-58326276D01*
X146010572Y-58326276D02*
X146058191Y-58231038D01*
X146058191Y-58231038D02*
X146058191Y-58088181D01*
X146058191Y-58088181D02*
X146010572Y-57992943D01*
X146010572Y-57992943D02*
X145962952Y-57945324D01*
X146010572Y-57516752D02*
X146058191Y-57421514D01*
X146058191Y-57421514D02*
X146058191Y-57231038D01*
X146058191Y-57231038D02*
X146010572Y-57135800D01*
X146010572Y-57135800D02*
X145915333Y-57088181D01*
X145915333Y-57088181D02*
X145867714Y-57088181D01*
X145867714Y-57088181D02*
X145772476Y-57135800D01*
X145772476Y-57135800D02*
X145724857Y-57231038D01*
X145724857Y-57231038D02*
X145724857Y-57373895D01*
X145724857Y-57373895D02*
X145677238Y-57469133D01*
X145677238Y-57469133D02*
X145582000Y-57516752D01*
X145582000Y-57516752D02*
X145534381Y-57516752D01*
X145534381Y-57516752D02*
X145439143Y-57469133D01*
X145439143Y-57469133D02*
X145391524Y-57373895D01*
X145391524Y-57373895D02*
X145391524Y-57231038D01*
X145391524Y-57231038D02*
X145439143Y-57135800D01*
X147668135Y-62469134D02*
X147191944Y-62802467D01*
X147668135Y-63040562D02*
X146668135Y-63040562D01*
X146668135Y-63040562D02*
X146668135Y-62659610D01*
X146668135Y-62659610D02*
X146715754Y-62564372D01*
X146715754Y-62564372D02*
X146763373Y-62516753D01*
X146763373Y-62516753D02*
X146858611Y-62469134D01*
X146858611Y-62469134D02*
X147001468Y-62469134D01*
X147001468Y-62469134D02*
X147096706Y-62516753D01*
X147096706Y-62516753D02*
X147144325Y-62564372D01*
X147144325Y-62564372D02*
X147191944Y-62659610D01*
X147191944Y-62659610D02*
X147191944Y-63040562D01*
X147620516Y-61659610D02*
X147668135Y-61754848D01*
X147668135Y-61754848D02*
X147668135Y-61945324D01*
X147668135Y-61945324D02*
X147620516Y-62040562D01*
X147620516Y-62040562D02*
X147525277Y-62088181D01*
X147525277Y-62088181D02*
X147144325Y-62088181D01*
X147144325Y-62088181D02*
X147049087Y-62040562D01*
X147049087Y-62040562D02*
X147001468Y-61945324D01*
X147001468Y-61945324D02*
X147001468Y-61754848D01*
X147001468Y-61754848D02*
X147049087Y-61659610D01*
X147049087Y-61659610D02*
X147144325Y-61611991D01*
X147144325Y-61611991D02*
X147239563Y-61611991D01*
X147239563Y-61611991D02*
X147334801Y-62088181D01*
X147620516Y-61231038D02*
X147668135Y-61135800D01*
X147668135Y-61135800D02*
X147668135Y-60945324D01*
X147668135Y-60945324D02*
X147620516Y-60850086D01*
X147620516Y-60850086D02*
X147525277Y-60802467D01*
X147525277Y-60802467D02*
X147477658Y-60802467D01*
X147477658Y-60802467D02*
X147382420Y-60850086D01*
X147382420Y-60850086D02*
X147334801Y-60945324D01*
X147334801Y-60945324D02*
X147334801Y-61088181D01*
X147334801Y-61088181D02*
X147287182Y-61183419D01*
X147287182Y-61183419D02*
X147191944Y-61231038D01*
X147191944Y-61231038D02*
X147144325Y-61231038D01*
X147144325Y-61231038D02*
X147049087Y-61183419D01*
X147049087Y-61183419D02*
X147001468Y-61088181D01*
X147001468Y-61088181D02*
X147001468Y-60945324D01*
X147001468Y-60945324D02*
X147049087Y-60850086D01*
X147668135Y-60373895D02*
X147001468Y-60373895D01*
X146668135Y-60373895D02*
X146715754Y-60421514D01*
X146715754Y-60421514D02*
X146763373Y-60373895D01*
X146763373Y-60373895D02*
X146715754Y-60326276D01*
X146715754Y-60326276D02*
X146668135Y-60373895D01*
X146668135Y-60373895D02*
X146763373Y-60373895D01*
X147620516Y-59945324D02*
X147668135Y-59850086D01*
X147668135Y-59850086D02*
X147668135Y-59659610D01*
X147668135Y-59659610D02*
X147620516Y-59564372D01*
X147620516Y-59564372D02*
X147525277Y-59516753D01*
X147525277Y-59516753D02*
X147477658Y-59516753D01*
X147477658Y-59516753D02*
X147382420Y-59564372D01*
X147382420Y-59564372D02*
X147334801Y-59659610D01*
X147334801Y-59659610D02*
X147334801Y-59802467D01*
X147334801Y-59802467D02*
X147287182Y-59897705D01*
X147287182Y-59897705D02*
X147191944Y-59945324D01*
X147191944Y-59945324D02*
X147144325Y-59945324D01*
X147144325Y-59945324D02*
X147049087Y-59897705D01*
X147049087Y-59897705D02*
X147001468Y-59802467D01*
X147001468Y-59802467D02*
X147001468Y-59659610D01*
X147001468Y-59659610D02*
X147049087Y-59564372D01*
X147001468Y-59231038D02*
X147001468Y-58850086D01*
X146668135Y-59088181D02*
X147525277Y-59088181D01*
X147525277Y-59088181D02*
X147620516Y-59040562D01*
X147620516Y-59040562D02*
X147668135Y-58945324D01*
X147668135Y-58945324D02*
X147668135Y-58850086D01*
X147668135Y-58373895D02*
X147620516Y-58469133D01*
X147620516Y-58469133D02*
X147572896Y-58516752D01*
X147572896Y-58516752D02*
X147477658Y-58564371D01*
X147477658Y-58564371D02*
X147191944Y-58564371D01*
X147191944Y-58564371D02*
X147096706Y-58516752D01*
X147096706Y-58516752D02*
X147049087Y-58469133D01*
X147049087Y-58469133D02*
X147001468Y-58373895D01*
X147001468Y-58373895D02*
X147001468Y-58231038D01*
X147001468Y-58231038D02*
X147049087Y-58135800D01*
X147049087Y-58135800D02*
X147096706Y-58088181D01*
X147096706Y-58088181D02*
X147191944Y-58040562D01*
X147191944Y-58040562D02*
X147477658Y-58040562D01*
X147477658Y-58040562D02*
X147572896Y-58088181D01*
X147572896Y-58088181D02*
X147620516Y-58135800D01*
X147620516Y-58135800D02*
X147668135Y-58231038D01*
X147668135Y-58231038D02*
X147668135Y-58373895D01*
X147668135Y-57611990D02*
X147001468Y-57611990D01*
X147191944Y-57611990D02*
X147096706Y-57564371D01*
X147096706Y-57564371D02*
X147049087Y-57516752D01*
X147049087Y-57516752D02*
X147001468Y-57421514D01*
X147001468Y-57421514D02*
X147001468Y-57326276D01*
X170650411Y-105212124D02*
X170317078Y-105212124D01*
X170317078Y-105735934D02*
X170317078Y-104735934D01*
X170317078Y-104735934D02*
X170793268Y-104735934D01*
X171317078Y-105735934D02*
X171221840Y-105688315D01*
X171221840Y-105688315D02*
X171174221Y-105640695D01*
X171174221Y-105640695D02*
X171126602Y-105545457D01*
X171126602Y-105545457D02*
X171126602Y-105259743D01*
X171126602Y-105259743D02*
X171174221Y-105164505D01*
X171174221Y-105164505D02*
X171221840Y-105116886D01*
X171221840Y-105116886D02*
X171317078Y-105069267D01*
X171317078Y-105069267D02*
X171459935Y-105069267D01*
X171459935Y-105069267D02*
X171555173Y-105116886D01*
X171555173Y-105116886D02*
X171602792Y-105164505D01*
X171602792Y-105164505D02*
X171650411Y-105259743D01*
X171650411Y-105259743D02*
X171650411Y-105545457D01*
X171650411Y-105545457D02*
X171602792Y-105640695D01*
X171602792Y-105640695D02*
X171555173Y-105688315D01*
X171555173Y-105688315D02*
X171459935Y-105735934D01*
X171459935Y-105735934D02*
X171317078Y-105735934D01*
X172078983Y-105735934D02*
X172078983Y-105069267D01*
X172078983Y-105259743D02*
X172126602Y-105164505D01*
X172126602Y-105164505D02*
X172174221Y-105116886D01*
X172174221Y-105116886D02*
X172269459Y-105069267D01*
X172269459Y-105069267D02*
X172364697Y-105069267D01*
X173126602Y-105688315D02*
X173031364Y-105735934D01*
X173031364Y-105735934D02*
X172840888Y-105735934D01*
X172840888Y-105735934D02*
X172745650Y-105688315D01*
X172745650Y-105688315D02*
X172698031Y-105640695D01*
X172698031Y-105640695D02*
X172650412Y-105545457D01*
X172650412Y-105545457D02*
X172650412Y-105259743D01*
X172650412Y-105259743D02*
X172698031Y-105164505D01*
X172698031Y-105164505D02*
X172745650Y-105116886D01*
X172745650Y-105116886D02*
X172840888Y-105069267D01*
X172840888Y-105069267D02*
X173031364Y-105069267D01*
X173031364Y-105069267D02*
X173126602Y-105116886D01*
X173936126Y-105688315D02*
X173840888Y-105735934D01*
X173840888Y-105735934D02*
X173650412Y-105735934D01*
X173650412Y-105735934D02*
X173555174Y-105688315D01*
X173555174Y-105688315D02*
X173507555Y-105593076D01*
X173507555Y-105593076D02*
X173507555Y-105212124D01*
X173507555Y-105212124D02*
X173555174Y-105116886D01*
X173555174Y-105116886D02*
X173650412Y-105069267D01*
X173650412Y-105069267D02*
X173840888Y-105069267D01*
X173840888Y-105069267D02*
X173936126Y-105116886D01*
X173936126Y-105116886D02*
X173983745Y-105212124D01*
X173983745Y-105212124D02*
X173983745Y-105307362D01*
X173983745Y-105307362D02*
X173507555Y-105402600D01*
X174412317Y-105354981D02*
X175174222Y-105354981D01*
X160443426Y-80017219D02*
X161062473Y-80017219D01*
X161062473Y-80017219D02*
X160729140Y-80398171D01*
X160729140Y-80398171D02*
X160871997Y-80398171D01*
X160871997Y-80398171D02*
X160967235Y-80445790D01*
X160967235Y-80445790D02*
X161014854Y-80493409D01*
X161014854Y-80493409D02*
X161062473Y-80588647D01*
X161062473Y-80588647D02*
X161062473Y-80826742D01*
X161062473Y-80826742D02*
X161014854Y-80921980D01*
X161014854Y-80921980D02*
X160967235Y-80969600D01*
X160967235Y-80969600D02*
X160871997Y-81017219D01*
X160871997Y-81017219D02*
X160586283Y-81017219D01*
X160586283Y-81017219D02*
X160491045Y-80969600D01*
X160491045Y-80969600D02*
X160443426Y-80921980D01*
X155152806Y-93548622D02*
X155200425Y-93501003D01*
X155200425Y-93501003D02*
X155295663Y-93453384D01*
X155295663Y-93453384D02*
X155533758Y-93453384D01*
X155533758Y-93453384D02*
X155628996Y-93501003D01*
X155628996Y-93501003D02*
X155676615Y-93548622D01*
X155676615Y-93548622D02*
X155724234Y-93643860D01*
X155724234Y-93643860D02*
X155724234Y-93739098D01*
X155724234Y-93739098D02*
X155676615Y-93881955D01*
X155676615Y-93881955D02*
X155105187Y-94453384D01*
X155105187Y-94453384D02*
X155724234Y-94453384D01*
X174088685Y-98044603D02*
X173755352Y-97568412D01*
X173517257Y-98044603D02*
X173517257Y-97044603D01*
X173517257Y-97044603D02*
X173898209Y-97044603D01*
X173898209Y-97044603D02*
X173993447Y-97092222D01*
X173993447Y-97092222D02*
X174041066Y-97139841D01*
X174041066Y-97139841D02*
X174088685Y-97235079D01*
X174088685Y-97235079D02*
X174088685Y-97377936D01*
X174088685Y-97377936D02*
X174041066Y-97473174D01*
X174041066Y-97473174D02*
X173993447Y-97520793D01*
X173993447Y-97520793D02*
X173898209Y-97568412D01*
X173898209Y-97568412D02*
X173517257Y-97568412D01*
X174374400Y-97044603D02*
X174945828Y-97044603D01*
X174660114Y-98044603D02*
X174660114Y-97044603D01*
X175279162Y-98044603D02*
X175279162Y-97044603D01*
X175279162Y-97044603D02*
X175517257Y-97044603D01*
X175517257Y-97044603D02*
X175660114Y-97092222D01*
X175660114Y-97092222D02*
X175755352Y-97187460D01*
X175755352Y-97187460D02*
X175802971Y-97282698D01*
X175802971Y-97282698D02*
X175850590Y-97473174D01*
X175850590Y-97473174D02*
X175850590Y-97616031D01*
X175850590Y-97616031D02*
X175802971Y-97806507D01*
X175802971Y-97806507D02*
X175755352Y-97901745D01*
X175755352Y-97901745D02*
X175660114Y-97996984D01*
X175660114Y-97996984D02*
X175517257Y-98044603D01*
X175517257Y-98044603D02*
X175279162Y-98044603D01*
X176279162Y-98044603D02*
X176279162Y-97044603D01*
X176755352Y-97377936D02*
X176755352Y-98044603D01*
X176755352Y-97473174D02*
X176802971Y-97425555D01*
X176802971Y-97425555D02*
X176898209Y-97377936D01*
X176898209Y-97377936D02*
X177041066Y-97377936D01*
X177041066Y-97377936D02*
X177136304Y-97425555D01*
X177136304Y-97425555D02*
X177183923Y-97520793D01*
X177183923Y-97520793D02*
X177183923Y-98044603D01*
X177660114Y-97663650D02*
X178422019Y-97663650D01*
X178041066Y-98044603D02*
X178041066Y-97282698D01*
X181280820Y-82618331D02*
X180804629Y-82951664D01*
X181280820Y-83189759D02*
X180280820Y-83189759D01*
X180280820Y-83189759D02*
X180280820Y-82808807D01*
X180280820Y-82808807D02*
X180328439Y-82713569D01*
X180328439Y-82713569D02*
X180376058Y-82665950D01*
X180376058Y-82665950D02*
X180471296Y-82618331D01*
X180471296Y-82618331D02*
X180614153Y-82618331D01*
X180614153Y-82618331D02*
X180709391Y-82665950D01*
X180709391Y-82665950D02*
X180757010Y-82713569D01*
X180757010Y-82713569D02*
X180804629Y-82808807D01*
X180804629Y-82808807D02*
X180804629Y-83189759D01*
X180280820Y-82332616D02*
X180280820Y-81761188D01*
X181280820Y-82046902D02*
X180280820Y-82046902D01*
X181280820Y-81427854D02*
X180280820Y-81427854D01*
X180280820Y-81427854D02*
X180280820Y-81189759D01*
X180280820Y-81189759D02*
X180328439Y-81046902D01*
X180328439Y-81046902D02*
X180423677Y-80951664D01*
X180423677Y-80951664D02*
X180518915Y-80904045D01*
X180518915Y-80904045D02*
X180709391Y-80856426D01*
X180709391Y-80856426D02*
X180852248Y-80856426D01*
X180852248Y-80856426D02*
X181042724Y-80904045D01*
X181042724Y-80904045D02*
X181137962Y-80951664D01*
X181137962Y-80951664D02*
X181233201Y-81046902D01*
X181233201Y-81046902D02*
X181280820Y-81189759D01*
X181280820Y-81189759D02*
X181280820Y-81427854D01*
X181280820Y-79904045D02*
X181280820Y-80475473D01*
X181280820Y-80189759D02*
X180280820Y-80189759D01*
X180280820Y-80189759D02*
X180423677Y-80284997D01*
X180423677Y-80284997D02*
X180518915Y-80380235D01*
X180518915Y-80380235D02*
X180566534Y-80475473D01*
X152764448Y-110291638D02*
X152812067Y-110244019D01*
X152812067Y-110244019D02*
X152907305Y-110196400D01*
X152907305Y-110196400D02*
X153145400Y-110196400D01*
X153145400Y-110196400D02*
X153240638Y-110244019D01*
X153240638Y-110244019D02*
X153288257Y-110291638D01*
X153288257Y-110291638D02*
X153335876Y-110386876D01*
X153335876Y-110386876D02*
X153335876Y-110482114D01*
X153335876Y-110482114D02*
X153288257Y-110624971D01*
X153288257Y-110624971D02*
X152716829Y-111196400D01*
X152716829Y-111196400D02*
X153335876Y-111196400D01*
X153764448Y-110815447D02*
X154526353Y-110815447D01*
X154907305Y-110196400D02*
X155526352Y-110196400D01*
X155526352Y-110196400D02*
X155193019Y-110577352D01*
X155193019Y-110577352D02*
X155335876Y-110577352D01*
X155335876Y-110577352D02*
X155431114Y-110624971D01*
X155431114Y-110624971D02*
X155478733Y-110672590D01*
X155478733Y-110672590D02*
X155526352Y-110767828D01*
X155526352Y-110767828D02*
X155526352Y-111005923D01*
X155526352Y-111005923D02*
X155478733Y-111101161D01*
X155478733Y-111101161D02*
X155431114Y-111148781D01*
X155431114Y-111148781D02*
X155335876Y-111196400D01*
X155335876Y-111196400D02*
X155050162Y-111196400D01*
X155050162Y-111196400D02*
X154954924Y-111148781D01*
X154954924Y-111148781D02*
X154907305Y-111101161D01*
X173783335Y-81406609D02*
X173450002Y-81406609D01*
X173450002Y-81930419D02*
X173450002Y-80930419D01*
X173450002Y-80930419D02*
X173926192Y-80930419D01*
X174450002Y-81930419D02*
X174354764Y-81882800D01*
X174354764Y-81882800D02*
X174307145Y-81835180D01*
X174307145Y-81835180D02*
X174259526Y-81739942D01*
X174259526Y-81739942D02*
X174259526Y-81454228D01*
X174259526Y-81454228D02*
X174307145Y-81358990D01*
X174307145Y-81358990D02*
X174354764Y-81311371D01*
X174354764Y-81311371D02*
X174450002Y-81263752D01*
X174450002Y-81263752D02*
X174592859Y-81263752D01*
X174592859Y-81263752D02*
X174688097Y-81311371D01*
X174688097Y-81311371D02*
X174735716Y-81358990D01*
X174735716Y-81358990D02*
X174783335Y-81454228D01*
X174783335Y-81454228D02*
X174783335Y-81739942D01*
X174783335Y-81739942D02*
X174735716Y-81835180D01*
X174735716Y-81835180D02*
X174688097Y-81882800D01*
X174688097Y-81882800D02*
X174592859Y-81930419D01*
X174592859Y-81930419D02*
X174450002Y-81930419D01*
X175211907Y-81930419D02*
X175211907Y-81263752D01*
X175211907Y-81454228D02*
X175259526Y-81358990D01*
X175259526Y-81358990D02*
X175307145Y-81311371D01*
X175307145Y-81311371D02*
X175402383Y-81263752D01*
X175402383Y-81263752D02*
X175497621Y-81263752D01*
X176259526Y-81882800D02*
X176164288Y-81930419D01*
X176164288Y-81930419D02*
X175973812Y-81930419D01*
X175973812Y-81930419D02*
X175878574Y-81882800D01*
X175878574Y-81882800D02*
X175830955Y-81835180D01*
X175830955Y-81835180D02*
X175783336Y-81739942D01*
X175783336Y-81739942D02*
X175783336Y-81454228D01*
X175783336Y-81454228D02*
X175830955Y-81358990D01*
X175830955Y-81358990D02*
X175878574Y-81311371D01*
X175878574Y-81311371D02*
X175973812Y-81263752D01*
X175973812Y-81263752D02*
X176164288Y-81263752D01*
X176164288Y-81263752D02*
X176259526Y-81311371D01*
X177069050Y-81882800D02*
X176973812Y-81930419D01*
X176973812Y-81930419D02*
X176783336Y-81930419D01*
X176783336Y-81930419D02*
X176688098Y-81882800D01*
X176688098Y-81882800D02*
X176640479Y-81787561D01*
X176640479Y-81787561D02*
X176640479Y-81406609D01*
X176640479Y-81406609D02*
X176688098Y-81311371D01*
X176688098Y-81311371D02*
X176783336Y-81263752D01*
X176783336Y-81263752D02*
X176973812Y-81263752D01*
X176973812Y-81263752D02*
X177069050Y-81311371D01*
X177069050Y-81311371D02*
X177116669Y-81406609D01*
X177116669Y-81406609D02*
X177116669Y-81501847D01*
X177116669Y-81501847D02*
X176640479Y-81597085D01*
X177545241Y-81549466D02*
X178307146Y-81549466D01*
X173874399Y-92883850D02*
X173541066Y-92883850D01*
X173541066Y-93407660D02*
X173541066Y-92407660D01*
X173541066Y-92407660D02*
X174017256Y-92407660D01*
X174541066Y-93407660D02*
X174445828Y-93360041D01*
X174445828Y-93360041D02*
X174398209Y-93312421D01*
X174398209Y-93312421D02*
X174350590Y-93217183D01*
X174350590Y-93217183D02*
X174350590Y-92931469D01*
X174350590Y-92931469D02*
X174398209Y-92836231D01*
X174398209Y-92836231D02*
X174445828Y-92788612D01*
X174445828Y-92788612D02*
X174541066Y-92740993D01*
X174541066Y-92740993D02*
X174683923Y-92740993D01*
X174683923Y-92740993D02*
X174779161Y-92788612D01*
X174779161Y-92788612D02*
X174826780Y-92836231D01*
X174826780Y-92836231D02*
X174874399Y-92931469D01*
X174874399Y-92931469D02*
X174874399Y-93217183D01*
X174874399Y-93217183D02*
X174826780Y-93312421D01*
X174826780Y-93312421D02*
X174779161Y-93360041D01*
X174779161Y-93360041D02*
X174683923Y-93407660D01*
X174683923Y-93407660D02*
X174541066Y-93407660D01*
X175302971Y-93407660D02*
X175302971Y-92740993D01*
X175302971Y-92931469D02*
X175350590Y-92836231D01*
X175350590Y-92836231D02*
X175398209Y-92788612D01*
X175398209Y-92788612D02*
X175493447Y-92740993D01*
X175493447Y-92740993D02*
X175588685Y-92740993D01*
X176350590Y-93360041D02*
X176255352Y-93407660D01*
X176255352Y-93407660D02*
X176064876Y-93407660D01*
X176064876Y-93407660D02*
X175969638Y-93360041D01*
X175969638Y-93360041D02*
X175922019Y-93312421D01*
X175922019Y-93312421D02*
X175874400Y-93217183D01*
X175874400Y-93217183D02*
X175874400Y-92931469D01*
X175874400Y-92931469D02*
X175922019Y-92836231D01*
X175922019Y-92836231D02*
X175969638Y-92788612D01*
X175969638Y-92788612D02*
X176064876Y-92740993D01*
X176064876Y-92740993D02*
X176255352Y-92740993D01*
X176255352Y-92740993D02*
X176350590Y-92788612D01*
X177160114Y-93360041D02*
X177064876Y-93407660D01*
X177064876Y-93407660D02*
X176874400Y-93407660D01*
X176874400Y-93407660D02*
X176779162Y-93360041D01*
X176779162Y-93360041D02*
X176731543Y-93264802D01*
X176731543Y-93264802D02*
X176731543Y-92883850D01*
X176731543Y-92883850D02*
X176779162Y-92788612D01*
X176779162Y-92788612D02*
X176874400Y-92740993D01*
X176874400Y-92740993D02*
X177064876Y-92740993D01*
X177064876Y-92740993D02*
X177160114Y-92788612D01*
X177160114Y-92788612D02*
X177207733Y-92883850D01*
X177207733Y-92883850D02*
X177207733Y-92979088D01*
X177207733Y-92979088D02*
X176731543Y-93074326D01*
X177636305Y-93026707D02*
X178398210Y-93026707D01*
X173997621Y-86567362D02*
X173664288Y-86091171D01*
X173426193Y-86567362D02*
X173426193Y-85567362D01*
X173426193Y-85567362D02*
X173807145Y-85567362D01*
X173807145Y-85567362D02*
X173902383Y-85614981D01*
X173902383Y-85614981D02*
X173950002Y-85662600D01*
X173950002Y-85662600D02*
X173997621Y-85757838D01*
X173997621Y-85757838D02*
X173997621Y-85900695D01*
X173997621Y-85900695D02*
X173950002Y-85995933D01*
X173950002Y-85995933D02*
X173902383Y-86043552D01*
X173902383Y-86043552D02*
X173807145Y-86091171D01*
X173807145Y-86091171D02*
X173426193Y-86091171D01*
X174283336Y-85567362D02*
X174854764Y-85567362D01*
X174569050Y-86567362D02*
X174569050Y-85567362D01*
X175188098Y-86567362D02*
X175188098Y-85567362D01*
X175188098Y-85567362D02*
X175426193Y-85567362D01*
X175426193Y-85567362D02*
X175569050Y-85614981D01*
X175569050Y-85614981D02*
X175664288Y-85710219D01*
X175664288Y-85710219D02*
X175711907Y-85805457D01*
X175711907Y-85805457D02*
X175759526Y-85995933D01*
X175759526Y-85995933D02*
X175759526Y-86138790D01*
X175759526Y-86138790D02*
X175711907Y-86329266D01*
X175711907Y-86329266D02*
X175664288Y-86424504D01*
X175664288Y-86424504D02*
X175569050Y-86519743D01*
X175569050Y-86519743D02*
X175426193Y-86567362D01*
X175426193Y-86567362D02*
X175188098Y-86567362D01*
X176188098Y-86567362D02*
X176188098Y-85567362D01*
X176664288Y-85900695D02*
X176664288Y-86567362D01*
X176664288Y-85995933D02*
X176711907Y-85948314D01*
X176711907Y-85948314D02*
X176807145Y-85900695D01*
X176807145Y-85900695D02*
X176950002Y-85900695D01*
X176950002Y-85900695D02*
X177045240Y-85948314D01*
X177045240Y-85948314D02*
X177092859Y-86043552D01*
X177092859Y-86043552D02*
X177092859Y-86567362D01*
X177569050Y-86186409D02*
X178330955Y-86186409D01*
X177950002Y-86567362D02*
X177950002Y-85805457D01*
X170650411Y-107619199D02*
X170317078Y-107619199D01*
X170317078Y-108143009D02*
X170317078Y-107143009D01*
X170317078Y-107143009D02*
X170793268Y-107143009D01*
X171317078Y-108143009D02*
X171221840Y-108095390D01*
X171221840Y-108095390D02*
X171174221Y-108047770D01*
X171174221Y-108047770D02*
X171126602Y-107952532D01*
X171126602Y-107952532D02*
X171126602Y-107666818D01*
X171126602Y-107666818D02*
X171174221Y-107571580D01*
X171174221Y-107571580D02*
X171221840Y-107523961D01*
X171221840Y-107523961D02*
X171317078Y-107476342D01*
X171317078Y-107476342D02*
X171459935Y-107476342D01*
X171459935Y-107476342D02*
X171555173Y-107523961D01*
X171555173Y-107523961D02*
X171602792Y-107571580D01*
X171602792Y-107571580D02*
X171650411Y-107666818D01*
X171650411Y-107666818D02*
X171650411Y-107952532D01*
X171650411Y-107952532D02*
X171602792Y-108047770D01*
X171602792Y-108047770D02*
X171555173Y-108095390D01*
X171555173Y-108095390D02*
X171459935Y-108143009D01*
X171459935Y-108143009D02*
X171317078Y-108143009D01*
X172078983Y-108143009D02*
X172078983Y-107476342D01*
X172078983Y-107666818D02*
X172126602Y-107571580D01*
X172126602Y-107571580D02*
X172174221Y-107523961D01*
X172174221Y-107523961D02*
X172269459Y-107476342D01*
X172269459Y-107476342D02*
X172364697Y-107476342D01*
X173126602Y-108095390D02*
X173031364Y-108143009D01*
X173031364Y-108143009D02*
X172840888Y-108143009D01*
X172840888Y-108143009D02*
X172745650Y-108095390D01*
X172745650Y-108095390D02*
X172698031Y-108047770D01*
X172698031Y-108047770D02*
X172650412Y-107952532D01*
X172650412Y-107952532D02*
X172650412Y-107666818D01*
X172650412Y-107666818D02*
X172698031Y-107571580D01*
X172698031Y-107571580D02*
X172745650Y-107523961D01*
X172745650Y-107523961D02*
X172840888Y-107476342D01*
X172840888Y-107476342D02*
X173031364Y-107476342D01*
X173031364Y-107476342D02*
X173126602Y-107523961D01*
X173936126Y-108095390D02*
X173840888Y-108143009D01*
X173840888Y-108143009D02*
X173650412Y-108143009D01*
X173650412Y-108143009D02*
X173555174Y-108095390D01*
X173555174Y-108095390D02*
X173507555Y-108000151D01*
X173507555Y-108000151D02*
X173507555Y-107619199D01*
X173507555Y-107619199D02*
X173555174Y-107523961D01*
X173555174Y-107523961D02*
X173650412Y-107476342D01*
X173650412Y-107476342D02*
X173840888Y-107476342D01*
X173840888Y-107476342D02*
X173936126Y-107523961D01*
X173936126Y-107523961D02*
X173983745Y-107619199D01*
X173983745Y-107619199D02*
X173983745Y-107714437D01*
X173983745Y-107714437D02*
X173507555Y-107809675D01*
X174412317Y-107762056D02*
X175174222Y-107762056D01*
X174793269Y-108143009D02*
X174793269Y-107381104D01*
X173874399Y-95290925D02*
X173541066Y-95290925D01*
X173541066Y-95814735D02*
X173541066Y-94814735D01*
X173541066Y-94814735D02*
X174017256Y-94814735D01*
X174541066Y-95814735D02*
X174445828Y-95767116D01*
X174445828Y-95767116D02*
X174398209Y-95719496D01*
X174398209Y-95719496D02*
X174350590Y-95624258D01*
X174350590Y-95624258D02*
X174350590Y-95338544D01*
X174350590Y-95338544D02*
X174398209Y-95243306D01*
X174398209Y-95243306D02*
X174445828Y-95195687D01*
X174445828Y-95195687D02*
X174541066Y-95148068D01*
X174541066Y-95148068D02*
X174683923Y-95148068D01*
X174683923Y-95148068D02*
X174779161Y-95195687D01*
X174779161Y-95195687D02*
X174826780Y-95243306D01*
X174826780Y-95243306D02*
X174874399Y-95338544D01*
X174874399Y-95338544D02*
X174874399Y-95624258D01*
X174874399Y-95624258D02*
X174826780Y-95719496D01*
X174826780Y-95719496D02*
X174779161Y-95767116D01*
X174779161Y-95767116D02*
X174683923Y-95814735D01*
X174683923Y-95814735D02*
X174541066Y-95814735D01*
X175302971Y-95814735D02*
X175302971Y-95148068D01*
X175302971Y-95338544D02*
X175350590Y-95243306D01*
X175350590Y-95243306D02*
X175398209Y-95195687D01*
X175398209Y-95195687D02*
X175493447Y-95148068D01*
X175493447Y-95148068D02*
X175588685Y-95148068D01*
X176350590Y-95767116D02*
X176255352Y-95814735D01*
X176255352Y-95814735D02*
X176064876Y-95814735D01*
X176064876Y-95814735D02*
X175969638Y-95767116D01*
X175969638Y-95767116D02*
X175922019Y-95719496D01*
X175922019Y-95719496D02*
X175874400Y-95624258D01*
X175874400Y-95624258D02*
X175874400Y-95338544D01*
X175874400Y-95338544D02*
X175922019Y-95243306D01*
X175922019Y-95243306D02*
X175969638Y-95195687D01*
X175969638Y-95195687D02*
X176064876Y-95148068D01*
X176064876Y-95148068D02*
X176255352Y-95148068D01*
X176255352Y-95148068D02*
X176350590Y-95195687D01*
X177160114Y-95767116D02*
X177064876Y-95814735D01*
X177064876Y-95814735D02*
X176874400Y-95814735D01*
X176874400Y-95814735D02*
X176779162Y-95767116D01*
X176779162Y-95767116D02*
X176731543Y-95671877D01*
X176731543Y-95671877D02*
X176731543Y-95290925D01*
X176731543Y-95290925D02*
X176779162Y-95195687D01*
X176779162Y-95195687D02*
X176874400Y-95148068D01*
X176874400Y-95148068D02*
X177064876Y-95148068D01*
X177064876Y-95148068D02*
X177160114Y-95195687D01*
X177160114Y-95195687D02*
X177207733Y-95290925D01*
X177207733Y-95290925D02*
X177207733Y-95386163D01*
X177207733Y-95386163D02*
X176731543Y-95481401D01*
X177636305Y-95433782D02*
X178398210Y-95433782D01*
X178017257Y-95814735D02*
X178017257Y-95052830D01*
D11*
X161385190Y-67226163D02*
X161347094Y-67264259D01*
X161347094Y-67264259D02*
X161232809Y-67302354D01*
X161232809Y-67302354D02*
X161156618Y-67302354D01*
X161156618Y-67302354D02*
X161042332Y-67264259D01*
X161042332Y-67264259D02*
X160966142Y-67188068D01*
X160966142Y-67188068D02*
X160928047Y-67111878D01*
X160928047Y-67111878D02*
X160889951Y-66959497D01*
X160889951Y-66959497D02*
X160889951Y-66845211D01*
X160889951Y-66845211D02*
X160928047Y-66692830D01*
X160928047Y-66692830D02*
X160966142Y-66616639D01*
X160966142Y-66616639D02*
X161042332Y-66540449D01*
X161042332Y-66540449D02*
X161156618Y-66502354D01*
X161156618Y-66502354D02*
X161232809Y-66502354D01*
X161232809Y-66502354D02*
X161347094Y-66540449D01*
X161347094Y-66540449D02*
X161385190Y-66578544D01*
X161728047Y-67302354D02*
X161728047Y-66502354D01*
X161728047Y-66883306D02*
X162185190Y-66883306D01*
X162185190Y-67302354D02*
X162185190Y-66502354D01*
X161464931Y-64514958D02*
X161426835Y-64553054D01*
X161426835Y-64553054D02*
X161312550Y-64591149D01*
X161312550Y-64591149D02*
X161236359Y-64591149D01*
X161236359Y-64591149D02*
X161122073Y-64553054D01*
X161122073Y-64553054D02*
X161045883Y-64476863D01*
X161045883Y-64476863D02*
X161007788Y-64400673D01*
X161007788Y-64400673D02*
X160969692Y-64248292D01*
X160969692Y-64248292D02*
X160969692Y-64134006D01*
X160969692Y-64134006D02*
X161007788Y-63981625D01*
X161007788Y-63981625D02*
X161045883Y-63905434D01*
X161045883Y-63905434D02*
X161122073Y-63829244D01*
X161122073Y-63829244D02*
X161236359Y-63791149D01*
X161236359Y-63791149D02*
X161312550Y-63791149D01*
X161312550Y-63791149D02*
X161426835Y-63829244D01*
X161426835Y-63829244D02*
X161464931Y-63867339D01*
X162188740Y-64591149D02*
X161807788Y-64591149D01*
X161807788Y-64591149D02*
X161807788Y-63791149D01*
D10*
X158351967Y-102860875D02*
X158971014Y-102860875D01*
X158971014Y-102860875D02*
X158637681Y-103241827D01*
X158637681Y-103241827D02*
X158780538Y-103241827D01*
X158780538Y-103241827D02*
X158875776Y-103289446D01*
X158875776Y-103289446D02*
X158923395Y-103337065D01*
X158923395Y-103337065D02*
X158971014Y-103432303D01*
X158971014Y-103432303D02*
X158971014Y-103670398D01*
X158971014Y-103670398D02*
X158923395Y-103765636D01*
X158923395Y-103765636D02*
X158875776Y-103813256D01*
X158875776Y-103813256D02*
X158780538Y-103860875D01*
X158780538Y-103860875D02*
X158494824Y-103860875D01*
X158494824Y-103860875D02*
X158399586Y-103813256D01*
X158399586Y-103813256D02*
X158351967Y-103765636D01*
X150419868Y-78458080D02*
X150467487Y-78315223D01*
X150467487Y-78315223D02*
X150467487Y-78077128D01*
X150467487Y-78077128D02*
X150419868Y-77981890D01*
X150419868Y-77981890D02*
X150372248Y-77934271D01*
X150372248Y-77934271D02*
X150277010Y-77886652D01*
X150277010Y-77886652D02*
X150181772Y-77886652D01*
X150181772Y-77886652D02*
X150086534Y-77934271D01*
X150086534Y-77934271D02*
X150038915Y-77981890D01*
X150038915Y-77981890D02*
X149991296Y-78077128D01*
X149991296Y-78077128D02*
X149943677Y-78267604D01*
X149943677Y-78267604D02*
X149896058Y-78362842D01*
X149896058Y-78362842D02*
X149848439Y-78410461D01*
X149848439Y-78410461D02*
X149753201Y-78458080D01*
X149753201Y-78458080D02*
X149657963Y-78458080D01*
X149657963Y-78458080D02*
X149562725Y-78410461D01*
X149562725Y-78410461D02*
X149515106Y-78362842D01*
X149515106Y-78362842D02*
X149467487Y-78267604D01*
X149467487Y-78267604D02*
X149467487Y-78029509D01*
X149467487Y-78029509D02*
X149515106Y-77886652D01*
X150372248Y-76886652D02*
X150419868Y-76934271D01*
X150419868Y-76934271D02*
X150467487Y-77077128D01*
X150467487Y-77077128D02*
X150467487Y-77172366D01*
X150467487Y-77172366D02*
X150419868Y-77315223D01*
X150419868Y-77315223D02*
X150324629Y-77410461D01*
X150324629Y-77410461D02*
X150229391Y-77458080D01*
X150229391Y-77458080D02*
X150038915Y-77505699D01*
X150038915Y-77505699D02*
X149896058Y-77505699D01*
X149896058Y-77505699D02*
X149705582Y-77458080D01*
X149705582Y-77458080D02*
X149610344Y-77410461D01*
X149610344Y-77410461D02*
X149515106Y-77315223D01*
X149515106Y-77315223D02*
X149467487Y-77172366D01*
X149467487Y-77172366D02*
X149467487Y-77077128D01*
X149467487Y-77077128D02*
X149515106Y-76934271D01*
X149515106Y-76934271D02*
X149562725Y-76886652D01*
X150467487Y-76458080D02*
X149467487Y-76458080D01*
X150467487Y-75886652D02*
X149896058Y-76315223D01*
X149467487Y-75886652D02*
X150038915Y-76458080D01*
X158139016Y-110439716D02*
X158091397Y-110392097D01*
X158091397Y-110392097D02*
X158043778Y-110296859D01*
X158043778Y-110296859D02*
X158043778Y-110058764D01*
X158043778Y-110058764D02*
X158091397Y-109963526D01*
X158091397Y-109963526D02*
X158139016Y-109915907D01*
X158139016Y-109915907D02*
X158234254Y-109868288D01*
X158234254Y-109868288D02*
X158329492Y-109868288D01*
X158329492Y-109868288D02*
X158472349Y-109915907D01*
X158472349Y-109915907D02*
X159043778Y-110487335D01*
X159043778Y-110487335D02*
X159043778Y-109868288D01*
X158662825Y-109439716D02*
X158662825Y-108677812D01*
X158377111Y-107773050D02*
X159043778Y-107773050D01*
X157996159Y-108011145D02*
X158710444Y-108249240D01*
X158710444Y-108249240D02*
X158710444Y-107630193D01*
D11*
X146123743Y-125612981D02*
X146047553Y-125574886D01*
X146047553Y-125574886D02*
X145933267Y-125574886D01*
X145933267Y-125574886D02*
X145818981Y-125612981D01*
X145818981Y-125612981D02*
X145742791Y-125689171D01*
X145742791Y-125689171D02*
X145704696Y-125765362D01*
X145704696Y-125765362D02*
X145666600Y-125917743D01*
X145666600Y-125917743D02*
X145666600Y-126032029D01*
X145666600Y-126032029D02*
X145704696Y-126184410D01*
X145704696Y-126184410D02*
X145742791Y-126260600D01*
X145742791Y-126260600D02*
X145818981Y-126336791D01*
X145818981Y-126336791D02*
X145933267Y-126374886D01*
X145933267Y-126374886D02*
X146009458Y-126374886D01*
X146009458Y-126374886D02*
X146123743Y-126336791D01*
X146123743Y-126336791D02*
X146161839Y-126298695D01*
X146161839Y-126298695D02*
X146161839Y-126032029D01*
X146161839Y-126032029D02*
X146009458Y-126032029D01*
X146504696Y-126374886D02*
X146504696Y-125574886D01*
X146504696Y-125574886D02*
X146961839Y-126374886D01*
X146961839Y-126374886D02*
X146961839Y-125574886D01*
X147342791Y-126374886D02*
X147342791Y-125574886D01*
X147342791Y-125574886D02*
X147533267Y-125574886D01*
X147533267Y-125574886D02*
X147647553Y-125612981D01*
X147647553Y-125612981D02*
X147723743Y-125689171D01*
X147723743Y-125689171D02*
X147761838Y-125765362D01*
X147761838Y-125765362D02*
X147799934Y-125917743D01*
X147799934Y-125917743D02*
X147799934Y-126032029D01*
X147799934Y-126032029D02*
X147761838Y-126184410D01*
X147761838Y-126184410D02*
X147723743Y-126260600D01*
X147723743Y-126260600D02*
X147647553Y-126336791D01*
X147647553Y-126336791D02*
X147533267Y-126374886D01*
X147533267Y-126374886D02*
X147342791Y-126374886D01*
D10*
X174088685Y-90720005D02*
X173755352Y-90243814D01*
X173517257Y-90720005D02*
X173517257Y-89720005D01*
X173517257Y-89720005D02*
X173898209Y-89720005D01*
X173898209Y-89720005D02*
X173993447Y-89767624D01*
X173993447Y-89767624D02*
X174041066Y-89815243D01*
X174041066Y-89815243D02*
X174088685Y-89910481D01*
X174088685Y-89910481D02*
X174088685Y-90053338D01*
X174088685Y-90053338D02*
X174041066Y-90148576D01*
X174041066Y-90148576D02*
X173993447Y-90196195D01*
X173993447Y-90196195D02*
X173898209Y-90243814D01*
X173898209Y-90243814D02*
X173517257Y-90243814D01*
X174374400Y-89720005D02*
X174945828Y-89720005D01*
X174660114Y-90720005D02*
X174660114Y-89720005D01*
X175279162Y-90720005D02*
X175279162Y-89720005D01*
X175279162Y-89720005D02*
X175517257Y-89720005D01*
X175517257Y-89720005D02*
X175660114Y-89767624D01*
X175660114Y-89767624D02*
X175755352Y-89862862D01*
X175755352Y-89862862D02*
X175802971Y-89958100D01*
X175802971Y-89958100D02*
X175850590Y-90148576D01*
X175850590Y-90148576D02*
X175850590Y-90291433D01*
X175850590Y-90291433D02*
X175802971Y-90481909D01*
X175802971Y-90481909D02*
X175755352Y-90577147D01*
X175755352Y-90577147D02*
X175660114Y-90672386D01*
X175660114Y-90672386D02*
X175517257Y-90720005D01*
X175517257Y-90720005D02*
X175279162Y-90720005D01*
X176279162Y-90720005D02*
X176279162Y-89720005D01*
X176755352Y-90053338D02*
X176755352Y-90720005D01*
X176755352Y-90148576D02*
X176802971Y-90100957D01*
X176802971Y-90100957D02*
X176898209Y-90053338D01*
X176898209Y-90053338D02*
X177041066Y-90053338D01*
X177041066Y-90053338D02*
X177136304Y-90100957D01*
X177136304Y-90100957D02*
X177183923Y-90196195D01*
X177183923Y-90196195D02*
X177183923Y-90720005D01*
X177660114Y-90339052D02*
X178422019Y-90339052D01*
X173997621Y-79242764D02*
X173664288Y-78766573D01*
X173426193Y-79242764D02*
X173426193Y-78242764D01*
X173426193Y-78242764D02*
X173807145Y-78242764D01*
X173807145Y-78242764D02*
X173902383Y-78290383D01*
X173902383Y-78290383D02*
X173950002Y-78338002D01*
X173950002Y-78338002D02*
X173997621Y-78433240D01*
X173997621Y-78433240D02*
X173997621Y-78576097D01*
X173997621Y-78576097D02*
X173950002Y-78671335D01*
X173950002Y-78671335D02*
X173902383Y-78718954D01*
X173902383Y-78718954D02*
X173807145Y-78766573D01*
X173807145Y-78766573D02*
X173426193Y-78766573D01*
X174283336Y-78242764D02*
X174854764Y-78242764D01*
X174569050Y-79242764D02*
X174569050Y-78242764D01*
X175188098Y-79242764D02*
X175188098Y-78242764D01*
X175188098Y-78242764D02*
X175426193Y-78242764D01*
X175426193Y-78242764D02*
X175569050Y-78290383D01*
X175569050Y-78290383D02*
X175664288Y-78385621D01*
X175664288Y-78385621D02*
X175711907Y-78480859D01*
X175711907Y-78480859D02*
X175759526Y-78671335D01*
X175759526Y-78671335D02*
X175759526Y-78814192D01*
X175759526Y-78814192D02*
X175711907Y-79004668D01*
X175711907Y-79004668D02*
X175664288Y-79099906D01*
X175664288Y-79099906D02*
X175569050Y-79195145D01*
X175569050Y-79195145D02*
X175426193Y-79242764D01*
X175426193Y-79242764D02*
X175188098Y-79242764D01*
X176188098Y-79242764D02*
X176188098Y-78242764D01*
X176664288Y-78576097D02*
X176664288Y-79242764D01*
X176664288Y-78671335D02*
X176711907Y-78623716D01*
X176711907Y-78623716D02*
X176807145Y-78576097D01*
X176807145Y-78576097D02*
X176950002Y-78576097D01*
X176950002Y-78576097D02*
X177045240Y-78623716D01*
X177045240Y-78623716D02*
X177092859Y-78718954D01*
X177092859Y-78718954D02*
X177092859Y-79242764D01*
X177569050Y-78861811D02*
X178330955Y-78861811D01*
D11*
X133538015Y-126401636D02*
X133271348Y-126020683D01*
X133080872Y-126401636D02*
X133080872Y-125601636D01*
X133080872Y-125601636D02*
X133385634Y-125601636D01*
X133385634Y-125601636D02*
X133461824Y-125639731D01*
X133461824Y-125639731D02*
X133499919Y-125677826D01*
X133499919Y-125677826D02*
X133538015Y-125754017D01*
X133538015Y-125754017D02*
X133538015Y-125868302D01*
X133538015Y-125868302D02*
X133499919Y-125944493D01*
X133499919Y-125944493D02*
X133461824Y-125982588D01*
X133461824Y-125982588D02*
X133385634Y-126020683D01*
X133385634Y-126020683D02*
X133080872Y-126020683D01*
X133842776Y-126363541D02*
X133957062Y-126401636D01*
X133957062Y-126401636D02*
X134147538Y-126401636D01*
X134147538Y-126401636D02*
X134223729Y-126363541D01*
X134223729Y-126363541D02*
X134261824Y-126325445D01*
X134261824Y-126325445D02*
X134299919Y-126249255D01*
X134299919Y-126249255D02*
X134299919Y-126173064D01*
X134299919Y-126173064D02*
X134261824Y-126096874D01*
X134261824Y-126096874D02*
X134223729Y-126058779D01*
X134223729Y-126058779D02*
X134147538Y-126020683D01*
X134147538Y-126020683D02*
X133995157Y-125982588D01*
X133995157Y-125982588D02*
X133918967Y-125944493D01*
X133918967Y-125944493D02*
X133880872Y-125906398D01*
X133880872Y-125906398D02*
X133842776Y-125830207D01*
X133842776Y-125830207D02*
X133842776Y-125754017D01*
X133842776Y-125754017D02*
X133880872Y-125677826D01*
X133880872Y-125677826D02*
X133918967Y-125639731D01*
X133918967Y-125639731D02*
X133995157Y-125601636D01*
X133995157Y-125601636D02*
X134185634Y-125601636D01*
X134185634Y-125601636D02*
X134299919Y-125639731D01*
X134528491Y-125601636D02*
X134985634Y-125601636D01*
X134757062Y-126401636D02*
X134757062Y-125601636D01*
X141541182Y-125601636D02*
X141160230Y-125601636D01*
X141160230Y-125601636D02*
X141122134Y-125982588D01*
X141122134Y-125982588D02*
X141160230Y-125944493D01*
X141160230Y-125944493D02*
X141236420Y-125906398D01*
X141236420Y-125906398D02*
X141426896Y-125906398D01*
X141426896Y-125906398D02*
X141503087Y-125944493D01*
X141503087Y-125944493D02*
X141541182Y-125982588D01*
X141541182Y-125982588D02*
X141579277Y-126058779D01*
X141579277Y-126058779D02*
X141579277Y-126249255D01*
X141579277Y-126249255D02*
X141541182Y-126325445D01*
X141541182Y-126325445D02*
X141503087Y-126363541D01*
X141503087Y-126363541D02*
X141426896Y-126401636D01*
X141426896Y-126401636D02*
X141236420Y-126401636D01*
X141236420Y-126401636D02*
X141160230Y-126363541D01*
X141160230Y-126363541D02*
X141122134Y-126325445D01*
X141807849Y-125601636D02*
X142074516Y-126401636D01*
X142074516Y-126401636D02*
X142341182Y-125601636D01*
D10*
X160798427Y-91405820D02*
X161417474Y-91405820D01*
X161417474Y-91405820D02*
X161084141Y-91786772D01*
X161084141Y-91786772D02*
X161226998Y-91786772D01*
X161226998Y-91786772D02*
X161322236Y-91834391D01*
X161322236Y-91834391D02*
X161369855Y-91882010D01*
X161369855Y-91882010D02*
X161417474Y-91977248D01*
X161417474Y-91977248D02*
X161417474Y-92215343D01*
X161417474Y-92215343D02*
X161369855Y-92310581D01*
X161369855Y-92310581D02*
X161322236Y-92358201D01*
X161322236Y-92358201D02*
X161226998Y-92405820D01*
X161226998Y-92405820D02*
X160941284Y-92405820D01*
X160941284Y-92405820D02*
X160846046Y-92358201D01*
X160846046Y-92358201D02*
X160798427Y-92310581D01*
X144268809Y-68393689D02*
X143268809Y-68393689D01*
X143268809Y-68393689D02*
X143983094Y-68060356D01*
X143983094Y-68060356D02*
X143268809Y-67727023D01*
X143268809Y-67727023D02*
X144268809Y-67727023D01*
X143268809Y-67060356D02*
X143268809Y-66869880D01*
X143268809Y-66869880D02*
X143316428Y-66774642D01*
X143316428Y-66774642D02*
X143411666Y-66679404D01*
X143411666Y-66679404D02*
X143602142Y-66631785D01*
X143602142Y-66631785D02*
X143935475Y-66631785D01*
X143935475Y-66631785D02*
X144125951Y-66679404D01*
X144125951Y-66679404D02*
X144221190Y-66774642D01*
X144221190Y-66774642D02*
X144268809Y-66869880D01*
X144268809Y-66869880D02*
X144268809Y-67060356D01*
X144268809Y-67060356D02*
X144221190Y-67155594D01*
X144221190Y-67155594D02*
X144125951Y-67250832D01*
X144125951Y-67250832D02*
X143935475Y-67298451D01*
X143935475Y-67298451D02*
X143602142Y-67298451D01*
X143602142Y-67298451D02*
X143411666Y-67250832D01*
X143411666Y-67250832D02*
X143316428Y-67155594D01*
X143316428Y-67155594D02*
X143268809Y-67060356D01*
X144221190Y-66250832D02*
X144268809Y-66107975D01*
X144268809Y-66107975D02*
X144268809Y-65869880D01*
X144268809Y-65869880D02*
X144221190Y-65774642D01*
X144221190Y-65774642D02*
X144173570Y-65727023D01*
X144173570Y-65727023D02*
X144078332Y-65679404D01*
X144078332Y-65679404D02*
X143983094Y-65679404D01*
X143983094Y-65679404D02*
X143887856Y-65727023D01*
X143887856Y-65727023D02*
X143840237Y-65774642D01*
X143840237Y-65774642D02*
X143792618Y-65869880D01*
X143792618Y-65869880D02*
X143744999Y-66060356D01*
X143744999Y-66060356D02*
X143697380Y-66155594D01*
X143697380Y-66155594D02*
X143649761Y-66203213D01*
X143649761Y-66203213D02*
X143554523Y-66250832D01*
X143554523Y-66250832D02*
X143459285Y-66250832D01*
X143459285Y-66250832D02*
X143364047Y-66203213D01*
X143364047Y-66203213D02*
X143316428Y-66155594D01*
X143316428Y-66155594D02*
X143268809Y-66060356D01*
X143268809Y-66060356D02*
X143268809Y-65822261D01*
X143268809Y-65822261D02*
X143316428Y-65679404D01*
X144268809Y-65250832D02*
X143268809Y-65250832D01*
X154015158Y-98721630D02*
X154062777Y-98674011D01*
X154062777Y-98674011D02*
X154158015Y-98626392D01*
X154158015Y-98626392D02*
X154396110Y-98626392D01*
X154396110Y-98626392D02*
X154491348Y-98674011D01*
X154491348Y-98674011D02*
X154538967Y-98721630D01*
X154538967Y-98721630D02*
X154586586Y-98816868D01*
X154586586Y-98816868D02*
X154586586Y-98912106D01*
X154586586Y-98912106D02*
X154538967Y-99054963D01*
X154538967Y-99054963D02*
X153967539Y-99626392D01*
X153967539Y-99626392D02*
X154586586Y-99626392D01*
X155015158Y-99245439D02*
X155777063Y-99245439D01*
X156158015Y-98626392D02*
X156777062Y-98626392D01*
X156777062Y-98626392D02*
X156443729Y-99007344D01*
X156443729Y-99007344D02*
X156586586Y-99007344D01*
X156586586Y-99007344D02*
X156681824Y-99054963D01*
X156681824Y-99054963D02*
X156729443Y-99102582D01*
X156729443Y-99102582D02*
X156777062Y-99197820D01*
X156777062Y-99197820D02*
X156777062Y-99435915D01*
X156777062Y-99435915D02*
X156729443Y-99531153D01*
X156729443Y-99531153D02*
X156681824Y-99578773D01*
X156681824Y-99578773D02*
X156586586Y-99626392D01*
X156586586Y-99626392D02*
X156300872Y-99626392D01*
X156300872Y-99626392D02*
X156205634Y-99578773D01*
X156205634Y-99578773D02*
X156158015Y-99531153D01*
D11*
X161267353Y-68932689D02*
X161191163Y-68894594D01*
X161191163Y-68894594D02*
X161076877Y-68894594D01*
X161076877Y-68894594D02*
X160962591Y-68932689D01*
X160962591Y-68932689D02*
X160886401Y-69008879D01*
X160886401Y-69008879D02*
X160848306Y-69085070D01*
X160848306Y-69085070D02*
X160810210Y-69237451D01*
X160810210Y-69237451D02*
X160810210Y-69351737D01*
X160810210Y-69351737D02*
X160848306Y-69504118D01*
X160848306Y-69504118D02*
X160886401Y-69580308D01*
X160886401Y-69580308D02*
X160962591Y-69656499D01*
X160962591Y-69656499D02*
X161076877Y-69694594D01*
X161076877Y-69694594D02*
X161153068Y-69694594D01*
X161153068Y-69694594D02*
X161267353Y-69656499D01*
X161267353Y-69656499D02*
X161305449Y-69618403D01*
X161305449Y-69618403D02*
X161305449Y-69351737D01*
X161305449Y-69351737D02*
X161153068Y-69351737D01*
X161648306Y-69694594D02*
X161648306Y-68894594D01*
X161648306Y-68894594D02*
X162105449Y-69694594D01*
X162105449Y-69694594D02*
X162105449Y-68894594D01*
X162486401Y-69694594D02*
X162486401Y-68894594D01*
X162486401Y-68894594D02*
X162676877Y-68894594D01*
X162676877Y-68894594D02*
X162791163Y-68932689D01*
X162791163Y-68932689D02*
X162867353Y-69008879D01*
X162867353Y-69008879D02*
X162905448Y-69085070D01*
X162905448Y-69085070D02*
X162943544Y-69237451D01*
X162943544Y-69237451D02*
X162943544Y-69351737D01*
X162943544Y-69351737D02*
X162905448Y-69504118D01*
X162905448Y-69504118D02*
X162867353Y-69580308D01*
X162867353Y-69580308D02*
X162791163Y-69656499D01*
X162791163Y-69656499D02*
X162676877Y-69694594D01*
X162676877Y-69694594D02*
X162486401Y-69694594D01*
X139003463Y-126389130D02*
X138736796Y-126008177D01*
X138546320Y-126389130D02*
X138546320Y-125589130D01*
X138546320Y-125589130D02*
X138851082Y-125589130D01*
X138851082Y-125589130D02*
X138927272Y-125627225D01*
X138927272Y-125627225D02*
X138965367Y-125665320D01*
X138965367Y-125665320D02*
X139003463Y-125741511D01*
X139003463Y-125741511D02*
X139003463Y-125855796D01*
X139003463Y-125855796D02*
X138965367Y-125931987D01*
X138965367Y-125931987D02*
X138927272Y-125970082D01*
X138927272Y-125970082D02*
X138851082Y-126008177D01*
X138851082Y-126008177D02*
X138546320Y-126008177D01*
X139270129Y-125589130D02*
X139803463Y-126389130D01*
X139803463Y-125589130D02*
X139270129Y-126389130D01*
D10*
X127300373Y-92179920D02*
X127205135Y-92132301D01*
X127205135Y-92132301D02*
X127062278Y-92132301D01*
X127062278Y-92132301D02*
X126919421Y-92179920D01*
X126919421Y-92179920D02*
X126824183Y-92275158D01*
X126824183Y-92275158D02*
X126776564Y-92370396D01*
X126776564Y-92370396D02*
X126728945Y-92560872D01*
X126728945Y-92560872D02*
X126728945Y-92703729D01*
X126728945Y-92703729D02*
X126776564Y-92894205D01*
X126776564Y-92894205D02*
X126824183Y-92989443D01*
X126824183Y-92989443D02*
X126919421Y-93084682D01*
X126919421Y-93084682D02*
X127062278Y-93132301D01*
X127062278Y-93132301D02*
X127157516Y-93132301D01*
X127157516Y-93132301D02*
X127300373Y-93084682D01*
X127300373Y-93084682D02*
X127347992Y-93037062D01*
X127347992Y-93037062D02*
X127347992Y-92703729D01*
X127347992Y-92703729D02*
X127157516Y-92703729D01*
X127776564Y-93132301D02*
X127776564Y-92132301D01*
X127776564Y-92132301D02*
X128347992Y-93132301D01*
X128347992Y-93132301D02*
X128347992Y-92132301D01*
X128824183Y-93132301D02*
X128824183Y-92132301D01*
X128824183Y-92132301D02*
X129062278Y-92132301D01*
X129062278Y-92132301D02*
X129205135Y-92179920D01*
X129205135Y-92179920D02*
X129300373Y-92275158D01*
X129300373Y-92275158D02*
X129347992Y-92370396D01*
X129347992Y-92370396D02*
X129395611Y-92560872D01*
X129395611Y-92560872D02*
X129395611Y-92703729D01*
X129395611Y-92703729D02*
X129347992Y-92894205D01*
X129347992Y-92894205D02*
X129300373Y-92989443D01*
X129300373Y-92989443D02*
X129205135Y-93084682D01*
X129205135Y-93084682D02*
X129062278Y-93132301D01*
X129062278Y-93132301D02*
X128824183Y-93132301D01*
X155335927Y-82644776D02*
X155383546Y-82597157D01*
X155383546Y-82597157D02*
X155478784Y-82549538D01*
X155478784Y-82549538D02*
X155716879Y-82549538D01*
X155716879Y-82549538D02*
X155812117Y-82597157D01*
X155812117Y-82597157D02*
X155859736Y-82644776D01*
X155859736Y-82644776D02*
X155907355Y-82740014D01*
X155907355Y-82740014D02*
X155907355Y-82835252D01*
X155907355Y-82835252D02*
X155859736Y-82978109D01*
X155859736Y-82978109D02*
X155288308Y-83549538D01*
X155288308Y-83549538D02*
X155907355Y-83549538D01*
X153890056Y-105054764D02*
X153937675Y-105007145D01*
X153937675Y-105007145D02*
X154032913Y-104959526D01*
X154032913Y-104959526D02*
X154271008Y-104959526D01*
X154271008Y-104959526D02*
X154366246Y-105007145D01*
X154366246Y-105007145D02*
X154413865Y-105054764D01*
X154413865Y-105054764D02*
X154461484Y-105150002D01*
X154461484Y-105150002D02*
X154461484Y-105245240D01*
X154461484Y-105245240D02*
X154413865Y-105388097D01*
X154413865Y-105388097D02*
X153842437Y-105959526D01*
X153842437Y-105959526D02*
X154461484Y-105959526D01*
X170864697Y-103048279D02*
X170531364Y-102572088D01*
X170293269Y-103048279D02*
X170293269Y-102048279D01*
X170293269Y-102048279D02*
X170674221Y-102048279D01*
X170674221Y-102048279D02*
X170769459Y-102095898D01*
X170769459Y-102095898D02*
X170817078Y-102143517D01*
X170817078Y-102143517D02*
X170864697Y-102238755D01*
X170864697Y-102238755D02*
X170864697Y-102381612D01*
X170864697Y-102381612D02*
X170817078Y-102476850D01*
X170817078Y-102476850D02*
X170769459Y-102524469D01*
X170769459Y-102524469D02*
X170674221Y-102572088D01*
X170674221Y-102572088D02*
X170293269Y-102572088D01*
X171150412Y-102048279D02*
X171721840Y-102048279D01*
X171436126Y-103048279D02*
X171436126Y-102048279D01*
X172055174Y-103048279D02*
X172055174Y-102048279D01*
X172055174Y-102048279D02*
X172293269Y-102048279D01*
X172293269Y-102048279D02*
X172436126Y-102095898D01*
X172436126Y-102095898D02*
X172531364Y-102191136D01*
X172531364Y-102191136D02*
X172578983Y-102286374D01*
X172578983Y-102286374D02*
X172626602Y-102476850D01*
X172626602Y-102476850D02*
X172626602Y-102619707D01*
X172626602Y-102619707D02*
X172578983Y-102810183D01*
X172578983Y-102810183D02*
X172531364Y-102905421D01*
X172531364Y-102905421D02*
X172436126Y-103000660D01*
X172436126Y-103000660D02*
X172293269Y-103048279D01*
X172293269Y-103048279D02*
X172055174Y-103048279D01*
X173055174Y-103048279D02*
X173055174Y-102048279D01*
X173531364Y-102381612D02*
X173531364Y-103048279D01*
X173531364Y-102476850D02*
X173578983Y-102429231D01*
X173578983Y-102429231D02*
X173674221Y-102381612D01*
X173674221Y-102381612D02*
X173817078Y-102381612D01*
X173817078Y-102381612D02*
X173912316Y-102429231D01*
X173912316Y-102429231D02*
X173959935Y-102524469D01*
X173959935Y-102524469D02*
X173959935Y-103048279D01*
X174436126Y-102667326D02*
X175198031Y-102667326D01*
X153990910Y-88092147D02*
X154038529Y-88044528D01*
X154038529Y-88044528D02*
X154133767Y-87996909D01*
X154133767Y-87996909D02*
X154371862Y-87996909D01*
X154371862Y-87996909D02*
X154467100Y-88044528D01*
X154467100Y-88044528D02*
X154514719Y-88092147D01*
X154514719Y-88092147D02*
X154562338Y-88187385D01*
X154562338Y-88187385D02*
X154562338Y-88282623D01*
X154562338Y-88282623D02*
X154514719Y-88425480D01*
X154514719Y-88425480D02*
X153943291Y-88996909D01*
X153943291Y-88996909D02*
X154562338Y-88996909D01*
X154990910Y-88615956D02*
X155752815Y-88615956D01*
X156133767Y-87996909D02*
X156752814Y-87996909D01*
X156752814Y-87996909D02*
X156419481Y-88377861D01*
X156419481Y-88377861D02*
X156562338Y-88377861D01*
X156562338Y-88377861D02*
X156657576Y-88425480D01*
X156657576Y-88425480D02*
X156705195Y-88473099D01*
X156705195Y-88473099D02*
X156752814Y-88568337D01*
X156752814Y-88568337D02*
X156752814Y-88806432D01*
X156752814Y-88806432D02*
X156705195Y-88901670D01*
X156705195Y-88901670D02*
X156657576Y-88949290D01*
X156657576Y-88949290D02*
X156562338Y-88996909D01*
X156562338Y-88996909D02*
X156276624Y-88996909D01*
X156276624Y-88996909D02*
X156181386Y-88949290D01*
X156181386Y-88949290D02*
X156133767Y-88901670D01*
X158807713Y-96676731D02*
X158855332Y-96629112D01*
X158855332Y-96629112D02*
X158950570Y-96581493D01*
X158950570Y-96581493D02*
X159188665Y-96581493D01*
X159188665Y-96581493D02*
X159283903Y-96629112D01*
X159283903Y-96629112D02*
X159331522Y-96676731D01*
X159331522Y-96676731D02*
X159379141Y-96771969D01*
X159379141Y-96771969D02*
X159379141Y-96867207D01*
X159379141Y-96867207D02*
X159331522Y-97010064D01*
X159331522Y-97010064D02*
X158760094Y-97581493D01*
X158760094Y-97581493D02*
X159379141Y-97581493D01*
X159807713Y-97200540D02*
X160569618Y-97200540D01*
X161474379Y-96914826D02*
X161474379Y-97581493D01*
X161236284Y-96533874D02*
X160998189Y-97248159D01*
X160998189Y-97248159D02*
X161617236Y-97248159D01*
D11*
X136005726Y-125614143D02*
X136462869Y-125614143D01*
X136234297Y-126414143D02*
X136234297Y-125614143D01*
X136653345Y-125614143D02*
X137186679Y-126414143D01*
X137186679Y-125614143D02*
X136653345Y-126414143D01*
X161267353Y-72485541D02*
X160810210Y-72485541D01*
X161038782Y-72485541D02*
X161038782Y-71685541D01*
X161038782Y-71685541D02*
X160962591Y-71799826D01*
X160962591Y-71799826D02*
X160886401Y-71876017D01*
X160886401Y-71876017D02*
X160810210Y-71914112D01*
X161572115Y-71761731D02*
X161610211Y-71723636D01*
X161610211Y-71723636D02*
X161686401Y-71685541D01*
X161686401Y-71685541D02*
X161876877Y-71685541D01*
X161876877Y-71685541D02*
X161953068Y-71723636D01*
X161953068Y-71723636D02*
X161991163Y-71761731D01*
X161991163Y-71761731D02*
X162029258Y-71837922D01*
X162029258Y-71837922D02*
X162029258Y-71914112D01*
X162029258Y-71914112D02*
X161991163Y-72028398D01*
X161991163Y-72028398D02*
X161534020Y-72485541D01*
X161534020Y-72485541D02*
X162029258Y-72485541D01*
X162257830Y-71685541D02*
X162524497Y-72485541D01*
X162524497Y-72485541D02*
X162791163Y-71685541D01*
D10*
X151884191Y-124028000D02*
X152360381Y-124028000D01*
X151788953Y-124313715D02*
X152122286Y-123313715D01*
X152122286Y-123313715D02*
X152455619Y-124313715D01*
X152788953Y-124313715D02*
X152788953Y-123313715D01*
X152788953Y-123313715D02*
X153122286Y-124028000D01*
X153122286Y-124028000D02*
X153455619Y-123313715D01*
X153455619Y-123313715D02*
X153455619Y-124313715D01*
X153884191Y-124266096D02*
X154027048Y-124313715D01*
X154027048Y-124313715D02*
X154265143Y-124313715D01*
X154265143Y-124313715D02*
X154360381Y-124266096D01*
X154360381Y-124266096D02*
X154408000Y-124218476D01*
X154408000Y-124218476D02*
X154455619Y-124123238D01*
X154455619Y-124123238D02*
X154455619Y-124028000D01*
X154455619Y-124028000D02*
X154408000Y-123932762D01*
X154408000Y-123932762D02*
X154360381Y-123885143D01*
X154360381Y-123885143D02*
X154265143Y-123837524D01*
X154265143Y-123837524D02*
X154074667Y-123789905D01*
X154074667Y-123789905D02*
X153979429Y-123742286D01*
X153979429Y-123742286D02*
X153931810Y-123694667D01*
X153931810Y-123694667D02*
X153884191Y-123599429D01*
X153884191Y-123599429D02*
X153884191Y-123504191D01*
X153884191Y-123504191D02*
X153931810Y-123408953D01*
X153931810Y-123408953D02*
X153979429Y-123361334D01*
X153979429Y-123361334D02*
X154074667Y-123313715D01*
X154074667Y-123313715D02*
X154312762Y-123313715D01*
X154312762Y-123313715D02*
X154455619Y-123361334D01*
X156217524Y-124218476D02*
X156169905Y-124266096D01*
X156169905Y-124266096D02*
X156027048Y-124313715D01*
X156027048Y-124313715D02*
X155931810Y-124313715D01*
X155931810Y-124313715D02*
X155788953Y-124266096D01*
X155788953Y-124266096D02*
X155693715Y-124170857D01*
X155693715Y-124170857D02*
X155646096Y-124075619D01*
X155646096Y-124075619D02*
X155598477Y-123885143D01*
X155598477Y-123885143D02*
X155598477Y-123742286D01*
X155598477Y-123742286D02*
X155646096Y-123551810D01*
X155646096Y-123551810D02*
X155693715Y-123456572D01*
X155693715Y-123456572D02*
X155788953Y-123361334D01*
X155788953Y-123361334D02*
X155931810Y-123313715D01*
X155931810Y-123313715D02*
X156027048Y-123313715D01*
X156027048Y-123313715D02*
X156169905Y-123361334D01*
X156169905Y-123361334D02*
X156217524Y-123408953D01*
X156598477Y-124028000D02*
X157074667Y-124028000D01*
X156503239Y-124313715D02*
X156836572Y-123313715D01*
X156836572Y-123313715D02*
X157169905Y-124313715D01*
X157503239Y-124313715D02*
X157503239Y-123313715D01*
X157503239Y-123313715D02*
X158074667Y-124313715D01*
X158074667Y-124313715D02*
X158074667Y-123313715D01*
X158884191Y-123789905D02*
X159027048Y-123837524D01*
X159027048Y-123837524D02*
X159074667Y-123885143D01*
X159074667Y-123885143D02*
X159122286Y-123980381D01*
X159122286Y-123980381D02*
X159122286Y-124123238D01*
X159122286Y-124123238D02*
X159074667Y-124218476D01*
X159074667Y-124218476D02*
X159027048Y-124266096D01*
X159027048Y-124266096D02*
X158931810Y-124313715D01*
X158931810Y-124313715D02*
X158550858Y-124313715D01*
X158550858Y-124313715D02*
X158550858Y-123313715D01*
X158550858Y-123313715D02*
X158884191Y-123313715D01*
X158884191Y-123313715D02*
X158979429Y-123361334D01*
X158979429Y-123361334D02*
X159027048Y-123408953D01*
X159027048Y-123408953D02*
X159074667Y-123504191D01*
X159074667Y-123504191D02*
X159074667Y-123599429D01*
X159074667Y-123599429D02*
X159027048Y-123694667D01*
X159027048Y-123694667D02*
X158979429Y-123742286D01*
X158979429Y-123742286D02*
X158884191Y-123789905D01*
X158884191Y-123789905D02*
X158550858Y-123789905D01*
X159979429Y-123647048D02*
X159979429Y-124313715D01*
X159550858Y-123647048D02*
X159550858Y-124170857D01*
X159550858Y-124170857D02*
X159598477Y-124266096D01*
X159598477Y-124266096D02*
X159693715Y-124313715D01*
X159693715Y-124313715D02*
X159836572Y-124313715D01*
X159836572Y-124313715D02*
X159931810Y-124266096D01*
X159931810Y-124266096D02*
X159979429Y-124218476D01*
X160408001Y-124266096D02*
X160503239Y-124313715D01*
X160503239Y-124313715D02*
X160693715Y-124313715D01*
X160693715Y-124313715D02*
X160788953Y-124266096D01*
X160788953Y-124266096D02*
X160836572Y-124170857D01*
X160836572Y-124170857D02*
X160836572Y-124123238D01*
X160836572Y-124123238D02*
X160788953Y-124028000D01*
X160788953Y-124028000D02*
X160693715Y-123980381D01*
X160693715Y-123980381D02*
X160550858Y-123980381D01*
X160550858Y-123980381D02*
X160455620Y-123932762D01*
X160455620Y-123932762D02*
X160408001Y-123837524D01*
X160408001Y-123837524D02*
X160408001Y-123789905D01*
X160408001Y-123789905D02*
X160455620Y-123694667D01*
X160455620Y-123694667D02*
X160550858Y-123647048D01*
X160550858Y-123647048D02*
X160693715Y-123647048D01*
X160693715Y-123647048D02*
X160788953Y-123694667D01*
X152503238Y-125923659D02*
X152169905Y-125447468D01*
X151931810Y-125923659D02*
X151931810Y-124923659D01*
X151931810Y-124923659D02*
X152312762Y-124923659D01*
X152312762Y-124923659D02*
X152408000Y-124971278D01*
X152408000Y-124971278D02*
X152455619Y-125018897D01*
X152455619Y-125018897D02*
X152503238Y-125114135D01*
X152503238Y-125114135D02*
X152503238Y-125256992D01*
X152503238Y-125256992D02*
X152455619Y-125352230D01*
X152455619Y-125352230D02*
X152408000Y-125399849D01*
X152408000Y-125399849D02*
X152312762Y-125447468D01*
X152312762Y-125447468D02*
X151931810Y-125447468D01*
X152788953Y-124923659D02*
X153360381Y-124923659D01*
X153074667Y-125923659D02*
X153074667Y-124923659D01*
X153693715Y-125923659D02*
X153693715Y-124923659D01*
X153693715Y-124923659D02*
X153931810Y-124923659D01*
X153931810Y-124923659D02*
X154074667Y-124971278D01*
X154074667Y-124971278D02*
X154169905Y-125066516D01*
X154169905Y-125066516D02*
X154217524Y-125161754D01*
X154217524Y-125161754D02*
X154265143Y-125352230D01*
X154265143Y-125352230D02*
X154265143Y-125495087D01*
X154265143Y-125495087D02*
X154217524Y-125685563D01*
X154217524Y-125685563D02*
X154169905Y-125780801D01*
X154169905Y-125780801D02*
X154074667Y-125876040D01*
X154074667Y-125876040D02*
X153931810Y-125923659D01*
X153931810Y-125923659D02*
X153693715Y-125923659D01*
X155312763Y-124923659D02*
X155884191Y-124923659D01*
X155598477Y-125923659D02*
X155598477Y-124923659D01*
X156598477Y-125876040D02*
X156503239Y-125923659D01*
X156503239Y-125923659D02*
X156312763Y-125923659D01*
X156312763Y-125923659D02*
X156217525Y-125876040D01*
X156217525Y-125876040D02*
X156169906Y-125780801D01*
X156169906Y-125780801D02*
X156169906Y-125399849D01*
X156169906Y-125399849D02*
X156217525Y-125304611D01*
X156217525Y-125304611D02*
X156312763Y-125256992D01*
X156312763Y-125256992D02*
X156503239Y-125256992D01*
X156503239Y-125256992D02*
X156598477Y-125304611D01*
X156598477Y-125304611D02*
X156646096Y-125399849D01*
X156646096Y-125399849D02*
X156646096Y-125495087D01*
X156646096Y-125495087D02*
X156169906Y-125590325D01*
X157074668Y-125923659D02*
X157074668Y-125256992D01*
X157074668Y-125352230D02*
X157122287Y-125304611D01*
X157122287Y-125304611D02*
X157217525Y-125256992D01*
X157217525Y-125256992D02*
X157360382Y-125256992D01*
X157360382Y-125256992D02*
X157455620Y-125304611D01*
X157455620Y-125304611D02*
X157503239Y-125399849D01*
X157503239Y-125399849D02*
X157503239Y-125923659D01*
X157503239Y-125399849D02*
X157550858Y-125304611D01*
X157550858Y-125304611D02*
X157646096Y-125256992D01*
X157646096Y-125256992D02*
X157788953Y-125256992D01*
X157788953Y-125256992D02*
X157884192Y-125304611D01*
X157884192Y-125304611D02*
X157931811Y-125399849D01*
X157931811Y-125399849D02*
X157931811Y-125923659D01*
X158408001Y-125256992D02*
X158408001Y-126256992D01*
X158408001Y-125304611D02*
X158503239Y-125256992D01*
X158503239Y-125256992D02*
X158693715Y-125256992D01*
X158693715Y-125256992D02*
X158788953Y-125304611D01*
X158788953Y-125304611D02*
X158836572Y-125352230D01*
X158836572Y-125352230D02*
X158884191Y-125447468D01*
X158884191Y-125447468D02*
X158884191Y-125733182D01*
X158884191Y-125733182D02*
X158836572Y-125828420D01*
X158836572Y-125828420D02*
X158788953Y-125876040D01*
X158788953Y-125876040D02*
X158693715Y-125923659D01*
X158693715Y-125923659D02*
X158503239Y-125923659D01*
X158503239Y-125923659D02*
X158408001Y-125876040D01*
X159931811Y-124923659D02*
X160265144Y-125923659D01*
X160265144Y-125923659D02*
X160598477Y-124923659D01*
X161455620Y-125923659D02*
X160884192Y-125923659D01*
X161169906Y-125923659D02*
X161169906Y-124923659D01*
X161169906Y-124923659D02*
X161074668Y-125066516D01*
X161074668Y-125066516D02*
X160979430Y-125161754D01*
X160979430Y-125161754D02*
X160884192Y-125209373D01*
X161884192Y-125828420D02*
X161931811Y-125876040D01*
X161931811Y-125876040D02*
X161884192Y-125923659D01*
X161884192Y-125923659D02*
X161836573Y-125876040D01*
X161836573Y-125876040D02*
X161884192Y-125828420D01*
X161884192Y-125828420D02*
X161884192Y-125923659D01*
X162550858Y-124923659D02*
X162646096Y-124923659D01*
X162646096Y-124923659D02*
X162741334Y-124971278D01*
X162741334Y-124971278D02*
X162788953Y-125018897D01*
X162788953Y-125018897D02*
X162836572Y-125114135D01*
X162836572Y-125114135D02*
X162884191Y-125304611D01*
X162884191Y-125304611D02*
X162884191Y-125542706D01*
X162884191Y-125542706D02*
X162836572Y-125733182D01*
X162836572Y-125733182D02*
X162788953Y-125828420D01*
X162788953Y-125828420D02*
X162741334Y-125876040D01*
X162741334Y-125876040D02*
X162646096Y-125923659D01*
X162646096Y-125923659D02*
X162550858Y-125923659D01*
X162550858Y-125923659D02*
X162455620Y-125876040D01*
X162455620Y-125876040D02*
X162408001Y-125828420D01*
X162408001Y-125828420D02*
X162360382Y-125733182D01*
X162360382Y-125733182D02*
X162312763Y-125542706D01*
X162312763Y-125542706D02*
X162312763Y-125304611D01*
X162312763Y-125304611D02*
X162360382Y-125114135D01*
X162360382Y-125114135D02*
X162408001Y-125018897D01*
X162408001Y-125018897D02*
X162455620Y-124971278D01*
X162455620Y-124971278D02*
X162550858Y-124923659D01*
X164646096Y-125923659D02*
X164312763Y-125447468D01*
X164074668Y-125923659D02*
X164074668Y-124923659D01*
X164074668Y-124923659D02*
X164455620Y-124923659D01*
X164455620Y-124923659D02*
X164550858Y-124971278D01*
X164550858Y-124971278D02*
X164598477Y-125018897D01*
X164598477Y-125018897D02*
X164646096Y-125114135D01*
X164646096Y-125114135D02*
X164646096Y-125256992D01*
X164646096Y-125256992D02*
X164598477Y-125352230D01*
X164598477Y-125352230D02*
X164550858Y-125399849D01*
X164550858Y-125399849D02*
X164455620Y-125447468D01*
X164455620Y-125447468D02*
X164074668Y-125447468D01*
X165455620Y-125876040D02*
X165360382Y-125923659D01*
X165360382Y-125923659D02*
X165169906Y-125923659D01*
X165169906Y-125923659D02*
X165074668Y-125876040D01*
X165074668Y-125876040D02*
X165027049Y-125780801D01*
X165027049Y-125780801D02*
X165027049Y-125399849D01*
X165027049Y-125399849D02*
X165074668Y-125304611D01*
X165074668Y-125304611D02*
X165169906Y-125256992D01*
X165169906Y-125256992D02*
X165360382Y-125256992D01*
X165360382Y-125256992D02*
X165455620Y-125304611D01*
X165455620Y-125304611D02*
X165503239Y-125399849D01*
X165503239Y-125399849D02*
X165503239Y-125495087D01*
X165503239Y-125495087D02*
X165027049Y-125590325D01*
X165836573Y-125256992D02*
X166074668Y-125923659D01*
X166074668Y-125923659D02*
X166312763Y-125256992D01*
X167788954Y-125399849D02*
X167931811Y-125447468D01*
X167931811Y-125447468D02*
X167979430Y-125495087D01*
X167979430Y-125495087D02*
X168027049Y-125590325D01*
X168027049Y-125590325D02*
X168027049Y-125733182D01*
X168027049Y-125733182D02*
X167979430Y-125828420D01*
X167979430Y-125828420D02*
X167931811Y-125876040D01*
X167931811Y-125876040D02*
X167836573Y-125923659D01*
X167836573Y-125923659D02*
X167455621Y-125923659D01*
X167455621Y-125923659D02*
X167455621Y-124923659D01*
X167455621Y-124923659D02*
X167788954Y-124923659D01*
X167788954Y-124923659D02*
X167884192Y-124971278D01*
X167884192Y-124971278D02*
X167931811Y-125018897D01*
X167931811Y-125018897D02*
X167979430Y-125114135D01*
X167979430Y-125114135D02*
X167979430Y-125209373D01*
X167979430Y-125209373D02*
X167931811Y-125304611D01*
X167931811Y-125304611D02*
X167884192Y-125352230D01*
X167884192Y-125352230D02*
X167788954Y-125399849D01*
X167788954Y-125399849D02*
X167455621Y-125399849D01*
X127871801Y-89691196D02*
X127395611Y-89691196D01*
X127395611Y-89691196D02*
X127347992Y-90167386D01*
X127347992Y-90167386D02*
X127395611Y-90119767D01*
X127395611Y-90119767D02*
X127490849Y-90072148D01*
X127490849Y-90072148D02*
X127728944Y-90072148D01*
X127728944Y-90072148D02*
X127824182Y-90119767D01*
X127824182Y-90119767D02*
X127871801Y-90167386D01*
X127871801Y-90167386D02*
X127919420Y-90262624D01*
X127919420Y-90262624D02*
X127919420Y-90500719D01*
X127919420Y-90500719D02*
X127871801Y-90595957D01*
X127871801Y-90595957D02*
X127824182Y-90643577D01*
X127824182Y-90643577D02*
X127728944Y-90691196D01*
X127728944Y-90691196D02*
X127490849Y-90691196D01*
X127490849Y-90691196D02*
X127395611Y-90643577D01*
X127395611Y-90643577D02*
X127347992Y-90595957D01*
X128205135Y-89691196D02*
X128538468Y-90691196D01*
X128538468Y-90691196D02*
X128871801Y-89691196D01*
X138702322Y-74346403D02*
X138702322Y-73727356D01*
X138702322Y-73727356D02*
X139083274Y-74060689D01*
X139083274Y-74060689D02*
X139083274Y-73917832D01*
X139083274Y-73917832D02*
X139130893Y-73822594D01*
X139130893Y-73822594D02*
X139178512Y-73774975D01*
X139178512Y-73774975D02*
X139273750Y-73727356D01*
X139273750Y-73727356D02*
X139511845Y-73727356D01*
X139511845Y-73727356D02*
X139607083Y-73774975D01*
X139607083Y-73774975D02*
X139654703Y-73822594D01*
X139654703Y-73822594D02*
X139702322Y-73917832D01*
X139702322Y-73917832D02*
X139702322Y-74203546D01*
X139702322Y-74203546D02*
X139654703Y-74298784D01*
X139654703Y-74298784D02*
X139607083Y-74346403D01*
X139416607Y-72584498D02*
X139416607Y-72108308D01*
X139702322Y-72679736D02*
X138702322Y-72346403D01*
X138702322Y-72346403D02*
X139702322Y-72013070D01*
X139702322Y-71679736D02*
X139035655Y-71679736D01*
X139130893Y-71679736D02*
X139083274Y-71632117D01*
X139083274Y-71632117D02*
X139035655Y-71536879D01*
X139035655Y-71536879D02*
X139035655Y-71394022D01*
X139035655Y-71394022D02*
X139083274Y-71298784D01*
X139083274Y-71298784D02*
X139178512Y-71251165D01*
X139178512Y-71251165D02*
X139702322Y-71251165D01*
X139178512Y-71251165D02*
X139083274Y-71203546D01*
X139083274Y-71203546D02*
X139035655Y-71108308D01*
X139035655Y-71108308D02*
X139035655Y-70965451D01*
X139035655Y-70965451D02*
X139083274Y-70870212D01*
X139083274Y-70870212D02*
X139178512Y-70822593D01*
X139178512Y-70822593D02*
X139702322Y-70822593D01*
X139035655Y-70346403D02*
X140035655Y-70346403D01*
X139083274Y-70346403D02*
X139035655Y-70251165D01*
X139035655Y-70251165D02*
X139035655Y-70060689D01*
X139035655Y-70060689D02*
X139083274Y-69965451D01*
X139083274Y-69965451D02*
X139130893Y-69917832D01*
X139130893Y-69917832D02*
X139226131Y-69870213D01*
X139226131Y-69870213D02*
X139511845Y-69870213D01*
X139511845Y-69870213D02*
X139607083Y-69917832D01*
X139607083Y-69917832D02*
X139654703Y-69965451D01*
X139654703Y-69965451D02*
X139702322Y-70060689D01*
X139702322Y-70060689D02*
X139702322Y-70251165D01*
X139702322Y-70251165D02*
X139654703Y-70346403D01*
X170864697Y-110372877D02*
X170531364Y-109896686D01*
X170293269Y-110372877D02*
X170293269Y-109372877D01*
X170293269Y-109372877D02*
X170674221Y-109372877D01*
X170674221Y-109372877D02*
X170769459Y-109420496D01*
X170769459Y-109420496D02*
X170817078Y-109468115D01*
X170817078Y-109468115D02*
X170864697Y-109563353D01*
X170864697Y-109563353D02*
X170864697Y-109706210D01*
X170864697Y-109706210D02*
X170817078Y-109801448D01*
X170817078Y-109801448D02*
X170769459Y-109849067D01*
X170769459Y-109849067D02*
X170674221Y-109896686D01*
X170674221Y-109896686D02*
X170293269Y-109896686D01*
X171150412Y-109372877D02*
X171721840Y-109372877D01*
X171436126Y-110372877D02*
X171436126Y-109372877D01*
X172055174Y-110372877D02*
X172055174Y-109372877D01*
X172055174Y-109372877D02*
X172293269Y-109372877D01*
X172293269Y-109372877D02*
X172436126Y-109420496D01*
X172436126Y-109420496D02*
X172531364Y-109515734D01*
X172531364Y-109515734D02*
X172578983Y-109610972D01*
X172578983Y-109610972D02*
X172626602Y-109801448D01*
X172626602Y-109801448D02*
X172626602Y-109944305D01*
X172626602Y-109944305D02*
X172578983Y-110134781D01*
X172578983Y-110134781D02*
X172531364Y-110230019D01*
X172531364Y-110230019D02*
X172436126Y-110325258D01*
X172436126Y-110325258D02*
X172293269Y-110372877D01*
X172293269Y-110372877D02*
X172055174Y-110372877D01*
X173055174Y-110372877D02*
X173055174Y-109372877D01*
X173531364Y-109706210D02*
X173531364Y-110372877D01*
X173531364Y-109801448D02*
X173578983Y-109753829D01*
X173578983Y-109753829D02*
X173674221Y-109706210D01*
X173674221Y-109706210D02*
X173817078Y-109706210D01*
X173817078Y-109706210D02*
X173912316Y-109753829D01*
X173912316Y-109753829D02*
X173959935Y-109849067D01*
X173959935Y-109849067D02*
X173959935Y-110372877D01*
X174436126Y-109991924D02*
X175198031Y-109991924D01*
X174817078Y-110372877D02*
X174817078Y-109610972D01*
X178032389Y-106810440D02*
X177556198Y-107143773D01*
X178032389Y-107381868D02*
X177032389Y-107381868D01*
X177032389Y-107381868D02*
X177032389Y-107000916D01*
X177032389Y-107000916D02*
X177080008Y-106905678D01*
X177080008Y-106905678D02*
X177127627Y-106858059D01*
X177127627Y-106858059D02*
X177222865Y-106810440D01*
X177222865Y-106810440D02*
X177365722Y-106810440D01*
X177365722Y-106810440D02*
X177460960Y-106858059D01*
X177460960Y-106858059D02*
X177508579Y-106905678D01*
X177508579Y-106905678D02*
X177556198Y-107000916D01*
X177556198Y-107000916D02*
X177556198Y-107381868D01*
X177032389Y-106524725D02*
X177032389Y-105953297D01*
X178032389Y-106239011D02*
X177032389Y-106239011D01*
X178032389Y-105619963D02*
X177032389Y-105619963D01*
X177032389Y-105619963D02*
X177032389Y-105381868D01*
X177032389Y-105381868D02*
X177080008Y-105239011D01*
X177080008Y-105239011D02*
X177175246Y-105143773D01*
X177175246Y-105143773D02*
X177270484Y-105096154D01*
X177270484Y-105096154D02*
X177460960Y-105048535D01*
X177460960Y-105048535D02*
X177603817Y-105048535D01*
X177603817Y-105048535D02*
X177794293Y-105096154D01*
X177794293Y-105096154D02*
X177889531Y-105143773D01*
X177889531Y-105143773D02*
X177984770Y-105239011D01*
X177984770Y-105239011D02*
X178032389Y-105381868D01*
X178032389Y-105381868D02*
X178032389Y-105619963D01*
X177032389Y-104715201D02*
X177032389Y-104096154D01*
X177032389Y-104096154D02*
X177413341Y-104429487D01*
X177413341Y-104429487D02*
X177413341Y-104286630D01*
X177413341Y-104286630D02*
X177460960Y-104191392D01*
X177460960Y-104191392D02*
X177508579Y-104143773D01*
X177508579Y-104143773D02*
X177603817Y-104096154D01*
X177603817Y-104096154D02*
X177841912Y-104096154D01*
X177841912Y-104096154D02*
X177937150Y-104143773D01*
X177937150Y-104143773D02*
X177984770Y-104191392D01*
X177984770Y-104191392D02*
X178032389Y-104286630D01*
X178032389Y-104286630D02*
X178032389Y-104572344D01*
X178032389Y-104572344D02*
X177984770Y-104667582D01*
X177984770Y-104667582D02*
X177937150Y-104715201D01*
X181409217Y-94907731D02*
X180933026Y-95241064D01*
X181409217Y-95479159D02*
X180409217Y-95479159D01*
X180409217Y-95479159D02*
X180409217Y-95098207D01*
X180409217Y-95098207D02*
X180456836Y-95002969D01*
X180456836Y-95002969D02*
X180504455Y-94955350D01*
X180504455Y-94955350D02*
X180599693Y-94907731D01*
X180599693Y-94907731D02*
X180742550Y-94907731D01*
X180742550Y-94907731D02*
X180837788Y-94955350D01*
X180837788Y-94955350D02*
X180885407Y-95002969D01*
X180885407Y-95002969D02*
X180933026Y-95098207D01*
X180933026Y-95098207D02*
X180933026Y-95479159D01*
X180409217Y-94622016D02*
X180409217Y-94050588D01*
X181409217Y-94336302D02*
X180409217Y-94336302D01*
X181409217Y-93717254D02*
X180409217Y-93717254D01*
X180409217Y-93717254D02*
X180409217Y-93479159D01*
X180409217Y-93479159D02*
X180456836Y-93336302D01*
X180456836Y-93336302D02*
X180552074Y-93241064D01*
X180552074Y-93241064D02*
X180647312Y-93193445D01*
X180647312Y-93193445D02*
X180837788Y-93145826D01*
X180837788Y-93145826D02*
X180980645Y-93145826D01*
X180980645Y-93145826D02*
X181171121Y-93193445D01*
X181171121Y-93193445D02*
X181266359Y-93241064D01*
X181266359Y-93241064D02*
X181361598Y-93336302D01*
X181361598Y-93336302D02*
X181409217Y-93479159D01*
X181409217Y-93479159D02*
X181409217Y-93717254D01*
X180504455Y-92764873D02*
X180456836Y-92717254D01*
X180456836Y-92717254D02*
X180409217Y-92622016D01*
X180409217Y-92622016D02*
X180409217Y-92383921D01*
X180409217Y-92383921D02*
X180456836Y-92288683D01*
X180456836Y-92288683D02*
X180504455Y-92241064D01*
X180504455Y-92241064D02*
X180599693Y-92193445D01*
X180599693Y-92193445D02*
X180694931Y-92193445D01*
X180694931Y-92193445D02*
X180837788Y-92241064D01*
X180837788Y-92241064D02*
X181409217Y-92812492D01*
X181409217Y-92812492D02*
X181409217Y-92193445D01*
X126728945Y-87169074D02*
X127062278Y-88169074D01*
X127062278Y-88169074D02*
X127395611Y-87169074D01*
X127728945Y-88169074D02*
X127728945Y-87169074D01*
X127728945Y-87169074D02*
X127967040Y-87169074D01*
X127967040Y-87169074D02*
X128109897Y-87216693D01*
X128109897Y-87216693D02*
X128205135Y-87311931D01*
X128205135Y-87311931D02*
X128252754Y-87407169D01*
X128252754Y-87407169D02*
X128300373Y-87597645D01*
X128300373Y-87597645D02*
X128300373Y-87740502D01*
X128300373Y-87740502D02*
X128252754Y-87930978D01*
X128252754Y-87930978D02*
X128205135Y-88026216D01*
X128205135Y-88026216D02*
X128109897Y-88121455D01*
X128109897Y-88121455D02*
X127967040Y-88169074D01*
X127967040Y-88169074D02*
X127728945Y-88169074D01*
X129300373Y-88073835D02*
X129252754Y-88121455D01*
X129252754Y-88121455D02*
X129109897Y-88169074D01*
X129109897Y-88169074D02*
X129014659Y-88169074D01*
X129014659Y-88169074D02*
X128871802Y-88121455D01*
X128871802Y-88121455D02*
X128776564Y-88026216D01*
X128776564Y-88026216D02*
X128728945Y-87930978D01*
X128728945Y-87930978D02*
X128681326Y-87740502D01*
X128681326Y-87740502D02*
X128681326Y-87597645D01*
X128681326Y-87597645D02*
X128728945Y-87407169D01*
X128728945Y-87407169D02*
X128776564Y-87311931D01*
X128776564Y-87311931D02*
X128871802Y-87216693D01*
X128871802Y-87216693D02*
X129014659Y-87169074D01*
X129014659Y-87169074D02*
X129109897Y-87169074D01*
X129109897Y-87169074D02*
X129252754Y-87216693D01*
X129252754Y-87216693D02*
X129300373Y-87264312D01*
X149007097Y-68251164D02*
X148007097Y-68251164D01*
X148007097Y-68251164D02*
X148721382Y-67917831D01*
X148721382Y-67917831D02*
X148007097Y-67584498D01*
X148007097Y-67584498D02*
X149007097Y-67584498D01*
X149007097Y-67108307D02*
X148007097Y-67108307D01*
X148959478Y-66679736D02*
X149007097Y-66536879D01*
X149007097Y-66536879D02*
X149007097Y-66298784D01*
X149007097Y-66298784D02*
X148959478Y-66203546D01*
X148959478Y-66203546D02*
X148911858Y-66155927D01*
X148911858Y-66155927D02*
X148816620Y-66108308D01*
X148816620Y-66108308D02*
X148721382Y-66108308D01*
X148721382Y-66108308D02*
X148626144Y-66155927D01*
X148626144Y-66155927D02*
X148578525Y-66203546D01*
X148578525Y-66203546D02*
X148530906Y-66298784D01*
X148530906Y-66298784D02*
X148483287Y-66489260D01*
X148483287Y-66489260D02*
X148435668Y-66584498D01*
X148435668Y-66584498D02*
X148388049Y-66632117D01*
X148388049Y-66632117D02*
X148292811Y-66679736D01*
X148292811Y-66679736D02*
X148197573Y-66679736D01*
X148197573Y-66679736D02*
X148102335Y-66632117D01*
X148102335Y-66632117D02*
X148054716Y-66584498D01*
X148054716Y-66584498D02*
X148007097Y-66489260D01*
X148007097Y-66489260D02*
X148007097Y-66251165D01*
X148007097Y-66251165D02*
X148054716Y-66108308D01*
X148007097Y-65489260D02*
X148007097Y-65298784D01*
X148007097Y-65298784D02*
X148054716Y-65203546D01*
X148054716Y-65203546D02*
X148149954Y-65108308D01*
X148149954Y-65108308D02*
X148340430Y-65060689D01*
X148340430Y-65060689D02*
X148673763Y-65060689D01*
X148673763Y-65060689D02*
X148864239Y-65108308D01*
X148864239Y-65108308D02*
X148959478Y-65203546D01*
X148959478Y-65203546D02*
X149007097Y-65298784D01*
X149007097Y-65298784D02*
X149007097Y-65489260D01*
X149007097Y-65489260D02*
X148959478Y-65584498D01*
X148959478Y-65584498D02*
X148864239Y-65679736D01*
X148864239Y-65679736D02*
X148673763Y-65727355D01*
X148673763Y-65727355D02*
X148340430Y-65727355D01*
X148340430Y-65727355D02*
X148149954Y-65679736D01*
X148149954Y-65679736D02*
X148054716Y-65584498D01*
X148054716Y-65584498D02*
X148007097Y-65489260D01*
X146465340Y-67734202D02*
X145989149Y-68067535D01*
X146465340Y-68305630D02*
X145465340Y-68305630D01*
X145465340Y-68305630D02*
X145465340Y-67924678D01*
X145465340Y-67924678D02*
X145512959Y-67829440D01*
X145512959Y-67829440D02*
X145560578Y-67781821D01*
X145560578Y-67781821D02*
X145655816Y-67734202D01*
X145655816Y-67734202D02*
X145798673Y-67734202D01*
X145798673Y-67734202D02*
X145893911Y-67781821D01*
X145893911Y-67781821D02*
X145941530Y-67829440D01*
X145941530Y-67829440D02*
X145989149Y-67924678D01*
X145989149Y-67924678D02*
X145989149Y-68305630D01*
X145941530Y-67305630D02*
X145941530Y-66972297D01*
X146465340Y-66829440D02*
X146465340Y-67305630D01*
X146465340Y-67305630D02*
X145465340Y-67305630D01*
X145465340Y-67305630D02*
X145465340Y-66829440D01*
X146417721Y-66448487D02*
X146465340Y-66305630D01*
X146465340Y-66305630D02*
X146465340Y-66067535D01*
X146465340Y-66067535D02*
X146417721Y-65972297D01*
X146417721Y-65972297D02*
X146370101Y-65924678D01*
X146370101Y-65924678D02*
X146274863Y-65877059D01*
X146274863Y-65877059D02*
X146179625Y-65877059D01*
X146179625Y-65877059D02*
X146084387Y-65924678D01*
X146084387Y-65924678D02*
X146036768Y-65972297D01*
X146036768Y-65972297D02*
X145989149Y-66067535D01*
X145989149Y-66067535D02*
X145941530Y-66258011D01*
X145941530Y-66258011D02*
X145893911Y-66353249D01*
X145893911Y-66353249D02*
X145846292Y-66400868D01*
X145846292Y-66400868D02*
X145751054Y-66448487D01*
X145751054Y-66448487D02*
X145655816Y-66448487D01*
X145655816Y-66448487D02*
X145560578Y-66400868D01*
X145560578Y-66400868D02*
X145512959Y-66353249D01*
X145512959Y-66353249D02*
X145465340Y-66258011D01*
X145465340Y-66258011D02*
X145465340Y-66019916D01*
X145465340Y-66019916D02*
X145512959Y-65877059D01*
X145941530Y-65448487D02*
X145941530Y-65115154D01*
X146465340Y-64972297D02*
X146465340Y-65448487D01*
X146465340Y-65448487D02*
X145465340Y-65448487D01*
X145465340Y-65448487D02*
X145465340Y-64972297D01*
X145465340Y-64686582D02*
X145465340Y-64115154D01*
X146465340Y-64400868D02*
X145465340Y-64400868D01*
X173783335Y-83813684D02*
X173450002Y-83813684D01*
X173450002Y-84337494D02*
X173450002Y-83337494D01*
X173450002Y-83337494D02*
X173926192Y-83337494D01*
X174450002Y-84337494D02*
X174354764Y-84289875D01*
X174354764Y-84289875D02*
X174307145Y-84242255D01*
X174307145Y-84242255D02*
X174259526Y-84147017D01*
X174259526Y-84147017D02*
X174259526Y-83861303D01*
X174259526Y-83861303D02*
X174307145Y-83766065D01*
X174307145Y-83766065D02*
X174354764Y-83718446D01*
X174354764Y-83718446D02*
X174450002Y-83670827D01*
X174450002Y-83670827D02*
X174592859Y-83670827D01*
X174592859Y-83670827D02*
X174688097Y-83718446D01*
X174688097Y-83718446D02*
X174735716Y-83766065D01*
X174735716Y-83766065D02*
X174783335Y-83861303D01*
X174783335Y-83861303D02*
X174783335Y-84147017D01*
X174783335Y-84147017D02*
X174735716Y-84242255D01*
X174735716Y-84242255D02*
X174688097Y-84289875D01*
X174688097Y-84289875D02*
X174592859Y-84337494D01*
X174592859Y-84337494D02*
X174450002Y-84337494D01*
X175211907Y-84337494D02*
X175211907Y-83670827D01*
X175211907Y-83861303D02*
X175259526Y-83766065D01*
X175259526Y-83766065D02*
X175307145Y-83718446D01*
X175307145Y-83718446D02*
X175402383Y-83670827D01*
X175402383Y-83670827D02*
X175497621Y-83670827D01*
X176259526Y-84289875D02*
X176164288Y-84337494D01*
X176164288Y-84337494D02*
X175973812Y-84337494D01*
X175973812Y-84337494D02*
X175878574Y-84289875D01*
X175878574Y-84289875D02*
X175830955Y-84242255D01*
X175830955Y-84242255D02*
X175783336Y-84147017D01*
X175783336Y-84147017D02*
X175783336Y-83861303D01*
X175783336Y-83861303D02*
X175830955Y-83766065D01*
X175830955Y-83766065D02*
X175878574Y-83718446D01*
X175878574Y-83718446D02*
X175973812Y-83670827D01*
X175973812Y-83670827D02*
X176164288Y-83670827D01*
X176164288Y-83670827D02*
X176259526Y-83718446D01*
X177069050Y-84289875D02*
X176973812Y-84337494D01*
X176973812Y-84337494D02*
X176783336Y-84337494D01*
X176783336Y-84337494D02*
X176688098Y-84289875D01*
X176688098Y-84289875D02*
X176640479Y-84194636D01*
X176640479Y-84194636D02*
X176640479Y-83813684D01*
X176640479Y-83813684D02*
X176688098Y-83718446D01*
X176688098Y-83718446D02*
X176783336Y-83670827D01*
X176783336Y-83670827D02*
X176973812Y-83670827D01*
X176973812Y-83670827D02*
X177069050Y-83718446D01*
X177069050Y-83718446D02*
X177116669Y-83813684D01*
X177116669Y-83813684D02*
X177116669Y-83908922D01*
X177116669Y-83908922D02*
X176640479Y-84004160D01*
X177545241Y-83956541D02*
X178307146Y-83956541D01*
X177926193Y-84337494D02*
X177926193Y-83575589D01*
X158239829Y-85381262D02*
X158287448Y-85333643D01*
X158287448Y-85333643D02*
X158382686Y-85286024D01*
X158382686Y-85286024D02*
X158620781Y-85286024D01*
X158620781Y-85286024D02*
X158716019Y-85333643D01*
X158716019Y-85333643D02*
X158763638Y-85381262D01*
X158763638Y-85381262D02*
X158811257Y-85476500D01*
X158811257Y-85476500D02*
X158811257Y-85571738D01*
X158811257Y-85571738D02*
X158763638Y-85714595D01*
X158763638Y-85714595D02*
X158192210Y-86286024D01*
X158192210Y-86286024D02*
X158811257Y-86286024D01*
X159239829Y-85905071D02*
X160001734Y-85905071D01*
X160906495Y-85619357D02*
X160906495Y-86286024D01*
X160668400Y-85238405D02*
X160430305Y-85952690D01*
X160430305Y-85952690D02*
X161049352Y-85952690D01*
X144538293Y-77988737D02*
X144538293Y-78464927D01*
X144538293Y-78464927D02*
X145014483Y-78512546D01*
X145014483Y-78512546D02*
X144966864Y-78464927D01*
X144966864Y-78464927D02*
X144919245Y-78369689D01*
X144919245Y-78369689D02*
X144919245Y-78131594D01*
X144919245Y-78131594D02*
X144966864Y-78036356D01*
X144966864Y-78036356D02*
X145014483Y-77988737D01*
X145014483Y-77988737D02*
X145109721Y-77941118D01*
X145109721Y-77941118D02*
X145347816Y-77941118D01*
X145347816Y-77941118D02*
X145443054Y-77988737D01*
X145443054Y-77988737D02*
X145490674Y-78036356D01*
X145490674Y-78036356D02*
X145538293Y-78131594D01*
X145538293Y-78131594D02*
X145538293Y-78369689D01*
X145538293Y-78369689D02*
X145490674Y-78464927D01*
X145490674Y-78464927D02*
X145443054Y-78512546D01*
X144538293Y-77655403D02*
X145538293Y-77322070D01*
X145538293Y-77322070D02*
X144538293Y-76988737D01*
D11*
X151551919Y-80854033D02*
X152266204Y-80854033D01*
X152266204Y-80854033D02*
X152409061Y-80901652D01*
X152409061Y-80901652D02*
X152504300Y-80996890D01*
X152504300Y-80996890D02*
X152551919Y-81139747D01*
X152551919Y-81139747D02*
X152551919Y-81234985D01*
X151647157Y-80425461D02*
X151599538Y-80377842D01*
X151599538Y-80377842D02*
X151551919Y-80282604D01*
X151551919Y-80282604D02*
X151551919Y-80044509D01*
X151551919Y-80044509D02*
X151599538Y-79949271D01*
X151599538Y-79949271D02*
X151647157Y-79901652D01*
X151647157Y-79901652D02*
X151742395Y-79854033D01*
X151742395Y-79854033D02*
X151837633Y-79854033D01*
X151837633Y-79854033D02*
X151980490Y-79901652D01*
X151980490Y-79901652D02*
X152551919Y-80473080D01*
X152551919Y-80473080D02*
X152551919Y-79854033D01*
X146269969Y-119804550D02*
X146317589Y-119852169D01*
X146317589Y-119852169D02*
X146365208Y-119995026D01*
X146365208Y-119995026D02*
X146365208Y-120090264D01*
X146365208Y-120090264D02*
X146317589Y-120233121D01*
X146317589Y-120233121D02*
X146222350Y-120328359D01*
X146222350Y-120328359D02*
X146127112Y-120375978D01*
X146127112Y-120375978D02*
X145936636Y-120423597D01*
X145936636Y-120423597D02*
X145793779Y-120423597D01*
X145793779Y-120423597D02*
X145603303Y-120375978D01*
X145603303Y-120375978D02*
X145508065Y-120328359D01*
X145508065Y-120328359D02*
X145412827Y-120233121D01*
X145412827Y-120233121D02*
X145365208Y-120090264D01*
X145365208Y-120090264D02*
X145365208Y-119995026D01*
X145365208Y-119995026D02*
X145412827Y-119852169D01*
X145412827Y-119852169D02*
X145460446Y-119804550D01*
X145365208Y-119471216D02*
X145365208Y-118852169D01*
X145365208Y-118852169D02*
X145746160Y-119185502D01*
X145746160Y-119185502D02*
X145746160Y-119042645D01*
X145746160Y-119042645D02*
X145793779Y-118947407D01*
X145793779Y-118947407D02*
X145841398Y-118899788D01*
X145841398Y-118899788D02*
X145936636Y-118852169D01*
X145936636Y-118852169D02*
X146174731Y-118852169D01*
X146174731Y-118852169D02*
X146269969Y-118899788D01*
X146269969Y-118899788D02*
X146317589Y-118947407D01*
X146317589Y-118947407D02*
X146365208Y-119042645D01*
X146365208Y-119042645D02*
X146365208Y-119328359D01*
X146365208Y-119328359D02*
X146317589Y-119423597D01*
X146317589Y-119423597D02*
X146269969Y-119471216D01*
X151272219Y-97514023D02*
X151986504Y-97514023D01*
X151986504Y-97514023D02*
X152129361Y-97561642D01*
X152129361Y-97561642D02*
X152224600Y-97656880D01*
X152224600Y-97656880D02*
X152272219Y-97799737D01*
X152272219Y-97799737D02*
X152272219Y-97894975D01*
X152272219Y-96514023D02*
X152272219Y-97085451D01*
X152272219Y-96799737D02*
X151272219Y-96799737D01*
X151272219Y-96799737D02*
X151415076Y-96894975D01*
X151415076Y-96894975D02*
X151510314Y-96990213D01*
X151510314Y-96990213D02*
X151557933Y-97085451D01*
X151272219Y-95894975D02*
X151272219Y-95799737D01*
X151272219Y-95799737D02*
X151319838Y-95704499D01*
X151319838Y-95704499D02*
X151367457Y-95656880D01*
X151367457Y-95656880D02*
X151462695Y-95609261D01*
X151462695Y-95609261D02*
X151653171Y-95561642D01*
X151653171Y-95561642D02*
X151891266Y-95561642D01*
X151891266Y-95561642D02*
X152081742Y-95609261D01*
X152081742Y-95609261D02*
X152176980Y-95656880D01*
X152176980Y-95656880D02*
X152224600Y-95704499D01*
X152224600Y-95704499D02*
X152272219Y-95799737D01*
X152272219Y-95799737D02*
X152272219Y-95894975D01*
X152272219Y-95894975D02*
X152224600Y-95990213D01*
X152224600Y-95990213D02*
X152176980Y-96037832D01*
X152176980Y-96037832D02*
X152081742Y-96085451D01*
X152081742Y-96085451D02*
X151891266Y-96133070D01*
X151891266Y-96133070D02*
X151653171Y-96133070D01*
X151653171Y-96133070D02*
X151462695Y-96085451D01*
X151462695Y-96085451D02*
X151367457Y-96037832D01*
X151367457Y-96037832D02*
X151319838Y-95990213D01*
X151319838Y-95990213D02*
X151272219Y-95894975D01*
X183700001Y-107272199D02*
X183223810Y-107605532D01*
X183700001Y-107843627D02*
X182700001Y-107843627D01*
X182700001Y-107843627D02*
X182700001Y-107462675D01*
X182700001Y-107462675D02*
X182747620Y-107367437D01*
X182747620Y-107367437D02*
X182795239Y-107319818D01*
X182795239Y-107319818D02*
X182890477Y-107272199D01*
X182890477Y-107272199D02*
X183033334Y-107272199D01*
X183033334Y-107272199D02*
X183128572Y-107319818D01*
X183128572Y-107319818D02*
X183176191Y-107367437D01*
X183176191Y-107367437D02*
X183223810Y-107462675D01*
X183223810Y-107462675D02*
X183223810Y-107843627D01*
X183700001Y-106319818D02*
X183700001Y-106891246D01*
X183700001Y-106605532D02*
X182700001Y-106605532D01*
X182700001Y-106605532D02*
X182842858Y-106700770D01*
X182842858Y-106700770D02*
X182938096Y-106796008D01*
X182938096Y-106796008D02*
X182985715Y-106891246D01*
X182700001Y-105700770D02*
X182700001Y-105605532D01*
X182700001Y-105605532D02*
X182747620Y-105510294D01*
X182747620Y-105510294D02*
X182795239Y-105462675D01*
X182795239Y-105462675D02*
X182890477Y-105415056D01*
X182890477Y-105415056D02*
X183080953Y-105367437D01*
X183080953Y-105367437D02*
X183319048Y-105367437D01*
X183319048Y-105367437D02*
X183509524Y-105415056D01*
X183509524Y-105415056D02*
X183604762Y-105462675D01*
X183604762Y-105462675D02*
X183652382Y-105510294D01*
X183652382Y-105510294D02*
X183700001Y-105605532D01*
X183700001Y-105605532D02*
X183700001Y-105700770D01*
X183700001Y-105700770D02*
X183652382Y-105796008D01*
X183652382Y-105796008D02*
X183604762Y-105843627D01*
X183604762Y-105843627D02*
X183509524Y-105891246D01*
X183509524Y-105891246D02*
X183319048Y-105938865D01*
X183319048Y-105938865D02*
X183080953Y-105938865D01*
X183080953Y-105938865D02*
X182890477Y-105891246D01*
X182890477Y-105891246D02*
X182795239Y-105843627D01*
X182795239Y-105843627D02*
X182747620Y-105796008D01*
X182747620Y-105796008D02*
X182700001Y-105700770D01*
X136261071Y-58774688D02*
X135927738Y-58298497D01*
X135689643Y-58774688D02*
X135689643Y-57774688D01*
X135689643Y-57774688D02*
X136070595Y-57774688D01*
X136070595Y-57774688D02*
X136165833Y-57822307D01*
X136165833Y-57822307D02*
X136213452Y-57869926D01*
X136213452Y-57869926D02*
X136261071Y-57965164D01*
X136261071Y-57965164D02*
X136261071Y-58108021D01*
X136261071Y-58108021D02*
X136213452Y-58203259D01*
X136213452Y-58203259D02*
X136165833Y-58250878D01*
X136165833Y-58250878D02*
X136070595Y-58298497D01*
X136070595Y-58298497D02*
X135689643Y-58298497D01*
X136594405Y-57774688D02*
X137261071Y-57774688D01*
X137261071Y-57774688D02*
X136832500Y-58774688D01*
X152442819Y-68396133D02*
X153157104Y-68396133D01*
X153157104Y-68396133D02*
X153299961Y-68443752D01*
X153299961Y-68443752D02*
X153395200Y-68538990D01*
X153395200Y-68538990D02*
X153442819Y-68681847D01*
X153442819Y-68681847D02*
X153442819Y-68777085D01*
X153442819Y-67396133D02*
X153442819Y-67967561D01*
X153442819Y-67681847D02*
X152442819Y-67681847D01*
X152442819Y-67681847D02*
X152585676Y-67777085D01*
X152585676Y-67777085D02*
X152680914Y-67872323D01*
X152680914Y-67872323D02*
X152728533Y-67967561D01*
X138790419Y-97722356D02*
X137790419Y-97722356D01*
X137790419Y-97722356D02*
X138790419Y-97150928D01*
X138790419Y-97150928D02*
X137790419Y-97150928D01*
X137790419Y-96817594D02*
X137790419Y-96246166D01*
X138790419Y-96531880D02*
X137790419Y-96531880D01*
X138695180Y-95341404D02*
X138742800Y-95389023D01*
X138742800Y-95389023D02*
X138790419Y-95531880D01*
X138790419Y-95531880D02*
X138790419Y-95627118D01*
X138790419Y-95627118D02*
X138742800Y-95769975D01*
X138742800Y-95769975D02*
X138647561Y-95865213D01*
X138647561Y-95865213D02*
X138552323Y-95912832D01*
X138552323Y-95912832D02*
X138361847Y-95960451D01*
X138361847Y-95960451D02*
X138218990Y-95960451D01*
X138218990Y-95960451D02*
X138028514Y-95912832D01*
X138028514Y-95912832D02*
X137933276Y-95865213D01*
X137933276Y-95865213D02*
X137838038Y-95769975D01*
X137838038Y-95769975D02*
X137790419Y-95627118D01*
X137790419Y-95627118D02*
X137790419Y-95531880D01*
X137790419Y-95531880D02*
X137838038Y-95389023D01*
X137838038Y-95389023D02*
X137885657Y-95341404D01*
X138790419Y-94389023D02*
X138790419Y-94960451D01*
X138790419Y-94674737D02*
X137790419Y-94674737D01*
X137790419Y-94674737D02*
X137933276Y-94769975D01*
X137933276Y-94769975D02*
X138028514Y-94865213D01*
X138028514Y-94865213D02*
X138076133Y-94960451D01*
X148552119Y-124428033D02*
X149266404Y-124428033D01*
X149266404Y-124428033D02*
X149409261Y-124475652D01*
X149409261Y-124475652D02*
X149504500Y-124570890D01*
X149504500Y-124570890D02*
X149552119Y-124713747D01*
X149552119Y-124713747D02*
X149552119Y-124808985D01*
X148552119Y-124047080D02*
X148552119Y-123428033D01*
X148552119Y-123428033D02*
X148933071Y-123761366D01*
X148933071Y-123761366D02*
X148933071Y-123618509D01*
X148933071Y-123618509D02*
X148980690Y-123523271D01*
X148980690Y-123523271D02*
X149028309Y-123475652D01*
X149028309Y-123475652D02*
X149123547Y-123428033D01*
X149123547Y-123428033D02*
X149361642Y-123428033D01*
X149361642Y-123428033D02*
X149456880Y-123475652D01*
X149456880Y-123475652D02*
X149504500Y-123523271D01*
X149504500Y-123523271D02*
X149552119Y-123618509D01*
X149552119Y-123618509D02*
X149552119Y-123904223D01*
X149552119Y-123904223D02*
X149504500Y-123999461D01*
X149504500Y-123999461D02*
X149456880Y-124047080D01*
X165072419Y-94738323D02*
X165786704Y-94738323D01*
X165786704Y-94738323D02*
X165929561Y-94785942D01*
X165929561Y-94785942D02*
X166024800Y-94881180D01*
X166024800Y-94881180D02*
X166072419Y-95024037D01*
X166072419Y-95024037D02*
X166072419Y-95119275D01*
X166072419Y-93738323D02*
X166072419Y-94309751D01*
X166072419Y-94024037D02*
X165072419Y-94024037D01*
X165072419Y-94024037D02*
X165215276Y-94119275D01*
X165215276Y-94119275D02*
X165310514Y-94214513D01*
X165310514Y-94214513D02*
X165358133Y-94309751D01*
X165072419Y-92833561D02*
X165072419Y-93309751D01*
X165072419Y-93309751D02*
X165548609Y-93357370D01*
X165548609Y-93357370D02*
X165500990Y-93309751D01*
X165500990Y-93309751D02*
X165453371Y-93214513D01*
X165453371Y-93214513D02*
X165453371Y-92976418D01*
X165453371Y-92976418D02*
X165500990Y-92881180D01*
X165500990Y-92881180D02*
X165548609Y-92833561D01*
X165548609Y-92833561D02*
X165643847Y-92785942D01*
X165643847Y-92785942D02*
X165881942Y-92785942D01*
X165881942Y-92785942D02*
X165977180Y-92833561D01*
X165977180Y-92833561D02*
X166024800Y-92881180D01*
X166024800Y-92881180D02*
X166072419Y-92976418D01*
X166072419Y-92976418D02*
X166072419Y-93214513D01*
X166072419Y-93214513D02*
X166024800Y-93309751D01*
X166024800Y-93309751D02*
X165977180Y-93357370D01*
X183905768Y-97504235D02*
X183429577Y-97837568D01*
X183905768Y-98075663D02*
X182905768Y-98075663D01*
X182905768Y-98075663D02*
X182905768Y-97694711D01*
X182905768Y-97694711D02*
X182953387Y-97599473D01*
X182953387Y-97599473D02*
X183001006Y-97551854D01*
X183001006Y-97551854D02*
X183096244Y-97504235D01*
X183096244Y-97504235D02*
X183239101Y-97504235D01*
X183239101Y-97504235D02*
X183334339Y-97551854D01*
X183334339Y-97551854D02*
X183381958Y-97599473D01*
X183381958Y-97599473D02*
X183429577Y-97694711D01*
X183429577Y-97694711D02*
X183429577Y-98075663D01*
X183905768Y-97028044D02*
X183905768Y-96837568D01*
X183905768Y-96837568D02*
X183858149Y-96742330D01*
X183858149Y-96742330D02*
X183810529Y-96694711D01*
X183810529Y-96694711D02*
X183667672Y-96599473D01*
X183667672Y-96599473D02*
X183477196Y-96551854D01*
X183477196Y-96551854D02*
X183096244Y-96551854D01*
X183096244Y-96551854D02*
X183001006Y-96599473D01*
X183001006Y-96599473D02*
X182953387Y-96647092D01*
X182953387Y-96647092D02*
X182905768Y-96742330D01*
X182905768Y-96742330D02*
X182905768Y-96932806D01*
X182905768Y-96932806D02*
X182953387Y-97028044D01*
X182953387Y-97028044D02*
X183001006Y-97075663D01*
X183001006Y-97075663D02*
X183096244Y-97123282D01*
X183096244Y-97123282D02*
X183334339Y-97123282D01*
X183334339Y-97123282D02*
X183429577Y-97075663D01*
X183429577Y-97075663D02*
X183477196Y-97028044D01*
X183477196Y-97028044D02*
X183524815Y-96932806D01*
X183524815Y-96932806D02*
X183524815Y-96742330D01*
X183524815Y-96742330D02*
X183477196Y-96647092D01*
X183477196Y-96647092D02*
X183429577Y-96599473D01*
X183429577Y-96599473D02*
X183334339Y-96551854D01*
X151216619Y-86314433D02*
X151930904Y-86314433D01*
X151930904Y-86314433D02*
X152073761Y-86362052D01*
X152073761Y-86362052D02*
X152169000Y-86457290D01*
X152169000Y-86457290D02*
X152216619Y-86600147D01*
X152216619Y-86600147D02*
X152216619Y-86695385D01*
X151216619Y-85933480D02*
X151216619Y-85266814D01*
X151216619Y-85266814D02*
X152216619Y-85695385D01*
D12*
X129071880Y-71022318D02*
X129071880Y-72050413D01*
X129071880Y-72050413D02*
X129132357Y-72171365D01*
X129132357Y-72171365D02*
X129192833Y-72231842D01*
X129192833Y-72231842D02*
X129313785Y-72292318D01*
X129313785Y-72292318D02*
X129555690Y-72292318D01*
X129555690Y-72292318D02*
X129676642Y-72231842D01*
X129676642Y-72231842D02*
X129737119Y-72171365D01*
X129737119Y-72171365D02*
X129797595Y-72050413D01*
X129797595Y-72050413D02*
X129797595Y-71022318D01*
X131007118Y-71022318D02*
X130402356Y-71022318D01*
X130402356Y-71022318D02*
X130341880Y-71627080D01*
X130341880Y-71627080D02*
X130402356Y-71566603D01*
X130402356Y-71566603D02*
X130523309Y-71506127D01*
X130523309Y-71506127D02*
X130825690Y-71506127D01*
X130825690Y-71506127D02*
X130946642Y-71566603D01*
X130946642Y-71566603D02*
X131007118Y-71627080D01*
X131007118Y-71627080D02*
X131067595Y-71748032D01*
X131067595Y-71748032D02*
X131067595Y-72050413D01*
X131067595Y-72050413D02*
X131007118Y-72171365D01*
X131007118Y-72171365D02*
X130946642Y-72231842D01*
X130946642Y-72231842D02*
X130825690Y-72292318D01*
X130825690Y-72292318D02*
X130523309Y-72292318D01*
X130523309Y-72292318D02*
X130402356Y-72231842D01*
X130402356Y-72231842D02*
X130341880Y-72171365D01*
D11*
X151224319Y-91859433D02*
X151938604Y-91859433D01*
X151938604Y-91859433D02*
X152081461Y-91907052D01*
X152081461Y-91907052D02*
X152176700Y-92002290D01*
X152176700Y-92002290D02*
X152224319Y-92145147D01*
X152224319Y-92145147D02*
X152224319Y-92240385D01*
X151652890Y-91240385D02*
X151605271Y-91335623D01*
X151605271Y-91335623D02*
X151557652Y-91383242D01*
X151557652Y-91383242D02*
X151462414Y-91430861D01*
X151462414Y-91430861D02*
X151414795Y-91430861D01*
X151414795Y-91430861D02*
X151319557Y-91383242D01*
X151319557Y-91383242D02*
X151271938Y-91335623D01*
X151271938Y-91335623D02*
X151224319Y-91240385D01*
X151224319Y-91240385D02*
X151224319Y-91049909D01*
X151224319Y-91049909D02*
X151271938Y-90954671D01*
X151271938Y-90954671D02*
X151319557Y-90907052D01*
X151319557Y-90907052D02*
X151414795Y-90859433D01*
X151414795Y-90859433D02*
X151462414Y-90859433D01*
X151462414Y-90859433D02*
X151557652Y-90907052D01*
X151557652Y-90907052D02*
X151605271Y-90954671D01*
X151605271Y-90954671D02*
X151652890Y-91049909D01*
X151652890Y-91049909D02*
X151652890Y-91240385D01*
X151652890Y-91240385D02*
X151700509Y-91335623D01*
X151700509Y-91335623D02*
X151748128Y-91383242D01*
X151748128Y-91383242D02*
X151843366Y-91430861D01*
X151843366Y-91430861D02*
X152033842Y-91430861D01*
X152033842Y-91430861D02*
X152129080Y-91383242D01*
X152129080Y-91383242D02*
X152176700Y-91335623D01*
X152176700Y-91335623D02*
X152224319Y-91240385D01*
X152224319Y-91240385D02*
X152224319Y-91049909D01*
X152224319Y-91049909D02*
X152176700Y-90954671D01*
X152176700Y-90954671D02*
X152129080Y-90907052D01*
X152129080Y-90907052D02*
X152033842Y-90859433D01*
X152033842Y-90859433D02*
X151843366Y-90859433D01*
X151843366Y-90859433D02*
X151748128Y-90907052D01*
X151748128Y-90907052D02*
X151700509Y-90954671D01*
X151700509Y-90954671D02*
X151652890Y-91049909D01*
X160090706Y-75868205D02*
X159614515Y-76201538D01*
X160090706Y-76439633D02*
X159090706Y-76439633D01*
X159090706Y-76439633D02*
X159090706Y-76058681D01*
X159090706Y-76058681D02*
X159138325Y-75963443D01*
X159138325Y-75963443D02*
X159185944Y-75915824D01*
X159185944Y-75915824D02*
X159281182Y-75868205D01*
X159281182Y-75868205D02*
X159424039Y-75868205D01*
X159424039Y-75868205D02*
X159519277Y-75915824D01*
X159519277Y-75915824D02*
X159566896Y-75963443D01*
X159566896Y-75963443D02*
X159614515Y-76058681D01*
X159614515Y-76058681D02*
X159614515Y-76439633D01*
X159090706Y-75011062D02*
X159090706Y-75201538D01*
X159090706Y-75201538D02*
X159138325Y-75296776D01*
X159138325Y-75296776D02*
X159185944Y-75344395D01*
X159185944Y-75344395D02*
X159328801Y-75439633D01*
X159328801Y-75439633D02*
X159519277Y-75487252D01*
X159519277Y-75487252D02*
X159900229Y-75487252D01*
X159900229Y-75487252D02*
X159995467Y-75439633D01*
X159995467Y-75439633D02*
X160043087Y-75392014D01*
X160043087Y-75392014D02*
X160090706Y-75296776D01*
X160090706Y-75296776D02*
X160090706Y-75106300D01*
X160090706Y-75106300D02*
X160043087Y-75011062D01*
X160043087Y-75011062D02*
X159995467Y-74963443D01*
X159995467Y-74963443D02*
X159900229Y-74915824D01*
X159900229Y-74915824D02*
X159662134Y-74915824D01*
X159662134Y-74915824D02*
X159566896Y-74963443D01*
X159566896Y-74963443D02*
X159519277Y-75011062D01*
X159519277Y-75011062D02*
X159471658Y-75106300D01*
X159471658Y-75106300D02*
X159471658Y-75296776D01*
X159471658Y-75296776D02*
X159519277Y-75392014D01*
X159519277Y-75392014D02*
X159566896Y-75439633D01*
X159566896Y-75439633D02*
X159662134Y-75487252D01*
X164953961Y-83031803D02*
X165668246Y-83031803D01*
X165668246Y-83031803D02*
X165811103Y-83079422D01*
X165811103Y-83079422D02*
X165906342Y-83174660D01*
X165906342Y-83174660D02*
X165953961Y-83317517D01*
X165953961Y-83317517D02*
X165953961Y-83412755D01*
X165953961Y-82031803D02*
X165953961Y-82603231D01*
X165953961Y-82317517D02*
X164953961Y-82317517D01*
X164953961Y-82317517D02*
X165096818Y-82412755D01*
X165096818Y-82412755D02*
X165192056Y-82507993D01*
X165192056Y-82507993D02*
X165239675Y-82603231D01*
X165287294Y-81174660D02*
X165953961Y-81174660D01*
X164906342Y-81412755D02*
X165620627Y-81650850D01*
X165620627Y-81650850D02*
X165620627Y-81031803D01*
X165623786Y-112296472D02*
X165623786Y-113010757D01*
X165623786Y-113010757D02*
X165576167Y-113153614D01*
X165576167Y-113153614D02*
X165480929Y-113248853D01*
X165480929Y-113248853D02*
X165338072Y-113296472D01*
X165338072Y-113296472D02*
X165242834Y-113296472D01*
X166623786Y-113296472D02*
X166052358Y-113296472D01*
X166338072Y-113296472D02*
X166338072Y-112296472D01*
X166338072Y-112296472D02*
X166242834Y-112439329D01*
X166242834Y-112439329D02*
X166147596Y-112534567D01*
X166147596Y-112534567D02*
X166052358Y-112582186D01*
X167480929Y-112296472D02*
X167290453Y-112296472D01*
X167290453Y-112296472D02*
X167195215Y-112344091D01*
X167195215Y-112344091D02*
X167147596Y-112391710D01*
X167147596Y-112391710D02*
X167052358Y-112534567D01*
X167052358Y-112534567D02*
X167004739Y-112725043D01*
X167004739Y-112725043D02*
X167004739Y-113105995D01*
X167004739Y-113105995D02*
X167052358Y-113201233D01*
X167052358Y-113201233D02*
X167099977Y-113248853D01*
X167099977Y-113248853D02*
X167195215Y-113296472D01*
X167195215Y-113296472D02*
X167385691Y-113296472D01*
X167385691Y-113296472D02*
X167480929Y-113248853D01*
X167480929Y-113248853D02*
X167528548Y-113201233D01*
X167528548Y-113201233D02*
X167576167Y-113105995D01*
X167576167Y-113105995D02*
X167576167Y-112867900D01*
X167576167Y-112867900D02*
X167528548Y-112772662D01*
X167528548Y-112772662D02*
X167480929Y-112725043D01*
X167480929Y-112725043D02*
X167385691Y-112677424D01*
X167385691Y-112677424D02*
X167195215Y-112677424D01*
X167195215Y-112677424D02*
X167099977Y-112725043D01*
X167099977Y-112725043D02*
X167052358Y-112772662D01*
X167052358Y-112772662D02*
X167004739Y-112867900D01*
X123591806Y-94523666D02*
X122591806Y-94523666D01*
X122591806Y-94523666D02*
X122591806Y-94142714D01*
X122591806Y-94142714D02*
X122639425Y-94047476D01*
X122639425Y-94047476D02*
X122687044Y-93999857D01*
X122687044Y-93999857D02*
X122782282Y-93952238D01*
X122782282Y-93952238D02*
X122925139Y-93952238D01*
X122925139Y-93952238D02*
X123020377Y-93999857D01*
X123020377Y-93999857D02*
X123067996Y-94047476D01*
X123067996Y-94047476D02*
X123115615Y-94142714D01*
X123115615Y-94142714D02*
X123115615Y-94523666D01*
X123591806Y-93380809D02*
X123544187Y-93476047D01*
X123544187Y-93476047D02*
X123496567Y-93523666D01*
X123496567Y-93523666D02*
X123401329Y-93571285D01*
X123401329Y-93571285D02*
X123115615Y-93571285D01*
X123115615Y-93571285D02*
X123020377Y-93523666D01*
X123020377Y-93523666D02*
X122972758Y-93476047D01*
X122972758Y-93476047D02*
X122925139Y-93380809D01*
X122925139Y-93380809D02*
X122925139Y-93237952D01*
X122925139Y-93237952D02*
X122972758Y-93142714D01*
X122972758Y-93142714D02*
X123020377Y-93095095D01*
X123020377Y-93095095D02*
X123115615Y-93047476D01*
X123115615Y-93047476D02*
X123401329Y-93047476D01*
X123401329Y-93047476D02*
X123496567Y-93095095D01*
X123496567Y-93095095D02*
X123544187Y-93142714D01*
X123544187Y-93142714D02*
X123591806Y-93237952D01*
X123591806Y-93237952D02*
X123591806Y-93380809D01*
X122925139Y-92714142D02*
X123591806Y-92523666D01*
X123591806Y-92523666D02*
X123115615Y-92333190D01*
X123115615Y-92333190D02*
X123591806Y-92142714D01*
X123591806Y-92142714D02*
X122925139Y-91952238D01*
X123544187Y-91190333D02*
X123591806Y-91285571D01*
X123591806Y-91285571D02*
X123591806Y-91476047D01*
X123591806Y-91476047D02*
X123544187Y-91571285D01*
X123544187Y-91571285D02*
X123448948Y-91618904D01*
X123448948Y-91618904D02*
X123067996Y-91618904D01*
X123067996Y-91618904D02*
X122972758Y-91571285D01*
X122972758Y-91571285D02*
X122925139Y-91476047D01*
X122925139Y-91476047D02*
X122925139Y-91285571D01*
X122925139Y-91285571D02*
X122972758Y-91190333D01*
X122972758Y-91190333D02*
X123067996Y-91142714D01*
X123067996Y-91142714D02*
X123163234Y-91142714D01*
X123163234Y-91142714D02*
X123258472Y-91618904D01*
X123591806Y-90714142D02*
X122925139Y-90714142D01*
X123115615Y-90714142D02*
X123020377Y-90666523D01*
X123020377Y-90666523D02*
X122972758Y-90618904D01*
X122972758Y-90618904D02*
X122925139Y-90523666D01*
X122925139Y-90523666D02*
X122925139Y-90428428D01*
X123591806Y-90095094D02*
X122591806Y-90095094D01*
X122972758Y-90095094D02*
X122925139Y-89999856D01*
X122925139Y-89999856D02*
X122925139Y-89809380D01*
X122925139Y-89809380D02*
X122972758Y-89714142D01*
X122972758Y-89714142D02*
X123020377Y-89666523D01*
X123020377Y-89666523D02*
X123115615Y-89618904D01*
X123115615Y-89618904D02*
X123401329Y-89618904D01*
X123401329Y-89618904D02*
X123496567Y-89666523D01*
X123496567Y-89666523D02*
X123544187Y-89714142D01*
X123544187Y-89714142D02*
X123591806Y-89809380D01*
X123591806Y-89809380D02*
X123591806Y-89999856D01*
X123591806Y-89999856D02*
X123544187Y-90095094D01*
X123591806Y-89047475D02*
X123544187Y-89142713D01*
X123544187Y-89142713D02*
X123496567Y-89190332D01*
X123496567Y-89190332D02*
X123401329Y-89237951D01*
X123401329Y-89237951D02*
X123115615Y-89237951D01*
X123115615Y-89237951D02*
X123020377Y-89190332D01*
X123020377Y-89190332D02*
X122972758Y-89142713D01*
X122972758Y-89142713D02*
X122925139Y-89047475D01*
X122925139Y-89047475D02*
X122925139Y-88904618D01*
X122925139Y-88904618D02*
X122972758Y-88809380D01*
X122972758Y-88809380D02*
X123020377Y-88761761D01*
X123020377Y-88761761D02*
X123115615Y-88714142D01*
X123115615Y-88714142D02*
X123401329Y-88714142D01*
X123401329Y-88714142D02*
X123496567Y-88761761D01*
X123496567Y-88761761D02*
X123544187Y-88809380D01*
X123544187Y-88809380D02*
X123591806Y-88904618D01*
X123591806Y-88904618D02*
X123591806Y-89047475D01*
X123591806Y-87856999D02*
X123067996Y-87856999D01*
X123067996Y-87856999D02*
X122972758Y-87904618D01*
X122972758Y-87904618D02*
X122925139Y-87999856D01*
X122925139Y-87999856D02*
X122925139Y-88190332D01*
X122925139Y-88190332D02*
X122972758Y-88285570D01*
X123544187Y-87856999D02*
X123591806Y-87952237D01*
X123591806Y-87952237D02*
X123591806Y-88190332D01*
X123591806Y-88190332D02*
X123544187Y-88285570D01*
X123544187Y-88285570D02*
X123448948Y-88333189D01*
X123448948Y-88333189D02*
X123353710Y-88333189D01*
X123353710Y-88333189D02*
X123258472Y-88285570D01*
X123258472Y-88285570D02*
X123210853Y-88190332D01*
X123210853Y-88190332D02*
X123210853Y-87952237D01*
X123210853Y-87952237D02*
X123163234Y-87856999D01*
X123591806Y-87380808D02*
X122925139Y-87380808D01*
X123115615Y-87380808D02*
X123020377Y-87333189D01*
X123020377Y-87333189D02*
X122972758Y-87285570D01*
X122972758Y-87285570D02*
X122925139Y-87190332D01*
X122925139Y-87190332D02*
X122925139Y-87095094D01*
X123591806Y-86333189D02*
X122591806Y-86333189D01*
X123544187Y-86333189D02*
X123591806Y-86428427D01*
X123591806Y-86428427D02*
X123591806Y-86618903D01*
X123591806Y-86618903D02*
X123544187Y-86714141D01*
X123544187Y-86714141D02*
X123496567Y-86761760D01*
X123496567Y-86761760D02*
X123401329Y-86809379D01*
X123401329Y-86809379D02*
X123115615Y-86809379D01*
X123115615Y-86809379D02*
X123020377Y-86761760D01*
X123020377Y-86761760D02*
X122972758Y-86714141D01*
X122972758Y-86714141D02*
X122925139Y-86618903D01*
X122925139Y-86618903D02*
X122925139Y-86428427D01*
X122925139Y-86428427D02*
X122972758Y-86333189D01*
X123591806Y-85333189D02*
X123591806Y-85904617D01*
X123591806Y-85618903D02*
X122591806Y-85618903D01*
X122591806Y-85618903D02*
X122734663Y-85714141D01*
X122734663Y-85714141D02*
X122829901Y-85809379D01*
X122829901Y-85809379D02*
X122877520Y-85904617D01*
X150369919Y-73140333D02*
X151084204Y-73140333D01*
X151084204Y-73140333D02*
X151227061Y-73187952D01*
X151227061Y-73187952D02*
X151322300Y-73283190D01*
X151322300Y-73283190D02*
X151369919Y-73426047D01*
X151369919Y-73426047D02*
X151369919Y-73521285D01*
X150703252Y-72235571D02*
X151369919Y-72235571D01*
X150322300Y-72473666D02*
X151036585Y-72711761D01*
X151036585Y-72711761D02*
X151036585Y-72092714D01*
X163188866Y-89028819D02*
X163188866Y-89743104D01*
X163188866Y-89743104D02*
X163141247Y-89885961D01*
X163141247Y-89885961D02*
X163046009Y-89981200D01*
X163046009Y-89981200D02*
X162903152Y-90028819D01*
X162903152Y-90028819D02*
X162807914Y-90028819D01*
X163712676Y-90028819D02*
X163903152Y-90028819D01*
X163903152Y-90028819D02*
X163998390Y-89981200D01*
X163998390Y-89981200D02*
X164046009Y-89933580D01*
X164046009Y-89933580D02*
X164141247Y-89790723D01*
X164141247Y-89790723D02*
X164188866Y-89600247D01*
X164188866Y-89600247D02*
X164188866Y-89219295D01*
X164188866Y-89219295D02*
X164141247Y-89124057D01*
X164141247Y-89124057D02*
X164093628Y-89076438D01*
X164093628Y-89076438D02*
X163998390Y-89028819D01*
X163998390Y-89028819D02*
X163807914Y-89028819D01*
X163807914Y-89028819D02*
X163712676Y-89076438D01*
X163712676Y-89076438D02*
X163665057Y-89124057D01*
X163665057Y-89124057D02*
X163617438Y-89219295D01*
X163617438Y-89219295D02*
X163617438Y-89457390D01*
X163617438Y-89457390D02*
X163665057Y-89552628D01*
X163665057Y-89552628D02*
X163712676Y-89600247D01*
X163712676Y-89600247D02*
X163807914Y-89647866D01*
X163807914Y-89647866D02*
X163998390Y-89647866D01*
X163998390Y-89647866D02*
X164093628Y-89600247D01*
X164093628Y-89600247D02*
X164141247Y-89552628D01*
X164141247Y-89552628D02*
X164188866Y-89457390D01*
X143977595Y-78886619D02*
X143977595Y-79696142D01*
X143977595Y-79696142D02*
X144025214Y-79791380D01*
X144025214Y-79791380D02*
X144072833Y-79839000D01*
X144072833Y-79839000D02*
X144168071Y-79886619D01*
X144168071Y-79886619D02*
X144358547Y-79886619D01*
X144358547Y-79886619D02*
X144453785Y-79839000D01*
X144453785Y-79839000D02*
X144501404Y-79791380D01*
X144501404Y-79791380D02*
X144549023Y-79696142D01*
X144549023Y-79696142D02*
X144549023Y-78886619D01*
X144977595Y-78981857D02*
X145025214Y-78934238D01*
X145025214Y-78934238D02*
X145120452Y-78886619D01*
X145120452Y-78886619D02*
X145358547Y-78886619D01*
X145358547Y-78886619D02*
X145453785Y-78934238D01*
X145453785Y-78934238D02*
X145501404Y-78981857D01*
X145501404Y-78981857D02*
X145549023Y-79077095D01*
X145549023Y-79077095D02*
X145549023Y-79172333D01*
X145549023Y-79172333D02*
X145501404Y-79315190D01*
X145501404Y-79315190D02*
X144929976Y-79886619D01*
X144929976Y-79886619D02*
X145549023Y-79886619D01*
X136174419Y-62071833D02*
X136888704Y-62071833D01*
X136888704Y-62071833D02*
X137031561Y-62119452D01*
X137031561Y-62119452D02*
X137126800Y-62214690D01*
X137126800Y-62214690D02*
X137174419Y-62357547D01*
X137174419Y-62357547D02*
X137174419Y-62452785D01*
X136174419Y-61119452D02*
X136174419Y-61595642D01*
X136174419Y-61595642D02*
X136650609Y-61643261D01*
X136650609Y-61643261D02*
X136602990Y-61595642D01*
X136602990Y-61595642D02*
X136555371Y-61500404D01*
X136555371Y-61500404D02*
X136555371Y-61262309D01*
X136555371Y-61262309D02*
X136602990Y-61167071D01*
X136602990Y-61167071D02*
X136650609Y-61119452D01*
X136650609Y-61119452D02*
X136745847Y-61071833D01*
X136745847Y-61071833D02*
X136983942Y-61071833D01*
X136983942Y-61071833D02*
X137079180Y-61119452D01*
X137079180Y-61119452D02*
X137126800Y-61167071D01*
X137126800Y-61167071D02*
X137174419Y-61262309D01*
X137174419Y-61262309D02*
X137174419Y-61500404D01*
X137174419Y-61500404D02*
X137126800Y-61595642D01*
X137126800Y-61595642D02*
X137079180Y-61643261D01*
D12*
X133031617Y-83815449D02*
X132971141Y-83936401D01*
X132971141Y-83936401D02*
X132850189Y-84057354D01*
X132850189Y-84057354D02*
X132668760Y-84238782D01*
X132668760Y-84238782D02*
X132608284Y-84359735D01*
X132608284Y-84359735D02*
X132608284Y-84480687D01*
X132910665Y-84420211D02*
X132850189Y-84541163D01*
X132850189Y-84541163D02*
X132729236Y-84662116D01*
X132729236Y-84662116D02*
X132487331Y-84722592D01*
X132487331Y-84722592D02*
X132063998Y-84722592D01*
X132063998Y-84722592D02*
X131822093Y-84662116D01*
X131822093Y-84662116D02*
X131701141Y-84541163D01*
X131701141Y-84541163D02*
X131640665Y-84420211D01*
X131640665Y-84420211D02*
X131640665Y-84178306D01*
X131640665Y-84178306D02*
X131701141Y-84057354D01*
X131701141Y-84057354D02*
X131822093Y-83936401D01*
X131822093Y-83936401D02*
X132063998Y-83875925D01*
X132063998Y-83875925D02*
X132487331Y-83875925D01*
X132487331Y-83875925D02*
X132729236Y-83936401D01*
X132729236Y-83936401D02*
X132850189Y-84057354D01*
X132850189Y-84057354D02*
X132910665Y-84178306D01*
X132910665Y-84178306D02*
X132910665Y-84420211D01*
X132910665Y-82666401D02*
X132910665Y-83392116D01*
X132910665Y-83029259D02*
X131640665Y-83029259D01*
X131640665Y-83029259D02*
X131822093Y-83150211D01*
X131822093Y-83150211D02*
X131943046Y-83271163D01*
X131943046Y-83271163D02*
X132003522Y-83392116D01*
D11*
X181813340Y-77073752D02*
X181480007Y-76597561D01*
X181241912Y-77073752D02*
X181241912Y-76073752D01*
X181241912Y-76073752D02*
X181622864Y-76073752D01*
X181622864Y-76073752D02*
X181718102Y-76121371D01*
X181718102Y-76121371D02*
X181765721Y-76168990D01*
X181765721Y-76168990D02*
X181813340Y-76264228D01*
X181813340Y-76264228D02*
X181813340Y-76407085D01*
X181813340Y-76407085D02*
X181765721Y-76502323D01*
X181765721Y-76502323D02*
X181718102Y-76549942D01*
X181718102Y-76549942D02*
X181622864Y-76597561D01*
X181622864Y-76597561D02*
X181241912Y-76597561D01*
X182384769Y-76502323D02*
X182289531Y-76454704D01*
X182289531Y-76454704D02*
X182241912Y-76407085D01*
X182241912Y-76407085D02*
X182194293Y-76311847D01*
X182194293Y-76311847D02*
X182194293Y-76264228D01*
X182194293Y-76264228D02*
X182241912Y-76168990D01*
X182241912Y-76168990D02*
X182289531Y-76121371D01*
X182289531Y-76121371D02*
X182384769Y-76073752D01*
X182384769Y-76073752D02*
X182575245Y-76073752D01*
X182575245Y-76073752D02*
X182670483Y-76121371D01*
X182670483Y-76121371D02*
X182718102Y-76168990D01*
X182718102Y-76168990D02*
X182765721Y-76264228D01*
X182765721Y-76264228D02*
X182765721Y-76311847D01*
X182765721Y-76311847D02*
X182718102Y-76407085D01*
X182718102Y-76407085D02*
X182670483Y-76454704D01*
X182670483Y-76454704D02*
X182575245Y-76502323D01*
X182575245Y-76502323D02*
X182384769Y-76502323D01*
X182384769Y-76502323D02*
X182289531Y-76549942D01*
X182289531Y-76549942D02*
X182241912Y-76597561D01*
X182241912Y-76597561D02*
X182194293Y-76692799D01*
X182194293Y-76692799D02*
X182194293Y-76883275D01*
X182194293Y-76883275D02*
X182241912Y-76978513D01*
X182241912Y-76978513D02*
X182289531Y-77026133D01*
X182289531Y-77026133D02*
X182384769Y-77073752D01*
X182384769Y-77073752D02*
X182575245Y-77073752D01*
X182575245Y-77073752D02*
X182670483Y-77026133D01*
X182670483Y-77026133D02*
X182718102Y-76978513D01*
X182718102Y-76978513D02*
X182765721Y-76883275D01*
X182765721Y-76883275D02*
X182765721Y-76692799D01*
X182765721Y-76692799D02*
X182718102Y-76597561D01*
X182718102Y-76597561D02*
X182670483Y-76549942D01*
X182670483Y-76549942D02*
X182575245Y-76502323D01*
X159270444Y-116296399D02*
X159270444Y-116772590D01*
X158937111Y-115772590D02*
X159270444Y-116296399D01*
X159270444Y-116296399D02*
X159603777Y-115772590D01*
X159889492Y-115867828D02*
X159937111Y-115820209D01*
X159937111Y-115820209D02*
X160032349Y-115772590D01*
X160032349Y-115772590D02*
X160270444Y-115772590D01*
X160270444Y-115772590D02*
X160365682Y-115820209D01*
X160365682Y-115820209D02*
X160413301Y-115867828D01*
X160413301Y-115867828D02*
X160460920Y-115963066D01*
X160460920Y-115963066D02*
X160460920Y-116058304D01*
X160460920Y-116058304D02*
X160413301Y-116201161D01*
X160413301Y-116201161D02*
X159841873Y-116772590D01*
X159841873Y-116772590D02*
X160460920Y-116772590D01*
D12*
X123656923Y-112050271D02*
X123233589Y-111445509D01*
X122931208Y-112050271D02*
X122931208Y-110780271D01*
X122931208Y-110780271D02*
X123415018Y-110780271D01*
X123415018Y-110780271D02*
X123535970Y-110840747D01*
X123535970Y-110840747D02*
X123596447Y-110901223D01*
X123596447Y-110901223D02*
X123656923Y-111022175D01*
X123656923Y-111022175D02*
X123656923Y-111203604D01*
X123656923Y-111203604D02*
X123596447Y-111324556D01*
X123596447Y-111324556D02*
X123535970Y-111385033D01*
X123535970Y-111385033D02*
X123415018Y-111445509D01*
X123415018Y-111445509D02*
X122931208Y-111445509D01*
X124685018Y-111989795D02*
X124564066Y-112050271D01*
X124564066Y-112050271D02*
X124322161Y-112050271D01*
X124322161Y-112050271D02*
X124201208Y-111989795D01*
X124201208Y-111989795D02*
X124140732Y-111868842D01*
X124140732Y-111868842D02*
X124140732Y-111385033D01*
X124140732Y-111385033D02*
X124201208Y-111264080D01*
X124201208Y-111264080D02*
X124322161Y-111203604D01*
X124322161Y-111203604D02*
X124564066Y-111203604D01*
X124564066Y-111203604D02*
X124685018Y-111264080D01*
X124685018Y-111264080D02*
X124745494Y-111385033D01*
X124745494Y-111385033D02*
X124745494Y-111505985D01*
X124745494Y-111505985D02*
X124140732Y-111626937D01*
X125229303Y-111989795D02*
X125350256Y-112050271D01*
X125350256Y-112050271D02*
X125592160Y-112050271D01*
X125592160Y-112050271D02*
X125713113Y-111989795D01*
X125713113Y-111989795D02*
X125773589Y-111868842D01*
X125773589Y-111868842D02*
X125773589Y-111808366D01*
X125773589Y-111808366D02*
X125713113Y-111687414D01*
X125713113Y-111687414D02*
X125592160Y-111626937D01*
X125592160Y-111626937D02*
X125410732Y-111626937D01*
X125410732Y-111626937D02*
X125289779Y-111566461D01*
X125289779Y-111566461D02*
X125229303Y-111445509D01*
X125229303Y-111445509D02*
X125229303Y-111385033D01*
X125229303Y-111385033D02*
X125289779Y-111264080D01*
X125289779Y-111264080D02*
X125410732Y-111203604D01*
X125410732Y-111203604D02*
X125592160Y-111203604D01*
X125592160Y-111203604D02*
X125713113Y-111264080D01*
X126801684Y-111989795D02*
X126680732Y-112050271D01*
X126680732Y-112050271D02*
X126438827Y-112050271D01*
X126438827Y-112050271D02*
X126317874Y-111989795D01*
X126317874Y-111989795D02*
X126257398Y-111868842D01*
X126257398Y-111868842D02*
X126257398Y-111385033D01*
X126257398Y-111385033D02*
X126317874Y-111264080D01*
X126317874Y-111264080D02*
X126438827Y-111203604D01*
X126438827Y-111203604D02*
X126680732Y-111203604D01*
X126680732Y-111203604D02*
X126801684Y-111264080D01*
X126801684Y-111264080D02*
X126862160Y-111385033D01*
X126862160Y-111385033D02*
X126862160Y-111505985D01*
X126862160Y-111505985D02*
X126257398Y-111626937D01*
X127225017Y-111203604D02*
X127708826Y-111203604D01*
X127406445Y-110780271D02*
X127406445Y-111868842D01*
X127406445Y-111868842D02*
X127466922Y-111989795D01*
X127466922Y-111989795D02*
X127587874Y-112050271D01*
X127587874Y-112050271D02*
X127708826Y-112050271D01*
X128797398Y-112050271D02*
X128071683Y-112050271D01*
X128434540Y-112050271D02*
X128434540Y-110780271D01*
X128434540Y-110780271D02*
X128313588Y-110961699D01*
X128313588Y-110961699D02*
X128192636Y-111082652D01*
X128192636Y-111082652D02*
X128071683Y-111143128D01*
D11*
X162571766Y-77789219D02*
X162571766Y-78503504D01*
X162571766Y-78503504D02*
X162524147Y-78646361D01*
X162524147Y-78646361D02*
X162428909Y-78741600D01*
X162428909Y-78741600D02*
X162286052Y-78789219D01*
X162286052Y-78789219D02*
X162190814Y-78789219D01*
X163476528Y-77789219D02*
X163286052Y-77789219D01*
X163286052Y-77789219D02*
X163190814Y-77836838D01*
X163190814Y-77836838D02*
X163143195Y-77884457D01*
X163143195Y-77884457D02*
X163047957Y-78027314D01*
X163047957Y-78027314D02*
X163000338Y-78217790D01*
X163000338Y-78217790D02*
X163000338Y-78598742D01*
X163000338Y-78598742D02*
X163047957Y-78693980D01*
X163047957Y-78693980D02*
X163095576Y-78741600D01*
X163095576Y-78741600D02*
X163190814Y-78789219D01*
X163190814Y-78789219D02*
X163381290Y-78789219D01*
X163381290Y-78789219D02*
X163476528Y-78741600D01*
X163476528Y-78741600D02*
X163524147Y-78693980D01*
X163524147Y-78693980D02*
X163571766Y-78598742D01*
X163571766Y-78598742D02*
X163571766Y-78360647D01*
X163571766Y-78360647D02*
X163524147Y-78265409D01*
X163524147Y-78265409D02*
X163476528Y-78217790D01*
X163476528Y-78217790D02*
X163381290Y-78170171D01*
X163381290Y-78170171D02*
X163190814Y-78170171D01*
X163190814Y-78170171D02*
X163095576Y-78217790D01*
X163095576Y-78217790D02*
X163047957Y-78265409D01*
X163047957Y-78265409D02*
X163000338Y-78360647D01*
X152532581Y-119871723D02*
X152484962Y-119919343D01*
X152484962Y-119919343D02*
X152342105Y-119966962D01*
X152342105Y-119966962D02*
X152246867Y-119966962D01*
X152246867Y-119966962D02*
X152104010Y-119919343D01*
X152104010Y-119919343D02*
X152008772Y-119824104D01*
X152008772Y-119824104D02*
X151961153Y-119728866D01*
X151961153Y-119728866D02*
X151913534Y-119538390D01*
X151913534Y-119538390D02*
X151913534Y-119395533D01*
X151913534Y-119395533D02*
X151961153Y-119205057D01*
X151961153Y-119205057D02*
X152008772Y-119109819D01*
X152008772Y-119109819D02*
X152104010Y-119014581D01*
X152104010Y-119014581D02*
X152246867Y-118966962D01*
X152246867Y-118966962D02*
X152342105Y-118966962D01*
X152342105Y-118966962D02*
X152484962Y-119014581D01*
X152484962Y-119014581D02*
X152532581Y-119062200D01*
X153437343Y-118966962D02*
X152961153Y-118966962D01*
X152961153Y-118966962D02*
X152913534Y-119443152D01*
X152913534Y-119443152D02*
X152961153Y-119395533D01*
X152961153Y-119395533D02*
X153056391Y-119347914D01*
X153056391Y-119347914D02*
X153294486Y-119347914D01*
X153294486Y-119347914D02*
X153389724Y-119395533D01*
X153389724Y-119395533D02*
X153437343Y-119443152D01*
X153437343Y-119443152D02*
X153484962Y-119538390D01*
X153484962Y-119538390D02*
X153484962Y-119776485D01*
X153484962Y-119776485D02*
X153437343Y-119871723D01*
X153437343Y-119871723D02*
X153389724Y-119919343D01*
X153389724Y-119919343D02*
X153294486Y-119966962D01*
X153294486Y-119966962D02*
X153056391Y-119966962D01*
X153056391Y-119966962D02*
X152961153Y-119919343D01*
X152961153Y-119919343D02*
X152913534Y-119871723D01*
X136192260Y-119332728D02*
X136192260Y-119808919D01*
X135858927Y-118808919D02*
X136192260Y-119332728D01*
X136192260Y-119332728D02*
X136525593Y-118808919D01*
X137382736Y-119808919D02*
X136811308Y-119808919D01*
X137097022Y-119808919D02*
X137097022Y-118808919D01*
X137097022Y-118808919D02*
X137001784Y-118951776D01*
X137001784Y-118951776D02*
X136906546Y-119047014D01*
X136906546Y-119047014D02*
X136811308Y-119094633D01*
X160237876Y-100817919D02*
X160237876Y-101532204D01*
X160237876Y-101532204D02*
X160190257Y-101675061D01*
X160190257Y-101675061D02*
X160095019Y-101770300D01*
X160095019Y-101770300D02*
X159952162Y-101817919D01*
X159952162Y-101817919D02*
X159856924Y-101817919D01*
X161237876Y-101817919D02*
X160666448Y-101817919D01*
X160952162Y-101817919D02*
X160952162Y-100817919D01*
X160952162Y-100817919D02*
X160856924Y-100960776D01*
X160856924Y-100960776D02*
X160761686Y-101056014D01*
X160761686Y-101056014D02*
X160666448Y-101103633D01*
X161618829Y-100913157D02*
X161666448Y-100865538D01*
X161666448Y-100865538D02*
X161761686Y-100817919D01*
X161761686Y-100817919D02*
X161999781Y-100817919D01*
X161999781Y-100817919D02*
X162095019Y-100865538D01*
X162095019Y-100865538D02*
X162142638Y-100913157D01*
X162142638Y-100913157D02*
X162190257Y-101008395D01*
X162190257Y-101008395D02*
X162190257Y-101103633D01*
X162190257Y-101103633D02*
X162142638Y-101246490D01*
X162142638Y-101246490D02*
X161571210Y-101817919D01*
X161571210Y-101817919D02*
X162190257Y-101817919D01*
X149992219Y-109068923D02*
X150706504Y-109068923D01*
X150706504Y-109068923D02*
X150849361Y-109116542D01*
X150849361Y-109116542D02*
X150944600Y-109211780D01*
X150944600Y-109211780D02*
X150992219Y-109354637D01*
X150992219Y-109354637D02*
X150992219Y-109449875D01*
X150992219Y-108068923D02*
X150992219Y-108640351D01*
X150992219Y-108354637D02*
X149992219Y-108354637D01*
X149992219Y-108354637D02*
X150135076Y-108449875D01*
X150135076Y-108449875D02*
X150230314Y-108545113D01*
X150230314Y-108545113D02*
X150277933Y-108640351D01*
X150992219Y-107116542D02*
X150992219Y-107687970D01*
X150992219Y-107402256D02*
X149992219Y-107402256D01*
X149992219Y-107402256D02*
X150135076Y-107497494D01*
X150135076Y-107497494D02*
X150230314Y-107592732D01*
X150230314Y-107592732D02*
X150277933Y-107687970D01*
X150028119Y-103789423D02*
X150742404Y-103789423D01*
X150742404Y-103789423D02*
X150885261Y-103837042D01*
X150885261Y-103837042D02*
X150980500Y-103932280D01*
X150980500Y-103932280D02*
X151028119Y-104075137D01*
X151028119Y-104075137D02*
X151028119Y-104170375D01*
X151028119Y-102789423D02*
X151028119Y-103360851D01*
X151028119Y-103075137D02*
X150028119Y-103075137D01*
X150028119Y-103075137D02*
X150170976Y-103170375D01*
X150170976Y-103170375D02*
X150266214Y-103265613D01*
X150266214Y-103265613D02*
X150313833Y-103360851D01*
X150028119Y-102456089D02*
X150028119Y-101837042D01*
X150028119Y-101837042D02*
X150409071Y-102170375D01*
X150409071Y-102170375D02*
X150409071Y-102027518D01*
X150409071Y-102027518D02*
X150456690Y-101932280D01*
X150456690Y-101932280D02*
X150504309Y-101884661D01*
X150504309Y-101884661D02*
X150599547Y-101837042D01*
X150599547Y-101837042D02*
X150837642Y-101837042D01*
X150837642Y-101837042D02*
X150932880Y-101884661D01*
X150932880Y-101884661D02*
X150980500Y-101932280D01*
X150980500Y-101932280D02*
X151028119Y-102027518D01*
X151028119Y-102027518D02*
X151028119Y-102313232D01*
X151028119Y-102313232D02*
X150980500Y-102408470D01*
X150980500Y-102408470D02*
X150932880Y-102456089D01*
D13*
%TO.C,J2*%
X153097100Y-81850700D02*
X153097100Y-80520700D01*
X154427100Y-81850700D02*
X153097100Y-81850700D01*
X155697100Y-79190700D02*
X158297100Y-79190700D01*
X155697100Y-81850700D02*
X155697100Y-79190700D01*
X155697100Y-81850700D02*
X158297100Y-81850700D01*
X158297100Y-81850700D02*
X158297100Y-79190700D01*
%TO.C,C3*%
X143095700Y-118885748D02*
X143095700Y-120308252D01*
X144915700Y-118885748D02*
X144915700Y-120308252D01*
%TO.C,J10*%
X152817400Y-98034500D02*
X152817400Y-96704500D01*
X154147400Y-98034500D02*
X152817400Y-98034500D01*
X155417400Y-95374500D02*
X158017400Y-95374500D01*
X155417400Y-98034500D02*
X155417400Y-95374500D01*
X155417400Y-98034500D02*
X158017400Y-98034500D01*
X158017400Y-98034500D02*
X158017400Y-95374500D01*
%TO.C,R10*%
X182283977Y-101882702D02*
X182283977Y-103336830D01*
X184103977Y-101882702D02*
X184103977Y-103336830D01*
%TO.C,R7*%
X140486100Y-58260700D02*
X140556100Y-58260700D01*
X140486100Y-58260700D02*
G75*
G02*
X137746100Y-58260700I-1370000J0D01*
G01*
X137746100Y-58260700D02*
G75*
G02*
X140486100Y-58260700I1370000J0D01*
G01*
%TO.C,J1*%
X153988000Y-62692800D02*
X160308000Y-62692800D01*
X153988000Y-73432800D02*
X153988000Y-62692800D01*
X153988000Y-73432800D02*
X160308000Y-73432800D01*
X154448000Y-73432800D02*
X154448000Y-62692800D01*
X159748000Y-73432800D02*
X159748000Y-62692800D01*
X159808000Y-73672800D02*
X160548000Y-73672800D01*
X160308000Y-73432800D02*
X160308000Y-62692800D01*
X160548000Y-73672800D02*
X160548000Y-73172800D01*
%TO.C,NTC1*%
X135965600Y-96179500D02*
X135965600Y-96249500D01*
X137335600Y-94809500D02*
G75*
G02*
X134595600Y-94809500I-1370000J0D01*
G01*
X134595600Y-94809500D02*
G75*
G02*
X137335600Y-94809500I1370000J0D01*
G01*
%TO.C,J3*%
X132737300Y-122764700D02*
X132737300Y-125424700D01*
X145497300Y-122764700D02*
X132737300Y-122764700D01*
X145497300Y-122764700D02*
X145497300Y-125424700D01*
X145497300Y-125424700D02*
X132737300Y-125424700D01*
X146767300Y-122764700D02*
X148097300Y-122764700D01*
X148097300Y-122764700D02*
X148097300Y-124094700D01*
%TO.C,J15*%
X166617600Y-88558800D02*
X172937600Y-88558800D01*
X166617600Y-99298800D02*
X166617600Y-88558800D01*
X166617600Y-99298800D02*
X172937600Y-99298800D01*
X167077600Y-99298800D02*
X167077600Y-88558800D01*
X172377600Y-99298800D02*
X172377600Y-88558800D01*
X172437600Y-99538800D02*
X173177600Y-99538800D01*
X172937600Y-99298800D02*
X172937600Y-88558800D01*
X173177600Y-99538800D02*
X173177600Y-99038800D01*
%TO.C,R9*%
X182449918Y-93166508D02*
X182449918Y-94620636D01*
X184269918Y-93166508D02*
X184269918Y-94620636D01*
%TO.C,J7*%
X152761800Y-87311100D02*
X152761800Y-85981100D01*
X154091800Y-87311100D02*
X152761800Y-87311100D01*
X155361800Y-84651100D02*
X157961800Y-84651100D01*
X155361800Y-87311100D02*
X155361800Y-84651100D01*
X155361800Y-87311100D02*
X157961800Y-87311100D01*
X157961800Y-87311100D02*
X157961800Y-84651100D01*
D10*
%TO.C,U5*%
X122039500Y-68353000D02*
X138039500Y-68353000D01*
X122039500Y-75083000D02*
X122039500Y-68353000D01*
X138039500Y-68353000D02*
X138039500Y-75083000D01*
X138039500Y-75083000D02*
X122039500Y-75083000D01*
D13*
%TO.C,J8*%
X152769500Y-92856100D02*
X152769500Y-91526100D01*
X154099500Y-92856100D02*
X152769500Y-92856100D01*
X155369500Y-90196100D02*
X157969500Y-90196100D01*
X155369500Y-92856100D02*
X155369500Y-90196100D01*
X155369500Y-92856100D02*
X157969500Y-92856100D01*
X157969500Y-92856100D02*
X157969500Y-90196100D01*
%TO.C,R6*%
X162511700Y-75743400D02*
X162441700Y-75743400D01*
X165251700Y-75743400D02*
G75*
G02*
X162511700Y-75743400I-1370000J0D01*
G01*
X162511700Y-75743400D02*
G75*
G02*
X165251700Y-75743400I1370000J0D01*
G01*
%TO.C,J14*%
X166580800Y-76837900D02*
X172900800Y-76837900D01*
X166580800Y-87577900D02*
X166580800Y-76837900D01*
X166580800Y-87577900D02*
X172900800Y-87577900D01*
X167040800Y-87577900D02*
X167040800Y-76837900D01*
X172340800Y-87577900D02*
X172340800Y-76837900D01*
X172400800Y-87817900D02*
X173140800Y-87817900D01*
X172900800Y-87577900D02*
X172900800Y-76837900D01*
X173140800Y-87817900D02*
X173140800Y-87317900D01*
%TO.C,J16*%
X163412100Y-101026600D02*
X169732100Y-101026600D01*
X163412100Y-111766600D02*
X163412100Y-101026600D01*
X163412100Y-111766600D02*
X169732100Y-111766600D01*
X163872100Y-111766600D02*
X163872100Y-101026600D01*
X169172100Y-111766600D02*
X169172100Y-101026600D01*
X169232100Y-112006600D02*
X169972100Y-112006600D01*
X169732100Y-111766600D02*
X169732100Y-101026600D01*
X169972100Y-112006600D02*
X169972100Y-111506600D01*
%TO.C,Powerboard1*%
X129646300Y-86222600D02*
X130976300Y-86222600D01*
X129646300Y-87552600D02*
X129646300Y-86222600D01*
X129646300Y-88822600D02*
X129646300Y-93962600D01*
X129646300Y-88822600D02*
X132306300Y-88822600D01*
X129646300Y-93962600D02*
X132306300Y-93962600D01*
X132306300Y-88822600D02*
X132306300Y-93962600D01*
%TO.C,J4*%
X142175100Y-70207000D02*
X142175100Y-75407000D01*
X142745100Y-70207000D02*
X142175100Y-70207000D01*
X142745100Y-75407000D02*
X142175100Y-75407000D01*
X145285100Y-70207000D02*
X144265100Y-70207000D01*
X145285100Y-75407000D02*
X144265100Y-75407000D01*
X147825100Y-70207000D02*
X146805100Y-70207000D01*
X147825100Y-75407000D02*
X146805100Y-75407000D01*
X149345100Y-68767000D02*
X149345100Y-70207000D01*
X149915100Y-70207000D02*
X149345100Y-70207000D01*
X149915100Y-70207000D02*
X149915100Y-75407000D01*
X149915100Y-75407000D02*
X149345100Y-75407000D01*
%TO.C,J9*%
X162192200Y-90574000D02*
X163522200Y-90574000D01*
X162192200Y-91904000D02*
X162192200Y-90574000D01*
X162192200Y-93174000D02*
X162192200Y-98314000D01*
X162192200Y-93174000D02*
X164852200Y-93174000D01*
X162192200Y-98314000D02*
X164852200Y-98314000D01*
X164852200Y-93174000D02*
X164852200Y-98314000D01*
%TO.C,U2*%
X142089500Y-80431800D02*
X142089500Y-116111800D01*
X142089500Y-116111800D02*
X147389500Y-116111800D01*
X143739500Y-80431800D02*
X142089500Y-80431800D01*
X147389500Y-80431800D02*
X145739500Y-80431800D01*
X147389500Y-116111800D02*
X147389500Y-80431800D01*
X145739500Y-80431800D02*
G75*
G02*
X143739500Y-80431800I-1000000J0D01*
G01*
%TO.C,J5*%
X137719600Y-63068500D02*
X137719600Y-61738500D01*
X139049600Y-63068500D02*
X137719600Y-63068500D01*
X140319600Y-60408500D02*
X142919600Y-60408500D01*
X140319600Y-63068500D02*
X140319600Y-60408500D01*
X140319600Y-63068500D02*
X142919600Y-63068500D01*
X142919600Y-63068500D02*
X142919600Y-60408500D01*
D14*
%TO.C,Q1*%
X133391000Y-76613600D02*
X133391000Y-87153600D01*
X133391000Y-87153600D02*
X136586000Y-87153600D01*
X138081000Y-76613600D02*
X133391000Y-76613600D01*
D13*
%TO.C,R8*%
X177992904Y-75606523D02*
X179447032Y-75606523D01*
X177992904Y-77426523D02*
X179447032Y-77426523D01*
%TO.C,Y2*%
X156623300Y-117018000D02*
X162873300Y-117018000D01*
X156623300Y-122068000D02*
X162873300Y-122068000D01*
X156623300Y-122068000D02*
G75*
G02*
X156623300Y-117018000I0J2525000D01*
G01*
X162873300Y-117018000D02*
G75*
G02*
X162873300Y-122068000I0J-2525000D01*
G01*
D14*
%TO.C,Reset1*%
X129135300Y-110302500D02*
X129135300Y-112702500D01*
X134235300Y-108502500D02*
X130035300Y-108502500D01*
X134235300Y-114502500D02*
X130035300Y-114502500D01*
X135135300Y-110302500D02*
X135135300Y-112702500D01*
X136735300Y-113752500D02*
X136735300Y-113752500D01*
X136835300Y-113752500D02*
X136735300Y-113752500D01*
X136835300Y-113752500D02*
X136835300Y-113752500D01*
X136735300Y-113752500D02*
G75*
G02*
X136835300Y-113752500I50000J0D01*
G01*
X136835300Y-113752500D02*
G75*
G02*
X136735300Y-113752500I-50000J0D01*
G01*
D13*
%TO.C,J6*%
X161575100Y-79334400D02*
X162905100Y-79334400D01*
X161575100Y-80664400D02*
X161575100Y-79334400D01*
X161575100Y-81934400D02*
X161575100Y-87074400D01*
X161575100Y-81934400D02*
X164235100Y-81934400D01*
X161575100Y-87074400D02*
X164235100Y-87074400D01*
X164235100Y-81934400D02*
X164235100Y-87074400D01*
%TO.C,C5*%
X149868152Y-118633000D02*
X148445648Y-118633000D01*
X149868152Y-120453000D02*
X148445648Y-120453000D01*
%TO.C,Y1*%
X133522200Y-116829100D02*
X139772200Y-116829100D01*
X133522200Y-121879100D02*
X139772200Y-121879100D01*
X133522200Y-121879100D02*
G75*
G02*
X133522200Y-116829100I0J2525000D01*
G01*
X139772200Y-116829100D02*
G75*
G02*
X139772200Y-121879100I0J-2525000D01*
G01*
%TO.C,J12*%
X159717400Y-102363100D02*
X161047400Y-102363100D01*
X159717400Y-103693100D02*
X159717400Y-102363100D01*
X159717400Y-104963100D02*
X159717400Y-110103100D01*
X159717400Y-104963100D02*
X162377400Y-104963100D01*
X159717400Y-110103100D02*
X162377400Y-110103100D01*
X162377400Y-104963100D02*
X162377400Y-110103100D01*
%TO.C,J11*%
X151537400Y-109589400D02*
X151537400Y-108259400D01*
X152867400Y-109589400D02*
X151537400Y-109589400D01*
X154137400Y-106929400D02*
X156737400Y-106929400D01*
X154137400Y-109589400D02*
X154137400Y-106929400D01*
X154137400Y-109589400D02*
X156737400Y-109589400D01*
X156737400Y-109589400D02*
X156737400Y-106929400D01*
%TO.C,J13*%
X151573300Y-104309900D02*
X151573300Y-102979900D01*
X152903300Y-104309900D02*
X151573300Y-104309900D01*
X154173300Y-101649900D02*
X156773300Y-101649900D01*
X154173300Y-104309900D02*
X154173300Y-101649900D01*
X154173300Y-104309900D02*
X156773300Y-104309900D01*
X156773300Y-104309900D02*
X156773300Y-101649900D01*
%TD*%
%LPC*%
D15*
%TO.C,J2*%
X154427100Y-80520700D03*
D16*
X156967100Y-80520700D03*
%TD*%
D17*
%TO.C,C3*%
X144005700Y-118034500D03*
X144005700Y-121159500D03*
%TD*%
D15*
%TO.C,J10*%
X154147400Y-96704500D03*
D16*
X156687400Y-96704500D03*
%TD*%
D18*
%TO.C,R10*%
X183193977Y-101059766D03*
X183193977Y-104159766D03*
%TD*%
D19*
%TO.C,R7*%
X139116100Y-58260700D03*
D20*
X141656100Y-58260700D03*
%TD*%
D21*
%TO.C,J1*%
X157148000Y-71872800D03*
D22*
X157148000Y-69332800D03*
X157148000Y-66792800D03*
X157148000Y-64252800D03*
%TD*%
D19*
%TO.C,NTC1*%
X135965600Y-94809500D03*
D20*
X135965600Y-97349500D03*
%TD*%
D15*
%TO.C,J3*%
X146767300Y-124094700D03*
D16*
X144227300Y-124094700D03*
X141687300Y-124094700D03*
X139147300Y-124094700D03*
X136607300Y-124094700D03*
X134067300Y-124094700D03*
%TD*%
D21*
%TO.C,J15*%
X169777600Y-97738800D03*
D22*
X169777600Y-95198800D03*
X169777600Y-92658800D03*
X169777600Y-90118800D03*
%TD*%
D18*
%TO.C,R9*%
X183359918Y-92343572D03*
X183359918Y-95443572D03*
%TD*%
D15*
%TO.C,J7*%
X154091800Y-85981100D03*
D16*
X156631800Y-85981100D03*
%TD*%
D23*
%TO.C,U5*%
X134999500Y-70018000D03*
X134999500Y-73418000D03*
X125079500Y-70018000D03*
X125079500Y-73418000D03*
%TD*%
D15*
%TO.C,J8*%
X154099500Y-91526100D03*
D16*
X156639500Y-91526100D03*
%TD*%
D19*
%TO.C,R6*%
X163881700Y-75743400D03*
D20*
X161341700Y-75743400D03*
%TD*%
D21*
%TO.C,J14*%
X169740800Y-86017900D03*
D22*
X169740800Y-83477900D03*
X169740800Y-80937900D03*
X169740800Y-78397900D03*
%TD*%
D21*
%TO.C,J16*%
X166572100Y-110206600D03*
D22*
X166572100Y-107666600D03*
X166572100Y-105126600D03*
X166572100Y-102586600D03*
%TD*%
D15*
%TO.C,Powerboard1*%
X130976300Y-87552600D03*
D16*
X130976300Y-90092600D03*
X130976300Y-92632600D03*
%TD*%
D24*
%TO.C,J4*%
X148585100Y-70282000D03*
X148585100Y-75332000D03*
X146045100Y-70282000D03*
X146045100Y-75332000D03*
X143505100Y-70282000D03*
X143505100Y-75332000D03*
%TD*%
D15*
%TO.C,J9*%
X163522200Y-91904000D03*
D16*
X163522200Y-94444000D03*
X163522200Y-96984000D03*
%TD*%
D25*
%TO.C,U2*%
X140929500Y-81761800D03*
D20*
X140929500Y-84301800D03*
X140929500Y-86841800D03*
X140929500Y-89381800D03*
X140929500Y-91921800D03*
X140929500Y-94461800D03*
X140929500Y-97001800D03*
X140929500Y-99541800D03*
X140929500Y-102081800D03*
X140929500Y-104621800D03*
X140929500Y-107161800D03*
X140929500Y-109701800D03*
X140929500Y-112241800D03*
X140929500Y-114781800D03*
X148549500Y-114781800D03*
X148549500Y-112241800D03*
X148549500Y-109701800D03*
X148549500Y-107161800D03*
X148549500Y-104621800D03*
X148549500Y-102081800D03*
X148549500Y-99541800D03*
X148549500Y-97001800D03*
X148549500Y-94461800D03*
X148549500Y-91921800D03*
X148549500Y-89381800D03*
X148549500Y-86841800D03*
X148549500Y-84301800D03*
X148549500Y-81761800D03*
%TD*%
D15*
%TO.C,J5*%
X139049600Y-61738500D03*
D16*
X141589600Y-61738500D03*
%TD*%
D26*
%TO.C,Q1*%
X136586000Y-84423600D03*
D27*
X136586000Y-81883600D03*
X136586000Y-79343600D03*
%TD*%
D28*
%TO.C,R8*%
X177169968Y-76516523D03*
X180269968Y-76516523D03*
%TD*%
D29*
%TO.C,Y2*%
X157308300Y-119543000D03*
X162188300Y-119543000D03*
%TD*%
D30*
%TO.C,Reset1*%
X135385300Y-113752500D03*
D29*
X128885300Y-113752500D03*
X135385300Y-109252500D03*
X128885300Y-109252500D03*
%TD*%
D15*
%TO.C,J6*%
X162905100Y-80664400D03*
D16*
X162905100Y-83204400D03*
X162905100Y-85744400D03*
%TD*%
D31*
%TO.C,C5*%
X150719400Y-119543000D03*
X147594400Y-119543000D03*
%TD*%
D29*
%TO.C,Y1*%
X134207200Y-119354100D03*
X139087200Y-119354100D03*
%TD*%
D15*
%TO.C,J12*%
X161047400Y-103693100D03*
D16*
X161047400Y-106233100D03*
X161047400Y-108773100D03*
%TD*%
D15*
%TO.C,J11*%
X152867400Y-108259400D03*
D16*
X155407400Y-108259400D03*
%TD*%
D15*
%TO.C,J13*%
X152903300Y-102979900D03*
D16*
X155443300Y-102979900D03*
%TD*%
%LPD*%
M02*
