%TF.GenerationSoftware,KiCad,Pcbnew,8.0.1-rc1*%
%TF.CreationDate,2024-05-25T10:36:43-07:00*%
%TF.ProjectId,AMS - CANBus Sensor - Temperature,414d5320-2d20-4434-914e-427573205365,rev?*%
%TF.SameCoordinates,Original*%
%TF.FileFunction,Legend,Bot*%
%TF.FilePolarity,Positive*%
%FSLAX46Y46*%
G04 Gerber Fmt 4.6, Leading zero omitted, Abs format (unit mm)*
G04 Created by KiCad (PCBNEW 8.0.1-rc1) date 2024-05-25 10:36:43*
%MOMM*%
%LPD*%
G01*
G04 APERTURE LIST*
G04 Aperture macros list*
%AMRoundRect*
0 Rectangle with rounded corners*
0 $1 Rounding radius*
0 $2 $3 $4 $5 $6 $7 $8 $9 X,Y pos of 4 corners*
0 Add a 4 corners polygon primitive as box body*
4,1,4,$2,$3,$4,$5,$6,$7,$8,$9,$2,$3,0*
0 Add four circle primitives for the rounded corners*
1,1,$1+$1,$2,$3*
1,1,$1+$1,$4,$5*
1,1,$1+$1,$6,$7*
1,1,$1+$1,$8,$9*
0 Add four rect primitives between the rounded corners*
20,1,$1+$1,$2,$3,$4,$5,0*
20,1,$1+$1,$4,$5,$6,$7,0*
20,1,$1+$1,$6,$7,$8,$9,0*
20,1,$1+$1,$8,$9,$2,$3,0*%
G04 Aperture macros list end*
%ADD10C,0.150000*%
%ADD11C,0.254000*%
%ADD12C,0.120000*%
%ADD13C,0.200000*%
%ADD14R,1.700000X1.700000*%
%ADD15O,1.700000X1.700000*%
%ADD16C,1.600000*%
%ADD17O,1.600000X1.600000*%
%ADD18R,2.200000X2.200000*%
%ADD19C,2.200000*%
%ADD20C,2.400000*%
%ADD21R,1.600000X1.600000*%
%ADD22R,1.920000X1.920000*%
%ADD23C,1.920000*%
%ADD24C,1.500000*%
%ADD25R,1.500000X1.500000*%
%ADD26RoundRect,0.250000X-0.650000X0.412500X-0.650000X-0.412500X0.650000X-0.412500X0.650000X0.412500X0*%
%ADD27RoundRect,0.150000X0.825000X0.150000X-0.825000X0.150000X-0.825000X-0.150000X0.825000X-0.150000X0*%
%ADD28R,1.705000X0.450000*%
%ADD29RoundRect,0.250000X0.400000X0.625000X-0.400000X0.625000X-0.400000X-0.625000X0.400000X-0.625000X0*%
%ADD30RoundRect,0.250000X-0.412500X-0.650000X0.412500X-0.650000X0.412500X0.650000X-0.412500X0.650000X0*%
%ADD31RoundRect,0.250000X0.650000X-0.412500X0.650000X0.412500X-0.650000X0.412500X-0.650000X-0.412500X0*%
%ADD32RoundRect,0.250000X-0.625000X0.400000X-0.625000X-0.400000X0.625000X-0.400000X0.625000X0.400000X0*%
%ADD33RoundRect,0.250000X0.412500X0.650000X-0.412500X0.650000X-0.412500X-0.650000X0.412500X-0.650000X0*%
%ADD34RoundRect,0.150000X0.875000X0.150000X-0.875000X0.150000X-0.875000X-0.150000X0.875000X-0.150000X0*%
%ADD35RoundRect,0.250000X0.625000X-0.400000X0.625000X0.400000X-0.625000X0.400000X-0.625000X-0.400000X0*%
%ADD36R,1.000000X0.550000*%
G04 APERTURE END LIST*
D10*
X144310863Y-115937179D02*
X144358483Y-115889560D01*
X144358483Y-115889560D02*
X144406102Y-115746703D01*
X144406102Y-115746703D02*
X144406102Y-115651465D01*
X144406102Y-115651465D02*
X144358483Y-115508608D01*
X144358483Y-115508608D02*
X144263244Y-115413370D01*
X144263244Y-115413370D02*
X144168006Y-115365751D01*
X144168006Y-115365751D02*
X143977530Y-115318132D01*
X143977530Y-115318132D02*
X143834673Y-115318132D01*
X143834673Y-115318132D02*
X143644197Y-115365751D01*
X143644197Y-115365751D02*
X143548959Y-115413370D01*
X143548959Y-115413370D02*
X143453721Y-115508608D01*
X143453721Y-115508608D02*
X143406102Y-115651465D01*
X143406102Y-115651465D02*
X143406102Y-115746703D01*
X143406102Y-115746703D02*
X143453721Y-115889560D01*
X143453721Y-115889560D02*
X143501340Y-115937179D01*
X143501340Y-116318132D02*
X143453721Y-116365751D01*
X143453721Y-116365751D02*
X143406102Y-116460989D01*
X143406102Y-116460989D02*
X143406102Y-116699084D01*
X143406102Y-116699084D02*
X143453721Y-116794322D01*
X143453721Y-116794322D02*
X143501340Y-116841941D01*
X143501340Y-116841941D02*
X143596578Y-116889560D01*
X143596578Y-116889560D02*
X143691816Y-116889560D01*
X143691816Y-116889560D02*
X143834673Y-116841941D01*
X143834673Y-116841941D02*
X144406102Y-116270513D01*
X144406102Y-116270513D02*
X144406102Y-116889560D01*
X166716704Y-65728819D02*
X166716704Y-66538342D01*
X166716704Y-66538342D02*
X166669085Y-66633580D01*
X166669085Y-66633580D02*
X166621466Y-66681200D01*
X166621466Y-66681200D02*
X166526228Y-66728819D01*
X166526228Y-66728819D02*
X166335752Y-66728819D01*
X166335752Y-66728819D02*
X166240514Y-66681200D01*
X166240514Y-66681200D02*
X166192895Y-66633580D01*
X166192895Y-66633580D02*
X166145276Y-66538342D01*
X166145276Y-66538342D02*
X166145276Y-65728819D01*
X165240514Y-66062152D02*
X165240514Y-66728819D01*
X165478609Y-65681200D02*
X165716704Y-66395485D01*
X165716704Y-66395485D02*
X165097657Y-66395485D01*
D11*
X180554362Y-94198718D02*
X180554362Y-92928718D01*
X179223885Y-94077765D02*
X179284361Y-94138242D01*
X179284361Y-94138242D02*
X179465790Y-94198718D01*
X179465790Y-94198718D02*
X179586742Y-94198718D01*
X179586742Y-94198718D02*
X179768171Y-94138242D01*
X179768171Y-94138242D02*
X179889123Y-94017289D01*
X179889123Y-94017289D02*
X179949600Y-93896337D01*
X179949600Y-93896337D02*
X180010076Y-93654432D01*
X180010076Y-93654432D02*
X180010076Y-93473003D01*
X180010076Y-93473003D02*
X179949600Y-93231099D01*
X179949600Y-93231099D02*
X179889123Y-93110146D01*
X179889123Y-93110146D02*
X179768171Y-92989194D01*
X179768171Y-92989194D02*
X179586742Y-92928718D01*
X179586742Y-92928718D02*
X179465790Y-92928718D01*
X179465790Y-92928718D02*
X179284361Y-92989194D01*
X179284361Y-92989194D02*
X179223885Y-93049670D01*
X178740076Y-93049670D02*
X178679600Y-92989194D01*
X178679600Y-92989194D02*
X178558647Y-92928718D01*
X178558647Y-92928718D02*
X178256266Y-92928718D01*
X178256266Y-92928718D02*
X178135314Y-92989194D01*
X178135314Y-92989194D02*
X178074838Y-93049670D01*
X178074838Y-93049670D02*
X178014361Y-93170622D01*
X178014361Y-93170622D02*
X178014361Y-93291575D01*
X178014361Y-93291575D02*
X178074838Y-93473003D01*
X178074838Y-93473003D02*
X178800552Y-94198718D01*
X178800552Y-94198718D02*
X178014361Y-94198718D01*
D10*
X129980966Y-79764119D02*
X130314299Y-79287928D01*
X130552394Y-79764119D02*
X130552394Y-78764119D01*
X130552394Y-78764119D02*
X130171442Y-78764119D01*
X130171442Y-78764119D02*
X130076204Y-78811738D01*
X130076204Y-78811738D02*
X130028585Y-78859357D01*
X130028585Y-78859357D02*
X129980966Y-78954595D01*
X129980966Y-78954595D02*
X129980966Y-79097452D01*
X129980966Y-79097452D02*
X130028585Y-79192690D01*
X130028585Y-79192690D02*
X130076204Y-79240309D01*
X130076204Y-79240309D02*
X130171442Y-79287928D01*
X130171442Y-79287928D02*
X130552394Y-79287928D01*
X129028585Y-79764119D02*
X129600013Y-79764119D01*
X129314299Y-79764119D02*
X129314299Y-78764119D01*
X129314299Y-78764119D02*
X129409537Y-78906976D01*
X129409537Y-78906976D02*
X129504775Y-79002214D01*
X129504775Y-79002214D02*
X129600013Y-79049833D01*
X183392307Y-85424004D02*
X183439926Y-85471624D01*
X183439926Y-85471624D02*
X183582783Y-85519243D01*
X183582783Y-85519243D02*
X183678021Y-85519243D01*
X183678021Y-85519243D02*
X183820878Y-85471624D01*
X183820878Y-85471624D02*
X183916116Y-85376385D01*
X183916116Y-85376385D02*
X183963735Y-85281147D01*
X183963735Y-85281147D02*
X184011354Y-85090671D01*
X184011354Y-85090671D02*
X184011354Y-84947814D01*
X184011354Y-84947814D02*
X183963735Y-84757338D01*
X183963735Y-84757338D02*
X183916116Y-84662100D01*
X183916116Y-84662100D02*
X183820878Y-84566862D01*
X183820878Y-84566862D02*
X183678021Y-84519243D01*
X183678021Y-84519243D02*
X183582783Y-84519243D01*
X183582783Y-84519243D02*
X183439926Y-84566862D01*
X183439926Y-84566862D02*
X183392307Y-84614481D01*
X182439926Y-85519243D02*
X183011354Y-85519243D01*
X182725640Y-85519243D02*
X182725640Y-84519243D01*
X182725640Y-84519243D02*
X182820878Y-84662100D01*
X182820878Y-84662100D02*
X182916116Y-84757338D01*
X182916116Y-84757338D02*
X183011354Y-84804957D01*
X181820878Y-84519243D02*
X181725640Y-84519243D01*
X181725640Y-84519243D02*
X181630402Y-84566862D01*
X181630402Y-84566862D02*
X181582783Y-84614481D01*
X181582783Y-84614481D02*
X181535164Y-84709719D01*
X181535164Y-84709719D02*
X181487545Y-84900195D01*
X181487545Y-84900195D02*
X181487545Y-85138290D01*
X181487545Y-85138290D02*
X181535164Y-85328766D01*
X181535164Y-85328766D02*
X181582783Y-85424004D01*
X181582783Y-85424004D02*
X181630402Y-85471624D01*
X181630402Y-85471624D02*
X181725640Y-85519243D01*
X181725640Y-85519243D02*
X181820878Y-85519243D01*
X181820878Y-85519243D02*
X181916116Y-85471624D01*
X181916116Y-85471624D02*
X181963735Y-85424004D01*
X181963735Y-85424004D02*
X182011354Y-85328766D01*
X182011354Y-85328766D02*
X182058973Y-85138290D01*
X182058973Y-85138290D02*
X182058973Y-84900195D01*
X182058973Y-84900195D02*
X182011354Y-84709719D01*
X182011354Y-84709719D02*
X181963735Y-84614481D01*
X181963735Y-84614481D02*
X181916116Y-84566862D01*
X181916116Y-84566862D02*
X181820878Y-84519243D01*
X169362980Y-75023233D02*
X169410600Y-74975614D01*
X169410600Y-74975614D02*
X169458219Y-74832757D01*
X169458219Y-74832757D02*
X169458219Y-74737519D01*
X169458219Y-74737519D02*
X169410600Y-74594662D01*
X169410600Y-74594662D02*
X169315361Y-74499424D01*
X169315361Y-74499424D02*
X169220123Y-74451805D01*
X169220123Y-74451805D02*
X169029647Y-74404186D01*
X169029647Y-74404186D02*
X168886790Y-74404186D01*
X168886790Y-74404186D02*
X168696314Y-74451805D01*
X168696314Y-74451805D02*
X168601076Y-74499424D01*
X168601076Y-74499424D02*
X168505838Y-74594662D01*
X168505838Y-74594662D02*
X168458219Y-74737519D01*
X168458219Y-74737519D02*
X168458219Y-74832757D01*
X168458219Y-74832757D02*
X168505838Y-74975614D01*
X168505838Y-74975614D02*
X168553457Y-75023233D01*
X168886790Y-75594662D02*
X168839171Y-75499424D01*
X168839171Y-75499424D02*
X168791552Y-75451805D01*
X168791552Y-75451805D02*
X168696314Y-75404186D01*
X168696314Y-75404186D02*
X168648695Y-75404186D01*
X168648695Y-75404186D02*
X168553457Y-75451805D01*
X168553457Y-75451805D02*
X168505838Y-75499424D01*
X168505838Y-75499424D02*
X168458219Y-75594662D01*
X168458219Y-75594662D02*
X168458219Y-75785138D01*
X168458219Y-75785138D02*
X168505838Y-75880376D01*
X168505838Y-75880376D02*
X168553457Y-75927995D01*
X168553457Y-75927995D02*
X168648695Y-75975614D01*
X168648695Y-75975614D02*
X168696314Y-75975614D01*
X168696314Y-75975614D02*
X168791552Y-75927995D01*
X168791552Y-75927995D02*
X168839171Y-75880376D01*
X168839171Y-75880376D02*
X168886790Y-75785138D01*
X168886790Y-75785138D02*
X168886790Y-75594662D01*
X168886790Y-75594662D02*
X168934409Y-75499424D01*
X168934409Y-75499424D02*
X168982028Y-75451805D01*
X168982028Y-75451805D02*
X169077266Y-75404186D01*
X169077266Y-75404186D02*
X169267742Y-75404186D01*
X169267742Y-75404186D02*
X169362980Y-75451805D01*
X169362980Y-75451805D02*
X169410600Y-75499424D01*
X169410600Y-75499424D02*
X169458219Y-75594662D01*
X169458219Y-75594662D02*
X169458219Y-75785138D01*
X169458219Y-75785138D02*
X169410600Y-75880376D01*
X169410600Y-75880376D02*
X169362980Y-75927995D01*
X169362980Y-75927995D02*
X169267742Y-75975614D01*
X169267742Y-75975614D02*
X169077266Y-75975614D01*
X169077266Y-75975614D02*
X168982028Y-75927995D01*
X168982028Y-75927995D02*
X168934409Y-75880376D01*
X168934409Y-75880376D02*
X168886790Y-75785138D01*
X130731219Y-111295633D02*
X130255028Y-110962300D01*
X130731219Y-110724205D02*
X129731219Y-110724205D01*
X129731219Y-110724205D02*
X129731219Y-111105157D01*
X129731219Y-111105157D02*
X129778838Y-111200395D01*
X129778838Y-111200395D02*
X129826457Y-111248014D01*
X129826457Y-111248014D02*
X129921695Y-111295633D01*
X129921695Y-111295633D02*
X130064552Y-111295633D01*
X130064552Y-111295633D02*
X130159790Y-111248014D01*
X130159790Y-111248014D02*
X130207409Y-111200395D01*
X130207409Y-111200395D02*
X130255028Y-111105157D01*
X130255028Y-111105157D02*
X130255028Y-110724205D01*
X130064552Y-112152776D02*
X130731219Y-112152776D01*
X129683600Y-111914681D02*
X130397885Y-111676586D01*
X130397885Y-111676586D02*
X130397885Y-112295633D01*
X172599466Y-72358280D02*
X172647085Y-72405900D01*
X172647085Y-72405900D02*
X172789942Y-72453519D01*
X172789942Y-72453519D02*
X172885180Y-72453519D01*
X172885180Y-72453519D02*
X173028037Y-72405900D01*
X173028037Y-72405900D02*
X173123275Y-72310661D01*
X173123275Y-72310661D02*
X173170894Y-72215423D01*
X173170894Y-72215423D02*
X173218513Y-72024947D01*
X173218513Y-72024947D02*
X173218513Y-71882090D01*
X173218513Y-71882090D02*
X173170894Y-71691614D01*
X173170894Y-71691614D02*
X173123275Y-71596376D01*
X173123275Y-71596376D02*
X173028037Y-71501138D01*
X173028037Y-71501138D02*
X172885180Y-71453519D01*
X172885180Y-71453519D02*
X172789942Y-71453519D01*
X172789942Y-71453519D02*
X172647085Y-71501138D01*
X172647085Y-71501138D02*
X172599466Y-71548757D01*
X172123275Y-72453519D02*
X171932799Y-72453519D01*
X171932799Y-72453519D02*
X171837561Y-72405900D01*
X171837561Y-72405900D02*
X171789942Y-72358280D01*
X171789942Y-72358280D02*
X171694704Y-72215423D01*
X171694704Y-72215423D02*
X171647085Y-72024947D01*
X171647085Y-72024947D02*
X171647085Y-71643995D01*
X171647085Y-71643995D02*
X171694704Y-71548757D01*
X171694704Y-71548757D02*
X171742323Y-71501138D01*
X171742323Y-71501138D02*
X171837561Y-71453519D01*
X171837561Y-71453519D02*
X172028037Y-71453519D01*
X172028037Y-71453519D02*
X172123275Y-71501138D01*
X172123275Y-71501138D02*
X172170894Y-71548757D01*
X172170894Y-71548757D02*
X172218513Y-71643995D01*
X172218513Y-71643995D02*
X172218513Y-71882090D01*
X172218513Y-71882090D02*
X172170894Y-71977328D01*
X172170894Y-71977328D02*
X172123275Y-72024947D01*
X172123275Y-72024947D02*
X172028037Y-72072566D01*
X172028037Y-72072566D02*
X171837561Y-72072566D01*
X171837561Y-72072566D02*
X171742323Y-72024947D01*
X171742323Y-72024947D02*
X171694704Y-71977328D01*
X171694704Y-71977328D02*
X171647085Y-71882090D01*
X152908220Y-119887379D02*
X152955839Y-119934999D01*
X152955839Y-119934999D02*
X153098696Y-119982618D01*
X153098696Y-119982618D02*
X153193934Y-119982618D01*
X153193934Y-119982618D02*
X153336791Y-119934999D01*
X153336791Y-119934999D02*
X153432029Y-119839760D01*
X153432029Y-119839760D02*
X153479648Y-119744522D01*
X153479648Y-119744522D02*
X153527267Y-119554046D01*
X153527267Y-119554046D02*
X153527267Y-119411189D01*
X153527267Y-119411189D02*
X153479648Y-119220713D01*
X153479648Y-119220713D02*
X153432029Y-119125475D01*
X153432029Y-119125475D02*
X153336791Y-119030237D01*
X153336791Y-119030237D02*
X153193934Y-118982618D01*
X153193934Y-118982618D02*
X153098696Y-118982618D01*
X153098696Y-118982618D02*
X152955839Y-119030237D01*
X152955839Y-119030237D02*
X152908220Y-119077856D01*
X152051077Y-119315951D02*
X152051077Y-119982618D01*
X152289172Y-118934999D02*
X152527267Y-119649284D01*
X152527267Y-119649284D02*
X151908220Y-119649284D01*
X147567004Y-62941819D02*
X147567004Y-63751342D01*
X147567004Y-63751342D02*
X147519385Y-63846580D01*
X147519385Y-63846580D02*
X147471766Y-63894200D01*
X147471766Y-63894200D02*
X147376528Y-63941819D01*
X147376528Y-63941819D02*
X147186052Y-63941819D01*
X147186052Y-63941819D02*
X147090814Y-63894200D01*
X147090814Y-63894200D02*
X147043195Y-63846580D01*
X147043195Y-63846580D02*
X146995576Y-63751342D01*
X146995576Y-63751342D02*
X146995576Y-62941819D01*
X146614623Y-62941819D02*
X145995576Y-62941819D01*
X145995576Y-62941819D02*
X146328909Y-63322771D01*
X146328909Y-63322771D02*
X146186052Y-63322771D01*
X146186052Y-63322771D02*
X146090814Y-63370390D01*
X146090814Y-63370390D02*
X146043195Y-63418009D01*
X146043195Y-63418009D02*
X145995576Y-63513247D01*
X145995576Y-63513247D02*
X145995576Y-63751342D01*
X145995576Y-63751342D02*
X146043195Y-63846580D01*
X146043195Y-63846580D02*
X146090814Y-63894200D01*
X146090814Y-63894200D02*
X146186052Y-63941819D01*
X146186052Y-63941819D02*
X146471766Y-63941819D01*
X146471766Y-63941819D02*
X146567004Y-63894200D01*
X146567004Y-63894200D02*
X146614623Y-63846580D01*
X146977819Y-85480133D02*
X146501628Y-85146800D01*
X146977819Y-84908705D02*
X145977819Y-84908705D01*
X145977819Y-84908705D02*
X145977819Y-85289657D01*
X145977819Y-85289657D02*
X146025438Y-85384895D01*
X146025438Y-85384895D02*
X146073057Y-85432514D01*
X146073057Y-85432514D02*
X146168295Y-85480133D01*
X146168295Y-85480133D02*
X146311152Y-85480133D01*
X146311152Y-85480133D02*
X146406390Y-85432514D01*
X146406390Y-85432514D02*
X146454009Y-85384895D01*
X146454009Y-85384895D02*
X146501628Y-85289657D01*
X146501628Y-85289657D02*
X146501628Y-84908705D01*
X145977819Y-86384895D02*
X145977819Y-85908705D01*
X145977819Y-85908705D02*
X146454009Y-85861086D01*
X146454009Y-85861086D02*
X146406390Y-85908705D01*
X146406390Y-85908705D02*
X146358771Y-86003943D01*
X146358771Y-86003943D02*
X146358771Y-86242038D01*
X146358771Y-86242038D02*
X146406390Y-86337276D01*
X146406390Y-86337276D02*
X146454009Y-86384895D01*
X146454009Y-86384895D02*
X146549247Y-86432514D01*
X146549247Y-86432514D02*
X146787342Y-86432514D01*
X146787342Y-86432514D02*
X146882580Y-86384895D01*
X146882580Y-86384895D02*
X146930200Y-86337276D01*
X146930200Y-86337276D02*
X146977819Y-86242038D01*
X146977819Y-86242038D02*
X146977819Y-86003943D01*
X146977819Y-86003943D02*
X146930200Y-85908705D01*
X146930200Y-85908705D02*
X146882580Y-85861086D01*
X134607819Y-90532033D02*
X134131628Y-90198700D01*
X134607819Y-89960605D02*
X133607819Y-89960605D01*
X133607819Y-89960605D02*
X133607819Y-90341557D01*
X133607819Y-90341557D02*
X133655438Y-90436795D01*
X133655438Y-90436795D02*
X133703057Y-90484414D01*
X133703057Y-90484414D02*
X133798295Y-90532033D01*
X133798295Y-90532033D02*
X133941152Y-90532033D01*
X133941152Y-90532033D02*
X134036390Y-90484414D01*
X134036390Y-90484414D02*
X134084009Y-90436795D01*
X134084009Y-90436795D02*
X134131628Y-90341557D01*
X134131628Y-90341557D02*
X134131628Y-89960605D01*
X133607819Y-90865367D02*
X133607819Y-91484414D01*
X133607819Y-91484414D02*
X133988771Y-91151081D01*
X133988771Y-91151081D02*
X133988771Y-91293938D01*
X133988771Y-91293938D02*
X134036390Y-91389176D01*
X134036390Y-91389176D02*
X134084009Y-91436795D01*
X134084009Y-91436795D02*
X134179247Y-91484414D01*
X134179247Y-91484414D02*
X134417342Y-91484414D01*
X134417342Y-91484414D02*
X134512580Y-91436795D01*
X134512580Y-91436795D02*
X134560200Y-91389176D01*
X134560200Y-91389176D02*
X134607819Y-91293938D01*
X134607819Y-91293938D02*
X134607819Y-91008224D01*
X134607819Y-91008224D02*
X134560200Y-90912986D01*
X134560200Y-90912986D02*
X134512580Y-90865367D01*
D11*
X178253662Y-104983818D02*
X178253662Y-103713818D01*
X176923185Y-104862865D02*
X176983661Y-104923342D01*
X176983661Y-104923342D02*
X177165090Y-104983818D01*
X177165090Y-104983818D02*
X177286042Y-104983818D01*
X177286042Y-104983818D02*
X177467471Y-104923342D01*
X177467471Y-104923342D02*
X177588423Y-104802389D01*
X177588423Y-104802389D02*
X177648900Y-104681437D01*
X177648900Y-104681437D02*
X177709376Y-104439532D01*
X177709376Y-104439532D02*
X177709376Y-104258103D01*
X177709376Y-104258103D02*
X177648900Y-104016199D01*
X177648900Y-104016199D02*
X177588423Y-103895246D01*
X177588423Y-103895246D02*
X177467471Y-103774294D01*
X177467471Y-103774294D02*
X177286042Y-103713818D01*
X177286042Y-103713818D02*
X177165090Y-103713818D01*
X177165090Y-103713818D02*
X176983661Y-103774294D01*
X176983661Y-103774294D02*
X176923185Y-103834770D01*
X176499852Y-103713818D02*
X175713661Y-103713818D01*
X175713661Y-103713818D02*
X176136995Y-104197627D01*
X176136995Y-104197627D02*
X175955566Y-104197627D01*
X175955566Y-104197627D02*
X175834614Y-104258103D01*
X175834614Y-104258103D02*
X175774138Y-104318580D01*
X175774138Y-104318580D02*
X175713661Y-104439532D01*
X175713661Y-104439532D02*
X175713661Y-104741913D01*
X175713661Y-104741913D02*
X175774138Y-104862865D01*
X175774138Y-104862865D02*
X175834614Y-104923342D01*
X175834614Y-104923342D02*
X175955566Y-104983818D01*
X175955566Y-104983818D02*
X176318423Y-104983818D01*
X176318423Y-104983818D02*
X176439376Y-104923342D01*
X176439376Y-104923342D02*
X176499852Y-104862865D01*
D10*
X137354254Y-115871040D02*
X137401873Y-115918660D01*
X137401873Y-115918660D02*
X137544730Y-115966279D01*
X137544730Y-115966279D02*
X137639968Y-115966279D01*
X137639968Y-115966279D02*
X137782825Y-115918660D01*
X137782825Y-115918660D02*
X137878063Y-115823421D01*
X137878063Y-115823421D02*
X137925682Y-115728183D01*
X137925682Y-115728183D02*
X137973301Y-115537707D01*
X137973301Y-115537707D02*
X137973301Y-115394850D01*
X137973301Y-115394850D02*
X137925682Y-115204374D01*
X137925682Y-115204374D02*
X137878063Y-115109136D01*
X137878063Y-115109136D02*
X137782825Y-115013898D01*
X137782825Y-115013898D02*
X137639968Y-114966279D01*
X137639968Y-114966279D02*
X137544730Y-114966279D01*
X137544730Y-114966279D02*
X137401873Y-115013898D01*
X137401873Y-115013898D02*
X137354254Y-115061517D01*
X136401873Y-115966279D02*
X136973301Y-115966279D01*
X136687587Y-115966279D02*
X136687587Y-114966279D01*
X136687587Y-114966279D02*
X136782825Y-115109136D01*
X136782825Y-115109136D02*
X136878063Y-115204374D01*
X136878063Y-115204374D02*
X136973301Y-115251993D01*
X171505821Y-104133428D02*
X171553441Y-104085809D01*
X171553441Y-104085809D02*
X171601060Y-103942952D01*
X171601060Y-103942952D02*
X171601060Y-103847714D01*
X171601060Y-103847714D02*
X171553441Y-103704857D01*
X171553441Y-103704857D02*
X171458202Y-103609619D01*
X171458202Y-103609619D02*
X171362964Y-103562000D01*
X171362964Y-103562000D02*
X171172488Y-103514381D01*
X171172488Y-103514381D02*
X171029631Y-103514381D01*
X171029631Y-103514381D02*
X170839155Y-103562000D01*
X170839155Y-103562000D02*
X170743917Y-103609619D01*
X170743917Y-103609619D02*
X170648679Y-103704857D01*
X170648679Y-103704857D02*
X170601060Y-103847714D01*
X170601060Y-103847714D02*
X170601060Y-103942952D01*
X170601060Y-103942952D02*
X170648679Y-104085809D01*
X170648679Y-104085809D02*
X170696298Y-104133428D01*
X171601060Y-105085809D02*
X171601060Y-104514381D01*
X171601060Y-104800095D02*
X170601060Y-104800095D01*
X170601060Y-104800095D02*
X170743917Y-104704857D01*
X170743917Y-104704857D02*
X170839155Y-104609619D01*
X170839155Y-104609619D02*
X170886774Y-104514381D01*
X170601060Y-105990571D02*
X170601060Y-105514381D01*
X170601060Y-105514381D02*
X171077250Y-105466762D01*
X171077250Y-105466762D02*
X171029631Y-105514381D01*
X171029631Y-105514381D02*
X170982012Y-105609619D01*
X170982012Y-105609619D02*
X170982012Y-105847714D01*
X170982012Y-105847714D02*
X171029631Y-105942952D01*
X171029631Y-105942952D02*
X171077250Y-105990571D01*
X171077250Y-105990571D02*
X171172488Y-106038190D01*
X171172488Y-106038190D02*
X171410583Y-106038190D01*
X171410583Y-106038190D02*
X171505821Y-105990571D01*
X171505821Y-105990571D02*
X171553441Y-105942952D01*
X171553441Y-105942952D02*
X171601060Y-105847714D01*
X171601060Y-105847714D02*
X171601060Y-105609619D01*
X171601060Y-105609619D02*
X171553441Y-105514381D01*
X171553441Y-105514381D02*
X171505821Y-105466762D01*
X143630419Y-100892333D02*
X143154228Y-100559000D01*
X143630419Y-100320905D02*
X142630419Y-100320905D01*
X142630419Y-100320905D02*
X142630419Y-100701857D01*
X142630419Y-100701857D02*
X142678038Y-100797095D01*
X142678038Y-100797095D02*
X142725657Y-100844714D01*
X142725657Y-100844714D02*
X142820895Y-100892333D01*
X142820895Y-100892333D02*
X142963752Y-100892333D01*
X142963752Y-100892333D02*
X143058990Y-100844714D01*
X143058990Y-100844714D02*
X143106609Y-100797095D01*
X143106609Y-100797095D02*
X143154228Y-100701857D01*
X143154228Y-100701857D02*
X143154228Y-100320905D01*
X142725657Y-101273286D02*
X142678038Y-101320905D01*
X142678038Y-101320905D02*
X142630419Y-101416143D01*
X142630419Y-101416143D02*
X142630419Y-101654238D01*
X142630419Y-101654238D02*
X142678038Y-101749476D01*
X142678038Y-101749476D02*
X142725657Y-101797095D01*
X142725657Y-101797095D02*
X142820895Y-101844714D01*
X142820895Y-101844714D02*
X142916133Y-101844714D01*
X142916133Y-101844714D02*
X143058990Y-101797095D01*
X143058990Y-101797095D02*
X143630419Y-101225667D01*
X143630419Y-101225667D02*
X143630419Y-101844714D01*
D11*
X180893062Y-80385418D02*
X180893062Y-79115418D01*
X179562585Y-80264465D02*
X179623061Y-80324942D01*
X179623061Y-80324942D02*
X179804490Y-80385418D01*
X179804490Y-80385418D02*
X179925442Y-80385418D01*
X179925442Y-80385418D02*
X180106871Y-80324942D01*
X180106871Y-80324942D02*
X180227823Y-80203989D01*
X180227823Y-80203989D02*
X180288300Y-80083037D01*
X180288300Y-80083037D02*
X180348776Y-79841132D01*
X180348776Y-79841132D02*
X180348776Y-79659703D01*
X180348776Y-79659703D02*
X180288300Y-79417799D01*
X180288300Y-79417799D02*
X180227823Y-79296846D01*
X180227823Y-79296846D02*
X180106871Y-79175894D01*
X180106871Y-79175894D02*
X179925442Y-79115418D01*
X179925442Y-79115418D02*
X179804490Y-79115418D01*
X179804490Y-79115418D02*
X179623061Y-79175894D01*
X179623061Y-79175894D02*
X179562585Y-79236370D01*
X178353061Y-80385418D02*
X179078776Y-80385418D01*
X178715919Y-80385418D02*
X178715919Y-79115418D01*
X178715919Y-79115418D02*
X178836871Y-79296846D01*
X178836871Y-79296846D02*
X178957823Y-79417799D01*
X178957823Y-79417799D02*
X179078776Y-79478275D01*
D10*
X165509080Y-90365742D02*
X165556700Y-90318123D01*
X165556700Y-90318123D02*
X165604319Y-90175266D01*
X165604319Y-90175266D02*
X165604319Y-90080028D01*
X165604319Y-90080028D02*
X165556700Y-89937171D01*
X165556700Y-89937171D02*
X165461461Y-89841933D01*
X165461461Y-89841933D02*
X165366223Y-89794314D01*
X165366223Y-89794314D02*
X165175747Y-89746695D01*
X165175747Y-89746695D02*
X165032890Y-89746695D01*
X165032890Y-89746695D02*
X164842414Y-89794314D01*
X164842414Y-89794314D02*
X164747176Y-89841933D01*
X164747176Y-89841933D02*
X164651938Y-89937171D01*
X164651938Y-89937171D02*
X164604319Y-90080028D01*
X164604319Y-90080028D02*
X164604319Y-90175266D01*
X164604319Y-90175266D02*
X164651938Y-90318123D01*
X164651938Y-90318123D02*
X164699557Y-90365742D01*
X165604319Y-91318123D02*
X165604319Y-90746695D01*
X165604319Y-91032409D02*
X164604319Y-91032409D01*
X164604319Y-91032409D02*
X164747176Y-90937171D01*
X164747176Y-90937171D02*
X164842414Y-90841933D01*
X164842414Y-90841933D02*
X164890033Y-90746695D01*
X164699557Y-91699076D02*
X164651938Y-91746695D01*
X164651938Y-91746695D02*
X164604319Y-91841933D01*
X164604319Y-91841933D02*
X164604319Y-92080028D01*
X164604319Y-92080028D02*
X164651938Y-92175266D01*
X164651938Y-92175266D02*
X164699557Y-92222885D01*
X164699557Y-92222885D02*
X164794795Y-92270504D01*
X164794795Y-92270504D02*
X164890033Y-92270504D01*
X164890033Y-92270504D02*
X165032890Y-92222885D01*
X165032890Y-92222885D02*
X165604319Y-91651457D01*
X165604319Y-91651457D02*
X165604319Y-92270504D01*
X183342267Y-88683245D02*
X183389886Y-88730865D01*
X183389886Y-88730865D02*
X183532743Y-88778484D01*
X183532743Y-88778484D02*
X183627981Y-88778484D01*
X183627981Y-88778484D02*
X183770838Y-88730865D01*
X183770838Y-88730865D02*
X183866076Y-88635626D01*
X183866076Y-88635626D02*
X183913695Y-88540388D01*
X183913695Y-88540388D02*
X183961314Y-88349912D01*
X183961314Y-88349912D02*
X183961314Y-88207055D01*
X183961314Y-88207055D02*
X183913695Y-88016579D01*
X183913695Y-88016579D02*
X183866076Y-87921341D01*
X183866076Y-87921341D02*
X183770838Y-87826103D01*
X183770838Y-87826103D02*
X183627981Y-87778484D01*
X183627981Y-87778484D02*
X183532743Y-87778484D01*
X183532743Y-87778484D02*
X183389886Y-87826103D01*
X183389886Y-87826103D02*
X183342267Y-87873722D01*
X182389886Y-88778484D02*
X182961314Y-88778484D01*
X182675600Y-88778484D02*
X182675600Y-87778484D01*
X182675600Y-87778484D02*
X182770838Y-87921341D01*
X182770838Y-87921341D02*
X182866076Y-88016579D01*
X182866076Y-88016579D02*
X182961314Y-88064198D01*
X181437505Y-88778484D02*
X182008933Y-88778484D01*
X181723219Y-88778484D02*
X181723219Y-87778484D01*
X181723219Y-87778484D02*
X181818457Y-87921341D01*
X181818457Y-87921341D02*
X181913695Y-88016579D01*
X181913695Y-88016579D02*
X182008933Y-88064198D01*
X136175538Y-105960547D02*
X136223157Y-106008167D01*
X136223157Y-106008167D02*
X136366014Y-106055786D01*
X136366014Y-106055786D02*
X136461252Y-106055786D01*
X136461252Y-106055786D02*
X136604109Y-106008167D01*
X136604109Y-106008167D02*
X136699347Y-105912928D01*
X136699347Y-105912928D02*
X136746966Y-105817690D01*
X136746966Y-105817690D02*
X136794585Y-105627214D01*
X136794585Y-105627214D02*
X136794585Y-105484357D01*
X136794585Y-105484357D02*
X136746966Y-105293881D01*
X136746966Y-105293881D02*
X136699347Y-105198643D01*
X136699347Y-105198643D02*
X136604109Y-105103405D01*
X136604109Y-105103405D02*
X136461252Y-105055786D01*
X136461252Y-105055786D02*
X136366014Y-105055786D01*
X136366014Y-105055786D02*
X136223157Y-105103405D01*
X136223157Y-105103405D02*
X136175538Y-105151024D01*
X135842204Y-105055786D02*
X135175538Y-105055786D01*
X135175538Y-105055786D02*
X135604109Y-106055786D01*
X183687534Y-99234187D02*
X183735153Y-99281807D01*
X183735153Y-99281807D02*
X183878010Y-99329426D01*
X183878010Y-99329426D02*
X183973248Y-99329426D01*
X183973248Y-99329426D02*
X184116105Y-99281807D01*
X184116105Y-99281807D02*
X184211343Y-99186568D01*
X184211343Y-99186568D02*
X184258962Y-99091330D01*
X184258962Y-99091330D02*
X184306581Y-98900854D01*
X184306581Y-98900854D02*
X184306581Y-98757997D01*
X184306581Y-98757997D02*
X184258962Y-98567521D01*
X184258962Y-98567521D02*
X184211343Y-98472283D01*
X184211343Y-98472283D02*
X184116105Y-98377045D01*
X184116105Y-98377045D02*
X183973248Y-98329426D01*
X183973248Y-98329426D02*
X183878010Y-98329426D01*
X183878010Y-98329426D02*
X183735153Y-98377045D01*
X183735153Y-98377045D02*
X183687534Y-98424664D01*
X182735153Y-99329426D02*
X183306581Y-99329426D01*
X183020867Y-99329426D02*
X183020867Y-98329426D01*
X183020867Y-98329426D02*
X183116105Y-98472283D01*
X183116105Y-98472283D02*
X183211343Y-98567521D01*
X183211343Y-98567521D02*
X183306581Y-98615140D01*
X182401819Y-98329426D02*
X181782772Y-98329426D01*
X181782772Y-98329426D02*
X182116105Y-98710378D01*
X182116105Y-98710378D02*
X181973248Y-98710378D01*
X181973248Y-98710378D02*
X181878010Y-98757997D01*
X181878010Y-98757997D02*
X181830391Y-98805616D01*
X181830391Y-98805616D02*
X181782772Y-98900854D01*
X181782772Y-98900854D02*
X181782772Y-99138949D01*
X181782772Y-99138949D02*
X181830391Y-99234187D01*
X181830391Y-99234187D02*
X181878010Y-99281807D01*
X181878010Y-99281807D02*
X181973248Y-99329426D01*
X181973248Y-99329426D02*
X182258962Y-99329426D01*
X182258962Y-99329426D02*
X182354200Y-99281807D01*
X182354200Y-99281807D02*
X182401819Y-99234187D01*
D11*
X157544915Y-78419564D02*
X157544915Y-77149564D01*
X157544915Y-77149564D02*
X157242534Y-77149564D01*
X157242534Y-77149564D02*
X157061105Y-77210040D01*
X157061105Y-77210040D02*
X156940153Y-77330992D01*
X156940153Y-77330992D02*
X156879676Y-77451945D01*
X156879676Y-77451945D02*
X156819200Y-77693849D01*
X156819200Y-77693849D02*
X156819200Y-77875278D01*
X156819200Y-77875278D02*
X156879676Y-78117183D01*
X156879676Y-78117183D02*
X156940153Y-78238135D01*
X156940153Y-78238135D02*
X157061105Y-78359088D01*
X157061105Y-78359088D02*
X157242534Y-78419564D01*
X157242534Y-78419564D02*
X157544915Y-78419564D01*
X155609676Y-78419564D02*
X156335391Y-78419564D01*
X155972534Y-78419564D02*
X155972534Y-77149564D01*
X155972534Y-77149564D02*
X156093486Y-77330992D01*
X156093486Y-77330992D02*
X156214438Y-77451945D01*
X156214438Y-77451945D02*
X156335391Y-77512421D01*
D10*
X136305966Y-99941380D02*
X136353585Y-99989000D01*
X136353585Y-99989000D02*
X136496442Y-100036619D01*
X136496442Y-100036619D02*
X136591680Y-100036619D01*
X136591680Y-100036619D02*
X136734537Y-99989000D01*
X136734537Y-99989000D02*
X136829775Y-99893761D01*
X136829775Y-99893761D02*
X136877394Y-99798523D01*
X136877394Y-99798523D02*
X136925013Y-99608047D01*
X136925013Y-99608047D02*
X136925013Y-99465190D01*
X136925013Y-99465190D02*
X136877394Y-99274714D01*
X136877394Y-99274714D02*
X136829775Y-99179476D01*
X136829775Y-99179476D02*
X136734537Y-99084238D01*
X136734537Y-99084238D02*
X136591680Y-99036619D01*
X136591680Y-99036619D02*
X136496442Y-99036619D01*
X136496442Y-99036619D02*
X136353585Y-99084238D01*
X136353585Y-99084238D02*
X136305966Y-99131857D01*
X135448823Y-99036619D02*
X135639299Y-99036619D01*
X135639299Y-99036619D02*
X135734537Y-99084238D01*
X135734537Y-99084238D02*
X135782156Y-99131857D01*
X135782156Y-99131857D02*
X135877394Y-99274714D01*
X135877394Y-99274714D02*
X135925013Y-99465190D01*
X135925013Y-99465190D02*
X135925013Y-99846142D01*
X135925013Y-99846142D02*
X135877394Y-99941380D01*
X135877394Y-99941380D02*
X135829775Y-99989000D01*
X135829775Y-99989000D02*
X135734537Y-100036619D01*
X135734537Y-100036619D02*
X135544061Y-100036619D01*
X135544061Y-100036619D02*
X135448823Y-99989000D01*
X135448823Y-99989000D02*
X135401204Y-99941380D01*
X135401204Y-99941380D02*
X135353585Y-99846142D01*
X135353585Y-99846142D02*
X135353585Y-99608047D01*
X135353585Y-99608047D02*
X135401204Y-99512809D01*
X135401204Y-99512809D02*
X135448823Y-99465190D01*
X135448823Y-99465190D02*
X135544061Y-99417571D01*
X135544061Y-99417571D02*
X135734537Y-99417571D01*
X135734537Y-99417571D02*
X135829775Y-99465190D01*
X135829775Y-99465190D02*
X135877394Y-99512809D01*
X135877394Y-99512809D02*
X135925013Y-99608047D01*
X166528257Y-98373580D02*
X166575876Y-98421200D01*
X166575876Y-98421200D02*
X166718733Y-98468819D01*
X166718733Y-98468819D02*
X166813971Y-98468819D01*
X166813971Y-98468819D02*
X166956828Y-98421200D01*
X166956828Y-98421200D02*
X167052066Y-98325961D01*
X167052066Y-98325961D02*
X167099685Y-98230723D01*
X167099685Y-98230723D02*
X167147304Y-98040247D01*
X167147304Y-98040247D02*
X167147304Y-97897390D01*
X167147304Y-97897390D02*
X167099685Y-97706914D01*
X167099685Y-97706914D02*
X167052066Y-97611676D01*
X167052066Y-97611676D02*
X166956828Y-97516438D01*
X166956828Y-97516438D02*
X166813971Y-97468819D01*
X166813971Y-97468819D02*
X166718733Y-97468819D01*
X166718733Y-97468819D02*
X166575876Y-97516438D01*
X166575876Y-97516438D02*
X166528257Y-97564057D01*
X165575876Y-98468819D02*
X166147304Y-98468819D01*
X165861590Y-98468819D02*
X165861590Y-97468819D01*
X165861590Y-97468819D02*
X165956828Y-97611676D01*
X165956828Y-97611676D02*
X166052066Y-97706914D01*
X166052066Y-97706914D02*
X166147304Y-97754533D01*
X164718733Y-97802152D02*
X164718733Y-98468819D01*
X164956828Y-97421200D02*
X165194923Y-98135485D01*
X165194923Y-98135485D02*
X164575876Y-98135485D01*
X170715348Y-108719379D02*
X170762967Y-108766999D01*
X170762967Y-108766999D02*
X170905824Y-108814618D01*
X170905824Y-108814618D02*
X171001062Y-108814618D01*
X171001062Y-108814618D02*
X171143919Y-108766999D01*
X171143919Y-108766999D02*
X171239157Y-108671760D01*
X171239157Y-108671760D02*
X171286776Y-108576522D01*
X171286776Y-108576522D02*
X171334395Y-108386046D01*
X171334395Y-108386046D02*
X171334395Y-108243189D01*
X171334395Y-108243189D02*
X171286776Y-108052713D01*
X171286776Y-108052713D02*
X171239157Y-107957475D01*
X171239157Y-107957475D02*
X171143919Y-107862237D01*
X171143919Y-107862237D02*
X171001062Y-107814618D01*
X171001062Y-107814618D02*
X170905824Y-107814618D01*
X170905824Y-107814618D02*
X170762967Y-107862237D01*
X170762967Y-107862237D02*
X170715348Y-107909856D01*
X169762967Y-108814618D02*
X170334395Y-108814618D01*
X170048681Y-108814618D02*
X170048681Y-107814618D01*
X170048681Y-107814618D02*
X170143919Y-107957475D01*
X170143919Y-107957475D02*
X170239157Y-108052713D01*
X170239157Y-108052713D02*
X170334395Y-108100332D01*
X168905824Y-107814618D02*
X169096300Y-107814618D01*
X169096300Y-107814618D02*
X169191538Y-107862237D01*
X169191538Y-107862237D02*
X169239157Y-107909856D01*
X169239157Y-107909856D02*
X169334395Y-108052713D01*
X169334395Y-108052713D02*
X169382014Y-108243189D01*
X169382014Y-108243189D02*
X169382014Y-108624141D01*
X169382014Y-108624141D02*
X169334395Y-108719379D01*
X169334395Y-108719379D02*
X169286776Y-108766999D01*
X169286776Y-108766999D02*
X169191538Y-108814618D01*
X169191538Y-108814618D02*
X169001062Y-108814618D01*
X169001062Y-108814618D02*
X168905824Y-108766999D01*
X168905824Y-108766999D02*
X168858205Y-108719379D01*
X168858205Y-108719379D02*
X168810586Y-108624141D01*
X168810586Y-108624141D02*
X168810586Y-108386046D01*
X168810586Y-108386046D02*
X168858205Y-108290808D01*
X168858205Y-108290808D02*
X168905824Y-108243189D01*
X168905824Y-108243189D02*
X169001062Y-108195570D01*
X169001062Y-108195570D02*
X169191538Y-108195570D01*
X169191538Y-108195570D02*
X169286776Y-108243189D01*
X169286776Y-108243189D02*
X169334395Y-108290808D01*
X169334395Y-108290808D02*
X169382014Y-108386046D01*
D12*
%TO.C,C2*%
X143102200Y-120320752D02*
X143102200Y-118898248D01*
X144922200Y-120320752D02*
X144922200Y-118898248D01*
%TO.C,U4*%
X164004800Y-67114000D02*
X165954800Y-67114000D01*
X164004800Y-72234000D02*
X165954800Y-72234000D01*
X167904800Y-67114000D02*
X165954800Y-67114000D01*
X167904800Y-72234000D02*
X165954800Y-72234000D01*
X168654800Y-67209000D02*
X168414800Y-66879000D01*
X168894800Y-66879000D01*
X168654800Y-67209000D01*
G36*
X168654800Y-67209000D02*
G01*
X168414800Y-66879000D01*
X168894800Y-66879000D01*
X168654800Y-67209000D01*
G37*
D13*
%TO.C,IC2*%
X177019600Y-90024400D02*
X181609600Y-90024400D01*
X177019600Y-97224400D02*
X177019600Y-90024400D01*
X181609600Y-90024400D02*
X181609600Y-97224400D01*
X181609600Y-97224400D02*
X177019600Y-97224400D01*
X181959600Y-90124400D02*
X183664600Y-90124400D01*
D12*
%TO.C,R1*%
X129087236Y-80219300D02*
X130541364Y-80219300D01*
X129087236Y-82039300D02*
X130541364Y-82039300D01*
%TO.C,C10*%
X179477852Y-84114500D02*
X178055348Y-84114500D01*
X179477852Y-85934500D02*
X178055348Y-85934500D01*
%TO.C,C8*%
X166243400Y-74478648D02*
X166243400Y-75901152D01*
X168063400Y-74478648D02*
X168063400Y-75901152D01*
%TO.C,R4*%
X131186400Y-112189364D02*
X131186400Y-110735236D01*
X133006400Y-112189364D02*
X133006400Y-110735236D01*
%TO.C,C9*%
X171721548Y-72938700D02*
X173144052Y-72938700D01*
X171721548Y-74758700D02*
X173144052Y-74758700D01*
%TO.C,C4*%
X148435648Y-118613900D02*
X149858152Y-118613900D01*
X148435648Y-120433900D02*
X149858152Y-120433900D01*
%TO.C,U3*%
X142945100Y-64322000D02*
X146805100Y-64322000D01*
X142945100Y-64567000D02*
X142945100Y-64322000D01*
X142945100Y-75847000D02*
X142945100Y-76092000D01*
X142945100Y-76092000D02*
X146805100Y-76092000D01*
X150665100Y-64322000D02*
X146805100Y-64322000D01*
X150665100Y-64567000D02*
X150665100Y-64322000D01*
X150665100Y-75847000D02*
X150665100Y-76092000D01*
X150665100Y-76092000D02*
X146805100Y-76092000D01*
X151517600Y-64567000D02*
X151177600Y-64097000D01*
X151857600Y-64097000D01*
X151517600Y-64567000D01*
G36*
X151517600Y-64567000D02*
G01*
X151177600Y-64097000D01*
X151857600Y-64097000D01*
X151517600Y-64567000D01*
G37*
%TO.C,R5*%
X143793000Y-84919736D02*
X143793000Y-86373864D01*
X145613000Y-84919736D02*
X145613000Y-86373864D01*
%TO.C,R3*%
X135063000Y-91425764D02*
X135063000Y-89971636D01*
X136883000Y-91425764D02*
X136883000Y-89971636D01*
D13*
%TO.C,IC3*%
X174718900Y-100809500D02*
X179308900Y-100809500D01*
X174718900Y-108009500D02*
X174718900Y-100809500D01*
X179308900Y-100809500D02*
X179308900Y-108009500D01*
X179308900Y-108009500D02*
X174718900Y-108009500D01*
X179658900Y-100909500D02*
X181363900Y-100909500D01*
D12*
%TO.C,C1*%
X136443348Y-116289700D02*
X137865852Y-116289700D01*
X136443348Y-118109700D02*
X137865852Y-118109700D01*
%TO.C,C15*%
X168341600Y-105104352D02*
X168341600Y-103681848D01*
X170161600Y-105104352D02*
X170161600Y-103681848D01*
%TO.C,R2*%
X144085600Y-101786064D02*
X144085600Y-100331936D01*
X145905600Y-101786064D02*
X145905600Y-100331936D01*
D13*
%TO.C,IC1*%
X177358300Y-76211100D02*
X181948300Y-76211100D01*
X177358300Y-83411100D02*
X177358300Y-76211100D01*
X181948300Y-76211100D02*
X181948300Y-83411100D01*
X181948300Y-83411100D02*
X177358300Y-83411100D01*
X182298300Y-76311100D02*
X184003300Y-76311100D01*
D12*
%TO.C,C12*%
X166089500Y-91719852D02*
X166089500Y-90297348D01*
X167909500Y-91719852D02*
X167909500Y-90297348D01*
%TO.C,C11*%
X178071148Y-87349800D02*
X179493652Y-87349800D01*
X178071148Y-89169800D02*
X179493652Y-89169800D01*
%TO.C,C7*%
X135431748Y-102991700D02*
X136854252Y-102991700D01*
X135431748Y-104811700D02*
X136854252Y-104811700D01*
%TO.C,C13*%
X179792352Y-97968600D02*
X178369848Y-97968600D01*
X179792352Y-99788600D02*
X178369848Y-99788600D01*
D13*
%TO.C,D1*%
X156231400Y-74823600D02*
X156431400Y-74823600D01*
X156231400Y-76823600D02*
X156231400Y-74823600D01*
X156431400Y-74823600D02*
X156431400Y-76823600D01*
X156431400Y-76823600D02*
X156231400Y-76823600D01*
X156781400Y-74648600D02*
X157781400Y-74648600D01*
D12*
%TO.C,C6*%
X135428048Y-100521800D02*
X136850552Y-100521800D01*
X135428048Y-102341800D02*
X136850552Y-102341800D01*
%TO.C,C14*%
X165174148Y-98954000D02*
X166596652Y-98954000D01*
X165174148Y-100774000D02*
X166596652Y-100774000D01*
%TO.C,C16*%
X172029348Y-109238000D02*
X173451852Y-109238000D01*
X172029348Y-111058000D02*
X173451852Y-111058000D01*
%TD*%
%LPC*%
D14*
%TO.C,J2*%
X154427100Y-80520700D03*
D15*
X156967100Y-80520700D03*
%TD*%
D14*
%TO.C,J10*%
X154147400Y-96704500D03*
D15*
X156687400Y-96704500D03*
%TD*%
D16*
%TO.C,R7*%
X139116100Y-58260700D03*
D17*
X141656100Y-58260700D03*
%TD*%
D18*
%TO.C,J1*%
X157148000Y-71872800D03*
D19*
X157148000Y-69332800D03*
X157148000Y-66792800D03*
X157148000Y-64252800D03*
%TD*%
D16*
%TO.C,NTC1*%
X135965600Y-94809500D03*
D17*
X135965600Y-97349500D03*
%TD*%
D14*
%TO.C,J3*%
X146767300Y-124094700D03*
D15*
X144227300Y-124094700D03*
X141687300Y-124094700D03*
X139147300Y-124094700D03*
X136607300Y-124094700D03*
X134067300Y-124094700D03*
%TD*%
D18*
%TO.C,J15*%
X169777600Y-97738800D03*
D19*
X169777600Y-95198800D03*
X169777600Y-92658800D03*
X169777600Y-90118800D03*
%TD*%
D14*
%TO.C,J7*%
X154091800Y-85981100D03*
D15*
X156631800Y-85981100D03*
%TD*%
D20*
%TO.C,U5*%
X134999500Y-70018000D03*
X134999500Y-73418000D03*
X125079500Y-70018000D03*
X125079500Y-73418000D03*
%TD*%
D14*
%TO.C,J8*%
X154099500Y-91526100D03*
D15*
X156639500Y-91526100D03*
%TD*%
D16*
%TO.C,R6*%
X163881700Y-75743400D03*
D17*
X161341700Y-75743400D03*
%TD*%
D18*
%TO.C,J14*%
X169740800Y-86017900D03*
D19*
X169740800Y-83477900D03*
X169740800Y-80937900D03*
X169740800Y-78397900D03*
%TD*%
D18*
%TO.C,J16*%
X166572100Y-110206600D03*
D19*
X166572100Y-107666600D03*
X166572100Y-105126600D03*
X166572100Y-102586600D03*
%TD*%
D14*
%TO.C,Powerboard1*%
X130976300Y-87552600D03*
D15*
X130976300Y-90092600D03*
X130976300Y-92632600D03*
%TD*%
D14*
%TO.C,J9*%
X163522200Y-91904000D03*
D15*
X163522200Y-94444000D03*
X163522200Y-96984000D03*
%TD*%
D21*
%TO.C,U2*%
X140929500Y-81761800D03*
D17*
X140929500Y-84301800D03*
X140929500Y-86841800D03*
X140929500Y-89381800D03*
X140929500Y-91921800D03*
X140929500Y-94461800D03*
X140929500Y-97001800D03*
X140929500Y-99541800D03*
X140929500Y-102081800D03*
X140929500Y-104621800D03*
X140929500Y-107161800D03*
X140929500Y-109701800D03*
X140929500Y-112241800D03*
X140929500Y-114781800D03*
X148549500Y-114781800D03*
X148549500Y-112241800D03*
X148549500Y-109701800D03*
X148549500Y-107161800D03*
X148549500Y-104621800D03*
X148549500Y-102081800D03*
X148549500Y-99541800D03*
X148549500Y-97001800D03*
X148549500Y-94461800D03*
X148549500Y-91921800D03*
X148549500Y-89381800D03*
X148549500Y-86841800D03*
X148549500Y-84301800D03*
X148549500Y-81761800D03*
%TD*%
D14*
%TO.C,J5*%
X139049600Y-61738500D03*
D15*
X141589600Y-61738500D03*
%TD*%
D22*
%TO.C,Q1*%
X136586000Y-84423600D03*
D23*
X136586000Y-81883600D03*
X136586000Y-79343600D03*
%TD*%
D24*
%TO.C,Y2*%
X157308300Y-119543000D03*
X162188300Y-119543000D03*
%TD*%
D25*
%TO.C,Reset1*%
X135385300Y-113752500D03*
D24*
X128885300Y-113752500D03*
X135385300Y-109252500D03*
X128885300Y-109252500D03*
%TD*%
D14*
%TO.C,J6*%
X162905100Y-80664400D03*
D15*
X162905100Y-83204400D03*
X162905100Y-85744400D03*
%TD*%
D24*
%TO.C,Y1*%
X134207200Y-119354100D03*
X139087200Y-119354100D03*
%TD*%
D14*
%TO.C,J12*%
X161047400Y-103693100D03*
D15*
X161047400Y-106233100D03*
X161047400Y-108773100D03*
%TD*%
D14*
%TO.C,J11*%
X152867400Y-108259400D03*
D15*
X155407400Y-108259400D03*
%TD*%
D14*
%TO.C,J13*%
X152903300Y-102979900D03*
D15*
X155443300Y-102979900D03*
%TD*%
D26*
%TO.C,C2*%
X144012200Y-118047000D03*
X144012200Y-121172000D03*
%TD*%
D27*
%TO.C,U4*%
X168429800Y-67769000D03*
X168429800Y-69039000D03*
X168429800Y-70309000D03*
X168429800Y-71579000D03*
X163479800Y-71579000D03*
X163479800Y-70309000D03*
X163479800Y-69039000D03*
X163479800Y-67769000D03*
%TD*%
D28*
%TO.C,IC2*%
X182812600Y-90699400D03*
X182812600Y-91349400D03*
X182812600Y-91999400D03*
X182812600Y-92649400D03*
X182812600Y-93299400D03*
X182812600Y-93949400D03*
X182812600Y-94599400D03*
X182812600Y-95249400D03*
X182812600Y-95899400D03*
X182812600Y-96549400D03*
X175816600Y-96549400D03*
X175816600Y-95899400D03*
X175816600Y-95249400D03*
X175816600Y-94599400D03*
X175816600Y-93949400D03*
X175816600Y-93299400D03*
X175816600Y-92649400D03*
X175816600Y-91999400D03*
X175816600Y-91349400D03*
X175816600Y-90699400D03*
%TD*%
D29*
%TO.C,R1*%
X131364300Y-81129300D03*
X128264300Y-81129300D03*
%TD*%
D30*
%TO.C,C10*%
X177204100Y-85024500D03*
X180329100Y-85024500D03*
%TD*%
D31*
%TO.C,C8*%
X167153400Y-76752400D03*
X167153400Y-73627400D03*
%TD*%
D32*
%TO.C,R4*%
X132096400Y-109912300D03*
X132096400Y-113012300D03*
%TD*%
D33*
%TO.C,C9*%
X173995300Y-73848700D03*
X170870300Y-73848700D03*
%TD*%
%TO.C,C4*%
X150709400Y-119523900D03*
X147584400Y-119523900D03*
%TD*%
D34*
%TO.C,U3*%
X151455100Y-65127000D03*
X151455100Y-66397000D03*
X151455100Y-67667000D03*
X151455100Y-68937000D03*
X151455100Y-70207000D03*
X151455100Y-71477000D03*
X151455100Y-72747000D03*
X151455100Y-74017000D03*
X151455100Y-75287000D03*
X142155100Y-75287000D03*
X142155100Y-74017000D03*
X142155100Y-72747000D03*
X142155100Y-71477000D03*
X142155100Y-70207000D03*
X142155100Y-68937000D03*
X142155100Y-67667000D03*
X142155100Y-66397000D03*
X142155100Y-65127000D03*
%TD*%
D35*
%TO.C,R5*%
X144703000Y-87196800D03*
X144703000Y-84096800D03*
%TD*%
D32*
%TO.C,R3*%
X135973000Y-89148700D03*
X135973000Y-92248700D03*
%TD*%
D28*
%TO.C,IC3*%
X180511900Y-101484500D03*
X180511900Y-102134500D03*
X180511900Y-102784500D03*
X180511900Y-103434500D03*
X180511900Y-104084500D03*
X180511900Y-104734500D03*
X180511900Y-105384500D03*
X180511900Y-106034500D03*
X180511900Y-106684500D03*
X180511900Y-107334500D03*
X173515900Y-107334500D03*
X173515900Y-106684500D03*
X173515900Y-106034500D03*
X173515900Y-105384500D03*
X173515900Y-104734500D03*
X173515900Y-104084500D03*
X173515900Y-103434500D03*
X173515900Y-102784500D03*
X173515900Y-102134500D03*
X173515900Y-101484500D03*
%TD*%
D33*
%TO.C,C1*%
X138717100Y-117199700D03*
X135592100Y-117199700D03*
%TD*%
D26*
%TO.C,C15*%
X169251600Y-102830600D03*
X169251600Y-105955600D03*
%TD*%
D32*
%TO.C,R2*%
X144995600Y-99509000D03*
X144995600Y-102609000D03*
%TD*%
D28*
%TO.C,IC1*%
X183151300Y-76886100D03*
X183151300Y-77536100D03*
X183151300Y-78186100D03*
X183151300Y-78836100D03*
X183151300Y-79486100D03*
X183151300Y-80136100D03*
X183151300Y-80786100D03*
X183151300Y-81436100D03*
X183151300Y-82086100D03*
X183151300Y-82736100D03*
X176155300Y-82736100D03*
X176155300Y-82086100D03*
X176155300Y-81436100D03*
X176155300Y-80786100D03*
X176155300Y-80136100D03*
X176155300Y-79486100D03*
X176155300Y-78836100D03*
X176155300Y-78186100D03*
X176155300Y-77536100D03*
X176155300Y-76886100D03*
%TD*%
D26*
%TO.C,C12*%
X166999500Y-89446100D03*
X166999500Y-92571100D03*
%TD*%
D33*
%TO.C,C11*%
X180344900Y-88259800D03*
X177219900Y-88259800D03*
%TD*%
%TO.C,C7*%
X137705500Y-103901700D03*
X134580500Y-103901700D03*
%TD*%
D30*
%TO.C,C13*%
X177518600Y-98878600D03*
X180643600Y-98878600D03*
%TD*%
D36*
%TO.C,D1*%
X157281400Y-75173600D03*
X157281400Y-76473600D03*
X155381400Y-75823600D03*
%TD*%
D33*
%TO.C,C6*%
X137701800Y-101431800D03*
X134576800Y-101431800D03*
%TD*%
%TO.C,C14*%
X167447900Y-99864000D03*
X164322900Y-99864000D03*
%TD*%
%TO.C,C16*%
X174303100Y-110148000D03*
X171178100Y-110148000D03*
%TD*%
%LPD*%
M02*
