%TF.GenerationSoftware,KiCad,Pcbnew,8.0.1-rc1*%
%TF.CreationDate,2024-06-22T18:24:14-07:00*%
%TF.ProjectId,AMS - CANBus Sensor - Temperature,414d5320-2d20-4434-914e-427573205365,rev?*%
%TF.SameCoordinates,Original*%
%TF.FileFunction,Copper,L2,Bot*%
%TF.FilePolarity,Positive*%
%FSLAX46Y46*%
G04 Gerber Fmt 4.6, Leading zero omitted, Abs format (unit mm)*
G04 Created by KiCad (PCBNEW 8.0.1-rc1) date 2024-06-22 18:24:14*
%MOMM*%
%LPD*%
G01*
G04 APERTURE LIST*
G04 Aperture macros list*
%AMRoundRect*
0 Rectangle with rounded corners*
0 $1 Rounding radius*
0 $2 $3 $4 $5 $6 $7 $8 $9 X,Y pos of 4 corners*
0 Add a 4 corners polygon primitive as box body*
4,1,4,$2,$3,$4,$5,$6,$7,$8,$9,$2,$3,0*
0 Add four circle primitives for the rounded corners*
1,1,$1+$1,$2,$3*
1,1,$1+$1,$4,$5*
1,1,$1+$1,$6,$7*
1,1,$1+$1,$8,$9*
0 Add four rect primitives between the rounded corners*
20,1,$1+$1,$2,$3,$4,$5,0*
20,1,$1+$1,$4,$5,$6,$7,0*
20,1,$1+$1,$6,$7,$8,$9,0*
20,1,$1+$1,$8,$9,$2,$3,0*%
G04 Aperture macros list end*
%TA.AperFunction,ComponentPad*%
%ADD10C,1.600000*%
%TD*%
%TA.AperFunction,ComponentPad*%
%ADD11O,1.600000X1.600000*%
%TD*%
%TA.AperFunction,ComponentPad*%
%ADD12R,2.200000X2.200000*%
%TD*%
%TA.AperFunction,ComponentPad*%
%ADD13C,2.200000*%
%TD*%
%TA.AperFunction,ComponentPad*%
%ADD14R,1.700000X1.700000*%
%TD*%
%TA.AperFunction,ComponentPad*%
%ADD15O,1.700000X1.700000*%
%TD*%
%TA.AperFunction,ComponentPad*%
%ADD16C,2.400000*%
%TD*%
%TA.AperFunction,ComponentPad*%
%ADD17R,1.600000X1.600000*%
%TD*%
%TA.AperFunction,ComponentPad*%
%ADD18R,1.920000X1.920000*%
%TD*%
%TA.AperFunction,ComponentPad*%
%ADD19C,1.920000*%
%TD*%
%TA.AperFunction,ComponentPad*%
%ADD20C,1.500000*%
%TD*%
%TA.AperFunction,ComponentPad*%
%ADD21R,1.500000X1.500000*%
%TD*%
%TA.AperFunction,SMDPad,CuDef*%
%ADD22RoundRect,0.250000X0.650000X-0.412500X0.650000X0.412500X-0.650000X0.412500X-0.650000X-0.412500X0*%
%TD*%
%TA.AperFunction,SMDPad,CuDef*%
%ADD23RoundRect,0.250000X-0.650000X0.412500X-0.650000X-0.412500X0.650000X-0.412500X0.650000X0.412500X0*%
%TD*%
%TA.AperFunction,SMDPad,CuDef*%
%ADD24RoundRect,0.150000X0.825000X0.150000X-0.825000X0.150000X-0.825000X-0.150000X0.825000X-0.150000X0*%
%TD*%
%TA.AperFunction,SMDPad,CuDef*%
%ADD25R,1.705000X0.450000*%
%TD*%
%TA.AperFunction,SMDPad,CuDef*%
%ADD26RoundRect,0.250000X-0.412500X-0.650000X0.412500X-0.650000X0.412500X0.650000X-0.412500X0.650000X0*%
%TD*%
%TA.AperFunction,SMDPad,CuDef*%
%ADD27RoundRect,0.250000X-0.625000X0.400000X-0.625000X-0.400000X0.625000X-0.400000X0.625000X0.400000X0*%
%TD*%
%TA.AperFunction,SMDPad,CuDef*%
%ADD28RoundRect,0.250000X0.412500X0.650000X-0.412500X0.650000X-0.412500X-0.650000X0.412500X-0.650000X0*%
%TD*%
%TA.AperFunction,SMDPad,CuDef*%
%ADD29RoundRect,0.150000X0.875000X0.150000X-0.875000X0.150000X-0.875000X-0.150000X0.875000X-0.150000X0*%
%TD*%
%TA.AperFunction,SMDPad,CuDef*%
%ADD30RoundRect,0.250000X0.625000X-0.400000X0.625000X0.400000X-0.625000X0.400000X-0.625000X-0.400000X0*%
%TD*%
%TA.AperFunction,SMDPad,CuDef*%
%ADD31R,1.525000X0.650000*%
%TD*%
%TA.AperFunction,SMDPad,CuDef*%
%ADD32R,1.850000X0.900000*%
%TD*%
%TA.AperFunction,SMDPad,CuDef*%
%ADD33R,1.850000X3.200000*%
%TD*%
%TA.AperFunction,SMDPad,CuDef*%
%ADD34R,1.000000X0.550000*%
%TD*%
%TA.AperFunction,ViaPad*%
%ADD35C,0.600000*%
%TD*%
%TA.AperFunction,Conductor*%
%ADD36C,0.200000*%
%TD*%
%TA.AperFunction,Conductor*%
%ADD37C,0.762000*%
%TD*%
G04 APERTURE END LIST*
D10*
%TO.P,R7,1*%
%TO.N,Net-(J5-Pin_2)*%
X139116100Y-58260700D03*
D11*
%TO.P,R7,2*%
%TO.N,CANBUS_L*%
X141656100Y-58260700D03*
%TD*%
D12*
%TO.P,J1,1,Pin_1*%
%TO.N,Net-(J1-Pin_1)*%
X157148000Y-71872800D03*
D13*
%TO.P,J1,2,Pin_2*%
%TO.N,GND*%
X157148000Y-69332800D03*
%TO.P,J1,3,Pin_3*%
%TO.N,CANBUS_H*%
X157148000Y-66792800D03*
%TO.P,J1,4,Pin_4*%
%TO.N,CANBUS_L*%
X157148000Y-64252800D03*
%TD*%
D10*
%TO.P,NTC1,1*%
%TO.N,/BareMinAtmel328P/PC0-A0*%
X135965600Y-94809500D03*
D11*
%TO.P,NTC1,2*%
%TO.N,+5V*%
X135965600Y-97349500D03*
%TD*%
D14*
%TO.P,J3,1,Pin_1*%
%TO.N,GND*%
X146767300Y-124094700D03*
D15*
%TO.P,J3,2,Pin_2*%
%TO.N,unconnected-(J3-Pin_2-Pad2)*%
X144227300Y-124094700D03*
%TO.P,J3,3,Pin_3*%
%TO.N,+5V*%
X141687300Y-124094700D03*
%TO.P,J3,4,Pin_4*%
%TO.N,/BareMinAtmel328P/PD0-RX*%
X139147300Y-124094700D03*
%TO.P,J3,5,Pin_5*%
%TO.N,/BareMinAtmel328P/PD1-TX*%
X136607300Y-124094700D03*
%TO.P,J3,6,Pin_6*%
%TO.N,Net-(J3-Pin_6)*%
X134067300Y-124094700D03*
%TD*%
D12*
%TO.P,J15,1,Pin_1*%
%TO.N,/MAX31865AAP+2/RTDIn+*%
X167848300Y-96013700D03*
D13*
%TO.P,J15,2,Pin_2*%
%TO.N,/MAX31865AAP+2/FORCE+*%
X167848300Y-93473700D03*
%TO.P,J15,3,Pin_3*%
%TO.N,/MAX31865AAP+2/FORCE-*%
X167848300Y-90933700D03*
%TO.P,J15,4,Pin_4*%
%TO.N,/MAX31865AAP+2/RTDin-*%
X167848300Y-88393700D03*
%TD*%
D16*
%TO.P,U5,1,1*%
%TO.N,Net-(Q1-Pad3)*%
X134999500Y-70018000D03*
%TO.P,U5,2,2*%
X134999500Y-73418000D03*
%TO.P,U5,3,3*%
%TO.N,+VDC*%
X125079500Y-70018000D03*
%TO.P,U5,4,4*%
X125079500Y-73418000D03*
%TD*%
D10*
%TO.P,R6,1*%
%TO.N,Net-(U4-Rs)*%
X159962900Y-75582300D03*
D11*
%TO.P,R6,2*%
%TO.N,GND*%
X157422900Y-75582300D03*
%TD*%
D12*
%TO.P,J14,1,Pin_1*%
%TO.N,/MAX31865AAP+1/RTDIn+*%
X167892100Y-83986200D03*
D13*
%TO.P,J14,2,Pin_2*%
%TO.N,/MAX31865AAP+1/FORCE+*%
X167892100Y-81446200D03*
%TO.P,J14,3,Pin_3*%
%TO.N,/MAX31865AAP+1/FORCE-*%
X167892100Y-78906200D03*
%TO.P,J14,4,Pin_4*%
%TO.N,/MAX31865AAP+1/RTDin-*%
X167892100Y-76366200D03*
%TD*%
D12*
%TO.P,J16,1,Pin_1*%
%TO.N,/MAX31865AAP+3/RTDIn+*%
X167909100Y-108390600D03*
D13*
%TO.P,J16,2,Pin_2*%
%TO.N,/MAX31865AAP+3/FORCE+*%
X167909100Y-105850600D03*
%TO.P,J16,3,Pin_3*%
%TO.N,/MAX31865AAP+3/FORCE-*%
X167909100Y-103310600D03*
%TO.P,J16,4,Pin_4*%
%TO.N,/MAX31865AAP+3/RTDin-*%
X167909100Y-100770600D03*
%TD*%
D14*
%TO.P,Powerboard1,1,Pin_1*%
%TO.N,+VDC*%
X130976300Y-92602600D03*
D15*
%TO.P,Powerboard1,2,Pin_2*%
%TO.N,+5V*%
X130976300Y-90062600D03*
%TO.P,Powerboard1,3,Pin_3*%
%TO.N,GND*%
X130976300Y-87522600D03*
%TD*%
D17*
%TO.P,U2,1,~{RESET}/PC6*%
%TO.N,/BareMinAtmel328P/RESET*%
X140929500Y-81761800D03*
D11*
%TO.P,U2,2,PD0*%
%TO.N,/BareMinAtmel328P/PD0-RX*%
X140929500Y-84301800D03*
%TO.P,U2,3,PD1*%
%TO.N,/BareMinAtmel328P/PD1-TX*%
X140929500Y-86841800D03*
%TO.P,U2,4,PD2*%
%TO.N,/BareMinAtmel328P/PD2-D2*%
X140929500Y-89381800D03*
%TO.P,U2,5,PD3*%
%TO.N,/BareMinAtmel328P/PD3-D3*%
X140929500Y-91921800D03*
%TO.P,U2,6,PD4*%
%TO.N,/BareMinAtmel328P/PD4-D4*%
X140929500Y-94461800D03*
%TO.P,U2,7,VCC*%
%TO.N,+5V*%
X140929500Y-97001800D03*
%TO.P,U2,8,GND*%
%TO.N,GND*%
X140929500Y-99541800D03*
%TO.P,U2,9,XTAL1/PB6*%
%TO.N,Net-(U2-XTAL1{slash}PB6)*%
X140929500Y-102081800D03*
%TO.P,U2,10,XTAL2/PB7*%
%TO.N,Net-(U2-XTAL2{slash}PB7)*%
X140929500Y-104621800D03*
%TO.P,U2,11,PD5*%
%TO.N,/BareMinAtmel328P/PD5-D5*%
X140929500Y-107161800D03*
%TO.P,U2,12,PD6*%
%TO.N,/BareMinAtmel328P/PD6-D6*%
X140929500Y-109701800D03*
%TO.P,U2,13,PD7*%
%TO.N,/BareMinAtmel328P/PD7-D7*%
X140929500Y-112241800D03*
%TO.P,U2,14,PB0*%
%TO.N,/BareMinAtmel328P/PB0-D8*%
X140929500Y-114781800D03*
%TO.P,U2,15,PB1*%
%TO.N,/BareMinAtmel328P/PB1-D9*%
X148549500Y-114781800D03*
%TO.P,U2,16,PB2*%
%TO.N,/BareMinAtmel328P/PB2-D10-SS*%
X148549500Y-112241800D03*
%TO.P,U2,17,PB3*%
%TO.N,MOSI*%
X148549500Y-109701800D03*
%TO.P,U2,18,PB4*%
%TO.N,MISO*%
X148549500Y-107161800D03*
%TO.P,U2,19,PB5*%
%TO.N,CLK*%
X148549500Y-104621800D03*
%TO.P,U2,20,AVCC*%
%TO.N,+5V*%
X148549500Y-102081800D03*
%TO.P,U2,21,AREF*%
%TO.N,/BareMinAtmel328P/AREF*%
X148549500Y-99541800D03*
%TO.P,U2,22,GND*%
%TO.N,GND*%
X148549500Y-97001800D03*
%TO.P,U2,23,PC0*%
%TO.N,/BareMinAtmel328P/PC0-A0*%
X148549500Y-94461800D03*
%TO.P,U2,24,PC1*%
%TO.N,/BareMinAtmel328P/PC1-A1*%
X148549500Y-91921800D03*
%TO.P,U2,25,PC2*%
%TO.N,/BareMinAtmel328P/PC2-A2*%
X148549500Y-89381800D03*
%TO.P,U2,26,PC3*%
%TO.N,/BareMinAtmel328P/PC3-A3*%
X148549500Y-86841800D03*
%TO.P,U2,27,PC4*%
%TO.N,/BareMinAtmel328P/PC4-A4-SDA*%
X148549500Y-84301800D03*
%TO.P,U2,28,PC5*%
%TO.N,/BareMinAtmel328P/PC5-A5-SCL*%
X148549500Y-81761800D03*
%TD*%
D14*
%TO.P,J5,1,Pin_1*%
%TO.N,CANBUS_H*%
X139049600Y-61738500D03*
D15*
%TO.P,J5,2,Pin_2*%
%TO.N,Net-(J5-Pin_2)*%
X141589600Y-61738500D03*
%TD*%
D18*
%TO.P,Q1,1*%
%TO.N,Net-(Q1-Pad1)*%
X136586000Y-84423600D03*
D19*
%TO.P,Q1,2*%
%TO.N,Net-(J1-Pin_1)*%
X136586000Y-81883600D03*
%TO.P,Q1,3*%
%TO.N,Net-(Q1-Pad3)*%
X136586000Y-79343600D03*
%TD*%
D20*
%TO.P,Y2,1,1*%
%TO.N,Net-(U3-OSC1)*%
X156482900Y-115391200D03*
%TO.P,Y2,2,2*%
%TO.N,Net-(U3-OSC2)*%
X161362900Y-115391200D03*
%TD*%
D21*
%TO.P,Reset1,1,NO_1*%
%TO.N,/BareMinAtmel328P/RESET*%
X135385300Y-113752500D03*
D20*
%TO.P,Reset1,2,NO_2*%
%TO.N,unconnected-(Reset1-NO_2-Pad2)*%
X128885300Y-113752500D03*
%TO.P,Reset1,3,COM_1*%
%TO.N,GND*%
X135385300Y-109252500D03*
%TO.P,Reset1,4,COM_2*%
%TO.N,unconnected-(Reset1-COM_2-Pad4)*%
X128885300Y-109252500D03*
%TD*%
%TO.P,Y1,1,1*%
%TO.N,Net-(U2-XTAL2{slash}PB7)*%
X135241300Y-119345300D03*
%TO.P,Y1,2,2*%
%TO.N,Net-(U2-XTAL1{slash}PB6)*%
X140121300Y-119345300D03*
%TD*%
D22*
%TO.P,C17,1*%
%TO.N,GND*%
X122452500Y-80108100D03*
%TO.P,C17,2*%
%TO.N,+3.3V*%
X122452500Y-76983100D03*
%TD*%
D23*
%TO.P,C2,1*%
%TO.N,Net-(U2-XTAL1{slash}PB6)*%
X145046300Y-118038200D03*
%TO.P,C2,2*%
%TO.N,GND*%
X145046300Y-121163200D03*
%TD*%
D24*
%TO.P,U4,1,TXD*%
%TO.N,/CANBUS-MCP2515/TXtoCANTC*%
X168429800Y-67769000D03*
%TO.P,U4,2,VSS*%
%TO.N,GND*%
X168429800Y-69039000D03*
%TO.P,U4,3,VDD*%
%TO.N,+5V*%
X168429800Y-70309000D03*
%TO.P,U4,4,RXD*%
%TO.N,/CANBUS-MCP2515/RXtoCANTC*%
X168429800Y-71579000D03*
%TO.P,U4,5,Vref*%
%TO.N,unconnected-(U4-Vref-Pad5)*%
X163479800Y-71579000D03*
%TO.P,U4,6,CANL*%
%TO.N,CANBUS_L*%
X163479800Y-70309000D03*
%TO.P,U4,7,CANH*%
%TO.N,CANBUS_H*%
X163479800Y-69039000D03*
%TO.P,U4,8,Rs*%
%TO.N,Net-(U4-Rs)*%
X163479800Y-67769000D03*
%TD*%
D25*
%TO.P,IC2,1,~{DRDY}*%
%TO.N,unconnected-(IC2-~{DRDY}-Pad1)*%
X159052800Y-93041700D03*
%TO.P,IC2,2,DVDD*%
%TO.N,/MAX31865AAP+2/3.3V*%
X159052800Y-93691700D03*
%TO.P,IC2,3,VDD*%
X159052800Y-94341700D03*
%TO.P,IC2,4,BIAS*%
%TO.N,Net-(IC2-BIAS)*%
X159052800Y-94991700D03*
%TO.P,IC2,5,REFIN+*%
X159052800Y-95641700D03*
%TO.P,IC2,6,REFIN-*%
%TO.N,Net-(IC2-ISENSOR)*%
X159052800Y-96291700D03*
%TO.P,IC2,7,ISENSOR*%
X159052800Y-96941700D03*
%TO.P,IC2,8,FORCE+*%
%TO.N,/MAX31865AAP+2/FORCE+*%
X159052800Y-97591700D03*
%TO.P,IC2,9,FORCE2*%
%TO.N,Net-(IC2-FORCE2)*%
X159052800Y-98241700D03*
%TO.P,IC2,10,RTDIN+*%
%TO.N,/MAX31865AAP+2/RTDIn+*%
X159052800Y-98891700D03*
%TO.P,IC2,11,RTDIN-*%
%TO.N,/MAX31865AAP+2/RTDin-*%
X152056800Y-98891700D03*
%TO.P,IC2,12,FORCE-*%
%TO.N,/MAX31865AAP+2/FORCE-*%
X152056800Y-98241700D03*
%TO.P,IC2,13,GND2*%
%TO.N,/MAX31865AAP+2/GND*%
X152056800Y-97591700D03*
%TO.P,IC2,14,SDI*%
%TO.N,/MAX31865AAP+1/MOSI3v*%
X152056800Y-96941700D03*
%TO.P,IC2,15,SCLK*%
%TO.N,/MAX31865AAP+1/SLC3v*%
X152056800Y-96291700D03*
%TO.P,IC2,16,~{CS}*%
%TO.N,/MAX31865AAP+2/CS3v*%
X152056800Y-95641700D03*
%TO.P,IC2,17,SDO*%
%TO.N,/MAX31865AAP+1/MISO3v*%
X152056800Y-94991700D03*
%TO.P,IC2,18,DGND*%
%TO.N,/MAX31865AAP+2/GND*%
X152056800Y-94341700D03*
%TO.P,IC2,19,GND*%
X152056800Y-93691700D03*
%TO.P,IC2,20,N.C.*%
%TO.N,unconnected-(IC2-N.C.-Pad20)*%
X152056800Y-93041700D03*
%TD*%
D26*
%TO.P,C10,1*%
%TO.N,/MAX31865AAP+1/RTDin-*%
X171892600Y-77456100D03*
%TO.P,C10,2*%
%TO.N,/MAX31865AAP+1/RTDIn+*%
X175017600Y-77456100D03*
%TD*%
D27*
%TO.P,R4,1*%
%TO.N,+5V*%
X132096400Y-109912300D03*
%TO.P,R4,2*%
%TO.N,/BareMinAtmel328P/RESET*%
X132096400Y-113012300D03*
%TD*%
D22*
%TO.P,C9,1*%
%TO.N,/MAX31865AAP+1/3.3V*%
X162729800Y-86897200D03*
%TO.P,C9,2*%
%TO.N,/MAX31865AAP+1/GND*%
X162729800Y-83772200D03*
%TD*%
D28*
%TO.P,C4,1*%
%TO.N,Net-(U3-OSC2)*%
X151743500Y-119515100D03*
%TO.P,C4,2*%
%TO.N,GND*%
X148618500Y-119515100D03*
%TD*%
D29*
%TO.P,U3,1,TXCAN*%
%TO.N,/CANBUS-MCP2515/TXtoCANTC*%
X151455100Y-65127000D03*
%TO.P,U3,2,RXCAN*%
%TO.N,/CANBUS-MCP2515/RXtoCANTC*%
X151455100Y-66397000D03*
%TO.P,U3,3,CLKOUT/SOF*%
%TO.N,unconnected-(U3-CLKOUT{slash}SOF-Pad3)*%
X151455100Y-67667000D03*
%TO.P,U3,4,~{TX0RTS}*%
%TO.N,unconnected-(U3-~{TX0RTS}-Pad4)*%
X151455100Y-68937000D03*
%TO.P,U3,5,~{TX1RTS}*%
%TO.N,unconnected-(U3-~{TX1RTS}-Pad5)*%
X151455100Y-70207000D03*
%TO.P,U3,6,~{TX2RTS}*%
%TO.N,unconnected-(U3-~{TX2RTS}-Pad6)*%
X151455100Y-71477000D03*
%TO.P,U3,7,OSC2*%
%TO.N,Net-(U3-OSC2)*%
X151455100Y-72747000D03*
%TO.P,U3,8,OSC1*%
%TO.N,Net-(U3-OSC1)*%
X151455100Y-74017000D03*
%TO.P,U3,9,VSS*%
%TO.N,GND*%
X151455100Y-75287000D03*
%TO.P,U3,10,~{RX1BF}*%
%TO.N,unconnected-(U3-~{RX1BF}-Pad10)*%
X142155100Y-75287000D03*
%TO.P,U3,11,~{RX0BF}*%
%TO.N,unconnected-(U3-~{RX0BF}-Pad11)*%
X142155100Y-74017000D03*
%TO.P,U3,12,~{INT}*%
%TO.N,/BareMinAtmel328P/PD2-D2*%
X142155100Y-72747000D03*
%TO.P,U3,13,SCK*%
%TO.N,CLK*%
X142155100Y-71477000D03*
%TO.P,U3,14,SI*%
%TO.N,MOSI*%
X142155100Y-70207000D03*
%TO.P,U3,15,SO*%
%TO.N,MISO*%
X142155100Y-68937000D03*
%TO.P,U3,16,~{CS}*%
%TO.N,/BareMinAtmel328P/PB1-D9*%
X142155100Y-67667000D03*
%TO.P,U3,17,~{RESET}*%
%TO.N,Net-(U3-~{RESET})*%
X142155100Y-66397000D03*
%TO.P,U3,18,VDD*%
%TO.N,+5V*%
X142155100Y-65127000D03*
%TD*%
D30*
%TO.P,R5,1*%
%TO.N,Net-(U3-~{RESET})*%
X144703000Y-87196800D03*
%TO.P,R5,2*%
%TO.N,+5V*%
X144703000Y-84096800D03*
%TD*%
D27*
%TO.P,R3,1*%
%TO.N,GND*%
X135973000Y-89148700D03*
%TO.P,R3,2*%
%TO.N,/BareMinAtmel328P/PC0-A0*%
X135973000Y-92248700D03*
%TD*%
D25*
%TO.P,IC3,1,~{DRDY}*%
%TO.N,unconnected-(IC3-~{DRDY}-Pad1)*%
X158862000Y-105750800D03*
%TO.P,IC3,2,DVDD*%
%TO.N,/MAX31865AAP+3/3.3V*%
X158862000Y-106400800D03*
%TO.P,IC3,3,VDD*%
X158862000Y-107050800D03*
%TO.P,IC3,4,BIAS*%
%TO.N,Net-(IC3-BIAS)*%
X158862000Y-107700800D03*
%TO.P,IC3,5,REFIN+*%
X158862000Y-108350800D03*
%TO.P,IC3,6,REFIN-*%
%TO.N,Net-(IC3-ISENSOR)*%
X158862000Y-109000800D03*
%TO.P,IC3,7,ISENSOR*%
X158862000Y-109650800D03*
%TO.P,IC3,8,FORCE+*%
%TO.N,/MAX31865AAP+3/FORCE+*%
X158862000Y-110300800D03*
%TO.P,IC3,9,FORCE2*%
%TO.N,Net-(IC3-FORCE2)*%
X158862000Y-110950800D03*
%TO.P,IC3,10,RTDIN+*%
%TO.N,/MAX31865AAP+3/RTDIn+*%
X158862000Y-111600800D03*
%TO.P,IC3,11,RTDIN-*%
%TO.N,/MAX31865AAP+3/RTDin-*%
X151866000Y-111600800D03*
%TO.P,IC3,12,FORCE-*%
%TO.N,/MAX31865AAP+3/FORCE-*%
X151866000Y-110950800D03*
%TO.P,IC3,13,GND2*%
%TO.N,/MAX31865AAP+3/GND*%
X151866000Y-110300800D03*
%TO.P,IC3,14,SDI*%
%TO.N,/MAX31865AAP+1/MOSI3v*%
X151866000Y-109650800D03*
%TO.P,IC3,15,SCLK*%
%TO.N,/MAX31865AAP+1/SLC3v*%
X151866000Y-109000800D03*
%TO.P,IC3,16,~{CS}*%
%TO.N,/MAX31865AAP+3/CS3v*%
X151866000Y-108350800D03*
%TO.P,IC3,17,SDO*%
%TO.N,/MAX31865AAP+1/MISO3v*%
X151866000Y-107700800D03*
%TO.P,IC3,18,DGND*%
%TO.N,/MAX31865AAP+3/GND*%
X151866000Y-107050800D03*
%TO.P,IC3,19,GND*%
X151866000Y-106400800D03*
%TO.P,IC3,20,N.C.*%
%TO.N,unconnected-(IC3-N.C.-Pad20)*%
X151866000Y-105750800D03*
%TD*%
D28*
%TO.P,C1,1*%
%TO.N,Net-(J3-Pin_6)*%
X138717100Y-117199700D03*
%TO.P,C1,2*%
%TO.N,/BareMinAtmel328P/RESET*%
X135592100Y-117199700D03*
%TD*%
D31*
%TO.P,IC4,1,VCC*%
%TO.N,+3.3V*%
X126702000Y-105163600D03*
%TO.P,IC4,2,1Y*%
%TO.N,/MAX31865AAP+1/SLC3v*%
X126702000Y-103893600D03*
%TO.P,IC4,3,1A*%
%TO.N,CLK*%
X126702000Y-102623600D03*
%TO.P,IC4,4,2Y*%
%TO.N,MISO*%
X126702000Y-101353600D03*
%TO.P,IC4,5,2A*%
%TO.N,/MAX31865AAP+1/MISO3v*%
X126702000Y-100083600D03*
%TO.P,IC4,6,3Y*%
%TO.N,/MAX31865AAP+1/MOSI3v*%
X126702000Y-98813600D03*
%TO.P,IC4,7,3A*%
%TO.N,MOSI*%
X126702000Y-97543600D03*
%TO.P,IC4,8,GND*%
%TO.N,GND*%
X126702000Y-96273600D03*
%TO.P,IC4,9,4A*%
%TO.N,/BareMinAtmel328P/PD5-D5*%
X132126000Y-96273600D03*
%TO.P,IC4,10,4Y*%
%TO.N,/MAX31865AAP+3/CS3v*%
X132126000Y-97543600D03*
%TO.P,IC4,11,5A*%
%TO.N,/BareMinAtmel328P/PD4-D4*%
X132126000Y-98813600D03*
%TO.P,IC4,12,5Y*%
%TO.N,/MAX31865AAP+2/CS3v*%
X132126000Y-100083600D03*
%TO.P,IC4,13,NC_1*%
%TO.N,unconnected-(IC4-NC_1-Pad13)*%
X132126000Y-101353600D03*
%TO.P,IC4,14,6A*%
%TO.N,/BareMinAtmel328P/PD3-D3*%
X132126000Y-102623600D03*
%TO.P,IC4,15,6Y*%
%TO.N,/MAX31865AAP+1/CS3v*%
X132126000Y-103893600D03*
%TO.P,IC4,16,NC_2*%
%TO.N,unconnected-(IC4-NC_2-Pad16)*%
X132126000Y-105163600D03*
%TD*%
D27*
%TO.P,R2,1*%
%TO.N,/BareMinAtmel328P/AREF*%
X144995600Y-99509000D03*
%TO.P,R2,2*%
%TO.N,+5V*%
X144995600Y-102609000D03*
%TD*%
D25*
%TO.P,IC1,1,~{DRDY}*%
%TO.N,unconnected-(IC1-~{DRDY}-Pad1)*%
X158961000Y-81591200D03*
%TO.P,IC1,2,DVDD*%
%TO.N,/MAX31865AAP+1/3.3V*%
X158961000Y-82241200D03*
%TO.P,IC1,3,VDD*%
X158961000Y-82891200D03*
%TO.P,IC1,4,BIAS*%
%TO.N,Net-(IC1-BIAS)*%
X158961000Y-83541200D03*
%TO.P,IC1,5,REFIN+*%
X158961000Y-84191200D03*
%TO.P,IC1,6,REFIN-*%
%TO.N,Net-(IC1-ISENSOR)*%
X158961000Y-84841200D03*
%TO.P,IC1,7,ISENSOR*%
X158961000Y-85491200D03*
%TO.P,IC1,8,FORCE+*%
%TO.N,/MAX31865AAP+1/FORCE+*%
X158961000Y-86141200D03*
%TO.P,IC1,9,FORCE2*%
%TO.N,Net-(IC1-FORCE2)*%
X158961000Y-86791200D03*
%TO.P,IC1,10,RTDIN+*%
%TO.N,/MAX31865AAP+1/RTDIn+*%
X158961000Y-87441200D03*
%TO.P,IC1,11,RTDIN-*%
%TO.N,/MAX31865AAP+1/RTDin-*%
X151965000Y-87441200D03*
%TO.P,IC1,12,FORCE-*%
%TO.N,/MAX31865AAP+1/FORCE-*%
X151965000Y-86791200D03*
%TO.P,IC1,13,GND2*%
%TO.N,/MAX31865AAP+1/GND*%
X151965000Y-86141200D03*
%TO.P,IC1,14,SDI*%
%TO.N,/MAX31865AAP+1/MOSI3v*%
X151965000Y-85491200D03*
%TO.P,IC1,15,SCLK*%
%TO.N,/MAX31865AAP+1/SLC3v*%
X151965000Y-84841200D03*
%TO.P,IC1,16,~{CS}*%
%TO.N,/MAX31865AAP+1/CS3v*%
X151965000Y-84191200D03*
%TO.P,IC1,17,SDO*%
%TO.N,/MAX31865AAP+1/MISO3v*%
X151965000Y-83541200D03*
%TO.P,IC1,18,DGND*%
%TO.N,/MAX31865AAP+1/GND*%
X151965000Y-82891200D03*
%TO.P,IC1,19,GND*%
X151965000Y-82241200D03*
%TO.P,IC1,20,N.C.*%
%TO.N,unconnected-(IC1-N.C.-Pad20)*%
X151965000Y-81591200D03*
%TD*%
D23*
%TO.P,C12,1*%
%TO.N,/MAX31865AAP+2/3.3V*%
X162889700Y-96066100D03*
%TO.P,C12,2*%
%TO.N,/MAX31865AAP+2/GND*%
X162889700Y-99191100D03*
%TD*%
D32*
%TO.P,IC5,1,INPUT*%
%TO.N,+5V*%
X125227300Y-82238500D03*
%TO.P,IC5,2,ADJ/GND_1*%
%TO.N,GND*%
X125227300Y-79938500D03*
%TO.P,IC5,3,OUTPUT*%
%TO.N,+3.3V*%
X125227300Y-77638500D03*
D33*
%TO.P,IC5,4,ADJ/GND_2*%
%TO.N,GND*%
X131427300Y-79938500D03*
%TD*%
D28*
%TO.P,C7,1*%
%TO.N,+5V*%
X138126100Y-103901500D03*
%TO.P,C7,2*%
%TO.N,GND*%
X135001100Y-103901500D03*
%TD*%
D26*
%TO.P,C13,1*%
%TO.N,/MAX31865AAP+2/RTDin-*%
X156521000Y-101175400D03*
%TO.P,C13,2*%
%TO.N,/MAX31865AAP+2/RTDIn+*%
X159646000Y-101175400D03*
%TD*%
D34*
%TO.P,D1,1,CATHODE_1*%
%TO.N,CANBUS_H*%
X155655900Y-74744100D03*
%TO.P,D1,2,CATHODE_2*%
%TO.N,CANBUS_L*%
X155655900Y-76044100D03*
%TO.P,D1,3,COMMON_ANODE*%
%TO.N,GND*%
X153755900Y-75394100D03*
%TD*%
D28*
%TO.P,C6,1*%
%TO.N,+5V*%
X138122400Y-101431600D03*
%TO.P,C6,2*%
%TO.N,GND*%
X134997400Y-101431600D03*
%TD*%
D23*
%TO.P,C14,1*%
%TO.N,/MAX31865AAP+3/3.3V*%
X162869100Y-107189900D03*
%TO.P,C14,2*%
%TO.N,/MAX31865AAP+3/GND*%
X162869100Y-110314900D03*
%TD*%
D28*
%TO.P,C16,1*%
%TO.N,/MAX31865AAP+3/RTDin-*%
X169811100Y-112819400D03*
%TO.P,C16,2*%
%TO.N,/MAX31865AAP+3/RTDIn+*%
X166686100Y-112819400D03*
%TD*%
D35*
%TO.N,GND*%
X167003300Y-68552100D03*
X132857700Y-78532200D03*
X136035500Y-99951400D03*
X142137100Y-76294800D03*
%TO.N,/BareMinAtmel328P/RESET*%
X134768900Y-78779000D03*
%TO.N,+5V*%
X134003700Y-67077700D03*
X146619800Y-73243100D03*
%TO.N,/MAX31865AAP+1/3.3V*%
X157195900Y-84592100D03*
X161305300Y-87158000D03*
%TO.N,/MAX31865AAP+1/GND*%
X161324200Y-83504900D03*
X153335800Y-82389900D03*
%TO.N,/MAX31865AAP+1/RTDIn+*%
X154379100Y-80690300D03*
%TO.N,/BareMinAtmel328P/PD4-D4*%
X134608500Y-93775100D03*
%TO.N,/BareMinAtmel328P/PD3-D3*%
X137575400Y-92524700D03*
%TO.N,/BareMinAtmel328P/PD5-D5*%
X133407800Y-96583600D03*
%TO.N,/BareMinAtmel328P/PD2-D2*%
X133465200Y-76790700D03*
%TO.N,/CANBUS-MCP2515/TXtoCANTC*%
X154174700Y-62407400D03*
X166165300Y-66077900D03*
%TO.N,Net-(U2-XTAL1{slash}PB6)*%
X142393200Y-118173800D03*
%TO.N,Net-(U2-XTAL2{slash}PB7)*%
X142700900Y-115078200D03*
%TO.N,Net-(U3-OSC1)*%
X151224000Y-63664700D03*
%TO.N,Net-(U3-~{RESET})*%
X137075300Y-66491100D03*
X143455800Y-86021500D03*
%TO.N,/MAX31865AAP+1/RTDin-*%
X150584800Y-86778900D03*
%TO.N,/MAX31865AAP+2/3.3V*%
X161476900Y-95774500D03*
%TO.N,/MAX31865AAP+2/GND*%
X153417100Y-97617100D03*
X150970900Y-91525700D03*
X161477100Y-99251500D03*
%TO.N,/MAX31865AAP+2/RTDIn+*%
X154491800Y-91480600D03*
%TO.N,/MAX31865AAP+2/RTDin-*%
X154042900Y-95940700D03*
%TO.N,/MAX31865AAP+3/GND*%
X161463300Y-110016500D03*
X154350100Y-105028000D03*
X153304500Y-110016500D03*
%TO.N,/MAX31865AAP+3/3.3V*%
X161462800Y-107282400D03*
%TO.N,/MAX31865AAP+3/RTDIn+*%
X154592900Y-102576000D03*
%TO.N,/MAX31865AAP+3/RTDin-*%
X154605100Y-106753700D03*
%TO.N,/MAX31865AAP+1/MOSI3v*%
X150346100Y-105736000D03*
X128426900Y-99088000D03*
%TO.N,Net-(IC1-BIAS)*%
X160458500Y-82190400D03*
%TO.N,/MAX31865AAP+1/SLC3v*%
X146280900Y-105858000D03*
X153990800Y-99961700D03*
X150421800Y-99961700D03*
X129097200Y-103926600D03*
%TO.N,/MAX31865AAP+1/CS3v*%
X155034900Y-88425900D03*
X134492400Y-92936200D03*
%TO.N,Net-(IC1-FORCE2)*%
X158011700Y-79860300D03*
%TO.N,Net-(IC1-ISENSOR)*%
X161060200Y-78212600D03*
%TO.N,/MAX31865AAP+1/MISO3v*%
X153320500Y-83541200D03*
X133238100Y-92249000D03*
X150434300Y-88219500D03*
%TO.N,/MAX31865AAP+1/FORCE+*%
X156406100Y-80931300D03*
%TO.N,/MAX31865AAP+1/FORCE-*%
X153323900Y-86911200D03*
%TO.N,/MAX31865AAP+2/CS3v*%
X150571200Y-95892900D03*
X134215800Y-98745500D03*
%TO.N,Net-(IC2-ISENSOR)*%
X156548200Y-94782700D03*
%TO.N,Net-(IC2-BIAS)*%
X160559300Y-89656600D03*
%TO.N,/MAX31865AAP+2/FORCE+*%
X157007100Y-92543600D03*
X155102100Y-92899300D03*
%TO.N,/MAX31865AAP+2/FORCE-*%
X153413400Y-98582000D03*
%TO.N,Net-(IC2-FORCE2)*%
X160443200Y-95594300D03*
%TO.N,/MAX31865AAP+3/CS3v*%
X150511700Y-108306700D03*
X133391700Y-97744200D03*
%TO.N,/MAX31865AAP+3/FORCE+*%
X156653500Y-103937700D03*
%TO.N,/MAX31865AAP+3/FORCE-*%
X153229500Y-110907500D03*
%TO.N,Net-(IC3-BIAS)*%
X160214600Y-102852100D03*
%TO.N,Net-(IC3-FORCE2)*%
X156653500Y-105887800D03*
%TO.N,Net-(IC3-ISENSOR)*%
X160522200Y-107361100D03*
%TO.N,MOSI*%
X129006600Y-98400900D03*
X140609800Y-70083600D03*
X139457700Y-101959800D03*
X137813200Y-73686300D03*
%TO.N,MISO*%
X145088400Y-67489900D03*
X125428900Y-101562500D03*
%TO.N,CLK*%
X130074000Y-106219700D03*
X147101800Y-107666800D03*
X144573800Y-72400000D03*
%TD*%
D36*
%TO.N,GND*%
X149828800Y-94752000D02*
X148680700Y-95900100D01*
D37*
X153649000Y-75287000D02*
X153756000Y-75394100D01*
D36*
X136035500Y-100393500D02*
X134997400Y-101431600D01*
X148549500Y-97001800D02*
X148549500Y-95900100D01*
X167942900Y-68552100D02*
X167003300Y-68552100D01*
X146767300Y-124094700D02*
X146767300Y-122943000D01*
X146008400Y-122125200D02*
X145046300Y-121163200D01*
X146767300Y-122943000D02*
X146251200Y-122426900D01*
X132697300Y-78668300D02*
X132721600Y-78668300D01*
D37*
X153274200Y-75875800D02*
X151347000Y-77802600D01*
D36*
X153274200Y-75875800D02*
X153755900Y-75394100D01*
X132382200Y-88928500D02*
X130976300Y-87522600D01*
X130108100Y-91332700D02*
X131337000Y-91332700D01*
D37*
X157148000Y-69332800D02*
X155592000Y-69332800D01*
D36*
X132382200Y-89148700D02*
X135973000Y-89148700D01*
D37*
X133563000Y-77802600D02*
X132697300Y-78668300D01*
D36*
X127766200Y-96273600D02*
X127766200Y-93674600D01*
X146251200Y-122426900D02*
X146251200Y-122368100D01*
D37*
X153756000Y-75394100D02*
X153274200Y-75875800D01*
D36*
X168429800Y-69039000D02*
X167942900Y-68552100D01*
X148680700Y-95900100D02*
X148549500Y-95900100D01*
X131337000Y-91332700D02*
X132382200Y-90287500D01*
D37*
X153756000Y-71169200D02*
X153756000Y-75394100D01*
X132697300Y-78668300D02*
X131427000Y-79938500D01*
X125227300Y-79938500D02*
X122622000Y-79938500D01*
D36*
X127766200Y-93674600D02*
X130108100Y-91332700D01*
D37*
X131427000Y-79938500D02*
X125227300Y-79938500D01*
D36*
X149869600Y-77802600D02*
X149828800Y-77843400D01*
X140629300Y-77802600D02*
X142137100Y-76294800D01*
X157234700Y-75394100D02*
X153756000Y-75394100D01*
X146251200Y-122368100D02*
X146008400Y-122125200D01*
X148618500Y-119515100D02*
X146008400Y-122125200D01*
D37*
X155592000Y-69332800D02*
X153756000Y-71169200D01*
X151347000Y-77802600D02*
X149869600Y-77802600D01*
D36*
X132382200Y-90287500D02*
X132382200Y-89148700D01*
D37*
X151455100Y-75287000D02*
X153649000Y-75287000D01*
D36*
X135385300Y-104285700D02*
X135385300Y-109252500D01*
D37*
X149869600Y-77802600D02*
X140629300Y-77802600D01*
D36*
X135001100Y-101435300D02*
X135001100Y-103901500D01*
X136035500Y-99951400D02*
X136035500Y-100393500D01*
X149828800Y-77843400D02*
X149828800Y-94752000D01*
X132382200Y-89148700D02*
X132382200Y-88928500D01*
X132721600Y-78668300D02*
X132857700Y-78532200D01*
D37*
X130976000Y-80641800D02*
X130976000Y-87522600D01*
D36*
X126702000Y-96273600D02*
X127766200Y-96273600D01*
D37*
X140629300Y-77802600D02*
X133563000Y-77802600D01*
D36*
%TO.N,/BareMinAtmel328P/RESET*%
X130675700Y-104158200D02*
X130610200Y-104092700D01*
X139827800Y-87119000D02*
X139827800Y-83265900D01*
X130610200Y-95611000D02*
X131633000Y-94588200D01*
X132096400Y-113012300D02*
X130675700Y-111591600D01*
X130675700Y-111591600D02*
X130675700Y-104158200D01*
X135855500Y-91091300D02*
X139827800Y-87119000D01*
X135261900Y-91091300D02*
X135855500Y-91091300D01*
X140929500Y-82863500D02*
X140230200Y-82863500D01*
X130610200Y-104092700D02*
X130610200Y-95611000D01*
X135592100Y-115011000D02*
X135385300Y-114804200D01*
X131633000Y-94588200D02*
X131765000Y-94588200D01*
X137175600Y-80613700D02*
X136060500Y-80613700D01*
X136060500Y-80613700D02*
X134768900Y-79322100D01*
X131765000Y-94588200D02*
X135261900Y-91091300D01*
X139827800Y-83265900D02*
X137175600Y-80613700D01*
X140929500Y-81761800D02*
X140929500Y-82863500D01*
X133593400Y-113012300D02*
X134333600Y-113752500D01*
X132096400Y-113012300D02*
X133593400Y-113012300D01*
X135385300Y-113752500D02*
X134333600Y-113752500D01*
X134768900Y-79322100D02*
X134768900Y-78779000D01*
X135592100Y-117199700D02*
X135592100Y-115011000D01*
X140230200Y-82863500D02*
X139827800Y-83265900D01*
X135385300Y-113752500D02*
X135385300Y-114804200D01*
%TO.N,+5V*%
X134003700Y-67077700D02*
X135954400Y-65127000D01*
X167889800Y-70309000D02*
X166316800Y-68736000D01*
X138122400Y-101431600D02*
X138122400Y-103897800D01*
X125227300Y-82238500D02*
X126400700Y-82238500D01*
X138126100Y-108458800D02*
X140639100Y-110971800D01*
X140929500Y-98020800D02*
X140856700Y-98020800D01*
X140856700Y-98020800D02*
X138122400Y-100755100D01*
X130976300Y-88910900D02*
X130688400Y-88910900D01*
X160752000Y-61640400D02*
X152366800Y-61640400D01*
X140929500Y-98020800D02*
X141058900Y-98020800D01*
X133985800Y-100526700D02*
X135965600Y-98546900D01*
X132096400Y-109912300D02*
X133985800Y-108022900D01*
X130688400Y-88910900D02*
X126400700Y-84623200D01*
X146619800Y-73243100D02*
X146619800Y-67387400D01*
X141058900Y-98020800D02*
X144995600Y-101957500D01*
X126400700Y-84623200D02*
X126400700Y-82238500D01*
X166316800Y-67205200D02*
X160752000Y-61640400D01*
X135965600Y-98546900D02*
X135965600Y-98451200D01*
X140929500Y-97001800D02*
X140929500Y-95900100D01*
X142759000Y-85867500D02*
X142759000Y-94298900D01*
X130976300Y-90062600D02*
X130976300Y-88910900D01*
X141247500Y-110971800D02*
X142057400Y-111781700D01*
X135954400Y-65127000D02*
X142155100Y-65127000D01*
X142057400Y-111781700D02*
X142057400Y-117658800D01*
X144529700Y-84096800D02*
X142759000Y-85867500D01*
X142759000Y-94298900D02*
X141157800Y-95900100D01*
X152366800Y-61640400D02*
X146619800Y-67387400D01*
X138126100Y-103901500D02*
X138126100Y-108458800D01*
X166316800Y-68736000D02*
X166316800Y-67205200D01*
X144359400Y-65127000D02*
X142155100Y-65127000D01*
X140639100Y-110971800D02*
X141247500Y-110971800D01*
X140929500Y-97001800D02*
X140929500Y-98020800D01*
X141157800Y-95900100D02*
X140929500Y-95900100D01*
X141687300Y-124094700D02*
X141687300Y-118028900D01*
X144995600Y-102081800D02*
X148549500Y-102081800D01*
X135965600Y-97349500D02*
X135965600Y-98451200D01*
X146619800Y-67387400D02*
X144359400Y-65127000D01*
X144995600Y-101957500D02*
X144995600Y-102081800D01*
X133985800Y-108022900D02*
X133985800Y-100526700D01*
X142057400Y-117658800D02*
X141687300Y-118028900D01*
%TO.N,CANBUS_L*%
X158692900Y-75875700D02*
X159507900Y-76690700D01*
X162202500Y-71187600D02*
X163081100Y-70309000D01*
X155655900Y-76044100D02*
X155655900Y-76620800D01*
X159015700Y-74444600D02*
X158692900Y-74767400D01*
X155757200Y-76722100D02*
X155655900Y-76620800D01*
X157846500Y-76722100D02*
X155757200Y-76722100D01*
X158692900Y-74767400D02*
X158692900Y-75875700D01*
X162202500Y-74901700D02*
X162202500Y-71187600D01*
X158692900Y-75875700D02*
X157846500Y-76722100D01*
X159015700Y-66120500D02*
X159015700Y-74444600D01*
X157148000Y-64252800D02*
X159015700Y-66120500D01*
X159507900Y-76690700D02*
X160413500Y-76690700D01*
X160413500Y-76690700D02*
X162202500Y-74901700D01*
%TO.N,CANBUS_H*%
X158270600Y-62849000D02*
X156569500Y-62849000D01*
X158578000Y-68222800D02*
X158578000Y-73083700D01*
X157494300Y-74167400D02*
X155655900Y-74167400D01*
X157148000Y-66792800D02*
X158578000Y-68222800D01*
X164757100Y-67390400D02*
X163480000Y-66113300D01*
X155655900Y-74744100D02*
X155655900Y-74167400D01*
X163480000Y-66113300D02*
X161534900Y-66113300D01*
X156569500Y-62849000D02*
X155743100Y-63675400D01*
X164757100Y-68168100D02*
X164757100Y-67390400D01*
X155743100Y-63675400D02*
X155743100Y-65387900D01*
X163886200Y-69039000D02*
X164757100Y-68168100D01*
X155743100Y-65387900D02*
X157148000Y-66792800D01*
X161534900Y-66113300D02*
X158270600Y-62849000D01*
X158578000Y-73083700D02*
X157494300Y-74167400D01*
%TO.N,/MAX31865AAP+1/3.3V*%
X162729800Y-86897200D02*
X161566100Y-86897200D01*
X157806800Y-82891200D02*
X157806800Y-82241200D01*
X157806800Y-82891200D02*
X157195900Y-83502100D01*
X157195900Y-83502100D02*
X157195900Y-84592100D01*
X158961000Y-82241200D02*
X157806800Y-82241200D01*
X161566100Y-86897200D02*
X161305300Y-87158000D01*
X158961000Y-82891200D02*
X157806800Y-82891200D01*
%TO.N,/MAX31865AAP+1/GND*%
X150810800Y-82241200D02*
X150810800Y-82891200D01*
X153119200Y-82241200D02*
X153267900Y-82389900D01*
X162729800Y-83772200D02*
X161591500Y-83772200D01*
X151965000Y-82241200D02*
X150810800Y-82241200D01*
X151965000Y-86141200D02*
X150810800Y-86141200D01*
X151387900Y-82891200D02*
X150810800Y-82891200D01*
X161591500Y-83772200D02*
X161324200Y-83504900D01*
X153267900Y-82389900D02*
X153335800Y-82389900D01*
X150810800Y-86141200D02*
X150810800Y-82891200D01*
X151965000Y-82241200D02*
X153119200Y-82241200D01*
%TO.N,/MAX31865AAP+1/RTDIn+*%
X154379100Y-84013500D02*
X154379100Y-80690300D01*
X165026300Y-85450300D02*
X162155000Y-85450300D01*
X167892100Y-83986200D02*
X169293800Y-83986200D01*
X175017600Y-77456100D02*
X169293800Y-83179900D01*
X167892100Y-83986200D02*
X166490400Y-83986200D01*
X160164100Y-87441200D02*
X158961000Y-87441200D01*
X162155000Y-85450300D02*
X160164100Y-87441200D01*
X157806800Y-87441200D02*
X154379100Y-84013500D01*
X169293800Y-83179900D02*
X169293800Y-83986200D01*
X166490400Y-83986200D02*
X165026300Y-85450300D01*
X158961000Y-87441200D02*
X157806800Y-87441200D01*
%TO.N,/BareMinAtmel328P/PD0-RX*%
X141217900Y-90651800D02*
X142047000Y-89822700D01*
X142047000Y-86383300D02*
X141067200Y-85403500D01*
X142047000Y-89822700D02*
X142047000Y-86383300D01*
X141179200Y-120911100D02*
X141179200Y-116702000D01*
X137151600Y-99948200D02*
X139214100Y-97885700D01*
X141179200Y-116702000D02*
X137151600Y-112674400D01*
X139214100Y-92050000D02*
X140612300Y-90651800D01*
X140929500Y-84301800D02*
X140929500Y-85403500D01*
X139147300Y-122943000D02*
X141179200Y-120911100D01*
X139214100Y-97885700D02*
X139214100Y-92050000D01*
X139147300Y-124094700D02*
X139147300Y-122943000D01*
X137151600Y-112674400D02*
X137151600Y-99948200D01*
X140612300Y-90651800D02*
X141217900Y-90651800D01*
X141067200Y-85403500D02*
X140929500Y-85403500D01*
%TO.N,/BareMinAtmel328P/PD1-TX*%
X136749900Y-112914400D02*
X136749900Y-99216000D01*
X140929500Y-86841800D02*
X140929500Y-87943500D01*
X140780200Y-87943500D02*
X140929500Y-87943500D01*
X136607300Y-121274200D02*
X139745700Y-118135800D01*
X136607300Y-124094700D02*
X136607300Y-121274200D01*
X139745700Y-118135800D02*
X139745700Y-115910200D01*
X138177100Y-97788800D02*
X138177100Y-90546600D01*
X138177100Y-90546600D02*
X140780200Y-87943500D01*
X136749900Y-99216000D02*
X138177100Y-97788800D01*
X139745700Y-115910200D02*
X136749900Y-112914400D01*
%TO.N,/BareMinAtmel328P/PD4-D4*%
X132126000Y-98813600D02*
X133190200Y-98813600D01*
X134027100Y-97976700D02*
X134027100Y-94356500D01*
X133190200Y-98813600D02*
X134027100Y-97976700D01*
X134027100Y-94356500D02*
X134608500Y-93775100D01*
%TO.N,/BareMinAtmel328P/PD3-D3*%
X134858400Y-99084000D02*
X134858400Y-96868400D01*
X132126000Y-102623600D02*
X133190200Y-102623600D01*
X137575400Y-94759500D02*
X137575400Y-92524700D01*
X134858400Y-96868400D02*
X135647300Y-96079500D01*
X135647300Y-96079500D02*
X136255400Y-96079500D01*
X133190200Y-102623600D02*
X133190200Y-100752200D01*
X133190200Y-100752200D02*
X134858400Y-99084000D01*
X136255400Y-96079500D02*
X137575400Y-94759500D01*
%TO.N,/BareMinAtmel328P/PD5-D5*%
X133190200Y-96366000D02*
X133190200Y-96273600D01*
X133407800Y-96583600D02*
X133190200Y-96366000D01*
X132126000Y-96273600D02*
X133190200Y-96273600D01*
%TO.N,/BareMinAtmel328P/PC0-A0*%
X135965600Y-92256100D02*
X135965600Y-94809500D01*
%TO.N,/BareMinAtmel328P/AREF*%
X147415000Y-99509000D02*
X147447800Y-99541800D01*
X148549500Y-99541800D02*
X147447800Y-99541800D01*
X144995600Y-99509000D02*
X147415000Y-99509000D01*
%TO.N,/BareMinAtmel328P/PB1-D9*%
X140409500Y-67667000D02*
X142155100Y-67667000D01*
X121856100Y-75676900D02*
X128626500Y-75676900D01*
X129495055Y-115428000D02*
X127631808Y-115428000D01*
X136358500Y-71718000D02*
X140409500Y-67667000D01*
X142957300Y-124516800D02*
X142211600Y-125262500D01*
X120029300Y-77503700D02*
X121856100Y-75676900D01*
X132585400Y-71718000D02*
X136358500Y-71718000D01*
X126242649Y-114038841D02*
X126242649Y-112594774D01*
X148549500Y-116385800D02*
X144897800Y-120037500D01*
X142957300Y-121392200D02*
X142957300Y-124516800D01*
X144897800Y-120037500D02*
X144312000Y-120037500D01*
X148549500Y-114781800D02*
X148549500Y-116385800D01*
X132323442Y-124034842D02*
X132323442Y-118256387D01*
X132323442Y-118256387D02*
X129495055Y-115428000D01*
X120029300Y-106381425D02*
X120029300Y-77503700D01*
X142211600Y-125262500D02*
X133551100Y-125262500D01*
X126242649Y-112594774D02*
X120029300Y-106381425D01*
X144312000Y-120037500D02*
X142957300Y-121392200D01*
X133551100Y-125262500D02*
X132323442Y-124034842D01*
X127631808Y-115428000D02*
X126242649Y-114038841D01*
X128626500Y-75676900D02*
X132585400Y-71718000D01*
%TO.N,/BareMinAtmel328P/PD2-D2*%
X133465200Y-76790600D02*
X133465200Y-76790700D01*
X142155100Y-72747000D02*
X140147600Y-72747000D01*
X136104000Y-76790600D02*
X133465200Y-76790600D01*
X140147600Y-72747000D02*
X136104000Y-76790600D01*
%TO.N,/CANBUS-MCP2515/RXtoCANTC*%
X154884600Y-63354200D02*
X154884600Y-63441100D01*
X161116500Y-63847200D02*
X159311400Y-62042100D01*
X154884600Y-63441100D02*
X151928700Y-66397000D01*
X168082000Y-71579000D02*
X165913600Y-69410600D01*
X156196700Y-62042100D02*
X154884600Y-63354200D01*
X159311400Y-62042100D02*
X156196700Y-62042100D01*
X162390800Y-63847200D02*
X161116500Y-63847200D01*
X165913600Y-67370000D02*
X162390800Y-63847200D01*
X165913600Y-69410600D02*
X165913600Y-67370000D01*
%TO.N,/CANBUS-MCP2515/TXtoCANTC*%
X166738700Y-66077900D02*
X166165300Y-66077900D01*
X168429800Y-67769000D02*
X166738700Y-66077900D01*
X151455100Y-65127000D02*
X154174700Y-62407400D01*
%TO.N,Net-(J3-Pin_6)*%
X138717100Y-118293200D02*
X134067300Y-122943000D01*
X134067300Y-124094700D02*
X134067300Y-122943000D01*
X138717100Y-117199700D02*
X138717100Y-118293200D01*
%TO.N,Net-(U2-XTAL1{slash}PB6)*%
X143344400Y-105370100D02*
X143344400Y-118038200D01*
X141157800Y-103183500D02*
X143344400Y-105370100D01*
X140929500Y-103183500D02*
X141157800Y-103183500D01*
X142528800Y-118038200D02*
X142393200Y-118173800D01*
X145046300Y-118038200D02*
X143344400Y-118038200D01*
X140929500Y-102081800D02*
X140929500Y-103183500D01*
X143344400Y-118038200D02*
X142528800Y-118038200D01*
%TO.N,Net-(U2-XTAL2{slash}PB7)*%
X140929500Y-104621800D02*
X140929500Y-105723500D01*
X142700900Y-107357200D02*
X142700900Y-115078200D01*
X140929500Y-105723500D02*
X141067200Y-105723500D01*
X141067200Y-105723500D02*
X142700900Y-107357200D01*
%TO.N,Net-(U3-OSC2)*%
X152782400Y-66592400D02*
X152782400Y-71834000D01*
X176011500Y-76573400D02*
X175511400Y-76073300D01*
X162224500Y-64248900D02*
X160379400Y-64248900D01*
X151743500Y-119515100D02*
X157239000Y-119515100D01*
X152782400Y-71834000D02*
X151869400Y-72747000D01*
X169112600Y-115391200D02*
X176011500Y-108492300D01*
X175511400Y-76073300D02*
X171299000Y-76073300D01*
X155286300Y-63520500D02*
X155286300Y-64088500D01*
X157239000Y-119515100D02*
X161362900Y-115391200D01*
X158575800Y-62445300D02*
X156361500Y-62445300D01*
X165511900Y-67536300D02*
X162224500Y-64248900D01*
X176011500Y-108492300D02*
X176011500Y-76573400D01*
X160379400Y-64248900D02*
X158575800Y-62445300D01*
X156361500Y-62445300D02*
X155286300Y-63520500D01*
X155286300Y-64088500D02*
X152782400Y-66592400D01*
X161362900Y-115391200D02*
X169112600Y-115391200D01*
X171299000Y-76073300D02*
X165511900Y-70286200D01*
X165511900Y-70286200D02*
X165511900Y-67536300D01*
%TO.N,Net-(U3-OSC1)*%
X150998700Y-74017000D02*
X150127800Y-73146100D01*
X150127800Y-73146100D02*
X150127800Y-64760900D01*
X150127800Y-64760900D02*
X151224000Y-63664700D01*
%TO.N,Net-(J5-Pin_2)*%
X141442200Y-60586800D02*
X139116100Y-58260700D01*
X141589600Y-61738500D02*
X141589600Y-60586800D01*
X141589600Y-60586800D02*
X141442200Y-60586800D01*
%TO.N,Net-(U3-~{RESET})*%
X137169400Y-66397000D02*
X137075300Y-66491100D01*
X144631100Y-87196800D02*
X143455800Y-86021500D01*
X142155100Y-66397000D02*
X137169400Y-66397000D01*
%TO.N,Net-(U4-Rs)*%
X163134400Y-67769000D02*
X159962900Y-70940500D01*
X159962900Y-70940500D02*
X159962900Y-75582300D01*
%TO.N,/MAX31865AAP+1/RTDin-*%
X151965000Y-87441200D02*
X150810800Y-87441200D01*
X150810800Y-87441200D02*
X150810800Y-87004900D01*
X168982000Y-77456100D02*
X167892100Y-76366200D01*
X150810800Y-87004900D02*
X150584800Y-86778900D01*
X171892600Y-77456100D02*
X168982000Y-77456100D01*
%TO.N,/MAX31865AAP+2/3.3V*%
X162598100Y-95774500D02*
X161476900Y-95774500D01*
X160207000Y-94504600D02*
X161476900Y-95774500D01*
X159052800Y-94341700D02*
X160207000Y-94341700D01*
X160207000Y-94341700D02*
X160207000Y-94504600D01*
X159052800Y-94341700D02*
X159052800Y-93691700D01*
%TO.N,/MAX31865AAP+2/GND*%
X150904100Y-93691700D02*
X150902600Y-93690200D01*
X150902600Y-93691700D02*
X150902600Y-94341700D01*
X162889700Y-99191100D02*
X161537500Y-99191100D01*
X150902600Y-91594000D02*
X150970900Y-91525700D01*
X152056800Y-94341700D02*
X150902600Y-94341700D01*
X152056800Y-93691700D02*
X151003500Y-93691700D01*
X150904100Y-93691700D02*
X150902600Y-93691700D01*
X152056800Y-97591700D02*
X153211000Y-97591700D01*
X153236400Y-97617100D02*
X153211000Y-97591700D01*
X151003500Y-93691700D02*
X150904100Y-93691700D01*
X153417100Y-97617100D02*
X153236400Y-97617100D01*
X161537500Y-99191100D02*
X161477100Y-99251500D01*
X150902600Y-93690200D02*
X150902600Y-91594000D01*
%TO.N,/MAX31865AAP+2/RTDIn+*%
X167848300Y-96013700D02*
X166446600Y-96013700D01*
X160023400Y-100798000D02*
X160023400Y-98891700D01*
X159052800Y-98891700D02*
X160023400Y-98891700D01*
X160023400Y-98891700D02*
X160207000Y-98891700D01*
X159052800Y-98891700D02*
X157898600Y-98891700D01*
X154491800Y-93140200D02*
X154491800Y-91480600D01*
X160207000Y-98891700D02*
X161683300Y-97415400D01*
X157898600Y-98891700D02*
X157898600Y-98323700D01*
X154892300Y-95317400D02*
X154892300Y-93540700D01*
X165044900Y-97415400D02*
X166446600Y-96013700D01*
X161683300Y-97415400D02*
X165044900Y-97415400D01*
X154892300Y-93540700D02*
X154491800Y-93140200D01*
X157898600Y-98323700D02*
X154892300Y-95317400D01*
%TO.N,/MAX31865AAP+2/RTDin-*%
X154571600Y-99226000D02*
X154042900Y-99226000D01*
X156521000Y-101175400D02*
X154571600Y-99226000D01*
X152391100Y-99226000D02*
X152056800Y-98891700D01*
X154042900Y-99226000D02*
X152391100Y-99226000D01*
X154042900Y-99226000D02*
X154042900Y-95940700D01*
%TO.N,/MAX31865AAP+3/GND*%
X153020200Y-110300800D02*
X153304500Y-110016500D01*
X153304500Y-107590000D02*
X153304500Y-110016500D01*
X151866000Y-106400800D02*
X153020200Y-106400800D01*
X152443100Y-107050800D02*
X152765300Y-107050800D01*
X152765300Y-107050800D02*
X153020200Y-106795900D01*
X153020200Y-106400800D02*
X154350100Y-105070900D01*
X151866000Y-110300800D02*
X153020200Y-110300800D01*
X152765300Y-107050800D02*
X153304500Y-107590000D01*
X153020200Y-106795900D02*
X153020200Y-106400800D01*
X154350100Y-105070900D02*
X154350100Y-105028000D01*
X161761700Y-110314900D02*
X161463300Y-110016500D01*
X162869100Y-110314900D02*
X161761700Y-110314900D01*
%TO.N,/MAX31865AAP+3/3.3V*%
X162869100Y-107189900D02*
X161555300Y-107189900D01*
X161555300Y-107189900D02*
X161462800Y-107282400D01*
X161462800Y-107282400D02*
X160581200Y-106400800D01*
X160581200Y-106400800D02*
X158862000Y-106400800D01*
X158862000Y-107050800D02*
X158862000Y-106400800D01*
%TO.N,/MAX31865AAP+3/RTDIn+*%
X156051700Y-104034800D02*
X154592900Y-102576000D01*
X157707800Y-111600800D02*
X156051700Y-109944700D01*
X167909100Y-108390600D02*
X167909100Y-109792300D01*
X158862000Y-111600800D02*
X166686100Y-111600800D01*
X166686100Y-111600800D02*
X166686100Y-111015300D01*
X166686100Y-111015300D02*
X167909100Y-109792300D01*
X158862000Y-111600800D02*
X157707800Y-111600800D01*
X156051700Y-109944700D02*
X156051700Y-104034800D01*
X166686100Y-112819400D02*
X166686100Y-111600800D01*
%TO.N,/MAX31865AAP+3/RTDin-*%
X154065200Y-110971700D02*
X154065200Y-107293600D01*
X169811100Y-112819400D02*
X169811100Y-102672600D01*
X154065200Y-107293600D02*
X154605100Y-106753700D01*
X151866000Y-111600800D02*
X153436100Y-111600800D01*
X169811100Y-102672600D02*
X167909100Y-100770600D01*
X153436100Y-111600800D02*
X154065200Y-110971700D01*
%TO.N,+3.3V*%
X120445600Y-78990000D02*
X122452500Y-76983100D01*
X120445600Y-99403500D02*
X120445600Y-78990000D01*
X125227300Y-77638500D02*
X124000600Y-77638500D01*
X125637800Y-105163600D02*
X125637800Y-104595700D01*
X124000600Y-77638500D02*
X123345200Y-76983100D01*
X123345200Y-76983100D02*
X122452500Y-76983100D01*
X126702000Y-105163600D02*
X125637800Y-105163600D01*
X125637800Y-104595700D02*
X120445600Y-99403500D01*
%TO.N,/MAX31865AAP+1/MOSI3v*%
X153483700Y-112139100D02*
X150855200Y-112139100D01*
X155248300Y-105054400D02*
X155248300Y-107263100D01*
X150902600Y-96941700D02*
X150902600Y-99351500D01*
X151866000Y-109650800D02*
X150711800Y-109650800D01*
X153119200Y-85491200D02*
X153942800Y-86314800D01*
X128040600Y-99088000D02*
X128426900Y-99088000D01*
X154603600Y-111019200D02*
X153483700Y-112139100D01*
X152056800Y-96941700D02*
X150902600Y-96941700D01*
X151391700Y-104690400D02*
X151391700Y-104378800D01*
X153211000Y-87875300D02*
X153211000Y-96941700D01*
X151391700Y-99840600D02*
X151391700Y-104378800D01*
X151391700Y-104378800D02*
X154572700Y-104378800D01*
X154572700Y-104378800D02*
X155248300Y-105054400D01*
X152056800Y-96941700D02*
X153211000Y-96941700D01*
X150346100Y-105736000D02*
X151391700Y-104690400D01*
X153942800Y-87143500D02*
X153211000Y-87875300D01*
X150711800Y-111995700D02*
X150711800Y-109650800D01*
X150855200Y-112139100D02*
X150711800Y-111995700D01*
X154603600Y-107907800D02*
X154603600Y-111019200D01*
X126702000Y-98813600D02*
X127766200Y-98813600D01*
X155248300Y-107263100D02*
X154603600Y-107907800D01*
X153942800Y-86314800D02*
X153942800Y-87143500D01*
X150902600Y-99351500D02*
X151391700Y-99840600D01*
X127766200Y-98813600D02*
X128040600Y-99088000D01*
X151965000Y-85491200D02*
X153119200Y-85491200D01*
%TO.N,Net-(IC1-BIAS)*%
X158961000Y-83541200D02*
X160115200Y-83541200D01*
X160115200Y-82533700D02*
X160458500Y-82190400D01*
X158961000Y-83541200D02*
X157806800Y-83541200D01*
X160115200Y-83541200D02*
X160115200Y-82533700D01*
X157806800Y-84191200D02*
X157806800Y-83541200D01*
X158961000Y-84191200D02*
X157806800Y-84191200D01*
%TO.N,/MAX31865AAP+1/SLC3v*%
X150254600Y-109000800D02*
X150254600Y-112177200D01*
X153990800Y-102894500D02*
X153990800Y-102327300D01*
X153650000Y-112540800D02*
X155650000Y-110540800D01*
X150254600Y-112177200D02*
X150618200Y-112540800D01*
X150644900Y-96540000D02*
X150421800Y-96763100D01*
X126702000Y-103893600D02*
X127766200Y-103893600D01*
X146845000Y-108268600D02*
X146280900Y-107704500D01*
X157577200Y-100266900D02*
X155435700Y-98125400D01*
X155435700Y-96428800D02*
X153882800Y-94875900D01*
X127799200Y-103926600D02*
X129097200Y-103926600D01*
X150618200Y-112540800D02*
X153650000Y-112540800D01*
X146280900Y-107704500D02*
X146280900Y-105858000D01*
X150421800Y-96763100D02*
X150421800Y-99961700D01*
X154343800Y-101974300D02*
X154903000Y-101974300D01*
X152056800Y-96291700D02*
X151084800Y-96291700D01*
X155650000Y-110540800D02*
X155650000Y-104553700D01*
X157577200Y-102031600D02*
X157577200Y-100266900D01*
X154903000Y-101974300D02*
X155329900Y-102401200D01*
X154361100Y-86083100D02*
X153119200Y-84841200D01*
X151866000Y-109000800D02*
X150254600Y-109000800D01*
X151084800Y-96291700D02*
X150836500Y-96540000D01*
X155329900Y-102401200D02*
X157207600Y-102401200D01*
X157207600Y-102401200D02*
X157577200Y-102031600D01*
X154361100Y-89246700D02*
X154361100Y-86083100D01*
X153882800Y-94875900D02*
X153882800Y-89725000D01*
X150836500Y-96540000D02*
X150644900Y-96540000D01*
X153882800Y-89725000D02*
X154361100Y-89246700D01*
X150254600Y-109000800D02*
X149522400Y-108268600D01*
X153990800Y-102327300D02*
X154343800Y-101974300D01*
X127766200Y-103893600D02*
X127799200Y-103926600D01*
X154343800Y-101974300D02*
X153990800Y-101621300D01*
X153990800Y-101621300D02*
X153990800Y-99961700D01*
X155435700Y-98125400D02*
X155435700Y-96428800D01*
X151965000Y-84841200D02*
X153119200Y-84841200D01*
X155650000Y-104553700D02*
X153990800Y-102894500D01*
X149522400Y-108268600D02*
X146845000Y-108268600D01*
%TO.N,/MAX31865AAP+1/CS3v*%
X131061800Y-103893600D02*
X131061800Y-95748100D01*
X153119200Y-84191200D02*
X155034900Y-86106900D01*
X155034900Y-86106900D02*
X155034900Y-88425900D01*
X131061800Y-95748100D02*
X131820000Y-94989900D01*
X132438700Y-94989900D02*
X134492400Y-92936200D01*
X151965000Y-84191200D02*
X153119200Y-84191200D01*
X131820000Y-94989900D02*
X132438700Y-94989900D01*
X132126000Y-103893600D02*
X131061800Y-103893600D01*
%TO.N,Net-(IC1-FORCE2)*%
X158961000Y-86791200D02*
X157806800Y-86791200D01*
X155764400Y-84748800D02*
X155764400Y-80715900D01*
X155764400Y-80715900D02*
X156620000Y-79860300D01*
X157806800Y-86791200D02*
X155764400Y-84748800D01*
X156620000Y-79860300D02*
X158011700Y-79860300D01*
%TO.N,Net-(IC1-ISENSOR)*%
X157806800Y-85491200D02*
X157806800Y-84841200D01*
X160683200Y-82816600D02*
X161060200Y-82439600D01*
X160683200Y-84273200D02*
X160683200Y-82816600D01*
X158961000Y-84841200D02*
X160115200Y-84841200D01*
X158961000Y-85491200D02*
X157806800Y-85491200D01*
X158961000Y-84841200D02*
X157806800Y-84841200D01*
X160115200Y-84841200D02*
X160683200Y-84273200D01*
X161060200Y-82439600D02*
X161060200Y-78212600D01*
%TO.N,/MAX31865AAP+1/MISO3v*%
X151866000Y-107700800D02*
X150711800Y-107700800D01*
X128282200Y-100083600D02*
X129608300Y-98757500D01*
X149719300Y-95850000D02*
X149719300Y-106708300D01*
X133238000Y-92521100D02*
X133238000Y-92249000D01*
X133238000Y-92249000D02*
X133238100Y-92249000D01*
X129608300Y-98757500D02*
X129608300Y-95977200D01*
X150366500Y-94455600D02*
X150366500Y-88287300D01*
X150740100Y-94829200D02*
X149719300Y-95850000D01*
X131572600Y-94186500D02*
X133238000Y-92521100D01*
X126702000Y-100083600D02*
X128282200Y-100083600D01*
X149719300Y-106708300D02*
X150711800Y-107700800D01*
X150366500Y-88287300D02*
X150434300Y-88219500D01*
X129608300Y-95977200D02*
X131399000Y-94186500D01*
X150902600Y-94991700D02*
X150740100Y-94829200D01*
X151965000Y-83541200D02*
X153320500Y-83541200D01*
X131399000Y-94186500D02*
X131572600Y-94186500D01*
X152056800Y-94991700D02*
X150902600Y-94991700D01*
X150740100Y-94829200D02*
X150366500Y-94455600D01*
%TO.N,/MAX31865AAP+1/FORCE+*%
X163346000Y-85034500D02*
X166934300Y-81446200D01*
X158961000Y-86141200D02*
X160115200Y-86141200D01*
X161221900Y-85034500D02*
X163346000Y-85034500D01*
X160115200Y-86141200D02*
X161221900Y-85034500D01*
X156406100Y-84740500D02*
X156406100Y-80931300D01*
X158383900Y-86141200D02*
X157806800Y-86141200D01*
X157806800Y-86141200D02*
X156406100Y-84740500D01*
%TO.N,/MAX31865AAP+1/FORCE-*%
X153119200Y-86791200D02*
X153203900Y-86791200D01*
X151965000Y-86791200D02*
X153119200Y-86791200D01*
X153203900Y-86791200D02*
X153323900Y-86911200D01*
%TO.N,/MAX31865AAP+2/CS3v*%
X150902600Y-95641700D02*
X150822400Y-95641700D01*
X134215800Y-98745500D02*
X133190200Y-99771100D01*
X152056800Y-95641700D02*
X150902600Y-95641700D01*
X150822400Y-95641700D02*
X150571200Y-95892900D01*
X132126000Y-100083600D02*
X133190200Y-100083600D01*
X133190200Y-99771100D02*
X133190200Y-100083600D01*
%TO.N,Net-(IC2-ISENSOR)*%
X157898600Y-96941700D02*
X157898600Y-96291700D01*
X159052800Y-96291700D02*
X157898600Y-96291700D01*
X156548200Y-94941300D02*
X156548200Y-94782700D01*
X159052800Y-96941700D02*
X157898600Y-96941700D01*
X157898600Y-96291700D02*
X156548200Y-94941300D01*
%TO.N,Net-(IC2-BIAS)*%
X157898600Y-95641700D02*
X157898600Y-95235400D01*
X157898600Y-92317300D02*
X160559300Y-89656600D01*
X157898600Y-94748000D02*
X157898600Y-92317300D01*
X157898600Y-95235400D02*
X158142300Y-94991700D01*
X159052800Y-95641700D02*
X157898600Y-95641700D01*
X158142300Y-94991700D02*
X159052800Y-94991700D01*
X158142300Y-94991700D02*
X157898600Y-94748000D01*
%TO.N,/MAX31865AAP+2/FORCE+*%
X155805800Y-93603000D02*
X155102100Y-92899300D01*
X155946500Y-95639600D02*
X157898600Y-97591700D01*
X155947700Y-93603000D02*
X155946500Y-93603000D01*
X157007100Y-92543600D02*
X155947700Y-93603000D01*
X155946500Y-93603000D02*
X155946500Y-95639600D01*
X159052800Y-97591700D02*
X157898600Y-97591700D01*
X155946500Y-93603000D02*
X155805800Y-93603000D01*
%TO.N,/MAX31865AAP+2/FORCE-*%
X152056800Y-98241700D02*
X153211000Y-98241700D01*
X153211000Y-98379600D02*
X153413400Y-98582000D01*
X153211000Y-98241700D02*
X153211000Y-98379600D01*
%TO.N,Net-(IC2-FORCE2)*%
X160207000Y-98241700D02*
X160207000Y-95830500D01*
X159052800Y-98241700D02*
X160207000Y-98241700D01*
X160207000Y-95830500D02*
X160443200Y-95594300D01*
%TO.N,/MAX31865AAP+3/CS3v*%
X133191100Y-97543600D02*
X133391700Y-97744200D01*
X133190200Y-97543600D02*
X133191100Y-97543600D01*
X132126000Y-97543600D02*
X133190200Y-97543600D01*
X150555800Y-108350800D02*
X150511700Y-108306700D01*
X151866000Y-108350800D02*
X150555800Y-108350800D01*
%TO.N,/MAX31865AAP+3/FORCE+*%
X157255200Y-104539400D02*
X156653500Y-103937700D01*
X158284900Y-110300800D02*
X157707800Y-110300800D01*
X158862000Y-110300800D02*
X160016200Y-110300800D01*
X166429400Y-105850600D02*
X167909100Y-105850600D01*
X163527600Y-108752400D02*
X166429400Y-105850600D01*
X157255200Y-109848200D02*
X157255200Y-104539400D01*
X161564600Y-108752400D02*
X163527600Y-108752400D01*
X160016200Y-110300800D02*
X161564600Y-108752400D01*
X157707800Y-110300800D02*
X157255200Y-109848200D01*
%TO.N,/MAX31865AAP+3/FORCE-*%
X151866000Y-110950800D02*
X153020200Y-110950800D01*
X153063500Y-110907500D02*
X153229500Y-110907500D01*
X153020200Y-110950800D02*
X153063500Y-110907500D01*
%TO.N,Net-(IC3-BIAS)*%
X157707800Y-105358900D02*
X160214600Y-102852100D01*
X157707800Y-107700000D02*
X157707800Y-105358900D01*
X158862000Y-108350800D02*
X157707800Y-108350800D01*
X157708600Y-107700800D02*
X157707800Y-107700000D01*
X157709300Y-107700800D02*
X157708600Y-107700800D01*
X158862000Y-107700800D02*
X157808700Y-107700800D01*
X157707800Y-108350800D02*
X157707800Y-107700800D01*
X157708600Y-107700800D02*
X157707800Y-107700800D01*
X157808700Y-107700800D02*
X157709300Y-107700800D01*
%TO.N,Net-(IC3-FORCE2)*%
X156653500Y-109896500D02*
X156653500Y-105887800D01*
X157707800Y-110950800D02*
X156653500Y-109896500D01*
X158862000Y-110950800D02*
X157707800Y-110950800D01*
%TO.N,Net-(IC3-ISENSOR)*%
X157707800Y-109650800D02*
X157707800Y-109000800D01*
X160016200Y-109000800D02*
X160016200Y-107867100D01*
X158862000Y-109000800D02*
X157707800Y-109000800D01*
X158862000Y-109650800D02*
X157707800Y-109650800D01*
X158862000Y-109000800D02*
X160016200Y-109000800D01*
X160016200Y-107867100D02*
X160522200Y-107361100D01*
%TO.N,MOSI*%
X148549500Y-109701800D02*
X147447800Y-109701800D01*
X142155100Y-70207000D02*
X140733200Y-70207000D01*
X141414700Y-100970700D02*
X143804100Y-103360100D01*
X143804100Y-106058100D02*
X147447800Y-109701800D01*
X140733200Y-70207000D02*
X140609800Y-70083600D01*
X128149300Y-97543600D02*
X129006600Y-98400900D01*
X135763200Y-75736300D02*
X131622400Y-75736300D01*
X143804100Y-103360100D02*
X143804100Y-106058100D01*
X139457700Y-101959800D02*
X140446800Y-100970700D01*
X126702000Y-97543600D02*
X125637800Y-97543600D01*
X137813200Y-73686300D02*
X135763200Y-75736300D01*
X121249800Y-79444000D02*
X121249800Y-93155600D01*
X140446800Y-100970700D02*
X141414700Y-100970700D01*
X126702000Y-97543600D02*
X128149300Y-97543600D01*
X128522400Y-78836300D02*
X121857500Y-78836300D01*
X131622400Y-75736300D02*
X128522400Y-78836300D01*
X121857500Y-78836300D02*
X121249800Y-79444000D01*
X121249800Y-93155600D02*
X125637800Y-97543600D01*
%TO.N,MISO*%
X125428900Y-101562500D02*
X125637800Y-101353600D01*
X143641300Y-68937000D02*
X145088400Y-67489900D01*
X142155100Y-68937000D02*
X143641300Y-68937000D01*
X126702000Y-101353600D02*
X125637800Y-101353600D01*
%TO.N,CLK*%
X142155100Y-71477000D02*
X139088000Y-71477000D01*
X126702000Y-102623600D02*
X128695900Y-102623600D01*
X148321200Y-105723500D02*
X147101900Y-106942800D01*
X126609200Y-78411300D02*
X121689500Y-78411300D01*
X128695900Y-102623600D02*
X130074000Y-104001700D01*
X126169900Y-102623600D02*
X125637800Y-102623600D01*
X143650800Y-71477000D02*
X144573800Y-72400000D01*
X148549500Y-104621800D02*
X148549500Y-105723500D01*
X139088000Y-71477000D02*
X135399900Y-75165100D01*
X129855400Y-75165100D02*
X126609200Y-78411300D01*
X142155100Y-71477000D02*
X143650800Y-71477000D01*
X130074000Y-104001700D02*
X130074000Y-106219700D01*
X148549500Y-105723500D02*
X148321200Y-105723500D01*
X147101900Y-106942800D02*
X147101900Y-107666800D01*
X120847300Y-79253500D02*
X120847300Y-97833100D01*
X135399900Y-75165100D02*
X129855400Y-75165100D01*
X121689500Y-78411300D02*
X120847300Y-79253500D01*
X147101900Y-107666800D02*
X147101800Y-107666800D01*
X120847300Y-97833100D02*
X125637800Y-102623600D01*
%TD*%
M02*
