%TF.GenerationSoftware,KiCad,Pcbnew,8.0.1-rc1*%
%TF.CreationDate,2024-06-08T15:22:59-07:00*%
%TF.ProjectId,AMS - CANBus Sensor - Temperature,414d5320-2d20-4434-914e-427573205365,rev?*%
%TF.SameCoordinates,Original*%
%TF.FileFunction,Copper,L2,Bot*%
%TF.FilePolarity,Positive*%
%FSLAX46Y46*%
G04 Gerber Fmt 4.6, Leading zero omitted, Abs format (unit mm)*
G04 Created by KiCad (PCBNEW 8.0.1-rc1) date 2024-06-08 15:22:59*
%MOMM*%
%LPD*%
G01*
G04 APERTURE LIST*
G04 Aperture macros list*
%AMRoundRect*
0 Rectangle with rounded corners*
0 $1 Rounding radius*
0 $2 $3 $4 $5 $6 $7 $8 $9 X,Y pos of 4 corners*
0 Add a 4 corners polygon primitive as box body*
4,1,4,$2,$3,$4,$5,$6,$7,$8,$9,$2,$3,0*
0 Add four circle primitives for the rounded corners*
1,1,$1+$1,$2,$3*
1,1,$1+$1,$4,$5*
1,1,$1+$1,$6,$7*
1,1,$1+$1,$8,$9*
0 Add four rect primitives between the rounded corners*
20,1,$1+$1,$2,$3,$4,$5,0*
20,1,$1+$1,$4,$5,$6,$7,0*
20,1,$1+$1,$6,$7,$8,$9,0*
20,1,$1+$1,$8,$9,$2,$3,0*%
G04 Aperture macros list end*
%TA.AperFunction,ComponentPad*%
%ADD10R,1.700000X1.700000*%
%TD*%
%TA.AperFunction,ComponentPad*%
%ADD11O,1.700000X1.700000*%
%TD*%
%TA.AperFunction,ComponentPad*%
%ADD12C,1.600000*%
%TD*%
%TA.AperFunction,ComponentPad*%
%ADD13O,1.600000X1.600000*%
%TD*%
%TA.AperFunction,ComponentPad*%
%ADD14R,2.200000X2.200000*%
%TD*%
%TA.AperFunction,ComponentPad*%
%ADD15C,2.200000*%
%TD*%
%TA.AperFunction,ComponentPad*%
%ADD16C,2.400000*%
%TD*%
%TA.AperFunction,ComponentPad*%
%ADD17R,1.600000X1.600000*%
%TD*%
%TA.AperFunction,ComponentPad*%
%ADD18R,1.920000X1.920000*%
%TD*%
%TA.AperFunction,ComponentPad*%
%ADD19C,1.920000*%
%TD*%
%TA.AperFunction,ComponentPad*%
%ADD20C,1.500000*%
%TD*%
%TA.AperFunction,ComponentPad*%
%ADD21R,1.500000X1.500000*%
%TD*%
%TA.AperFunction,SMDPad,CuDef*%
%ADD22RoundRect,0.250000X0.412500X0.650000X-0.412500X0.650000X-0.412500X-0.650000X0.412500X-0.650000X0*%
%TD*%
%TA.AperFunction,SMDPad,CuDef*%
%ADD23RoundRect,0.250000X-0.650000X0.412500X-0.650000X-0.412500X0.650000X-0.412500X0.650000X0.412500X0*%
%TD*%
%TA.AperFunction,SMDPad,CuDef*%
%ADD24RoundRect,0.150000X0.825000X0.150000X-0.825000X0.150000X-0.825000X-0.150000X0.825000X-0.150000X0*%
%TD*%
%TA.AperFunction,SMDPad,CuDef*%
%ADD25R,1.705000X0.450000*%
%TD*%
%TA.AperFunction,SMDPad,CuDef*%
%ADD26RoundRect,0.250000X0.400000X0.625000X-0.400000X0.625000X-0.400000X-0.625000X0.400000X-0.625000X0*%
%TD*%
%TA.AperFunction,SMDPad,CuDef*%
%ADD27RoundRect,0.250000X-0.412500X-0.650000X0.412500X-0.650000X0.412500X0.650000X-0.412500X0.650000X0*%
%TD*%
%TA.AperFunction,SMDPad,CuDef*%
%ADD28RoundRect,0.250000X0.650000X-0.412500X0.650000X0.412500X-0.650000X0.412500X-0.650000X-0.412500X0*%
%TD*%
%TA.AperFunction,SMDPad,CuDef*%
%ADD29RoundRect,0.250000X-0.625000X0.400000X-0.625000X-0.400000X0.625000X-0.400000X0.625000X0.400000X0*%
%TD*%
%TA.AperFunction,SMDPad,CuDef*%
%ADD30RoundRect,0.150000X0.875000X0.150000X-0.875000X0.150000X-0.875000X-0.150000X0.875000X-0.150000X0*%
%TD*%
%TA.AperFunction,SMDPad,CuDef*%
%ADD31RoundRect,0.250000X0.625000X-0.400000X0.625000X0.400000X-0.625000X0.400000X-0.625000X-0.400000X0*%
%TD*%
%TA.AperFunction,SMDPad,CuDef*%
%ADD32R,1.525000X0.650000*%
%TD*%
%TA.AperFunction,SMDPad,CuDef*%
%ADD33R,1.850000X0.900000*%
%TD*%
%TA.AperFunction,SMDPad,CuDef*%
%ADD34R,1.850000X3.200000*%
%TD*%
%TA.AperFunction,SMDPad,CuDef*%
%ADD35R,1.000000X0.550000*%
%TD*%
%TA.AperFunction,ViaPad*%
%ADD36C,0.600000*%
%TD*%
%TA.AperFunction,Conductor*%
%ADD37C,0.200000*%
%TD*%
%TA.AperFunction,Conductor*%
%ADD38C,0.762000*%
%TD*%
G04 APERTURE END LIST*
D10*
%TO.P,J2,1,Pin_1*%
%TO.N,/MAX31865AAP+1/FORCE+*%
X154427100Y-80520700D03*
D11*
%TO.P,J2,2,Pin_2*%
%TO.N,/MAX31865AAP+1/RTDIn+*%
X156967100Y-80520700D03*
%TD*%
D10*
%TO.P,J10,1,Pin_1*%
%TO.N,/MAX31865AAP+2/FORCE-*%
X154147400Y-96704500D03*
D11*
%TO.P,J10,2,Pin_2*%
%TO.N,/MAX31865AAP+2/RTDin-*%
X156687400Y-96704500D03*
%TD*%
D12*
%TO.P,R7,1*%
%TO.N,Net-(J5-Pin_2)*%
X139116100Y-58260700D03*
D13*
%TO.P,R7,2*%
%TO.N,CANBUS_L*%
X141656100Y-58260700D03*
%TD*%
D14*
%TO.P,J1,1,Pin_1*%
%TO.N,Net-(J1-Pin_1)*%
X157148000Y-71872800D03*
D15*
%TO.P,J1,2,Pin_2*%
%TO.N,GND*%
X157148000Y-69332800D03*
%TO.P,J1,3,Pin_3*%
%TO.N,CANBUS_H*%
X157148000Y-66792800D03*
%TO.P,J1,4,Pin_4*%
%TO.N,CANBUS_L*%
X157148000Y-64252800D03*
%TD*%
D12*
%TO.P,NTC1,1*%
%TO.N,/BareMinAtmel328P/PC0-A0*%
X135965600Y-94809500D03*
D13*
%TO.P,NTC1,2*%
%TO.N,+5V*%
X135965600Y-97349500D03*
%TD*%
D10*
%TO.P,J3,1,Pin_1*%
%TO.N,GND*%
X146767300Y-124094700D03*
D11*
%TO.P,J3,2,Pin_2*%
%TO.N,unconnected-(J3-Pin_2-Pad2)*%
X144227300Y-124094700D03*
%TO.P,J3,3,Pin_3*%
%TO.N,+5V*%
X141687300Y-124094700D03*
%TO.P,J3,4,Pin_4*%
%TO.N,/BareMinAtmel328P/PD0-RX*%
X139147300Y-124094700D03*
%TO.P,J3,5,Pin_5*%
%TO.N,/BareMinAtmel328P/PD1-TX*%
X136607300Y-124094700D03*
%TO.P,J3,6,Pin_6*%
%TO.N,Net-(J3-Pin_6)*%
X134067300Y-124094700D03*
%TD*%
D14*
%TO.P,J15,1,Pin_1*%
%TO.N,/MAX31865AAP+2/RTDIn+*%
X169777600Y-97738800D03*
D15*
%TO.P,J15,2,Pin_2*%
%TO.N,/MAX31865AAP+2/FORCE+*%
X169777600Y-95198800D03*
%TO.P,J15,3,Pin_3*%
%TO.N,/MAX31865AAP+2/FORCE-*%
X169777600Y-92658800D03*
%TO.P,J15,4,Pin_4*%
%TO.N,/MAX31865AAP+2/RTDin-*%
X169777600Y-90118800D03*
%TD*%
D10*
%TO.P,J7,1,Pin_1*%
%TO.N,/MAX31865AAP+1/FORCE-*%
X154091800Y-85981100D03*
D11*
%TO.P,J7,2,Pin_2*%
%TO.N,/MAX31865AAP+1/RTDin-*%
X156631800Y-85981100D03*
%TD*%
D16*
%TO.P,U5,1,1*%
%TO.N,Net-(Q1-Pad3)*%
X134999500Y-70018000D03*
%TO.P,U5,2,2*%
X134999500Y-73418000D03*
%TO.P,U5,3,3*%
%TO.N,+VDC*%
X125079500Y-70018000D03*
%TO.P,U5,4,4*%
X125079500Y-73418000D03*
%TD*%
D10*
%TO.P,J8,1,Pin_1*%
%TO.N,/MAX31865AAP+2/FORCE+*%
X154099500Y-91526100D03*
D11*
%TO.P,J8,2,Pin_2*%
%TO.N,/MAX31865AAP+2/RTDIn+*%
X156639500Y-91526100D03*
%TD*%
D12*
%TO.P,R6,1*%
%TO.N,Net-(U4-Rs)*%
X163881700Y-75743400D03*
D13*
%TO.P,R6,2*%
%TO.N,GND*%
X161341700Y-75743400D03*
%TD*%
D14*
%TO.P,J14,1,Pin_1*%
%TO.N,/MAX31865AAP+1/RTDIn+*%
X169740800Y-86017900D03*
D15*
%TO.P,J14,2,Pin_2*%
%TO.N,/MAX31865AAP+1/FORCE+*%
X169740800Y-83477900D03*
%TO.P,J14,3,Pin_3*%
%TO.N,/MAX31865AAP+1/FORCE-*%
X169740800Y-80937900D03*
%TO.P,J14,4,Pin_4*%
%TO.N,/MAX31865AAP+1/RTDin-*%
X169740800Y-78397900D03*
%TD*%
D14*
%TO.P,J16,1,Pin_1*%
%TO.N,/MAX31865AAP+3/RTDIn+*%
X166572100Y-110206600D03*
D15*
%TO.P,J16,2,Pin_2*%
%TO.N,/MAX31865AAP+3/FORCE+*%
X166572100Y-107666600D03*
%TO.P,J16,3,Pin_3*%
%TO.N,/MAX31865AAP+3/FORCE-*%
X166572100Y-105126600D03*
%TO.P,J16,4,Pin_4*%
%TO.N,/MAX31865AAP+3/RTDin-*%
X166572100Y-102586600D03*
%TD*%
D10*
%TO.P,Powerboard1,1,Pin_1*%
%TO.N,+VDC*%
X130976300Y-92602600D03*
D11*
%TO.P,Powerboard1,2,Pin_2*%
%TO.N,+5V*%
X130976300Y-90062600D03*
%TO.P,Powerboard1,3,Pin_3*%
%TO.N,GND*%
X130976300Y-87522600D03*
%TD*%
D10*
%TO.P,J9,1,Pin_1*%
%TO.N,/MAX31865AAP+2/FORCE+*%
X163522200Y-91904000D03*
D11*
%TO.P,J9,2,Pin_2*%
%TO.N,Net-(IC2-FORCE2)*%
X163522200Y-94444000D03*
%TO.P,J9,3,Pin_3*%
%TO.N,/MAX31865AAP+2/GND*%
X163522200Y-96984000D03*
%TD*%
D17*
%TO.P,U2,1,~{RESET}/PC6*%
%TO.N,/BareMinAtmel328P/RESET*%
X140929500Y-81761800D03*
D13*
%TO.P,U2,2,PD0*%
%TO.N,/BareMinAtmel328P/PD0-RX*%
X140929500Y-84301800D03*
%TO.P,U2,3,PD1*%
%TO.N,/BareMinAtmel328P/PD1-TX*%
X140929500Y-86841800D03*
%TO.P,U2,4,PD2*%
%TO.N,/BareMinAtmel328P/PD2-D2*%
X140929500Y-89381800D03*
%TO.P,U2,5,PD3*%
%TO.N,/BareMinAtmel328P/PD3-D3*%
X140929500Y-91921800D03*
%TO.P,U2,6,PD4*%
%TO.N,/BareMinAtmel328P/PD4-D4*%
X140929500Y-94461800D03*
%TO.P,U2,7,VCC*%
%TO.N,+5V*%
X140929500Y-97001800D03*
%TO.P,U2,8,GND*%
%TO.N,GND*%
X140929500Y-99541800D03*
%TO.P,U2,9,XTAL1/PB6*%
%TO.N,Net-(U2-XTAL1{slash}PB6)*%
X140929500Y-102081800D03*
%TO.P,U2,10,XTAL2/PB7*%
%TO.N,Net-(U2-XTAL2{slash}PB7)*%
X140929500Y-104621800D03*
%TO.P,U2,11,PD5*%
%TO.N,/BareMinAtmel328P/PD5-D5*%
X140929500Y-107161800D03*
%TO.P,U2,12,PD6*%
%TO.N,/BareMinAtmel328P/PD6-D6*%
X140929500Y-109701800D03*
%TO.P,U2,13,PD7*%
%TO.N,/BareMinAtmel328P/PD7-D7*%
X140929500Y-112241800D03*
%TO.P,U2,14,PB0*%
%TO.N,/BareMinAtmel328P/PB0-D8*%
X140929500Y-114781800D03*
%TO.P,U2,15,PB1*%
%TO.N,/BareMinAtmel328P/PB1-D9*%
X148549500Y-114781800D03*
%TO.P,U2,16,PB2*%
%TO.N,/BareMinAtmel328P/PB2-D10-SS*%
X148549500Y-112241800D03*
%TO.P,U2,17,PB3*%
%TO.N,MOSI*%
X148549500Y-109701800D03*
%TO.P,U2,18,PB4*%
%TO.N,MISO*%
X148549500Y-107161800D03*
%TO.P,U2,19,PB5*%
%TO.N,CLK*%
X148549500Y-104621800D03*
%TO.P,U2,20,AVCC*%
%TO.N,+5V*%
X148549500Y-102081800D03*
%TO.P,U2,21,AREF*%
%TO.N,/BareMinAtmel328P/AREF*%
X148549500Y-99541800D03*
%TO.P,U2,22,GND*%
%TO.N,GND*%
X148549500Y-97001800D03*
%TO.P,U2,23,PC0*%
%TO.N,/BareMinAtmel328P/PC0-A0*%
X148549500Y-94461800D03*
%TO.P,U2,24,PC1*%
%TO.N,/BareMinAtmel328P/PC1-A1*%
X148549500Y-91921800D03*
%TO.P,U2,25,PC2*%
%TO.N,/BareMinAtmel328P/PC2-A2*%
X148549500Y-89381800D03*
%TO.P,U2,26,PC3*%
%TO.N,/BareMinAtmel328P/PC3-A3*%
X148549500Y-86841800D03*
%TO.P,U2,27,PC4*%
%TO.N,/BareMinAtmel328P/PC4-A4-SDA*%
X148549500Y-84301800D03*
%TO.P,U2,28,PC5*%
%TO.N,/BareMinAtmel328P/PC5-A5-SCL*%
X148549500Y-81761800D03*
%TD*%
D10*
%TO.P,J5,1,Pin_1*%
%TO.N,CANBUS_H*%
X139049600Y-61738500D03*
D11*
%TO.P,J5,2,Pin_2*%
%TO.N,Net-(J5-Pin_2)*%
X141589600Y-61738500D03*
%TD*%
D18*
%TO.P,Q1,1*%
%TO.N,Net-(Q1-Pad1)*%
X136586000Y-84423600D03*
D19*
%TO.P,Q1,2*%
%TO.N,Net-(J1-Pin_1)*%
X136586000Y-81883600D03*
%TO.P,Q1,3*%
%TO.N,Net-(Q1-Pad3)*%
X136586000Y-79343600D03*
%TD*%
D20*
%TO.P,Y2,1,1*%
%TO.N,Net-(U3-OSC1)*%
X156482900Y-115391200D03*
%TO.P,Y2,2,2*%
%TO.N,Net-(U3-OSC2)*%
X161362900Y-115391200D03*
%TD*%
D21*
%TO.P,Reset1,1,NO_1*%
%TO.N,/BareMinAtmel328P/RESET*%
X135385300Y-113752500D03*
D20*
%TO.P,Reset1,2,NO_2*%
%TO.N,unconnected-(Reset1-NO_2-Pad2)*%
X128885300Y-113752500D03*
%TO.P,Reset1,3,COM_1*%
%TO.N,GND*%
X135385300Y-109252500D03*
%TO.P,Reset1,4,COM_2*%
%TO.N,unconnected-(Reset1-COM_2-Pad4)*%
X128885300Y-109252500D03*
%TD*%
D10*
%TO.P,J6,1,Pin_1*%
%TO.N,/MAX31865AAP+1/FORCE+*%
X162905100Y-80664400D03*
D11*
%TO.P,J6,2,Pin_2*%
%TO.N,Net-(IC1-FORCE2)*%
X162905100Y-83204400D03*
%TO.P,J6,3,Pin_3*%
%TO.N,/MAX31865AAP+1/GND*%
X162905100Y-85744400D03*
%TD*%
D20*
%TO.P,Y1,1,1*%
%TO.N,Net-(U2-XTAL2{slash}PB7)*%
X135241300Y-119345300D03*
%TO.P,Y1,2,2*%
%TO.N,Net-(U2-XTAL1{slash}PB6)*%
X140121300Y-119345300D03*
%TD*%
D10*
%TO.P,J12,1,Pin_1*%
%TO.N,/MAX31865AAP+3/FORCE+*%
X161047400Y-103693100D03*
D11*
%TO.P,J12,2,Pin_2*%
%TO.N,Net-(IC3-FORCE2)*%
X161047400Y-106233100D03*
%TO.P,J12,3,Pin_3*%
%TO.N,/MAX31865AAP+3/GND*%
X161047400Y-108773100D03*
%TD*%
D10*
%TO.P,J11,1,Pin_1*%
%TO.N,/MAX31865AAP+3/FORCE+*%
X152867400Y-108259400D03*
D11*
%TO.P,J11,2,Pin_2*%
%TO.N,/MAX31865AAP+3/RTDIn+*%
X155407400Y-108259400D03*
%TD*%
D10*
%TO.P,J13,1,Pin_1*%
%TO.N,/MAX31865AAP+3/FORCE-*%
X152903300Y-102979900D03*
D11*
%TO.P,J13,2,Pin_2*%
%TO.N,/MAX31865AAP+3/RTDin-*%
X155443300Y-102979900D03*
%TD*%
D22*
%TO.P,C17,1*%
%TO.N,GND*%
X118974700Y-86057600D03*
%TO.P,C17,2*%
%TO.N,+3.3V*%
X115849700Y-86057600D03*
%TD*%
D23*
%TO.P,C2,1*%
%TO.N,Net-(U2-XTAL1{slash}PB6)*%
X145046300Y-118038200D03*
%TO.P,C2,2*%
%TO.N,GND*%
X145046300Y-121163200D03*
%TD*%
D24*
%TO.P,U4,1,TXD*%
%TO.N,/CANBUS-MCP2515/TXtoCANTC*%
X168429800Y-67769000D03*
%TO.P,U4,2,VSS*%
%TO.N,GND*%
X168429800Y-69039000D03*
%TO.P,U4,3,VDD*%
%TO.N,+5V*%
X168429800Y-70309000D03*
%TO.P,U4,4,RXD*%
%TO.N,/CANBUS-MCP2515/RXtoCANTC*%
X168429800Y-71579000D03*
%TO.P,U4,5,Vref*%
%TO.N,unconnected-(U4-Vref-Pad5)*%
X163479800Y-71579000D03*
%TO.P,U4,6,CANL*%
%TO.N,CANBUS_L*%
X163479800Y-70309000D03*
%TO.P,U4,7,CANH*%
%TO.N,CANBUS_H*%
X163479800Y-69039000D03*
%TO.P,U4,8,Rs*%
%TO.N,Net-(U4-Rs)*%
X163479800Y-67769000D03*
%TD*%
D25*
%TO.P,IC2,1,~{DRDY}*%
%TO.N,unconnected-(IC2-~{DRDY}-Pad1)*%
X182812600Y-90699400D03*
%TO.P,IC2,2,DVDD*%
%TO.N,/MAX31865AAP+2/3.3V*%
X182812600Y-91349400D03*
%TO.P,IC2,3,VDD*%
X182812600Y-91999400D03*
%TO.P,IC2,4,BIAS*%
%TO.N,Net-(IC2-BIAS)*%
X182812600Y-92649400D03*
%TO.P,IC2,5,REFIN+*%
X182812600Y-93299400D03*
%TO.P,IC2,6,REFIN-*%
%TO.N,Net-(IC2-ISENSOR)*%
X182812600Y-93949400D03*
%TO.P,IC2,7,ISENSOR*%
X182812600Y-94599400D03*
%TO.P,IC2,8,FORCE+*%
%TO.N,/MAX31865AAP+2/FORCE+*%
X182812600Y-95249400D03*
%TO.P,IC2,9,FORCE2*%
%TO.N,Net-(IC2-FORCE2)*%
X182812600Y-95899400D03*
%TO.P,IC2,10,RTDIN+*%
%TO.N,/MAX31865AAP+2/RTDIn+*%
X182812600Y-96549400D03*
%TO.P,IC2,11,RTDIN-*%
%TO.N,/MAX31865AAP+2/RTDin-*%
X175816600Y-96549400D03*
%TO.P,IC2,12,FORCE-*%
%TO.N,/MAX31865AAP+2/FORCE-*%
X175816600Y-95899400D03*
%TO.P,IC2,13,GND2*%
%TO.N,/MAX31865AAP+2/GND*%
X175816600Y-95249400D03*
%TO.P,IC2,14,SDI*%
%TO.N,/MAX31865AAP+1/MOSI3v*%
X175816600Y-94599400D03*
%TO.P,IC2,15,SCLK*%
%TO.N,/MAX31865AAP+1/SLC3v*%
X175816600Y-93949400D03*
%TO.P,IC2,16,~{CS}*%
%TO.N,/MAX31865AAP+2/CS3v*%
X175816600Y-93299400D03*
%TO.P,IC2,17,SDO*%
%TO.N,/MAX31865AAP+1/MISO3v*%
X175816600Y-92649400D03*
%TO.P,IC2,18,DGND*%
%TO.N,/MAX31865AAP+2/GND*%
X175816600Y-91999400D03*
%TO.P,IC2,19,GND*%
X175816600Y-91349400D03*
%TO.P,IC2,20,N.C.*%
%TO.N,unconnected-(IC2-N.C.-Pad20)*%
X175816600Y-90699400D03*
%TD*%
D26*
%TO.P,R1,1*%
%TO.N,Net-(Q1-Pad1)*%
X131364300Y-81129300D03*
%TO.P,R1,2*%
%TO.N,GND*%
X128264300Y-81129300D03*
%TD*%
D27*
%TO.P,C10,1*%
%TO.N,/MAX31865AAP+1/RTDin-*%
X177204100Y-85024500D03*
%TO.P,C10,2*%
%TO.N,/MAX31865AAP+1/RTDIn+*%
X180329100Y-85024500D03*
%TD*%
D28*
%TO.P,C8,1*%
%TO.N,/MAX31865AAP+1/3.3V*%
X167153400Y-76752400D03*
%TO.P,C8,2*%
%TO.N,/MAX31865AAP+1/GND*%
X167153400Y-73627400D03*
%TD*%
D29*
%TO.P,R4,1*%
%TO.N,+5V*%
X132096400Y-109912300D03*
%TO.P,R4,2*%
%TO.N,/BareMinAtmel328P/RESET*%
X132096400Y-113012300D03*
%TD*%
D22*
%TO.P,C9,1*%
%TO.N,/MAX31865AAP+1/3.3V*%
X173995300Y-73848700D03*
%TO.P,C9,2*%
%TO.N,/MAX31865AAP+1/GND*%
X170870300Y-73848700D03*
%TD*%
%TO.P,C4,1*%
%TO.N,Net-(U3-OSC2)*%
X151743500Y-119515100D03*
%TO.P,C4,2*%
%TO.N,GND*%
X148618500Y-119515100D03*
%TD*%
D30*
%TO.P,U3,1,TXCAN*%
%TO.N,/CANBUS-MCP2515/TXtoCANTC*%
X151455100Y-65127000D03*
%TO.P,U3,2,RXCAN*%
%TO.N,/CANBUS-MCP2515/RXtoCANTC*%
X151455100Y-66397000D03*
%TO.P,U3,3,CLKOUT/SOF*%
%TO.N,unconnected-(U3-CLKOUT{slash}SOF-Pad3)*%
X151455100Y-67667000D03*
%TO.P,U3,4,~{TX0RTS}*%
%TO.N,unconnected-(U3-~{TX0RTS}-Pad4)*%
X151455100Y-68937000D03*
%TO.P,U3,5,~{TX1RTS}*%
%TO.N,unconnected-(U3-~{TX1RTS}-Pad5)*%
X151455100Y-70207000D03*
%TO.P,U3,6,~{TX2RTS}*%
%TO.N,unconnected-(U3-~{TX2RTS}-Pad6)*%
X151455100Y-71477000D03*
%TO.P,U3,7,OSC2*%
%TO.N,Net-(U3-OSC2)*%
X151455100Y-72747000D03*
%TO.P,U3,8,OSC1*%
%TO.N,Net-(U3-OSC1)*%
X151455100Y-74017000D03*
%TO.P,U3,9,VSS*%
%TO.N,GND*%
X151455100Y-75287000D03*
%TO.P,U3,10,~{RX1BF}*%
%TO.N,unconnected-(U3-~{RX1BF}-Pad10)*%
X142155100Y-75287000D03*
%TO.P,U3,11,~{RX0BF}*%
%TO.N,unconnected-(U3-~{RX0BF}-Pad11)*%
X142155100Y-74017000D03*
%TO.P,U3,12,~{INT}*%
%TO.N,/BareMinAtmel328P/PD2-D2*%
X142155100Y-72747000D03*
%TO.P,U3,13,SCK*%
%TO.N,CLK*%
X142155100Y-71477000D03*
%TO.P,U3,14,SI*%
%TO.N,MOSI*%
X142155100Y-70207000D03*
%TO.P,U3,15,SO*%
%TO.N,MISO*%
X142155100Y-68937000D03*
%TO.P,U3,16,~{CS}*%
%TO.N,/BareMinAtmel328P/PB1-D9*%
X142155100Y-67667000D03*
%TO.P,U3,17,~{RESET}*%
%TO.N,Net-(U3-~{RESET})*%
X142155100Y-66397000D03*
%TO.P,U3,18,VDD*%
%TO.N,+5V*%
X142155100Y-65127000D03*
%TD*%
D31*
%TO.P,R5,1*%
%TO.N,Net-(U3-~{RESET})*%
X144703000Y-87196800D03*
%TO.P,R5,2*%
%TO.N,+5V*%
X144703000Y-84096800D03*
%TD*%
D29*
%TO.P,R3,1*%
%TO.N,GND*%
X135973000Y-89148700D03*
%TO.P,R3,2*%
%TO.N,/BareMinAtmel328P/PC0-A0*%
X135973000Y-92248700D03*
%TD*%
D25*
%TO.P,IC3,1,~{DRDY}*%
%TO.N,unconnected-(IC3-~{DRDY}-Pad1)*%
X180511900Y-101484500D03*
%TO.P,IC3,2,DVDD*%
%TO.N,/MAX31865AAP+3/3.3V*%
X180511900Y-102134500D03*
%TO.P,IC3,3,VDD*%
X180511900Y-102784500D03*
%TO.P,IC3,4,BIAS*%
%TO.N,Net-(IC3-BIAS)*%
X180511900Y-103434500D03*
%TO.P,IC3,5,REFIN+*%
X180511900Y-104084500D03*
%TO.P,IC3,6,REFIN-*%
%TO.N,Net-(IC3-ISENSOR)*%
X180511900Y-104734500D03*
%TO.P,IC3,7,ISENSOR*%
X180511900Y-105384500D03*
%TO.P,IC3,8,FORCE+*%
%TO.N,/MAX31865AAP+3/FORCE+*%
X180511900Y-106034500D03*
%TO.P,IC3,9,FORCE2*%
%TO.N,Net-(IC3-FORCE2)*%
X180511900Y-106684500D03*
%TO.P,IC3,10,RTDIN+*%
%TO.N,/MAX31865AAP+3/RTDIn+*%
X180511900Y-107334500D03*
%TO.P,IC3,11,RTDIN-*%
%TO.N,/MAX31865AAP+3/RTDin-*%
X173515900Y-107334500D03*
%TO.P,IC3,12,FORCE-*%
%TO.N,/MAX31865AAP+3/FORCE-*%
X173515900Y-106684500D03*
%TO.P,IC3,13,GND2*%
%TO.N,/MAX31865AAP+3/GND*%
X173515900Y-106034500D03*
%TO.P,IC3,14,SDI*%
%TO.N,/MAX31865AAP+1/MOSI3v*%
X173515900Y-105384500D03*
%TO.P,IC3,15,SCLK*%
%TO.N,/MAX31865AAP+1/SLC3v*%
X173515900Y-104734500D03*
%TO.P,IC3,16,~{CS}*%
%TO.N,/MAX31865AAP+3/CS3v*%
X173515900Y-104084500D03*
%TO.P,IC3,17,SDO*%
%TO.N,/MAX31865AAP+1/MISO3v*%
X173515900Y-103434500D03*
%TO.P,IC3,18,DGND*%
%TO.N,/MAX31865AAP+3/GND*%
X173515900Y-102784500D03*
%TO.P,IC3,19,GND*%
X173515900Y-102134500D03*
%TO.P,IC3,20,N.C.*%
%TO.N,unconnected-(IC3-N.C.-Pad20)*%
X173515900Y-101484500D03*
%TD*%
D22*
%TO.P,C1,1*%
%TO.N,Net-(J3-Pin_6)*%
X138717100Y-117199700D03*
%TO.P,C1,2*%
%TO.N,/BareMinAtmel328P/RESET*%
X135592100Y-117199700D03*
%TD*%
D32*
%TO.P,IC4,1,VCC*%
%TO.N,+3.3V*%
X116067100Y-99743000D03*
%TO.P,IC4,2,1Y*%
%TO.N,/MAX31865AAP+1/SLC3v*%
X116067100Y-98473000D03*
%TO.P,IC4,3,1A*%
%TO.N,CLK*%
X116067100Y-97203000D03*
%TO.P,IC4,4,2Y*%
%TO.N,MISO*%
X116067100Y-95933000D03*
%TO.P,IC4,5,2A*%
%TO.N,/MAX31865AAP+1/MISO3v*%
X116067100Y-94663000D03*
%TO.P,IC4,6,3Y*%
%TO.N,/MAX31865AAP+1/MOSI3v*%
X116067100Y-93393000D03*
%TO.P,IC4,7,3A*%
%TO.N,MOSI*%
X116067100Y-92123000D03*
%TO.P,IC4,8,GND*%
%TO.N,GND*%
X116067100Y-90853000D03*
%TO.P,IC4,9,4A*%
%TO.N,/BareMinAtmel328P/PD5-D5*%
X121491100Y-90853000D03*
%TO.P,IC4,10,4Y*%
%TO.N,/MAX31865AAP+3/CS3v*%
X121491100Y-92123000D03*
%TO.P,IC4,11,5A*%
%TO.N,/BareMinAtmel328P/PD4-D4*%
X121491100Y-93393000D03*
%TO.P,IC4,12,5Y*%
%TO.N,/MAX31865AAP+2/CS3v*%
X121491100Y-94663000D03*
%TO.P,IC4,13,NC_1*%
%TO.N,unconnected-(IC4-NC_1-Pad13)*%
X121491100Y-95933000D03*
%TO.P,IC4,14,6A*%
%TO.N,/BareMinAtmel328P/PD3-D3*%
X121491100Y-97203000D03*
%TO.P,IC4,15,6Y*%
%TO.N,/MAX31865AAP+1/CS3v*%
X121491100Y-98473000D03*
%TO.P,IC4,16,NC_2*%
%TO.N,unconnected-(IC4-NC_2-Pad16)*%
X121491100Y-99743000D03*
%TD*%
D23*
%TO.P,C15,1*%
%TO.N,/MAX31865AAP+3/3.3V*%
X169251600Y-102830600D03*
%TO.P,C15,2*%
%TO.N,/MAX31865AAP+3/GND*%
X169251600Y-105955600D03*
%TD*%
D29*
%TO.P,R2,1*%
%TO.N,/BareMinAtmel328P/AREF*%
X144995600Y-99509000D03*
%TO.P,R2,2*%
%TO.N,+5V*%
X144995600Y-102609000D03*
%TD*%
D25*
%TO.P,IC1,1,~{DRDY}*%
%TO.N,unconnected-(IC1-~{DRDY}-Pad1)*%
X183151300Y-76886100D03*
%TO.P,IC1,2,DVDD*%
%TO.N,/MAX31865AAP+1/3.3V*%
X183151300Y-77536100D03*
%TO.P,IC1,3,VDD*%
X183151300Y-78186100D03*
%TO.P,IC1,4,BIAS*%
%TO.N,Net-(IC1-BIAS)*%
X183151300Y-78836100D03*
%TO.P,IC1,5,REFIN+*%
X183151300Y-79486100D03*
%TO.P,IC1,6,REFIN-*%
%TO.N,Net-(IC1-ISENSOR)*%
X183151300Y-80136100D03*
%TO.P,IC1,7,ISENSOR*%
X183151300Y-80786100D03*
%TO.P,IC1,8,FORCE+*%
%TO.N,/MAX31865AAP+1/FORCE+*%
X183151300Y-81436100D03*
%TO.P,IC1,9,FORCE2*%
%TO.N,Net-(IC1-FORCE2)*%
X183151300Y-82086100D03*
%TO.P,IC1,10,RTDIN+*%
%TO.N,/MAX31865AAP+1/RTDIn+*%
X183151300Y-82736100D03*
%TO.P,IC1,11,RTDIN-*%
%TO.N,/MAX31865AAP+1/RTDin-*%
X176155300Y-82736100D03*
%TO.P,IC1,12,FORCE-*%
%TO.N,/MAX31865AAP+1/FORCE-*%
X176155300Y-82086100D03*
%TO.P,IC1,13,GND2*%
%TO.N,/MAX31865AAP+1/GND*%
X176155300Y-81436100D03*
%TO.P,IC1,14,SDI*%
%TO.N,/MAX31865AAP+1/MOSI3v*%
X176155300Y-80786100D03*
%TO.P,IC1,15,SCLK*%
%TO.N,/MAX31865AAP+1/SLC3v*%
X176155300Y-80136100D03*
%TO.P,IC1,16,~{CS}*%
%TO.N,/MAX31865AAP+1/CS3v*%
X176155300Y-79486100D03*
%TO.P,IC1,17,SDO*%
%TO.N,/MAX31865AAP+1/MISO3v*%
X176155300Y-78836100D03*
%TO.P,IC1,18,DGND*%
%TO.N,/MAX31865AAP+1/GND*%
X176155300Y-78186100D03*
%TO.P,IC1,19,GND*%
X176155300Y-77536100D03*
%TO.P,IC1,20,N.C.*%
%TO.N,unconnected-(IC1-N.C.-Pad20)*%
X176155300Y-76886100D03*
%TD*%
D23*
%TO.P,C12,1*%
%TO.N,/MAX31865AAP+2/3.3V*%
X166999500Y-89446100D03*
%TO.P,C12,2*%
%TO.N,/MAX31865AAP+2/GND*%
X166999500Y-92571100D03*
%TD*%
D33*
%TO.P,IC5,1,INPUT*%
%TO.N,+5V*%
X115966900Y-83323300D03*
%TO.P,IC5,2,ADJ/GND_1*%
%TO.N,GND*%
X115966900Y-81023300D03*
%TO.P,IC5,3,OUTPUT*%
%TO.N,+3.3V*%
X115966900Y-78723300D03*
D34*
%TO.P,IC5,4,ADJ/GND_2*%
%TO.N,GND*%
X122166900Y-81023300D03*
%TD*%
D22*
%TO.P,C11,1*%
%TO.N,/MAX31865AAP+2/3.3V*%
X180344900Y-88259800D03*
%TO.P,C11,2*%
%TO.N,/MAX31865AAP+2/GND*%
X177219900Y-88259800D03*
%TD*%
%TO.P,C7,1*%
%TO.N,+5V*%
X137705500Y-103901700D03*
%TO.P,C7,2*%
%TO.N,GND*%
X134580500Y-103901700D03*
%TD*%
D27*
%TO.P,C13,1*%
%TO.N,/MAX31865AAP+2/RTDin-*%
X177518600Y-98878600D03*
%TO.P,C13,2*%
%TO.N,/MAX31865AAP+2/RTDIn+*%
X180643600Y-98878600D03*
%TD*%
D35*
%TO.P,D1,1,CATHODE_1*%
%TO.N,CANBUS_H*%
X157281400Y-75173600D03*
%TO.P,D1,2,CATHODE_2*%
%TO.N,CANBUS_L*%
X157281400Y-76473600D03*
%TO.P,D1,3,COMMON_ANODE*%
%TO.N,GND*%
X155381400Y-75823600D03*
%TD*%
D22*
%TO.P,C6,1*%
%TO.N,+5V*%
X137701800Y-101431800D03*
%TO.P,C6,2*%
%TO.N,GND*%
X134576800Y-101431800D03*
%TD*%
%TO.P,C14,1*%
%TO.N,/MAX31865AAP+3/3.3V*%
X167447900Y-99864000D03*
%TO.P,C14,2*%
%TO.N,/MAX31865AAP+3/GND*%
X164322900Y-99864000D03*
%TD*%
%TO.P,C16,1*%
%TO.N,/MAX31865AAP+3/RTDin-*%
X172292123Y-114007803D03*
%TO.P,C16,2*%
%TO.N,/MAX31865AAP+3/RTDIn+*%
X169167123Y-114007803D03*
%TD*%
D36*
%TO.N,Net-(IC2-ISENSOR)*%
X180010700Y-92143669D03*
%TO.N,CLK*%
X144971100Y-73455300D03*
X117699300Y-103285900D03*
X136368700Y-72169000D03*
%TO.N,MISO*%
X144867500Y-68405300D03*
X114802100Y-88147500D03*
%TO.N,MOSI*%
X140841600Y-69572800D03*
X117342000Y-92575600D03*
X124782400Y-110235100D03*
X147641300Y-113599700D03*
%TO.N,Net-(IC3-ISENSOR)*%
X181967200Y-105347900D03*
%TO.N,Net-(IC3-FORCE2)*%
X177879518Y-107437877D03*
%TO.N,Net-(IC3-BIAS)*%
X181961600Y-102609800D03*
%TO.N,/MAX31865AAP+3/FORCE+*%
X177730900Y-106651800D03*
%TO.N,/MAX31865AAP+3/CS3v*%
X131964700Y-98492600D03*
X174881600Y-103995000D03*
%TO.N,Net-(IC2-FORCE2)*%
X179914900Y-100285000D03*
%TO.N,/MAX31865AAP+2/FORCE+*%
X177920000Y-96009400D03*
%TO.N,Net-(IC2-BIAS)*%
X183556175Y-88998020D03*
%TO.N,/MAX31865AAP+2/CS3v*%
X177384300Y-89714200D03*
X122781200Y-95818200D03*
%TO.N,/MAX31865AAP+1/FORCE-*%
X174253000Y-81219000D03*
%TO.N,/MAX31865AAP+1/MISO3v*%
X174440600Y-93207100D03*
X178800600Y-83782000D03*
X175362700Y-101699700D03*
X118879000Y-100879900D03*
%TO.N,Net-(IC1-ISENSOR)*%
X180403600Y-78200600D03*
%TO.N,Net-(IC1-FORCE2)*%
X181451400Y-82409300D03*
%TO.N,/MAX31865AAP+1/CS3v*%
X125187000Y-95880900D03*
X144033000Y-89405800D03*
X143963900Y-85270500D03*
X177512300Y-79467100D03*
%TO.N,/MAX31865AAP+1/SLC3v*%
X138671900Y-110017700D03*
X175642500Y-108305600D03*
X178501400Y-82727400D03*
X178323300Y-93207100D03*
%TO.N,Net-(IC1-BIAS)*%
X179077800Y-76729700D03*
%TO.N,/MAX31865AAP+1/MOSI3v*%
X118195500Y-92633100D03*
X177171800Y-95261000D03*
X177932200Y-83619900D03*
X178039900Y-94426100D03*
X175231100Y-106016800D03*
%TO.N,/MAX31865AAP+3/RTDin-*%
X172361700Y-108135400D03*
%TO.N,/MAX31865AAP+2/RTDIn+*%
X179324300Y-97495000D03*
%TO.N,Net-(U3-~{RESET})*%
X143466100Y-83198500D03*
X137945500Y-82605000D03*
%TO.N,Net-(U3-OSC1)*%
X149904300Y-72875700D03*
X154891200Y-72875700D03*
%TO.N,Net-(U3-OSC2)*%
X148579000Y-66277400D03*
X154649400Y-77140900D03*
%TO.N,/BareMinAtmel328P/PD2-D2*%
X136821900Y-90445800D03*
X133875400Y-88479300D03*
X136496300Y-87251900D03*
%TO.N,/BareMinAtmel328P/PB1-D9*%
X143485200Y-67032600D03*
%TO.N,/BareMinAtmel328P/PD5-D5*%
X120426900Y-106292300D03*
%TO.N,/BareMinAtmel328P/PD3-D3*%
X123142700Y-96620000D03*
%TO.N,/BareMinAtmel328P/PD4-D4*%
X122763500Y-93460500D03*
%TO.N,+5V*%
X146805100Y-72802200D03*
X133911100Y-82406100D03*
X143871900Y-98265100D03*
%TO.N,/BareMinAtmel328P/RESET*%
X145624000Y-104883900D03*
%TO.N,GND*%
X169908000Y-69045400D03*
%TD*%
D37*
%TO.N,/MAX31865AAP+3/RTDIn+*%
X157354600Y-110206600D02*
X155407400Y-108259400D01*
X166572100Y-110206600D02*
X157354600Y-110206600D01*
%TO.N,Net-(IC2-ISENSOR)*%
X181658400Y-93865085D02*
X181658400Y-93949400D01*
X180010700Y-92217385D02*
X181658400Y-93865085D01*
X180010700Y-92143669D02*
X180010700Y-92217385D01*
%TO.N,/MAX31865AAP+3/RTDIn+*%
X169167123Y-114007803D02*
X169167123Y-112801623D01*
X169167123Y-112801623D02*
X166572100Y-110206600D01*
X174973330Y-109823299D02*
X174973330Y-113173840D01*
X174973330Y-113173840D02*
X172939367Y-115207803D01*
X176468749Y-108327880D02*
X174973330Y-109823299D01*
X177853391Y-108327880D02*
X176468749Y-108327880D01*
X172939367Y-115207803D02*
X170367123Y-115207803D01*
X170367123Y-115207803D02*
X169167123Y-114007803D01*
%TO.N,/MAX31865AAP+3/RTDin-*%
X172292123Y-112158977D02*
X172292123Y-114007803D01*
X174303100Y-110148000D02*
X172292123Y-112158977D01*
%TO.N,/MAX31865AAP+3/RTDIn+*%
X178846771Y-107334500D02*
X180511900Y-107334500D01*
X177853391Y-108327880D02*
X178846771Y-107334500D01*
%TO.N,Net-(IC3-FORCE2)*%
X177879518Y-107437877D02*
X178632895Y-106684500D01*
X178632895Y-106684500D02*
X180511900Y-106684500D01*
%TO.N,Net-(IC2-BIAS)*%
X183966800Y-92649400D02*
X182812600Y-92649400D01*
X183966800Y-89408645D02*
X183966800Y-92649400D01*
X183556175Y-88998020D02*
X183966800Y-89408645D01*
%TO.N,CLK*%
X116067100Y-97203000D02*
X117131300Y-97203000D01*
X117699300Y-97771000D02*
X117699300Y-103285900D01*
X117131300Y-97203000D02*
X117699300Y-97771000D01*
X116067100Y-97203000D02*
X115002900Y-97203000D01*
X114199500Y-96399600D02*
X115002900Y-97203000D01*
X114199500Y-87790400D02*
X114199500Y-96399600D01*
X114586900Y-87403000D02*
X114199500Y-87790400D01*
X116348300Y-87403000D02*
X114586900Y-87403000D01*
X116837800Y-86913500D02*
X116348300Y-87403000D01*
X116837800Y-85151500D02*
X116837800Y-86913500D01*
X115761300Y-84075000D02*
X116837800Y-85151500D01*
X114916900Y-84075000D02*
X115761300Y-84075000D01*
X114740200Y-83898300D02*
X114916900Y-84075000D01*
X114740200Y-80364900D02*
X114740200Y-83898300D01*
X115231800Y-79873300D02*
X114740200Y-80364900D01*
X118673400Y-79873300D02*
X115231800Y-79873300D01*
X123520800Y-75025900D02*
X118673400Y-79873300D01*
X135539300Y-75025900D02*
X123520800Y-75025900D01*
X136536000Y-74029200D02*
X135539300Y-75025900D01*
X136536000Y-72336300D02*
X136536000Y-74029200D01*
X136368700Y-72169000D02*
X136536000Y-72336300D01*
X142992800Y-71477000D02*
X144971100Y-73455300D01*
%TO.N,MISO*%
X114601200Y-95531300D02*
X115002900Y-95933000D01*
X114601200Y-88348400D02*
X114601200Y-95531300D01*
X114802100Y-88147500D02*
X114601200Y-88348400D01*
X116067100Y-95933000D02*
X115002900Y-95933000D01*
X144335800Y-68937000D02*
X144867500Y-68405300D01*
X142155100Y-68937000D02*
X144335800Y-68937000D01*
%TO.N,MOSI*%
X141520900Y-69572800D02*
X142155100Y-70207000D01*
X140841600Y-69572800D02*
X141520900Y-69572800D01*
X116067100Y-92123000D02*
X117131300Y-92123000D01*
X117131300Y-92364900D02*
X117131300Y-92123000D01*
X117342000Y-92575600D02*
X117131300Y-92364900D01*
X123445600Y-108898300D02*
X124782400Y-110235100D01*
X122154500Y-108898300D02*
X123445600Y-108898300D01*
X118538300Y-105282100D02*
X122154500Y-108898300D01*
X118538300Y-105199500D02*
X118538300Y-105282100D01*
X119480800Y-104257000D02*
X118538300Y-105199500D01*
X119480800Y-93007500D02*
X119480800Y-104257000D01*
X118496400Y-92023100D02*
X119480800Y-93007500D01*
X117894500Y-92023100D02*
X118496400Y-92023100D01*
X117342000Y-92575600D02*
X117894500Y-92023100D01*
X148549500Y-109701800D02*
X148549500Y-110803500D01*
X147641300Y-113599600D02*
X147641300Y-113599700D01*
X148767500Y-113599600D02*
X147641300Y-113599600D01*
X149662700Y-112704400D02*
X148767500Y-113599600D01*
X149662700Y-111729300D02*
X149662700Y-112704400D01*
X148736900Y-110803500D02*
X149662700Y-111729300D01*
X148549500Y-110803500D02*
X148736900Y-110803500D01*
%TO.N,Net-(IC3-ISENSOR)*%
X179357700Y-105384500D02*
X179357700Y-104734500D01*
X180511900Y-105384500D02*
X179357700Y-105384500D01*
X179934800Y-104734500D02*
X179357700Y-104734500D01*
X181666100Y-105046800D02*
X181967200Y-105347900D01*
X181666100Y-104734500D02*
X181666100Y-105046800D01*
X180511900Y-104734500D02*
X181666100Y-104734500D01*
%TO.N,Net-(IC3-BIAS)*%
X179357700Y-104084500D02*
X179357700Y-103434500D01*
X180511900Y-104084500D02*
X179357700Y-104084500D01*
X179934800Y-103434500D02*
X179357700Y-103434500D01*
X181666100Y-102905300D02*
X181961600Y-102609800D01*
X181666100Y-103434500D02*
X181666100Y-102905300D01*
X180511900Y-103434500D02*
X181666100Y-103434500D01*
%TO.N,/MAX31865AAP+3/FORCE-*%
X172290100Y-106684500D02*
X173515900Y-106684500D01*
X172050800Y-106923800D02*
X172290100Y-106684500D01*
X168369300Y-106923800D02*
X172050800Y-106923800D01*
X166572100Y-105126600D02*
X168369300Y-106923800D01*
%TO.N,/MAX31865AAP+3/FORCE+*%
X178348200Y-106034500D02*
X177730900Y-106651800D01*
X180511900Y-106034500D02*
X178348200Y-106034500D01*
%TO.N,/MAX31865AAP+3/CS3v*%
X173515900Y-104084500D02*
X174670100Y-104084500D01*
X125595100Y-92123000D02*
X131964700Y-98492600D01*
X121491100Y-92123000D02*
X125595100Y-92123000D01*
X174881600Y-103995100D02*
X174881600Y-103995000D01*
X174759500Y-103995100D02*
X174881600Y-103995100D01*
X174670100Y-104084500D02*
X174759500Y-103995100D01*
%TO.N,Net-(IC2-FORCE2)*%
X182812600Y-95899400D02*
X183966800Y-95899400D01*
X181118700Y-100285000D02*
X179914900Y-100285000D01*
X183966800Y-97436900D02*
X181118700Y-100285000D01*
X183966800Y-95899400D02*
X183966800Y-97436900D01*
%TO.N,/MAX31865AAP+2/FORCE-*%
X175816600Y-95899400D02*
X176970800Y-95899400D01*
X176839300Y-100121900D02*
X169777600Y-93060200D01*
X178167200Y-100121900D02*
X176839300Y-100121900D01*
X178492600Y-99796500D02*
X178167200Y-100121900D01*
X178492600Y-97485700D02*
X178492600Y-99796500D01*
X176970800Y-95963900D02*
X178492600Y-97485700D01*
X176970800Y-95899400D02*
X176970800Y-95963900D01*
%TO.N,/MAX31865AAP+2/FORCE+*%
X178680000Y-95249400D02*
X177920000Y-96009400D01*
X182812600Y-95249400D02*
X178680000Y-95249400D01*
%TO.N,Net-(IC2-BIAS)*%
X181658400Y-93299400D02*
X181658400Y-92649400D01*
X182812600Y-93299400D02*
X181658400Y-93299400D01*
X182235500Y-92649400D02*
X181658400Y-92649400D01*
%TO.N,Net-(IC2-ISENSOR)*%
X181658400Y-94599400D02*
X181658400Y-93949400D01*
X182812600Y-94599400D02*
X181658400Y-94599400D01*
X182235500Y-93949400D02*
X181658400Y-93949400D01*
%TO.N,/MAX31865AAP+2/CS3v*%
X121491100Y-94663000D02*
X122555300Y-94663000D01*
X175816600Y-93299400D02*
X176970800Y-93299400D01*
X177384300Y-92885900D02*
X177384300Y-89714200D01*
X176970800Y-93299400D02*
X177384300Y-92885900D01*
X122555300Y-95592300D02*
X122555300Y-94663000D01*
X122781200Y-95818200D02*
X122555300Y-95592300D01*
%TO.N,/MAX31865AAP+1/FORCE-*%
X174253000Y-81338000D02*
X174253000Y-81219000D01*
X175001100Y-82086100D02*
X174253000Y-81338000D01*
X176155300Y-82086100D02*
X175001100Y-82086100D01*
%TO.N,/MAX31865AAP+1/FORCE+*%
X162905100Y-80664400D02*
X164056800Y-80664400D01*
X181542000Y-81436100D02*
X183151300Y-81436100D01*
X166870300Y-83477900D02*
X169740800Y-83477900D01*
X164056800Y-80664400D02*
X166870300Y-83477900D01*
X180817900Y-82160200D02*
X181542000Y-81436100D01*
X180817900Y-82615600D02*
X180817900Y-82160200D01*
X179024100Y-84409400D02*
X180817900Y-82615600D01*
X179024100Y-85088300D02*
X179024100Y-84409400D01*
X177858700Y-86253700D02*
X179024100Y-85088300D01*
X172767800Y-86253700D02*
X177858700Y-86253700D01*
X169992000Y-83477900D02*
X172767800Y-86253700D01*
%TO.N,/MAX31865AAP+1/MISO3v*%
X175816600Y-92649400D02*
X174662400Y-92649400D01*
X176155300Y-78836100D02*
X177740700Y-78836100D01*
X175362700Y-102445900D02*
X175362700Y-101699700D01*
X174374100Y-103434500D02*
X175362700Y-102445900D01*
X173515900Y-103434500D02*
X174374100Y-103434500D01*
X174662400Y-92985300D02*
X174440600Y-93207100D01*
X174662400Y-92649400D02*
X174662400Y-92985300D01*
X179103100Y-80198500D02*
X177740700Y-78836100D01*
X179103100Y-83479500D02*
X179103100Y-80198500D01*
X178800600Y-83782000D02*
X179103100Y-83479500D01*
X116067100Y-94663000D02*
X117131300Y-94663000D01*
X118879000Y-96410700D02*
X118879000Y-100879900D01*
X117131300Y-94663000D02*
X118879000Y-96410700D01*
%TO.N,Net-(IC1-ISENSOR)*%
X181997100Y-80786100D02*
X181997100Y-80136100D01*
X183151300Y-80786100D02*
X181997100Y-80786100D01*
X183151300Y-80136100D02*
X182098000Y-80136100D01*
X182098000Y-80136100D02*
X181998600Y-80136100D01*
X181998600Y-80136100D02*
X181997100Y-80136100D01*
X180403600Y-78542600D02*
X180403600Y-78200600D01*
X181997100Y-80136100D02*
X180403600Y-78542600D01*
%TO.N,Net-(IC1-FORCE2)*%
X183151300Y-82086100D02*
X181997100Y-82086100D01*
X181673900Y-82409300D02*
X181997100Y-82086100D01*
X181451400Y-82409300D02*
X181673900Y-82409300D01*
%TO.N,/MAX31865AAP+1/CS3v*%
X122594900Y-98473000D02*
X125187000Y-95880900D01*
X121491100Y-98473000D02*
X122594900Y-98473000D01*
X143482100Y-85752300D02*
X143963900Y-85270500D01*
X143482100Y-88854900D02*
X143482100Y-85752300D01*
X144033000Y-89405800D02*
X143482100Y-88854900D01*
X176155300Y-79486100D02*
X177309500Y-79486100D01*
X177493300Y-79486100D02*
X177512300Y-79467100D01*
X177309500Y-79486100D02*
X177493300Y-79486100D01*
%TO.N,/MAX31865AAP+1/SLC3v*%
X173515900Y-104734500D02*
X174799700Y-104734500D01*
X116067100Y-98473000D02*
X117131300Y-98473000D01*
X176155300Y-80136100D02*
X177309500Y-80136100D01*
X178501400Y-81328000D02*
X177309500Y-80136100D01*
X178501400Y-82727400D02*
X178501400Y-81328000D01*
X177581000Y-93949400D02*
X175816600Y-93949400D01*
X178323300Y-93207100D02*
X177581000Y-93949400D01*
X175832800Y-105767600D02*
X174799700Y-104734500D01*
X175832800Y-108115300D02*
X175832800Y-105767600D01*
X175642500Y-108305600D02*
X175832800Y-108115300D01*
X137810200Y-110879400D02*
X138671900Y-110017700D01*
X123567600Y-110879400D02*
X137810200Y-110879400D01*
X117049900Y-104361700D02*
X123567600Y-110879400D01*
X117049900Y-102940300D02*
X117049900Y-104361700D01*
X117131300Y-102858900D02*
X117049900Y-102940300D01*
X117131300Y-98473000D02*
X117131300Y-102858900D01*
%TO.N,Net-(IC1-BIAS)*%
X181997100Y-79486100D02*
X181997100Y-78836100D01*
X183151300Y-79486100D02*
X181997100Y-79486100D01*
X183151300Y-78836100D02*
X182098000Y-78836100D01*
X181998600Y-78836100D02*
X181997100Y-78836100D01*
X182098000Y-78836100D02*
X181998600Y-78836100D01*
X179892200Y-76729700D02*
X179077800Y-76729700D01*
X181998600Y-78836100D02*
X179892200Y-76729700D01*
%TO.N,/MAX31865AAP+1/MOSI3v*%
X175816600Y-94599400D02*
X176970800Y-94599400D01*
X177805500Y-83493200D02*
X177932200Y-83619900D01*
X177805500Y-81282100D02*
X177805500Y-83493200D01*
X177309500Y-80786100D02*
X177805500Y-81282100D01*
X176155300Y-80786100D02*
X177309500Y-80786100D01*
X174670100Y-105455800D02*
X174670100Y-105384500D01*
X175231100Y-106016800D02*
X174670100Y-105455800D01*
X173515900Y-105384500D02*
X174670100Y-105384500D01*
X176970800Y-94599400D02*
X177402100Y-95030700D01*
X177171800Y-95261000D02*
X177402100Y-95030700D01*
X178006700Y-94426100D02*
X178039900Y-94426100D01*
X177402100Y-95030700D02*
X178006700Y-94426100D01*
X117435600Y-93393000D02*
X118195500Y-92633100D01*
X116067100Y-93393000D02*
X117435600Y-93393000D01*
%TO.N,+3.3V*%
X115966900Y-78723300D02*
X114740200Y-78723300D01*
X116067100Y-99743000D02*
X115002900Y-99743000D01*
X114338500Y-84546400D02*
X115849700Y-86057600D01*
X114338500Y-79125000D02*
X114338500Y-84546400D01*
X114740200Y-78723300D02*
X114338500Y-79125000D01*
X113797800Y-98537900D02*
X115002900Y-99743000D01*
X113797800Y-87612500D02*
X113797800Y-98537900D01*
X115352700Y-86057600D02*
X113797800Y-87612500D01*
%TO.N,/MAX31865AAP+3/RTDin-*%
X172361700Y-107334500D02*
X172361700Y-108135400D01*
X172938800Y-107334500D02*
X172361700Y-107334500D01*
X174303100Y-108698800D02*
X174303100Y-110148000D01*
X172938800Y-107334500D02*
X174303100Y-108698800D01*
%TO.N,/MAX31865AAP+3/3.3V*%
X180511900Y-102784500D02*
X179357700Y-102784500D01*
X180511900Y-102134500D02*
X179458600Y-102134500D01*
X179458600Y-102134500D02*
X179359200Y-102134500D01*
X179359200Y-102134500D02*
X179357700Y-102134500D01*
X169251600Y-102830600D02*
X169251600Y-101667700D01*
X169251600Y-101667700D02*
X167447900Y-99864000D01*
X179357700Y-102784500D02*
X179357700Y-102134500D01*
X169961500Y-100957800D02*
X169251600Y-101667700D01*
X178181000Y-100957800D02*
X169961500Y-100957800D01*
X179357700Y-102134500D02*
X178181000Y-100957800D01*
%TO.N,/MAX31865AAP+3/GND*%
X172361700Y-102134500D02*
X172361700Y-102784500D01*
X173515900Y-102134500D02*
X172361700Y-102134500D01*
X173515900Y-102784500D02*
X172462600Y-102784500D01*
X172363200Y-102784500D02*
X172361700Y-102784500D01*
X172462600Y-102784500D02*
X172363200Y-102784500D01*
X173515900Y-106034500D02*
X172361700Y-106034500D01*
X172361700Y-106034500D02*
X172361700Y-105955600D01*
X172361700Y-105955600D02*
X172361700Y-102784500D01*
X172361700Y-105955600D02*
X169251600Y-105955600D01*
X165563100Y-101104200D02*
X164322900Y-99864000D01*
X167088200Y-101104200D02*
X165563100Y-101104200D01*
X168011300Y-102027300D02*
X167088200Y-101104200D01*
X168011300Y-104715300D02*
X168011300Y-102027300D01*
X169251600Y-105955600D02*
X168011300Y-104715300D01*
X164322900Y-104633800D02*
X164322900Y-99864000D01*
X161335300Y-107621400D02*
X164322900Y-104633800D01*
X161047400Y-107621400D02*
X161335300Y-107621400D01*
X161047400Y-108773100D02*
X161047400Y-107621400D01*
%TO.N,/MAX31865AAP+2/RTDin-*%
X156687400Y-96704500D02*
X157839100Y-96704500D01*
X177518600Y-97097200D02*
X176970800Y-96549400D01*
X177518600Y-98878600D02*
X177518600Y-97097200D01*
X175816600Y-96549400D02*
X176970800Y-96549400D01*
X175816600Y-96549400D02*
X174662400Y-96549400D01*
X173795500Y-95682500D02*
X174662400Y-96549400D01*
X173795500Y-94136700D02*
X173795500Y-95682500D01*
X169777600Y-90118800D02*
X173795500Y-94136700D01*
X168350200Y-91546200D02*
X169777600Y-90118800D01*
X168350200Y-93788500D02*
X168350200Y-91546200D01*
X163974100Y-98164600D02*
X168350200Y-93788500D01*
X159299200Y-98164600D02*
X163974100Y-98164600D01*
X157839100Y-96704500D02*
X159299200Y-98164600D01*
%TO.N,/MAX31865AAP+2/RTDIn+*%
X182812600Y-96549400D02*
X181658400Y-96549400D01*
X181658400Y-96549400D02*
X180343300Y-97864500D01*
X180343300Y-97864500D02*
X180343300Y-98578300D01*
X179973800Y-97495000D02*
X179324300Y-97495000D01*
X180343300Y-97864500D02*
X179973800Y-97495000D01*
%TO.N,/MAX31865AAP+2/GND*%
X175444200Y-91349400D02*
X174662400Y-91349400D01*
X163522200Y-96984000D02*
X163522200Y-95832300D01*
X175239500Y-91999400D02*
X174662400Y-91999400D01*
X174662400Y-91999400D02*
X174662400Y-91349400D01*
X175816600Y-91999400D02*
X176970800Y-91999400D01*
X176970800Y-90215500D02*
X176970800Y-91999400D01*
X176781600Y-90026300D02*
X176970800Y-90215500D01*
X176781600Y-88698100D02*
X176781600Y-90026300D01*
X175816600Y-95249400D02*
X174662400Y-95249400D01*
X163868900Y-95832300D02*
X166999500Y-92701700D01*
X163522200Y-95832300D02*
X163868900Y-95832300D01*
X174289300Y-92372500D02*
X174662400Y-91999400D01*
X174019200Y-92372500D02*
X174289300Y-92372500D01*
X173825900Y-92565800D02*
X174019200Y-92372500D01*
X173825900Y-93521900D02*
X173825900Y-92565800D01*
X174662400Y-94358400D02*
X173825900Y-93521900D01*
X174662400Y-95249400D02*
X174662400Y-94358400D01*
X166999500Y-91676400D02*
X166999500Y-92571100D01*
X168266100Y-90409800D02*
X166999500Y-91676400D01*
X168266100Y-89648000D02*
X168266100Y-90409800D01*
X169197000Y-88717100D02*
X168266100Y-89648000D01*
X170363800Y-88717100D02*
X169197000Y-88717100D01*
X174019200Y-92372500D02*
X170363800Y-88717100D01*
%TO.N,/MAX31865AAP+2/3.3V*%
X181658400Y-91999400D02*
X181658400Y-91349400D01*
X182812600Y-91999400D02*
X181658400Y-91999400D01*
X182812600Y-91349400D02*
X181759300Y-91349400D01*
X181659900Y-91349400D02*
X181658400Y-91349400D01*
X181759300Y-91349400D02*
X181659900Y-91349400D01*
X180344900Y-90034400D02*
X180344900Y-88259800D01*
X181659900Y-91349400D02*
X180344900Y-90034400D01*
X168426800Y-88018800D02*
X166999500Y-89446100D01*
X175617000Y-88018800D02*
X168426800Y-88018800D01*
X175617000Y-88018700D02*
X175617000Y-88018800D01*
X176578600Y-87057100D02*
X175617000Y-88018700D01*
X179142200Y-87057100D02*
X176578600Y-87057100D01*
X180344900Y-88259800D02*
X179142200Y-87057100D01*
%TO.N,/MAX31865AAP+1/RTDin-*%
X174079000Y-82736100D02*
X176155300Y-82736100D01*
X169740800Y-78397900D02*
X174079000Y-82736100D01*
X176155300Y-82736100D02*
X177309500Y-82736100D01*
X177309500Y-82736100D02*
X177309500Y-84919100D01*
%TO.N,Net-(U4-Rs)*%
X162168200Y-74029900D02*
X163881700Y-75743400D01*
X162168200Y-68681900D02*
X162168200Y-74029900D01*
X163081100Y-67769000D02*
X162168200Y-68681900D01*
%TO.N,Net-(U3-~{RESET})*%
X137945500Y-70124500D02*
X141673000Y-66397000D01*
X137945500Y-82605000D02*
X137945500Y-70124500D01*
X143531400Y-83133200D02*
X143466100Y-83198500D01*
X145575300Y-83133200D02*
X143531400Y-83133200D01*
X145886400Y-83444300D02*
X145575300Y-83133200D01*
X145886400Y-86013400D02*
X145886400Y-83444300D01*
X144703000Y-87196800D02*
X145886400Y-86013400D01*
%TO.N,Net-(J5-Pin_2)*%
X141442200Y-60586800D02*
X141589600Y-60586800D01*
X139116100Y-58260700D02*
X141442200Y-60586800D01*
X141589600Y-61738500D02*
X141589600Y-60586800D01*
%TO.N,Net-(U3-OSC1)*%
X156256500Y-74241000D02*
X154891200Y-72875700D01*
X156256500Y-76531100D02*
X156256500Y-74241000D01*
X152907500Y-79880100D02*
X156256500Y-76531100D01*
X152907500Y-99358700D02*
X152907500Y-79880100D01*
X154077400Y-100528600D02*
X152907500Y-99358700D01*
X154077400Y-112985700D02*
X154077400Y-100528600D01*
X156482900Y-115391200D02*
X154077400Y-112985700D01*
X151045600Y-74017000D02*
X149904300Y-72875700D01*
%TO.N,Net-(U3-OSC2)*%
X148579000Y-70298000D02*
X148579000Y-66277400D01*
X151028000Y-72747000D02*
X148579000Y-70298000D01*
X157239000Y-119515100D02*
X151743500Y-119515100D01*
X161362900Y-115391200D02*
X157239000Y-119515100D01*
X151715700Y-80074600D02*
X154649400Y-77140900D01*
X151715700Y-119487300D02*
X151715700Y-80074600D01*
%TO.N,Net-(U2-XTAL2{slash}PB7)*%
X140929500Y-104621800D02*
X140929500Y-105723500D01*
X141058400Y-105723500D02*
X140929500Y-105723500D01*
X142055800Y-106720900D02*
X141058400Y-105723500D01*
X142055800Y-107652500D02*
X142055800Y-106720900D01*
X141276500Y-108431800D02*
X142055800Y-107652500D01*
X140553200Y-108431800D02*
X141276500Y-108431800D01*
X139273600Y-109711400D02*
X140553200Y-108431800D01*
X139273600Y-110266900D02*
X139273600Y-109711400D01*
X137154600Y-112385900D02*
X139273600Y-110266900D01*
X137154600Y-117553100D02*
X137154600Y-112385900D01*
X135362400Y-119345300D02*
X137154600Y-117553100D01*
%TO.N,Net-(U2-XTAL1{slash}PB6)*%
X140929500Y-102081800D02*
X140929500Y-103183500D01*
X145046300Y-118038200D02*
X142502500Y-118038200D01*
X141428400Y-118038200D02*
X140121300Y-119345300D01*
X142502500Y-118038200D02*
X141428400Y-118038200D01*
X142502500Y-104530200D02*
X142502500Y-118038200D01*
X141155800Y-103183500D02*
X142502500Y-104530200D01*
X140929500Y-103183500D02*
X141155800Y-103183500D01*
%TO.N,Net-(J3-Pin_6)*%
X134067300Y-124094700D02*
X134067300Y-122943000D01*
X138717100Y-118293200D02*
X134067300Y-122943000D01*
X138717100Y-117199700D02*
X138717100Y-118293200D01*
%TO.N,/CANBUS-MCP2515/TXtoCANTC*%
X154639200Y-61942900D02*
X151455100Y-65127000D01*
X162603700Y-61942900D02*
X154639200Y-61942900D01*
X168429800Y-67769000D02*
X162603700Y-61942900D01*
%TO.N,/CANBUS-MCP2515/RXtoCANTC*%
X152770700Y-66397000D02*
X151455100Y-66397000D01*
X156323500Y-62844200D02*
X152770700Y-66397000D01*
X161345000Y-62844200D02*
X156323500Y-62844200D01*
X166180900Y-67680100D02*
X161345000Y-62844200D01*
X166180900Y-69691400D02*
X166180900Y-67680100D01*
X168068500Y-71579000D02*
X166180900Y-69691400D01*
%TO.N,/BareMinAtmel328P/PD2-D2*%
X133875400Y-88871200D02*
X133875400Y-88479300D01*
X135450000Y-90445800D02*
X133875400Y-88871200D01*
X136821900Y-90445800D02*
X135450000Y-90445800D01*
X138547200Y-75899000D02*
X141699200Y-72747000D01*
X138547200Y-85201000D02*
X138547200Y-75899000D01*
X136496300Y-87251900D02*
X138547200Y-85201000D01*
%TO.N,/BareMinAtmel328P/PB1-D9*%
X142850800Y-67667000D02*
X143485200Y-67032600D01*
%TO.N,/BareMinAtmel328P/AREF*%
X147415000Y-99509000D02*
X147447800Y-99541800D01*
X144995600Y-99509000D02*
X147415000Y-99509000D01*
X148549500Y-99541800D02*
X147447800Y-99541800D01*
D38*
%TO.N,Net-(Q1-Pad1)*%
X132776100Y-82541100D02*
X131364000Y-81129300D01*
D37*
X132776100Y-82541100D02*
X131364300Y-81129300D01*
D38*
X134659000Y-84423600D02*
X132776100Y-82541100D01*
X136586000Y-84423600D02*
X134659000Y-84423600D01*
D37*
%TO.N,/BareMinAtmel328P/PC0-A0*%
X135973000Y-92248700D02*
X135973000Y-94802100D01*
%TO.N,/BareMinAtmel328P/PD5-D5*%
X121491100Y-90853000D02*
X120426900Y-90853000D01*
X120426900Y-90853000D02*
X120426900Y-106292300D01*
%TO.N,/BareMinAtmel328P/PD3-D3*%
X121491100Y-97203000D02*
X122555300Y-97203000D01*
X122559700Y-97203000D02*
X123142700Y-96620000D01*
X122555300Y-97203000D02*
X122559700Y-97203000D01*
%TO.N,/BareMinAtmel328P/PD4-D4*%
X121491100Y-93393000D02*
X122555300Y-93393000D01*
X122622800Y-93460500D02*
X122763500Y-93460500D01*
X122555300Y-93393000D02*
X122622800Y-93460500D01*
%TO.N,+VDC*%
X125079500Y-70018000D02*
X125079500Y-73418000D01*
%TO.N,/BareMinAtmel328P/PD1-TX*%
X140929500Y-86841800D02*
X140929500Y-87943500D01*
X136607300Y-124094700D02*
X137759000Y-124094700D01*
X137759000Y-123826200D02*
X137759000Y-124094700D01*
X142386200Y-119199000D02*
X137759000Y-123826200D01*
X145736500Y-119199000D02*
X142386200Y-119199000D01*
X146278300Y-118657200D02*
X145736500Y-119199000D01*
X146278300Y-114311300D02*
X146278300Y-118657200D01*
X146236200Y-114269200D02*
X146278300Y-114311300D01*
X146236200Y-107695900D02*
X146236200Y-114269200D01*
X142326500Y-103786200D02*
X146236200Y-107695900D01*
X142326500Y-102751600D02*
X142326500Y-103786200D01*
X142466800Y-102611300D02*
X142326500Y-102751600D01*
X142466800Y-97417900D02*
X142466800Y-102611300D01*
X142066400Y-97017500D02*
X142466800Y-97417900D01*
X142066400Y-94013200D02*
X142066400Y-97017500D01*
X141384900Y-93331700D02*
X142066400Y-94013200D01*
X140740300Y-93331700D02*
X141384900Y-93331700D01*
X139800800Y-92392200D02*
X140740300Y-93331700D01*
X139800800Y-88934500D02*
X139800800Y-92392200D01*
X140791800Y-87943500D02*
X139800800Y-88934500D01*
X140929500Y-87943500D02*
X140791800Y-87943500D01*
%TO.N,/BareMinAtmel328P/PD0-RX*%
X139147300Y-124094700D02*
X140299000Y-124094700D01*
X140929500Y-84301800D02*
X140929500Y-85403500D01*
X140299000Y-123452800D02*
X140299000Y-124094700D01*
X144151100Y-119600700D02*
X140299000Y-123452800D01*
X145902800Y-119600700D02*
X144151100Y-119600700D01*
X146680000Y-118823500D02*
X145902800Y-119600700D01*
X146680000Y-114145000D02*
X146680000Y-118823500D01*
X146637900Y-114102900D02*
X146680000Y-114145000D01*
X146637900Y-106780200D02*
X146637900Y-114102900D01*
X142868500Y-103010800D02*
X146637900Y-106780200D01*
X142868500Y-97849700D02*
X142868500Y-103010800D01*
X142869600Y-97848600D02*
X142868500Y-97849700D01*
X142869600Y-96769700D02*
X142869600Y-97848600D01*
X142469400Y-96369500D02*
X142869600Y-96769700D01*
X142469400Y-89735500D02*
X142469400Y-96369500D01*
X142277000Y-89543100D02*
X142469400Y-89735500D01*
X142277000Y-86591800D02*
X142277000Y-89543100D01*
X141088700Y-85403500D02*
X142277000Y-86591800D01*
X140929500Y-85403500D02*
X141088700Y-85403500D01*
%TO.N,/MAX31865AAP+1/RTDIn+*%
X183151300Y-82736100D02*
X181997100Y-82736100D01*
X181997100Y-82736100D02*
X180329100Y-84404100D01*
X171780000Y-86655400D02*
X171142500Y-86017900D01*
X178698200Y-86655400D02*
X171780000Y-86655400D01*
X180329100Y-85024500D02*
X178698200Y-86655400D01*
X169942900Y-86017900D02*
X171142500Y-86017900D01*
X162241000Y-86946300D02*
X156967100Y-81672400D01*
X167410700Y-86946300D02*
X162241000Y-86946300D01*
X168339100Y-86017900D02*
X167410700Y-86946300D01*
X169740800Y-86017900D02*
X168339100Y-86017900D01*
X156967100Y-80520700D02*
X156967100Y-81672400D01*
%TO.N,/MAX31865AAP+1/GND*%
X175001100Y-77536100D02*
X175001100Y-78186100D01*
X176155300Y-78186100D02*
X175102000Y-78186100D01*
X175002600Y-78186100D02*
X175001100Y-78186100D01*
X175102000Y-78186100D02*
X175002600Y-78186100D01*
X175001100Y-81436100D02*
X175001100Y-78186100D01*
X176155300Y-81436100D02*
X175001100Y-81436100D01*
X176155300Y-77536100D02*
X175102000Y-77536100D01*
X175102000Y-77536100D02*
X175002600Y-77536100D01*
X175002600Y-77536100D02*
X175001100Y-77536100D01*
X175002600Y-77536100D02*
X171315200Y-73848700D01*
X162905100Y-85744400D02*
X162905100Y-84592700D01*
X168901200Y-73848700D02*
X170870300Y-73848700D01*
X168679900Y-73627400D02*
X168901200Y-73848700D01*
X167153400Y-73627400D02*
X168679900Y-73627400D01*
X162636600Y-84592700D02*
X162905100Y-84592700D01*
X161748500Y-83704600D02*
X162636600Y-84592700D01*
X161748500Y-79624500D02*
X161748500Y-83704600D01*
X161981800Y-79391200D02*
X161748500Y-79624500D01*
X166391700Y-79391200D02*
X161981800Y-79391200D01*
X168901200Y-76881700D02*
X166391700Y-79391200D01*
X168901200Y-73848700D02*
X168901200Y-76881700D01*
%TO.N,/MAX31865AAP+1/3.3V*%
X181997100Y-78186100D02*
X181997100Y-77536100D01*
X183151300Y-78186100D02*
X181997100Y-78186100D01*
X181997100Y-77536100D02*
X183151300Y-77536100D01*
X176060700Y-75914100D02*
X173995300Y-73848700D01*
X180375100Y-75914100D02*
X176060700Y-75914100D01*
X181997100Y-77536100D02*
X180375100Y-75914100D01*
X172786600Y-72640000D02*
X173995300Y-73848700D01*
X166280300Y-72640000D02*
X172786600Y-72640000D01*
X165899600Y-73020700D02*
X166280300Y-72640000D01*
X165899600Y-75498600D02*
X165899600Y-73020700D01*
X167153400Y-76752400D02*
X165899600Y-75498600D01*
%TO.N,CANBUS_H*%
X157281400Y-75173600D02*
X157281400Y-74596900D01*
X157148000Y-66792800D02*
X158561400Y-68206200D01*
X158561400Y-73316900D02*
X157281400Y-74596900D01*
X158561400Y-68206200D02*
X158561400Y-73316900D01*
X164762800Y-68162400D02*
X163886200Y-69039000D01*
X164762800Y-67411600D02*
X164762800Y-68162400D01*
X164473400Y-67122200D02*
X164762800Y-67411600D01*
X159645400Y-67122200D02*
X164473400Y-67122200D01*
X158561400Y-68206200D02*
X159645400Y-67122200D01*
%TO.N,CANBUS_L*%
X157281400Y-76473600D02*
X158083100Y-76473600D01*
X165173300Y-68995400D02*
X163859700Y-70309000D01*
X165173300Y-67254100D02*
X165173300Y-68995400D01*
X162172000Y-64252800D02*
X165173300Y-67254100D01*
X157148000Y-64252800D02*
X162172000Y-64252800D01*
X158474000Y-76864500D02*
X158083100Y-76473600D01*
X164323500Y-76864500D02*
X158474000Y-76864500D01*
X165012800Y-76175200D02*
X164323500Y-76864500D01*
X165012800Y-71462100D02*
X165012800Y-76175200D01*
X163859700Y-70309000D02*
X165012800Y-71462100D01*
%TO.N,+5V*%
X148549500Y-102081800D02*
X147447800Y-102081800D01*
X130976300Y-90062600D02*
X130976300Y-91214300D01*
X135965600Y-97349500D02*
X135965600Y-96247800D01*
X119631400Y-90062600D02*
X130976300Y-90062600D01*
X142790100Y-65762000D02*
X142155100Y-65127000D01*
X146805100Y-65762000D02*
X142790100Y-65762000D01*
X137705500Y-108489300D02*
X137705500Y-103901700D01*
X135854200Y-110340600D02*
X137705500Y-108489300D01*
X132524700Y-110340600D02*
X135854200Y-110340600D01*
X137705500Y-101435500D02*
X137705500Y-103901700D01*
X138329200Y-100811800D02*
X137705500Y-101435500D01*
X141267000Y-100811800D02*
X138329200Y-100811800D01*
X142065100Y-100013700D02*
X141267000Y-100811800D01*
X142065100Y-98137400D02*
X142065100Y-100013700D01*
X140929500Y-97001800D02*
X142065100Y-98137400D01*
X143773000Y-98265100D02*
X143871900Y-98265100D01*
X143773000Y-101386400D02*
X144995600Y-102609000D01*
X143773000Y-98265100D02*
X143773000Y-101386400D01*
X115966900Y-83323300D02*
X117193600Y-83323300D01*
X147447800Y-102081800D02*
X146920600Y-102609000D01*
X146920600Y-102609000D02*
X144995600Y-102609000D01*
X117239500Y-83369200D02*
X117193600Y-83323300D01*
X117239500Y-87079800D02*
X117239500Y-83369200D01*
X115002900Y-89316400D02*
X117239500Y-87079800D01*
X115002900Y-91303000D02*
X115002900Y-89316400D01*
X115179600Y-91479700D02*
X115002900Y-91303000D01*
X118214300Y-91479700D02*
X115179600Y-91479700D01*
X119631400Y-90062600D02*
X118214300Y-91479700D01*
X131745900Y-91214300D02*
X130976300Y-91214300D01*
X132207500Y-91675900D02*
X131745900Y-91214300D01*
X132207500Y-92675600D02*
X132207500Y-91675900D01*
X135779700Y-96247800D02*
X132207500Y-92675600D01*
X135965600Y-96247800D02*
X135779700Y-96247800D01*
X133911100Y-77830000D02*
X133911100Y-82406100D01*
X136973800Y-74767300D02*
X133911100Y-77830000D01*
X136973800Y-69876700D02*
X136973800Y-74767300D01*
X141723500Y-65127000D02*
X136973800Y-69876700D01*
X143773000Y-89996600D02*
X143773000Y-98265100D01*
X143431300Y-89654900D02*
X143773000Y-89996600D01*
X143431300Y-89561400D02*
X143431300Y-89654900D01*
X143080400Y-89210500D02*
X143431300Y-89561400D01*
X143080400Y-85303200D02*
X143080400Y-89210500D01*
X144286800Y-84096800D02*
X143080400Y-85303200D01*
X141687300Y-122676700D02*
X141687300Y-124094700D01*
X144361600Y-120002400D02*
X141687300Y-122676700D01*
X146069100Y-120002400D02*
X144361600Y-120002400D01*
X147081700Y-118989800D02*
X146069100Y-120002400D01*
X147081700Y-113978700D02*
X147081700Y-118989800D01*
X147039600Y-113936600D02*
X147081700Y-113978700D01*
X147039600Y-102728000D02*
X147039600Y-113936600D01*
X146920600Y-102609000D02*
X147039600Y-102728000D01*
X146805100Y-65762000D02*
X146805100Y-72802200D01*
X146891400Y-65675700D02*
X146805100Y-65762000D01*
X148828200Y-65675700D02*
X146891400Y-65675700D01*
X148914500Y-65762000D02*
X148828200Y-65675700D01*
X152611300Y-65762000D02*
X148914500Y-65762000D01*
X155960900Y-62412400D02*
X152611300Y-65762000D01*
X161554000Y-62412400D02*
X155960900Y-62412400D01*
X166582600Y-67441000D02*
X161554000Y-62412400D01*
X166582600Y-68912200D02*
X166582600Y-67441000D01*
X167979400Y-70309000D02*
X166582600Y-68912200D01*
%TO.N,/BareMinAtmel328P/RESET*%
X133593400Y-113012300D02*
X134333600Y-113752500D01*
X132096400Y-113012300D02*
X133593400Y-113012300D01*
X135385300Y-113752500D02*
X134333600Y-113752500D01*
X135385300Y-113752500D02*
X135385300Y-116992900D01*
X140929500Y-81761800D02*
X140929500Y-82863500D01*
X145461000Y-104883900D02*
X145624000Y-104883900D01*
X143270200Y-102693100D02*
X145461000Y-104883900D01*
X143270200Y-98016000D02*
X143270200Y-102693100D01*
X143271300Y-98014900D02*
X143270200Y-98016000D01*
X143271300Y-96603400D02*
X143271300Y-98014900D01*
X142871100Y-96203200D02*
X143271300Y-96603400D01*
X142871100Y-89569200D02*
X142871100Y-96203200D01*
X142678700Y-89376800D02*
X142871100Y-89569200D01*
X142678700Y-84475000D02*
X142678700Y-89376800D01*
X141067200Y-82863500D02*
X142678700Y-84475000D01*
X140929500Y-82863500D02*
X141067200Y-82863500D01*
D38*
%TO.N,GND*%
X154656000Y-75823600D02*
X155381000Y-75823600D01*
X151804000Y-78675400D02*
X154656000Y-75823600D01*
X134347000Y-87522600D02*
X135973000Y-89148700D01*
X130976300Y-87522600D02*
X134347000Y-87522600D01*
X128264000Y-84810600D02*
X130976000Y-87522600D01*
X128264000Y-82969900D02*
X128264000Y-84810600D01*
D37*
X128264300Y-82969600D02*
X128264300Y-81129300D01*
X128264000Y-82969900D02*
X128264300Y-82969600D01*
X122107300Y-82925000D02*
X118974700Y-86057600D01*
X122166900Y-82925000D02*
X122107300Y-82925000D01*
X115966900Y-81023300D02*
X117193600Y-81023300D01*
X116067100Y-90853000D02*
X117131300Y-90853000D01*
X117131300Y-87901000D02*
X117131300Y-90853000D01*
X118974700Y-86057600D02*
X117131300Y-87901000D01*
X151455100Y-76773000D02*
X152580700Y-77898600D01*
X151455100Y-75287000D02*
X151455100Y-76773000D01*
D38*
X153644000Y-76835200D02*
X152580700Y-77898600D01*
X153644000Y-71280800D02*
X153644000Y-76835200D01*
X155592000Y-69332800D02*
X153644000Y-71280800D01*
X157148000Y-69332800D02*
X155592000Y-69332800D01*
X152580700Y-77898600D02*
X151804000Y-78675400D01*
X128264000Y-81129300D02*
X128264000Y-82969900D01*
D37*
X145249400Y-121366300D02*
X146767300Y-121366300D01*
X146767300Y-121366300D02*
X146767300Y-124094700D01*
D38*
X150152000Y-80328000D02*
X151804000Y-78675400D01*
X139871000Y-80328000D02*
X150152000Y-80328000D01*
X139548000Y-80650800D02*
X139871000Y-80328000D01*
X139548000Y-85573200D02*
X139548000Y-80650800D01*
X136117900Y-89003800D02*
X139548000Y-85573200D01*
D37*
X140929500Y-99541800D02*
X140929500Y-98440100D01*
X139254700Y-98440100D02*
X138411600Y-97597000D01*
X140929500Y-98440100D02*
X139254700Y-98440100D01*
X138411600Y-97597000D02*
X134576800Y-101431800D01*
X146767300Y-121366300D02*
X148618500Y-119515100D01*
X148549500Y-97001800D02*
X148549500Y-98103500D01*
X134580500Y-101435500D02*
X134580500Y-103901700D01*
X134580500Y-108447700D02*
X135385300Y-109252500D01*
X134580500Y-103901700D02*
X134580500Y-108447700D01*
X122166900Y-81974100D02*
X122166900Y-82925000D01*
X127268200Y-81974100D02*
X128264000Y-82969900D01*
X122166900Y-81974100D02*
X127268200Y-81974100D01*
X118974700Y-82804400D02*
X117193600Y-81023300D01*
X118974700Y-86057600D02*
X118974700Y-82804400D01*
X148777800Y-98103500D02*
X148549500Y-98103500D01*
X150064400Y-99390100D02*
X148777800Y-98103500D01*
X150064400Y-118069200D02*
X150064400Y-99390100D01*
X148618500Y-119515100D02*
X150064400Y-118069200D01*
X136958200Y-89844100D02*
X136117900Y-89003800D01*
X137113100Y-89844100D02*
X136958200Y-89844100D01*
X137465600Y-90196600D02*
X137113100Y-89844100D01*
X137465600Y-90351500D02*
X137465600Y-90196600D01*
X137495400Y-90381300D02*
X137465600Y-90351500D01*
X137495400Y-90949200D02*
X137495400Y-90381300D01*
X138410100Y-91863900D02*
X137495400Y-90949200D01*
X138410100Y-93188300D02*
X138410100Y-91863900D01*
X138411600Y-93189800D02*
X138410100Y-93188300D01*
X138411600Y-97597000D02*
X138411600Y-93189800D01*
X169901600Y-69039000D02*
X169908000Y-69045400D01*
X168429800Y-69039000D02*
X169901600Y-69039000D01*
%TD*%
M02*
