%TF.GenerationSoftware,KiCad,Pcbnew,8.0.1-rc1*%
%TF.CreationDate,2024-05-25T10:36:43-07:00*%
%TF.ProjectId,AMS - CANBus Sensor - Temperature,414d5320-2d20-4434-914e-427573205365,rev?*%
%TF.SameCoordinates,Original*%
%TF.FileFunction,Copper,L2,Bot*%
%TF.FilePolarity,Positive*%
%FSLAX46Y46*%
G04 Gerber Fmt 4.6, Leading zero omitted, Abs format (unit mm)*
G04 Created by KiCad (PCBNEW 8.0.1-rc1) date 2024-05-25 10:36:43*
%MOMM*%
%LPD*%
G01*
G04 APERTURE LIST*
G04 Aperture macros list*
%AMRoundRect*
0 Rectangle with rounded corners*
0 $1 Rounding radius*
0 $2 $3 $4 $5 $6 $7 $8 $9 X,Y pos of 4 corners*
0 Add a 4 corners polygon primitive as box body*
4,1,4,$2,$3,$4,$5,$6,$7,$8,$9,$2,$3,0*
0 Add four circle primitives for the rounded corners*
1,1,$1+$1,$2,$3*
1,1,$1+$1,$4,$5*
1,1,$1+$1,$6,$7*
1,1,$1+$1,$8,$9*
0 Add four rect primitives between the rounded corners*
20,1,$1+$1,$2,$3,$4,$5,0*
20,1,$1+$1,$4,$5,$6,$7,0*
20,1,$1+$1,$6,$7,$8,$9,0*
20,1,$1+$1,$8,$9,$2,$3,0*%
G04 Aperture macros list end*
%TA.AperFunction,ComponentPad*%
%ADD10R,1.700000X1.700000*%
%TD*%
%TA.AperFunction,ComponentPad*%
%ADD11O,1.700000X1.700000*%
%TD*%
%TA.AperFunction,ComponentPad*%
%ADD12C,1.600000*%
%TD*%
%TA.AperFunction,ComponentPad*%
%ADD13O,1.600000X1.600000*%
%TD*%
%TA.AperFunction,ComponentPad*%
%ADD14R,2.200000X2.200000*%
%TD*%
%TA.AperFunction,ComponentPad*%
%ADD15C,2.200000*%
%TD*%
%TA.AperFunction,ComponentPad*%
%ADD16C,2.400000*%
%TD*%
%TA.AperFunction,ComponentPad*%
%ADD17R,1.600000X1.600000*%
%TD*%
%TA.AperFunction,ComponentPad*%
%ADD18R,1.920000X1.920000*%
%TD*%
%TA.AperFunction,ComponentPad*%
%ADD19C,1.920000*%
%TD*%
%TA.AperFunction,ComponentPad*%
%ADD20C,1.500000*%
%TD*%
%TA.AperFunction,ComponentPad*%
%ADD21R,1.500000X1.500000*%
%TD*%
%TA.AperFunction,SMDPad,CuDef*%
%ADD22RoundRect,0.250000X-0.650000X0.412500X-0.650000X-0.412500X0.650000X-0.412500X0.650000X0.412500X0*%
%TD*%
%TA.AperFunction,SMDPad,CuDef*%
%ADD23RoundRect,0.150000X0.825000X0.150000X-0.825000X0.150000X-0.825000X-0.150000X0.825000X-0.150000X0*%
%TD*%
%TA.AperFunction,SMDPad,CuDef*%
%ADD24R,1.705000X0.450000*%
%TD*%
%TA.AperFunction,SMDPad,CuDef*%
%ADD25RoundRect,0.250000X0.400000X0.625000X-0.400000X0.625000X-0.400000X-0.625000X0.400000X-0.625000X0*%
%TD*%
%TA.AperFunction,SMDPad,CuDef*%
%ADD26RoundRect,0.250000X-0.412500X-0.650000X0.412500X-0.650000X0.412500X0.650000X-0.412500X0.650000X0*%
%TD*%
%TA.AperFunction,SMDPad,CuDef*%
%ADD27RoundRect,0.250000X0.650000X-0.412500X0.650000X0.412500X-0.650000X0.412500X-0.650000X-0.412500X0*%
%TD*%
%TA.AperFunction,SMDPad,CuDef*%
%ADD28RoundRect,0.250000X-0.625000X0.400000X-0.625000X-0.400000X0.625000X-0.400000X0.625000X0.400000X0*%
%TD*%
%TA.AperFunction,SMDPad,CuDef*%
%ADD29RoundRect,0.250000X0.412500X0.650000X-0.412500X0.650000X-0.412500X-0.650000X0.412500X-0.650000X0*%
%TD*%
%TA.AperFunction,SMDPad,CuDef*%
%ADD30RoundRect,0.150000X0.875000X0.150000X-0.875000X0.150000X-0.875000X-0.150000X0.875000X-0.150000X0*%
%TD*%
%TA.AperFunction,SMDPad,CuDef*%
%ADD31RoundRect,0.250000X0.625000X-0.400000X0.625000X0.400000X-0.625000X0.400000X-0.625000X-0.400000X0*%
%TD*%
%TA.AperFunction,SMDPad,CuDef*%
%ADD32R,1.000000X0.550000*%
%TD*%
%TA.AperFunction,ViaPad*%
%ADD33C,0.600000*%
%TD*%
%TA.AperFunction,Conductor*%
%ADD34C,0.762000*%
%TD*%
%TA.AperFunction,Conductor*%
%ADD35C,0.200000*%
%TD*%
G04 APERTURE END LIST*
D10*
%TO.P,J2,1,Pin_1*%
%TO.N,/MAX31865AAP+1/FORCE+*%
X154427100Y-80520700D03*
D11*
%TO.P,J2,2,Pin_2*%
%TO.N,/MAX31865AAP+1/RTDIn+*%
X156967100Y-80520700D03*
%TD*%
D10*
%TO.P,J10,1,Pin_1*%
%TO.N,/MAX31865AAP+2/FORCE-*%
X154147400Y-96704500D03*
D11*
%TO.P,J10,2,Pin_2*%
%TO.N,/MAX31865AAP+2/RTDin-*%
X156687400Y-96704500D03*
%TD*%
D12*
%TO.P,R7,1*%
%TO.N,Net-(J5-Pin_2)*%
X139116100Y-58260700D03*
D13*
%TO.P,R7,2*%
%TO.N,CANBUS_L*%
X141656100Y-58260700D03*
%TD*%
D14*
%TO.P,J1,1,Pin_1*%
%TO.N,Net-(J1-Pin_1)*%
X157148000Y-71872800D03*
D15*
%TO.P,J1,2,Pin_2*%
%TO.N,GND*%
X157148000Y-69332800D03*
%TO.P,J1,3,Pin_3*%
%TO.N,CANBUS_H*%
X157148000Y-66792800D03*
%TO.P,J1,4,Pin_4*%
%TO.N,CANBUS_L*%
X157148000Y-64252800D03*
%TD*%
D12*
%TO.P,NTC1,1*%
%TO.N,/BareMinAtmel328P/PC0-A0*%
X135965600Y-94809500D03*
D13*
%TO.P,NTC1,2*%
%TO.N,+5V*%
X135965600Y-97349500D03*
%TD*%
D10*
%TO.P,J3,1,Pin_1*%
%TO.N,GND*%
X146767300Y-124094700D03*
D11*
%TO.P,J3,2,Pin_2*%
%TO.N,unconnected-(J3-Pin_2-Pad2)*%
X144227300Y-124094700D03*
%TO.P,J3,3,Pin_3*%
%TO.N,+5V*%
X141687300Y-124094700D03*
%TO.P,J3,4,Pin_4*%
%TO.N,/BareMinAtmel328P/PD0-RX*%
X139147300Y-124094700D03*
%TO.P,J3,5,Pin_5*%
%TO.N,/BareMinAtmel328P/PD1-TX*%
X136607300Y-124094700D03*
%TO.P,J3,6,Pin_6*%
%TO.N,Net-(J3-Pin_6)*%
X134067300Y-124094700D03*
%TD*%
D14*
%TO.P,J15,1,Pin_1*%
%TO.N,/MAX31865AAP+2/RTDIn+*%
X169777600Y-97738800D03*
D15*
%TO.P,J15,2,Pin_2*%
%TO.N,/MAX31865AAP+2/FORCE+*%
X169777600Y-95198800D03*
%TO.P,J15,3,Pin_3*%
%TO.N,/MAX31865AAP+2/FORCE-*%
X169777600Y-92658800D03*
%TO.P,J15,4,Pin_4*%
%TO.N,/MAX31865AAP+2/RTDin-*%
X169777600Y-90118800D03*
%TD*%
D10*
%TO.P,J7,1,Pin_1*%
%TO.N,/MAX31865AAP+1/FORCE-*%
X154091800Y-85981100D03*
D11*
%TO.P,J7,2,Pin_2*%
%TO.N,/MAX31865AAP+1/RTDin-*%
X156631800Y-85981100D03*
%TD*%
D16*
%TO.P,U5,1,1*%
%TO.N,Net-(Q1-Pad3)*%
X134999500Y-70018000D03*
%TO.P,U5,2,2*%
X134999500Y-73418000D03*
%TO.P,U5,3,3*%
%TO.N,+VDC*%
X125079500Y-70018000D03*
%TO.P,U5,4,4*%
X125079500Y-73418000D03*
%TD*%
D10*
%TO.P,J8,1,Pin_1*%
%TO.N,/MAX31865AAP+2/FORCE+*%
X154099500Y-91526100D03*
D11*
%TO.P,J8,2,Pin_2*%
%TO.N,/MAX31865AAP+2/RTDIn+*%
X156639500Y-91526100D03*
%TD*%
D12*
%TO.P,R6,1*%
%TO.N,Net-(U4-Rs)*%
X163881700Y-75743400D03*
D13*
%TO.P,R6,2*%
%TO.N,GND*%
X161341700Y-75743400D03*
%TD*%
D14*
%TO.P,J14,1,Pin_1*%
%TO.N,/MAX31865AAP+1/RTDIn+*%
X169740800Y-86017900D03*
D15*
%TO.P,J14,2,Pin_2*%
%TO.N,/MAX31865AAP+1/FORCE+*%
X169740800Y-83477900D03*
%TO.P,J14,3,Pin_3*%
%TO.N,/MAX31865AAP+1/FORCE-*%
X169740800Y-80937900D03*
%TO.P,J14,4,Pin_4*%
%TO.N,/MAX31865AAP+1/RTDin-*%
X169740800Y-78397900D03*
%TD*%
D14*
%TO.P,J16,1,Pin_1*%
%TO.N,/MAX31865AAP+3/RTDIn+*%
X166572100Y-110206600D03*
D15*
%TO.P,J16,2,Pin_2*%
%TO.N,/MAX31865AAP+3/FORCE+*%
X166572100Y-107666600D03*
%TO.P,J16,3,Pin_3*%
%TO.N,/MAX31865AAP+3/FORCE-*%
X166572100Y-105126600D03*
%TO.P,J16,4,Pin_4*%
%TO.N,/MAX31865AAP+3/RTDin-*%
X166572100Y-102586600D03*
%TD*%
D10*
%TO.P,Powerboard1,1,Pin_1*%
%TO.N,+VDC*%
X130976300Y-87552600D03*
D11*
%TO.P,Powerboard1,2,Pin_2*%
%TO.N,+5V*%
X130976300Y-90092600D03*
%TO.P,Powerboard1,3,Pin_3*%
%TO.N,GND*%
X130976300Y-92632600D03*
%TD*%
D10*
%TO.P,J9,1,Pin_1*%
%TO.N,/MAX31865AAP+2/FORCE+*%
X163522200Y-91904000D03*
D11*
%TO.P,J9,2,Pin_2*%
%TO.N,Net-(IC2-FORCE2)*%
X163522200Y-94444000D03*
%TO.P,J9,3,Pin_3*%
%TO.N,/MAX31865AAP+2/GND*%
X163522200Y-96984000D03*
%TD*%
D17*
%TO.P,U2,1,~{RESET}/PC6*%
%TO.N,/BareMinAtmel328P/RESET*%
X140929500Y-81761800D03*
D13*
%TO.P,U2,2,PD0*%
%TO.N,/BareMinAtmel328P/PD0-RX*%
X140929500Y-84301800D03*
%TO.P,U2,3,PD1*%
%TO.N,/BareMinAtmel328P/PD1-TX*%
X140929500Y-86841800D03*
%TO.P,U2,4,PD2*%
%TO.N,/BareMinAtmel328P/PD2-D2*%
X140929500Y-89381800D03*
%TO.P,U2,5,PD3*%
%TO.N,/BareMinAtmel328P/PD3-D3*%
X140929500Y-91921800D03*
%TO.P,U2,6,PD4*%
%TO.N,/BareMinAtmel328P/PD4-D4*%
X140929500Y-94461800D03*
%TO.P,U2,7,VCC*%
%TO.N,+5V*%
X140929500Y-97001800D03*
%TO.P,U2,8,GND*%
%TO.N,GND*%
X140929500Y-99541800D03*
%TO.P,U2,9,XTAL1/PB6*%
%TO.N,Net-(U2-XTAL1{slash}PB6)*%
X140929500Y-102081800D03*
%TO.P,U2,10,XTAL2/PB7*%
%TO.N,Net-(U2-XTAL2{slash}PB7)*%
X140929500Y-104621800D03*
%TO.P,U2,11,PD5*%
%TO.N,/BareMinAtmel328P/PD5-D5*%
X140929500Y-107161800D03*
%TO.P,U2,12,PD6*%
%TO.N,/BareMinAtmel328P/PD6-D6*%
X140929500Y-109701800D03*
%TO.P,U2,13,PD7*%
%TO.N,/BareMinAtmel328P/PD7-D7*%
X140929500Y-112241800D03*
%TO.P,U2,14,PB0*%
%TO.N,/BareMinAtmel328P/PB0-D8*%
X140929500Y-114781800D03*
%TO.P,U2,15,PB1*%
%TO.N,/BareMinAtmel328P/PB1-D9*%
X148549500Y-114781800D03*
%TO.P,U2,16,PB2*%
%TO.N,/BareMinAtmel328P/PB2-D10-SS*%
X148549500Y-112241800D03*
%TO.P,U2,17,PB3*%
%TO.N,MOSI*%
X148549500Y-109701800D03*
%TO.P,U2,18,PB4*%
%TO.N,MISO*%
X148549500Y-107161800D03*
%TO.P,U2,19,PB5*%
%TO.N,CLK*%
X148549500Y-104621800D03*
%TO.P,U2,20,AVCC*%
%TO.N,+5V*%
X148549500Y-102081800D03*
%TO.P,U2,21,AREF*%
%TO.N,/BareMinAtmel328P/AREF*%
X148549500Y-99541800D03*
%TO.P,U2,22,GND*%
%TO.N,GND*%
X148549500Y-97001800D03*
%TO.P,U2,23,PC0*%
%TO.N,/BareMinAtmel328P/PC0-A0*%
X148549500Y-94461800D03*
%TO.P,U2,24,PC1*%
%TO.N,/BareMinAtmel328P/PC1-A1*%
X148549500Y-91921800D03*
%TO.P,U2,25,PC2*%
%TO.N,/BareMinAtmel328P/PC2-A2*%
X148549500Y-89381800D03*
%TO.P,U2,26,PC3*%
%TO.N,/BareMinAtmel328P/PC3-A3*%
X148549500Y-86841800D03*
%TO.P,U2,27,PC4*%
%TO.N,/BareMinAtmel328P/PC4-A4-SDA*%
X148549500Y-84301800D03*
%TO.P,U2,28,PC5*%
%TO.N,/BareMinAtmel328P/PC5-A5-SCL*%
X148549500Y-81761800D03*
%TD*%
D10*
%TO.P,J5,1,Pin_1*%
%TO.N,CANBUS_H*%
X139049600Y-61738500D03*
D11*
%TO.P,J5,2,Pin_2*%
%TO.N,Net-(J5-Pin_2)*%
X141589600Y-61738500D03*
%TD*%
D18*
%TO.P,Q1,1*%
%TO.N,Net-(Q1-Pad1)*%
X136586000Y-84423600D03*
D19*
%TO.P,Q1,2*%
%TO.N,Net-(J1-Pin_1)*%
X136586000Y-81883600D03*
%TO.P,Q1,3*%
%TO.N,Net-(Q1-Pad3)*%
X136586000Y-79343600D03*
%TD*%
D20*
%TO.P,Y2,1,1*%
%TO.N,Net-(U3-OSC1)*%
X157308300Y-119543000D03*
%TO.P,Y2,2,2*%
%TO.N,Net-(U3-OSC2)*%
X162188300Y-119543000D03*
%TD*%
D21*
%TO.P,Reset1,1,NO_1*%
%TO.N,/BareMinAtmel328P/RESET*%
X135385300Y-113752500D03*
D20*
%TO.P,Reset1,2,NO_2*%
%TO.N,unconnected-(Reset1-NO_2-Pad2)*%
X128885300Y-113752500D03*
%TO.P,Reset1,3,COM_1*%
%TO.N,GND*%
X135385300Y-109252500D03*
%TO.P,Reset1,4,COM_2*%
%TO.N,unconnected-(Reset1-COM_2-Pad4)*%
X128885300Y-109252500D03*
%TD*%
D10*
%TO.P,J6,1,Pin_1*%
%TO.N,/MAX31865AAP+1/FORCE+*%
X162905100Y-80664400D03*
D11*
%TO.P,J6,2,Pin_2*%
%TO.N,Net-(IC1-FORCE2)*%
X162905100Y-83204400D03*
%TO.P,J6,3,Pin_3*%
%TO.N,/MAX31865AAP+1/GND*%
X162905100Y-85744400D03*
%TD*%
D20*
%TO.P,Y1,1,1*%
%TO.N,Net-(U2-XTAL2{slash}PB7)*%
X134207200Y-119354100D03*
%TO.P,Y1,2,2*%
%TO.N,Net-(U2-XTAL1{slash}PB6)*%
X139087200Y-119354100D03*
%TD*%
D10*
%TO.P,J12,1,Pin_1*%
%TO.N,/MAX31865AAP+3/FORCE+*%
X161047400Y-103693100D03*
D11*
%TO.P,J12,2,Pin_2*%
%TO.N,Net-(IC3-FORCE2)*%
X161047400Y-106233100D03*
%TO.P,J12,3,Pin_3*%
%TO.N,/MAX31865AAP+3/GND*%
X161047400Y-108773100D03*
%TD*%
D10*
%TO.P,J11,1,Pin_1*%
%TO.N,/MAX31865AAP+3/FORCE+*%
X152867400Y-108259400D03*
D11*
%TO.P,J11,2,Pin_2*%
%TO.N,/MAX31865AAP+3/RTDIn+*%
X155407400Y-108259400D03*
%TD*%
D10*
%TO.P,J13,1,Pin_1*%
%TO.N,/MAX31865AAP+3/FORCE-*%
X152903300Y-102979900D03*
D11*
%TO.P,J13,2,Pin_2*%
%TO.N,/MAX31865AAP+3/RTDin-*%
X155443300Y-102979900D03*
%TD*%
D22*
%TO.P,C2,1*%
%TO.N,Net-(U2-XTAL1{slash}PB6)*%
X144012200Y-118047000D03*
%TO.P,C2,2*%
%TO.N,GND*%
X144012200Y-121172000D03*
%TD*%
D23*
%TO.P,U4,1,TXD*%
%TO.N,/CANBUS-MCP2515/TXtoCANTC*%
X168429800Y-67769000D03*
%TO.P,U4,2,VSS*%
%TO.N,GND*%
X168429800Y-69039000D03*
%TO.P,U4,3,VDD*%
%TO.N,+5V*%
X168429800Y-70309000D03*
%TO.P,U4,4,RXD*%
%TO.N,/CANBUS-MCP2515/RXtoCANTC*%
X168429800Y-71579000D03*
%TO.P,U4,5,Vref*%
%TO.N,unconnected-(U4-Vref-Pad5)*%
X163479800Y-71579000D03*
%TO.P,U4,6,CANL*%
%TO.N,CANBUS_L*%
X163479800Y-70309000D03*
%TO.P,U4,7,CANH*%
%TO.N,CANBUS_H*%
X163479800Y-69039000D03*
%TO.P,U4,8,Rs*%
%TO.N,Net-(U4-Rs)*%
X163479800Y-67769000D03*
%TD*%
D24*
%TO.P,IC2,1,~{DRDY}*%
%TO.N,unconnected-(IC2-~{DRDY}-Pad1)*%
X182812600Y-90699400D03*
%TO.P,IC2,2,DVDD*%
%TO.N,/MAX31865AAP+2/3.3V*%
X182812600Y-91349400D03*
%TO.P,IC2,3,VDD*%
X182812600Y-91999400D03*
%TO.P,IC2,4,BIAS*%
%TO.N,Net-(IC2-BIAS)*%
X182812600Y-92649400D03*
%TO.P,IC2,5,REFIN+*%
X182812600Y-93299400D03*
%TO.P,IC2,6,REFIN-*%
%TO.N,Net-(IC2-ISENSOR)*%
X182812600Y-93949400D03*
%TO.P,IC2,7,ISENSOR*%
X182812600Y-94599400D03*
%TO.P,IC2,8,FORCE+*%
%TO.N,/MAX31865AAP+2/FORCE+*%
X182812600Y-95249400D03*
%TO.P,IC2,9,FORCE2*%
%TO.N,Net-(IC2-FORCE2)*%
X182812600Y-95899400D03*
%TO.P,IC2,10,RTDIN+*%
%TO.N,/MAX31865AAP+2/RTDIn+*%
X182812600Y-96549400D03*
%TO.P,IC2,11,RTDIN-*%
%TO.N,/MAX31865AAP+2/RTDin-*%
X175816600Y-96549400D03*
%TO.P,IC2,12,FORCE-*%
%TO.N,/MAX31865AAP+2/FORCE-*%
X175816600Y-95899400D03*
%TO.P,IC2,13,GND2*%
%TO.N,/MAX31865AAP+2/GND*%
X175816600Y-95249400D03*
%TO.P,IC2,14,SDI*%
%TO.N,/MAX31865AAP+1/MOSI3v*%
X175816600Y-94599400D03*
%TO.P,IC2,15,SCLK*%
%TO.N,/MAX31865AAP+1/SLC3v*%
X175816600Y-93949400D03*
%TO.P,IC2,16,~{CS}*%
%TO.N,/MAX31865AAP+2/CS3v*%
X175816600Y-93299400D03*
%TO.P,IC2,17,SDO*%
%TO.N,/MAX31865AAP+1/MISO3v*%
X175816600Y-92649400D03*
%TO.P,IC2,18,DGND*%
%TO.N,/MAX31865AAP+2/GND*%
X175816600Y-91999400D03*
%TO.P,IC2,19,GND*%
X175816600Y-91349400D03*
%TO.P,IC2,20,N.C.*%
%TO.N,unconnected-(IC2-N.C.-Pad20)*%
X175816600Y-90699400D03*
%TD*%
D25*
%TO.P,R1,1*%
%TO.N,Net-(Q1-Pad1)*%
X131364300Y-81129300D03*
%TO.P,R1,2*%
%TO.N,GND*%
X128264300Y-81129300D03*
%TD*%
D26*
%TO.P,C10,1*%
%TO.N,/MAX31865AAP+1/RTDin-*%
X177204100Y-85024500D03*
%TO.P,C10,2*%
%TO.N,/MAX31865AAP+1/RTDIn+*%
X180329100Y-85024500D03*
%TD*%
D27*
%TO.P,C8,1*%
%TO.N,/MAX31865AAP+1/3.3V*%
X167153400Y-76752400D03*
%TO.P,C8,2*%
%TO.N,/MAX31865AAP+1/GND*%
X167153400Y-73627400D03*
%TD*%
D28*
%TO.P,R4,1*%
%TO.N,+5V*%
X132096400Y-109912300D03*
%TO.P,R4,2*%
%TO.N,/BareMinAtmel328P/RESET*%
X132096400Y-113012300D03*
%TD*%
D29*
%TO.P,C9,1*%
%TO.N,/MAX31865AAP+1/3.3V*%
X173995300Y-73848700D03*
%TO.P,C9,2*%
%TO.N,/MAX31865AAP+1/GND*%
X170870300Y-73848700D03*
%TD*%
%TO.P,C4,1*%
%TO.N,Net-(U3-OSC2)*%
X150709400Y-119523900D03*
%TO.P,C4,2*%
%TO.N,GND*%
X147584400Y-119523900D03*
%TD*%
D30*
%TO.P,U3,1,TXCAN*%
%TO.N,/CANBUS-MCP2515/TXtoCANTC*%
X151455100Y-65127000D03*
%TO.P,U3,2,RXCAN*%
%TO.N,/CANBUS-MCP2515/RXtoCANTC*%
X151455100Y-66397000D03*
%TO.P,U3,3,CLKOUT/SOF*%
%TO.N,unconnected-(U3-CLKOUT{slash}SOF-Pad3)*%
X151455100Y-67667000D03*
%TO.P,U3,4,~{TX0RTS}*%
%TO.N,unconnected-(U3-~{TX0RTS}-Pad4)*%
X151455100Y-68937000D03*
%TO.P,U3,5,~{TX1RTS}*%
%TO.N,unconnected-(U3-~{TX1RTS}-Pad5)*%
X151455100Y-70207000D03*
%TO.P,U3,6,~{TX2RTS}*%
%TO.N,unconnected-(U3-~{TX2RTS}-Pad6)*%
X151455100Y-71477000D03*
%TO.P,U3,7,OSC2*%
%TO.N,Net-(U3-OSC2)*%
X151455100Y-72747000D03*
%TO.P,U3,8,OSC1*%
%TO.N,Net-(U3-OSC1)*%
X151455100Y-74017000D03*
%TO.P,U3,9,VSS*%
%TO.N,GND*%
X151455100Y-75287000D03*
%TO.P,U3,10,~{RX1BF}*%
%TO.N,unconnected-(U3-~{RX1BF}-Pad10)*%
X142155100Y-75287000D03*
%TO.P,U3,11,~{RX0BF}*%
%TO.N,unconnected-(U3-~{RX0BF}-Pad11)*%
X142155100Y-74017000D03*
%TO.P,U3,12,~{INT}*%
%TO.N,/BareMinAtmel328P/PD2-D2*%
X142155100Y-72747000D03*
%TO.P,U3,13,SCK*%
%TO.N,CLK*%
X142155100Y-71477000D03*
%TO.P,U3,14,SI*%
%TO.N,MOSI*%
X142155100Y-70207000D03*
%TO.P,U3,15,SO*%
%TO.N,MISO*%
X142155100Y-68937000D03*
%TO.P,U3,16,~{CS}*%
%TO.N,/BareMinAtmel328P/PB1-D9*%
X142155100Y-67667000D03*
%TO.P,U3,17,~{RESET}*%
%TO.N,Net-(U3-~{RESET})*%
X142155100Y-66397000D03*
%TO.P,U3,18,VDD*%
%TO.N,+5V*%
X142155100Y-65127000D03*
%TD*%
D31*
%TO.P,R5,1*%
%TO.N,Net-(U3-~{RESET})*%
X144703000Y-87196800D03*
%TO.P,R5,2*%
%TO.N,+5V*%
X144703000Y-84096800D03*
%TD*%
D28*
%TO.P,R3,1*%
%TO.N,GND*%
X135973000Y-89148700D03*
%TO.P,R3,2*%
%TO.N,/BareMinAtmel328P/PC0-A0*%
X135973000Y-92248700D03*
%TD*%
D24*
%TO.P,IC3,1,~{DRDY}*%
%TO.N,unconnected-(IC3-~{DRDY}-Pad1)*%
X180511900Y-101484500D03*
%TO.P,IC3,2,DVDD*%
%TO.N,/MAX31865AAP+3/3.3V*%
X180511900Y-102134500D03*
%TO.P,IC3,3,VDD*%
X180511900Y-102784500D03*
%TO.P,IC3,4,BIAS*%
%TO.N,Net-(IC3-BIAS)*%
X180511900Y-103434500D03*
%TO.P,IC3,5,REFIN+*%
X180511900Y-104084500D03*
%TO.P,IC3,6,REFIN-*%
%TO.N,Net-(IC3-ISENSOR)*%
X180511900Y-104734500D03*
%TO.P,IC3,7,ISENSOR*%
X180511900Y-105384500D03*
%TO.P,IC3,8,FORCE+*%
%TO.N,/MAX31865AAP+3/FORCE+*%
X180511900Y-106034500D03*
%TO.P,IC3,9,FORCE2*%
%TO.N,Net-(IC3-FORCE2)*%
X180511900Y-106684500D03*
%TO.P,IC3,10,RTDIN+*%
%TO.N,/MAX31865AAP+3/RTDIn+*%
X180511900Y-107334500D03*
%TO.P,IC3,11,RTDIN-*%
%TO.N,/MAX31865AAP+3/RTDin-*%
X173515900Y-107334500D03*
%TO.P,IC3,12,FORCE-*%
%TO.N,/MAX31865AAP+3/FORCE-*%
X173515900Y-106684500D03*
%TO.P,IC3,13,GND2*%
%TO.N,/MAX31865AAP+3/GND*%
X173515900Y-106034500D03*
%TO.P,IC3,14,SDI*%
%TO.N,/MAX31865AAP+1/MOSI3v*%
X173515900Y-105384500D03*
%TO.P,IC3,15,SCLK*%
%TO.N,/MAX31865AAP+1/SLC3v*%
X173515900Y-104734500D03*
%TO.P,IC3,16,~{CS}*%
%TO.N,/MAX31865AAP+3/CS3v*%
X173515900Y-104084500D03*
%TO.P,IC3,17,SDO*%
%TO.N,/MAX31865AAP+1/MISO3v*%
X173515900Y-103434500D03*
%TO.P,IC3,18,DGND*%
%TO.N,/MAX31865AAP+3/GND*%
X173515900Y-102784500D03*
%TO.P,IC3,19,GND*%
X173515900Y-102134500D03*
%TO.P,IC3,20,N.C.*%
%TO.N,unconnected-(IC3-N.C.-Pad20)*%
X173515900Y-101484500D03*
%TD*%
D29*
%TO.P,C1,1*%
%TO.N,Net-(J3-Pin_6)*%
X138717100Y-117199700D03*
%TO.P,C1,2*%
%TO.N,/BareMinAtmel328P/RESET*%
X135592100Y-117199700D03*
%TD*%
D22*
%TO.P,C15,1*%
%TO.N,/MAX31865AAP+3/3.3V*%
X169251600Y-102830600D03*
%TO.P,C15,2*%
%TO.N,/MAX31865AAP+3/GND*%
X169251600Y-105955600D03*
%TD*%
D28*
%TO.P,R2,1*%
%TO.N,/BareMinAtmel328P/AREF*%
X144995600Y-99509000D03*
%TO.P,R2,2*%
%TO.N,+5V*%
X144995600Y-102609000D03*
%TD*%
D24*
%TO.P,IC1,1,~{DRDY}*%
%TO.N,unconnected-(IC1-~{DRDY}-Pad1)*%
X183151300Y-76886100D03*
%TO.P,IC1,2,DVDD*%
%TO.N,/MAX31865AAP+1/3.3V*%
X183151300Y-77536100D03*
%TO.P,IC1,3,VDD*%
X183151300Y-78186100D03*
%TO.P,IC1,4,BIAS*%
%TO.N,Net-(IC1-BIAS)*%
X183151300Y-78836100D03*
%TO.P,IC1,5,REFIN+*%
X183151300Y-79486100D03*
%TO.P,IC1,6,REFIN-*%
%TO.N,Net-(IC1-ISENSOR)*%
X183151300Y-80136100D03*
%TO.P,IC1,7,ISENSOR*%
X183151300Y-80786100D03*
%TO.P,IC1,8,FORCE+*%
%TO.N,/MAX31865AAP+1/FORCE+*%
X183151300Y-81436100D03*
%TO.P,IC1,9,FORCE2*%
%TO.N,Net-(IC1-FORCE2)*%
X183151300Y-82086100D03*
%TO.P,IC1,10,RTDIN+*%
%TO.N,/MAX31865AAP+1/RTDIn+*%
X183151300Y-82736100D03*
%TO.P,IC1,11,RTDIN-*%
%TO.N,/MAX31865AAP+1/RTDin-*%
X176155300Y-82736100D03*
%TO.P,IC1,12,FORCE-*%
%TO.N,/MAX31865AAP+1/FORCE-*%
X176155300Y-82086100D03*
%TO.P,IC1,13,GND2*%
%TO.N,/MAX31865AAP+1/GND*%
X176155300Y-81436100D03*
%TO.P,IC1,14,SDI*%
%TO.N,/MAX31865AAP+1/MOSI3v*%
X176155300Y-80786100D03*
%TO.P,IC1,15,SCLK*%
%TO.N,/MAX31865AAP+1/SLC3v*%
X176155300Y-80136100D03*
%TO.P,IC1,16,~{CS}*%
%TO.N,/MAX31865AAP+1/CS3v*%
X176155300Y-79486100D03*
%TO.P,IC1,17,SDO*%
%TO.N,/MAX31865AAP+1/MISO3v*%
X176155300Y-78836100D03*
%TO.P,IC1,18,DGND*%
%TO.N,/MAX31865AAP+1/GND*%
X176155300Y-78186100D03*
%TO.P,IC1,19,GND*%
X176155300Y-77536100D03*
%TO.P,IC1,20,N.C.*%
%TO.N,unconnected-(IC1-N.C.-Pad20)*%
X176155300Y-76886100D03*
%TD*%
D22*
%TO.P,C12,1*%
%TO.N,/MAX31865AAP+2/3.3V*%
X166999500Y-89446100D03*
%TO.P,C12,2*%
%TO.N,/MAX31865AAP+2/GND*%
X166999500Y-92571100D03*
%TD*%
D29*
%TO.P,C11,1*%
%TO.N,/MAX31865AAP+2/3.3V*%
X180344900Y-88259800D03*
%TO.P,C11,2*%
%TO.N,/MAX31865AAP+2/GND*%
X177219900Y-88259800D03*
%TD*%
%TO.P,C7,1*%
%TO.N,+5V*%
X137705500Y-103901700D03*
%TO.P,C7,2*%
%TO.N,GND*%
X134580500Y-103901700D03*
%TD*%
D26*
%TO.P,C13,1*%
%TO.N,/MAX31865AAP+2/RTDin-*%
X177518600Y-98878600D03*
%TO.P,C13,2*%
%TO.N,/MAX31865AAP+2/RTDIn+*%
X180643600Y-98878600D03*
%TD*%
D32*
%TO.P,D1,1,CATHODE_1*%
%TO.N,CANBUS_H*%
X157281400Y-75173600D03*
%TO.P,D1,2,CATHODE_2*%
%TO.N,CANBUS_L*%
X157281400Y-76473600D03*
%TO.P,D1,3,COMMON_ANODE*%
%TO.N,GND*%
X155381400Y-75823600D03*
%TD*%
D29*
%TO.P,C6,1*%
%TO.N,+5V*%
X137701800Y-101431800D03*
%TO.P,C6,2*%
%TO.N,GND*%
X134576800Y-101431800D03*
%TD*%
%TO.P,C14,1*%
%TO.N,/MAX31865AAP+3/3.3V*%
X167447900Y-99864000D03*
%TO.P,C14,2*%
%TO.N,/MAX31865AAP+3/GND*%
X164322900Y-99864000D03*
%TD*%
%TO.P,C16,1*%
%TO.N,/MAX31865AAP+3/RTDin-*%
X174303100Y-110148000D03*
%TO.P,C16,2*%
%TO.N,/MAX31865AAP+3/RTDIn+*%
X171178100Y-110148000D03*
%TD*%
D33*
%TO.N,GND*%
X166912000Y-69200100D03*
X134576800Y-99449400D03*
X142137100Y-77308100D03*
%TO.N,/BareMinAtmel328P/RESET*%
X155620300Y-74664100D03*
X154921400Y-72481400D03*
%TO.N,+5V*%
X142799200Y-99555100D03*
X145124600Y-72473300D03*
X142028000Y-88110200D03*
%TO.N,CANBUS_H*%
X161173200Y-67081800D03*
%TO.N,/MAX31865AAP+1/GND*%
X172066600Y-74532700D03*
X164379600Y-81999200D03*
X174497700Y-76963800D03*
%TO.N,/MAX31865AAP+1/RTDIn+*%
X180358200Y-86446500D03*
%TO.N,Net-(Q1-Pad1)*%
X132546900Y-81920300D03*
%TO.N,/BareMinAtmel328P/PD2-D2*%
X135297100Y-85794900D03*
%TO.N,Net-(U3-OSC2)*%
X156548700Y-117120000D03*
X155272900Y-77126100D03*
X151536800Y-63182000D03*
%TO.N,Net-(U3-~{RESET})*%
X143754600Y-85478800D03*
X135186600Y-75411200D03*
%TO.N,/MAX31865AAP+2/RTDIn+*%
X180643600Y-98878600D03*
%TO.N,/MAX31865AAP+2/RTDin-*%
X177778400Y-95593300D03*
X161212600Y-90729200D03*
%TO.N,/MAX31865AAP+3/3.3V*%
X170656800Y-102672600D03*
X179148500Y-102672600D03*
%TO.N,/MAX31865AAP+3/RTDIn+*%
X174867921Y-106931418D03*
%TO.N,/MAX31865AAP+1/MOSI3v*%
X175907400Y-100140400D03*
X129372800Y-107412200D03*
X162308500Y-101104600D03*
X119128800Y-96778400D03*
%TO.N,Net-(IC1-BIAS)*%
X181443300Y-78777900D03*
%TO.N,/MAX31865AAP+1/SLC3v*%
X133428200Y-99429100D03*
X177487000Y-93777700D03*
X174875200Y-99839100D03*
X178968500Y-87952000D03*
X127935200Y-93145400D03*
%TO.N,/MAX31865AAP+1/CS3v*%
X174724100Y-79129900D03*
%TO.N,Net-(IC1-ISENSOR)*%
X180221019Y-76607049D03*
%TO.N,/MAX31865AAP+1/MISO3v*%
X179333400Y-86547700D03*
X174662400Y-89240700D03*
%TO.N,/MAX31865AAP+1/FORCE+*%
X181728300Y-81373200D03*
%TO.N,/MAX31865AAP+1/FORCE-*%
X174373100Y-81422600D03*
%TO.N,/MAX31865AAP+2/CS3v*%
X162999800Y-89599400D03*
X122989300Y-96253900D03*
X177252300Y-92843700D03*
%TO.N,Net-(IC2-ISENSOR)*%
X180834332Y-94277750D03*
%TO.N,Net-(IC2-BIAS)*%
X180826357Y-93017718D03*
%TO.N,/MAX31865AAP+2/FORCE+*%
X180717000Y-96266100D03*
%TO.N,/MAX31865AAP+2/FORCE-*%
X174339800Y-95526800D03*
X165254800Y-96084100D03*
%TO.N,Net-(IC2-FORCE2)*%
X181608500Y-97374500D03*
%TO.N,/MAX31865AAP+3/CS3v*%
X173770000Y-99610400D03*
%TO.N,/MAX31865AAP+3/FORCE+*%
X178346700Y-106329500D03*
%TO.N,Net-(IC3-BIAS)*%
X183193977Y-101059766D03*
%TO.N,Net-(IC3-FORCE2)*%
X164357700Y-101658900D03*
X178733900Y-107109800D03*
%TO.N,Net-(IC3-ISENSOR)*%
X183193977Y-104159766D03*
%TO.N,MOSI*%
X144524100Y-70207000D03*
X127584400Y-100412600D03*
%TO.N,MISO*%
X145385000Y-108475000D03*
X144528600Y-68903600D03*
%TO.N,CLK*%
X126280800Y-98943100D03*
X117353300Y-93280500D03*
X126074700Y-80795100D03*
X134705000Y-78885300D03*
X146555400Y-73086400D03*
%TD*%
D34*
%TO.N,GND*%
X153699000Y-75241800D02*
X153699000Y-71959500D01*
X138127000Y-86994700D02*
X138127000Y-81802300D01*
D35*
X155958100Y-76400300D02*
X155381400Y-76400300D01*
D34*
X156326000Y-69332800D02*
X157148000Y-69332800D01*
D35*
X156608100Y-77050300D02*
X155958100Y-76400300D01*
X166912000Y-69200100D02*
X168268700Y-69200100D01*
X151500300Y-75241800D02*
X151455100Y-75287000D01*
X154337200Y-76066100D02*
X154579700Y-75823600D01*
X146767300Y-122943000D02*
X145783200Y-122943000D01*
D34*
X132207700Y-92632600D02*
X132489000Y-92632600D01*
D35*
X146767300Y-124094700D02*
X146767300Y-122943000D01*
D34*
X153699000Y-71959500D02*
X156326000Y-69332800D01*
D35*
X147584400Y-119523900D02*
X146767300Y-120341000D01*
X158933100Y-77050300D02*
X156608100Y-77050300D01*
X155381400Y-75823600D02*
X155381400Y-76400300D01*
D34*
X153699000Y-76066100D02*
X153699000Y-75241800D01*
D35*
X142137100Y-78195400D02*
X142137100Y-77308100D01*
X134580500Y-101435500D02*
X134580500Y-103901700D01*
D34*
X130976000Y-92632600D02*
X130976300Y-92632600D01*
X141487000Y-78442200D02*
X142383900Y-78442200D01*
D35*
X145783200Y-122943000D02*
X144012200Y-121172000D01*
X128264300Y-81129300D02*
X128264300Y-89920900D01*
X153699000Y-76066100D02*
X154337200Y-76066100D01*
D34*
X135973000Y-89148700D02*
X138127000Y-86994700D01*
D35*
X134576800Y-95001700D02*
X134576800Y-99449400D01*
X160240000Y-75743400D02*
X158933100Y-77050300D01*
X128264300Y-89920900D02*
X130976000Y-92632600D01*
X146767300Y-120341000D02*
X146767300Y-122943000D01*
D34*
X138127000Y-81802300D02*
X141487000Y-78442200D01*
D35*
X142383900Y-78442200D02*
X142137100Y-78195400D01*
D34*
X132489000Y-92632600D02*
X135973000Y-89148700D01*
X130976300Y-92632600D02*
X132207700Y-92632600D01*
X142383900Y-78442200D02*
X152722000Y-78442200D01*
D35*
X134576800Y-101431800D02*
X134580500Y-101435500D01*
X153699000Y-75241800D02*
X151500300Y-75241800D01*
X168268700Y-69200100D02*
X168429800Y-69039000D01*
D34*
X152722000Y-78442200D02*
X153699000Y-77464900D01*
X153699000Y-77464900D02*
X153699000Y-76066100D01*
D35*
X134576800Y-99449400D02*
X134576800Y-101431800D01*
X132207700Y-92632600D02*
X134576800Y-95001700D01*
X134580500Y-103901700D02*
X134580500Y-108447700D01*
X134580500Y-108447700D02*
X135385300Y-109252500D01*
X161341700Y-75743400D02*
X160240000Y-75743400D01*
X155381400Y-75823600D02*
X154579700Y-75823600D01*
%TO.N,/BareMinAtmel328P/RESET*%
X135385300Y-116992900D02*
X135385300Y-113752500D01*
X140791800Y-82863500D02*
X138849900Y-84805400D01*
X138849900Y-109236200D02*
X135385300Y-112700800D01*
X140929500Y-81761800D02*
X140929500Y-82863500D01*
X135592100Y-117199700D02*
X135385300Y-116992900D01*
X138849900Y-84805400D02*
X138849900Y-109236200D01*
X132310700Y-113226600D02*
X132096400Y-113012300D01*
X154921400Y-72481400D02*
X154921400Y-73965200D01*
X135385300Y-113226600D02*
X135385300Y-112700800D01*
X135385300Y-113226600D02*
X132310700Y-113226600D01*
X154921400Y-73965200D02*
X155620300Y-74664100D01*
X140929500Y-82863500D02*
X140791800Y-82863500D01*
%TO.N,+5V*%
X137705500Y-103901700D02*
X137705500Y-108426400D01*
X142031200Y-97001800D02*
X142031200Y-98787100D01*
X168822500Y-70309000D02*
X168429800Y-70309000D01*
X169711000Y-69420500D02*
X168822500Y-70309000D01*
X142084100Y-120674200D02*
X142084100Y-122546200D01*
X137701800Y-100187400D02*
X135965600Y-98451200D01*
X131768100Y-88940900D02*
X133841600Y-86867400D01*
X137504700Y-75245800D02*
X137504700Y-75006400D01*
X137705500Y-101435500D02*
X137705500Y-103901700D01*
X137705500Y-108426400D02*
X135800500Y-110331400D01*
X142031200Y-98787100D02*
X142799200Y-99555100D01*
X145630300Y-110565900D02*
X145630300Y-118847500D01*
X133841600Y-86867400D02*
X133841600Y-78807200D01*
X145134200Y-70666100D02*
X145134200Y-67583200D01*
X144958300Y-70842000D02*
X145124600Y-71008300D01*
X135965600Y-97349500D02*
X135965600Y-98451200D01*
X144995600Y-102609000D02*
X146920600Y-102609000D01*
X143271100Y-119487200D02*
X142084100Y-120674200D01*
X169711000Y-67429400D02*
X169711000Y-69420500D01*
X133841600Y-78807200D02*
X135289200Y-77359600D01*
X144990600Y-119487200D02*
X143271100Y-119487200D01*
X144285800Y-84096800D02*
X142031200Y-86351400D01*
X151105500Y-61611900D02*
X163893500Y-61611900D01*
X135289200Y-77359600D02*
X135390900Y-77359600D01*
X144741000Y-109676600D02*
X145630300Y-110565900D01*
X145134200Y-67583200D02*
X151105500Y-61611900D01*
X145134200Y-67583200D02*
X142678000Y-65127000D01*
X142678000Y-65127000D02*
X142155100Y-65127000D01*
X144703000Y-84096800D02*
X144285800Y-84096800D01*
X142031200Y-86351400D02*
X142031200Y-88110200D01*
X142084100Y-122546200D02*
X141687300Y-122943000D01*
X137701800Y-101431800D02*
X137705500Y-101435500D01*
X144958300Y-70842000D02*
X145134200Y-70666100D01*
X145124600Y-71008300D02*
X145124600Y-72473300D01*
X146920600Y-102609000D02*
X147447800Y-102081800D01*
X148549500Y-102081800D02*
X147447800Y-102081800D01*
X140929500Y-97001800D02*
X142031200Y-97001800D01*
X130976300Y-88940900D02*
X131768100Y-88940900D01*
X132515500Y-110331400D02*
X132096400Y-109912300D01*
X142031200Y-88110200D02*
X142031200Y-97001800D01*
X144741000Y-102863600D02*
X144741000Y-109676600D01*
X141687300Y-124094700D02*
X141687300Y-122943000D01*
X137701800Y-101431800D02*
X137701800Y-100187400D01*
X130976300Y-90092600D02*
X130976300Y-88940900D01*
X163893500Y-61611900D02*
X169711000Y-67429400D01*
X138185000Y-73760400D02*
X141103400Y-70842000D01*
X145630300Y-118847500D02*
X144990600Y-119487200D01*
X135390900Y-77359600D02*
X137504700Y-75245800D01*
X141103400Y-70842000D02*
X144958300Y-70842000D01*
X142031200Y-88110200D02*
X142028000Y-88110200D01*
X138185000Y-74326100D02*
X138185000Y-73760400D01*
X144995600Y-102609000D02*
X144741000Y-102863600D01*
X135800500Y-110331400D02*
X132515500Y-110331400D01*
X137504700Y-75006400D02*
X138185000Y-74326100D01*
%TO.N,CANBUS_L*%
X162526700Y-70350800D02*
X158949900Y-66774000D01*
X162568500Y-70309000D02*
X163479800Y-70309000D01*
X158949900Y-66774000D02*
X158949900Y-66054700D01*
X161899300Y-71761700D02*
X161899300Y-70978200D01*
X157281400Y-75896900D02*
X157764100Y-75896900D01*
X161899300Y-70978200D02*
X162526700Y-70350800D01*
X158949900Y-66054700D02*
X157148000Y-64252800D01*
X157281400Y-76473600D02*
X157281400Y-75896900D01*
X162526700Y-70350800D02*
X162568500Y-70309000D01*
X157764100Y-75896900D02*
X161899300Y-71761700D01*
%TO.N,CANBUS_H*%
X158549700Y-73328600D02*
X157281400Y-74596900D01*
X158549700Y-68194500D02*
X158549700Y-73328600D01*
X163479800Y-69039000D02*
X163130400Y-69039000D01*
X157281400Y-75173600D02*
X157281400Y-74596900D01*
X163130400Y-69039000D02*
X161173200Y-67081800D01*
X157148000Y-66792800D02*
X158549700Y-68194500D01*
%TO.N,/MAX31865AAP+1/3.3V*%
X182098000Y-77536100D02*
X181998600Y-77536100D01*
X181998600Y-77536100D02*
X180420600Y-75958100D01*
X181998600Y-77536100D02*
X181997100Y-77536100D01*
X168504700Y-75401100D02*
X167153400Y-76752400D01*
X172442900Y-75401100D02*
X168504700Y-75401100D01*
X180420600Y-75958100D02*
X177395200Y-75958100D01*
X181997100Y-78186100D02*
X181997100Y-77536100D01*
X173995300Y-73848700D02*
X172442900Y-75401100D01*
X183151300Y-77536100D02*
X182098000Y-77536100D01*
X175285800Y-73848700D02*
X173995300Y-73848700D01*
X183151300Y-78186100D02*
X181997100Y-78186100D01*
X177395200Y-75958100D02*
X175285800Y-73848700D01*
%TO.N,/MAX31865AAP+1/GND*%
X174723600Y-77739300D02*
X174949400Y-77739300D01*
X176155300Y-77536100D02*
X175578200Y-77536100D01*
X174723600Y-77739300D02*
X174104200Y-78358700D01*
X175001100Y-81191300D02*
X175001100Y-81436100D01*
X167153400Y-74493000D02*
X164379600Y-77266800D01*
X164379600Y-77266800D02*
X164379600Y-81999200D01*
X176155300Y-81436100D02*
X175001100Y-81436100D01*
X175001100Y-77791000D02*
X175001100Y-78186100D01*
X170870300Y-73848700D02*
X170649000Y-73627400D01*
X167153400Y-73627400D02*
X167153400Y-74493000D01*
X175578200Y-77536100D02*
X175256000Y-77536100D01*
X175256000Y-77536100D02*
X175001100Y-77791000D01*
X174723600Y-77739300D02*
X174497700Y-77513400D01*
X171554300Y-74532700D02*
X172066600Y-74532700D01*
X174497700Y-77513400D02*
X174497700Y-76963800D01*
X174949400Y-77739300D02*
X175001100Y-77791000D01*
X174104200Y-80294400D02*
X175001100Y-81191300D01*
X170870300Y-73848700D02*
X171554300Y-74532700D01*
X174104200Y-78358700D02*
X174104200Y-80294400D01*
X176155300Y-78186100D02*
X175001100Y-78186100D01*
X170649000Y-73627400D02*
X167153400Y-73627400D01*
%TO.N,/MAX31865AAP+1/RTDIn+*%
X180329100Y-85024500D02*
X180358200Y-85053600D01*
X180358200Y-85053600D02*
X180358200Y-86446500D01*
X180329100Y-84404100D02*
X180329100Y-85024500D01*
X181997100Y-82736100D02*
X180329100Y-84404100D01*
X183151300Y-82736100D02*
X181997100Y-82736100D01*
%TO.N,/BareMinAtmel328P/PD0-RX*%
X143786700Y-98398200D02*
X143786700Y-109360900D01*
X143225600Y-83107400D02*
X145582500Y-83107400D01*
X143786700Y-109360900D02*
X145218800Y-110793000D01*
X145951900Y-83476800D02*
X145951900Y-96233000D01*
X143104800Y-119085500D02*
X140299000Y-121891300D01*
X139147300Y-124094700D02*
X140299000Y-124094700D01*
X145218800Y-110793000D02*
X145218800Y-118688900D01*
X145582500Y-83107400D02*
X145951900Y-83476800D01*
X145218800Y-118688900D02*
X144822200Y-119085500D01*
X144822200Y-119085500D02*
X143104800Y-119085500D01*
X145951900Y-96233000D02*
X143786700Y-98398200D01*
X140929500Y-84301800D02*
X142031200Y-84301800D01*
X140299000Y-121891300D02*
X140299000Y-124094700D01*
X142031200Y-84301800D02*
X143225600Y-83107400D01*
%TO.N,/BareMinAtmel328P/PD1-TX*%
X140929500Y-87943500D02*
X140791800Y-87943500D01*
X135002600Y-118481200D02*
X134806400Y-118285000D01*
X134806400Y-118285000D02*
X133739100Y-118285000D01*
X136913100Y-111912100D02*
X136913100Y-117761500D01*
X136193400Y-118481200D02*
X135002600Y-118481200D01*
X140791800Y-87943500D02*
X139420200Y-89315100D01*
X135455600Y-124363200D02*
X135455600Y-124094700D01*
X139420200Y-109405000D02*
X136913100Y-111912100D01*
X132884000Y-119140100D02*
X132884000Y-124558300D01*
X133739100Y-118285000D02*
X132884000Y-119140100D01*
X136607300Y-124094700D02*
X135455600Y-124094700D01*
X134568800Y-125250000D02*
X135455600Y-124363200D01*
X133575700Y-125250000D02*
X134568800Y-125250000D01*
X140929500Y-86841800D02*
X140929500Y-87943500D01*
X132884000Y-124558300D02*
X133575700Y-125250000D01*
X136913100Y-117761500D02*
X136193400Y-118481200D01*
X139420200Y-89315100D02*
X139420200Y-109405000D01*
%TO.N,/BareMinAtmel328P/PC0-A0*%
X135965600Y-92256100D02*
X135965600Y-94809500D01*
X135973000Y-92248700D02*
X135965600Y-92256100D01*
%TO.N,Net-(Q1-Pad1)*%
X131364300Y-81129300D02*
X132155300Y-81920300D01*
X132155300Y-81920300D02*
X132546900Y-81920300D01*
%TO.N,/BareMinAtmel328P/AREF*%
X144995600Y-99509000D02*
X147415000Y-99509000D01*
X148549500Y-99541800D02*
X147447800Y-99541800D01*
X147415000Y-99509000D02*
X147447800Y-99541800D01*
%TO.N,/BareMinAtmel328P/PB1-D9*%
X141760400Y-67667000D02*
X137381600Y-72045800D01*
X133402000Y-125677300D02*
X141772300Y-125677300D01*
X134972300Y-76556200D02*
X130440900Y-76556200D01*
X141772300Y-125677300D02*
X142864400Y-124585200D01*
X142864400Y-124585200D02*
X142864400Y-122955800D01*
X126882500Y-98690200D02*
X126882500Y-101668800D01*
X137381600Y-72045800D02*
X137381600Y-73755700D01*
X126803900Y-80193200D02*
X126803900Y-98611600D01*
X142527100Y-120799200D02*
X143437400Y-119888900D01*
X148549500Y-116590500D02*
X148549500Y-114781800D01*
X136660000Y-74477300D02*
X136660000Y-74868500D01*
X137381600Y-73755700D02*
X136660000Y-74477300D01*
X136660000Y-74868500D02*
X134972300Y-76556200D01*
X142527100Y-122618500D02*
X142527100Y-120799200D01*
X145251100Y-119888900D02*
X148549500Y-116590500D01*
X130440900Y-76556200D02*
X126803900Y-80193200D01*
X126803900Y-98611600D02*
X126882500Y-98690200D01*
X126882500Y-101668800D02*
X130848400Y-105634700D01*
X142864400Y-122955800D02*
X142527100Y-122618500D01*
X130848400Y-123123700D02*
X133402000Y-125677300D01*
X130848400Y-105634700D02*
X130848400Y-123123700D01*
X143437400Y-119888900D02*
X145251100Y-119888900D01*
X142155100Y-67667000D02*
X141760400Y-67667000D01*
%TO.N,/BareMinAtmel328P/PD2-D2*%
X141669800Y-72747000D02*
X139466900Y-74949900D01*
X142155100Y-72747000D02*
X141669800Y-72747000D01*
X139466900Y-78273600D02*
X137126900Y-80613600D01*
X135297100Y-81325200D02*
X135297100Y-85794900D01*
X139466900Y-74949900D02*
X139466900Y-78273600D01*
X137126900Y-80613600D02*
X136008700Y-80613600D01*
X136008700Y-80613600D02*
X135297100Y-81325200D01*
%TO.N,/CANBUS-MCP2515/RXtoCANTC*%
X155842200Y-62438500D02*
X159795800Y-62438500D01*
X165819100Y-69369700D02*
X168028400Y-71579000D01*
X168028400Y-71579000D02*
X168429800Y-71579000D01*
X151883700Y-66397000D02*
X155842200Y-62438500D01*
X159795800Y-62438500D02*
X165819100Y-68461800D01*
X165819100Y-68461800D02*
X165819100Y-69369700D01*
X151455100Y-66397000D02*
X151883700Y-66397000D01*
%TO.N,/CANBUS-MCP2515/TXtoCANTC*%
X154545300Y-62036800D02*
X162697600Y-62036800D01*
X151455100Y-65127000D02*
X154545300Y-62036800D01*
X162697600Y-62036800D02*
X168429800Y-67769000D01*
%TO.N,Net-(J3-Pin_6)*%
X138717100Y-117199700D02*
X134067300Y-121849500D01*
X134067300Y-121849500D02*
X134067300Y-124094700D01*
%TO.N,Net-(U2-XTAL1{slash}PB6)*%
X141157800Y-103183500D02*
X140929500Y-103183500D01*
X140929500Y-102081800D02*
X140929500Y-103183500D01*
X142034400Y-118047000D02*
X140394300Y-118047000D01*
X140394300Y-118047000D02*
X139087200Y-119354100D01*
X144012200Y-118047000D02*
X142034400Y-118047000D01*
X142034400Y-118047000D02*
X142034400Y-104060100D01*
X142034400Y-104060100D02*
X141157800Y-103183500D01*
%TO.N,Net-(U2-XTAL2{slash}PB7)*%
X139826200Y-113564200D02*
X139826200Y-106598500D01*
X139826200Y-106598500D02*
X140701200Y-105723500D01*
X140929500Y-104621800D02*
X140929500Y-105723500D01*
X135888500Y-119354100D02*
X137391900Y-117850700D01*
X137391900Y-115998500D02*
X139826200Y-113564200D01*
X140701200Y-105723500D02*
X140929500Y-105723500D01*
X134207200Y-119354100D02*
X135888500Y-119354100D01*
X137391900Y-117850700D02*
X137391900Y-115998500D01*
%TO.N,Net-(U3-OSC2)*%
X150127800Y-64591000D02*
X151536800Y-63182000D01*
X151710500Y-117120000D02*
X156548700Y-117120000D01*
X151710500Y-80688500D02*
X155272900Y-77126100D01*
X151710500Y-117120000D02*
X151710500Y-80688500D01*
X150709400Y-118121100D02*
X151710500Y-117120000D01*
X151055700Y-72747000D02*
X150127800Y-71819100D01*
X151455100Y-72747000D02*
X151055700Y-72747000D01*
X150709400Y-119523900D02*
X150709400Y-118121100D01*
X150127800Y-71819100D02*
X150127800Y-64591000D01*
%TO.N,Net-(U3-OSC1)*%
X160054100Y-65118000D02*
X160054100Y-67238000D01*
X164801900Y-72425000D02*
X162611700Y-74615200D01*
X151455100Y-74017000D02*
X151944300Y-74017000D01*
X156578300Y-62840200D02*
X157776300Y-62840200D01*
X152840100Y-66578400D02*
X156578300Y-62840200D01*
X152840100Y-73121200D02*
X152840100Y-66578400D01*
X151944300Y-74017000D02*
X152840100Y-73121200D01*
X155474800Y-99003300D02*
X157308300Y-100836800D01*
X162611700Y-74615200D02*
X162611700Y-78329300D01*
X157308300Y-100836800D02*
X157308300Y-119543000D01*
X157776300Y-62840200D02*
X160054100Y-65118000D01*
X164459500Y-69674000D02*
X164801900Y-70016400D01*
X155474800Y-85466200D02*
X155474800Y-99003300D01*
X164801900Y-70016400D02*
X164801900Y-72425000D01*
X162611700Y-78329300D02*
X155474800Y-85466200D01*
X160054100Y-67238000D02*
X162490100Y-69674000D01*
X162490100Y-69674000D02*
X164459500Y-69674000D01*
%TO.N,Net-(J5-Pin_2)*%
X141589600Y-60586800D02*
X141442200Y-60586800D01*
X141442200Y-60586800D02*
X139116100Y-58260700D01*
X141589600Y-61738500D02*
X141589600Y-60586800D01*
%TO.N,Net-(U3-~{RESET})*%
X144703000Y-87196800D02*
X143754600Y-86248400D01*
X142155100Y-66397000D02*
X141716800Y-66397000D01*
X136978400Y-71135400D02*
X136978400Y-73590800D01*
X143754600Y-86248400D02*
X143754600Y-85478800D01*
X141716800Y-66397000D02*
X136978400Y-71135400D01*
X135186600Y-75382600D02*
X135186600Y-75411200D01*
X136978400Y-73590800D02*
X135186600Y-75382600D01*
%TO.N,Net-(U4-Rs)*%
X165207500Y-69128500D02*
X165207500Y-74417600D01*
X165207500Y-74417600D02*
X163881700Y-75743400D01*
X163848000Y-67769000D02*
X165207500Y-69128500D01*
X163479800Y-67769000D02*
X163848000Y-67769000D01*
%TO.N,/MAX31865AAP+1/RTDin-*%
X176155300Y-82736100D02*
X177309500Y-82736100D01*
X177204100Y-85024500D02*
X177309500Y-84919100D01*
X159386900Y-84377700D02*
X163761000Y-84377700D01*
X176155300Y-82736100D02*
X174079000Y-82736100D01*
X174079000Y-82736100D02*
X169740800Y-78397900D01*
X163761000Y-84377700D02*
X169740800Y-78397900D01*
X177309500Y-84919100D02*
X177309500Y-82736100D01*
X156631800Y-85981100D02*
X157783500Y-85981100D01*
X157783500Y-85981100D02*
X159386900Y-84377700D01*
%TO.N,/MAX31865AAP+2/3.3V*%
X180344900Y-88259800D02*
X180025200Y-88579500D01*
X172930400Y-87030400D02*
X172022800Y-87938000D01*
X181659900Y-91349400D02*
X180344900Y-90034400D01*
X178276000Y-88120800D02*
X178276000Y-87412500D01*
X168507600Y-87938000D02*
X166999500Y-89446100D01*
X181659900Y-91349400D02*
X181658400Y-91349400D01*
X182812600Y-91349400D02*
X181759300Y-91349400D01*
X177893900Y-87030400D02*
X172930400Y-87030400D01*
X180025200Y-88579500D02*
X178734700Y-88579500D01*
X181759300Y-91349400D02*
X181659900Y-91349400D01*
X182812600Y-91999400D02*
X181658400Y-91999400D01*
X178734700Y-88579500D02*
X178276000Y-88120800D01*
X180344900Y-90034400D02*
X180344900Y-88259800D01*
X178276000Y-87412500D02*
X177893900Y-87030400D01*
X172022800Y-87938000D02*
X168507600Y-87938000D01*
X181658400Y-91999400D02*
X181658400Y-91349400D01*
%TO.N,/MAX31865AAP+2/GND*%
X175816600Y-91349400D02*
X176970800Y-91349400D01*
X178096100Y-92474700D02*
X176970800Y-91349400D01*
X177219900Y-88382100D02*
X176970800Y-88631200D01*
X169282900Y-88631200D02*
X168313600Y-89600500D01*
X175816600Y-95249400D02*
X176970800Y-95249400D01*
X178096100Y-94124100D02*
X178096100Y-92474700D01*
X166999500Y-92571100D02*
X166999500Y-92701700D01*
X176970800Y-88631200D02*
X176970800Y-91349400D01*
X166999500Y-92701700D02*
X163868900Y-95832300D01*
X176970800Y-95249400D02*
X178096100Y-94124100D01*
X177219900Y-88259800D02*
X177219900Y-88382100D01*
X176970800Y-88631200D02*
X169282900Y-88631200D01*
X176970800Y-91999400D02*
X176970800Y-91349400D01*
X163868900Y-95832300D02*
X163522200Y-95832300D01*
X163522200Y-96984000D02*
X163522200Y-95832300D01*
X168313600Y-91257000D02*
X166999500Y-92571100D01*
X168313600Y-89600500D02*
X168313600Y-91257000D01*
X175816600Y-91999400D02*
X176970800Y-91999400D01*
%TO.N,/MAX31865AAP+2/RTDIn+*%
X179979500Y-98152700D02*
X179954600Y-98152700D01*
X181582800Y-96549400D02*
X182812600Y-96549400D01*
X180643600Y-98878600D02*
X180643600Y-97488600D01*
X179979500Y-98214500D02*
X180643600Y-98878600D01*
X179979500Y-98152700D02*
X179979500Y-98214500D01*
X180643600Y-97488600D02*
X181582800Y-96549400D01*
%TO.N,/MAX31865AAP+2/RTDin-*%
X161212600Y-90729200D02*
X156687400Y-95254400D01*
X177055200Y-96549400D02*
X177055200Y-96316500D01*
X177055200Y-96316500D02*
X177778400Y-95593300D01*
X177055200Y-96549400D02*
X177055200Y-98415200D01*
X176589400Y-96549400D02*
X177055200Y-96549400D01*
X175816600Y-96549400D02*
X176589400Y-96549400D01*
X177055200Y-98415200D02*
X177518600Y-98878600D01*
X156687400Y-95254400D02*
X156687400Y-96704500D01*
%TO.N,/MAX31865AAP+3/GND*%
X164014500Y-102901200D02*
X165563100Y-101352600D01*
X173515900Y-102784500D02*
X172938800Y-102784500D01*
X172361700Y-106034500D02*
X172282800Y-105955600D01*
X168011200Y-102027200D02*
X168011200Y-104715200D01*
X172282800Y-102863400D02*
X172361700Y-102784500D01*
X165563100Y-101352600D02*
X165563100Y-101166300D01*
X164014500Y-104924900D02*
X164014500Y-102901200D01*
X173515900Y-106034500D02*
X172361700Y-106034500D01*
X161047400Y-108773100D02*
X161047400Y-107621400D01*
X168011200Y-104715200D02*
X169251600Y-105955600D01*
X173515900Y-102134500D02*
X172361700Y-102134500D01*
X161047400Y-107621400D02*
X161318000Y-107621400D01*
X172616600Y-102784500D02*
X172361700Y-102784500D01*
X172361700Y-102529600D02*
X172361700Y-102134500D01*
X172938800Y-102784500D02*
X172616600Y-102784500D01*
X172282800Y-105955600D02*
X172282800Y-102863400D01*
X165563100Y-101104200D02*
X164322900Y-99864000D01*
X167150300Y-101166300D02*
X168011200Y-102027200D01*
X161318000Y-107621400D02*
X164014500Y-104924900D01*
X165563100Y-101166300D02*
X167150300Y-101166300D01*
X172282800Y-105955600D02*
X169251600Y-105955600D01*
X165563100Y-101166300D02*
X165563100Y-101104200D01*
X172616600Y-102784500D02*
X172361700Y-102529600D01*
%TO.N,/MAX31865AAP+3/3.3V*%
X167447900Y-99864000D02*
X169251600Y-101667700D01*
X169251600Y-101667700D02*
X169251600Y-102672600D01*
X179357700Y-102672600D02*
X179357700Y-102784500D01*
X180511900Y-102134500D02*
X179357700Y-102134500D01*
X180511900Y-102784500D02*
X179357700Y-102784500D01*
X179148500Y-102672600D02*
X179357700Y-102672600D01*
X169251600Y-102672600D02*
X169251600Y-102830600D01*
X179357700Y-102134500D02*
X179357700Y-102672600D01*
X169251600Y-102672600D02*
X170656800Y-102672600D01*
%TO.N,/MAX31865AAP+3/RTDIn+*%
X174986790Y-106931418D02*
X175778420Y-107723048D01*
X180123352Y-107723048D02*
X180511900Y-107334500D01*
X175778420Y-107723048D02*
X180123352Y-107723048D01*
X166572100Y-110206600D02*
X167973800Y-110206600D01*
X167973800Y-110206600D02*
X168032400Y-110148000D01*
X168032400Y-110148000D02*
X171178100Y-110148000D01*
X174867921Y-106931418D02*
X174986790Y-106931418D01*
%TO.N,/MAX31865AAP+3/RTDin-*%
X172838600Y-111612500D02*
X174303100Y-110148000D01*
X165310500Y-111612500D02*
X172838600Y-111612500D01*
X172495637Y-107334500D02*
X172447432Y-107382705D01*
X165170400Y-111472400D02*
X165310500Y-111612500D01*
X165170400Y-103988300D02*
X165170400Y-111472400D01*
X166572100Y-102586600D02*
X165170400Y-103988300D01*
X173515900Y-107334500D02*
X172495637Y-107334500D01*
X172447432Y-107382705D02*
X172447432Y-108292332D01*
X172447432Y-108292332D02*
X174303100Y-110148000D01*
%TO.N,/MAX31865AAP+1/MOSI3v*%
X177819600Y-86279200D02*
X178177200Y-85921600D01*
X175907300Y-104147300D02*
X175907300Y-100140400D01*
X173736800Y-96957400D02*
X173736800Y-95205500D01*
X175907400Y-99128000D02*
X173736800Y-96957400D01*
X171723400Y-87528100D02*
X172972300Y-86279200D01*
X166020000Y-87528100D02*
X171723400Y-87528100D01*
X172972300Y-86279200D02*
X177819600Y-86279200D01*
X162310000Y-90985500D02*
X162802800Y-90492700D01*
X173736800Y-95205500D02*
X174342900Y-94599400D01*
X178177200Y-85921600D02*
X178177200Y-81653800D01*
X162802800Y-90492700D02*
X163055400Y-90492700D01*
X175907300Y-100140400D02*
X175907400Y-100140400D01*
X119128800Y-96778400D02*
X129372800Y-107022400D01*
X162310000Y-101103100D02*
X162310000Y-90985500D01*
X175907400Y-100140400D02*
X175907400Y-99128000D01*
X163055400Y-90492700D02*
X166020000Y-87528100D01*
X173515900Y-105384500D02*
X174670100Y-105384500D01*
X178177200Y-81653800D02*
X177309500Y-80786100D01*
X175816600Y-94599400D02*
X174662400Y-94599400D01*
X174670100Y-105384500D02*
X175907300Y-104147300D01*
X176155300Y-80786100D02*
X177309500Y-80786100D01*
X129372800Y-107022400D02*
X129372800Y-107412200D01*
X162308500Y-101104600D02*
X162310000Y-101103100D01*
X174342900Y-94599400D02*
X174662400Y-94599400D01*
%TO.N,Net-(IC1-BIAS)*%
X181997100Y-79486100D02*
X181997100Y-78836100D01*
X183151300Y-78836100D02*
X181997100Y-78836100D01*
X181501500Y-78836100D02*
X181443300Y-78777900D01*
X183151300Y-79486100D02*
X181997100Y-79486100D01*
X181997100Y-78836100D02*
X181501500Y-78836100D01*
%TO.N,/MAX31865AAP+1/SLC3v*%
X175816600Y-93949400D02*
X174662400Y-93949400D01*
X178731700Y-87715200D02*
X178731700Y-81558300D01*
X177315300Y-93949400D02*
X177487000Y-93777700D01*
X176155300Y-80136100D02*
X177309500Y-80136100D01*
X175816600Y-93949400D02*
X177315300Y-93949400D01*
X174373600Y-93949400D02*
X173335100Y-94987900D01*
X173335100Y-94987900D02*
X173335100Y-98299000D01*
X175503900Y-103900700D02*
X174670100Y-104734500D01*
X173335100Y-98299000D02*
X174875200Y-99839100D01*
X173515900Y-104734500D02*
X174670100Y-104734500D01*
X174662400Y-93949400D02*
X174373600Y-93949400D01*
X133428200Y-99429100D02*
X127935200Y-93936100D01*
X174875200Y-100046700D02*
X175503900Y-100675400D01*
X178968500Y-87952000D02*
X178731700Y-87715200D01*
X127935200Y-93936100D02*
X127935200Y-93145400D01*
X178731700Y-81558300D02*
X177309500Y-80136100D01*
X174875200Y-99839100D02*
X174875200Y-100046700D01*
X175503900Y-100675400D02*
X175503900Y-103900700D01*
%TO.N,/MAX31865AAP+1/CS3v*%
X175001100Y-79406900D02*
X174724100Y-79129900D01*
X175001100Y-79486100D02*
X175001100Y-79406900D01*
X176155300Y-79486100D02*
X175001100Y-79486100D01*
%TO.N,Net-(IC1-FORCE2)*%
X168091400Y-78061700D02*
X169794800Y-76358300D01*
X164056800Y-83204400D02*
X168091400Y-79169800D01*
X183151300Y-82086100D02*
X181997100Y-82086100D01*
X168091400Y-79169800D02*
X168091400Y-78061700D01*
X169794800Y-76358300D02*
X177165900Y-76358300D01*
X177593200Y-78097000D02*
X181582300Y-82086100D01*
X177593200Y-76785600D02*
X177593200Y-78097000D01*
X177165900Y-76358300D02*
X177593200Y-76785600D01*
X181582300Y-82086100D02*
X181997100Y-82086100D01*
X162905100Y-83204400D02*
X164056800Y-83204400D01*
%TO.N,Net-(IC1-ISENSOR)*%
X180221019Y-76607049D02*
X180221019Y-78406419D01*
X183151300Y-80786100D02*
X181997100Y-80786100D01*
X180221019Y-78406419D02*
X181950700Y-80136100D01*
X181997100Y-80786100D02*
X181997100Y-80136100D01*
X183151300Y-80136100D02*
X181997100Y-80136100D01*
X181950700Y-80136100D02*
X181997100Y-80136100D01*
%TO.N,/MAX31865AAP+1/MISO3v*%
X179333400Y-86547700D02*
X179333400Y-80860000D01*
X172902500Y-99631600D02*
X174095200Y-100824300D01*
X172902500Y-94409300D02*
X172902500Y-99631600D01*
X179333400Y-80860000D02*
X177309500Y-78836100D01*
X175816600Y-92649400D02*
X174662400Y-92649400D01*
X173515900Y-103434500D02*
X174670100Y-103434500D01*
X174386400Y-100824300D02*
X174670100Y-101108000D01*
X174095200Y-100824300D02*
X174386400Y-100824300D01*
X174662400Y-92649400D02*
X174662400Y-89240700D01*
X174662400Y-92649400D02*
X172902500Y-94409300D01*
X174670100Y-101108000D02*
X174670100Y-103434500D01*
X176155300Y-78836100D02*
X177309500Y-78836100D01*
%TO.N,/MAX31865AAP+1/FORCE+*%
X183151300Y-81436100D02*
X181997100Y-81436100D01*
X181997100Y-81436100D02*
X181934200Y-81373200D01*
X181934200Y-81373200D02*
X181728300Y-81373200D01*
%TO.N,/MAX31865AAP+1/FORCE-*%
X176155300Y-82086100D02*
X175001100Y-82086100D01*
X175001100Y-82050600D02*
X174373100Y-81422600D01*
X175001100Y-82086100D02*
X175001100Y-82050600D01*
%TO.N,/MAX31865AAP+2/CS3v*%
X158814200Y-119527400D02*
X152235400Y-126106200D01*
X175816600Y-93299400D02*
X176970800Y-93299400D01*
X162999800Y-89599400D02*
X161908300Y-90690900D01*
X161908300Y-90690900D02*
X161908300Y-90884400D01*
X124067368Y-108012200D02*
X129621818Y-108012200D01*
X124734044Y-126106200D02*
X122823175Y-124195331D01*
X161908300Y-90884400D02*
X158814200Y-93978500D01*
X122823175Y-124195331D02*
X122823175Y-109256393D01*
X176970800Y-93125200D02*
X177252300Y-92843700D01*
X129621818Y-108012200D02*
X129974600Y-107659418D01*
X129974600Y-105411500D02*
X122989300Y-98426200D01*
X152235400Y-126106200D02*
X124734044Y-126106200D01*
X122823175Y-109256393D02*
X124067368Y-108012200D01*
X129974600Y-107659418D02*
X129974600Y-105411500D01*
X176970800Y-93299400D02*
X176970800Y-93125200D01*
X122989300Y-98426200D02*
X122989300Y-96253900D01*
X158814200Y-93978500D02*
X158814200Y-119527400D01*
%TO.N,Net-(IC2-ISENSOR)*%
X181669000Y-94508600D02*
X181669000Y-94508500D01*
X182812600Y-93949400D02*
X181658400Y-93949400D01*
X181658400Y-94508500D02*
X181658400Y-93949400D01*
X181065182Y-94508600D02*
X180834332Y-94277750D01*
X181669000Y-94508600D02*
X181065182Y-94508600D01*
X181759800Y-94599400D02*
X181669000Y-94508600D01*
X181669000Y-94508500D02*
X181658400Y-94508500D01*
X182812600Y-94599400D02*
X181759800Y-94599400D01*
%TO.N,Net-(IC2-BIAS)*%
X182812600Y-92649400D02*
X181658400Y-92649400D01*
X181658400Y-93299400D02*
X181658400Y-92649400D01*
X182812600Y-93299400D02*
X181658400Y-93299400D01*
X181108039Y-93299400D02*
X180826357Y-93017718D01*
X181658400Y-93299400D02*
X181108039Y-93299400D01*
%TO.N,/MAX31865AAP+2/FORCE+*%
X182812600Y-95249400D02*
X181658400Y-95249400D01*
X181658400Y-95324700D02*
X180717000Y-96266100D01*
X181658400Y-95249400D02*
X181658400Y-95324700D01*
%TO.N,/MAX31865AAP+2/FORCE-*%
X174662400Y-95849400D02*
X174339800Y-95526800D01*
X174662400Y-95899400D02*
X174662400Y-95849400D01*
X166352300Y-96084100D02*
X165254800Y-96084100D01*
X175816600Y-95899400D02*
X174662400Y-95899400D01*
X169777600Y-92658800D02*
X166352300Y-96084100D01*
%TO.N,Net-(IC2-FORCE2)*%
X183966800Y-95899400D02*
X183966800Y-96899400D01*
X183491700Y-97374500D02*
X181608500Y-97374500D01*
X183966800Y-96899400D02*
X183491700Y-97374500D01*
X182812600Y-95899400D02*
X183966800Y-95899400D01*
%TO.N,/MAX31865AAP+3/CS3v*%
X175087000Y-100927400D02*
X173770000Y-99610400D01*
X175087000Y-103667600D02*
X175087000Y-100927400D01*
X173515900Y-104084500D02*
X174670100Y-104084500D01*
X174670100Y-104084500D02*
X175087000Y-103667600D01*
%TO.N,/MAX31865AAP+3/FORCE+*%
X180511900Y-106034500D02*
X179241200Y-106034500D01*
X179241200Y-106034500D02*
X178946200Y-106329500D01*
X178946200Y-106329500D02*
X178346700Y-106329500D01*
%TO.N,/MAX31865AAP+3/FORCE-*%
X171576200Y-106684500D02*
X171325500Y-106935200D01*
X171325500Y-106935200D02*
X168380700Y-106935200D01*
X173515900Y-106684500D02*
X171576200Y-106684500D01*
X168380700Y-106935200D02*
X166572100Y-105126600D01*
%TO.N,Net-(IC3-BIAS)*%
X183193977Y-101804923D02*
X181564400Y-103434500D01*
X180511900Y-103434500D02*
X180511900Y-104084500D01*
X181564400Y-103434500D02*
X180511900Y-103434500D01*
X183193977Y-101059766D02*
X183193977Y-101804923D01*
%TO.N,Net-(IC3-FORCE2)*%
X162437200Y-104506100D02*
X161861900Y-105081400D01*
X161047400Y-106233100D02*
X161047400Y-105081400D01*
X164357700Y-101658900D02*
X162437200Y-103579400D01*
X179159200Y-106684500D02*
X180511900Y-106684500D01*
X161861900Y-105081400D02*
X161047400Y-105081400D01*
X178733900Y-107109800D02*
X179159200Y-106684500D01*
X162437200Y-103579400D02*
X162437200Y-104506100D01*
%TO.N,Net-(IC3-ISENSOR)*%
X183193977Y-104159766D02*
X182619243Y-104734500D01*
X180511900Y-105384500D02*
X180511900Y-104734500D01*
X182619243Y-104734500D02*
X180511900Y-104734500D01*
%TO.N,MOSI*%
X135174800Y-76957900D02*
X137103000Y-75029700D01*
X127584400Y-100412600D02*
X127584400Y-98688300D01*
X137103000Y-75029700D02*
X137103000Y-74816700D01*
X132442100Y-79477600D02*
X134961800Y-76957900D01*
X142155100Y-70207000D02*
X144524100Y-70207000D01*
X128087500Y-79477600D02*
X132442100Y-79477600D01*
X137103000Y-74816700D02*
X137783300Y-74136400D01*
X127584400Y-98688300D02*
X127268100Y-98372000D01*
X127268100Y-98372000D02*
X127268100Y-80297000D01*
X134961800Y-76957900D02*
X135174800Y-76957900D01*
X137783300Y-74136400D02*
X137783300Y-73594000D01*
X127268100Y-80297000D02*
X128087500Y-79477600D01*
X137783300Y-73594000D02*
X141170300Y-70207000D01*
X141170300Y-70207000D02*
X142155100Y-70207000D01*
%TO.N,MISO*%
X142155100Y-68937000D02*
X144495200Y-68937000D01*
X146134600Y-108475000D02*
X147447800Y-107161800D01*
X148549500Y-107161800D02*
X147447800Y-107161800D01*
X144495200Y-68937000D02*
X144528600Y-68903600D01*
X145385000Y-108475000D02*
X146134600Y-108475000D01*
%TO.N,CLK*%
X137906400Y-75259100D02*
X141411200Y-71754300D01*
X120862600Y-93224500D02*
X117409300Y-93224500D01*
X144800200Y-73086400D02*
X143468100Y-71754300D01*
X141411200Y-71754300D02*
X142155100Y-71754300D01*
X126074700Y-80795100D02*
X120862600Y-86007200D01*
X126280800Y-98642700D02*
X126280800Y-98943100D01*
X117409300Y-93224500D02*
X117353300Y-93280500D01*
X142155100Y-71754300D02*
X142155100Y-71477000D01*
X143468100Y-71754300D02*
X142155100Y-71754300D01*
X134705000Y-78885300D02*
X137906400Y-75683900D01*
X146555400Y-73086400D02*
X144800200Y-73086400D01*
X120862600Y-86007200D02*
X120862600Y-93224500D01*
X120862600Y-93224500D02*
X126280800Y-98642700D01*
X137906400Y-75683900D02*
X137906400Y-75259100D01*
%TD*%
M02*
