%TF.GenerationSoftware,KiCad,Pcbnew,8.0.1-rc1*%
%TF.CreationDate,2024-05-25T10:36:43-07:00*%
%TF.ProjectId,AMS - CANBus Sensor - Temperature,414d5320-2d20-4434-914e-427573205365,rev?*%
%TF.SameCoordinates,Original*%
%TF.FileFunction,Copper,L1,Top*%
%TF.FilePolarity,Positive*%
%FSLAX46Y46*%
G04 Gerber Fmt 4.6, Leading zero omitted, Abs format (unit mm)*
G04 Created by KiCad (PCBNEW 8.0.1-rc1) date 2024-05-25 10:36:43*
%MOMM*%
%LPD*%
G01*
G04 APERTURE LIST*
G04 Aperture macros list*
%AMRoundRect*
0 Rectangle with rounded corners*
0 $1 Rounding radius*
0 $2 $3 $4 $5 $6 $7 $8 $9 X,Y pos of 4 corners*
0 Add a 4 corners polygon primitive as box body*
4,1,4,$2,$3,$4,$5,$6,$7,$8,$9,$2,$3,0*
0 Add four circle primitives for the rounded corners*
1,1,$1+$1,$2,$3*
1,1,$1+$1,$4,$5*
1,1,$1+$1,$6,$7*
1,1,$1+$1,$8,$9*
0 Add four rect primitives between the rounded corners*
20,1,$1+$1,$2,$3,$4,$5,0*
20,1,$1+$1,$4,$5,$6,$7,0*
20,1,$1+$1,$6,$7,$8,$9,0*
20,1,$1+$1,$8,$9,$2,$3,0*%
G04 Aperture macros list end*
%TA.AperFunction,SMDPad,CuDef*%
%ADD10RoundRect,0.250000X0.412500X0.650000X-0.412500X0.650000X-0.412500X-0.650000X0.412500X-0.650000X0*%
%TD*%
%TA.AperFunction,ComponentPad*%
%ADD11R,1.700000X1.700000*%
%TD*%
%TA.AperFunction,ComponentPad*%
%ADD12O,1.700000X1.700000*%
%TD*%
%TA.AperFunction,SMDPad,CuDef*%
%ADD13RoundRect,0.250000X-0.650000X0.412500X-0.650000X-0.412500X0.650000X-0.412500X0.650000X0.412500X0*%
%TD*%
%TA.AperFunction,SMDPad,CuDef*%
%ADD14RoundRect,0.250000X-0.625000X0.400000X-0.625000X-0.400000X0.625000X-0.400000X0.625000X0.400000X0*%
%TD*%
%TA.AperFunction,ComponentPad*%
%ADD15C,1.600000*%
%TD*%
%TA.AperFunction,ComponentPad*%
%ADD16O,1.600000X1.600000*%
%TD*%
%TA.AperFunction,ComponentPad*%
%ADD17R,2.200000X2.200000*%
%TD*%
%TA.AperFunction,ComponentPad*%
%ADD18C,2.200000*%
%TD*%
%TA.AperFunction,SMDPad,CuDef*%
%ADD19R,1.525000X0.650000*%
%TD*%
%TA.AperFunction,ComponentPad*%
%ADD20C,2.400000*%
%TD*%
%TA.AperFunction,SMDPad,CuDef*%
%ADD21R,1.000000X3.150000*%
%TD*%
%TA.AperFunction,ComponentPad*%
%ADD22R,1.600000X1.600000*%
%TD*%
%TA.AperFunction,ComponentPad*%
%ADD23R,1.920000X1.920000*%
%TD*%
%TA.AperFunction,ComponentPad*%
%ADD24C,1.920000*%
%TD*%
%TA.AperFunction,SMDPad,CuDef*%
%ADD25RoundRect,0.250000X-0.400000X-0.625000X0.400000X-0.625000X0.400000X0.625000X-0.400000X0.625000X0*%
%TD*%
%TA.AperFunction,ComponentPad*%
%ADD26C,1.500000*%
%TD*%
%TA.AperFunction,ComponentPad*%
%ADD27R,1.500000X1.500000*%
%TD*%
%TA.AperFunction,SMDPad,CuDef*%
%ADD28R,1.850000X0.900000*%
%TD*%
%TA.AperFunction,SMDPad,CuDef*%
%ADD29R,1.850000X3.200000*%
%TD*%
%TA.AperFunction,ViaPad*%
%ADD30C,0.600000*%
%TD*%
%TA.AperFunction,Conductor*%
%ADD31C,0.200000*%
%TD*%
%TA.AperFunction,Conductor*%
%ADD32C,0.762000*%
%TD*%
G04 APERTURE END LIST*
D10*
%TO.P,C17,1*%
%TO.N,GND*%
X118974700Y-86057600D03*
%TO.P,C17,2*%
%TO.N,+3.3V*%
X115849700Y-86057600D03*
%TD*%
D11*
%TO.P,J2,1,Pin_1*%
%TO.N,/MAX31865AAP+1/FORCE+*%
X154427100Y-80520700D03*
D12*
%TO.P,J2,2,Pin_2*%
%TO.N,/MAX31865AAP+1/RTDIn+*%
X156967100Y-80520700D03*
%TD*%
D13*
%TO.P,C3,1*%
%TO.N,Net-(U2-XTAL2{slash}PB7)*%
X144005700Y-118034500D03*
%TO.P,C3,2*%
%TO.N,GND*%
X144005700Y-121159500D03*
%TD*%
D11*
%TO.P,J10,1,Pin_1*%
%TO.N,/MAX31865AAP+2/FORCE-*%
X154147400Y-96704500D03*
D12*
%TO.P,J10,2,Pin_2*%
%TO.N,/MAX31865AAP+2/RTDin-*%
X156687400Y-96704500D03*
%TD*%
D14*
%TO.P,R10,1*%
%TO.N,Net-(IC3-BIAS)*%
X183193977Y-101059766D03*
%TO.P,R10,2*%
%TO.N,Net-(IC3-ISENSOR)*%
X183193977Y-104159766D03*
%TD*%
D15*
%TO.P,R7,1*%
%TO.N,Net-(J5-Pin_2)*%
X139116100Y-58260700D03*
D16*
%TO.P,R7,2*%
%TO.N,CANBUS_L*%
X141656100Y-58260700D03*
%TD*%
D17*
%TO.P,J1,1,Pin_1*%
%TO.N,Net-(J1-Pin_1)*%
X157148000Y-71872800D03*
D18*
%TO.P,J1,2,Pin_2*%
%TO.N,GND*%
X157148000Y-69332800D03*
%TO.P,J1,3,Pin_3*%
%TO.N,CANBUS_H*%
X157148000Y-66792800D03*
%TO.P,J1,4,Pin_4*%
%TO.N,CANBUS_L*%
X157148000Y-64252800D03*
%TD*%
D15*
%TO.P,NTC1,1*%
%TO.N,/BareMinAtmel328P/PC0-A0*%
X135965600Y-94809500D03*
D16*
%TO.P,NTC1,2*%
%TO.N,+5V*%
X135965600Y-97349500D03*
%TD*%
D11*
%TO.P,J3,1,Pin_1*%
%TO.N,GND*%
X146767300Y-124094700D03*
D12*
%TO.P,J3,2,Pin_2*%
%TO.N,unconnected-(J3-Pin_2-Pad2)*%
X144227300Y-124094700D03*
%TO.P,J3,3,Pin_3*%
%TO.N,+5V*%
X141687300Y-124094700D03*
%TO.P,J3,4,Pin_4*%
%TO.N,/BareMinAtmel328P/PD0-RX*%
X139147300Y-124094700D03*
%TO.P,J3,5,Pin_5*%
%TO.N,/BareMinAtmel328P/PD1-TX*%
X136607300Y-124094700D03*
%TO.P,J3,6,Pin_6*%
%TO.N,Net-(J3-Pin_6)*%
X134067300Y-124094700D03*
%TD*%
D17*
%TO.P,J15,1,Pin_1*%
%TO.N,/MAX31865AAP+2/RTDIn+*%
X169777600Y-97738800D03*
D18*
%TO.P,J15,2,Pin_2*%
%TO.N,/MAX31865AAP+2/FORCE+*%
X169777600Y-95198800D03*
%TO.P,J15,3,Pin_3*%
%TO.N,/MAX31865AAP+2/FORCE-*%
X169777600Y-92658800D03*
%TO.P,J15,4,Pin_4*%
%TO.N,/MAX31865AAP+2/RTDin-*%
X169777600Y-90118800D03*
%TD*%
D14*
%TO.P,R9,1*%
%TO.N,Net-(IC2-BIAS)*%
X183359918Y-92343572D03*
%TO.P,R9,2*%
%TO.N,Net-(IC2-ISENSOR)*%
X183359918Y-95443572D03*
%TD*%
D11*
%TO.P,J7,1,Pin_1*%
%TO.N,/MAX31865AAP+1/FORCE-*%
X154091800Y-85981100D03*
D12*
%TO.P,J7,2,Pin_2*%
%TO.N,/MAX31865AAP+1/RTDin-*%
X156631800Y-85981100D03*
%TD*%
D19*
%TO.P,IC4,1,VCC*%
%TO.N,+3.3V*%
X116067100Y-90853000D03*
%TO.P,IC4,2,1Y*%
%TO.N,/MAX31865AAP+1/SLC3v*%
X116067100Y-92123000D03*
%TO.P,IC4,3,1A*%
%TO.N,CLK*%
X116067100Y-93393000D03*
%TO.P,IC4,4,2Y*%
%TO.N,MISO*%
X116067100Y-94663000D03*
%TO.P,IC4,5,2A*%
%TO.N,/MAX31865AAP+1/MISO3v*%
X116067100Y-95933000D03*
%TO.P,IC4,6,3Y*%
%TO.N,/MAX31865AAP+1/MOSI3v*%
X116067100Y-97203000D03*
%TO.P,IC4,7,3A*%
%TO.N,MOSI*%
X116067100Y-98473000D03*
%TO.P,IC4,8,GND*%
%TO.N,GND*%
X116067100Y-99743000D03*
%TO.P,IC4,9,4A*%
%TO.N,/BareMinAtmel328P/PD5-D5*%
X121491100Y-99743000D03*
%TO.P,IC4,10,4Y*%
%TO.N,/MAX31865AAP+3/CS3v*%
X121491100Y-98473000D03*
%TO.P,IC4,11,5A*%
%TO.N,/BareMinAtmel328P/PD4-D4*%
X121491100Y-97203000D03*
%TO.P,IC4,12,5Y*%
%TO.N,/MAX31865AAP+2/CS3v*%
X121491100Y-95933000D03*
%TO.P,IC4,13,NC_1*%
%TO.N,unconnected-(IC4-NC_1-Pad13)*%
X121491100Y-94663000D03*
%TO.P,IC4,14,6A*%
%TO.N,/BareMinAtmel328P/PD3-D3*%
X121491100Y-93393000D03*
%TO.P,IC4,15,6Y*%
%TO.N,/MAX31865AAP+1/CS3v*%
X121491100Y-92123000D03*
%TO.P,IC4,16,NC_2*%
%TO.N,unconnected-(IC4-NC_2-Pad16)*%
X121491100Y-90853000D03*
%TD*%
D20*
%TO.P,U5,1,1*%
%TO.N,Net-(Q1-Pad3)*%
X134999500Y-70018000D03*
%TO.P,U5,2,2*%
X134999500Y-73418000D03*
%TO.P,U5,3,3*%
%TO.N,+VDC*%
X125079500Y-70018000D03*
%TO.P,U5,4,4*%
X125079500Y-73418000D03*
%TD*%
D11*
%TO.P,J8,1,Pin_1*%
%TO.N,/MAX31865AAP+2/FORCE+*%
X154099500Y-91526100D03*
D12*
%TO.P,J8,2,Pin_2*%
%TO.N,/MAX31865AAP+2/RTDIn+*%
X156639500Y-91526100D03*
%TD*%
D15*
%TO.P,R6,1*%
%TO.N,Net-(U4-Rs)*%
X163881700Y-75743400D03*
D16*
%TO.P,R6,2*%
%TO.N,GND*%
X161341700Y-75743400D03*
%TD*%
D17*
%TO.P,J14,1,Pin_1*%
%TO.N,/MAX31865AAP+1/RTDIn+*%
X169740800Y-86017900D03*
D18*
%TO.P,J14,2,Pin_2*%
%TO.N,/MAX31865AAP+1/FORCE+*%
X169740800Y-83477900D03*
%TO.P,J14,3,Pin_3*%
%TO.N,/MAX31865AAP+1/FORCE-*%
X169740800Y-80937900D03*
%TO.P,J14,4,Pin_4*%
%TO.N,/MAX31865AAP+1/RTDin-*%
X169740800Y-78397900D03*
%TD*%
D17*
%TO.P,J16,1,Pin_1*%
%TO.N,/MAX31865AAP+3/RTDIn+*%
X166572100Y-110206600D03*
D18*
%TO.P,J16,2,Pin_2*%
%TO.N,/MAX31865AAP+3/FORCE+*%
X166572100Y-107666600D03*
%TO.P,J16,3,Pin_3*%
%TO.N,/MAX31865AAP+3/FORCE-*%
X166572100Y-105126600D03*
%TO.P,J16,4,Pin_4*%
%TO.N,/MAX31865AAP+3/RTDin-*%
X166572100Y-102586600D03*
%TD*%
D11*
%TO.P,Powerboard1,1,Pin_1*%
%TO.N,+VDC*%
X130976300Y-87552600D03*
D12*
%TO.P,Powerboard1,2,Pin_2*%
%TO.N,+5V*%
X130976300Y-90092600D03*
%TO.P,Powerboard1,3,Pin_3*%
%TO.N,GND*%
X130976300Y-92632600D03*
%TD*%
D21*
%TO.P,J4,1,Pin_1*%
%TO.N,MISO*%
X148585100Y-70282000D03*
%TO.P,J4,2,Pin_2*%
%TO.N,CLK*%
X148585100Y-75332000D03*
%TO.P,J4,3,Pin_3*%
%TO.N,/BareMinAtmel328P/RESET*%
X146045100Y-70282000D03*
%TO.P,J4,4,Pin_4*%
%TO.N,+5V*%
X146045100Y-75332000D03*
%TO.P,J4,5,Pin_5*%
%TO.N,MOSI*%
X143505100Y-70282000D03*
%TO.P,J4,6,Pin_6*%
%TO.N,GND*%
X143505100Y-75332000D03*
%TD*%
D11*
%TO.P,J9,1,Pin_1*%
%TO.N,/MAX31865AAP+2/FORCE+*%
X163522200Y-91904000D03*
D12*
%TO.P,J9,2,Pin_2*%
%TO.N,Net-(IC2-FORCE2)*%
X163522200Y-94444000D03*
%TO.P,J9,3,Pin_3*%
%TO.N,/MAX31865AAP+2/GND*%
X163522200Y-96984000D03*
%TD*%
D22*
%TO.P,U2,1,~{RESET}/PC6*%
%TO.N,/BareMinAtmel328P/RESET*%
X140929500Y-81761800D03*
D16*
%TO.P,U2,2,PD0*%
%TO.N,/BareMinAtmel328P/PD0-RX*%
X140929500Y-84301800D03*
%TO.P,U2,3,PD1*%
%TO.N,/BareMinAtmel328P/PD1-TX*%
X140929500Y-86841800D03*
%TO.P,U2,4,PD2*%
%TO.N,/BareMinAtmel328P/PD2-D2*%
X140929500Y-89381800D03*
%TO.P,U2,5,PD3*%
%TO.N,/BareMinAtmel328P/PD3-D3*%
X140929500Y-91921800D03*
%TO.P,U2,6,PD4*%
%TO.N,/BareMinAtmel328P/PD4-D4*%
X140929500Y-94461800D03*
%TO.P,U2,7,VCC*%
%TO.N,+5V*%
X140929500Y-97001800D03*
%TO.P,U2,8,GND*%
%TO.N,GND*%
X140929500Y-99541800D03*
%TO.P,U2,9,XTAL1/PB6*%
%TO.N,Net-(U2-XTAL1{slash}PB6)*%
X140929500Y-102081800D03*
%TO.P,U2,10,XTAL2/PB7*%
%TO.N,Net-(U2-XTAL2{slash}PB7)*%
X140929500Y-104621800D03*
%TO.P,U2,11,PD5*%
%TO.N,/BareMinAtmel328P/PD5-D5*%
X140929500Y-107161800D03*
%TO.P,U2,12,PD6*%
%TO.N,/BareMinAtmel328P/PD6-D6*%
X140929500Y-109701800D03*
%TO.P,U2,13,PD7*%
%TO.N,/BareMinAtmel328P/PD7-D7*%
X140929500Y-112241800D03*
%TO.P,U2,14,PB0*%
%TO.N,/BareMinAtmel328P/PB0-D8*%
X140929500Y-114781800D03*
%TO.P,U2,15,PB1*%
%TO.N,/BareMinAtmel328P/PB1-D9*%
X148549500Y-114781800D03*
%TO.P,U2,16,PB2*%
%TO.N,/BareMinAtmel328P/PB2-D10-SS*%
X148549500Y-112241800D03*
%TO.P,U2,17,PB3*%
%TO.N,MOSI*%
X148549500Y-109701800D03*
%TO.P,U2,18,PB4*%
%TO.N,MISO*%
X148549500Y-107161800D03*
%TO.P,U2,19,PB5*%
%TO.N,CLK*%
X148549500Y-104621800D03*
%TO.P,U2,20,AVCC*%
%TO.N,+5V*%
X148549500Y-102081800D03*
%TO.P,U2,21,AREF*%
%TO.N,/BareMinAtmel328P/AREF*%
X148549500Y-99541800D03*
%TO.P,U2,22,GND*%
%TO.N,GND*%
X148549500Y-97001800D03*
%TO.P,U2,23,PC0*%
%TO.N,/BareMinAtmel328P/PC0-A0*%
X148549500Y-94461800D03*
%TO.P,U2,24,PC1*%
%TO.N,/BareMinAtmel328P/PC1-A1*%
X148549500Y-91921800D03*
%TO.P,U2,25,PC2*%
%TO.N,/BareMinAtmel328P/PC2-A2*%
X148549500Y-89381800D03*
%TO.P,U2,26,PC3*%
%TO.N,/BareMinAtmel328P/PC3-A3*%
X148549500Y-86841800D03*
%TO.P,U2,27,PC4*%
%TO.N,/BareMinAtmel328P/PC4-A4-SDA*%
X148549500Y-84301800D03*
%TO.P,U2,28,PC5*%
%TO.N,/BareMinAtmel328P/PC5-A5-SCL*%
X148549500Y-81761800D03*
%TD*%
D11*
%TO.P,J5,1,Pin_1*%
%TO.N,CANBUS_H*%
X139049600Y-61738500D03*
D12*
%TO.P,J5,2,Pin_2*%
%TO.N,Net-(J5-Pin_2)*%
X141589600Y-61738500D03*
%TD*%
D23*
%TO.P,Q1,1*%
%TO.N,Net-(Q1-Pad1)*%
X136586000Y-84423600D03*
D24*
%TO.P,Q1,2*%
%TO.N,Net-(J1-Pin_1)*%
X136586000Y-81883600D03*
%TO.P,Q1,3*%
%TO.N,Net-(Q1-Pad3)*%
X136586000Y-79343600D03*
%TD*%
D25*
%TO.P,R8,1*%
%TO.N,Net-(IC1-BIAS)*%
X177169968Y-76516523D03*
%TO.P,R8,2*%
%TO.N,Net-(IC1-ISENSOR)*%
X180269968Y-76516523D03*
%TD*%
D26*
%TO.P,Y2,1,1*%
%TO.N,Net-(U3-OSC1)*%
X157308300Y-119543000D03*
%TO.P,Y2,2,2*%
%TO.N,Net-(U3-OSC2)*%
X162188300Y-119543000D03*
%TD*%
D27*
%TO.P,Reset1,1,NO_1*%
%TO.N,/BareMinAtmel328P/RESET*%
X135385300Y-113752500D03*
D26*
%TO.P,Reset1,2,NO_2*%
%TO.N,unconnected-(Reset1-NO_2-Pad2)*%
X128885300Y-113752500D03*
%TO.P,Reset1,3,COM_1*%
%TO.N,GND*%
X135385300Y-109252500D03*
%TO.P,Reset1,4,COM_2*%
%TO.N,unconnected-(Reset1-COM_2-Pad4)*%
X128885300Y-109252500D03*
%TD*%
D11*
%TO.P,J6,1,Pin_1*%
%TO.N,/MAX31865AAP+1/FORCE+*%
X162905100Y-80664400D03*
D12*
%TO.P,J6,2,Pin_2*%
%TO.N,Net-(IC1-FORCE2)*%
X162905100Y-83204400D03*
%TO.P,J6,3,Pin_3*%
%TO.N,/MAX31865AAP+1/GND*%
X162905100Y-85744400D03*
%TD*%
D28*
%TO.P,IC5,1,INPUT*%
%TO.N,+5V*%
X115966900Y-78723300D03*
%TO.P,IC5,2,ADJ/GND_1*%
%TO.N,GND*%
X115966900Y-81023300D03*
%TO.P,IC5,3,OUTPUT*%
%TO.N,+3.3V*%
X115966900Y-83323300D03*
D29*
%TO.P,IC5,4,ADJ/GND_2*%
%TO.N,GND*%
X122166900Y-81023300D03*
%TD*%
D10*
%TO.P,C5,1*%
%TO.N,Net-(U3-OSC1)*%
X150719400Y-119543000D03*
%TO.P,C5,2*%
%TO.N,GND*%
X147594400Y-119543000D03*
%TD*%
D26*
%TO.P,Y1,1,1*%
%TO.N,Net-(U2-XTAL2{slash}PB7)*%
X134207200Y-119354100D03*
%TO.P,Y1,2,2*%
%TO.N,Net-(U2-XTAL1{slash}PB6)*%
X139087200Y-119354100D03*
%TD*%
D11*
%TO.P,J12,1,Pin_1*%
%TO.N,/MAX31865AAP+3/FORCE+*%
X161047400Y-103693100D03*
D12*
%TO.P,J12,2,Pin_2*%
%TO.N,Net-(IC3-FORCE2)*%
X161047400Y-106233100D03*
%TO.P,J12,3,Pin_3*%
%TO.N,/MAX31865AAP+3/GND*%
X161047400Y-108773100D03*
%TD*%
D11*
%TO.P,J11,1,Pin_1*%
%TO.N,/MAX31865AAP+3/FORCE+*%
X152867400Y-108259400D03*
D12*
%TO.P,J11,2,Pin_2*%
%TO.N,/MAX31865AAP+3/RTDIn+*%
X155407400Y-108259400D03*
%TD*%
D11*
%TO.P,J13,1,Pin_1*%
%TO.N,/MAX31865AAP+3/FORCE-*%
X152903300Y-102979900D03*
D12*
%TO.P,J13,2,Pin_2*%
%TO.N,/MAX31865AAP+3/RTDin-*%
X155443300Y-102979900D03*
%TD*%
D30*
%TO.N,GND*%
X166912000Y-69200100D03*
X134576800Y-99449400D03*
X142137100Y-77308100D03*
%TO.N,/BareMinAtmel328P/RESET*%
X155620300Y-74664100D03*
X154921400Y-72481400D03*
%TO.N,+5V*%
X142799200Y-99555100D03*
X145124600Y-72473300D03*
X142028000Y-88110200D03*
%TO.N,CANBUS_H*%
X161173200Y-67081800D03*
%TO.N,/MAX31865AAP+1/GND*%
X172066600Y-74532700D03*
X164379600Y-81999200D03*
X174497700Y-76963800D03*
%TO.N,/MAX31865AAP+1/RTDIn+*%
X180358200Y-86446500D03*
%TO.N,Net-(Q1-Pad1)*%
X132546900Y-81920300D03*
%TO.N,/BareMinAtmel328P/PD2-D2*%
X135297100Y-85794900D03*
%TO.N,Net-(U3-OSC2)*%
X156548700Y-117120000D03*
X155272900Y-77126100D03*
X151536800Y-63182000D03*
%TO.N,Net-(U3-~{RESET})*%
X143754600Y-85478800D03*
X135186600Y-75411200D03*
%TO.N,/MAX31865AAP+2/RTDIn+*%
X180643600Y-98878600D03*
%TO.N,/MAX31865AAP+2/RTDin-*%
X177778400Y-95593300D03*
X161212600Y-90729200D03*
%TO.N,/MAX31865AAP+3/3.3V*%
X170656800Y-102672600D03*
X179148500Y-102672600D03*
%TO.N,/MAX31865AAP+3/RTDIn+*%
X174867921Y-106931418D03*
%TO.N,/MAX31865AAP+1/MOSI3v*%
X175907400Y-100140400D03*
X129372800Y-107412200D03*
X162308500Y-101104600D03*
X119128800Y-96778400D03*
%TO.N,Net-(IC1-BIAS)*%
X181443300Y-78777900D03*
%TO.N,/MAX31865AAP+1/SLC3v*%
X133428200Y-99429100D03*
X177487000Y-93777700D03*
X174875200Y-99839100D03*
X178968500Y-87952000D03*
X127935200Y-93145400D03*
%TO.N,/MAX31865AAP+1/CS3v*%
X174724100Y-79129900D03*
%TO.N,Net-(IC1-ISENSOR)*%
X180221019Y-76607049D03*
%TO.N,/MAX31865AAP+1/MISO3v*%
X179333400Y-86547700D03*
X174662400Y-89240700D03*
%TO.N,/MAX31865AAP+1/FORCE+*%
X181728300Y-81373200D03*
%TO.N,/MAX31865AAP+1/FORCE-*%
X174373100Y-81422600D03*
%TO.N,/MAX31865AAP+2/CS3v*%
X162999800Y-89599400D03*
X122989300Y-96253900D03*
X177252300Y-92843700D03*
%TO.N,Net-(IC2-ISENSOR)*%
X180834332Y-94277750D03*
%TO.N,Net-(IC2-BIAS)*%
X180826357Y-93017718D03*
%TO.N,/MAX31865AAP+2/FORCE+*%
X180717000Y-96266100D03*
%TO.N,/MAX31865AAP+2/FORCE-*%
X174339800Y-95526800D03*
X165254800Y-96084100D03*
%TO.N,Net-(IC2-FORCE2)*%
X181608500Y-97374500D03*
%TO.N,/MAX31865AAP+3/CS3v*%
X173770000Y-99610400D03*
%TO.N,/MAX31865AAP+3/FORCE+*%
X178346700Y-106329500D03*
%TO.N,Net-(IC3-BIAS)*%
X183193977Y-101059766D03*
%TO.N,Net-(IC3-FORCE2)*%
X164357700Y-101658900D03*
X178733900Y-107109800D03*
%TO.N,Net-(IC3-ISENSOR)*%
X183193977Y-104159766D03*
%TO.N,MOSI*%
X144524100Y-70207000D03*
X127584400Y-100412600D03*
%TO.N,MISO*%
X145385000Y-108475000D03*
X144528600Y-68903600D03*
%TO.N,CLK*%
X126280800Y-98943100D03*
X117353300Y-93280500D03*
X126074700Y-80795100D03*
X134705000Y-78885300D03*
X146555400Y-73086400D03*
%TD*%
D31*
%TO.N,GND*%
X119453700Y-83823200D02*
X119453700Y-83283400D01*
X140929500Y-99541800D02*
X142031200Y-99541800D01*
X143505100Y-75332000D02*
X143505100Y-77208700D01*
X130976300Y-92632600D02*
X130976000Y-92632600D01*
X146976700Y-119543000D02*
X145360200Y-121159500D01*
X118974700Y-86057600D02*
X119453700Y-85578600D01*
X116067100Y-99743000D02*
X117131300Y-99743000D01*
X139735400Y-99449400D02*
X134576800Y-99449400D01*
X134326200Y-108193400D02*
X135385300Y-109252500D01*
X122167000Y-82423200D02*
X122166900Y-82423100D01*
D32*
X122167000Y-82423200D02*
X122167000Y-83823200D01*
D31*
X148549500Y-97001800D02*
X147447800Y-97001800D01*
X119453700Y-83823200D02*
X122167000Y-83823200D01*
X140929500Y-99541800D02*
X139827800Y-99541800D01*
D32*
X122167000Y-83823200D02*
X130976000Y-92632600D01*
D31*
X161341700Y-75743400D02*
X161341700Y-74641700D01*
X139827800Y-99541800D02*
X139735400Y-99449400D01*
X115966900Y-81023300D02*
X117193600Y-81023300D01*
X147447800Y-97001800D02*
X145496200Y-98953400D01*
X125581700Y-108193400D02*
X134326200Y-108193400D01*
X146767300Y-122943000D02*
X145360200Y-121535900D01*
X145360200Y-121535900D02*
X145360200Y-121159500D01*
X146767300Y-124094700D02*
X146767300Y-122943000D01*
X147594400Y-119543000D02*
X146976700Y-119543000D01*
X145360200Y-121159500D02*
X144005700Y-121159500D01*
X122166900Y-82423100D02*
X122166900Y-81023300D01*
X119453700Y-83283400D02*
X117193600Y-81023300D01*
D32*
X122167000Y-81023300D02*
X122167000Y-82423200D01*
D31*
X142550100Y-98953400D02*
X142031200Y-99472300D01*
X139786100Y-113653300D02*
X135385300Y-109252500D01*
X145496200Y-98953400D02*
X142550100Y-98953400D01*
X142031200Y-99472300D02*
X142031200Y-99541800D01*
X146976700Y-119161400D02*
X141468600Y-113653300D01*
X141468600Y-113653300D02*
X139786100Y-113653300D01*
X161470400Y-74641700D02*
X166912000Y-69200100D01*
X142236500Y-77208700D02*
X142137100Y-77308100D01*
X119453700Y-85578600D02*
X119453700Y-83823200D01*
X143505100Y-77208700D02*
X142236500Y-77208700D01*
X146976700Y-119543000D02*
X146976700Y-119161400D01*
X117131300Y-99743000D02*
X125581700Y-108193400D01*
X161341700Y-74641700D02*
X161470400Y-74641700D01*
%TO.N,/BareMinAtmel328P/RESET*%
X149624300Y-80660100D02*
X143132900Y-80660100D01*
X154598700Y-72158700D02*
X154921400Y-72481400D01*
X143132900Y-80660100D02*
X142031200Y-81761800D01*
X140929500Y-81761800D02*
X142031200Y-81761800D01*
X146045100Y-70282000D02*
X146045100Y-72158700D01*
X155620300Y-74664100D02*
X149624300Y-80660100D01*
X146045100Y-72158700D02*
X154598700Y-72158700D01*
%TO.N,+5V*%
X122863100Y-78723300D02*
X123753700Y-79613900D01*
X148549500Y-102081800D02*
X147447800Y-102081800D01*
X144921100Y-99555100D02*
X142799200Y-99555100D01*
X140929500Y-97001800D02*
X137415000Y-97001800D01*
X145124600Y-72534800D02*
X145124600Y-72473300D01*
X115966900Y-78723300D02*
X117193600Y-78723300D01*
X123753700Y-79613900D02*
X123753700Y-82532800D01*
X139198300Y-89516700D02*
X140604800Y-88110200D01*
X135965600Y-97349500D02*
X137067300Y-97349500D01*
X137415000Y-97001800D02*
X137067300Y-97349500D01*
X123753700Y-82532800D02*
X130161800Y-88940900D01*
X146045100Y-75332000D02*
X146045100Y-73455300D01*
X117193600Y-78723300D02*
X122863100Y-78723300D01*
X130161800Y-88940900D02*
X130976300Y-88940900D01*
X140604800Y-88110200D02*
X142028000Y-88110200D01*
X147447800Y-102081800D02*
X144921100Y-99555100D01*
X130976300Y-90092600D02*
X130976300Y-89516700D01*
X130976300Y-89516700D02*
X130976300Y-88940900D01*
X146045100Y-73455300D02*
X145124600Y-72534800D01*
X130976300Y-89516700D02*
X139198300Y-89516700D01*
%TO.N,CANBUS_L*%
X148749900Y-64252800D02*
X142757800Y-58260700D01*
X157148000Y-64252800D02*
X148749900Y-64252800D01*
X141656100Y-58260700D02*
X142757800Y-58260700D01*
%TO.N,CANBUS_H*%
X157437000Y-67081800D02*
X161173200Y-67081800D01*
X144967700Y-66792800D02*
X157148000Y-66792800D01*
X140201300Y-62026400D02*
X144967700Y-66792800D01*
X139049600Y-61738500D02*
X140201300Y-61738500D01*
X140201300Y-61738500D02*
X140201300Y-62026400D01*
X157148000Y-66792800D02*
X157437000Y-67081800D01*
%TO.N,/MAX31865AAP+1/GND*%
X163193000Y-84592700D02*
X164379600Y-83406100D01*
X162905100Y-84592700D02*
X163193000Y-84592700D01*
X174497700Y-76963800D02*
X172066600Y-74532700D01*
X164379600Y-83406100D02*
X164379600Y-81999200D01*
X162905100Y-85744400D02*
X162905100Y-84592700D01*
%TO.N,/MAX31865AAP+1/RTDIn+*%
X169740800Y-86017900D02*
X171142500Y-86017900D01*
X156967100Y-80520700D02*
X156967100Y-81672400D01*
X179853200Y-85941500D02*
X171218900Y-85941500D01*
X171218900Y-85941500D02*
X171142500Y-86017900D01*
X162212300Y-86917600D02*
X156967100Y-81672400D01*
X168339100Y-86017900D02*
X167439400Y-86917600D01*
X169740800Y-86017900D02*
X168339100Y-86017900D01*
X180358200Y-86446500D02*
X179853200Y-85941500D01*
X167439400Y-86917600D02*
X162212300Y-86917600D01*
%TO.N,+VDC*%
X130976300Y-87552600D02*
X130976000Y-87552600D01*
D32*
X125080000Y-72119400D02*
X125080000Y-74220800D01*
D31*
X125079500Y-74220300D02*
X125079500Y-73418000D01*
X125079500Y-72118900D02*
X125079500Y-70018000D01*
X125080000Y-74220800D02*
X125079500Y-74220300D01*
D32*
X125080000Y-74220800D02*
X125080000Y-81655800D01*
X125080000Y-81655800D02*
X130976000Y-87552600D01*
X125080000Y-70018000D02*
X125080000Y-72119400D01*
D31*
X125080000Y-72119400D02*
X125079500Y-72118900D01*
%TO.N,/BareMinAtmel328P/PD4-D4*%
X139827800Y-94461800D02*
X139073000Y-93707000D01*
X131319100Y-97203000D02*
X121491100Y-97203000D01*
X139073000Y-93707000D02*
X134815100Y-93707000D01*
X134815100Y-93707000D02*
X131319100Y-97203000D01*
X140929500Y-94461800D02*
X139827800Y-94461800D01*
%TO.N,/BareMinAtmel328P/PD3-D3*%
X123378800Y-94216500D02*
X132076900Y-94216500D01*
X122555300Y-93393000D02*
X123378800Y-94216500D01*
X140929500Y-91921800D02*
X139827800Y-91921800D01*
X134371600Y-91921800D02*
X139827800Y-91921800D01*
X132076900Y-94216500D02*
X134371600Y-91921800D01*
X121491100Y-93393000D02*
X122555300Y-93393000D01*
%TO.N,/BareMinAtmel328P/PD5-D5*%
X140929500Y-107161800D02*
X139827800Y-107161800D01*
X139027400Y-106361400D02*
X129173700Y-106361400D01*
X139827800Y-107161800D02*
X139027400Y-106361400D01*
X129173700Y-106361400D02*
X122555300Y-99743000D01*
X121491100Y-99743000D02*
X122555300Y-99743000D01*
%TO.N,/BareMinAtmel328P/PC0-A0*%
X148549500Y-94461800D02*
X147447800Y-94461800D01*
X146343500Y-95566100D02*
X136722200Y-95566100D01*
X136722200Y-95566100D02*
X135965600Y-94809500D01*
X147447800Y-94461800D02*
X146343500Y-95566100D01*
%TO.N,Net-(Q1-Pad1)*%
X135324300Y-84423600D02*
X132821000Y-81920300D01*
X132821000Y-81920300D02*
X132546900Y-81920300D01*
X136586000Y-84423600D02*
X135324300Y-84423600D01*
D32*
%TO.N,Net-(Q1-Pad3)*%
X135000000Y-73418000D02*
X135000000Y-70018000D01*
D31*
X134999500Y-73418000D02*
X135000000Y-73418000D01*
D32*
X136586000Y-79343600D02*
X136586000Y-75004500D01*
X136586000Y-75004500D02*
X135000000Y-73418000D01*
D31*
X134999500Y-70018000D02*
X135000000Y-70018000D01*
%TO.N,/BareMinAtmel328P/PD2-D2*%
X141685700Y-89381800D02*
X142629800Y-88437700D01*
X142629800Y-88437700D02*
X142629800Y-86924000D01*
X142629800Y-86924000D02*
X141407300Y-85701500D01*
X135390500Y-85701500D02*
X135297100Y-85794900D01*
X141407300Y-85701500D02*
X135390500Y-85701500D01*
X140929500Y-89381800D02*
X141685700Y-89381800D01*
%TO.N,Net-(U2-XTAL2{slash}PB7)*%
X134207200Y-119354100D02*
X135526800Y-118034500D01*
X135526800Y-118034500D02*
X144005700Y-118034500D01*
%TO.N,Net-(U3-OSC2)*%
X159765300Y-117120000D02*
X162188300Y-119543000D01*
X151536800Y-63182000D02*
X151877500Y-62841300D01*
X157816100Y-62841300D02*
X161781600Y-66806800D01*
X161781600Y-70617400D02*
X155272900Y-77126100D01*
X161781600Y-66806800D02*
X161781600Y-70617400D01*
X156548700Y-117120000D02*
X159765300Y-117120000D01*
X151877500Y-62841300D02*
X157816100Y-62841300D01*
%TO.N,Net-(U3-OSC1)*%
X150719400Y-119543000D02*
X157308300Y-119543000D01*
D32*
%TO.N,Net-(J1-Pin_1)*%
X150802000Y-78218900D02*
X140251000Y-78218900D01*
X157148000Y-71872800D02*
X150802000Y-78218900D01*
X140251000Y-78218900D02*
X136586000Y-81883600D01*
D31*
%TO.N,Net-(U3-~{RESET})*%
X141429500Y-83153700D02*
X136011100Y-83153700D01*
X135306700Y-75531300D02*
X135186600Y-75411200D01*
X136011100Y-83153700D02*
X135306700Y-82449300D01*
X143754600Y-85478800D02*
X141429500Y-83153700D01*
X135306700Y-82449300D02*
X135306700Y-75531300D01*
%TO.N,/MAX31865AAP+2/RTDIn+*%
X171179300Y-97738800D02*
X169777600Y-97738800D01*
X171234300Y-97793800D02*
X171179300Y-97738800D01*
X163926300Y-93114000D02*
X168375900Y-97563600D01*
X169777600Y-97738800D02*
X168375900Y-97738800D01*
X157791200Y-91526100D02*
X159379100Y-93114000D01*
X179558800Y-97793800D02*
X171234300Y-97793800D01*
X168375900Y-97563600D02*
X168375900Y-97738800D01*
X180643600Y-98878600D02*
X179558800Y-97793800D01*
X156639500Y-91526100D02*
X157791200Y-91526100D01*
X159379100Y-93114000D02*
X163926300Y-93114000D01*
%TO.N,/MAX31865AAP+2/RTDin-*%
X169777600Y-90118800D02*
X169167200Y-90729200D01*
X177778400Y-95593300D02*
X172303900Y-90118800D01*
X169167200Y-90729200D02*
X161212600Y-90729200D01*
X172303900Y-90118800D02*
X169777600Y-90118800D01*
%TO.N,/MAX31865AAP+3/3.3V*%
X179148500Y-102672600D02*
X170656800Y-102672600D01*
%TO.N,/MAX31865AAP+3/RTDIn+*%
X174867921Y-106931418D02*
X174866003Y-106929500D01*
X171250900Y-106929500D02*
X167973800Y-110206600D01*
X158506300Y-110206600D02*
X166572100Y-110206600D01*
X174866003Y-106929500D02*
X171250900Y-106929500D01*
X167973800Y-110206600D02*
X166572100Y-110206600D01*
X156559100Y-108259400D02*
X158506300Y-110206600D01*
X155407400Y-108259400D02*
X156559100Y-108259400D01*
%TO.N,/MAX31865AAP+3/RTDin-*%
X157440500Y-102134400D02*
X156595000Y-102979900D01*
X155443300Y-102979900D02*
X156595000Y-102979900D01*
X162994900Y-102134400D02*
X157440500Y-102134400D01*
X166572100Y-102586600D02*
X163447100Y-102586600D01*
X163447100Y-102586600D02*
X162994900Y-102134400D01*
%TO.N,+3.3V*%
X116067100Y-90853000D02*
X115849700Y-90635600D01*
X115849700Y-90635600D02*
X115849700Y-86057600D01*
X115966900Y-85940400D02*
X115966900Y-83323300D01*
X115849700Y-86057600D02*
X115966900Y-85940400D01*
%TO.N,/MAX31865AAP+1/MOSI3v*%
X139059600Y-110837700D02*
X149039200Y-110837700D01*
X152651900Y-101104600D02*
X162308500Y-101104600D01*
X135634100Y-107412200D02*
X139059600Y-110837700D01*
X129372800Y-107412200D02*
X135634100Y-107412200D01*
X150038500Y-103718000D02*
X152651900Y-101104600D01*
X149039200Y-110837700D02*
X150038500Y-109838400D01*
X150038500Y-109838400D02*
X150038500Y-103718000D01*
X119128800Y-96778400D02*
X117555900Y-96778400D01*
X117555900Y-96778400D02*
X117131300Y-97203000D01*
X162308500Y-101104600D02*
X162704200Y-100708900D01*
X162704200Y-100708900D02*
X175338900Y-100708900D01*
X175338900Y-100708900D02*
X175907400Y-100140400D01*
X116067100Y-97203000D02*
X117131300Y-97203000D01*
%TO.N,Net-(IC1-BIAS)*%
X177169968Y-76516523D02*
X179431345Y-78777900D01*
X179431345Y-78777900D02*
X181443300Y-78777900D01*
%TO.N,/MAX31865AAP+1/SLC3v*%
X178968500Y-92296200D02*
X177487000Y-93777700D01*
X134949400Y-100950300D02*
X141356100Y-100950300D01*
X174472200Y-100242100D02*
X174875200Y-99839100D01*
X148935400Y-103254000D02*
X151947300Y-100242100D01*
X143659800Y-103254000D02*
X148935400Y-103254000D01*
X133428200Y-99429100D02*
X134949400Y-100950300D01*
X119910500Y-92123000D02*
X116067100Y-92123000D01*
X127539500Y-92749700D02*
X120537200Y-92749700D01*
X120537200Y-92749700D02*
X119910500Y-92123000D01*
X151947300Y-100242100D02*
X174472200Y-100242100D01*
X178968500Y-87952000D02*
X178968500Y-92296200D01*
X127935200Y-93145400D02*
X127539500Y-92749700D01*
X141356100Y-100950300D02*
X143659800Y-103254000D01*
%TO.N,/MAX31865AAP+1/CS3v*%
X141228900Y-90651800D02*
X144739500Y-87141200D01*
X172551500Y-76957300D02*
X174724100Y-79129900D01*
X155522100Y-77727800D02*
X156292600Y-76957300D01*
X149014600Y-83031800D02*
X154318600Y-77727800D01*
X129439500Y-93798800D02*
X131882900Y-93798800D01*
X144739500Y-87141200D02*
X144739500Y-86488600D01*
X131882900Y-93798800D02*
X135029900Y-90651800D01*
X144739500Y-86488600D02*
X148196300Y-83031800D01*
X154318600Y-77727800D02*
X155522100Y-77727800D01*
X156292600Y-76957300D02*
X172551500Y-76957300D01*
X135029900Y-90651800D02*
X141228900Y-90651800D01*
X127763700Y-92123000D02*
X129439500Y-93798800D01*
X148196300Y-83031800D02*
X149014600Y-83031800D01*
X121491100Y-92123000D02*
X127763700Y-92123000D01*
%TO.N,/MAX31865AAP+1/MISO3v*%
X134131600Y-93255000D02*
X132081800Y-95304800D01*
X132081800Y-95304800D02*
X117759500Y-95304800D01*
X150360300Y-90502600D02*
X148410600Y-90502600D01*
X148410600Y-90502600D02*
X145658200Y-93255000D01*
X176817500Y-86547700D02*
X174662400Y-88702800D01*
X174662400Y-88702800D02*
X174260700Y-88301100D01*
X152561800Y-88301100D02*
X150360300Y-90502600D01*
X116067100Y-95933000D02*
X117131300Y-95933000D01*
X174260700Y-88301100D02*
X152561800Y-88301100D01*
X145658200Y-93255000D02*
X134131600Y-93255000D01*
X117759500Y-95304800D02*
X117131300Y-95933000D01*
X179333400Y-86547700D02*
X176817500Y-86547700D01*
X174662400Y-88702800D02*
X174662400Y-89240700D01*
%TO.N,/MAX31865AAP+1/FORCE+*%
X160458000Y-79369000D02*
X161753400Y-80664400D01*
X162905100Y-80664400D02*
X161753400Y-80664400D01*
X156444400Y-79369000D02*
X160458000Y-79369000D01*
X162905100Y-80664400D02*
X166927300Y-80664400D01*
X154427100Y-80520700D02*
X155578800Y-80520700D01*
X169740800Y-83477900D02*
X179623600Y-83477900D01*
X155578800Y-80234600D02*
X156444400Y-79369000D01*
X166927300Y-80664400D02*
X169740800Y-83477900D01*
X179623600Y-83477900D02*
X181728300Y-81373200D01*
X155578800Y-80520700D02*
X155578800Y-80234600D01*
%TO.N,/MAX31865AAP+1/FORCE-*%
X169740800Y-80937900D02*
X170225400Y-81422500D01*
X153868300Y-78940600D02*
X153275400Y-79533500D01*
X174373100Y-81422500D02*
X174373100Y-81422600D01*
X170225400Y-81422500D02*
X174373100Y-81422500D01*
X169740800Y-80937900D02*
X167743500Y-78940600D01*
X167743500Y-78940600D02*
X153868300Y-78940600D01*
X154091800Y-85981100D02*
X154091800Y-84829400D01*
X153275400Y-79533500D02*
X153275400Y-84013000D01*
X153275400Y-84013000D02*
X154091800Y-84829400D01*
%TO.N,/MAX31865AAP+2/CS3v*%
X163882100Y-88717100D02*
X162999800Y-89599400D01*
X122989300Y-96253900D02*
X122876200Y-96253900D01*
X177252300Y-92843700D02*
X173125700Y-88717100D01*
X173125700Y-88717100D02*
X163882100Y-88717100D01*
X122876200Y-96253900D02*
X122555300Y-95933000D01*
X121491100Y-95933000D02*
X122555300Y-95933000D01*
%TO.N,Net-(IC2-ISENSOR)*%
X183359918Y-95443572D02*
X182000154Y-95443572D01*
X182000154Y-95443572D02*
X180834332Y-94277750D01*
%TO.N,Net-(IC2-BIAS)*%
X183359918Y-92343572D02*
X181500503Y-92343572D01*
X181500503Y-92343572D02*
X180826357Y-93017718D01*
%TO.N,/MAX31865AAP+2/FORCE+*%
X154099500Y-91526100D02*
X155251200Y-91526100D01*
X161536600Y-91904000D02*
X162370500Y-91904000D01*
X160007000Y-90374400D02*
X161536600Y-91904000D01*
X156114900Y-90374400D02*
X160007000Y-90374400D01*
X163260700Y-91904000D02*
X163522200Y-91904000D01*
X170844900Y-96266100D02*
X169777600Y-95198800D01*
X155251200Y-91526100D02*
X155251200Y-91238100D01*
X166482800Y-91904000D02*
X163522200Y-91904000D01*
X180717000Y-96266100D02*
X170844900Y-96266100D01*
X155251200Y-91238100D02*
X156114900Y-90374400D01*
X163260700Y-91904000D02*
X162370500Y-91904000D01*
X169777600Y-95198800D02*
X166482800Y-91904000D01*
%TO.N,/MAX31865AAP+2/FORCE-*%
X155299100Y-96704500D02*
X155299100Y-96416500D01*
X169777600Y-92658800D02*
X172645600Y-95526800D01*
X172645600Y-95526800D02*
X174339800Y-95526800D01*
X157276100Y-95552800D02*
X157438800Y-95715500D01*
X156162800Y-95552800D02*
X157276100Y-95552800D01*
X157438800Y-95715500D02*
X164886200Y-95715500D01*
X164886200Y-95715500D02*
X165254800Y-96084100D01*
X155299100Y-96416500D02*
X156162800Y-95552800D01*
X154147400Y-96704500D02*
X155299100Y-96704500D01*
%TO.N,Net-(IC2-FORCE2)*%
X164673900Y-94652100D02*
X164673900Y-94444000D01*
X172395800Y-99006300D02*
X172261600Y-99140500D01*
X180395071Y-99478600D02*
X181084322Y-99478600D01*
X179922771Y-99006300D02*
X180395071Y-99478600D01*
X172261600Y-99140500D02*
X168542500Y-99140500D01*
X168542500Y-99140500D02*
X167975700Y-98573700D01*
X172395800Y-99006300D02*
X179922771Y-99006300D01*
X164673900Y-94444000D02*
X163522200Y-94444000D01*
X181608500Y-98954422D02*
X181608500Y-97374500D01*
X167975700Y-97953900D02*
X164673900Y-94652100D01*
X181084322Y-99478600D02*
X181608500Y-98954422D01*
X167975700Y-98573700D02*
X167975700Y-97953900D01*
%TO.N,/MAX31865AAP+3/CS3v*%
X135367900Y-98309900D02*
X135550700Y-98492700D01*
X121491100Y-98473000D02*
X122555300Y-98473000D01*
X122718400Y-98309900D02*
X135367900Y-98309900D01*
X138421200Y-98271800D02*
X145492300Y-98271800D01*
X135550700Y-98492700D02*
X138200300Y-98492700D01*
X122555300Y-98473000D02*
X122718400Y-98309900D01*
X147870500Y-95893600D02*
X149133800Y-95893600D01*
X145492300Y-98271800D02*
X147870500Y-95893600D01*
X149133800Y-95893600D02*
X152850600Y-99610400D01*
X152850600Y-99610400D02*
X173770000Y-99610400D01*
X138200300Y-98492700D02*
X138421200Y-98271800D01*
%TO.N,/MAX31865AAP+3/FORCE+*%
X154882800Y-107107700D02*
X154019100Y-107971400D01*
X154019100Y-107971400D02*
X154019100Y-108259400D01*
X156481100Y-107107700D02*
X154882800Y-107107700D01*
X161047400Y-103693100D02*
X162199100Y-103693100D01*
X166572100Y-107666600D02*
X166572100Y-107245100D01*
X161047400Y-103693100D02*
X159895700Y-103693100D01*
X178307427Y-106290227D02*
X167526973Y-106290227D01*
X178346700Y-106329500D02*
X178307427Y-106290227D01*
X165751100Y-107245100D02*
X162199100Y-103693100D01*
X166572100Y-107245100D02*
X165751100Y-107245100D01*
X167526973Y-106290227D02*
X166572100Y-107245100D01*
X159895700Y-103693100D02*
X156481100Y-107107700D01*
X152867400Y-108259400D02*
X154019100Y-108259400D01*
%TO.N,/MAX31865AAP+3/FORCE-*%
X158883200Y-102541400D02*
X157293000Y-104131600D01*
X166572100Y-105126600D02*
X164607600Y-105126600D01*
X162022400Y-102541400D02*
X158883200Y-102541400D01*
X152903300Y-102979900D02*
X154055000Y-102979900D01*
X157293000Y-104131600D02*
X154918700Y-104131600D01*
X154055000Y-103267900D02*
X154055000Y-102979900D01*
X154918700Y-104131600D02*
X154055000Y-103267900D01*
X164607600Y-105126600D02*
X162022400Y-102541400D01*
%TO.N,Net-(IC3-FORCE2)*%
X178594600Y-105705300D02*
X178961600Y-106072300D01*
X171673200Y-105705300D02*
X178594600Y-105705300D01*
X164357700Y-101658900D02*
X164831700Y-101184900D01*
X164831700Y-101184900D02*
X167152800Y-101184900D01*
X178961600Y-106882100D02*
X178733900Y-107109800D01*
X178961600Y-106072300D02*
X178961600Y-106882100D01*
X167152800Y-101184900D02*
X171673200Y-105705300D01*
%TO.N,MOSI*%
X118336100Y-99114800D02*
X125601700Y-99114800D01*
X143652700Y-105891800D02*
X133063600Y-105891800D01*
X148549500Y-109701800D02*
X147447800Y-109701800D01*
X143505100Y-70282000D02*
X143580100Y-70207000D01*
X117694300Y-98473000D02*
X118336100Y-99114800D01*
X116067100Y-98473000D02*
X117131300Y-98473000D01*
X126899500Y-100412600D02*
X127584400Y-100412600D01*
X125601700Y-99114800D02*
X126899500Y-100412600D01*
X147447800Y-109686900D02*
X143652700Y-105891800D01*
X147447800Y-109701800D02*
X147447800Y-109686900D01*
X133063600Y-105891800D02*
X127584400Y-100412600D01*
X117131300Y-98473000D02*
X117694300Y-98473000D01*
X143580100Y-70207000D02*
X144524100Y-70207000D01*
%TO.N,MISO*%
X125138600Y-106763100D02*
X135754400Y-106763100D01*
X135754400Y-106763100D02*
X137466300Y-108475000D01*
X117491800Y-99116300D02*
X125138600Y-106763100D01*
X144128200Y-68376400D02*
X124568700Y-68376400D01*
X122566800Y-70378300D02*
X122566800Y-75417976D01*
X144528600Y-68776800D02*
X144128200Y-68376400D01*
X145026900Y-68405300D02*
X144528600Y-68903600D01*
X116340911Y-76498089D02*
X115550279Y-77288721D01*
X116067100Y-94663000D02*
X115002900Y-94663000D01*
X124568700Y-68376400D02*
X122566800Y-70378300D01*
X115195800Y-99116300D02*
X117491800Y-99116300D01*
X115002900Y-94663000D02*
X115002900Y-98923400D01*
X122566800Y-75417976D02*
X121486687Y-76498089D01*
X144528600Y-68903600D02*
X144528600Y-68776800D01*
X115550279Y-77288721D02*
X114735100Y-78103900D01*
X137466300Y-108475000D02*
X145385000Y-108475000D01*
X115002900Y-98923400D02*
X115195800Y-99116300D01*
X114735100Y-94395200D02*
X115002900Y-94663000D01*
X114735100Y-78103900D02*
X114735100Y-94395200D01*
X148585100Y-68405300D02*
X145026900Y-68405300D01*
X121486687Y-76498089D02*
X116340911Y-76498089D01*
X148585100Y-70282000D02*
X148585100Y-68405300D01*
%TO.N,CLK*%
X148585100Y-75332000D02*
X148585100Y-73455300D01*
X116067100Y-93393000D02*
X117131300Y-93393000D01*
X131097900Y-98943100D02*
X126280800Y-98943100D01*
X135365000Y-103210200D02*
X131097900Y-98943100D01*
X117243800Y-93280500D02*
X117131300Y-93393000D01*
X148585100Y-73455300D02*
X146924300Y-73455300D01*
X141537000Y-103210200D02*
X135365000Y-103210200D01*
X134705000Y-78885300D02*
X132795200Y-80795100D01*
X146924300Y-73455300D02*
X146555400Y-73086400D01*
X132795200Y-80795100D02*
X126074700Y-80795100D01*
X148549500Y-104621800D02*
X142948600Y-104621800D01*
X142948600Y-104621800D02*
X141537000Y-103210200D01*
X117353300Y-93280500D02*
X117243800Y-93280500D01*
%TD*%
M02*
