M48
INCH
T1C0.0118
T2C0.0315
T3C0.0394
T4C0.0433
T5C0.0504
T6C0.0630
%
G90
G05
T1
X4.5054Y-3.6435
X4.547Y-3.9862
X4.5656Y-3.2804
X4.5696Y-3.6769
X4.5696Y-3.7269
X4.5696Y-3.8269
X4.5696Y-3.8769
X4.621Y-3.5097
X4.6261Y-4.0427
X4.6388Y-3.6864
X4.6588Y-3.6293
X4.6668Y-3.8612
X4.6995Y-3.7458
X4.7742Y-4.0018
X4.7831Y-3.5769
X4.7831Y-3.6269
X4.7831Y-3.8769
X4.8097Y-3.3001
X4.9624Y-3.8167
X5.0159Y-3.65
X5.0235Y-3.0406
X5.0341Y-3.9838
X5.0503Y-3.6024
X5.0667Y-3.6933
X5.0835Y-4.0138
X5.0934Y-4.2288
X5.1002Y-2.9388
X5.1142Y-3.873
X5.2184Y-3.2252
X5.2983Y-3.9153
X5.3223Y-2.9689
X5.3267Y-3.3778
X5.5917Y-3.4689
X5.5959Y-3.0436
X5.622Y-3.9195
X5.6596Y-3.3653
X5.6899Y-2.7641
X5.6901Y-2.7127
X5.7136Y-2.8533
X5.7238Y-4.2707
X5.7699Y-2.8774
X5.7986Y-2.6585
X5.8498Y-2.767
X5.8764Y-2.5519
X5.966Y-2.4875
X6.0993Y-2.8536
X6.1131Y-3.0365
X6.1268Y-2.9395
X6.1633Y-4.611
X6.3454Y-2.641
X6.347Y-3.572
X6.3901Y-3.9805
X6.4173Y-3.5275
X6.4708Y-4.0023
X6.4716Y-3.2283
X6.5061Y-3.7828
X6.5713Y-2.7244
X6.7188Y-4.0422
X6.7743Y-2.9344
X6.8413Y-3.9217
X6.8638Y-3.7609
X6.8651Y-3.2056
X6.87Y-3.0301
X6.8765Y-3.5134
X6.8789Y-3.1154
X6.8846Y-4.2099
X6.8849Y-3.9307
X6.9255Y-3.9425
X6.9784Y-3.6553
X6.9877Y-3.692
X6.9991Y-3.7635
X7.0215Y-4.1862
X7.0368Y-4.2169
X7.046Y-3.4627
X7.0531Y-4.0422
X7.0604Y-3.4074
X7.0953Y-3.016
X7.1007Y-3.4034
X7.112Y-3.8929
X7.1148Y-3.79
X7.1191Y-3.6621
X7.1195Y-3.7117
X7.1434Y-3.1015
X7.1499Y-3.8336
X7.1547Y-3.2037
X7.2124Y-3.9787
X7.2124Y-4.1008
T2
X5.2837Y-4.699
X5.353Y-3.7327
X5.353Y-3.8327
X5.4759Y-4.699
X5.477Y-2.2937
X5.5484Y-3.219
X5.5484Y-3.319
X5.5484Y-3.419
X5.5484Y-3.519
X5.5484Y-3.619
X5.5484Y-3.719
X5.5484Y-3.819
X5.5484Y-3.919
X5.5484Y-4.019
X5.5484Y-4.119
X5.5484Y-4.219
X5.5484Y-4.319
X5.5484Y-4.419
X5.5484Y-4.519
X5.577Y-2.2937
X5.8484Y-3.219
X5.8484Y-3.319
X5.8484Y-3.419
X5.8484Y-3.519
X5.8484Y-3.619
X5.8484Y-3.719
X5.8484Y-3.819
X5.8484Y-3.919
X5.8484Y-4.019
X5.8484Y-4.119
X5.8484Y-4.219
X5.8484Y-4.319
X5.8484Y-4.419
X5.8484Y-4.519
X6.1932Y-4.7064
X6.352Y-2.982
X6.3854Y-4.7064
X6.452Y-2.982
T3
X5.0742Y-4.3013
X5.0742Y-4.4784
X5.1565Y-3.447
X5.1565Y-3.547
X5.1565Y-3.647
X5.2782Y-4.8856
X5.3301Y-4.3013
X5.3301Y-4.4784
X5.3782Y-4.8856
X5.4744Y-2.4306
X5.4782Y-4.8856
X5.5744Y-2.4306
X5.5782Y-4.8856
X5.6782Y-4.8856
X5.7782Y-4.8856
X6.0184Y-4.2622
X6.0198Y-4.0543
X6.0666Y-3.3851
X6.0669Y-3.6034
X6.0688Y-3.8073
X6.0798Y-3.1701
X6.1184Y-4.2622
X6.1198Y-4.0543
X6.1666Y-3.3851
X6.1669Y-3.6034
X6.1688Y-3.8073
X6.1798Y-3.1701
X6.3404Y-4.0824
X6.3404Y-4.1824
X6.3404Y-4.2824
X6.4136Y-3.1758
X6.4136Y-3.2758
X6.4136Y-3.3758
X6.4379Y-3.6183
X6.4379Y-3.7183
X6.4379Y-3.8183
T4
X6.1869Y-2.5296
X6.1869Y-2.6296
X6.1869Y-2.7296
X6.1869Y-2.8296
X6.558Y-4.0388
X6.558Y-4.1388
X6.558Y-4.2388
X6.558Y-4.3388
X6.6827Y-3.0865
X6.6827Y-3.1865
X6.6827Y-3.2865
X6.6827Y-3.3865
X6.6842Y-3.548
X6.6842Y-3.648
X6.6842Y-3.748
X6.6842Y-3.848
T5
X5.3774Y-3.1238
X5.3774Y-3.2238
X5.3774Y-3.3238
T6
X4.9244Y-2.7566
X4.9244Y-2.8905
X5.3149Y-2.7566
X5.3149Y-2.8905
M30
