M48
INCH
T1C0.0118
T2C0.0315
T3C0.0394
T4C0.0433
T5C0.0504
T6C0.0630
%
G90
G05
T1
X4.5198Y-3.4704
X4.6198Y-3.6447
X4.6338Y-4.0664
X4.6534Y-3.647
X4.6803Y-3.9716
X4.7412Y-4.1847
X4.8332Y-3.6795
X4.8339Y-3.7724
X4.8481Y-3.8039
X4.9127Y-4.34
X4.9286Y-3.7748
X5.1955Y-3.8777
X5.2707Y-3.4834
X5.2721Y-3.2443
X5.3688Y-2.8413
X5.3739Y-3.4351
X5.3867Y-3.5609
X5.4309Y-3.2522
X5.4595Y-4.3314
X5.5449Y-2.7391
X5.6483Y-3.2755
X5.649Y-2.6391
X5.6642Y-3.8687
X5.6679Y-3.3571
X5.6706Y-3.5199
X5.7034Y-2.6931
X5.7075Y-2.8919
X5.7332Y-4.1293
X5.7797Y-2.8662
X5.8126Y-4.4724
X5.8496Y-2.6093
X5.9017Y-2.8691
X6.0886Y-3.037
X6.0981Y-2.8691
X6.6893Y-2.7183
X6.7859Y-4.2573
X6.8604Y-3.1976
X6.8677Y-3.6696
X6.8851Y-4.0943
X6.8989Y-4.1739
X6.904Y-4.0039
X6.9151Y-4.264
X6.9753Y-3.7504
X6.9836Y-3.5321
X6.9887Y-3.1286
X6.9973Y-4.1989
X7.0031Y-4.2298
X7.0047Y-3.7799
X7.0052Y-3.2921
X7.0094Y-3.7176
X7.0206Y-3.6696
X7.0276Y-3.257
X7.0394Y-3.2985
X7.0503Y-3.0209
X7.06Y-3.8384
X7.0833Y-3.9482
X7.087Y-3.6277
X7.1025Y-3.0788
X7.1438Y-3.2445
X7.1638Y-4.0398
X7.1641Y-4.1476
X7.2266Y-3.5039
T2
X5.3245Y-4.6986
X5.353Y-3.7327
X5.353Y-3.8327
X5.477Y-2.2937
X5.5166Y-4.6986
X5.5484Y-3.219
X5.5484Y-3.319
X5.5484Y-3.419
X5.5484Y-3.519
X5.5484Y-3.619
X5.5484Y-3.719
X5.5484Y-3.819
X5.5484Y-3.919
X5.5484Y-4.019
X5.5484Y-4.119
X5.5484Y-4.219
X5.5484Y-4.319
X5.5484Y-4.419
X5.5484Y-4.519
X5.577Y-2.2937
X5.8484Y-3.219
X5.8484Y-3.319
X5.8484Y-3.419
X5.8484Y-3.519
X5.8484Y-3.619
X5.8484Y-3.719
X5.8484Y-3.819
X5.8484Y-3.919
X5.8484Y-4.019
X5.8484Y-4.119
X5.8484Y-4.219
X5.8484Y-4.319
X5.8484Y-4.419
X5.8484Y-4.519
X6.1607Y-4.543
X6.352Y-2.982
X6.3529Y-4.543
X6.452Y-2.982
T3
X5.0742Y-4.3013
X5.0742Y-4.4784
X5.1565Y-3.4458
X5.1565Y-3.5458
X5.1565Y-3.6458
X5.2782Y-4.8856
X5.3301Y-4.3013
X5.3301Y-4.4784
X5.3782Y-4.8856
X5.4744Y-2.4306
X5.4782Y-4.8856
X5.5744Y-2.4306
X5.5782Y-4.8856
X5.6782Y-4.8856
X5.7782Y-4.8856
X6.0184Y-4.2622
X6.0198Y-4.0543
X6.0666Y-3.3851
X6.0669Y-3.6034
X6.0688Y-3.8073
X6.0798Y-3.1701
X6.1184Y-4.2622
X6.1198Y-4.0543
X6.1666Y-3.3851
X6.1669Y-3.6034
X6.1688Y-3.8073
X6.1798Y-3.1701
X6.3404Y-4.0824
X6.3404Y-4.1824
X6.3404Y-4.2824
X6.4136Y-3.1758
X6.4136Y-3.2758
X6.4136Y-3.3758
X6.4379Y-3.6183
X6.4379Y-3.7183
X6.4379Y-3.8183
T4
X6.1869Y-2.5296
X6.1869Y-2.6296
X6.1869Y-2.7296
X6.1869Y-2.8296
X6.558Y-4.0388
X6.558Y-4.1388
X6.558Y-4.2388
X6.558Y-4.3388
X6.6827Y-3.0865
X6.6827Y-3.1865
X6.6827Y-3.2865
X6.6827Y-3.3865
X6.6842Y-3.548
X6.6842Y-3.648
X6.6842Y-3.748
X6.6842Y-3.848
T5
X5.3774Y-3.1238
X5.3774Y-3.2238
X5.3774Y-3.3238
T6
X4.9244Y-2.7566
X4.9244Y-2.8905
X5.3149Y-2.7566
X5.3149Y-2.8905
M30
