%TF.GenerationSoftware,KiCad,Pcbnew,8.0.1-rc1*%
%TF.CreationDate,2024-06-22T18:24:14-07:00*%
%TF.ProjectId,AMS - CANBus Sensor - Temperature,414d5320-2d20-4434-914e-427573205365,rev?*%
%TF.SameCoordinates,Original*%
%TF.FileFunction,Legend,Bot*%
%TF.FilePolarity,Positive*%
%FSLAX46Y46*%
G04 Gerber Fmt 4.6, Leading zero omitted, Abs format (unit mm)*
G04 Created by KiCad (PCBNEW 8.0.1-rc1) date 2024-06-22 18:24:14*
%MOMM*%
%LPD*%
G01*
G04 APERTURE LIST*
G04 Aperture macros list*
%AMRoundRect*
0 Rectangle with rounded corners*
0 $1 Rounding radius*
0 $2 $3 $4 $5 $6 $7 $8 $9 X,Y pos of 4 corners*
0 Add a 4 corners polygon primitive as box body*
4,1,4,$2,$3,$4,$5,$6,$7,$8,$9,$2,$3,0*
0 Add four circle primitives for the rounded corners*
1,1,$1+$1,$2,$3*
1,1,$1+$1,$4,$5*
1,1,$1+$1,$6,$7*
1,1,$1+$1,$8,$9*
0 Add four rect primitives between the rounded corners*
20,1,$1+$1,$2,$3,$4,$5,0*
20,1,$1+$1,$4,$5,$6,$7,0*
20,1,$1+$1,$6,$7,$8,$9,0*
20,1,$1+$1,$8,$9,$2,$3,0*%
G04 Aperture macros list end*
%ADD10C,0.150000*%
%ADD11C,0.254000*%
%ADD12C,0.120000*%
%ADD13C,0.200000*%
%ADD14C,1.600000*%
%ADD15O,1.600000X1.600000*%
%ADD16R,2.200000X2.200000*%
%ADD17C,2.200000*%
%ADD18R,1.700000X1.700000*%
%ADD19O,1.700000X1.700000*%
%ADD20C,2.400000*%
%ADD21R,1.600000X1.600000*%
%ADD22R,1.920000X1.920000*%
%ADD23C,1.920000*%
%ADD24C,1.500000*%
%ADD25R,1.500000X1.500000*%
%ADD26RoundRect,0.250000X0.650000X-0.412500X0.650000X0.412500X-0.650000X0.412500X-0.650000X-0.412500X0*%
%ADD27RoundRect,0.250000X-0.650000X0.412500X-0.650000X-0.412500X0.650000X-0.412500X0.650000X0.412500X0*%
%ADD28RoundRect,0.150000X0.825000X0.150000X-0.825000X0.150000X-0.825000X-0.150000X0.825000X-0.150000X0*%
%ADD29R,1.705000X0.450000*%
%ADD30RoundRect,0.250000X-0.412500X-0.650000X0.412500X-0.650000X0.412500X0.650000X-0.412500X0.650000X0*%
%ADD31RoundRect,0.250000X-0.625000X0.400000X-0.625000X-0.400000X0.625000X-0.400000X0.625000X0.400000X0*%
%ADD32RoundRect,0.250000X0.412500X0.650000X-0.412500X0.650000X-0.412500X-0.650000X0.412500X-0.650000X0*%
%ADD33RoundRect,0.150000X0.875000X0.150000X-0.875000X0.150000X-0.875000X-0.150000X0.875000X-0.150000X0*%
%ADD34RoundRect,0.250000X0.625000X-0.400000X0.625000X0.400000X-0.625000X0.400000X-0.625000X-0.400000X0*%
%ADD35R,1.525000X0.650000*%
%ADD36R,1.850000X0.900000*%
%ADD37R,1.850000X3.200000*%
%ADD38R,1.000000X0.550000*%
G04 APERTURE END LIST*
D10*
X120942020Y-77892509D02*
X120989640Y-77844890D01*
X120989640Y-77844890D02*
X121037259Y-77702033D01*
X121037259Y-77702033D02*
X121037259Y-77606795D01*
X121037259Y-77606795D02*
X120989640Y-77463938D01*
X120989640Y-77463938D02*
X120894401Y-77368700D01*
X120894401Y-77368700D02*
X120799163Y-77321081D01*
X120799163Y-77321081D02*
X120608687Y-77273462D01*
X120608687Y-77273462D02*
X120465830Y-77273462D01*
X120465830Y-77273462D02*
X120275354Y-77321081D01*
X120275354Y-77321081D02*
X120180116Y-77368700D01*
X120180116Y-77368700D02*
X120084878Y-77463938D01*
X120084878Y-77463938D02*
X120037259Y-77606795D01*
X120037259Y-77606795D02*
X120037259Y-77702033D01*
X120037259Y-77702033D02*
X120084878Y-77844890D01*
X120084878Y-77844890D02*
X120132497Y-77892509D01*
X121037259Y-78844890D02*
X121037259Y-78273462D01*
X121037259Y-78559176D02*
X120037259Y-78559176D01*
X120037259Y-78559176D02*
X120180116Y-78463938D01*
X120180116Y-78463938D02*
X120275354Y-78368700D01*
X120275354Y-78368700D02*
X120322973Y-78273462D01*
X120037259Y-79178224D02*
X120037259Y-79844890D01*
X120037259Y-79844890D02*
X121037259Y-79416319D01*
X145344963Y-115928379D02*
X145392583Y-115880760D01*
X145392583Y-115880760D02*
X145440202Y-115737903D01*
X145440202Y-115737903D02*
X145440202Y-115642665D01*
X145440202Y-115642665D02*
X145392583Y-115499808D01*
X145392583Y-115499808D02*
X145297344Y-115404570D01*
X145297344Y-115404570D02*
X145202106Y-115356951D01*
X145202106Y-115356951D02*
X145011630Y-115309332D01*
X145011630Y-115309332D02*
X144868773Y-115309332D01*
X144868773Y-115309332D02*
X144678297Y-115356951D01*
X144678297Y-115356951D02*
X144583059Y-115404570D01*
X144583059Y-115404570D02*
X144487821Y-115499808D01*
X144487821Y-115499808D02*
X144440202Y-115642665D01*
X144440202Y-115642665D02*
X144440202Y-115737903D01*
X144440202Y-115737903D02*
X144487821Y-115880760D01*
X144487821Y-115880760D02*
X144535440Y-115928379D01*
X144535440Y-116309332D02*
X144487821Y-116356951D01*
X144487821Y-116356951D02*
X144440202Y-116452189D01*
X144440202Y-116452189D02*
X144440202Y-116690284D01*
X144440202Y-116690284D02*
X144487821Y-116785522D01*
X144487821Y-116785522D02*
X144535440Y-116833141D01*
X144535440Y-116833141D02*
X144630678Y-116880760D01*
X144630678Y-116880760D02*
X144725916Y-116880760D01*
X144725916Y-116880760D02*
X144868773Y-116833141D01*
X144868773Y-116833141D02*
X145440202Y-116261713D01*
X145440202Y-116261713D02*
X145440202Y-116880760D01*
X166716704Y-65728819D02*
X166716704Y-66538342D01*
X166716704Y-66538342D02*
X166669085Y-66633580D01*
X166669085Y-66633580D02*
X166621466Y-66681200D01*
X166621466Y-66681200D02*
X166526228Y-66728819D01*
X166526228Y-66728819D02*
X166335752Y-66728819D01*
X166335752Y-66728819D02*
X166240514Y-66681200D01*
X166240514Y-66681200D02*
X166192895Y-66633580D01*
X166192895Y-66633580D02*
X166145276Y-66538342D01*
X166145276Y-66538342D02*
X166145276Y-65728819D01*
X165240514Y-66062152D02*
X165240514Y-66728819D01*
X165478609Y-65681200D02*
X165716704Y-66395485D01*
X165716704Y-66395485D02*
X165097657Y-66395485D01*
D11*
X156794562Y-96541018D02*
X156794562Y-95271018D01*
X155464085Y-96420065D02*
X155524561Y-96480542D01*
X155524561Y-96480542D02*
X155705990Y-96541018D01*
X155705990Y-96541018D02*
X155826942Y-96541018D01*
X155826942Y-96541018D02*
X156008371Y-96480542D01*
X156008371Y-96480542D02*
X156129323Y-96359589D01*
X156129323Y-96359589D02*
X156189800Y-96238637D01*
X156189800Y-96238637D02*
X156250276Y-95996732D01*
X156250276Y-95996732D02*
X156250276Y-95815303D01*
X156250276Y-95815303D02*
X156189800Y-95573399D01*
X156189800Y-95573399D02*
X156129323Y-95452446D01*
X156129323Y-95452446D02*
X156008371Y-95331494D01*
X156008371Y-95331494D02*
X155826942Y-95271018D01*
X155826942Y-95271018D02*
X155705990Y-95271018D01*
X155705990Y-95271018D02*
X155524561Y-95331494D01*
X155524561Y-95331494D02*
X155464085Y-95391970D01*
X154980276Y-95391970D02*
X154919800Y-95331494D01*
X154919800Y-95331494D02*
X154798847Y-95271018D01*
X154798847Y-95271018D02*
X154496466Y-95271018D01*
X154496466Y-95271018D02*
X154375514Y-95331494D01*
X154375514Y-95331494D02*
X154315038Y-95391970D01*
X154315038Y-95391970D02*
X154254561Y-95512922D01*
X154254561Y-95512922D02*
X154254561Y-95633875D01*
X154254561Y-95633875D02*
X154315038Y-95815303D01*
X154315038Y-95815303D02*
X155040752Y-96541018D01*
X155040752Y-96541018D02*
X154254561Y-96541018D01*
D10*
X178080807Y-77855604D02*
X178128426Y-77903224D01*
X178128426Y-77903224D02*
X178271283Y-77950843D01*
X178271283Y-77950843D02*
X178366521Y-77950843D01*
X178366521Y-77950843D02*
X178509378Y-77903224D01*
X178509378Y-77903224D02*
X178604616Y-77807985D01*
X178604616Y-77807985D02*
X178652235Y-77712747D01*
X178652235Y-77712747D02*
X178699854Y-77522271D01*
X178699854Y-77522271D02*
X178699854Y-77379414D01*
X178699854Y-77379414D02*
X178652235Y-77188938D01*
X178652235Y-77188938D02*
X178604616Y-77093700D01*
X178604616Y-77093700D02*
X178509378Y-76998462D01*
X178509378Y-76998462D02*
X178366521Y-76950843D01*
X178366521Y-76950843D02*
X178271283Y-76950843D01*
X178271283Y-76950843D02*
X178128426Y-76998462D01*
X178128426Y-76998462D02*
X178080807Y-77046081D01*
X177128426Y-77950843D02*
X177699854Y-77950843D01*
X177414140Y-77950843D02*
X177414140Y-76950843D01*
X177414140Y-76950843D02*
X177509378Y-77093700D01*
X177509378Y-77093700D02*
X177604616Y-77188938D01*
X177604616Y-77188938D02*
X177699854Y-77236557D01*
X176509378Y-76950843D02*
X176414140Y-76950843D01*
X176414140Y-76950843D02*
X176318902Y-76998462D01*
X176318902Y-76998462D02*
X176271283Y-77046081D01*
X176271283Y-77046081D02*
X176223664Y-77141319D01*
X176223664Y-77141319D02*
X176176045Y-77331795D01*
X176176045Y-77331795D02*
X176176045Y-77569890D01*
X176176045Y-77569890D02*
X176223664Y-77760366D01*
X176223664Y-77760366D02*
X176271283Y-77855604D01*
X176271283Y-77855604D02*
X176318902Y-77903224D01*
X176318902Y-77903224D02*
X176414140Y-77950843D01*
X176414140Y-77950843D02*
X176509378Y-77950843D01*
X176509378Y-77950843D02*
X176604616Y-77903224D01*
X176604616Y-77903224D02*
X176652235Y-77855604D01*
X176652235Y-77855604D02*
X176699854Y-77760366D01*
X176699854Y-77760366D02*
X176747473Y-77569890D01*
X176747473Y-77569890D02*
X176747473Y-77331795D01*
X176747473Y-77331795D02*
X176699854Y-77141319D01*
X176699854Y-77141319D02*
X176652235Y-77046081D01*
X176652235Y-77046081D02*
X176604616Y-76998462D01*
X176604616Y-76998462D02*
X176509378Y-76950843D01*
X130731219Y-111295633D02*
X130255028Y-110962300D01*
X130731219Y-110724205D02*
X129731219Y-110724205D01*
X129731219Y-110724205D02*
X129731219Y-111105157D01*
X129731219Y-111105157D02*
X129778838Y-111200395D01*
X129778838Y-111200395D02*
X129826457Y-111248014D01*
X129826457Y-111248014D02*
X129921695Y-111295633D01*
X129921695Y-111295633D02*
X130064552Y-111295633D01*
X130064552Y-111295633D02*
X130159790Y-111248014D01*
X130159790Y-111248014D02*
X130207409Y-111200395D01*
X130207409Y-111200395D02*
X130255028Y-111105157D01*
X130255028Y-111105157D02*
X130255028Y-110724205D01*
X130064552Y-112152776D02*
X130731219Y-112152776D01*
X129683600Y-111914681D02*
X130397885Y-111676586D01*
X130397885Y-111676586D02*
X130397885Y-112295633D01*
X164939380Y-85168033D02*
X164987000Y-85120414D01*
X164987000Y-85120414D02*
X165034619Y-84977557D01*
X165034619Y-84977557D02*
X165034619Y-84882319D01*
X165034619Y-84882319D02*
X164987000Y-84739462D01*
X164987000Y-84739462D02*
X164891761Y-84644224D01*
X164891761Y-84644224D02*
X164796523Y-84596605D01*
X164796523Y-84596605D02*
X164606047Y-84548986D01*
X164606047Y-84548986D02*
X164463190Y-84548986D01*
X164463190Y-84548986D02*
X164272714Y-84596605D01*
X164272714Y-84596605D02*
X164177476Y-84644224D01*
X164177476Y-84644224D02*
X164082238Y-84739462D01*
X164082238Y-84739462D02*
X164034619Y-84882319D01*
X164034619Y-84882319D02*
X164034619Y-84977557D01*
X164034619Y-84977557D02*
X164082238Y-85120414D01*
X164082238Y-85120414D02*
X164129857Y-85168033D01*
X165034619Y-85644224D02*
X165034619Y-85834700D01*
X165034619Y-85834700D02*
X164987000Y-85929938D01*
X164987000Y-85929938D02*
X164939380Y-85977557D01*
X164939380Y-85977557D02*
X164796523Y-86072795D01*
X164796523Y-86072795D02*
X164606047Y-86120414D01*
X164606047Y-86120414D02*
X164225095Y-86120414D01*
X164225095Y-86120414D02*
X164129857Y-86072795D01*
X164129857Y-86072795D02*
X164082238Y-86025176D01*
X164082238Y-86025176D02*
X164034619Y-85929938D01*
X164034619Y-85929938D02*
X164034619Y-85739462D01*
X164034619Y-85739462D02*
X164082238Y-85644224D01*
X164082238Y-85644224D02*
X164129857Y-85596605D01*
X164129857Y-85596605D02*
X164225095Y-85548986D01*
X164225095Y-85548986D02*
X164463190Y-85548986D01*
X164463190Y-85548986D02*
X164558428Y-85596605D01*
X164558428Y-85596605D02*
X164606047Y-85644224D01*
X164606047Y-85644224D02*
X164653666Y-85739462D01*
X164653666Y-85739462D02*
X164653666Y-85929938D01*
X164653666Y-85929938D02*
X164606047Y-86025176D01*
X164606047Y-86025176D02*
X164558428Y-86072795D01*
X164558428Y-86072795D02*
X164463190Y-86120414D01*
X153942320Y-119878579D02*
X153989939Y-119926199D01*
X153989939Y-119926199D02*
X154132796Y-119973818D01*
X154132796Y-119973818D02*
X154228034Y-119973818D01*
X154228034Y-119973818D02*
X154370891Y-119926199D01*
X154370891Y-119926199D02*
X154466129Y-119830960D01*
X154466129Y-119830960D02*
X154513748Y-119735722D01*
X154513748Y-119735722D02*
X154561367Y-119545246D01*
X154561367Y-119545246D02*
X154561367Y-119402389D01*
X154561367Y-119402389D02*
X154513748Y-119211913D01*
X154513748Y-119211913D02*
X154466129Y-119116675D01*
X154466129Y-119116675D02*
X154370891Y-119021437D01*
X154370891Y-119021437D02*
X154228034Y-118973818D01*
X154228034Y-118973818D02*
X154132796Y-118973818D01*
X154132796Y-118973818D02*
X153989939Y-119021437D01*
X153989939Y-119021437D02*
X153942320Y-119069056D01*
X153085177Y-119307151D02*
X153085177Y-119973818D01*
X153323272Y-118926199D02*
X153561367Y-119640484D01*
X153561367Y-119640484D02*
X152942320Y-119640484D01*
X147567004Y-62941819D02*
X147567004Y-63751342D01*
X147567004Y-63751342D02*
X147519385Y-63846580D01*
X147519385Y-63846580D02*
X147471766Y-63894200D01*
X147471766Y-63894200D02*
X147376528Y-63941819D01*
X147376528Y-63941819D02*
X147186052Y-63941819D01*
X147186052Y-63941819D02*
X147090814Y-63894200D01*
X147090814Y-63894200D02*
X147043195Y-63846580D01*
X147043195Y-63846580D02*
X146995576Y-63751342D01*
X146995576Y-63751342D02*
X146995576Y-62941819D01*
X146614623Y-62941819D02*
X145995576Y-62941819D01*
X145995576Y-62941819D02*
X146328909Y-63322771D01*
X146328909Y-63322771D02*
X146186052Y-63322771D01*
X146186052Y-63322771D02*
X146090814Y-63370390D01*
X146090814Y-63370390D02*
X146043195Y-63418009D01*
X146043195Y-63418009D02*
X145995576Y-63513247D01*
X145995576Y-63513247D02*
X145995576Y-63751342D01*
X145995576Y-63751342D02*
X146043195Y-63846580D01*
X146043195Y-63846580D02*
X146090814Y-63894200D01*
X146090814Y-63894200D02*
X146186052Y-63941819D01*
X146186052Y-63941819D02*
X146471766Y-63941819D01*
X146471766Y-63941819D02*
X146567004Y-63894200D01*
X146567004Y-63894200D02*
X146614623Y-63846580D01*
X146977819Y-85480133D02*
X146501628Y-85146800D01*
X146977819Y-84908705D02*
X145977819Y-84908705D01*
X145977819Y-84908705D02*
X145977819Y-85289657D01*
X145977819Y-85289657D02*
X146025438Y-85384895D01*
X146025438Y-85384895D02*
X146073057Y-85432514D01*
X146073057Y-85432514D02*
X146168295Y-85480133D01*
X146168295Y-85480133D02*
X146311152Y-85480133D01*
X146311152Y-85480133D02*
X146406390Y-85432514D01*
X146406390Y-85432514D02*
X146454009Y-85384895D01*
X146454009Y-85384895D02*
X146501628Y-85289657D01*
X146501628Y-85289657D02*
X146501628Y-84908705D01*
X145977819Y-86384895D02*
X145977819Y-85908705D01*
X145977819Y-85908705D02*
X146454009Y-85861086D01*
X146454009Y-85861086D02*
X146406390Y-85908705D01*
X146406390Y-85908705D02*
X146358771Y-86003943D01*
X146358771Y-86003943D02*
X146358771Y-86242038D01*
X146358771Y-86242038D02*
X146406390Y-86337276D01*
X146406390Y-86337276D02*
X146454009Y-86384895D01*
X146454009Y-86384895D02*
X146549247Y-86432514D01*
X146549247Y-86432514D02*
X146787342Y-86432514D01*
X146787342Y-86432514D02*
X146882580Y-86384895D01*
X146882580Y-86384895D02*
X146930200Y-86337276D01*
X146930200Y-86337276D02*
X146977819Y-86242038D01*
X146977819Y-86242038D02*
X146977819Y-86003943D01*
X146977819Y-86003943D02*
X146930200Y-85908705D01*
X146930200Y-85908705D02*
X146882580Y-85861086D01*
X134607819Y-90532033D02*
X134131628Y-90198700D01*
X134607819Y-89960605D02*
X133607819Y-89960605D01*
X133607819Y-89960605D02*
X133607819Y-90341557D01*
X133607819Y-90341557D02*
X133655438Y-90436795D01*
X133655438Y-90436795D02*
X133703057Y-90484414D01*
X133703057Y-90484414D02*
X133798295Y-90532033D01*
X133798295Y-90532033D02*
X133941152Y-90532033D01*
X133941152Y-90532033D02*
X134036390Y-90484414D01*
X134036390Y-90484414D02*
X134084009Y-90436795D01*
X134084009Y-90436795D02*
X134131628Y-90341557D01*
X134131628Y-90341557D02*
X134131628Y-89960605D01*
X133607819Y-90865367D02*
X133607819Y-91484414D01*
X133607819Y-91484414D02*
X133988771Y-91151081D01*
X133988771Y-91151081D02*
X133988771Y-91293938D01*
X133988771Y-91293938D02*
X134036390Y-91389176D01*
X134036390Y-91389176D02*
X134084009Y-91436795D01*
X134084009Y-91436795D02*
X134179247Y-91484414D01*
X134179247Y-91484414D02*
X134417342Y-91484414D01*
X134417342Y-91484414D02*
X134512580Y-91436795D01*
X134512580Y-91436795D02*
X134560200Y-91389176D01*
X134560200Y-91389176D02*
X134607819Y-91293938D01*
X134607819Y-91293938D02*
X134607819Y-91008224D01*
X134607819Y-91008224D02*
X134560200Y-90912986D01*
X134560200Y-90912986D02*
X134512580Y-90865367D01*
D11*
X156603762Y-109250118D02*
X156603762Y-107980118D01*
X155273285Y-109129165D02*
X155333761Y-109189642D01*
X155333761Y-109189642D02*
X155515190Y-109250118D01*
X155515190Y-109250118D02*
X155636142Y-109250118D01*
X155636142Y-109250118D02*
X155817571Y-109189642D01*
X155817571Y-109189642D02*
X155938523Y-109068689D01*
X155938523Y-109068689D02*
X155999000Y-108947737D01*
X155999000Y-108947737D02*
X156059476Y-108705832D01*
X156059476Y-108705832D02*
X156059476Y-108524403D01*
X156059476Y-108524403D02*
X155999000Y-108282499D01*
X155999000Y-108282499D02*
X155938523Y-108161546D01*
X155938523Y-108161546D02*
X155817571Y-108040594D01*
X155817571Y-108040594D02*
X155636142Y-107980118D01*
X155636142Y-107980118D02*
X155515190Y-107980118D01*
X155515190Y-107980118D02*
X155333761Y-108040594D01*
X155333761Y-108040594D02*
X155273285Y-108101070D01*
X154849952Y-107980118D02*
X154063761Y-107980118D01*
X154063761Y-107980118D02*
X154487095Y-108463927D01*
X154487095Y-108463927D02*
X154305666Y-108463927D01*
X154305666Y-108463927D02*
X154184714Y-108524403D01*
X154184714Y-108524403D02*
X154124238Y-108584880D01*
X154124238Y-108584880D02*
X154063761Y-108705832D01*
X154063761Y-108705832D02*
X154063761Y-109008213D01*
X154063761Y-109008213D02*
X154124238Y-109129165D01*
X154124238Y-109129165D02*
X154184714Y-109189642D01*
X154184714Y-109189642D02*
X154305666Y-109250118D01*
X154305666Y-109250118D02*
X154668523Y-109250118D01*
X154668523Y-109250118D02*
X154789476Y-109189642D01*
X154789476Y-109189642D02*
X154849952Y-109129165D01*
D10*
X137354254Y-115871040D02*
X137401873Y-115918660D01*
X137401873Y-115918660D02*
X137544730Y-115966279D01*
X137544730Y-115966279D02*
X137639968Y-115966279D01*
X137639968Y-115966279D02*
X137782825Y-115918660D01*
X137782825Y-115918660D02*
X137878063Y-115823421D01*
X137878063Y-115823421D02*
X137925682Y-115728183D01*
X137925682Y-115728183D02*
X137973301Y-115537707D01*
X137973301Y-115537707D02*
X137973301Y-115394850D01*
X137973301Y-115394850D02*
X137925682Y-115204374D01*
X137925682Y-115204374D02*
X137878063Y-115109136D01*
X137878063Y-115109136D02*
X137782825Y-115013898D01*
X137782825Y-115013898D02*
X137639968Y-114966279D01*
X137639968Y-114966279D02*
X137544730Y-114966279D01*
X137544730Y-114966279D02*
X137401873Y-115013898D01*
X137401873Y-115013898D02*
X137354254Y-115061517D01*
X136401873Y-115966279D02*
X136973301Y-115966279D01*
X136687587Y-115966279D02*
X136687587Y-114966279D01*
X136687587Y-114966279D02*
X136782825Y-115109136D01*
X136782825Y-115109136D02*
X136878063Y-115204374D01*
X136878063Y-115204374D02*
X136973301Y-115251993D01*
D11*
X130653762Y-101292918D02*
X130653762Y-100022918D01*
X129323285Y-101171965D02*
X129383761Y-101232442D01*
X129383761Y-101232442D02*
X129565190Y-101292918D01*
X129565190Y-101292918D02*
X129686142Y-101292918D01*
X129686142Y-101292918D02*
X129867571Y-101232442D01*
X129867571Y-101232442D02*
X129988523Y-101111489D01*
X129988523Y-101111489D02*
X130049000Y-100990537D01*
X130049000Y-100990537D02*
X130109476Y-100748632D01*
X130109476Y-100748632D02*
X130109476Y-100567203D01*
X130109476Y-100567203D02*
X130049000Y-100325299D01*
X130049000Y-100325299D02*
X129988523Y-100204346D01*
X129988523Y-100204346D02*
X129867571Y-100083394D01*
X129867571Y-100083394D02*
X129686142Y-100022918D01*
X129686142Y-100022918D02*
X129565190Y-100022918D01*
X129565190Y-100022918D02*
X129383761Y-100083394D01*
X129383761Y-100083394D02*
X129323285Y-100143870D01*
X128234714Y-100446251D02*
X128234714Y-101292918D01*
X128537095Y-99962442D02*
X128839476Y-100869584D01*
X128839476Y-100869584D02*
X128053285Y-100869584D01*
D10*
X143630419Y-100892333D02*
X143154228Y-100559000D01*
X143630419Y-100320905D02*
X142630419Y-100320905D01*
X142630419Y-100320905D02*
X142630419Y-100701857D01*
X142630419Y-100701857D02*
X142678038Y-100797095D01*
X142678038Y-100797095D02*
X142725657Y-100844714D01*
X142725657Y-100844714D02*
X142820895Y-100892333D01*
X142820895Y-100892333D02*
X142963752Y-100892333D01*
X142963752Y-100892333D02*
X143058990Y-100844714D01*
X143058990Y-100844714D02*
X143106609Y-100797095D01*
X143106609Y-100797095D02*
X143154228Y-100701857D01*
X143154228Y-100701857D02*
X143154228Y-100320905D01*
X142725657Y-101273286D02*
X142678038Y-101320905D01*
X142678038Y-101320905D02*
X142630419Y-101416143D01*
X142630419Y-101416143D02*
X142630419Y-101654238D01*
X142630419Y-101654238D02*
X142678038Y-101749476D01*
X142678038Y-101749476D02*
X142725657Y-101797095D01*
X142725657Y-101797095D02*
X142820895Y-101844714D01*
X142820895Y-101844714D02*
X142916133Y-101844714D01*
X142916133Y-101844714D02*
X143058990Y-101797095D01*
X143058990Y-101797095D02*
X143630419Y-101225667D01*
X143630419Y-101225667D02*
X143630419Y-101844714D01*
D11*
X156702762Y-85090518D02*
X156702762Y-83820518D01*
X155372285Y-84969565D02*
X155432761Y-85030042D01*
X155432761Y-85030042D02*
X155614190Y-85090518D01*
X155614190Y-85090518D02*
X155735142Y-85090518D01*
X155735142Y-85090518D02*
X155916571Y-85030042D01*
X155916571Y-85030042D02*
X156037523Y-84909089D01*
X156037523Y-84909089D02*
X156098000Y-84788137D01*
X156098000Y-84788137D02*
X156158476Y-84546232D01*
X156158476Y-84546232D02*
X156158476Y-84364803D01*
X156158476Y-84364803D02*
X156098000Y-84122899D01*
X156098000Y-84122899D02*
X156037523Y-84001946D01*
X156037523Y-84001946D02*
X155916571Y-83880994D01*
X155916571Y-83880994D02*
X155735142Y-83820518D01*
X155735142Y-83820518D02*
X155614190Y-83820518D01*
X155614190Y-83820518D02*
X155432761Y-83880994D01*
X155432761Y-83880994D02*
X155372285Y-83941470D01*
X154162761Y-85090518D02*
X154888476Y-85090518D01*
X154525619Y-85090518D02*
X154525619Y-83820518D01*
X154525619Y-83820518D02*
X154646571Y-84001946D01*
X154646571Y-84001946D02*
X154767523Y-84122899D01*
X154767523Y-84122899D02*
X154888476Y-84183375D01*
D10*
X161399280Y-96985742D02*
X161446900Y-96938123D01*
X161446900Y-96938123D02*
X161494519Y-96795266D01*
X161494519Y-96795266D02*
X161494519Y-96700028D01*
X161494519Y-96700028D02*
X161446900Y-96557171D01*
X161446900Y-96557171D02*
X161351661Y-96461933D01*
X161351661Y-96461933D02*
X161256423Y-96414314D01*
X161256423Y-96414314D02*
X161065947Y-96366695D01*
X161065947Y-96366695D02*
X160923090Y-96366695D01*
X160923090Y-96366695D02*
X160732614Y-96414314D01*
X160732614Y-96414314D02*
X160637376Y-96461933D01*
X160637376Y-96461933D02*
X160542138Y-96557171D01*
X160542138Y-96557171D02*
X160494519Y-96700028D01*
X160494519Y-96700028D02*
X160494519Y-96795266D01*
X160494519Y-96795266D02*
X160542138Y-96938123D01*
X160542138Y-96938123D02*
X160589757Y-96985742D01*
X161494519Y-97938123D02*
X161494519Y-97366695D01*
X161494519Y-97652409D02*
X160494519Y-97652409D01*
X160494519Y-97652409D02*
X160637376Y-97557171D01*
X160637376Y-97557171D02*
X160732614Y-97461933D01*
X160732614Y-97461933D02*
X160780233Y-97366695D01*
X160589757Y-98319076D02*
X160542138Y-98366695D01*
X160542138Y-98366695D02*
X160494519Y-98461933D01*
X160494519Y-98461933D02*
X160494519Y-98700028D01*
X160494519Y-98700028D02*
X160542138Y-98795266D01*
X160542138Y-98795266D02*
X160589757Y-98842885D01*
X160589757Y-98842885D02*
X160684995Y-98890504D01*
X160684995Y-98890504D02*
X160780233Y-98890504D01*
X160780233Y-98890504D02*
X160923090Y-98842885D01*
X160923090Y-98842885D02*
X161494519Y-98271457D01*
X161494519Y-98271457D02*
X161494519Y-98890504D01*
D11*
X129567062Y-80512818D02*
X129567062Y-79242818D01*
X128236585Y-80391865D02*
X128297061Y-80452342D01*
X128297061Y-80452342D02*
X128478490Y-80512818D01*
X128478490Y-80512818D02*
X128599442Y-80512818D01*
X128599442Y-80512818D02*
X128780871Y-80452342D01*
X128780871Y-80452342D02*
X128901823Y-80331389D01*
X128901823Y-80331389D02*
X128962300Y-80210437D01*
X128962300Y-80210437D02*
X129022776Y-79968532D01*
X129022776Y-79968532D02*
X129022776Y-79787103D01*
X129022776Y-79787103D02*
X128962300Y-79545199D01*
X128962300Y-79545199D02*
X128901823Y-79424246D01*
X128901823Y-79424246D02*
X128780871Y-79303294D01*
X128780871Y-79303294D02*
X128599442Y-79242818D01*
X128599442Y-79242818D02*
X128478490Y-79242818D01*
X128478490Y-79242818D02*
X128297061Y-79303294D01*
X128297061Y-79303294D02*
X128236585Y-79363770D01*
X127087538Y-79242818D02*
X127692300Y-79242818D01*
X127692300Y-79242818D02*
X127752776Y-79847580D01*
X127752776Y-79847580D02*
X127692300Y-79787103D01*
X127692300Y-79787103D02*
X127571347Y-79726627D01*
X127571347Y-79726627D02*
X127268966Y-79726627D01*
X127268966Y-79726627D02*
X127148014Y-79787103D01*
X127148014Y-79787103D02*
X127087538Y-79847580D01*
X127087538Y-79847580D02*
X127027061Y-79968532D01*
X127027061Y-79968532D02*
X127027061Y-80270913D01*
X127027061Y-80270913D02*
X127087538Y-80391865D01*
X127087538Y-80391865D02*
X127148014Y-80452342D01*
X127148014Y-80452342D02*
X127268966Y-80512818D01*
X127268966Y-80512818D02*
X127571347Y-80512818D01*
X127571347Y-80512818D02*
X127692300Y-80452342D01*
X127692300Y-80452342D02*
X127752776Y-80391865D01*
D10*
X136596138Y-105960347D02*
X136643757Y-106007967D01*
X136643757Y-106007967D02*
X136786614Y-106055586D01*
X136786614Y-106055586D02*
X136881852Y-106055586D01*
X136881852Y-106055586D02*
X137024709Y-106007967D01*
X137024709Y-106007967D02*
X137119947Y-105912728D01*
X137119947Y-105912728D02*
X137167566Y-105817490D01*
X137167566Y-105817490D02*
X137215185Y-105627014D01*
X137215185Y-105627014D02*
X137215185Y-105484157D01*
X137215185Y-105484157D02*
X137167566Y-105293681D01*
X137167566Y-105293681D02*
X137119947Y-105198443D01*
X137119947Y-105198443D02*
X137024709Y-105103205D01*
X137024709Y-105103205D02*
X136881852Y-105055586D01*
X136881852Y-105055586D02*
X136786614Y-105055586D01*
X136786614Y-105055586D02*
X136643757Y-105103205D01*
X136643757Y-105103205D02*
X136596138Y-105150824D01*
X136262804Y-105055586D02*
X135596138Y-105055586D01*
X135596138Y-105055586D02*
X136024709Y-106055586D01*
X162689934Y-101530987D02*
X162737553Y-101578607D01*
X162737553Y-101578607D02*
X162880410Y-101626226D01*
X162880410Y-101626226D02*
X162975648Y-101626226D01*
X162975648Y-101626226D02*
X163118505Y-101578607D01*
X163118505Y-101578607D02*
X163213743Y-101483368D01*
X163213743Y-101483368D02*
X163261362Y-101388130D01*
X163261362Y-101388130D02*
X163308981Y-101197654D01*
X163308981Y-101197654D02*
X163308981Y-101054797D01*
X163308981Y-101054797D02*
X163261362Y-100864321D01*
X163261362Y-100864321D02*
X163213743Y-100769083D01*
X163213743Y-100769083D02*
X163118505Y-100673845D01*
X163118505Y-100673845D02*
X162975648Y-100626226D01*
X162975648Y-100626226D02*
X162880410Y-100626226D01*
X162880410Y-100626226D02*
X162737553Y-100673845D01*
X162737553Y-100673845D02*
X162689934Y-100721464D01*
X161737553Y-101626226D02*
X162308981Y-101626226D01*
X162023267Y-101626226D02*
X162023267Y-100626226D01*
X162023267Y-100626226D02*
X162118505Y-100769083D01*
X162118505Y-100769083D02*
X162213743Y-100864321D01*
X162213743Y-100864321D02*
X162308981Y-100911940D01*
X161404219Y-100626226D02*
X160785172Y-100626226D01*
X160785172Y-100626226D02*
X161118505Y-101007178D01*
X161118505Y-101007178D02*
X160975648Y-101007178D01*
X160975648Y-101007178D02*
X160880410Y-101054797D01*
X160880410Y-101054797D02*
X160832791Y-101102416D01*
X160832791Y-101102416D02*
X160785172Y-101197654D01*
X160785172Y-101197654D02*
X160785172Y-101435749D01*
X160785172Y-101435749D02*
X160832791Y-101530987D01*
X160832791Y-101530987D02*
X160880410Y-101578607D01*
X160880410Y-101578607D02*
X160975648Y-101626226D01*
X160975648Y-101626226D02*
X161261362Y-101626226D01*
X161261362Y-101626226D02*
X161356600Y-101578607D01*
X161356600Y-101578607D02*
X161404219Y-101530987D01*
D11*
X155617876Y-78197443D02*
X155617876Y-76927443D01*
X155617876Y-76927443D02*
X155315495Y-76927443D01*
X155315495Y-76927443D02*
X155134066Y-76987919D01*
X155134066Y-76987919D02*
X155013114Y-77108871D01*
X155013114Y-77108871D02*
X154952637Y-77229824D01*
X154952637Y-77229824D02*
X154892161Y-77471728D01*
X154892161Y-77471728D02*
X154892161Y-77653157D01*
X154892161Y-77653157D02*
X154952637Y-77895062D01*
X154952637Y-77895062D02*
X155013114Y-78016014D01*
X155013114Y-78016014D02*
X155134066Y-78136967D01*
X155134066Y-78136967D02*
X155315495Y-78197443D01*
X155315495Y-78197443D02*
X155617876Y-78197443D01*
X153682637Y-78197443D02*
X154408352Y-78197443D01*
X154045495Y-78197443D02*
X154045495Y-76927443D01*
X154045495Y-76927443D02*
X154166447Y-77108871D01*
X154166447Y-77108871D02*
X154287399Y-77229824D01*
X154287399Y-77229824D02*
X154408352Y-77290300D01*
D10*
X136726566Y-99941180D02*
X136774185Y-99988800D01*
X136774185Y-99988800D02*
X136917042Y-100036419D01*
X136917042Y-100036419D02*
X137012280Y-100036419D01*
X137012280Y-100036419D02*
X137155137Y-99988800D01*
X137155137Y-99988800D02*
X137250375Y-99893561D01*
X137250375Y-99893561D02*
X137297994Y-99798323D01*
X137297994Y-99798323D02*
X137345613Y-99607847D01*
X137345613Y-99607847D02*
X137345613Y-99464990D01*
X137345613Y-99464990D02*
X137297994Y-99274514D01*
X137297994Y-99274514D02*
X137250375Y-99179276D01*
X137250375Y-99179276D02*
X137155137Y-99084038D01*
X137155137Y-99084038D02*
X137012280Y-99036419D01*
X137012280Y-99036419D02*
X136917042Y-99036419D01*
X136917042Y-99036419D02*
X136774185Y-99084038D01*
X136774185Y-99084038D02*
X136726566Y-99131657D01*
X135869423Y-99036419D02*
X136059899Y-99036419D01*
X136059899Y-99036419D02*
X136155137Y-99084038D01*
X136155137Y-99084038D02*
X136202756Y-99131657D01*
X136202756Y-99131657D02*
X136297994Y-99274514D01*
X136297994Y-99274514D02*
X136345613Y-99464990D01*
X136345613Y-99464990D02*
X136345613Y-99845942D01*
X136345613Y-99845942D02*
X136297994Y-99941180D01*
X136297994Y-99941180D02*
X136250375Y-99988800D01*
X136250375Y-99988800D02*
X136155137Y-100036419D01*
X136155137Y-100036419D02*
X135964661Y-100036419D01*
X135964661Y-100036419D02*
X135869423Y-99988800D01*
X135869423Y-99988800D02*
X135821804Y-99941180D01*
X135821804Y-99941180D02*
X135774185Y-99845942D01*
X135774185Y-99845942D02*
X135774185Y-99607847D01*
X135774185Y-99607847D02*
X135821804Y-99512609D01*
X135821804Y-99512609D02*
X135869423Y-99464990D01*
X135869423Y-99464990D02*
X135964661Y-99417371D01*
X135964661Y-99417371D02*
X136155137Y-99417371D01*
X136155137Y-99417371D02*
X136250375Y-99464990D01*
X136250375Y-99464990D02*
X136297994Y-99512609D01*
X136297994Y-99512609D02*
X136345613Y-99607847D01*
X161378680Y-108109542D02*
X161426300Y-108061923D01*
X161426300Y-108061923D02*
X161473919Y-107919066D01*
X161473919Y-107919066D02*
X161473919Y-107823828D01*
X161473919Y-107823828D02*
X161426300Y-107680971D01*
X161426300Y-107680971D02*
X161331061Y-107585733D01*
X161331061Y-107585733D02*
X161235823Y-107538114D01*
X161235823Y-107538114D02*
X161045347Y-107490495D01*
X161045347Y-107490495D02*
X160902490Y-107490495D01*
X160902490Y-107490495D02*
X160712014Y-107538114D01*
X160712014Y-107538114D02*
X160616776Y-107585733D01*
X160616776Y-107585733D02*
X160521538Y-107680971D01*
X160521538Y-107680971D02*
X160473919Y-107823828D01*
X160473919Y-107823828D02*
X160473919Y-107919066D01*
X160473919Y-107919066D02*
X160521538Y-108061923D01*
X160521538Y-108061923D02*
X160569157Y-108109542D01*
X161473919Y-109061923D02*
X161473919Y-108490495D01*
X161473919Y-108776209D02*
X160473919Y-108776209D01*
X160473919Y-108776209D02*
X160616776Y-108680971D01*
X160616776Y-108680971D02*
X160712014Y-108585733D01*
X160712014Y-108585733D02*
X160759633Y-108490495D01*
X160807252Y-109919066D02*
X161473919Y-109919066D01*
X160426300Y-109680971D02*
X161140585Y-109442876D01*
X161140585Y-109442876D02*
X161140585Y-110061923D01*
X170098439Y-111402035D02*
X170146058Y-111449655D01*
X170146058Y-111449655D02*
X170288915Y-111497274D01*
X170288915Y-111497274D02*
X170384153Y-111497274D01*
X170384153Y-111497274D02*
X170527010Y-111449655D01*
X170527010Y-111449655D02*
X170622248Y-111354416D01*
X170622248Y-111354416D02*
X170669867Y-111259178D01*
X170669867Y-111259178D02*
X170717486Y-111068702D01*
X170717486Y-111068702D02*
X170717486Y-110925845D01*
X170717486Y-110925845D02*
X170669867Y-110735369D01*
X170669867Y-110735369D02*
X170622248Y-110640131D01*
X170622248Y-110640131D02*
X170527010Y-110544893D01*
X170527010Y-110544893D02*
X170384153Y-110497274D01*
X170384153Y-110497274D02*
X170288915Y-110497274D01*
X170288915Y-110497274D02*
X170146058Y-110544893D01*
X170146058Y-110544893D02*
X170098439Y-110592512D01*
X169146058Y-111497274D02*
X169717486Y-111497274D01*
X169431772Y-111497274D02*
X169431772Y-110497274D01*
X169431772Y-110497274D02*
X169527010Y-110640131D01*
X169527010Y-110640131D02*
X169622248Y-110735369D01*
X169622248Y-110735369D02*
X169717486Y-110782988D01*
X168288915Y-110497274D02*
X168479391Y-110497274D01*
X168479391Y-110497274D02*
X168574629Y-110544893D01*
X168574629Y-110544893D02*
X168622248Y-110592512D01*
X168622248Y-110592512D02*
X168717486Y-110735369D01*
X168717486Y-110735369D02*
X168765105Y-110925845D01*
X168765105Y-110925845D02*
X168765105Y-111306797D01*
X168765105Y-111306797D02*
X168717486Y-111402035D01*
X168717486Y-111402035D02*
X168669867Y-111449655D01*
X168669867Y-111449655D02*
X168574629Y-111497274D01*
X168574629Y-111497274D02*
X168384153Y-111497274D01*
X168384153Y-111497274D02*
X168288915Y-111449655D01*
X168288915Y-111449655D02*
X168241296Y-111402035D01*
X168241296Y-111402035D02*
X168193677Y-111306797D01*
X168193677Y-111306797D02*
X168193677Y-111068702D01*
X168193677Y-111068702D02*
X168241296Y-110973464D01*
X168241296Y-110973464D02*
X168288915Y-110925845D01*
X168288915Y-110925845D02*
X168384153Y-110878226D01*
X168384153Y-110878226D02*
X168574629Y-110878226D01*
X168574629Y-110878226D02*
X168669867Y-110925845D01*
X168669867Y-110925845D02*
X168717486Y-110973464D01*
X168717486Y-110973464D02*
X168765105Y-111068702D01*
D12*
%TO.C,C17*%
X121542500Y-77834348D02*
X121542500Y-79256852D01*
X123362500Y-77834348D02*
X123362500Y-79256852D01*
%TO.C,C2*%
X144136300Y-120311952D02*
X144136300Y-118889448D01*
X145956300Y-120311952D02*
X145956300Y-118889448D01*
%TO.C,U4*%
X164004800Y-67114000D02*
X165954800Y-67114000D01*
X164004800Y-72234000D02*
X165954800Y-72234000D01*
X167904800Y-67114000D02*
X165954800Y-67114000D01*
X167904800Y-72234000D02*
X165954800Y-72234000D01*
X168654800Y-67209000D02*
X168414800Y-66879000D01*
X168894800Y-66879000D01*
X168654800Y-67209000D01*
G36*
X168654800Y-67209000D02*
G01*
X168414800Y-66879000D01*
X168894800Y-66879000D01*
X168654800Y-67209000D01*
G37*
D13*
%TO.C,IC2*%
X153259800Y-92366700D02*
X157849800Y-92366700D01*
X153259800Y-99566700D02*
X153259800Y-92366700D01*
X157849800Y-92366700D02*
X157849800Y-99566700D01*
X157849800Y-99566700D02*
X153259800Y-99566700D01*
X158199800Y-92466700D02*
X159904800Y-92466700D01*
D12*
%TO.C,C10*%
X174166352Y-76546100D02*
X172743848Y-76546100D01*
X174166352Y-78366100D02*
X172743848Y-78366100D01*
%TO.C,R4*%
X131186400Y-112189364D02*
X131186400Y-110735236D01*
X133006400Y-112189364D02*
X133006400Y-110735236D01*
%TO.C,C9*%
X161819800Y-84623448D02*
X161819800Y-86045952D01*
X163639800Y-84623448D02*
X163639800Y-86045952D01*
%TO.C,C4*%
X149469748Y-118605100D02*
X150892252Y-118605100D01*
X149469748Y-120425100D02*
X150892252Y-120425100D01*
%TO.C,U3*%
X142945100Y-64322000D02*
X146805100Y-64322000D01*
X142945100Y-64567000D02*
X142945100Y-64322000D01*
X142945100Y-75847000D02*
X142945100Y-76092000D01*
X142945100Y-76092000D02*
X146805100Y-76092000D01*
X150665100Y-64322000D02*
X146805100Y-64322000D01*
X150665100Y-64567000D02*
X150665100Y-64322000D01*
X150665100Y-75847000D02*
X150665100Y-76092000D01*
X150665100Y-76092000D02*
X146805100Y-76092000D01*
X151517600Y-64567000D02*
X151177600Y-64097000D01*
X151857600Y-64097000D01*
X151517600Y-64567000D01*
G36*
X151517600Y-64567000D02*
G01*
X151177600Y-64097000D01*
X151857600Y-64097000D01*
X151517600Y-64567000D01*
G37*
%TO.C,R5*%
X143793000Y-84919736D02*
X143793000Y-86373864D01*
X145613000Y-84919736D02*
X145613000Y-86373864D01*
%TO.C,R3*%
X135063000Y-91425764D02*
X135063000Y-89971636D01*
X136883000Y-91425764D02*
X136883000Y-89971636D01*
D13*
%TO.C,IC3*%
X153069000Y-105075800D02*
X157659000Y-105075800D01*
X153069000Y-112275800D02*
X153069000Y-105075800D01*
X157659000Y-105075800D02*
X157659000Y-112275800D01*
X157659000Y-112275800D02*
X153069000Y-112275800D01*
X158009000Y-105175800D02*
X159714000Y-105175800D01*
D12*
%TO.C,C1*%
X136443348Y-116289700D02*
X137865852Y-116289700D01*
X136443348Y-118109700D02*
X137865852Y-118109700D01*
D13*
%TO.C,IC4*%
X127464000Y-105838600D02*
X125939000Y-105838600D01*
X127814000Y-95768600D02*
X131014000Y-95768600D01*
X127814000Y-105668600D02*
X127814000Y-95768600D01*
X131014000Y-95768600D02*
X131014000Y-105668600D01*
X131014000Y-105668600D02*
X127814000Y-105668600D01*
D12*
%TO.C,R2*%
X144085600Y-101786064D02*
X144085600Y-100331936D01*
X145905600Y-101786064D02*
X145905600Y-100331936D01*
D13*
%TO.C,IC1*%
X153168000Y-80916200D02*
X157758000Y-80916200D01*
X153168000Y-88116200D02*
X153168000Y-80916200D01*
X157758000Y-80916200D02*
X157758000Y-88116200D01*
X157758000Y-88116200D02*
X153168000Y-88116200D01*
X158108000Y-81016200D02*
X159813000Y-81016200D01*
D12*
%TO.C,C12*%
X161979700Y-98339852D02*
X161979700Y-96917348D01*
X163799700Y-98339852D02*
X163799700Y-96917348D01*
D13*
%TO.C,IC5*%
X126152300Y-83038500D02*
X124302300Y-83038500D01*
X126577300Y-76688500D02*
X130077300Y-76688500D01*
X126577300Y-83188500D02*
X126577300Y-76688500D01*
X130077300Y-76688500D02*
X130077300Y-83188500D01*
X130077300Y-83188500D02*
X126577300Y-83188500D01*
D12*
%TO.C,C7*%
X135852348Y-102991500D02*
X137274852Y-102991500D01*
X135852348Y-104811500D02*
X137274852Y-104811500D01*
%TO.C,C13*%
X158794752Y-100265400D02*
X157372248Y-100265400D01*
X158794752Y-102085400D02*
X157372248Y-102085400D01*
D13*
%TO.C,D1*%
X154605900Y-74394100D02*
X154805900Y-74394100D01*
X154605900Y-76394100D02*
X154605900Y-74394100D01*
X154805900Y-74394100D02*
X154805900Y-76394100D01*
X154805900Y-76394100D02*
X154605900Y-76394100D01*
X155155900Y-74219100D02*
X156155900Y-74219100D01*
D12*
%TO.C,C6*%
X135848648Y-100521600D02*
X137271152Y-100521600D01*
X135848648Y-102341600D02*
X137271152Y-102341600D01*
%TO.C,C14*%
X161959100Y-109463652D02*
X161959100Y-108041148D01*
X163779100Y-109463652D02*
X163779100Y-108041148D01*
%TO.C,C16*%
X167537348Y-111909400D02*
X168959852Y-111909400D01*
X167537348Y-113729400D02*
X168959852Y-113729400D01*
%TD*%
%LPC*%
D14*
%TO.C,R7*%
X139116100Y-58260700D03*
D15*
X141656100Y-58260700D03*
%TD*%
D16*
%TO.C,J1*%
X157148000Y-71872800D03*
D17*
X157148000Y-69332800D03*
X157148000Y-66792800D03*
X157148000Y-64252800D03*
%TD*%
D14*
%TO.C,NTC1*%
X135965600Y-94809500D03*
D15*
X135965600Y-97349500D03*
%TD*%
D18*
%TO.C,J3*%
X146767300Y-124094700D03*
D19*
X144227300Y-124094700D03*
X141687300Y-124094700D03*
X139147300Y-124094700D03*
X136607300Y-124094700D03*
X134067300Y-124094700D03*
%TD*%
D16*
%TO.C,J15*%
X167848300Y-96013700D03*
D17*
X167848300Y-93473700D03*
X167848300Y-90933700D03*
X167848300Y-88393700D03*
%TD*%
D20*
%TO.C,U5*%
X134999500Y-70018000D03*
X134999500Y-73418000D03*
X125079500Y-70018000D03*
X125079500Y-73418000D03*
%TD*%
D14*
%TO.C,R6*%
X159962900Y-75582300D03*
D15*
X157422900Y-75582300D03*
%TD*%
D16*
%TO.C,J14*%
X167892100Y-83986200D03*
D17*
X167892100Y-81446200D03*
X167892100Y-78906200D03*
X167892100Y-76366200D03*
%TD*%
D16*
%TO.C,J16*%
X167909100Y-108390600D03*
D17*
X167909100Y-105850600D03*
X167909100Y-103310600D03*
X167909100Y-100770600D03*
%TD*%
D18*
%TO.C,Powerboard1*%
X130976300Y-92602600D03*
D19*
X130976300Y-90062600D03*
X130976300Y-87522600D03*
%TD*%
D21*
%TO.C,U2*%
X140929500Y-81761800D03*
D15*
X140929500Y-84301800D03*
X140929500Y-86841800D03*
X140929500Y-89381800D03*
X140929500Y-91921800D03*
X140929500Y-94461800D03*
X140929500Y-97001800D03*
X140929500Y-99541800D03*
X140929500Y-102081800D03*
X140929500Y-104621800D03*
X140929500Y-107161800D03*
X140929500Y-109701800D03*
X140929500Y-112241800D03*
X140929500Y-114781800D03*
X148549500Y-114781800D03*
X148549500Y-112241800D03*
X148549500Y-109701800D03*
X148549500Y-107161800D03*
X148549500Y-104621800D03*
X148549500Y-102081800D03*
X148549500Y-99541800D03*
X148549500Y-97001800D03*
X148549500Y-94461800D03*
X148549500Y-91921800D03*
X148549500Y-89381800D03*
X148549500Y-86841800D03*
X148549500Y-84301800D03*
X148549500Y-81761800D03*
%TD*%
D18*
%TO.C,J5*%
X139049600Y-61738500D03*
D19*
X141589600Y-61738500D03*
%TD*%
D22*
%TO.C,Q1*%
X136586000Y-84423600D03*
D23*
X136586000Y-81883600D03*
X136586000Y-79343600D03*
%TD*%
D24*
%TO.C,Y2*%
X156482900Y-115391200D03*
X161362900Y-115391200D03*
%TD*%
D25*
%TO.C,Reset1*%
X135385300Y-113752500D03*
D24*
X128885300Y-113752500D03*
X135385300Y-109252500D03*
X128885300Y-109252500D03*
%TD*%
%TO.C,Y1*%
X135241300Y-119345300D03*
X140121300Y-119345300D03*
%TD*%
D26*
%TO.C,C17*%
X122452500Y-80108100D03*
X122452500Y-76983100D03*
%TD*%
D27*
%TO.C,C2*%
X145046300Y-118038200D03*
X145046300Y-121163200D03*
%TD*%
D28*
%TO.C,U4*%
X168429800Y-67769000D03*
X168429800Y-69039000D03*
X168429800Y-70309000D03*
X168429800Y-71579000D03*
X163479800Y-71579000D03*
X163479800Y-70309000D03*
X163479800Y-69039000D03*
X163479800Y-67769000D03*
%TD*%
D29*
%TO.C,IC2*%
X159052800Y-93041700D03*
X159052800Y-93691700D03*
X159052800Y-94341700D03*
X159052800Y-94991700D03*
X159052800Y-95641700D03*
X159052800Y-96291700D03*
X159052800Y-96941700D03*
X159052800Y-97591700D03*
X159052800Y-98241700D03*
X159052800Y-98891700D03*
X152056800Y-98891700D03*
X152056800Y-98241700D03*
X152056800Y-97591700D03*
X152056800Y-96941700D03*
X152056800Y-96291700D03*
X152056800Y-95641700D03*
X152056800Y-94991700D03*
X152056800Y-94341700D03*
X152056800Y-93691700D03*
X152056800Y-93041700D03*
%TD*%
D30*
%TO.C,C10*%
X171892600Y-77456100D03*
X175017600Y-77456100D03*
%TD*%
D31*
%TO.C,R4*%
X132096400Y-109912300D03*
X132096400Y-113012300D03*
%TD*%
D26*
%TO.C,C9*%
X162729800Y-86897200D03*
X162729800Y-83772200D03*
%TD*%
D32*
%TO.C,C4*%
X151743500Y-119515100D03*
X148618500Y-119515100D03*
%TD*%
D33*
%TO.C,U3*%
X151455100Y-65127000D03*
X151455100Y-66397000D03*
X151455100Y-67667000D03*
X151455100Y-68937000D03*
X151455100Y-70207000D03*
X151455100Y-71477000D03*
X151455100Y-72747000D03*
X151455100Y-74017000D03*
X151455100Y-75287000D03*
X142155100Y-75287000D03*
X142155100Y-74017000D03*
X142155100Y-72747000D03*
X142155100Y-71477000D03*
X142155100Y-70207000D03*
X142155100Y-68937000D03*
X142155100Y-67667000D03*
X142155100Y-66397000D03*
X142155100Y-65127000D03*
%TD*%
D34*
%TO.C,R5*%
X144703000Y-87196800D03*
X144703000Y-84096800D03*
%TD*%
D31*
%TO.C,R3*%
X135973000Y-89148700D03*
X135973000Y-92248700D03*
%TD*%
D29*
%TO.C,IC3*%
X158862000Y-105750800D03*
X158862000Y-106400800D03*
X158862000Y-107050800D03*
X158862000Y-107700800D03*
X158862000Y-108350800D03*
X158862000Y-109000800D03*
X158862000Y-109650800D03*
X158862000Y-110300800D03*
X158862000Y-110950800D03*
X158862000Y-111600800D03*
X151866000Y-111600800D03*
X151866000Y-110950800D03*
X151866000Y-110300800D03*
X151866000Y-109650800D03*
X151866000Y-109000800D03*
X151866000Y-108350800D03*
X151866000Y-107700800D03*
X151866000Y-107050800D03*
X151866000Y-106400800D03*
X151866000Y-105750800D03*
%TD*%
D32*
%TO.C,C1*%
X138717100Y-117199700D03*
X135592100Y-117199700D03*
%TD*%
D35*
%TO.C,IC4*%
X126702000Y-105163600D03*
X126702000Y-103893600D03*
X126702000Y-102623600D03*
X126702000Y-101353600D03*
X126702000Y-100083600D03*
X126702000Y-98813600D03*
X126702000Y-97543600D03*
X126702000Y-96273600D03*
X132126000Y-96273600D03*
X132126000Y-97543600D03*
X132126000Y-98813600D03*
X132126000Y-100083600D03*
X132126000Y-101353600D03*
X132126000Y-102623600D03*
X132126000Y-103893600D03*
X132126000Y-105163600D03*
%TD*%
D31*
%TO.C,R2*%
X144995600Y-99509000D03*
X144995600Y-102609000D03*
%TD*%
D29*
%TO.C,IC1*%
X158961000Y-81591200D03*
X158961000Y-82241200D03*
X158961000Y-82891200D03*
X158961000Y-83541200D03*
X158961000Y-84191200D03*
X158961000Y-84841200D03*
X158961000Y-85491200D03*
X158961000Y-86141200D03*
X158961000Y-86791200D03*
X158961000Y-87441200D03*
X151965000Y-87441200D03*
X151965000Y-86791200D03*
X151965000Y-86141200D03*
X151965000Y-85491200D03*
X151965000Y-84841200D03*
X151965000Y-84191200D03*
X151965000Y-83541200D03*
X151965000Y-82891200D03*
X151965000Y-82241200D03*
X151965000Y-81591200D03*
%TD*%
D27*
%TO.C,C12*%
X162889700Y-96066100D03*
X162889700Y-99191100D03*
%TD*%
D36*
%TO.C,IC5*%
X125227300Y-82238500D03*
X125227300Y-79938500D03*
X125227300Y-77638500D03*
D37*
X131427300Y-79938500D03*
%TD*%
D32*
%TO.C,C7*%
X138126100Y-103901500D03*
X135001100Y-103901500D03*
%TD*%
D30*
%TO.C,C13*%
X156521000Y-101175400D03*
X159646000Y-101175400D03*
%TD*%
D38*
%TO.C,D1*%
X155655900Y-74744100D03*
X155655900Y-76044100D03*
X153755900Y-75394100D03*
%TD*%
D32*
%TO.C,C6*%
X138122400Y-101431600D03*
X134997400Y-101431600D03*
%TD*%
D27*
%TO.C,C14*%
X162869100Y-107189900D03*
X162869100Y-110314900D03*
%TD*%
D32*
%TO.C,C16*%
X169811100Y-112819400D03*
X166686100Y-112819400D03*
%TD*%
%LPD*%
M02*
