%TF.GenerationSoftware,KiCad,Pcbnew,8.0.1-rc1*%
%TF.CreationDate,2024-06-08T15:22:59-07:00*%
%TF.ProjectId,AMS - CANBus Sensor - Temperature,414d5320-2d20-4434-914e-427573205365,rev?*%
%TF.SameCoordinates,Original*%
%TF.FileFunction,Copper,L1,Top*%
%TF.FilePolarity,Positive*%
%FSLAX46Y46*%
G04 Gerber Fmt 4.6, Leading zero omitted, Abs format (unit mm)*
G04 Created by KiCad (PCBNEW 8.0.1-rc1) date 2024-06-08 15:22:59*
%MOMM*%
%LPD*%
G01*
G04 APERTURE LIST*
G04 Aperture macros list*
%AMRoundRect*
0 Rectangle with rounded corners*
0 $1 Rounding radius*
0 $2 $3 $4 $5 $6 $7 $8 $9 X,Y pos of 4 corners*
0 Add a 4 corners polygon primitive as box body*
4,1,4,$2,$3,$4,$5,$6,$7,$8,$9,$2,$3,0*
0 Add four circle primitives for the rounded corners*
1,1,$1+$1,$2,$3*
1,1,$1+$1,$4,$5*
1,1,$1+$1,$6,$7*
1,1,$1+$1,$8,$9*
0 Add four rect primitives between the rounded corners*
20,1,$1+$1,$2,$3,$4,$5,0*
20,1,$1+$1,$4,$5,$6,$7,0*
20,1,$1+$1,$6,$7,$8,$9,0*
20,1,$1+$1,$8,$9,$2,$3,0*%
G04 Aperture macros list end*
%TA.AperFunction,ComponentPad*%
%ADD10R,1.700000X1.700000*%
%TD*%
%TA.AperFunction,ComponentPad*%
%ADD11O,1.700000X1.700000*%
%TD*%
%TA.AperFunction,SMDPad,CuDef*%
%ADD12RoundRect,0.250000X-0.650000X0.412500X-0.650000X-0.412500X0.650000X-0.412500X0.650000X0.412500X0*%
%TD*%
%TA.AperFunction,SMDPad,CuDef*%
%ADD13RoundRect,0.250000X-0.625000X0.400000X-0.625000X-0.400000X0.625000X-0.400000X0.625000X0.400000X0*%
%TD*%
%TA.AperFunction,ComponentPad*%
%ADD14C,1.600000*%
%TD*%
%TA.AperFunction,ComponentPad*%
%ADD15O,1.600000X1.600000*%
%TD*%
%TA.AperFunction,ComponentPad*%
%ADD16R,2.200000X2.200000*%
%TD*%
%TA.AperFunction,ComponentPad*%
%ADD17C,2.200000*%
%TD*%
%TA.AperFunction,ComponentPad*%
%ADD18C,2.400000*%
%TD*%
%TA.AperFunction,SMDPad,CuDef*%
%ADD19R,1.000000X3.150000*%
%TD*%
%TA.AperFunction,ComponentPad*%
%ADD20R,1.600000X1.600000*%
%TD*%
%TA.AperFunction,ComponentPad*%
%ADD21R,1.920000X1.920000*%
%TD*%
%TA.AperFunction,ComponentPad*%
%ADD22C,1.920000*%
%TD*%
%TA.AperFunction,SMDPad,CuDef*%
%ADD23RoundRect,0.250000X-0.400000X-0.625000X0.400000X-0.625000X0.400000X0.625000X-0.400000X0.625000X0*%
%TD*%
%TA.AperFunction,ComponentPad*%
%ADD24C,1.500000*%
%TD*%
%TA.AperFunction,ComponentPad*%
%ADD25R,1.500000X1.500000*%
%TD*%
%TA.AperFunction,SMDPad,CuDef*%
%ADD26RoundRect,0.250000X0.412500X0.650000X-0.412500X0.650000X-0.412500X-0.650000X0.412500X-0.650000X0*%
%TD*%
%TA.AperFunction,ViaPad*%
%ADD27C,0.600000*%
%TD*%
%TA.AperFunction,Conductor*%
%ADD28C,0.200000*%
%TD*%
%TA.AperFunction,Conductor*%
%ADD29C,0.762000*%
%TD*%
G04 APERTURE END LIST*
D10*
%TO.P,J2,1,Pin_1*%
%TO.N,/MAX31865AAP+1/FORCE+*%
X154427100Y-80520700D03*
D11*
%TO.P,J2,2,Pin_2*%
%TO.N,/MAX31865AAP+1/RTDIn+*%
X156967100Y-80520700D03*
%TD*%
D12*
%TO.P,C3,1*%
%TO.N,Net-(U2-XTAL2{slash}PB7)*%
X145039800Y-118025700D03*
%TO.P,C3,2*%
%TO.N,GND*%
X145039800Y-121150700D03*
%TD*%
D10*
%TO.P,J10,1,Pin_1*%
%TO.N,/MAX31865AAP+2/FORCE-*%
X154147400Y-96704500D03*
D11*
%TO.P,J10,2,Pin_2*%
%TO.N,/MAX31865AAP+2/RTDin-*%
X156687400Y-96704500D03*
%TD*%
D13*
%TO.P,R10,1*%
%TO.N,Net-(IC3-BIAS)*%
X183194000Y-101059800D03*
%TO.P,R10,2*%
%TO.N,Net-(IC3-ISENSOR)*%
X183194000Y-104159800D03*
%TD*%
D14*
%TO.P,R7,1*%
%TO.N,Net-(J5-Pin_2)*%
X139116100Y-58260700D03*
D15*
%TO.P,R7,2*%
%TO.N,CANBUS_L*%
X141656100Y-58260700D03*
%TD*%
D16*
%TO.P,J1,1,Pin_1*%
%TO.N,Net-(J1-Pin_1)*%
X157148000Y-71872800D03*
D17*
%TO.P,J1,2,Pin_2*%
%TO.N,GND*%
X157148000Y-69332800D03*
%TO.P,J1,3,Pin_3*%
%TO.N,CANBUS_H*%
X157148000Y-66792800D03*
%TO.P,J1,4,Pin_4*%
%TO.N,CANBUS_L*%
X157148000Y-64252800D03*
%TD*%
D14*
%TO.P,NTC1,1*%
%TO.N,/BareMinAtmel328P/PC0-A0*%
X135965600Y-94809500D03*
D15*
%TO.P,NTC1,2*%
%TO.N,+5V*%
X135965600Y-97349500D03*
%TD*%
D10*
%TO.P,J3,1,Pin_1*%
%TO.N,GND*%
X146767300Y-124094700D03*
D11*
%TO.P,J3,2,Pin_2*%
%TO.N,unconnected-(J3-Pin_2-Pad2)*%
X144227300Y-124094700D03*
%TO.P,J3,3,Pin_3*%
%TO.N,+5V*%
X141687300Y-124094700D03*
%TO.P,J3,4,Pin_4*%
%TO.N,/BareMinAtmel328P/PD0-RX*%
X139147300Y-124094700D03*
%TO.P,J3,5,Pin_5*%
%TO.N,/BareMinAtmel328P/PD1-TX*%
X136607300Y-124094700D03*
%TO.P,J3,6,Pin_6*%
%TO.N,Net-(J3-Pin_6)*%
X134067300Y-124094700D03*
%TD*%
D16*
%TO.P,J15,1,Pin_1*%
%TO.N,/MAX31865AAP+2/RTDIn+*%
X169777600Y-97738800D03*
D17*
%TO.P,J15,2,Pin_2*%
%TO.N,/MAX31865AAP+2/FORCE+*%
X169777600Y-95198800D03*
%TO.P,J15,3,Pin_3*%
%TO.N,/MAX31865AAP+2/FORCE-*%
X169777600Y-92658800D03*
%TO.P,J15,4,Pin_4*%
%TO.N,/MAX31865AAP+2/RTDin-*%
X169777600Y-90118800D03*
%TD*%
D13*
%TO.P,R9,1*%
%TO.N,Net-(IC2-BIAS)*%
X182215084Y-90275486D03*
%TO.P,R9,2*%
%TO.N,Net-(IC2-ISENSOR)*%
X182215084Y-93375486D03*
%TD*%
D10*
%TO.P,J7,1,Pin_1*%
%TO.N,/MAX31865AAP+1/FORCE-*%
X154091800Y-85981100D03*
D11*
%TO.P,J7,2,Pin_2*%
%TO.N,/MAX31865AAP+1/RTDin-*%
X156631800Y-85981100D03*
%TD*%
D18*
%TO.P,U5,1,1*%
%TO.N,Net-(Q1-Pad3)*%
X134999500Y-70018000D03*
%TO.P,U5,2,2*%
X134999500Y-73418000D03*
%TO.P,U5,3,3*%
%TO.N,+VDC*%
X125079500Y-70018000D03*
%TO.P,U5,4,4*%
X125079500Y-73418000D03*
%TD*%
D10*
%TO.P,J8,1,Pin_1*%
%TO.N,/MAX31865AAP+2/FORCE+*%
X154099500Y-91526100D03*
D11*
%TO.P,J8,2,Pin_2*%
%TO.N,/MAX31865AAP+2/RTDIn+*%
X156639500Y-91526100D03*
%TD*%
D14*
%TO.P,R6,1*%
%TO.N,Net-(U4-Rs)*%
X163881700Y-75743400D03*
D15*
%TO.P,R6,2*%
%TO.N,GND*%
X161341700Y-75743400D03*
%TD*%
D16*
%TO.P,J14,1,Pin_1*%
%TO.N,/MAX31865AAP+1/RTDIn+*%
X169740800Y-86017900D03*
D17*
%TO.P,J14,2,Pin_2*%
%TO.N,/MAX31865AAP+1/FORCE+*%
X169740800Y-83477900D03*
%TO.P,J14,3,Pin_3*%
%TO.N,/MAX31865AAP+1/FORCE-*%
X169740800Y-80937900D03*
%TO.P,J14,4,Pin_4*%
%TO.N,/MAX31865AAP+1/RTDin-*%
X169740800Y-78397900D03*
%TD*%
D16*
%TO.P,J16,1,Pin_1*%
%TO.N,/MAX31865AAP+3/RTDIn+*%
X166572100Y-110206600D03*
D17*
%TO.P,J16,2,Pin_2*%
%TO.N,/MAX31865AAP+3/FORCE+*%
X166572100Y-107666600D03*
%TO.P,J16,3,Pin_3*%
%TO.N,/MAX31865AAP+3/FORCE-*%
X166572100Y-105126600D03*
%TO.P,J16,4,Pin_4*%
%TO.N,/MAX31865AAP+3/RTDin-*%
X166572100Y-102586600D03*
%TD*%
D10*
%TO.P,Powerboard1,1,Pin_1*%
%TO.N,+VDC*%
X130976300Y-92602600D03*
D11*
%TO.P,Powerboard1,2,Pin_2*%
%TO.N,+5V*%
X130976300Y-90062600D03*
%TO.P,Powerboard1,3,Pin_3*%
%TO.N,GND*%
X130976300Y-87522600D03*
%TD*%
D19*
%TO.P,J4,1,Pin_1*%
%TO.N,MISO*%
X148585100Y-70282000D03*
%TO.P,J4,2,Pin_2*%
%TO.N,CLK*%
X148585100Y-75332000D03*
%TO.P,J4,3,Pin_3*%
%TO.N,/BareMinAtmel328P/RESET*%
X146045100Y-70282000D03*
%TO.P,J4,4,Pin_4*%
%TO.N,+5V*%
X146045100Y-75332000D03*
%TO.P,J4,5,Pin_5*%
%TO.N,MOSI*%
X143505100Y-70282000D03*
%TO.P,J4,6,Pin_6*%
%TO.N,GND*%
X143505100Y-75332000D03*
%TD*%
D10*
%TO.P,J9,1,Pin_1*%
%TO.N,/MAX31865AAP+2/FORCE+*%
X163522200Y-91904000D03*
D11*
%TO.P,J9,2,Pin_2*%
%TO.N,Net-(IC2-FORCE2)*%
X163522200Y-94444000D03*
%TO.P,J9,3,Pin_3*%
%TO.N,/MAX31865AAP+2/GND*%
X163522200Y-96984000D03*
%TD*%
D20*
%TO.P,U2,1,~{RESET}/PC6*%
%TO.N,/BareMinAtmel328P/RESET*%
X140929500Y-81761800D03*
D15*
%TO.P,U2,2,PD0*%
%TO.N,/BareMinAtmel328P/PD0-RX*%
X140929500Y-84301800D03*
%TO.P,U2,3,PD1*%
%TO.N,/BareMinAtmel328P/PD1-TX*%
X140929500Y-86841800D03*
%TO.P,U2,4,PD2*%
%TO.N,/BareMinAtmel328P/PD2-D2*%
X140929500Y-89381800D03*
%TO.P,U2,5,PD3*%
%TO.N,/BareMinAtmel328P/PD3-D3*%
X140929500Y-91921800D03*
%TO.P,U2,6,PD4*%
%TO.N,/BareMinAtmel328P/PD4-D4*%
X140929500Y-94461800D03*
%TO.P,U2,7,VCC*%
%TO.N,+5V*%
X140929500Y-97001800D03*
%TO.P,U2,8,GND*%
%TO.N,GND*%
X140929500Y-99541800D03*
%TO.P,U2,9,XTAL1/PB6*%
%TO.N,Net-(U2-XTAL1{slash}PB6)*%
X140929500Y-102081800D03*
%TO.P,U2,10,XTAL2/PB7*%
%TO.N,Net-(U2-XTAL2{slash}PB7)*%
X140929500Y-104621800D03*
%TO.P,U2,11,PD5*%
%TO.N,/BareMinAtmel328P/PD5-D5*%
X140929500Y-107161800D03*
%TO.P,U2,12,PD6*%
%TO.N,/BareMinAtmel328P/PD6-D6*%
X140929500Y-109701800D03*
%TO.P,U2,13,PD7*%
%TO.N,/BareMinAtmel328P/PD7-D7*%
X140929500Y-112241800D03*
%TO.P,U2,14,PB0*%
%TO.N,/BareMinAtmel328P/PB0-D8*%
X140929500Y-114781800D03*
%TO.P,U2,15,PB1*%
%TO.N,/BareMinAtmel328P/PB1-D9*%
X148549500Y-114781800D03*
%TO.P,U2,16,PB2*%
%TO.N,/BareMinAtmel328P/PB2-D10-SS*%
X148549500Y-112241800D03*
%TO.P,U2,17,PB3*%
%TO.N,MOSI*%
X148549500Y-109701800D03*
%TO.P,U2,18,PB4*%
%TO.N,MISO*%
X148549500Y-107161800D03*
%TO.P,U2,19,PB5*%
%TO.N,CLK*%
X148549500Y-104621800D03*
%TO.P,U2,20,AVCC*%
%TO.N,+5V*%
X148549500Y-102081800D03*
%TO.P,U2,21,AREF*%
%TO.N,/BareMinAtmel328P/AREF*%
X148549500Y-99541800D03*
%TO.P,U2,22,GND*%
%TO.N,GND*%
X148549500Y-97001800D03*
%TO.P,U2,23,PC0*%
%TO.N,/BareMinAtmel328P/PC0-A0*%
X148549500Y-94461800D03*
%TO.P,U2,24,PC1*%
%TO.N,/BareMinAtmel328P/PC1-A1*%
X148549500Y-91921800D03*
%TO.P,U2,25,PC2*%
%TO.N,/BareMinAtmel328P/PC2-A2*%
X148549500Y-89381800D03*
%TO.P,U2,26,PC3*%
%TO.N,/BareMinAtmel328P/PC3-A3*%
X148549500Y-86841800D03*
%TO.P,U2,27,PC4*%
%TO.N,/BareMinAtmel328P/PC4-A4-SDA*%
X148549500Y-84301800D03*
%TO.P,U2,28,PC5*%
%TO.N,/BareMinAtmel328P/PC5-A5-SCL*%
X148549500Y-81761800D03*
%TD*%
D10*
%TO.P,J5,1,Pin_1*%
%TO.N,CANBUS_H*%
X139049600Y-61738500D03*
D11*
%TO.P,J5,2,Pin_2*%
%TO.N,Net-(J5-Pin_2)*%
X141589600Y-61738500D03*
%TD*%
D21*
%TO.P,Q1,1*%
%TO.N,Net-(Q1-Pad1)*%
X136586000Y-84423600D03*
D22*
%TO.P,Q1,2*%
%TO.N,Net-(J1-Pin_1)*%
X136586000Y-81883600D03*
%TO.P,Q1,3*%
%TO.N,Net-(Q1-Pad3)*%
X136586000Y-79343600D03*
%TD*%
D23*
%TO.P,R8,1*%
%TO.N,Net-(IC1-BIAS)*%
X177170000Y-76516500D03*
%TO.P,R8,2*%
%TO.N,Net-(IC1-ISENSOR)*%
X180270000Y-76516500D03*
%TD*%
D24*
%TO.P,Y2,1,1*%
%TO.N,Net-(U3-OSC1)*%
X156482900Y-115391200D03*
%TO.P,Y2,2,2*%
%TO.N,Net-(U3-OSC2)*%
X161362900Y-115391200D03*
%TD*%
D25*
%TO.P,Reset1,1,NO_1*%
%TO.N,/BareMinAtmel328P/RESET*%
X135385300Y-113752500D03*
D24*
%TO.P,Reset1,2,NO_2*%
%TO.N,unconnected-(Reset1-NO_2-Pad2)*%
X128885300Y-113752500D03*
%TO.P,Reset1,3,COM_1*%
%TO.N,GND*%
X135385300Y-109252500D03*
%TO.P,Reset1,4,COM_2*%
%TO.N,unconnected-(Reset1-COM_2-Pad4)*%
X128885300Y-109252500D03*
%TD*%
D10*
%TO.P,J6,1,Pin_1*%
%TO.N,/MAX31865AAP+1/FORCE+*%
X162905100Y-80664400D03*
D11*
%TO.P,J6,2,Pin_2*%
%TO.N,Net-(IC1-FORCE2)*%
X162905100Y-83204400D03*
%TO.P,J6,3,Pin_3*%
%TO.N,/MAX31865AAP+1/GND*%
X162905100Y-85744400D03*
%TD*%
D26*
%TO.P,C5,1*%
%TO.N,Net-(U3-OSC1)*%
X151753500Y-119534200D03*
%TO.P,C5,2*%
%TO.N,GND*%
X148628500Y-119534200D03*
%TD*%
D24*
%TO.P,Y1,1,1*%
%TO.N,Net-(U2-XTAL2{slash}PB7)*%
X135241300Y-119345300D03*
%TO.P,Y1,2,2*%
%TO.N,Net-(U2-XTAL1{slash}PB6)*%
X140121300Y-119345300D03*
%TD*%
D10*
%TO.P,J12,1,Pin_1*%
%TO.N,/MAX31865AAP+3/FORCE+*%
X161047400Y-103693100D03*
D11*
%TO.P,J12,2,Pin_2*%
%TO.N,Net-(IC3-FORCE2)*%
X161047400Y-106233100D03*
%TO.P,J12,3,Pin_3*%
%TO.N,/MAX31865AAP+3/GND*%
X161047400Y-108773100D03*
%TD*%
D10*
%TO.P,J11,1,Pin_1*%
%TO.N,/MAX31865AAP+3/FORCE+*%
X152867400Y-108259400D03*
D11*
%TO.P,J11,2,Pin_2*%
%TO.N,/MAX31865AAP+3/RTDIn+*%
X155407400Y-108259400D03*
%TD*%
D10*
%TO.P,J13,1,Pin_1*%
%TO.N,/MAX31865AAP+3/FORCE-*%
X152903300Y-102979900D03*
D11*
%TO.P,J13,2,Pin_2*%
%TO.N,/MAX31865AAP+3/RTDin-*%
X155443300Y-102979900D03*
%TD*%
D27*
%TO.N,Net-(IC2-ISENSOR)*%
X180010700Y-92143669D03*
%TO.N,CLK*%
X144971100Y-73455300D03*
X117699300Y-103285900D03*
X136368700Y-72169000D03*
%TO.N,MISO*%
X144867500Y-68405300D03*
X114802100Y-88147500D03*
%TO.N,MOSI*%
X140841600Y-69572800D03*
X117342000Y-92575600D03*
X124782400Y-110235100D03*
X147641300Y-113599700D03*
%TO.N,Net-(IC3-ISENSOR)*%
X181967200Y-105347900D03*
%TO.N,Net-(IC3-FORCE2)*%
X177879518Y-107437877D03*
%TO.N,Net-(IC3-BIAS)*%
X181961600Y-102609800D03*
%TO.N,/MAX31865AAP+3/FORCE+*%
X177730900Y-106651800D03*
%TO.N,/MAX31865AAP+3/CS3v*%
X131964700Y-98492600D03*
X174881600Y-103995000D03*
%TO.N,Net-(IC2-FORCE2)*%
X179914900Y-100285000D03*
%TO.N,/MAX31865AAP+2/FORCE+*%
X177920000Y-96009400D03*
%TO.N,Net-(IC2-BIAS)*%
X183556175Y-88998020D03*
%TO.N,/MAX31865AAP+2/CS3v*%
X177384300Y-89714200D03*
X122781200Y-95818200D03*
%TO.N,/MAX31865AAP+1/FORCE-*%
X174253000Y-81219000D03*
%TO.N,/MAX31865AAP+1/MISO3v*%
X174440600Y-93207100D03*
X178800600Y-83782000D03*
X175362700Y-101699700D03*
X118879000Y-100879900D03*
%TO.N,Net-(IC1-ISENSOR)*%
X180403600Y-78200600D03*
%TO.N,Net-(IC1-FORCE2)*%
X181451400Y-82409300D03*
%TO.N,/MAX31865AAP+1/CS3v*%
X125187000Y-95880900D03*
X144033000Y-89405800D03*
X143963900Y-85270500D03*
X177512300Y-79467100D03*
%TO.N,/MAX31865AAP+1/SLC3v*%
X138671900Y-110017700D03*
X175642500Y-108305600D03*
X178501400Y-82727400D03*
X178323300Y-93207100D03*
%TO.N,Net-(IC1-BIAS)*%
X179077800Y-76729700D03*
%TO.N,/MAX31865AAP+1/MOSI3v*%
X118195500Y-92633100D03*
X177171800Y-95261000D03*
X177932200Y-83619900D03*
X178039900Y-94426100D03*
X175231100Y-106016800D03*
%TO.N,/MAX31865AAP+3/RTDin-*%
X172361700Y-108135400D03*
%TO.N,/MAX31865AAP+2/RTDIn+*%
X179324300Y-97495000D03*
%TO.N,Net-(U3-~{RESET})*%
X143466100Y-83198500D03*
X137945500Y-82605000D03*
%TO.N,Net-(U3-OSC1)*%
X149904300Y-72875700D03*
X154891200Y-72875700D03*
%TO.N,Net-(U3-OSC2)*%
X148579000Y-66277400D03*
X154649400Y-77140900D03*
%TO.N,/BareMinAtmel328P/PD2-D2*%
X136821900Y-90445800D03*
X133875400Y-88479300D03*
X136496300Y-87251900D03*
%TO.N,/BareMinAtmel328P/PB1-D9*%
X143485200Y-67032600D03*
%TO.N,/BareMinAtmel328P/PD5-D5*%
X120426900Y-106292300D03*
%TO.N,/BareMinAtmel328P/PD3-D3*%
X123142700Y-96620000D03*
%TO.N,/BareMinAtmel328P/PD4-D4*%
X122763500Y-93460500D03*
%TO.N,+5V*%
X146805100Y-72802200D03*
X133911100Y-82406100D03*
X143871900Y-98265100D03*
%TO.N,/BareMinAtmel328P/RESET*%
X145624000Y-104883900D03*
%TO.N,GND*%
X169908000Y-69045400D03*
%TD*%
D28*
%TO.N,/BareMinAtmel328P/PB1-D9*%
X124762100Y-67032600D02*
X143485200Y-67032600D01*
X122548249Y-74611851D02*
X122548249Y-69246451D01*
X114152100Y-83008000D02*
X122548249Y-74611851D01*
X114152100Y-101271000D02*
X114152100Y-83008000D01*
X128770600Y-115889500D02*
X114152100Y-101271000D01*
X146340100Y-115889500D02*
X128770600Y-115889500D01*
X148549500Y-114781800D02*
X147447800Y-114781800D01*
X147447800Y-114781800D02*
X146340100Y-115889500D01*
X122548249Y-69246451D02*
X124762100Y-67032600D01*
%TO.N,MISO*%
X122954200Y-79995400D02*
X114802100Y-88147500D01*
X122954200Y-69408500D02*
X122954200Y-79995400D01*
X124464200Y-67898500D02*
X122954200Y-69408500D01*
X133164100Y-67613400D02*
X132879000Y-67898500D01*
X136632300Y-67613400D02*
X133164100Y-67613400D01*
X136917400Y-67898500D02*
X136632300Y-67613400D01*
X144867500Y-68405300D02*
X144360700Y-67898500D01*
X144360700Y-67898500D02*
X136917400Y-67898500D01*
X132879000Y-67898500D02*
X124464200Y-67898500D01*
%TO.N,Net-(IC2-ISENSOR)*%
X181242517Y-93375486D02*
X182215084Y-93375486D01*
X180010700Y-92143669D02*
X181242517Y-93375486D01*
%TO.N,/MAX31865AAP+1/SLC3v*%
X181320000Y-95116400D02*
X179410700Y-93207100D01*
X179596402Y-107105998D02*
X181320000Y-105382400D01*
X177875672Y-108305600D02*
X179075274Y-107105998D01*
X179075274Y-107105998D02*
X179596402Y-107105998D01*
X175642500Y-108305600D02*
X177875672Y-108305600D01*
X181320000Y-105382400D02*
X181320000Y-95116400D01*
%TO.N,Net-(IC3-FORCE2)*%
X161047400Y-107384800D02*
X161047400Y-106233100D01*
X161392600Y-107384800D02*
X161047400Y-107384800D01*
X162199100Y-108191300D02*
X161392600Y-107384800D01*
X162199100Y-108460300D02*
X162199100Y-108191300D01*
X177820141Y-107378500D02*
X175542600Y-107378500D01*
X171305900Y-111615200D02*
X165354000Y-111615200D01*
X177879518Y-107437877D02*
X177820141Y-107378500D01*
X165354000Y-111615200D02*
X162199100Y-108460300D01*
X175542600Y-107378500D02*
X171305900Y-111615200D01*
%TO.N,Net-(IC2-BIAS)*%
X182278709Y-90275486D02*
X183556175Y-88998020D01*
X182215084Y-90275486D02*
X182278709Y-90275486D01*
%TO.N,CLK*%
X148549500Y-104621800D02*
X147447800Y-104621800D01*
X146111900Y-103285900D02*
X117699300Y-103285900D01*
X147447800Y-104621800D02*
X146111900Y-103285900D01*
X148585100Y-74393600D02*
X148585100Y-73455300D01*
X141408400Y-77208700D02*
X136368700Y-72169000D01*
X146670100Y-77208700D02*
X141408400Y-77208700D01*
X148585100Y-75293700D02*
X146670100Y-77208700D01*
X148585100Y-73455300D02*
X144971100Y-73455300D01*
%TO.N,MISO*%
X148585100Y-70282000D02*
X148585100Y-68405300D01*
X148549500Y-107161800D02*
X148549500Y-106060100D01*
X147686800Y-106060100D02*
X148549500Y-106060100D01*
X145908800Y-104282100D02*
X147686800Y-106060100D01*
X144441900Y-104282100D02*
X145908800Y-104282100D01*
X142958400Y-105765600D02*
X144441900Y-104282100D01*
X122587200Y-105765600D02*
X142958400Y-105765600D01*
X122512200Y-105690600D02*
X122587200Y-105765600D01*
X119163600Y-105690600D02*
X122512200Y-105690600D01*
X114802100Y-101329100D02*
X119163600Y-105690600D01*
X114802100Y-88147500D02*
X114802100Y-101329100D01*
X148585100Y-68405300D02*
X144867500Y-68405300D01*
%TO.N,MOSI*%
X143505100Y-70282000D02*
X143505100Y-68571600D01*
X140841600Y-69572800D02*
X140841600Y-68571600D01*
X143505100Y-68571600D02*
X140841600Y-68571600D01*
X128024000Y-110235100D02*
X124782400Y-110235100D01*
X132628600Y-114839700D02*
X128024000Y-110235100D01*
X139071600Y-114839700D02*
X132628600Y-114839700D01*
X140311600Y-113599700D02*
X139071600Y-114839700D01*
X147641300Y-113599700D02*
X140311600Y-113599700D01*
X123354200Y-86563400D02*
X117342000Y-92575600D01*
X123354200Y-69576500D02*
X123354200Y-86563400D01*
X124513900Y-68416800D02*
X123354200Y-69576500D01*
X132928800Y-68416800D02*
X124513900Y-68416800D01*
X133330500Y-68015100D02*
X132928800Y-68416800D01*
X136466000Y-68015100D02*
X133330500Y-68015100D01*
X137022500Y-68571600D02*
X136466000Y-68015100D01*
X140841600Y-68571600D02*
X137022500Y-68571600D01*
%TO.N,Net-(IC3-ISENSOR)*%
X182005900Y-105347900D02*
X181967200Y-105347900D01*
X183194000Y-104159800D02*
X182005900Y-105347900D01*
%TO.N,Net-(IC3-BIAS)*%
X183194000Y-101377400D02*
X181961600Y-102609800D01*
%TO.N,/MAX31865AAP+3/FORCE-*%
X154055000Y-103267900D02*
X154055000Y-102979900D01*
X154918700Y-104131600D02*
X154055000Y-103267900D01*
X158482200Y-104131600D02*
X154918700Y-104131600D01*
X160108900Y-102504900D02*
X158482200Y-104131600D01*
X163950400Y-102504900D02*
X160108900Y-102504900D01*
X166572100Y-105126600D02*
X163950400Y-102504900D01*
X152903300Y-102979900D02*
X154055000Y-102979900D01*
%TO.N,/MAX31865AAP+3/FORCE+*%
X162199100Y-103693100D02*
X166172600Y-107666600D01*
X161623300Y-103693100D02*
X162199100Y-103693100D01*
X154019100Y-107971400D02*
X154019100Y-108259400D01*
X154882800Y-107107700D02*
X154019100Y-107971400D01*
X156481100Y-107107700D02*
X154882800Y-107107700D01*
X159895700Y-103693100D02*
X156481100Y-107107700D01*
X161047400Y-103693100D02*
X159895700Y-103693100D01*
X152867400Y-108259400D02*
X154019100Y-108259400D01*
X168271800Y-108806400D02*
X167132000Y-107666600D01*
X173244400Y-108806400D02*
X168271800Y-108806400D01*
X175399000Y-106651800D02*
X173244400Y-108806400D01*
X177730900Y-106651800D02*
X175399000Y-106651800D01*
%TO.N,/MAX31865AAP+3/CS3v*%
X138200400Y-98492600D02*
X131964700Y-98492600D01*
X138255500Y-98437500D02*
X138200400Y-98492600D01*
X141600700Y-98437500D02*
X138255500Y-98437500D01*
X142034400Y-98871200D02*
X141600700Y-98437500D01*
X144892900Y-98871200D02*
X142034400Y-98871200D01*
X147906600Y-95857500D02*
X144892900Y-98871200D01*
X149034400Y-95857500D02*
X147906600Y-95857500D01*
X153587000Y-100410100D02*
X149034400Y-95857500D01*
X167833900Y-100410100D02*
X153587000Y-100410100D01*
X171418800Y-103995000D02*
X167833900Y-100410100D01*
X174881600Y-103995000D02*
X171418800Y-103995000D01*
%TO.N,Net-(IC2-FORCE2)*%
X163522200Y-94444000D02*
X163522200Y-95595700D01*
X177851000Y-102348900D02*
X179914900Y-100285000D01*
X171182300Y-102348900D02*
X177851000Y-102348900D01*
X164429100Y-95595700D02*
X171182300Y-102348900D01*
X163522200Y-95595700D02*
X164429100Y-95595700D01*
%TO.N,/MAX31865AAP+2/FORCE-*%
X154147400Y-96704500D02*
X154147400Y-95552800D01*
X167036200Y-89917400D02*
X169777600Y-92658800D01*
X153576900Y-89917400D02*
X167036200Y-89917400D01*
X152936700Y-90557600D02*
X153576900Y-89917400D01*
X152936700Y-94342100D02*
X152936700Y-90557600D01*
X154147400Y-95552800D02*
X152936700Y-94342100D01*
%TO.N,/MAX31865AAP+2/FORCE+*%
X164098100Y-91904000D02*
X164673900Y-91904000D01*
X167968700Y-95198800D02*
X164673900Y-91904000D01*
X169777600Y-95198800D02*
X167968700Y-95198800D01*
X154099500Y-91526100D02*
X155251200Y-91526100D01*
X162564800Y-90370700D02*
X164098100Y-91904000D01*
X156118700Y-90370700D02*
X162564800Y-90370700D01*
X155251200Y-91238200D02*
X156118700Y-90370700D01*
X155251200Y-91526100D02*
X155251200Y-91238200D01*
X170588200Y-96009400D02*
X177920000Y-96009400D01*
X169777600Y-95198800D02*
X170588200Y-96009400D01*
%TO.N,/MAX31865AAP+2/CS3v*%
X122540900Y-96058500D02*
X122781200Y-95818200D01*
X122540900Y-96890300D02*
X122540900Y-96058500D01*
X122902900Y-97252300D02*
X122540900Y-96890300D01*
X131372500Y-97252300D02*
X122902900Y-97252300D01*
X135330400Y-93294400D02*
X131372500Y-97252300D01*
X142848600Y-93294400D02*
X135330400Y-93294400D01*
X145322900Y-90820100D02*
X142848600Y-93294400D01*
X148669300Y-90820100D02*
X145322900Y-90820100D01*
X150832100Y-88657300D02*
X148669300Y-90820100D01*
X176327400Y-88657300D02*
X150832100Y-88657300D01*
X177384300Y-89714200D02*
X176327400Y-88657300D01*
%TO.N,/MAX31865AAP+1/FORCE-*%
X154091800Y-85981100D02*
X155243500Y-85981100D01*
X155243500Y-86269000D02*
X155243500Y-85981100D01*
X156126100Y-87151600D02*
X155243500Y-86269000D01*
X163527100Y-87151600D02*
X156126100Y-87151600D01*
X169740800Y-80937900D02*
X163527100Y-87151600D01*
X174253000Y-81219000D02*
X170021900Y-81219000D01*
%TO.N,/MAX31865AAP+1/FORCE+*%
X162905100Y-80664400D02*
X161753400Y-80664400D01*
X154427100Y-80520700D02*
X155578800Y-80520700D01*
X160745400Y-81672400D02*
X161753400Y-80664400D01*
X156490000Y-81672400D02*
X160745400Y-81672400D01*
X155578800Y-80761200D02*
X156490000Y-81672400D01*
X155578800Y-80520700D02*
X155578800Y-80761200D01*
%TO.N,/MAX31865AAP+1/MISO3v*%
X178800600Y-90943300D02*
X178800600Y-83782000D01*
X176536800Y-93207100D02*
X178800600Y-90943300D01*
X176536800Y-93207100D02*
X174440600Y-93207100D01*
X176536800Y-93775100D02*
X176536800Y-93207100D01*
X179948900Y-97187200D02*
X176536800Y-93775100D01*
X179948900Y-98698500D02*
X179948900Y-97187200D01*
X179590400Y-99057000D02*
X179948900Y-98698500D01*
X176947700Y-101699700D02*
X179590400Y-99057000D01*
X175362700Y-101699700D02*
X176947700Y-101699700D01*
X167516300Y-100879900D02*
X118879000Y-100879900D01*
X171283100Y-104646700D02*
X167516300Y-100879900D01*
X176459800Y-104646700D02*
X171283100Y-104646700D01*
X180516600Y-100589900D02*
X176459800Y-104646700D01*
X180516600Y-99983200D02*
X180516600Y-100589900D01*
X179590400Y-99057000D02*
X180516600Y-99983200D01*
%TO.N,Net-(IC1-ISENSOR)*%
X180270000Y-78067000D02*
X180403600Y-78200600D01*
X180270000Y-76516500D02*
X180270000Y-78067000D01*
%TO.N,Net-(IC1-FORCE2)*%
X162905100Y-83204400D02*
X164056800Y-83204400D01*
X181167800Y-82125700D02*
X181451400Y-82409300D01*
X177237500Y-82125700D02*
X181167800Y-82125700D01*
X172091200Y-76979400D02*
X177237500Y-82125700D01*
X169130100Y-76979400D02*
X172091200Y-76979400D01*
X164056800Y-82052700D02*
X169130100Y-76979400D01*
X164056800Y-83204400D02*
X164056800Y-82052700D01*
%TO.N,/MAX31865AAP+1/CS3v*%
X142787000Y-90651800D02*
X144033000Y-89405800D01*
X137508700Y-90651800D02*
X142787000Y-90651800D01*
X137113000Y-91047500D02*
X137508700Y-90651800D01*
X135919500Y-91047500D02*
X137113000Y-91047500D01*
X131086100Y-95880900D02*
X135919500Y-91047500D01*
X125187000Y-95880900D02*
X131086100Y-95880900D01*
X174622900Y-76577700D02*
X177512300Y-79467100D01*
X166389200Y-76577700D02*
X174622900Y-76577700D01*
X165424300Y-77542600D02*
X166389200Y-76577700D01*
X155098600Y-77542600D02*
X165424300Y-77542600D01*
X149560200Y-83081000D02*
X155098600Y-77542600D01*
X146153400Y-83081000D02*
X149560200Y-83081000D01*
X143963900Y-85270500D02*
X146153400Y-83081000D01*
%TO.N,/MAX31865AAP+1/SLC3v*%
X171931200Y-112016900D02*
X175642500Y-108305600D01*
X162413100Y-112016900D02*
X171931200Y-112016900D01*
X161368000Y-110971800D02*
X162413100Y-112016900D01*
X139626000Y-110971800D02*
X161368000Y-110971800D01*
X138671900Y-110017700D02*
X139626000Y-110971800D01*
X178621000Y-82727400D02*
X178501400Y-82727400D01*
X179410700Y-83517100D02*
X178621000Y-82727400D01*
X179410700Y-93207100D02*
X179410700Y-83517100D01*
X179410700Y-93207100D02*
X178323300Y-93207100D01*
%TO.N,Net-(IC1-BIAS)*%
X177383200Y-76729700D02*
X179077800Y-76729700D01*
%TO.N,/MAX31865AAP+1/MOSI3v*%
X180918300Y-97304500D02*
X178039900Y-94426100D01*
X180918300Y-100826600D02*
X180918300Y-97304500D01*
X175728100Y-106016800D02*
X180918300Y-100826600D01*
X175231100Y-106016800D02*
X175728100Y-106016800D01*
X176733800Y-84818300D02*
X177932200Y-83619900D01*
X176733800Y-88202100D02*
X176733800Y-84818300D01*
X175630000Y-95261000D02*
X177171800Y-95261000D01*
X173838800Y-93469800D02*
X175630000Y-95261000D01*
X173838800Y-92907200D02*
X173838800Y-93469800D01*
X175812000Y-90934000D02*
X173838800Y-92907200D01*
X177087000Y-90934000D02*
X175812000Y-90934000D01*
X178016400Y-90004600D02*
X177087000Y-90934000D01*
X178016400Y-89484700D02*
X178016400Y-90004600D01*
X176733800Y-88202100D02*
X178016400Y-89484700D01*
X126241100Y-92633100D02*
X118195500Y-92633100D01*
X127414400Y-93806400D02*
X126241100Y-92633100D01*
X132590600Y-93806400D02*
X127414400Y-93806400D01*
X138194900Y-88202100D02*
X132590600Y-93806400D01*
X176733800Y-88202100D02*
X138194900Y-88202100D01*
%TO.N,/MAX31865AAP+3/RTDin-*%
X155443300Y-102979900D02*
X156595000Y-102979900D01*
X157471700Y-102103200D02*
X166088700Y-102103200D01*
X156595000Y-102979900D02*
X157471700Y-102103200D01*
X172120900Y-108135400D02*
X172361700Y-108135400D01*
X166572100Y-102586600D02*
X172120900Y-108135400D01*
%TO.N,/MAX31865AAP+2/RTDIn+*%
X170001800Y-97738800D02*
X171179300Y-97738800D01*
X168375900Y-97651200D02*
X168375900Y-97738800D01*
X163853200Y-93128500D02*
X168375900Y-97651200D01*
X159393600Y-93128500D02*
X163853200Y-93128500D01*
X157791200Y-91526100D02*
X159393600Y-93128500D01*
X156639500Y-91526100D02*
X157791200Y-91526100D01*
X169777600Y-97738800D02*
X168375900Y-97738800D01*
X171423100Y-97495000D02*
X179324300Y-97495000D01*
X171179300Y-97738800D02*
X171423100Y-97495000D01*
%TO.N,/MAX31865AAP+1/RTDin-*%
X156631800Y-85981100D02*
X157783500Y-85981100D01*
X159290200Y-84474400D02*
X157783500Y-85981100D01*
X163664300Y-84474400D02*
X159290200Y-84474400D01*
X169740800Y-78397900D02*
X163664300Y-84474400D01*
%TO.N,Net-(U3-~{RESET})*%
X138539000Y-83198500D02*
X143466100Y-83198500D01*
X137945500Y-82605000D02*
X138539000Y-83198500D01*
D29*
%TO.N,Net-(J1-Pin_1)*%
X148640000Y-80380800D02*
X157148000Y-71872800D01*
X138089000Y-80380800D02*
X148640000Y-80380800D01*
X136586000Y-81883600D02*
X138089000Y-80380800D01*
D28*
%TO.N,Net-(U3-OSC1)*%
X152339900Y-119534200D02*
X156482900Y-115391200D01*
X151753500Y-119534200D02*
X152339900Y-119534200D01*
X154891200Y-72875700D02*
X149904300Y-72875700D01*
%TO.N,Net-(U3-OSC2)*%
X161507900Y-77140900D02*
X154649400Y-77140900D01*
X162611700Y-76037100D02*
X161507900Y-77140900D01*
X162611700Y-75394700D02*
X162611700Y-76037100D01*
X164280200Y-73726200D02*
X162611700Y-75394700D01*
X166078300Y-73726200D02*
X164280200Y-73726200D01*
X170511800Y-69292700D02*
X166078300Y-73726200D01*
X170511800Y-68787200D02*
X170511800Y-69292700D01*
X158831500Y-57106900D02*
X170511800Y-68787200D01*
X141221100Y-57106900D02*
X158831500Y-57106900D01*
X140523500Y-57804500D02*
X141221100Y-57106900D01*
X140523500Y-58755900D02*
X140523500Y-57804500D01*
X148045000Y-66277400D02*
X140523500Y-58755900D01*
X148579000Y-66277400D02*
X148045000Y-66277400D01*
%TO.N,Net-(U2-XTAL2{slash}PB7)*%
X136560900Y-118025700D02*
X145039800Y-118025700D01*
X135241300Y-119345300D02*
X136560900Y-118025700D01*
%TO.N,/BareMinAtmel328P/PD2-D2*%
X135102800Y-87251900D02*
X136496300Y-87251900D01*
X133875400Y-88479300D02*
X135102800Y-87251900D01*
X137885900Y-89381800D02*
X136821900Y-90445800D01*
X140929500Y-89381800D02*
X137885900Y-89381800D01*
D29*
%TO.N,Net-(Q1-Pad3)*%
X136586000Y-75004500D02*
X136586000Y-79343600D01*
X135000000Y-73418000D02*
X136586000Y-75004500D01*
X135000000Y-71718000D02*
X135000000Y-73418000D01*
D28*
X134999500Y-71718500D02*
X134999500Y-73418000D01*
X135000000Y-71718000D02*
X134999500Y-71718500D01*
D29*
X135000000Y-70018000D02*
X135000000Y-70868000D01*
X135000000Y-70868000D02*
X135000000Y-71718000D01*
D28*
%TO.N,/BareMinAtmel328P/PC0-A0*%
X136722200Y-95566100D02*
X135965600Y-94809500D01*
X146343500Y-95566100D02*
X136722200Y-95566100D01*
X147447800Y-94461800D02*
X146343500Y-95566100D01*
X148549500Y-94461800D02*
X147447800Y-94461800D01*
%TO.N,/BareMinAtmel328P/PD5-D5*%
X140929500Y-107161800D02*
X139827800Y-107161800D01*
X138958300Y-106292300D02*
X120426900Y-106292300D01*
X139827800Y-107161800D02*
X138958300Y-106292300D01*
%TO.N,/BareMinAtmel328P/PD3-D3*%
X131263700Y-96620000D02*
X123142700Y-96620000D01*
X135961900Y-91921800D02*
X131263700Y-96620000D01*
X140929500Y-91921800D02*
X135961900Y-91921800D01*
%TO.N,/BareMinAtmel328P/PD4-D4*%
X140929500Y-94461800D02*
X139827800Y-94461800D01*
X122124700Y-94099300D02*
X122763500Y-93460500D01*
X122124700Y-97113100D02*
X122124700Y-94099300D01*
X122709000Y-97697400D02*
X122124700Y-97113100D01*
X131517600Y-97697400D02*
X122709000Y-97697400D01*
X135518900Y-93696100D02*
X131517600Y-97697400D01*
X139062100Y-93696100D02*
X135518900Y-93696100D01*
X139827800Y-94461800D02*
X139062100Y-93696100D01*
D29*
%TO.N,+VDC*%
X125080000Y-86705800D02*
X125080000Y-73418000D01*
X130976000Y-92602600D02*
X125080000Y-86705800D01*
X125080000Y-73418000D02*
X125080000Y-70018000D01*
D28*
%TO.N,CANBUS_H*%
X139049600Y-61738500D02*
X140201300Y-61738500D01*
X145054000Y-66879100D02*
X157061700Y-66879100D01*
X140201300Y-62026400D02*
X145054000Y-66879100D01*
X140201300Y-61738500D02*
X140201300Y-62026400D01*
%TO.N,CANBUS_L*%
X141656100Y-58260700D02*
X142757800Y-58260700D01*
X148749900Y-64252800D02*
X157148000Y-64252800D01*
X142757800Y-58260700D02*
X148749900Y-64252800D01*
%TO.N,+5V*%
X137415000Y-97001800D02*
X137067300Y-97349500D01*
X140929500Y-97001800D02*
X137415000Y-97001800D01*
X135965600Y-97349500D02*
X137067300Y-97349500D01*
X130976300Y-90062600D02*
X130976300Y-88910900D01*
X140929500Y-97001800D02*
X142031200Y-97001800D01*
X143294500Y-98265100D02*
X143871900Y-98265100D01*
X142031200Y-97001800D02*
X143294500Y-98265100D01*
X144746800Y-72802200D02*
X146805100Y-72802200D01*
X144367800Y-73181200D02*
X144746800Y-72802200D01*
X144367800Y-73754300D02*
X144367800Y-73181200D01*
X145945500Y-75332000D02*
X144367800Y-73754300D01*
X131244800Y-88910900D02*
X130976300Y-88910900D01*
X133911100Y-86244600D02*
X131244800Y-88910900D01*
X133911100Y-82406100D02*
X133911100Y-86244600D01*
%TO.N,/BareMinAtmel328P/RESET*%
X135385300Y-113752500D02*
X135385300Y-112453500D01*
X139407000Y-108431800D02*
X135385300Y-112453500D01*
X142076100Y-108431800D02*
X139407000Y-108431800D01*
X145624000Y-104883900D02*
X142076100Y-108431800D01*
X144168400Y-72158700D02*
X146045100Y-70282000D01*
X139832600Y-72158700D02*
X144168400Y-72158700D01*
X136140700Y-68466800D02*
X139832600Y-72158700D01*
X134410200Y-68466800D02*
X136140700Y-68466800D01*
X133496700Y-69380300D02*
X134410200Y-68466800D01*
X133496700Y-75693100D02*
X133496700Y-69380300D01*
X134548400Y-76744800D02*
X133496700Y-75693100D01*
X134548400Y-86814600D02*
X134548400Y-76744800D01*
X133225400Y-88137600D02*
X134548400Y-86814600D01*
X133225400Y-88708100D02*
X133225400Y-88137600D01*
X133642900Y-89125600D02*
X133225400Y-88708100D01*
X136172300Y-89125600D02*
X133642900Y-89125600D01*
X139614100Y-85683800D02*
X136172300Y-89125600D01*
X141878200Y-85683800D02*
X139614100Y-85683800D01*
X144123500Y-83438500D02*
X141878200Y-85683800D01*
X144123500Y-82983300D02*
X144123500Y-83438500D01*
X142902000Y-81761800D02*
X144123500Y-82983300D01*
X140929500Y-81761800D02*
X142902000Y-81761800D01*
%TO.N,GND*%
X148549500Y-97001800D02*
X147447800Y-97001800D01*
X143505100Y-75332000D02*
X143505100Y-73455300D01*
X146767300Y-121150700D02*
X145039800Y-121150700D01*
X146767300Y-124094700D02*
X146767300Y-121150700D01*
X147012100Y-121150600D02*
X148628500Y-119534200D01*
X146767300Y-121150600D02*
X147012100Y-121150600D01*
X146767300Y-121150700D02*
X146767300Y-121150600D01*
X144907800Y-99541800D02*
X147447800Y-97001800D01*
X140929500Y-99541800D02*
X144907800Y-99541800D01*
X157235500Y-69332800D02*
X161341700Y-73439000D01*
X161341700Y-73439000D02*
X161341700Y-75743400D01*
X165735300Y-69045400D02*
X169908000Y-69045400D01*
X161341700Y-73439000D02*
X165735300Y-69045400D01*
X152570300Y-69332800D02*
X157148000Y-69332800D01*
X149744400Y-72158700D02*
X152570300Y-69332800D01*
X144801700Y-72158700D02*
X149744400Y-72158700D01*
X143505100Y-73455300D02*
X144801700Y-72158700D01*
%TD*%
M02*
