M48
INCH
T1C0.0118
T2C0.0315
T3C0.0394
T4C0.0433
T5C0.0504
T6C0.0630
%
G90
G05
T1
X4.9381Y-3.9985
X4.9874Y-4.1405
X5.0562Y-3.9011
X5.079Y-3.8741
X5.0826Y-4.0916
X5.121Y-4.1819
X5.2306Y-3.0918
X5.2456Y-3.6319
X5.2516Y-3.8482
X5.2523Y-3.8025
X5.2545Y-3.0233
X5.2757Y-2.6409
X5.2841Y-3.8876
X5.295Y-3.6589
X5.2995Y-3.6919
X5.3059Y-3.1015
X5.3557Y-3.9351
X5.3967Y-2.6178
X5.4164Y-3.6427
X5.4257Y-2.901
X5.4905Y-4.0142
X5.5358Y-2.7592
X5.5959Y-3.0037
X5.606Y-4.6525
X5.6181Y-4.597
X5.6479Y-3.3867
X5.6807Y-4.5457
X5.6919Y-2.8504
X5.7121Y-2.6571
X5.7591Y-4.1676
X5.7724Y-2.8836
X5.7914Y-4.2389
X5.8519Y-4.705
X5.9191Y-4.1628
X5.9221Y-3.9355
X5.9226Y-3.4732
X5.9257Y-4.264
X5.928Y-3.7753
X5.9285Y-3.4165
X5.9437Y-3.6034
X5.9537Y-2.5065
X6.0327Y-4.3664
X6.0356Y-4.3314
X6.0362Y-3.289
X6.0364Y-3.4217
X6.0368Y-3.2437
X6.0399Y-3.8812
X6.04Y-3.8432
X6.0626Y-3.9355
X6.0647Y-3.7772
X6.0699Y-2.457
X6.0768Y-4.135
X6.0779Y-3.1768
X6.0824Y-3.6016
X6.0863Y-4.0384
X6.0868Y-4.2029
X6.1037Y-3.4813
X6.1064Y-3.6575
X6.1577Y-3.1863
X6.1633Y-3.7316
X6.1675Y-4.092
X6.1675Y-4.1688
X6.1814Y-3.6434
X6.1888Y-3.3304
X6.2209Y-3.1441
X6.3077Y-4.0493
X6.3167Y-3.7636
X6.3173Y-3.2358
X6.3198Y-4.2268
X6.3212Y-3.5298
X6.341Y-3.0792
X6.3513Y-3.2876
X6.3568Y-4.3314
X6.3574Y-3.9075
X6.3817Y-4.4377
X6.407Y-3.4215
X6.4105Y-4.2219
X6.4124Y-3.7829
X6.5419Y-2.6015
X6.5749Y-2.6989
T2
X5.3245Y-4.6986
X5.353Y-3.7327
X5.353Y-3.8327
X5.477Y-2.2937
X5.5166Y-4.6986
X5.5484Y-3.219
X5.5484Y-3.319
X5.5484Y-3.419
X5.5484Y-3.519
X5.5484Y-3.619
X5.5484Y-3.719
X5.5484Y-3.819
X5.5484Y-3.919
X5.5484Y-4.019
X5.5484Y-4.119
X5.5484Y-4.219
X5.5484Y-4.319
X5.5484Y-4.419
X5.5484Y-4.519
X5.577Y-2.2937
X5.8484Y-3.219
X5.8484Y-3.319
X5.8484Y-3.419
X5.8484Y-3.519
X5.8484Y-3.619
X5.8484Y-3.719
X5.8484Y-3.819
X5.8484Y-3.919
X5.8484Y-4.019
X5.8484Y-4.119
X5.8484Y-4.219
X5.8484Y-4.319
X5.8484Y-4.419
X5.8484Y-4.519
X6.1607Y-4.543
X6.1978Y-2.9757
X6.2978Y-2.9757
X6.3529Y-4.543
T3
X5.0742Y-4.3013
X5.0742Y-4.4784
X5.1565Y-3.4458
X5.1565Y-3.5458
X5.1565Y-3.6458
X5.2782Y-4.8856
X5.3301Y-4.3013
X5.3301Y-4.4784
X5.3782Y-4.8856
X5.4744Y-2.4306
X5.4782Y-4.8856
X5.5744Y-2.4306
X5.5782Y-4.8856
X5.6782Y-4.8856
X5.7782Y-4.8856
T4
X6.1869Y-2.5296
X6.1869Y-2.6296
X6.1869Y-2.7296
X6.1869Y-2.8296
X6.6082Y-3.4801
X6.6082Y-3.5801
X6.6082Y-3.6801
X6.6082Y-3.7801
X6.6099Y-3.0065
X6.6099Y-3.1065
X6.6099Y-3.2065
X6.6099Y-3.3065
X6.6106Y-3.9673
X6.6106Y-4.0673
X6.6106Y-4.1673
X6.6106Y-4.2673
T5
X5.3774Y-3.1238
X5.3774Y-3.2238
X5.3774Y-3.3238
T6
X4.9244Y-2.7566
X4.9244Y-2.8905
X5.3149Y-2.7566
X5.3149Y-2.8905
M30
